<svg width="40" height="40" viewBox="0 0 40 40" fill="none" xmlns="http://www.w3.org/2000/svg">
<g id="Frame" clip-path="url(#clip0_484_64)">
<g id="Square menu dashboard">
<path id="Vector" d="M13.75 0H5C3.67392 0 2.40215 0.526784 1.46447 1.46447C0.526784 2.40215 0 3.67392 0 5L0 13.75C0 15.0761 0.526784 16.3479 1.46447 17.2855C2.40215 18.2232 3.67392 18.75 5 18.75H13.75C15.0761 18.75 16.3479 18.2232 17.2855 17.2855C18.2232 16.3479 18.75 15.0761 18.75 13.75V5C18.75 3.67392 18.2232 2.40215 17.2855 1.46447C16.3479 0.526784 15.0761 0 13.75 0ZM16.25 13.75C16.25 14.413 15.9866 15.0489 15.5178 15.5178C15.0489 15.9866 14.413 16.25 13.75 16.25H5C4.33696 16.25 3.70107 15.9866 3.23223 15.5178C2.76339 15.0489 2.5 14.413 2.5 13.75V5C2.5 4.33696 2.76339 3.70107 3.23223 3.23223C3.70107 2.76339 4.33696 2.5 5 2.5H13.75C14.413 2.5 15.0489 2.76339 15.5178 3.23223C15.9866 3.70107 16.25 4.33696 16.25 5V13.75Z" fill="black"/>
<path id="Vector_2" d="M35 0H26.25C24.9239 0 23.6521 0.526784 22.7145 1.46447C21.7768 2.40215 21.25 3.67392 21.25 5V13.75C21.25 15.0761 21.7768 16.3479 22.7145 17.2855C23.6521 18.2232 24.9239 18.75 26.25 18.75H35C36.3261 18.75 37.5979 18.2232 38.5355 17.2855C39.4732 16.3479 40 15.0761 40 13.75V5C40 3.67392 39.4732 2.40215 38.5355 1.46447C37.5979 0.526784 36.3261 0 35 0ZM37.5 13.75C37.5 14.413 37.2366 15.0489 36.7678 15.5178C36.2989 15.9866 35.663 16.25 35 16.25H26.25C25.587 16.25 24.9511 15.9866 24.4822 15.5178C24.0134 15.0489 23.75 14.413 23.75 13.75V5C23.75 4.33696 24.0134 3.70107 24.4822 3.23223C24.9511 2.76339 25.587 2.5 26.25 2.5H35C35.663 2.5 36.2989 2.76339 36.7678 3.23223C37.2366 3.70107 37.5 4.33696 37.5 5V13.75Z" fill="black"/>
<path id="Vector_3" d="M13.75 21.25H5C3.67392 21.25 2.40215 21.7768 1.46447 22.7145C0.526784 23.6521 0 24.9239 0 26.25L0 35C0 36.3261 0.526784 37.5979 1.46447 38.5355C2.40215 39.4732 3.67392 40 5 40H13.75C15.0761 40 16.3479 39.4732 17.2855 38.5355C18.2232 37.5979 18.75 36.3261 18.75 35V26.25C18.75 24.9239 18.2232 23.6521 17.2855 22.7145C16.3479 21.7768 15.0761 21.25 13.75 21.25ZM16.25 35C16.25 35.663 15.9866 36.2989 15.5178 36.7678C15.0489 37.2366 14.413 37.5 13.75 37.5H5C4.33696 37.5 3.70107 37.2366 3.23223 36.7678C2.76339 36.2989 2.5 35.663 2.5 35V26.25C2.5 25.587 2.76339 24.9511 3.23223 24.4822C3.70107 24.0134 4.33696 23.75 5 23.75H13.75C14.413 23.75 15.0489 24.0134 15.5178 24.4822C15.9866 24.9511 16.25 25.587 16.25 26.25V35Z" fill="black"/>
<path id="Vector_4" d="M35 21.25H26.25C24.9239 21.25 23.6521 21.7768 22.7145 22.7145C21.7768 23.6521 21.25 24.9239 21.25 26.25V35C21.25 36.3261 21.7768 37.5979 22.7145 38.5355C23.6521 39.4732 24.9239 40 26.25 40H35C36.3261 40 37.5979 39.4732 38.5355 38.5355C39.4732 37.5979 40 36.3261 40 35V26.25C40 24.9239 39.4732 23.6521 38.5355 22.7145C37.5979 21.7768 36.3261 21.25 35 21.25ZM37.5 35C37.5 35.663 37.2366 36.2989 36.7678 36.7678C36.2989 37.2366 35.663 37.5 35 37.5H26.25C25.587 37.5 24.9511 37.2366 24.4822 36.7678C24.0134 36.2989 23.75 35.663 23.75 35V26.25C23.75 25.587 24.0134 24.9511 24.4822 24.4822C24.9511 24.0134 25.587 23.75 26.25 23.75H35C35.663 23.75 36.2989 24.0134 36.7678 24.4822C37.2366 24.9511 37.5 25.587 37.5 26.25V35Z" fill="black"/>
</g>
</g>
<defs>
<clipPath id="clip0_484_64">
<rect width="40" height="40" fill="white"/>
</clipPath>
</defs>
</svg>
