<svg width="28" height="28" viewBox="0 0 28 28" fill="none" xmlns="http://www.w3.org/2000/svg">
<g id="Frame">
<g id="Group">
<path id="Vector" d="M13.9999 18.6667C16.5736 18.6667 18.6666 16.5737 18.6666 14V7C18.6666 4.4135 16.5841 2.30884 14.0244 2.30884C13.9423 2.30934 13.8605 2.31912 13.7806 2.338C12.5828 2.39608 11.453 2.91242 10.6252 3.78019C9.79739 4.64795 9.33484 5.80073 9.33325 7V14C9.33325 16.5737 11.4263 18.6667 13.9999 18.6667Z" fill="#C61756"/>
<path id="Vector_2" d="M12.8333 23.2528V25.6667H15.1666V23.2528C19.7621 22.6753 23.3333 18.7518 23.3333 14H21C21 17.8605 17.8605 21 14 21C10.1395 21 6.99996 17.8605 6.99996 14H4.66663C4.66663 18.7507 8.23779 22.6753 12.8333 23.2528Z" fill="#C61756"/>
</g>
</g>
</svg>
