<svg width="301" height="128" viewBox="0 0 301 128" fill="none" xmlns="http://www.w3.org/2000/svg">
<path d="M0 0H162.245V88H0V0ZM160.496 86.397V60.2899H1.74291V86.397H160.496ZM38.3774 44.4608C40.8442 44.4608 43.232 44.4517 45.6167 44.4791C45.7688 44.4791 46.0243 44.7376 46.0547 44.908C46.1976 45.714 46.2706 46.5322 46.3832 47.3413C46.5779 48.7588 46.7847 50.1762 46.9854 51.5937H58.1303C58.109 51.3321 58.109 51.11 58.0695 50.8971C57.2573 46.4562 56.4391 42.0183 55.6239 37.5774C54.5532 31.7464 53.4765 25.9185 52.4088 20.0875C51.7914 16.7203 51.1861 13.3532 50.5656 9.98597C50.4925 9.5875 50.4743 9.18599 49.8325 9.18904C44.8045 9.21641 39.7766 9.20729 34.7486 9.19816C34.3167 9.19816 34.1463 9.35329 34.0764 9.78521C33.8908 10.935 33.6475 12.0756 33.4376 13.2224C32.4217 18.7613 31.4088 24.2973 30.3959 29.8362C29.3252 35.6915 28.2576 41.5469 27.1899 47.4022C26.9375 48.7831 26.6911 50.164 26.4447 51.5267C26.5846 51.5845 26.6272 51.618 26.6728 51.618C30.0826 51.6241 33.4924 51.6241 36.9021 51.6423C37.4132 51.6423 37.4253 51.3473 37.474 50.9731C37.7569 48.8318 38.061 46.6965 38.3743 44.4578L38.3774 44.4608ZM135.317 9.27725C135.08 9.24379 134.958 9.21033 134.839 9.21033C131.329 9.20729 127.822 9.21337 124.312 9.19816C123.822 9.19816 123.692 9.43846 123.582 9.84605C122.536 13.7212 121.477 17.5933 120.4 21.4624C120.327 21.727 120.078 21.9399 119.911 22.1802C119.771 21.946 119.567 21.727 119.497 21.4745C118.472 17.645 117.453 13.8125 116.461 9.9738C116.312 9.39283 116.057 9.18904 115.442 9.19512C112.008 9.22554 108.574 9.20729 105.14 9.21033C104.9 9.21033 104.659 9.2377 104.34 9.25595C104.447 9.58446 104.523 9.83692 104.614 10.0863C107.035 16.62 109.462 23.1475 111.859 29.6872C111.996 30.0613 112.002 30.5723 111.865 30.9434C109.462 37.4284 107.023 43.9042 104.596 50.38C104.45 50.7663 104.307 51.1526 104.139 51.6058C104.465 51.621 104.687 51.6393 104.906 51.6393C108.264 51.6393 111.625 51.6241 114.983 51.6545C115.585 51.6606 115.768 51.4294 115.911 50.8941C116.991 46.8212 118.095 42.7575 119.208 38.6937C119.272 38.4626 119.461 38.2679 119.591 38.055C119.743 38.274 119.965 38.4717 120.032 38.712C120.738 41.267 121.419 43.8312 122.107 46.3923C122.575 48.1322 123.044 49.869 123.503 51.5754H135.466C135.366 51.2682 135.299 51.034 135.214 50.8059C132.783 44.1719 130.359 37.5348 127.904 30.91C127.664 30.2621 127.661 29.7146 127.91 29.0667C129.538 24.8052 131.126 20.5286 132.722 16.255C133.58 13.9615 134.429 11.662 135.317 9.2742V9.27725ZM96.0849 9.20424C94.8682 9.20424 93.8249 9.20424 92.7846 9.20424C90.4212 9.20424 88.0547 9.20424 85.6913 9.20424C85.2929 9.20424 84.9644 9.21641 84.9096 9.7548C84.6754 12.0513 84.4138 14.3448 84.1583 16.6413C83.845 19.4548 83.5256 22.2654 83.2093 25.079C82.8808 27.9899 82.5492 30.9008 82.2177 33.8118C81.9926 35.7858 81.7736 37.7599 81.5272 39.7309C81.5059 39.9043 81.3204 40.0595 81.2139 40.2237C81.077 40.0564 80.8428 39.8982 80.8185 39.7157C80.633 38.3378 80.4961 36.9539 80.3318 35.5729C79.9699 32.4917 79.6018 29.4104 79.2368 26.3291C78.8566 23.1505 78.4764 19.9719 78.0931 16.7903C77.8194 14.4968 77.5274 12.2064 77.281 9.91297C77.2171 9.332 76.9707 9.19512 76.4232 9.19816C73.1868 9.21945 69.9535 9.20729 66.7171 9.21033C66.4768 9.21033 66.2395 9.24075 65.908 9.26204C68.2805 23.4212 70.6379 37.4983 72.9982 51.6028H88.9977C91.352 37.5075 93.7063 23.4273 96.0818 9.20729L96.0849 9.20424Z" fill="black"/>
<path d="M160.496 86.397H1.74268V60.2899H160.496V86.397ZM87.0599 69.1444C87.2059 69.5307 87.2971 69.7466 87.3732 69.9687C88.2644 72.5724 89.1556 75.1731 90.0438 77.7768C90.4423 78.9417 90.4392 78.9205 91.6833 78.9235C92.1213 78.9235 92.2795 78.7532 92.4011 78.3699C92.8057 77.0954 93.2528 75.8301 93.6756 74.5586C94.5364 71.9762 95.3972 69.3938 96.258 66.8022C95.2644 66.638 94.6196 66.9929 94.3235 67.8668C93.4414 70.4736 92.5624 73.0804 91.6803 75.6871C91.5829 75.9761 91.4582 76.2559 91.2909 76.6878C91.154 76.3137 91.075 76.1069 91.005 75.9C90.0316 73.0378 89.0431 70.1816 88.1032 67.3072C87.9329 66.784 87.6621 66.6806 87.1876 66.711C86.7283 66.7414 86.3268 66.638 86.1109 67.295C85.2196 70.0295 84.2493 72.7366 83.3064 75.4529C83.1878 75.7905 83.057 76.1251 82.8623 76.6422C82.7011 76.2437 82.6007 76.0278 82.5277 75.8057C81.6669 73.2172 80.8122 70.6287 79.9544 68.0402C79.6442 67.1054 78.9963 66.6694 78.0108 66.7323C77.9621 66.7323 77.9165 66.7597 77.8587 66.7779C77.8678 66.8479 77.8617 66.9239 77.8861 66.9908C79.1575 70.8264 80.435 74.659 81.7095 78.4916C81.9589 79.2429 82.5855 78.8079 83.0387 78.9022C83.4342 78.9843 83.7109 78.8779 83.8661 78.4125C84.7938 75.6141 85.755 72.8249 86.7101 70.0326C86.7952 69.7831 86.9017 69.5428 87.0599 69.1413V69.1444ZM6.89231 78.8596H8.474V70.285C8.75688 70.4341 8.89376 70.6226 9.01543 70.8204C10.2321 72.8431 11.4427 74.8689 12.6564 76.8916C13.1248 77.6673 13.5902 77.6612 14.0586 76.8734C15.2783 74.8263 16.4981 72.7762 17.7208 70.7261C17.8273 70.5496 17.9611 70.3915 18.0828 70.2272C18.1345 70.2424 18.1893 70.2576 18.241 70.2698V78.8687H19.7679V66.8022C18.8919 66.5619 18.3596 66.7779 17.9155 67.5809C16.6076 69.9504 15.2023 72.2652 13.8335 74.6012C13.7058 74.8202 13.5567 75.0271 13.359 75.3221C11.7895 72.6788 10.293 70.1603 8.79947 67.6418C8.38376 66.9422 7.74602 66.6633 6.88622 66.8053V78.8566L6.89231 78.8596ZM39.7581 66.5802V78.9113C41.4128 78.9113 43.0249 78.9235 44.637 78.9052C45.2058 78.8992 45.7777 78.8475 46.3404 78.7653C49.1661 78.3608 51.2528 76.1464 51.4444 73.3663C51.6573 70.2911 50.033 67.6387 47.1251 67.0821C44.7435 66.6258 42.2523 66.7292 39.7581 66.5802ZM119.585 78.8809V75.1761C120.744 75.1761 121.833 75.1457 122.919 75.1974C123.208 75.2096 123.567 75.4103 123.749 75.6384C124.333 76.3776 124.853 77.1684 125.398 77.941C126.155 79.0178 126.453 79.1243 127.801 78.7927C126.879 77.4756 125.967 76.1707 125.054 74.8689C125.182 74.7716 125.218 74.7351 125.261 74.7138C127.271 73.6522 127.983 72.2348 127.624 70.0021C127.369 68.4052 126.046 67.1581 124.081 66.8813C122.861 66.708 121.605 66.7597 120.367 66.7292C119.558 66.711 118.749 66.7262 117.93 66.7262V78.887H119.588L119.585 78.8809ZM99.9841 72.8218C99.9963 76.405 102.758 79.0573 106.475 79.0573C110.165 79.0573 112.972 76.338 112.951 72.7884C112.93 69.1352 110.162 66.5559 106.293 66.5711C102.694 66.5863 99.972 69.2843 99.9841 72.8188V72.8218ZM137.914 72.1922C139.63 70.3763 141.294 68.6181 143.003 66.8114C141.841 66.5498 141.035 66.7749 140.269 67.6266C138.66 69.4242 136.926 71.1093 135.244 72.837C135.049 73.0378 134.833 73.2203 134.471 73.5579V66.7536H132.853V78.8657H134.499C134.499 77.9836 134.486 77.1441 134.505 76.3015C134.511 76.0643 134.52 75.7601 134.66 75.608C135.329 74.8841 136.047 74.2058 136.789 73.4667C137.014 73.7161 137.197 73.9138 137.373 74.1176C138.477 75.3981 139.669 76.6179 140.655 77.9836C141.391 79.0056 142.279 78.9782 143.405 78.8535C141.555 76.6087 139.758 74.4309 137.914 72.1891V72.1922ZM34.5689 77.4696C32.3606 77.4696 30.2466 77.4574 28.1357 77.4787C27.6673 77.4817 27.4513 77.354 27.4635 76.8551C27.4878 75.9092 27.4848 74.9632 27.4635 74.0202C27.4513 73.5275 27.6581 73.3845 28.1326 73.3906C29.6991 73.4119 31.2656 73.3997 32.8351 73.3967C33.0967 73.3967 33.3583 73.3724 33.6047 73.3572C33.6939 72.4386 33.3208 71.9793 32.4853 71.9793C32.3363 71.9793 32.1873 71.9793 32.0382 71.9793C30.5508 71.9793 29.0634 71.9793 27.5395 71.9793V68.1345H34.3499V66.7688H25.8726V78.8596H34.572V77.4696H34.5689ZM154.251 68.1589C154.057 68.4326 153.966 68.5725 153.862 68.7003C151.584 71.526 149.309 74.3609 147.012 77.1715C146.583 77.6977 146.392 78.2178 146.629 78.8566H156.691V77.43H148.834C149.144 77.0315 149.348 76.7608 149.561 76.4962C151.724 73.8012 153.877 71.0941 156.067 68.4174C156.496 67.8912 156.563 67.3863 156.414 66.7688H146.72V68.1589H154.251ZM74.9204 78.8718C74.8048 78.6102 74.7227 78.4094 74.6345 78.2117C72.9919 74.5951 71.3342 70.9876 69.719 67.3589C69.4818 66.8266 69.1928 66.6654 68.6514 66.708C68.1404 66.7475 67.7085 66.6623 67.4165 67.3315C65.8043 71.015 64.1131 74.6621 62.4554 78.3273C62.3794 78.4946 62.3398 78.6802 62.2668 78.9083C62.568 78.9083 62.7961 78.8779 63.012 78.9144C63.7238 79.0391 64.0979 78.7288 64.3109 78.0566C64.4903 77.4939 64.8158 76.9768 65.0105 76.4141C65.1808 75.9244 65.4758 75.7905 65.9625 75.7997C67.2826 75.824 68.6149 75.9213 69.9167 75.7784C71.3859 75.6141 72.1646 76.0917 72.6239 77.5304C73.0984 79.0147 73.2201 78.9752 74.9204 78.8718ZM57.9689 78.8748V66.787H56.4784V78.8748H57.9689Z" fill="white"/>
<path d="M38.3774 44.4608C38.0671 46.6995 37.763 48.8348 37.477 50.9762C37.4284 51.3503 37.4132 51.6454 36.9052 51.6454C33.4954 51.6271 30.0857 51.6302 26.6759 51.621C26.6303 51.621 26.5877 51.5876 26.4478 51.5298C26.6941 50.1701 26.9405 48.7862 27.193 47.4052C28.2606 41.5499 29.3283 35.6946 30.3989 29.8393C31.4118 24.3003 32.4247 18.7613 33.4407 13.2254C33.6505 12.0787 33.8969 10.938 34.0794 9.78826C34.1494 9.35634 34.3197 9.20121 34.7517 9.20121C39.7796 9.21033 44.8076 9.21946 49.8355 9.19208C50.4773 9.18904 50.4956 9.59055 50.5686 9.98901C51.1891 13.3562 51.7944 16.7234 52.4119 20.0906C53.4795 25.9215 54.5532 31.7495 55.627 37.5805C56.4422 42.0214 57.2604 46.4592 58.0725 50.9001C58.1121 51.1161 58.1121 51.3351 58.1334 51.5967H46.9885C46.7877 50.1793 46.5809 48.7618 46.3862 47.3444C46.2737 46.5322 46.2007 45.7171 46.0577 44.911C46.0273 44.7407 45.7748 44.4821 45.6197 44.4821C43.235 44.4547 40.8473 44.4639 38.3804 44.4639L38.3774 44.4608ZM42.356 19.0807C42.2343 19.0807 42.1157 19.0838 41.994 19.0868C41.2427 24.5558 40.4944 30.0218 39.737 35.5334H44.6281C43.8646 30.0096 43.1103 24.5436 42.3529 19.0777L42.356 19.0807Z" fill="white"/>
<path d="M135.317 9.27726C134.429 11.665 133.58 13.9615 132.722 16.258C131.125 20.5316 129.538 24.8083 127.91 29.0697C127.661 29.7207 127.664 30.2651 127.904 30.913C130.359 37.5379 132.783 44.1749 135.213 50.8089C135.295 51.037 135.365 51.2713 135.466 51.5785H123.503C123.043 49.8721 122.575 48.1322 122.107 46.3954C121.419 43.8342 120.738 41.2731 120.032 38.715C119.965 38.4747 119.74 38.277 119.591 38.058C119.46 38.2709 119.269 38.4656 119.208 38.6968C118.095 42.7605 116.987 46.8243 115.911 50.8971C115.771 51.4294 115.585 51.6636 114.983 51.6575C111.625 51.6271 108.264 51.6423 104.906 51.6423C104.687 51.6423 104.468 51.6241 104.139 51.6089C104.306 51.1557 104.452 50.7694 104.595 50.3831C107.026 43.9072 109.462 37.4314 111.865 30.9465C112.002 30.5754 111.996 30.0644 111.859 29.6902C109.462 23.1505 107.032 16.62 104.614 10.0894C104.522 9.83998 104.446 9.58752 104.34 9.25901C104.662 9.24076 104.9 9.21339 105.14 9.21339C108.574 9.21339 112.008 9.2286 115.442 9.19818C116.057 9.1921 116.312 9.39589 116.461 9.97686C117.453 13.8155 118.469 17.6481 119.497 21.4776C119.564 21.7301 119.771 21.9491 119.91 22.1833C120.078 21.946 120.327 21.7301 120.4 21.4654C121.477 17.5994 122.535 13.7243 123.582 9.84911C123.691 9.44152 123.825 9.19818 124.312 9.20122C127.822 9.21947 131.329 9.21035 134.839 9.21339C134.958 9.21339 135.08 9.24685 135.317 9.28031V9.27726Z" fill="white"/>
<path d="M96.085 9.20425C93.7094 23.4243 91.3551 37.5014 89.0008 51.5997H73.0014C70.638 37.4953 68.2806 23.4182 65.9111 9.259C66.2427 9.23771 66.4799 9.20729 66.7202 9.20729C69.9566 9.20729 73.19 9.21641 76.4264 9.19512C76.9708 9.19208 77.2202 9.32896 77.2841 9.90993C77.5305 12.2064 77.8225 14.4968 78.0963 16.7873C78.4765 19.9659 78.8597 23.1444 79.24 26.3261C79.608 29.4074 79.973 32.4886 80.335 35.5699C80.4962 36.9508 80.6361 38.3348 80.8216 39.7127C80.846 39.8952 81.0802 40.0534 81.2171 40.2207C81.3266 40.0564 81.5091 39.9043 81.5304 39.7279C81.7737 37.7569 81.9957 35.7828 82.2208 33.8087C82.5524 30.8978 82.8839 27.9869 83.2124 25.0759C83.5318 22.2624 83.8482 19.4518 84.1615 16.6382C84.417 14.3448 84.6785 12.0483 84.9128 9.75176C84.9675 9.21337 85.296 9.2012 85.6945 9.2012C88.0579 9.20425 90.4243 9.2012 92.7878 9.2012C93.828 9.2012 94.8683 9.2012 96.088 9.2012L96.085 9.20425Z" fill="white"/>
<path d="M87.0601 69.1444C86.9019 69.5459 86.7955 69.7892 86.7103 70.0356C85.7552 72.8279 84.794 75.6141 83.8663 78.4155C83.7112 78.8809 83.4344 78.9874 83.0389 78.9052C82.5857 78.811 81.9622 79.2459 81.7097 78.4946C80.4352 74.662 79.1607 70.8264 77.8863 66.9939C77.865 66.927 77.868 66.8509 77.8589 66.781C77.9167 66.7627 77.9623 66.7384 78.011 66.7353C78.9965 66.6725 79.6444 67.1084 79.9546 68.0433C80.8124 70.6318 81.6671 73.2203 82.5279 75.8088C82.6009 76.0308 82.7013 76.2468 82.8625 76.6452C83.0572 76.1282 83.188 75.7936 83.3066 75.4559C84.2495 72.7397 85.2199 70.0325 86.1111 67.298C86.324 66.641 86.7285 66.7444 87.1878 66.714C87.6624 66.6836 87.9331 66.787 88.1034 67.3102C89.0433 70.1846 90.0319 73.0408 91.0052 75.9031C91.0752 76.1129 91.1573 76.3167 91.2911 76.6909C91.4584 76.262 91.5831 75.9791 91.6805 75.6901C92.5656 73.0834 93.4416 70.4766 94.3237 67.8699C94.6198 66.9959 95.2646 66.641 96.2582 66.8053C95.3944 69.3968 94.5366 71.9793 93.6758 74.5617C93.253 75.8331 92.8059 77.0954 92.4014 78.3729C92.2797 78.7562 92.1215 78.9265 91.6835 78.9265C90.4394 78.9235 90.4425 78.9448 90.044 77.7798C89.1558 75.1761 88.2646 72.5724 87.3734 69.9717C87.2973 69.7497 87.2061 69.5307 87.0601 69.1474V69.1444Z" fill="black"/>
<path d="M6.89258 78.8596V66.8083C7.75237 66.6644 8.39012 66.9432 8.80582 67.6448C10.2993 70.1634 11.7958 72.6819 13.3654 75.3252C13.56 75.0271 13.7121 74.8233 13.8399 74.6043C15.2086 72.2682 16.6139 69.9535 17.9219 67.584C18.3659 66.781 18.8982 66.565 19.7743 66.8053V78.8718H18.2473V70.2729C18.1956 70.2577 18.1409 70.2425 18.0892 70.2303C17.9675 70.3976 17.8336 70.5557 17.7272 70.7291C16.5044 72.7762 15.2877 74.8263 14.065 76.8764C13.5935 77.6642 13.1281 77.6734 12.6627 76.8947C11.446 74.8719 10.2354 72.8462 9.02178 70.8234C8.90316 70.6227 8.76324 70.4371 8.48036 70.2881V78.8627H6.89866L6.89258 78.8596Z" fill="black"/>
<path d="M39.7583 66.5802C42.2525 66.7293 44.7406 66.6258 47.1253 67.0821C50.0332 67.6387 51.6575 70.2881 51.4446 73.3663C51.253 76.1464 49.1663 78.3608 46.3406 78.7654C45.7779 78.8475 45.206 78.8992 44.6372 78.9053C43.0251 78.9235 41.413 78.9113 39.7583 78.9113V66.5802ZM41.4951 68.025V77.5334C43.0434 77.4635 44.5368 77.4878 46.006 77.3084C48.0257 77.062 49.577 75.3921 49.723 73.5093C49.9237 70.9207 48.8743 69.0106 46.6295 68.4965C44.9901 68.1224 43.2532 68.171 41.4982 68.025H41.4951Z" fill="black"/>
<path d="M119.585 78.8809H117.928V66.7201C118.749 66.7201 119.558 66.7049 120.364 66.7232C121.602 66.7536 122.858 66.7049 124.078 66.8752C126.046 67.152 127.366 68.3991 127.622 69.9961C127.978 72.2317 127.269 73.6461 125.258 74.7077C125.216 74.729 125.179 74.7655 125.051 74.8628C125.961 76.1647 126.876 77.4696 127.798 78.7866C126.451 79.1212 126.156 79.0117 125.395 77.9349C124.851 77.1623 124.334 76.3715 123.747 75.6324C123.564 75.4042 123.205 75.2065 122.916 75.1913C121.83 75.1396 120.741 75.17 119.582 75.17V78.8748L119.585 78.8809ZM119.598 73.7435C120.595 73.7435 121.532 73.7435 122.472 73.7435C122.794 73.7435 123.123 73.7587 123.439 73.707C125.076 73.4514 125.976 72.5481 126.037 71.1215C126.098 69.7132 125.395 68.5725 124.057 68.3657C122.603 68.1406 121.112 68.168 119.595 68.0828V73.7435H119.598Z" fill="black"/>
<path d="M99.9844 72.8218C99.9722 69.2873 102.695 66.5893 106.293 66.5741C110.165 66.5559 112.93 69.1383 112.951 72.7914C112.973 76.338 110.165 79.0573 106.475 79.0604C102.758 79.0604 99.9966 76.408 99.9844 72.8248V72.8218ZM111.257 72.8309C111.263 70.139 109.219 68.0676 106.518 68.0311C103.799 67.9946 101.651 70.0873 101.642 72.7792C101.633 75.4894 103.729 77.5699 106.469 77.573C109.173 77.573 111.251 75.5168 111.257 72.8309Z" fill="black"/>
<path d="M137.914 72.1922C139.761 74.4309 141.555 76.6088 143.405 78.8566C142.279 78.9813 141.391 79.0087 140.655 77.9867C139.67 76.6209 138.477 75.4012 137.373 74.1206C137.197 73.9168 137.014 73.7222 136.789 73.4697C136.047 74.2088 135.329 74.8872 134.66 75.6111C134.52 75.7632 134.508 76.0673 134.505 76.3046C134.486 77.1441 134.499 77.9867 134.499 78.8688H132.853V66.7566H134.471V73.561C134.833 73.2233 135.046 73.0408 135.244 72.8401C136.929 71.1124 138.66 69.4273 140.269 67.6296C141.032 66.7779 141.841 66.5528 143.003 66.8144C141.297 68.6212 139.633 70.3793 137.914 72.1952V72.1922Z" fill="black"/>
<path d="M34.5689 77.4696V78.8596H25.8696V66.7688H34.3469V68.1345H27.5365V71.9793C29.0634 71.9793 30.5478 71.9793 32.0352 71.9793C32.1842 71.9793 32.3333 71.9793 32.4823 71.9793C33.3178 71.9793 33.6909 72.4386 33.6017 73.3572C33.3553 73.3693 33.0937 73.3937 32.8321 73.3967C31.2656 73.3998 29.6961 73.4119 28.1296 73.3906C27.6551 73.3845 27.4513 73.5275 27.4604 74.0203C27.4817 74.9662 27.4848 75.9122 27.4604 76.8551C27.4483 77.354 27.6642 77.4817 28.1327 77.4787C30.2436 77.4604 32.3576 77.4696 34.5659 77.4696H34.5689Z" fill="black"/>
<path d="M154.252 68.1589H146.721V66.7688H156.414C156.564 67.3863 156.497 67.8942 156.068 68.4174C153.878 71.0941 151.727 73.7982 149.562 76.4962C149.349 76.7609 149.145 77.0316 148.835 77.43H156.691V78.8566H146.629C146.392 78.2178 146.584 77.6977 147.013 77.1715C149.309 74.3579 151.581 71.5261 153.862 68.7003C153.966 68.5725 154.057 68.4326 154.252 68.1589Z" fill="black"/>
<path d="M74.9206 78.8718C73.2203 78.9752 73.0987 79.0148 72.6241 77.5304C72.1648 76.0917 71.3862 75.6172 69.917 75.7784C68.6152 75.9244 67.2829 75.827 65.9628 75.7997C65.4731 75.7905 65.178 75.9244 65.0107 76.4141C64.816 76.9738 64.4906 77.4909 64.3111 78.0566C64.0982 78.7288 63.7241 79.0361 63.0123 78.9144C62.7963 78.8779 62.5682 78.9083 62.2671 78.9083C62.3401 78.6771 62.3796 78.4946 62.4557 78.3273C64.1134 74.6651 65.8046 71.015 67.4167 67.3315C67.7118 66.6623 68.1406 66.7475 68.6517 66.708C69.19 66.6654 69.482 66.8266 69.7193 67.3589C71.3345 70.9877 72.9892 74.5952 74.6347 78.2118C74.7229 78.4095 74.8081 78.6102 74.9206 78.8718ZM68.5604 68.3657C67.6236 70.501 66.7719 72.4355 65.8867 74.4522H71.231C70.355 72.4538 69.5033 70.5132 68.5604 68.3657Z" fill="black"/>
<path d="M57.969 78.8749H56.4785V66.7871H57.969V78.8749Z" fill="black"/>
<path d="M42.3561 19.0807C43.1105 24.5467 43.8678 30.0126 44.6313 35.5364H39.7402C40.4976 30.0248 41.2459 24.5558 41.9972 19.0898C42.1189 19.0898 42.2375 19.0868 42.3592 19.0837L42.3561 19.0807Z" fill="black"/>
<path d="M41.4952 68.025C43.2503 68.171 44.9871 68.1193 46.6266 68.4965C48.8714 69.0105 49.9208 70.9207 49.72 73.5092C49.574 75.3921 48.0228 77.062 46.0031 77.3084C44.5339 77.4878 43.0404 77.4635 41.4922 77.5334V68.025H41.4952Z" fill="white"/>
<path d="M119.598 73.7435V68.0828C121.112 68.168 122.606 68.1376 124.06 68.3657C125.401 68.5756 126.101 69.7132 126.04 71.1215C125.979 72.5481 125.079 73.4514 123.442 73.707C123.126 73.7556 122.798 73.7404 122.475 73.7435C121.535 73.7465 120.595 73.7435 119.601 73.7435H119.598Z" fill="white"/>
<path d="M111.257 72.8309C111.251 75.5168 109.173 77.576 106.469 77.573C103.729 77.573 101.633 75.4924 101.642 72.7792C101.651 70.0873 103.799 67.9946 106.518 68.0311C109.219 68.0676 111.263 70.136 111.257 72.8309Z" fill="white"/>
<path d="M68.5604 68.3657C69.5033 70.5101 70.355 72.4538 71.231 74.4522H65.8867C66.7719 72.4386 67.6235 70.501 68.5604 68.3657Z" fill="white"/>
<path d="M7.59 112.545V113.655H4.74V123H3.375V113.655H0.51V112.545H7.59ZM13.3502 114.63C13.9702 114.63 14.5302 114.765 15.0302 115.035C15.5302 115.295 15.9202 115.69 16.2002 116.22C16.4902 116.75 16.6352 117.395 16.6352 118.155V123H15.2852V118.35C15.2852 117.53 15.0802 116.905 14.6702 116.475C14.2602 116.035 13.7002 115.815 12.9902 115.815C12.2702 115.815 11.6952 116.04 11.2652 116.49C10.8452 116.94 10.6352 117.595 10.6352 118.455V123H9.27023V111.9H10.6352V115.95C10.9052 115.53 11.2752 115.205 11.7452 114.975C12.2252 114.745 12.7602 114.63 13.3502 114.63ZM26.365 118.575C26.365 118.835 26.35 119.11 26.32 119.4H19.75C19.8 120.21 20.075 120.845 20.575 121.305C21.085 121.755 21.7 121.98 22.42 121.98C23.01 121.98 23.5 121.845 23.89 121.575C24.29 121.295 24.57 120.925 24.73 120.465H26.2C25.98 121.255 25.54 121.9 24.88 122.4C24.22 122.89 23.4 123.135 22.42 123.135C21.64 123.135 20.94 122.96 20.32 122.61C19.71 122.26 19.23 121.765 18.88 121.125C18.53 120.475 18.355 119.725 18.355 118.875C18.355 118.025 18.525 117.28 18.865 116.64C19.205 116 19.68 115.51 20.29 115.17C20.91 114.82 21.62 114.645 22.42 114.645C23.2 114.645 23.89 114.815 24.49 115.155C25.09 115.495 25.55 115.965 25.87 116.565C26.2 117.155 26.365 117.825 26.365 118.575ZM24.955 118.29C24.955 117.77 24.84 117.325 24.61 116.955C24.38 116.575 24.065 116.29 23.665 116.1C23.275 115.9 22.84 115.8 22.36 115.8C21.67 115.8 21.08 116.02 20.59 116.46C20.11 116.9 19.835 117.51 19.765 118.29H24.955ZM32.9007 115.95H31.3707L32.8107 112.545H33.7857L32.9007 115.95ZM39.722 117.78L42.932 123H41.387L38.882 118.92L36.497 123H34.982L38.177 117.78L34.967 112.545H36.497L39.017 116.64L41.417 112.545H42.947L39.722 117.78ZM44.9734 112.545H46.4884L45.0484 115.95H44.0884L44.9734 112.545ZM53.9546 112.545V113.655H49.4096V117.18H53.0996V118.29H49.4096V123H48.0446V112.545H53.9546ZM55.0932 118.86C55.0932 118.02 55.2632 117.285 55.6032 116.655C55.9432 116.015 56.4082 115.52 56.9982 115.17C57.5982 114.82 58.2632 114.645 58.9932 114.645C59.7132 114.645 60.3382 114.8 60.8682 115.11C61.3982 115.42 61.7932 115.81 62.0532 116.28V114.78H63.4332V123H62.0532V121.47C61.7832 121.95 61.3782 122.35 60.8382 122.67C60.3082 122.98 59.6882 123.135 58.9782 123.135C58.2482 123.135 57.5882 122.955 56.9982 122.595C56.4082 122.235 55.9432 121.73 55.6032 121.08C55.2632 120.43 55.0932 119.69 55.0932 118.86ZM62.0532 118.875C62.0532 118.255 61.9282 117.715 61.6782 117.255C61.4282 116.795 61.0882 116.445 60.6582 116.205C60.2382 115.955 59.7732 115.83 59.2632 115.83C58.7532 115.83 58.2882 115.95 57.8682 116.19C57.4482 116.43 57.1132 116.78 56.8632 117.24C56.6132 117.7 56.4882 118.24 56.4882 118.86C56.4882 119.49 56.6132 120.04 56.8632 120.51C57.1132 120.97 57.4482 121.325 57.8682 121.575C58.2882 121.815 58.7532 121.935 59.2632 121.935C59.7732 121.935 60.2382 121.815 60.6582 121.575C61.0882 121.325 61.4282 120.97 61.6782 120.51C61.9282 120.04 62.0532 119.495 62.0532 118.875ZM65.23 118.875C65.23 118.025 65.4 117.285 65.74 116.655C66.08 116.015 66.55 115.52 67.15 115.17C67.76 114.82 68.455 114.645 69.235 114.645C70.245 114.645 71.075 114.89 71.725 115.38C72.385 115.87 72.82 116.55 73.03 117.42H71.56C71.42 116.92 71.145 116.525 70.735 116.235C70.335 115.945 69.835 115.8 69.235 115.8C68.455 115.8 67.825 116.07 67.345 116.61C66.865 117.14 66.625 117.895 66.625 118.875C66.625 119.865 66.865 120.63 67.345 121.17C67.825 121.71 68.455 121.98 69.235 121.98C69.835 121.98 70.335 121.84 70.735 121.56C71.135 121.28 71.41 120.88 71.56 120.36H73.03C72.81 121.2 72.37 121.875 71.71 122.385C71.05 122.885 70.225 123.135 69.235 123.135C68.455 123.135 67.76 122.96 67.15 122.61C66.55 122.26 66.08 121.765 65.74 121.125C65.4 120.485 65.23 119.735 65.23 118.875ZM76.5163 115.905V120.75C76.5163 121.15 76.6013 121.435 76.7713 121.605C76.9413 121.765 77.2363 121.845 77.6563 121.845H78.6613V123H77.4313C76.6713 123 76.1013 122.825 75.7213 122.475C75.3413 122.125 75.1513 121.55 75.1513 120.75V115.905H74.0863V114.78H75.1513V112.71H76.5163V114.78H78.6613V115.905H76.5163ZM83.9002 123.135C83.1302 123.135 82.4302 122.96 81.8002 122.61C81.1802 122.26 80.6902 121.765 80.3302 121.125C79.9802 120.475 79.8052 119.725 79.8052 118.875C79.8052 118.035 79.9852 117.295 80.3452 116.655C80.7152 116.005 81.2152 115.51 81.8452 115.17C82.4752 114.82 83.1802 114.645 83.9602 114.645C84.7402 114.645 85.4452 114.82 86.0752 115.17C86.7052 115.51 87.2002 116 87.5602 116.64C87.9302 117.28 88.1152 118.025 88.1152 118.875C88.1152 119.725 87.9252 120.475 87.5452 121.125C87.1752 121.765 86.6702 122.26 86.0302 122.61C85.3902 122.96 84.6802 123.135 83.9002 123.135ZM83.9002 121.935C84.3902 121.935 84.8502 121.82 85.2802 121.59C85.7102 121.36 86.0552 121.015 86.3152 120.555C86.5852 120.095 86.7202 119.535 86.7202 118.875C86.7202 118.215 86.5902 117.655 86.3302 117.195C86.0702 116.735 85.7302 116.395 85.3102 116.175C84.8902 115.945 84.4352 115.83 83.9452 115.83C83.4452 115.83 82.9852 115.945 82.5652 116.175C82.1552 116.395 81.8252 116.735 81.5752 117.195C81.3252 117.655 81.2002 118.215 81.2002 118.875C81.2002 119.545 81.3202 120.11 81.5602 120.57C81.8102 121.03 82.1402 121.375 82.5502 121.605C82.9602 121.825 83.4102 121.935 83.9002 121.935ZM91.2749 116.115C91.5149 115.645 91.8549 115.28 92.2949 115.02C92.7449 114.76 93.2899 114.63 93.9299 114.63V116.04H93.5699C92.0399 116.04 91.2749 116.87 91.2749 118.53V123H89.9099V114.78H91.2749V116.115ZM102.85 115.905H101.125V123H99.7596V115.905H98.6946V114.78H99.7596V114.195C99.7596 113.275 99.9946 112.605 100.465 112.185C100.945 111.755 101.71 111.54 102.76 111.54V112.68C102.16 112.68 101.735 112.8 101.485 113.04C101.245 113.27 101.125 113.655 101.125 114.195V114.78H102.85V115.905ZM108.026 123.135C107.256 123.135 106.556 122.96 105.926 122.61C105.306 122.26 104.816 121.765 104.456 121.125C104.106 120.475 103.931 119.725 103.931 118.875C103.931 118.035 104.111 117.295 104.471 116.655C104.841 116.005 105.341 115.51 105.971 115.17C106.601 114.82 107.306 114.645 108.086 114.645C108.866 114.645 109.571 114.82 110.201 115.17C110.831 115.51 111.326 116 111.686 116.64C112.056 117.28 112.241 118.025 112.241 118.875C112.241 119.725 112.051 120.475 111.671 121.125C111.301 121.765 110.796 122.26 110.156 122.61C109.516 122.96 108.806 123.135 108.026 123.135ZM108.026 121.935C108.516 121.935 108.976 121.82 109.406 121.59C109.836 121.36 110.181 121.015 110.441 120.555C110.711 120.095 110.846 119.535 110.846 118.875C110.846 118.215 110.716 117.655 110.456 117.195C110.196 116.735 109.856 116.395 109.436 116.175C109.016 115.945 108.561 115.83 108.071 115.83C107.571 115.83 107.111 115.945 106.691 116.175C106.281 116.395 105.951 116.735 105.701 117.195C105.451 117.655 105.326 118.215 105.326 118.875C105.326 119.545 105.446 120.11 105.686 120.57C105.936 121.03 106.266 121.375 106.676 121.605C107.086 121.825 107.536 121.935 108.026 121.935ZM115.401 116.115C115.641 115.645 115.981 115.28 116.421 115.02C116.871 114.76 117.416 114.63 118.056 114.63V116.04H117.696C116.166 116.04 115.401 116.87 115.401 118.53V123H114.036V114.78H115.401V116.115ZM130.711 114.78L125.761 126.87H124.351L125.971 122.91L122.656 114.78H124.171L126.751 121.44L129.301 114.78H130.711ZM135.668 123.135C134.898 123.135 134.198 122.96 133.568 122.61C132.948 122.26 132.458 121.765 132.098 121.125C131.748 120.475 131.573 119.725 131.573 118.875C131.573 118.035 131.753 117.295 132.113 116.655C132.483 116.005 132.983 115.51 133.613 115.17C134.243 114.82 134.948 114.645 135.728 114.645C136.508 114.645 137.213 114.82 137.843 115.17C138.473 115.51 138.968 116 139.328 116.64C139.698 117.28 139.883 118.025 139.883 118.875C139.883 119.725 139.693 120.475 139.313 121.125C138.943 121.765 138.438 122.26 137.798 122.61C137.158 122.96 136.448 123.135 135.668 123.135ZM135.668 121.935C136.158 121.935 136.618 121.82 137.048 121.59C137.478 121.36 137.823 121.015 138.083 120.555C138.353 120.095 138.488 119.535 138.488 118.875C138.488 118.215 138.358 117.655 138.098 117.195C137.838 116.735 137.498 116.395 137.078 116.175C136.658 115.945 136.203 115.83 135.713 115.83C135.213 115.83 134.753 115.945 134.333 116.175C133.923 116.395 133.593 116.735 133.343 117.195C133.093 117.655 132.968 118.215 132.968 118.875C132.968 119.545 133.088 120.11 133.328 120.57C133.578 121.03 133.908 121.375 134.318 121.605C134.728 121.825 135.178 121.935 135.668 121.935ZM148.967 114.78V123H147.602V121.785C147.342 122.205 146.977 122.535 146.507 122.775C146.047 123.005 145.537 123.12 144.977 123.12C144.337 123.12 143.762 122.99 143.252 122.73C142.742 122.46 142.337 122.06 142.037 121.53C141.747 121 141.602 120.355 141.602 119.595V114.78H142.952V119.415C142.952 120.225 143.157 120.85 143.567 121.29C143.977 121.72 144.537 121.935 145.247 121.935C145.977 121.935 146.552 121.71 146.972 121.26C147.392 120.81 147.602 120.155 147.602 119.295V114.78H148.967ZM152.637 116.115C152.877 115.645 153.217 115.28 153.657 115.02C154.107 114.76 154.652 114.63 155.292 114.63V116.04H154.932C153.402 116.04 152.637 116.87 152.637 118.53V123H151.272V114.78H152.637V116.115ZM168.367 118.575C168.367 118.835 168.352 119.11 168.322 119.4H161.752C161.802 120.21 162.077 120.845 162.577 121.305C163.087 121.755 163.702 121.98 164.422 121.98C165.012 121.98 165.502 121.845 165.892 121.575C166.292 121.295 166.572 120.925 166.732 120.465H168.202C167.982 121.255 167.542 121.9 166.882 122.4C166.222 122.89 165.402 123.135 164.422 123.135C163.642 123.135 162.942 122.96 162.322 122.61C161.712 122.26 161.232 121.765 160.882 121.125C160.532 120.475 160.357 119.725 160.357 118.875C160.357 118.025 160.527 117.28 160.867 116.64C161.207 116 161.682 115.51 162.292 115.17C162.912 114.82 163.622 114.645 164.422 114.645C165.202 114.645 165.892 114.815 166.492 115.155C167.092 115.495 167.552 115.965 167.872 116.565C168.202 117.155 168.367 117.825 168.367 118.575ZM166.957 118.29C166.957 117.77 166.842 117.325 166.612 116.955C166.382 116.575 166.067 116.29 165.667 116.1C165.277 115.9 164.842 115.8 164.362 115.8C163.672 115.8 163.082 116.02 162.592 116.46C162.112 116.9 161.837 117.51 161.767 118.29H166.957ZM173.229 121.74L175.779 114.78H177.234L174.009 123H172.419L169.194 114.78H170.664L173.229 121.74ZM186.077 118.575C186.077 118.835 186.062 119.11 186.032 119.4H179.462C179.512 120.21 179.787 120.845 180.287 121.305C180.797 121.755 181.412 121.98 182.132 121.98C182.722 121.98 183.212 121.845 183.602 121.575C184.002 121.295 184.282 120.925 184.442 120.465H185.912C185.692 121.255 185.252 121.9 184.592 122.4C183.932 122.89 183.112 123.135 182.132 123.135C181.352 123.135 180.652 122.96 180.032 122.61C179.422 122.26 178.942 121.765 178.592 121.125C178.242 120.475 178.067 119.725 178.067 118.875C178.067 118.025 178.237 117.28 178.577 116.64C178.917 116 179.392 115.51 180.002 115.17C180.622 114.82 181.332 114.645 182.132 114.645C182.912 114.645 183.602 114.815 184.202 115.155C184.802 115.495 185.262 115.965 185.582 116.565C185.912 117.155 186.077 117.825 186.077 118.575ZM184.667 118.29C184.667 117.77 184.552 117.325 184.322 116.955C184.092 116.575 183.777 116.29 183.377 116.1C182.987 115.9 182.552 115.8 182.072 115.8C181.382 115.8 180.792 116.02 180.302 116.46C179.822 116.9 179.547 117.51 179.477 118.29H184.667ZM191.884 114.63C192.884 114.63 193.694 114.935 194.314 115.545C194.934 116.145 195.244 117.015 195.244 118.155V123H193.894V118.35C193.894 117.53 193.689 116.905 193.279 116.475C192.869 116.035 192.309 115.815 191.599 115.815C190.879 115.815 190.304 116.04 189.874 116.49C189.454 116.94 189.244 117.595 189.244 118.455V123H187.879V114.78H189.244V115.95C189.514 115.53 189.879 115.205 190.339 114.975C190.809 114.745 191.324 114.63 191.884 114.63ZM199.138 115.905V120.75C199.138 121.15 199.223 121.435 199.393 121.605C199.563 121.765 199.858 121.845 200.278 121.845H201.283V123H200.053C199.293 123 198.723 122.825 198.343 122.475C197.963 122.125 197.773 121.55 197.773 120.75V115.905H196.708V114.78H197.773V112.71H199.138V114.78H201.283V115.905H199.138ZM205.847 123.135C205.217 123.135 204.652 123.03 204.152 122.82C203.652 122.6 203.257 122.3 202.967 121.92C202.677 121.53 202.517 121.085 202.487 120.585H203.897C203.937 120.995 204.127 121.33 204.467 121.59C204.817 121.85 205.272 121.98 205.832 121.98C206.352 121.98 206.762 121.865 207.062 121.635C207.362 121.405 207.512 121.115 207.512 120.765C207.512 120.405 207.352 120.14 207.032 119.97C206.712 119.79 206.217 119.615 205.547 119.445C204.937 119.285 204.437 119.125 204.047 118.965C203.667 118.795 203.337 118.55 203.057 118.23C202.787 117.9 202.652 117.47 202.652 116.94C202.652 116.52 202.777 116.135 203.027 115.785C203.277 115.435 203.632 115.16 204.092 114.96C204.552 114.75 205.077 114.645 205.667 114.645C206.577 114.645 207.312 114.875 207.872 115.335C208.432 115.795 208.732 116.425 208.772 117.225H207.407C207.377 116.795 207.202 116.45 206.882 116.19C206.572 115.93 206.152 115.8 205.622 115.8C205.132 115.8 204.742 115.905 204.452 116.115C204.162 116.325 204.017 116.6 204.017 116.94C204.017 117.21 204.102 117.435 204.272 117.615C204.452 117.785 204.672 117.925 204.932 118.035C205.202 118.135 205.572 118.25 206.042 118.38C206.632 118.54 207.112 118.7 207.482 118.86C207.852 119.01 208.167 119.24 208.427 119.55C208.697 119.86 208.837 120.265 208.847 120.765C208.847 121.215 208.722 121.62 208.472 121.98C208.222 122.34 207.867 122.625 207.407 122.835C206.957 123.035 206.437 123.135 205.847 123.135Z" fill="black"/>
</svg>
