<svg width="248" height="134" viewBox="0 0 248 134" fill="none" xmlns="http://www.w3.org/2000/svg">
<g id="Logo Yellow">
<path id="Vector" d="M0.653809 0H247.709V134H0.653809V0ZM245.046 131.559V91.8051H3.30778V131.559H245.046ZM59.0921 67.7017C62.8484 67.7017 66.4843 67.6878 70.1156 67.7295C70.3471 67.7295 70.7362 68.1232 70.7825 68.3826C71.0002 69.61 71.1114 70.8559 71.2828 72.0879C71.5792 74.2463 71.8941 76.4047 72.1998 78.5631H89.1704C89.138 78.1647 89.138 77.8266 89.0778 77.5024C87.8411 70.7401 86.5952 63.9824 85.3539 57.2201C83.7235 48.3412 82.0839 39.4668 80.4582 30.5878C79.5179 25.4605 78.5962 20.3332 77.6514 15.2059C77.5402 14.5992 77.5124 13.9878 76.5351 13.9924C68.8789 14.0341 61.2227 14.0202 53.5665 14.0063C52.9088 14.0063 52.6494 14.2425 52.5429 14.9002C52.2603 16.651 51.8898 18.3879 51.5702 20.134C50.0232 28.5684 48.4808 36.9981 46.9385 45.4324C45.3081 54.3485 43.6824 63.2645 42.0567 72.1806C41.6722 74.2834 41.2971 76.3862 40.9219 78.4612C41.135 78.5492 41.1998 78.6001 41.2693 78.6001C46.4614 78.6094 51.6536 78.6094 56.8457 78.6372C57.6238 78.6372 57.6424 78.1879 57.7165 77.6182C58.1472 74.3575 58.6104 71.106 59.0875 67.6971L59.0921 67.7017ZM206.705 14.1267C206.343 14.0758 206.158 14.0248 205.978 14.0248C200.633 14.0202 195.292 14.0294 189.947 14.0063C189.201 14.0063 189.002 14.3722 188.836 14.9928C187.242 20.8936 185.63 26.7898 183.991 32.6813C183.88 33.0843 183.5 33.4085 183.245 33.7744C183.032 33.4178 182.722 33.0843 182.615 32.6999C181.054 26.8685 179.503 21.0326 177.993 15.1874C177.766 14.3027 177.377 13.9924 176.441 14.0017C171.212 14.048 165.983 14.0202 160.753 14.0248C160.388 14.0248 160.022 14.0665 159.535 14.0943C159.697 14.5945 159.813 14.979 159.952 15.3588C163.639 25.3077 167.335 35.2473 170.985 45.2055C171.193 45.7752 171.203 46.5533 170.994 47.1184C167.335 56.9932 163.621 66.8541 159.924 76.715C159.702 77.3032 159.484 77.8915 159.23 78.5816C159.725 78.6048 160.063 78.6325 160.397 78.6325C165.51 78.6325 170.628 78.6094 175.742 78.6557C176.659 78.665 176.937 78.313 177.154 77.4978C178.799 71.2959 180.48 65.1079 182.175 58.92C182.272 58.568 182.56 58.2715 182.759 57.9473C182.99 58.2808 183.328 58.5819 183.43 58.9478C184.505 62.8384 185.542 66.7429 186.589 70.6428C187.302 73.2922 188.016 75.9369 188.715 78.5353H206.932C206.779 78.0675 206.677 77.7108 206.547 77.3634C202.846 67.2617 199.155 57.1553 195.417 47.0674C195.051 46.0809 195.047 45.2472 195.426 44.2606C197.904 37.7716 200.322 31.2594 202.754 24.7519C204.06 21.2595 205.352 17.758 206.705 14.1221V14.1267ZM146.965 14.0156C145.112 14.0156 143.524 14.0156 141.939 14.0156C138.341 14.0156 134.737 14.0156 131.138 14.0156C130.532 14.0156 130.031 14.0341 129.948 14.8539C129.591 18.3508 129.193 21.8431 128.804 25.3401C128.327 29.6244 127.841 33.9041 127.359 38.1884C126.859 42.621 126.354 47.0535 125.849 51.4861C125.506 54.4921 125.173 57.498 124.798 60.4994C124.765 60.7634 124.483 60.9996 124.32 61.2497C124.112 60.995 123.755 60.7541 123.718 60.4762C123.436 58.3781 123.227 56.2706 122.977 54.1678C122.426 49.4759 121.866 44.784 121.31 40.0921C120.731 35.2519 120.152 30.4118 119.568 25.567C119.151 22.0747 118.707 18.5871 118.332 15.0947C118.234 14.2101 117.859 14.0017 117.026 14.0063C112.097 14.0387 107.174 14.0202 102.246 14.0248C101.88 14.0248 101.519 14.0711 101.014 14.1036C104.626 35.6642 108.216 57.0997 111.81 78.577H136.173C139.758 57.1136 143.343 35.6734 146.96 14.0202L146.965 14.0156Z" fill="#F0FF00"/>
<path id="Vector_2" d="M245.046 131.559H3.30786V91.8051H245.046V131.559ZM133.223 105.288C133.445 105.876 133.584 106.205 133.7 106.543C135.057 110.508 136.414 114.468 137.766 118.433C138.373 120.207 138.369 120.174 140.263 120.179C140.93 120.179 141.171 119.92 141.356 119.336C141.972 117.395 142.653 115.468 143.297 113.532C144.607 109.6 145.918 105.668 147.229 101.722C145.716 101.471 144.734 102.012 144.283 103.343C142.94 107.312 141.601 111.281 140.258 115.251C140.11 115.691 139.92 116.117 139.665 116.775C139.457 116.205 139.337 115.89 139.23 115.575C137.748 111.217 136.243 106.867 134.811 102.49C134.552 101.694 134.14 101.536 133.417 101.583C132.718 101.629 132.106 101.471 131.778 102.472C130.421 106.636 128.943 110.758 127.507 114.894C127.327 115.408 127.127 115.918 126.831 116.705C126.585 116.098 126.433 115.77 126.321 115.431C125.011 111.49 123.709 107.548 122.403 103.607C121.931 102.183 120.944 101.519 119.443 101.615C119.369 101.615 119.3 101.657 119.212 101.684C119.226 101.791 119.216 101.907 119.253 102.009C121.19 107.849 123.135 113.685 125.076 119.521C125.455 120.665 126.409 120.003 127.1 120.146C127.702 120.272 128.123 120.109 128.359 119.401C129.772 115.14 131.236 110.892 132.69 106.64C132.82 106.261 132.982 105.895 133.223 105.283V105.288ZM11.1493 120.082H13.5578V107.025C13.9886 107.252 14.197 107.539 14.3823 107.84C16.235 110.92 18.0784 114.005 19.9264 117.085C20.6397 118.266 21.3484 118.257 22.0617 117.057C23.919 113.94 25.7763 110.818 27.6382 107.696C27.8003 107.428 28.0041 107.187 28.1894 106.937C28.2681 106.96 28.3515 106.983 28.4303 107.002V120.096H30.7554V101.722C29.4214 101.356 28.6109 101.684 27.9347 102.907C25.943 106.515 23.8032 110.04 21.7189 113.597C21.5244 113.931 21.2974 114.246 20.9964 114.695C18.6064 110.67 16.3276 106.835 14.0534 103C13.4204 101.935 12.4493 101.51 11.1401 101.726V120.077L11.1493 120.082ZM61.195 101.383V120.16C63.7146 120.16 66.1694 120.179 68.6242 120.151C69.4904 120.142 70.3611 120.063 71.218 119.938C75.5209 119.322 78.6982 115.95 78.99 111.717C79.3142 107.034 76.8409 102.995 72.413 102.148C68.7863 101.453 64.993 101.61 61.195 101.383ZM182.75 120.114V114.473C184.514 114.473 186.172 114.426 187.826 114.505C188.266 114.524 188.812 114.829 189.09 115.177C189.98 116.302 190.772 117.506 191.601 118.683C192.754 120.322 193.208 120.485 195.26 119.98C193.856 117.974 192.467 115.987 191.077 114.005C191.272 113.857 191.327 113.801 191.392 113.769C194.454 112.152 195.538 109.994 194.991 106.594C194.602 104.162 192.587 102.263 189.595 101.842C187.738 101.578 185.825 101.657 183.94 101.61C182.708 101.583 181.476 101.606 180.23 101.606V120.123H182.754L182.75 120.114ZM152.903 110.888C152.921 116.344 157.127 120.383 162.787 120.383C168.405 120.383 172.68 116.242 172.648 110.837C172.615 105.274 168.401 101.346 162.509 101.37C157.03 101.393 152.884 105.501 152.903 110.883V110.888ZM210.66 109.929C213.273 107.164 215.806 104.487 218.409 101.735C216.64 101.337 215.412 101.68 214.245 102.977C211.795 105.714 209.155 108.28 206.594 110.911C206.297 111.217 205.968 111.494 205.417 112.009V101.647H202.953V120.091H205.459C205.459 118.748 205.44 117.469 205.468 116.186C205.477 115.825 205.491 115.362 205.704 115.13C206.723 114.028 207.816 112.995 208.947 111.87C209.289 112.249 209.567 112.55 209.836 112.861C211.517 114.811 213.333 116.668 214.833 118.748C215.954 120.304 217.307 120.262 219.02 120.072C216.204 116.654 213.467 113.338 210.66 109.924V109.929ZM53.2933 117.965C49.9307 117.965 46.7116 117.946 43.4972 117.979C42.7839 117.983 42.4551 117.789 42.4736 117.029C42.5107 115.589 42.506 114.148 42.4736 112.713C42.4551 111.962 42.77 111.745 43.4926 111.754C45.8779 111.786 48.2632 111.768 50.6532 111.763C51.0515 111.763 51.4499 111.726 51.825 111.703C51.9609 110.304 51.3927 109.605 50.1206 109.605C49.8936 109.605 49.6666 109.605 49.4397 109.605C47.1748 109.605 44.9099 109.605 42.5894 109.605V103.75H52.9598V101.671H40.0512V120.082H53.2979V117.965H53.2933ZM235.537 103.787C235.241 104.204 235.102 104.417 234.944 104.612C231.475 108.915 228.011 113.231 224.514 117.511C223.861 118.312 223.569 119.104 223.93 120.077H239.252V117.905H227.288C227.761 117.298 228.071 116.886 228.395 116.483C231.688 112.379 234.967 108.257 238.302 104.181C238.955 103.38 239.057 102.611 238.83 101.671H224.069V103.787H235.537ZM114.738 120.1C114.562 119.702 114.436 119.396 114.302 119.095C111.801 113.588 109.277 108.095 106.817 102.569C106.456 101.759 106.016 101.513 105.192 101.578C104.413 101.638 103.756 101.508 103.311 102.527C100.856 108.136 98.2811 113.69 95.7568 119.271C95.641 119.526 95.5808 119.808 95.4696 120.156C95.9282 120.156 96.2755 120.109 96.6044 120.165C97.6882 120.355 98.2579 119.882 98.5821 118.859C98.8554 118.002 99.351 117.215 99.6474 116.358C99.9068 115.612 100.356 115.408 101.097 115.422C103.107 115.459 105.136 115.607 107.118 115.39C109.355 115.14 110.541 115.867 111.241 118.058C111.963 120.318 112.148 120.258 114.738 120.1ZM88.925 120.105V101.698H86.6555V120.105H88.925Z" fill="black"/>
<path id="Vector_3" d="M59.0921 67.7018C58.6196 71.1107 58.1565 74.3622 57.7211 77.6229C57.647 78.1926 57.6238 78.6419 56.8503 78.6419C51.6582 78.6141 46.466 78.6187 41.2739 78.6048C41.2044 78.6048 41.1396 78.5539 40.9265 78.4659C41.3017 76.3955 41.6769 74.2881 42.0613 72.1853C43.687 63.2692 45.3127 54.3532 46.9431 45.4371C48.4855 37.0028 50.0278 28.5685 51.5748 20.1387C51.8944 18.3926 52.2696 16.6557 52.5475 14.9049C52.654 14.2472 52.9134 14.011 53.5711 14.011C61.2273 14.0249 68.8835 14.0388 76.5397 13.9971C77.517 13.9925 77.5448 14.6039 77.656 15.2106C78.6008 20.3379 79.5226 25.4652 80.4628 30.5925C82.0885 39.4715 83.7235 48.3459 85.3585 57.2248C86.5998 63.9871 87.8457 70.7448 89.0824 77.5071C89.1426 77.836 89.1426 78.1694 89.175 78.5678H72.2045C71.8988 76.4094 71.5838 74.251 71.2874 72.0926C71.116 70.856 71.0048 69.6147 70.7871 68.3873C70.7408 68.1279 70.3564 67.7342 70.1202 67.7342C66.4889 67.6925 62.853 67.7064 59.0967 67.7064L59.0921 67.7018ZM65.1504 29.0548C64.9651 29.0548 64.7845 29.0594 64.5992 29.064C63.4552 37.3919 62.3158 45.715 61.1625 54.1077H68.6102C67.4477 45.6965 66.299 37.3733 65.1457 29.0502L65.1504 29.0548Z" fill="black"/>
<path id="Vector_4" d="M206.705 14.1267C205.352 17.7626 204.06 21.2596 202.754 24.7565C200.322 31.2641 197.905 37.7762 195.427 44.2653C195.047 45.2565 195.051 46.0855 195.417 47.0721C199.155 57.1599 202.847 67.2663 206.547 77.3681C206.672 77.7155 206.779 78.0721 206.932 78.5399H188.715C188.016 75.9415 187.303 73.2922 186.589 70.6475C185.542 66.7476 184.505 62.8477 183.43 58.9524C183.329 58.5865 182.986 58.2855 182.759 57.952C182.56 58.2762 182.268 58.5726 182.175 58.9246C180.48 65.1126 178.794 71.3006 177.154 77.5024C176.941 78.313 176.659 78.6696 175.742 78.6603C170.628 78.614 165.51 78.6372 160.397 78.6372C160.063 78.6372 159.73 78.6094 159.23 78.5862C159.484 77.8961 159.707 77.3079 159.924 76.7197C163.625 66.8587 167.335 56.9978 170.994 47.123C171.203 46.558 171.193 45.7798 170.985 45.2101C167.335 35.252 163.634 25.3077 159.952 15.3634C159.813 14.9836 159.698 14.5992 159.535 14.0989C160.026 14.0711 160.388 14.0295 160.754 14.0295C165.983 14.0295 171.212 14.0526 176.441 14.0063C177.377 13.997 177.766 14.3074 177.993 15.192C179.503 21.0372 181.05 26.8732 182.615 32.7045C182.717 33.0889 183.032 33.4224 183.245 33.7791C183.5 33.4178 183.88 33.0889 183.991 32.686C185.63 26.7991 187.242 20.8983 188.836 14.9975C189.002 14.3768 189.206 14.0063 189.947 14.0109C195.292 14.0387 200.633 14.0248 205.978 14.0295C206.158 14.0295 206.343 14.0804 206.705 14.1314V14.1267Z" fill="black"/>
<path id="Vector_5" d="M146.965 14.0156C143.348 35.6688 139.763 57.1044 136.178 78.5723H111.815C108.216 57.0951 104.626 35.6595 101.018 14.0989C101.523 14.0665 101.884 14.0202 102.25 14.0202C107.178 14.0202 112.102 14.0341 117.03 14.0017C117.859 13.997 118.239 14.2055 118.336 15.0901C118.711 18.5871 119.156 22.0747 119.573 25.5624C120.152 30.4025 120.736 35.2427 121.314 40.0875C121.875 44.7794 122.431 49.4713 122.982 54.1632C123.227 56.266 123.44 58.3734 123.723 60.4716C123.76 60.7495 124.117 60.9904 124.325 61.2451C124.492 60.995 124.77 60.7634 124.802 60.4948C125.173 57.4934 125.511 54.4874 125.854 51.4815C126.358 47.0489 126.863 42.6164 127.363 38.1838C127.85 33.8995 128.332 29.6198 128.809 25.3355C129.198 21.8431 129.596 18.3462 129.953 14.8493C130.036 14.0295 130.536 14.0109 131.143 14.0109C134.742 14.0156 138.345 14.0109 141.944 14.0109C143.528 14.0109 145.112 14.0109 146.97 14.0109L146.965 14.0156Z" fill="black"/>
<path id="Vector_6" d="M133.223 105.288C132.982 105.899 132.82 106.27 132.69 106.645C131.236 110.897 129.772 115.14 128.359 119.405C128.123 120.114 127.702 120.276 127.099 120.151C126.409 120.008 125.46 120.67 125.075 119.526C123.135 113.69 121.194 107.849 119.253 102.013C119.221 101.912 119.226 101.796 119.212 101.689C119.3 101.661 119.369 101.624 119.443 101.62C120.944 101.524 121.93 102.188 122.403 103.611C123.709 107.553 125.011 111.495 126.321 115.436C126.433 115.774 126.585 116.103 126.831 116.71C127.127 115.922 127.326 115.413 127.507 114.899C128.943 110.763 130.42 106.641 131.778 102.477C132.102 101.476 132.718 101.634 133.417 101.587C134.14 101.541 134.552 101.698 134.811 102.495C136.242 106.872 137.748 111.221 139.23 115.58C139.336 115.899 139.462 116.21 139.665 116.779C139.92 116.126 140.11 115.695 140.258 115.255C141.606 111.286 142.94 107.317 144.283 103.347C144.734 102.017 145.716 101.476 147.229 101.726C145.913 105.672 144.607 109.605 143.297 113.537C142.653 115.473 141.972 117.395 141.356 119.341C141.171 119.924 140.93 120.184 140.263 120.184C138.368 120.179 138.373 120.211 137.766 118.437C136.414 114.473 135.057 110.508 133.7 106.548C133.584 106.21 133.445 105.876 133.223 105.293V105.288Z" fill="#F0FF00"/>
<path id="Vector_7" d="M11.1492 120.082V101.731C12.4584 101.512 13.4295 101.936 14.0625 103.005C16.3367 106.84 18.6155 110.675 21.0054 114.7C21.3019 114.246 21.5335 113.935 21.728 113.602C23.8123 110.045 25.9521 106.52 27.9438 102.912C28.62 101.689 29.4305 101.36 30.7645 101.726V120.1H28.4393V107.006C28.3606 106.983 28.2772 106.96 28.1985 106.942C28.0132 107.196 27.8094 107.437 27.6473 107.701C25.7854 110.818 23.9327 113.94 22.0707 117.062C21.3528 118.261 20.6442 118.275 19.9355 117.09C18.0828 114.01 16.2394 110.925 14.3914 107.845C14.2107 107.539 13.9977 107.257 13.5669 107.03V120.086H11.1584L11.1492 120.082Z" fill="#F0FF00"/>
<path id="Vector_8" d="M61.1948 101.384C64.9928 101.61 68.7816 101.453 72.4128 102.148C76.8407 102.995 79.3141 107.03 78.9899 111.717C78.6981 115.95 75.5207 119.322 71.2178 119.938C70.361 120.063 69.4902 120.142 68.6241 120.151C66.1693 120.179 63.7145 120.16 61.1948 120.16V101.384ZM63.8395 103.584V118.062C66.1971 117.956 68.4712 117.993 70.7084 117.72C73.7838 117.344 76.146 114.802 76.3683 111.935C76.674 107.993 75.0761 105.084 71.6579 104.302C69.1614 103.732 66.5167 103.806 63.8442 103.584H63.8395Z" fill="#F0FF00"/>
<path id="Vector_9" d="M182.749 120.114H180.225V101.597C181.476 101.597 182.708 101.573 183.935 101.601C185.82 101.648 187.733 101.573 189.59 101.833C192.587 102.254 194.597 104.153 194.986 106.585C195.528 109.989 194.449 112.143 191.388 113.759C191.323 113.792 191.267 113.847 191.073 113.996C192.457 115.978 193.852 117.965 195.255 119.971C193.203 120.48 192.754 120.313 191.596 118.674C190.767 117.497 189.979 116.293 189.086 115.167C188.808 114.82 188.261 114.519 187.821 114.496C186.168 114.417 184.509 114.463 182.745 114.463V120.105L182.749 120.114ZM182.768 112.291C184.287 112.291 185.714 112.291 187.145 112.291C187.636 112.291 188.136 112.314 188.618 112.236C191.11 111.847 192.481 110.471 192.573 108.299C192.666 106.154 191.596 104.417 189.558 104.102C187.344 103.76 185.074 103.801 182.763 103.672V112.291H182.768Z" fill="#F0FF00"/>
<path id="Vector_10" d="M152.903 110.888C152.884 105.506 157.03 101.397 162.509 101.374C168.405 101.346 172.615 105.279 172.648 110.841C172.68 116.242 168.405 120.383 162.787 120.387C157.127 120.387 152.921 116.348 152.903 110.892V110.888ZM170.068 110.902C170.077 106.803 166.965 103.648 162.852 103.593C158.711 103.537 155.441 106.724 155.427 110.823C155.413 114.95 158.604 118.118 162.777 118.122C166.895 118.122 170.059 114.991 170.068 110.902Z" fill="#F0FF00"/>
<path id="Vector_11" d="M210.66 109.929C213.472 113.338 216.204 116.654 219.021 120.077C217.307 120.267 215.954 120.309 214.833 118.752C213.333 116.673 211.517 114.815 209.836 112.866C209.567 112.555 209.289 112.259 208.947 111.874C207.816 113 206.723 114.033 205.704 115.135C205.491 115.367 205.473 115.83 205.468 116.191C205.44 117.469 205.459 118.752 205.459 120.096H202.953V101.652H205.417V112.013C205.968 111.499 206.293 111.221 206.594 110.916C209.16 108.285 211.795 105.719 214.245 102.981C215.408 101.685 216.64 101.342 218.409 101.74C215.811 104.491 213.277 107.169 210.66 109.934V109.929Z" fill="#F0FF00"/>
<path id="Vector_12" d="M53.2931 117.965V120.082H40.0464V101.671H52.955V103.75H42.5846V109.605C44.9097 109.605 47.17 109.605 49.4349 109.605C49.6618 109.605 49.8888 109.605 50.1157 109.605C51.3879 109.605 51.9561 110.304 51.8202 111.703C51.445 111.721 51.0467 111.759 50.6484 111.763C48.263 111.768 45.8731 111.786 43.4877 111.754C42.7652 111.745 42.4549 111.962 42.4688 112.713C42.5012 114.153 42.5058 115.594 42.4688 117.029C42.4502 117.789 42.7791 117.984 43.4924 117.979C46.7068 117.951 49.9258 117.965 53.2884 117.965H53.2931Z" fill="#F0FF00"/>
<path id="Vector_13" d="M235.537 103.787H224.069V101.671H238.83C239.057 102.611 238.955 103.384 238.302 104.181C234.967 108.257 231.693 112.375 228.395 116.483C228.071 116.886 227.76 117.298 227.288 117.905H239.252V120.077H223.93C223.569 119.104 223.86 118.312 224.514 117.511C228.01 113.227 231.47 108.915 234.944 104.612C235.102 104.417 235.241 104.204 235.537 103.787Z" fill="#F0FF00"/>
<path id="Vector_14" d="M114.737 120.1C112.148 120.258 111.963 120.318 111.24 118.058C110.541 115.867 109.355 115.144 107.118 115.39C105.136 115.612 103.107 115.464 101.097 115.422C100.351 115.408 99.902 115.612 99.6473 116.358C99.3509 117.21 98.8553 117.997 98.582 118.859C98.2578 119.883 97.6881 120.35 96.6042 120.165C96.2754 120.109 95.928 120.156 95.4695 120.156C95.5806 119.804 95.6409 119.526 95.7566 119.271C98.2809 113.695 100.856 108.137 103.311 102.528C103.76 101.509 104.413 101.638 105.191 101.578C106.011 101.513 106.456 101.759 106.817 102.569C109.277 108.095 111.796 113.588 114.302 119.095C114.436 119.396 114.566 119.702 114.737 120.1ZM105.052 104.102C103.626 107.354 102.329 110.3 100.981 113.37H109.119C107.785 110.327 106.488 107.372 105.052 104.102Z" fill="#F0FF00"/>
<path id="Vector_15" d="M88.9248 120.105H86.6553V101.698H88.9248V120.105Z" fill="#F0FF00"/>
<path id="Vector_16" d="M65.1503 29.0547C66.2989 37.3779 67.4522 45.7011 68.6148 54.1122H61.167C62.3203 45.7196 63.4597 37.3918 64.6037 29.0686C64.789 29.0686 64.9696 29.064 65.1549 29.0593L65.1503 29.0547Z" fill="#F0FF00"/>
<path id="Vector_17" d="M63.8396 103.584C66.5121 103.806 69.1568 103.727 71.6533 104.302C75.0715 105.084 76.6694 107.993 76.3637 111.935C76.1414 114.802 73.7792 117.344 70.7038 117.72C68.4667 117.993 66.1925 117.956 63.835 118.062V103.584H63.8396Z" fill="black"/>
<path id="Vector_18" d="M182.768 112.291V103.672C185.075 103.801 187.349 103.755 189.563 104.102C191.605 104.422 192.671 106.154 192.578 108.299C192.485 110.471 191.114 111.846 188.623 112.236C188.141 112.31 187.641 112.286 187.15 112.291C185.718 112.296 184.287 112.291 182.773 112.291H182.768Z" fill="black"/>
<path id="Vector_19" d="M170.068 110.902C170.059 114.992 166.895 118.127 162.778 118.123C158.604 118.123 155.413 114.954 155.427 110.823C155.441 106.724 158.711 103.537 162.852 103.593C166.965 103.648 170.077 106.798 170.068 110.902Z" fill="black"/>
<path id="Vector_20" d="M105.052 104.102C106.488 107.368 107.785 110.327 109.119 113.37H100.981C102.329 110.304 103.626 107.354 105.052 104.102Z" fill="black"/>
</g>
</svg>
