<svg width="541" height="293" viewBox="0 0 541 293" fill="none" xmlns="http://www.w3.org/2000/svg">
<path d="M0.398376 0H540.602V293H0.398376V0ZM534.778 287.663V200.738H6.20146V287.663H534.778ZM128.178 148.034C136.391 148.034 144.341 148.004 152.281 148.095C152.788 148.095 153.638 148.956 153.74 149.523C154.216 152.207 154.459 154.931 154.833 157.625C155.481 162.345 156.17 167.064 156.839 171.783H193.946C193.875 170.912 193.875 170.173 193.743 169.464C191.039 154.678 188.315 139.902 185.601 125.116C182.036 105.701 178.451 86.2968 174.896 66.8823C172.84 55.6711 170.825 44.4599 168.759 33.2487C168.516 31.922 168.455 30.5852 166.318 30.5953C149.577 30.6865 132.836 30.6561 116.095 30.6257C114.657 30.6257 114.09 31.1422 113.857 32.5803C113.239 36.4085 112.429 40.2064 111.73 44.0244C108.348 62.4667 104.975 80.8988 101.603 99.3411C98.038 118.837 94.4833 138.332 90.9285 157.828C90.0879 162.426 89.2676 167.023 88.4473 171.561C88.9131 171.753 89.0549 171.864 89.2068 171.864C100.56 171.885 111.913 171.885 123.266 171.945C124.967 171.945 125.008 170.963 125.17 169.717C126.112 162.588 127.124 155.478 128.167 148.024L128.178 148.034ZM450.942 30.889C450.152 30.7776 449.747 30.6662 449.352 30.6662C437.665 30.6561 425.988 30.6763 414.301 30.6257C412.67 30.6257 412.235 31.4258 411.87 32.7829C408.387 45.6854 404.862 58.5777 401.277 71.46C401.034 72.341 400.203 73.05 399.646 73.8501C399.181 73.0702 398.502 72.341 398.269 71.5005C394.856 58.7499 391.463 45.9892 388.162 33.2082C387.666 31.2739 386.815 30.5953 384.769 30.6156C373.335 30.7168 361.901 30.6561 350.467 30.6662C349.667 30.6662 348.867 30.7574 347.804 30.8181C348.158 31.9119 348.411 32.7525 348.715 33.5829C356.777 55.3369 364.858 77.0706 372.839 98.8448C373.295 100.091 373.315 101.792 372.859 103.028C364.858 124.619 356.736 146.181 348.654 167.743C348.168 169.029 347.692 170.315 347.135 171.824C348.219 171.875 348.958 171.935 349.687 171.935C360.868 171.935 372.059 171.885 383.24 171.986C385.245 172.006 385.853 171.237 386.329 169.454C389.924 155.893 393.6 142.363 397.307 128.832C397.52 128.063 398.148 127.415 398.583 126.706C399.089 127.435 399.829 128.093 400.052 128.893C402.401 137.4 404.67 145.938 406.959 154.465C408.518 160.258 410.078 166.041 411.607 171.723H451.439C451.104 170.7 450.882 169.92 450.598 169.16C442.506 147.072 434.435 124.974 426.262 102.916C425.462 100.759 425.451 98.936 426.282 96.7788C431.7 82.5901 436.987 68.3508 442.304 54.1216C445.16 46.4854 447.985 38.829 450.942 30.8789V30.889ZM320.317 30.646C316.266 30.646 312.793 30.646 309.329 30.646C301.46 30.646 293.581 30.646 285.712 30.646C284.385 30.646 283.291 30.6865 283.109 32.479C282.329 40.1253 281.458 47.7615 280.607 55.4078C279.564 64.7758 278.501 74.1336 277.447 83.5016C276.354 93.1937 275.25 102.886 274.146 112.578C273.396 119.151 272.667 125.723 271.847 132.286C271.776 132.863 271.158 133.38 270.804 133.927C270.348 133.37 269.568 132.843 269.487 132.235C268.869 127.648 268.414 123.04 267.867 118.442C266.662 108.182 265.436 97.9232 264.221 87.664C262.955 77.0807 261.689 66.4975 260.413 55.904C259.501 48.2679 258.529 40.6418 257.709 33.0057C257.496 31.0713 256.676 30.6156 254.853 30.6257C244.077 30.6966 233.312 30.6561 222.536 30.6662C221.736 30.6662 220.946 30.7675 219.842 30.8384C227.741 77.9821 235.59 124.852 243.449 171.814H296.72C304.559 124.883 312.398 78.0023 320.307 30.6561L320.317 30.646Z" fill="#F0FF00"/>
<path d="M534.778 287.663H6.20111V200.738H534.778V287.663ZM290.269 230.219C290.755 231.506 291.059 232.225 291.312 232.964C294.279 241.633 297.246 250.292 300.204 258.961C301.53 262.84 301.52 262.769 305.662 262.779C307.121 262.779 307.647 262.212 308.053 260.936C309.4 256.693 310.888 252.48 312.296 248.246C315.162 239.648 318.028 231.05 320.894 222.421C317.586 221.874 315.439 223.056 314.453 225.966C311.516 234.645 308.589 243.324 305.652 252.004C305.328 252.966 304.913 253.898 304.356 255.336C303.9 254.09 303.637 253.401 303.404 252.713C300.163 243.183 296.872 233.673 293.742 224.102C293.175 222.36 292.274 222.016 290.694 222.117C289.165 222.219 287.828 221.874 287.109 224.062C284.141 233.166 280.911 242.18 277.771 251.224C277.376 252.348 276.941 253.462 276.293 255.184C275.756 253.857 275.422 253.138 275.179 252.399C272.312 243.78 269.467 235.162 266.611 226.543C265.578 223.43 263.421 221.979 260.139 222.188C259.977 222.188 259.825 222.279 259.633 222.34C259.663 222.573 259.643 222.826 259.724 223.049C263.957 235.82 268.211 248.581 272.454 261.341C273.285 263.843 275.371 262.395 276.88 262.708C278.197 262.982 279.118 262.627 279.635 261.078C282.724 251.761 285.924 242.474 289.104 233.177C289.388 232.346 289.742 231.546 290.269 230.209V230.219ZM23.347 262.567H28.6134V234.017C29.5552 234.513 30.011 235.141 30.4161 235.8C34.4671 242.534 38.4979 249.279 42.5387 256.014C44.0984 258.597 45.6479 258.576 47.2075 255.953C51.2687 249.138 55.3298 242.312 59.4011 235.486C59.7556 234.898 60.2012 234.372 60.6063 233.825C60.7785 233.875 60.9607 233.926 61.1329 233.967V262.597H66.2169V222.421C63.3002 221.621 61.5279 222.34 60.0493 225.014C55.6944 232.903 51.0155 240.61 46.4581 248.388C46.0327 249.117 45.5365 249.806 44.8782 250.788C39.6524 241.988 34.6696 233.602 29.697 225.216C28.3129 222.887 26.1895 221.959 23.3268 222.431V262.557L23.347 262.567ZM132.775 221.682V262.739C138.285 262.739 143.652 262.779 149.02 262.719C150.914 262.698 152.818 262.526 154.691 262.253C164.1 260.906 171.047 253.533 171.685 244.276C172.394 234.037 166.986 225.206 157.304 223.353C149.374 221.834 141.08 222.178 132.775 221.682ZM398.562 262.638V250.302C402.421 250.302 406.047 250.201 409.662 250.373C410.624 250.414 411.819 251.082 412.427 251.842C414.372 254.303 416.103 256.936 417.916 259.508C420.438 263.093 421.43 263.448 425.917 262.344C422.848 257.959 419.81 253.614 416.772 249.279C417.197 248.955 417.319 248.834 417.46 248.763C424.155 245.228 426.525 240.509 425.329 233.075C424.479 227.758 420.073 223.606 413.531 222.684C409.47 222.107 405.287 222.279 401.165 222.178C398.471 222.117 395.777 222.168 393.053 222.168V262.658H398.573L398.562 262.638ZM333.301 242.464C333.341 254.394 342.537 263.225 354.913 263.225C367.197 263.225 376.545 254.171 376.474 242.352C376.403 230.189 367.187 221.601 354.305 221.651C342.324 221.702 333.26 230.685 333.301 242.453V242.464ZM459.591 240.367C465.303 234.321 470.843 228.467 476.534 222.451C472.666 221.581 469.982 222.33 467.43 225.166C462.072 231.151 456.3 236.762 450.699 242.514C450.051 243.183 449.332 243.79 448.127 244.914V222.259H442.739V262.587H448.218C448.218 259.65 448.177 256.855 448.238 254.049C448.258 253.259 448.289 252.247 448.755 251.74C450.983 249.33 453.373 247.072 455.844 244.611C456.593 245.441 457.201 246.099 457.788 246.778C461.465 251.042 465.435 255.103 468.716 259.65C471.167 263.053 474.124 262.962 477.871 262.546C471.714 255.072 465.728 247.821 459.591 240.357V240.367ZM115.498 257.938C108.145 257.938 101.106 257.898 94.0778 257.969C92.5182 257.979 91.7991 257.554 91.8396 255.893C91.9206 252.743 91.9105 249.593 91.8396 246.454C91.7991 244.813 92.4878 244.337 94.0677 244.357C99.2834 244.428 104.499 244.388 109.725 244.378C110.596 244.378 111.467 244.297 112.287 244.246C112.584 241.187 111.342 239.658 108.56 239.658C108.064 239.658 107.568 239.658 107.071 239.658C102.119 239.658 97.1667 239.658 92.0928 239.658V226.857H114.768V222.31H86.5429V262.567H115.508V257.938H115.498ZM513.986 226.938C513.338 227.849 513.034 228.315 512.69 228.741C505.104 238.149 497.529 247.588 489.883 256.946C488.455 258.698 487.816 260.43 488.606 262.557H522.108V257.807H495.949C496.982 256.48 497.66 255.579 498.369 254.698C505.57 245.725 512.74 236.711 520.032 227.799C521.46 226.047 521.683 224.366 521.187 222.31H488.91V226.938H513.986ZM249.85 262.607C249.465 261.736 249.191 261.068 248.898 260.41C243.429 248.368 237.909 236.357 232.531 224.274C231.742 222.502 230.779 221.965 228.977 222.107C227.275 222.239 225.837 221.955 224.865 224.183C219.497 236.448 213.866 248.591 208.347 260.794C208.094 261.351 207.962 261.969 207.719 262.729C208.722 262.729 209.481 262.627 210.2 262.749C212.57 263.164 213.816 262.131 214.525 259.893C215.122 258.019 216.206 256.298 216.854 254.424C217.421 252.794 218.404 252.348 220.024 252.378C224.419 252.459 228.855 252.783 233.19 252.307C238.081 251.761 240.674 253.351 242.203 258.141C243.783 263.083 244.188 262.952 249.85 262.607ZM193.409 262.617V222.37H188.446V262.617H193.409Z" fill="black"/>
<path d="M128.178 148.035C127.145 155.489 126.132 162.599 125.18 169.729C125.018 170.974 124.967 171.957 123.276 171.957C111.923 171.896 100.57 171.906 89.217 171.876C89.0651 171.876 88.9233 171.764 88.4575 171.572C89.2778 167.045 90.0981 162.437 90.9387 157.839C94.4935 138.343 98.0483 118.848 101.613 99.3523C104.986 80.91 108.358 62.4678 111.741 44.0356C112.439 40.2175 113.26 36.4197 113.867 32.5915C114.1 31.1534 114.668 30.6369 116.106 30.6369C132.847 30.6673 149.587 30.6977 166.328 30.6065C168.465 30.5964 168.526 31.9332 168.769 33.2599C170.835 44.4711 172.85 55.6823 174.906 66.8935C178.461 86.308 182.036 105.712 185.611 125.127C188.325 139.913 191.05 154.689 193.754 169.475C193.885 170.194 193.885 170.924 193.956 171.795H156.849C156.18 167.075 155.492 162.356 154.844 157.636C154.469 154.932 154.226 152.218 153.75 149.534C153.648 148.967 152.808 148.106 152.291 148.106C144.351 148.015 136.401 148.046 128.188 148.046L128.178 148.035ZM141.425 63.5311C141.019 63.5311 140.624 63.5413 140.219 63.5514C137.718 81.7607 135.226 99.9599 132.705 118.311H148.99C146.448 99.9194 143.936 81.7202 141.414 63.521L141.425 63.5311Z" fill="white"/>
<path d="M450.942 30.8892C447.985 38.8394 445.159 46.4857 442.303 54.132C436.986 68.3612 431.7 82.6005 426.281 96.7892C425.451 98.9565 425.461 100.769 426.261 102.926C434.434 124.984 442.506 147.083 450.598 169.171C450.871 169.93 451.104 170.71 451.438 171.733H411.607C410.077 166.051 408.518 160.258 406.958 154.476C404.669 145.948 402.401 137.421 400.051 128.904C399.828 128.104 399.079 127.445 398.583 126.716C398.147 127.425 397.509 128.073 397.307 128.843C393.6 142.373 389.913 155.904 386.328 169.464C385.862 171.237 385.245 172.017 383.239 171.996C372.059 171.895 360.868 171.946 349.687 171.946C348.958 171.946 348.228 171.885 347.135 171.834C347.692 170.325 348.178 169.039 348.654 167.753C356.746 146.191 364.858 124.63 372.859 103.038C373.314 101.802 373.294 100.101 372.838 98.8552C364.858 77.081 356.766 55.3371 348.715 33.5933C348.411 32.7628 348.158 31.9223 347.803 30.8285C348.877 30.7677 349.667 30.6766 350.467 30.6766C361.901 30.6766 373.335 30.7272 384.769 30.6259C386.814 30.6057 387.665 31.2842 388.161 33.2186C391.463 45.9995 394.846 58.7602 398.269 71.5108C398.491 72.3514 399.18 73.0806 399.646 73.8604C400.203 73.0705 401.033 72.3514 401.277 71.4703C404.862 58.5982 408.386 45.6957 411.87 32.7932C412.235 31.4361 412.68 30.6259 414.301 30.6361C425.988 30.6968 437.665 30.6664 449.352 30.6766C449.747 30.6766 450.152 30.788 450.942 30.8994V30.8892Z" fill="white"/>
<path d="M320.318 30.6458C312.408 77.9921 304.569 124.862 296.731 171.803H243.46C235.591 124.842 227.742 77.9718 219.852 30.8281C220.956 30.7572 221.746 30.6559 222.546 30.6559C233.322 30.6559 244.088 30.6863 254.863 30.6154C256.676 30.6053 257.507 31.061 257.719 32.9954C258.54 40.6417 259.512 48.2677 260.423 55.8937C261.689 66.477 262.965 77.0603 264.231 87.6537C265.457 97.9129 266.672 108.172 267.877 118.431C268.414 123.029 268.88 127.637 269.498 132.225C269.579 132.833 270.359 133.359 270.814 133.916C271.179 133.369 271.787 132.863 271.857 132.276C272.668 125.713 273.407 119.14 274.156 112.567C275.26 102.875 276.364 93.1834 277.458 83.4913C278.521 74.1233 279.575 64.7655 280.618 55.3975C281.468 47.7613 282.339 40.115 283.119 32.4687C283.302 30.6762 284.395 30.6357 285.722 30.6357C293.591 30.6458 301.47 30.6357 309.339 30.6357C312.803 30.6357 316.267 30.6357 320.328 30.6357L320.318 30.6458Z" fill="white"/>
<path d="M290.269 230.219C289.742 231.556 289.388 232.366 289.104 233.187C285.924 242.484 282.724 251.761 279.635 261.088C279.119 262.638 278.197 262.992 276.88 262.719C275.371 262.405 273.295 263.853 272.455 261.351C268.211 248.591 263.968 235.82 259.724 223.059C259.653 222.836 259.664 222.583 259.633 222.35C259.826 222.289 259.978 222.208 260.14 222.198C263.421 221.989 265.578 223.441 266.611 226.553C269.467 235.172 272.313 243.79 275.179 252.409C275.422 253.148 275.756 253.867 276.293 255.194C276.941 253.472 277.377 252.358 277.772 251.234C280.911 242.19 284.142 233.177 287.109 224.072C287.818 221.884 289.165 222.229 290.694 222.127C292.274 222.026 293.176 222.37 293.743 224.112C296.872 233.683 300.164 243.193 303.404 252.723C303.637 253.422 303.911 254.1 304.356 255.346C304.913 253.918 305.329 252.976 305.653 252.014C308.6 243.334 311.517 234.655 314.454 225.976C315.439 223.066 317.586 221.884 320.895 222.431C318.019 231.06 315.163 239.658 312.296 248.256C310.889 252.49 309.4 256.693 308.053 260.946C307.648 262.222 307.121 262.79 305.663 262.79C301.521 262.779 301.531 262.85 300.204 258.971C297.247 250.302 294.28 241.633 291.312 232.974C291.059 232.235 290.755 231.506 290.269 230.229V230.219Z" fill="white"/>
<path d="M23.3476 262.567V222.441C26.2103 221.962 28.3337 222.89 29.7178 225.226C34.6904 233.612 39.6732 241.998 44.899 250.799C45.5472 249.806 46.0536 249.128 46.4789 248.398C51.0363 240.62 55.7152 232.913 60.0701 225.024C61.5487 222.35 63.321 221.631 66.2378 222.431V262.607H61.1537V233.977C60.9816 233.926 60.7993 233.875 60.6271 233.835C60.222 234.392 59.7764 234.919 59.4219 235.496C55.3506 242.312 51.2996 249.138 47.2283 255.964C45.6586 258.587 44.1091 258.617 42.5596 256.024C38.5085 249.29 34.4778 242.545 30.4369 235.81C30.0419 235.141 29.576 234.524 28.6342 234.027V262.577H23.3679L23.3476 262.567Z" fill="white"/>
<path d="M132.776 221.682C141.08 222.178 149.365 221.834 157.305 223.353C166.987 225.206 172.395 234.027 171.686 244.276C171.048 253.533 164.1 260.906 154.692 262.253C152.818 262.526 150.914 262.698 149.02 262.718C143.653 262.779 138.285 262.739 132.776 262.739V221.682ZM138.559 226.492V258.151C143.714 257.918 148.686 257.999 153.578 257.401C160.302 256.581 165.468 251.021 165.954 244.752C166.622 236.134 163.128 229.774 155.654 228.062C150.195 226.816 144.412 226.978 138.569 226.492H138.559Z" fill="white"/>
<path d="M398.564 262.637H393.044V222.147C395.779 222.147 398.473 222.096 401.157 222.157C405.278 222.258 409.461 222.096 413.522 222.663C420.075 223.585 424.47 227.737 425.321 233.054C426.506 240.498 424.146 245.207 417.452 248.742C417.31 248.813 417.188 248.934 416.763 249.258C419.791 253.593 422.84 257.937 425.908 262.323C421.422 263.437 420.439 263.072 417.907 259.487C416.095 256.915 414.373 254.281 412.418 251.82C411.811 251.061 410.616 250.403 409.654 250.352C406.038 250.18 402.412 250.281 398.554 250.281V262.616L398.564 262.637ZM398.604 245.531C401.926 245.531 405.046 245.531 408.175 245.531C409.248 245.531 410.342 245.582 411.395 245.41C416.844 244.559 419.842 241.551 420.044 236.801C420.247 232.112 417.907 228.314 413.451 227.626C408.61 226.876 403.648 226.967 398.594 226.684V245.531H398.604Z" fill="white"/>
<path d="M333.301 242.463C333.261 230.695 342.325 221.712 354.306 221.661C367.198 221.601 376.404 230.199 376.475 242.362C376.546 254.171 367.198 263.225 354.914 263.235C342.538 263.235 333.342 254.404 333.301 242.474V242.463ZM370.834 242.494C370.854 233.531 364.049 226.634 355.055 226.513C346.001 226.391 338.851 233.359 338.821 242.322C338.79 251.345 345.768 258.273 354.893 258.283C363.897 258.283 370.814 251.436 370.834 242.494Z" fill="white"/>
<path d="M459.591 240.368C465.739 247.822 471.714 255.074 477.872 262.558C474.124 262.973 471.167 263.064 468.716 259.661C465.435 255.114 461.465 251.053 457.789 246.789C457.201 246.111 456.594 245.463 455.844 244.622C453.373 247.083 450.983 249.341 448.755 251.752C448.289 252.258 448.249 253.271 448.238 254.061C448.178 256.856 448.218 259.661 448.218 262.598H442.739V222.27H448.127V244.926C449.332 243.802 450.041 243.194 450.699 242.526C456.31 236.773 462.073 231.162 467.43 225.177C469.972 222.341 472.666 221.592 476.535 222.463C470.853 228.479 465.314 234.332 459.591 240.379V240.368Z" fill="white"/>
<path d="M115.499 257.938V262.566H86.5341V222.309H114.76V226.856H92.084V239.658C97.168 239.658 102.11 239.658 107.063 239.658C107.559 239.658 108.055 239.658 108.551 239.658C111.333 239.658 112.575 241.187 112.278 244.245C111.458 244.286 110.587 244.367 109.716 244.377C104.5 244.387 99.2746 244.428 94.0589 244.357C92.479 244.336 91.8004 244.812 91.8308 246.453C91.9017 249.603 91.9118 252.752 91.8308 255.892C91.7903 257.553 92.5094 257.978 94.069 257.968C101.098 257.907 108.136 257.938 115.489 257.938H115.499Z" fill="white"/>
<path d="M513.987 226.937H488.911V222.309H521.188C521.684 224.365 521.461 226.056 520.033 227.798C512.741 236.71 505.581 245.714 498.37 254.697C497.661 255.578 496.983 256.479 495.95 257.806H522.109V262.556H488.607C487.817 260.429 488.455 258.697 489.883 256.945C497.53 247.577 505.095 238.149 512.691 228.74C513.035 228.315 513.339 227.849 513.987 226.937Z" fill="white"/>
<path d="M249.85 262.606C244.189 262.95 243.784 263.082 242.204 258.14C240.675 253.35 238.082 251.77 233.19 252.306C228.856 252.793 224.42 252.468 220.025 252.377C218.394 252.347 217.412 252.793 216.855 254.423C216.207 256.287 215.123 258.008 214.525 259.892C213.816 262.13 212.571 263.153 210.201 262.748C209.482 262.626 208.722 262.728 207.72 262.728C207.963 261.958 208.094 261.35 208.348 260.793C213.867 248.6 219.498 236.447 224.866 224.182C225.848 221.954 227.276 222.238 228.977 222.106C230.77 221.964 231.742 222.501 232.532 224.273C237.91 236.356 243.419 248.367 248.898 260.408C249.192 261.067 249.476 261.735 249.85 262.606ZM228.674 227.626C225.554 234.735 222.719 241.176 219.771 247.891H237.566C234.649 241.237 231.813 234.776 228.674 227.626Z" fill="white"/>
<path d="M193.409 262.617H188.446V222.371H193.409V262.617Z" fill="white"/>
<path d="M141.425 63.5312C143.937 81.7304 146.459 99.9296 149.001 118.321H132.716C135.238 99.9702 137.729 81.7608 140.23 63.5616C140.636 63.5616 141.03 63.5515 141.436 63.5414L141.425 63.5312Z" fill="#F0FF00"/>
<path d="M138.559 226.494C144.402 226.98 150.185 226.808 155.644 228.063C163.118 229.775 166.612 236.135 165.944 244.754C165.458 251.023 160.293 256.583 153.568 257.403C148.676 258 143.704 257.919 138.549 258.152V226.494H138.559Z" fill="black"/>
<path d="M398.604 245.532V226.685C403.648 226.968 408.621 226.867 413.462 227.627C417.928 228.325 420.257 232.113 420.055 236.802C419.852 241.552 416.854 244.56 411.406 245.411C410.352 245.573 409.259 245.522 408.185 245.532C405.056 245.542 401.926 245.532 398.615 245.532H398.604Z" fill="black"/>
<path d="M370.834 242.493C370.813 251.435 363.896 258.292 354.893 258.281C345.768 258.281 338.79 251.354 338.82 242.32C338.851 233.358 346.001 226.39 355.055 226.511C364.048 226.633 370.854 233.52 370.834 242.493Z" fill="black"/>
<path d="M228.674 227.625C231.813 234.765 234.649 241.237 237.566 247.89H219.771C222.719 241.186 225.554 234.735 228.674 227.625Z" fill="black"/>
</svg>
