<svg width="35" height="35" viewBox="0 0 35 35" fill="none" xmlns="http://www.w3.org/2000/svg">
<g id="Group">
<g id="Group_2">
<g id="Group_3">
<g id="Group_4">
<path id="Vector" d="M25.6154 35H1.0334C0.738086 35 0.50293 34.7648 0.50293 34.4695V0.530469C0.50293 0.235156 0.738086 0 1.0334 0H19.6326C19.7639 0 19.8896 0.0492188 19.9881 0.136719L25.9764 5.52891C26.0857 5.62734 26.1514 5.775 26.1514 5.92266V20.0594C26.1514 20.3547 25.9162 20.5898 25.6209 20.5898C25.3256 20.5898 25.0904 20.3547 25.0904 20.0594V6.15781L19.4248 1.06094H1.56387V33.9391H25.085V27.8906C25.085 27.5953 25.3201 27.3602 25.6154 27.3602C25.9107 27.3602 26.1459 27.5953 26.1459 27.8906V34.4695C26.1459 34.7648 25.9107 35 25.6154 35Z" fill="white"/>
</g>
<g id="Group_5">
<path id="Vector_2" d="M25.61 6.45312H19.6271C19.3318 6.45312 19.0967 6.21797 19.0967 5.92266V0.530469C19.0967 0.235156 19.3318 0 19.6271 0C19.9225 0 20.1576 0.235156 20.1576 0.530469V5.39219H25.6154C25.9107 5.39219 26.1459 5.62734 26.1459 5.92266C26.1404 6.2125 25.9053 6.45312 25.61 6.45312Z" fill="white"/>
</g>
</g>
<g id="Group_6">
<g id="Group_7">
<path id="Vector_3" d="M15.351 8.78359H5.52363C5.22832 8.78359 4.99316 8.54844 4.99316 8.25313C4.99316 7.95781 5.22832 7.72266 5.52363 7.72266H15.351C15.6463 7.72266 15.8814 7.95781 15.8814 8.25313C15.8814 8.54297 15.6408 8.78359 15.351 8.78359Z" fill="white"/>
</g>
<g id="Group_8">
<path id="Vector_4" d="M15.351 14.4008H5.52363C5.22832 14.4008 4.99316 14.1656 4.99316 13.8703C4.99316 13.575 5.22832 13.3398 5.52363 13.3398H15.351C15.6463 13.3398 15.8814 13.575 15.8814 13.8703C15.8814 14.1656 15.6408 14.4008 15.351 14.4008Z" fill="white"/>
</g>
<g id="Group_9">
<path id="Vector_5" d="M21.1205 20.0102H5.52363C5.22832 20.0102 4.99316 19.775 4.99316 19.4797C4.99316 19.1844 5.22832 18.9492 5.52363 18.9492H21.1205C21.4158 18.9492 21.651 19.1844 21.651 19.4797C21.651 19.775 21.4104 20.0102 21.1205 20.0102Z" fill="white"/>
</g>
<g id="Group_10">
<path id="Vector_6" d="M21.1205 25.6273H5.52363C5.22832 25.6273 4.99316 25.3922 4.99316 25.0969C4.99316 24.8016 5.22832 24.5664 5.52363 24.5664H21.1205C21.4158 24.5664 21.651 24.8016 21.651 25.0969C21.651 25.3922 21.4104 25.6273 21.1205 25.6273Z" fill="white"/>
</g>
<g id="Group_11">
<path id="Vector_7" d="M21.1205 31.2445H5.52363C5.22832 31.2445 4.99316 31.0094 4.99316 30.7141C4.99316 30.4188 5.22832 30.1836 5.52363 30.1836H21.1205C21.4158 30.1836 21.651 30.4188 21.651 30.7141C21.651 31.0094 21.4104 31.2445 21.1205 31.2445Z" fill="white"/>
</g>
</g>
</g>
<g id="Group_12">
<g id="Group_13">
<path id="Vector_8" d="M23.0178 30.6514C22.9412 30.6514 22.8646 30.635 22.7936 30.6022C22.6021 30.5147 22.4873 30.3233 22.4873 30.11L22.5693 25.4069C22.5693 25.3303 22.5857 25.2592 22.6186 25.1936L29.8209 9.85374C30.3951 8.62874 31.8607 8.10374 33.0857 8.67796C34.3107 9.25218 34.8357 10.7178 34.2615 11.9428L27.0647 27.2772C27.0318 27.3428 26.9881 27.403 26.9279 27.4522L23.3623 30.5201C23.2639 30.6076 23.1381 30.6514 23.0178 30.6514ZM23.6303 25.5436L23.5701 28.9506L26.1514 26.7303L33.3045 11.4889C33.6326 10.7944 33.3318 9.96312 32.6373 9.63499C31.9428 9.30687 31.1115 9.60765 30.7834 10.3022L23.6303 25.5436Z" fill="white"/>
</g>
<g id="Group_14">
<path id="Vector_9" d="M26.704 27.322C26.6274 27.322 26.5509 27.3056 26.4798 27.2728L22.9962 25.6376C22.7337 25.5118 22.6188 25.1946 22.7392 24.9321C22.8649 24.6696 23.1821 24.5493 23.4446 24.6751L26.9282 26.3103C27.1907 26.436 27.3056 26.7532 27.1852 27.0157C27.0977 27.2071 26.9063 27.322 26.704 27.322Z" fill="white"/>
</g>
<g id="Group_15">
<path id="Vector_10" d="M33.1571 13.5774C33.0806 13.5774 33.004 13.561 32.9329 13.5282L29.4493 11.8931C29.1868 11.7673 29.072 11.4501 29.1923 11.1876C29.3181 10.9251 29.6352 10.8102 29.8977 10.9306L33.3813 12.5657C33.6438 12.6915 33.7587 13.0087 33.6384 13.2712C33.5509 13.4626 33.3595 13.5774 33.1571 13.5774Z" fill="white"/>
</g>
</g>
</g>
</svg>
