<svg width="45" height="45" viewBox="0 0 45 45" fill="none" xmlns="http://www.w3.org/2000/svg">
<g id="Calendar">
<path id="Vector" d="M41.25 5.25H36.75V7.5C36.75 8.09674 36.5129 8.66903 36.091 9.09099C35.669 9.51295 35.0967 9.75 34.5 9.75C33.9033 9.75 33.331 9.51295 32.909 9.09099C32.4871 8.66903 32.25 8.09674 32.25 7.5V5.25H24.75V7.5C24.75 8.09674 24.5129 8.66903 24.091 9.09099C23.669 9.51295 23.0967 9.75 22.5 9.75C21.9033 9.75 21.331 9.51295 20.909 9.09099C20.4871 8.66903 20.25 8.09674 20.25 7.5V5.25H12.75V7.5C12.75 8.09674 12.5129 8.66903 12.091 9.09099C11.669 9.51295 11.0967 9.75 10.5 9.75C9.90326 9.75 9.33097 9.51295 8.90901 9.09099C8.48705 8.66903 8.25 8.09674 8.25 7.5V5.25H3.75C2.95435 5.25 2.19129 5.56607 1.62868 6.12868C1.06607 6.69129 0.75 7.45435 0.75 8.25V14.25H44.25V8.25C44.25 7.45435 43.9339 6.69129 43.3713 6.12868C42.8087 5.56607 42.0456 5.25 41.25 5.25Z" fill="#EBEBEB"/>
<path id="Vector_2" d="M19.5 19.5H16.5C16.0858 19.5 15.75 19.8358 15.75 20.25V22.5C15.75 22.9142 16.0858 23.25 16.5 23.25H19.5C19.9142 23.25 20.25 22.9142 20.25 22.5V20.25C20.25 19.8358 19.9142 19.5 19.5 19.5Z" fill="#EBEBEB"/>
<path id="Vector_3" d="M10.5 19.5H7.5C7.08579 19.5 6.75 19.8358 6.75 20.25V22.5C6.75 22.9142 7.08579 23.25 7.5 23.25H10.5C10.9142 23.25 11.25 22.9142 11.25 22.5V20.25C11.25 19.8358 10.9142 19.5 10.5 19.5Z" fill="#EBEBEB"/>
<path id="Vector_4" d="M37.5 19.5H34.5C34.0858 19.5 33.75 19.8358 33.75 20.25V22.5C33.75 22.9142 34.0858 23.25 34.5 23.25H37.5C37.9142 23.25 38.25 22.9142 38.25 22.5V20.25C38.25 19.8358 37.9142 19.5 37.5 19.5Z" fill="#EBEBEB"/>
<path id="Vector_5" d="M19.5 26.25H16.5C16.0858 26.25 15.75 26.5858 15.75 27V29.25C15.75 29.6642 16.0858 30 16.5 30H19.5C19.9142 30 20.25 29.6642 20.25 29.25V27C20.25 26.5858 19.9142 26.25 19.5 26.25Z" fill="#EBEBEB"/>
<path id="Vector_6" d="M10.5 26.25H7.5C7.08579 26.25 6.75 26.5858 6.75 27V29.25C6.75 29.6642 7.08579 30 7.5 30H10.5C10.9142 30 11.25 29.6642 11.25 29.25V27C11.25 26.5858 10.9142 26.25 10.5 26.25Z" fill="#EBEBEB"/>
<path id="Vector_7" d="M19.5 33H16.5C16.0858 33 15.75 33.3358 15.75 33.75V36C15.75 36.4142 16.0858 36.75 16.5 36.75H19.5C19.9142 36.75 20.25 36.4142 20.25 36V33.75C20.25 33.3358 19.9142 33 19.5 33Z" fill="#EBEBEB"/>
<path id="Vector_8" d="M28.5 19.5H25.5C25.0858 19.5 24.75 19.8358 24.75 20.25V22.5C24.75 22.9142 25.0858 23.25 25.5 23.25H28.5C28.9142 23.25 29.25 22.9142 29.25 22.5V20.25C29.25 19.8358 28.9142 19.5 28.5 19.5Z" fill="#EBEBEB"/>
<path id="Vector_9" d="M28.5 26.25H25.5C25.0858 26.25 24.75 26.5858 24.75 27V29.25C24.75 29.6642 25.0858 30 25.5 30H28.5C28.9142 30 29.25 29.6642 29.25 29.25V27C29.25 26.5858 28.9142 26.25 28.5 26.25Z" fill="#EBEBEB"/>
<path id="Vector_10" d="M10.5 33H7.5C7.08579 33 6.75 33.3358 6.75 33.75V36C6.75 36.4142 7.08579 36.75 7.5 36.75H10.5C10.9142 36.75 11.25 36.4142 11.25 36V33.75C11.25 33.3358 10.9142 33 10.5 33Z" fill="#EBEBEB"/>
<path id="Vector_11" d="M35.25 44.25C40.2206 44.25 44.25 40.2206 44.25 35.25C44.25 30.2794 40.2206 26.25 35.25 26.25C30.2794 26.25 26.25 30.2794 26.25 35.25C26.25 40.2206 30.2794 44.25 35.25 44.25Z" fill="#EBEBEB"/>
<g id="Group">
<path id="Vector_12" d="M41.25 4.5H37.5V3C37.5 2.20435 37.1839 1.44129 36.6213 0.87868C36.0587 0.316071 35.2956 0 34.5 0C33.7044 0 32.9413 0.316071 32.3787 0.87868C31.8161 1.44129 31.5 2.20435 31.5 3V4.5H25.5V3C25.5 2.20435 25.1839 1.44129 24.6213 0.87868C24.0587 0.316071 23.2956 0 22.5 0C21.7044 0 20.9413 0.316071 20.3787 0.87868C19.8161 1.44129 19.5 2.20435 19.5 3V4.5H13.5V3C13.5 2.20435 13.1839 1.44129 12.6213 0.87868C12.0587 0.316071 11.2956 0 10.5 0C9.70435 0 8.94129 0.316071 8.37868 0.87868C7.81607 1.44129 7.5 2.20435 7.5 3V4.5H3.75C2.75544 4.5 1.80161 4.89509 1.09835 5.59835C0.395088 6.30161 0 7.25544 0 8.25V38.25C0 39.2446 0.395088 40.1984 1.09835 40.9017C1.80161 41.6049 2.75544 42 3.75 42H24.75C24.9489 42 25.1397 41.921 25.2803 41.7803C25.421 41.6397 25.5 41.4489 25.5 41.25C25.5 41.0511 25.421 40.8603 25.2803 40.7197C25.1397 40.579 24.9489 40.5 24.75 40.5H3.75C3.15381 40.4982 2.58255 40.2606 2.16098 39.839C1.73941 39.4175 1.50178 38.8462 1.5 38.25V15H43.5V27.75C43.5 27.9489 43.579 28.1397 43.7197 28.2803C43.8603 28.421 44.0511 28.5 44.25 28.5C44.4489 28.5 44.6397 28.421 44.7803 28.2803C44.921 28.1397 45 27.9489 45 27.75V8.25C45 7.25544 44.6049 6.30161 43.9017 5.59835C43.1984 4.89509 42.2446 4.5 41.25 4.5ZM33 3C33 2.60218 33.158 2.22064 33.4393 1.93934C33.7206 1.65804 34.1022 1.5 34.5 1.5C34.8978 1.5 35.2794 1.65804 35.5607 1.93934C35.842 2.22064 36 2.60218 36 3V7.5C36 7.89782 35.842 8.27936 35.5607 8.56066C35.2794 8.84196 34.8978 9 34.5 9C34.1022 9 33.7206 8.84196 33.4393 8.56066C33.158 8.27936 33 7.89782 33 7.5V3ZM21 3C21 2.60218 21.158 2.22064 21.4393 1.93934C21.7206 1.65804 22.1022 1.5 22.5 1.5C22.8978 1.5 23.2794 1.65804 23.5607 1.93934C23.842 2.22064 24 2.60218 24 3V7.5C24 7.89782 23.842 8.27936 23.5607 8.56066C23.2794 8.84196 22.8978 9 22.5 9C22.1022 9 21.7206 8.84196 21.4393 8.56066C21.158 8.27936 21 7.89782 21 7.5V3ZM9 3C9 2.60218 9.15804 2.22064 9.43934 1.93934C9.72064 1.65804 10.1022 1.5 10.5 1.5C10.8978 1.5 11.2794 1.65804 11.5607 1.93934C11.842 2.22064 12 2.60218 12 3V7.5C12 7.89782 11.842 8.27936 11.5607 8.56066C11.2794 8.84196 10.8978 9 10.5 9C10.1022 9 9.72064 8.84196 9.43934 8.56066C9.15804 8.27936 9 7.89782 9 7.5V3ZM43.5 13.5H1.5V8.25C1.50178 7.65381 1.73941 7.08255 2.16098 6.66098C2.58255 6.2394 3.15381 6.00178 3.75 6H7.5V7.5C7.5 8.29565 7.81607 9.05871 8.37868 9.62132C8.94129 10.1839 9.70435 10.5 10.5 10.5C11.2956 10.5 12.0587 10.1839 12.6213 9.62132C13.1839 9.05871 13.5 8.29565 13.5 7.5V6H19.5V7.5C19.5 8.29565 19.8161 9.05871 20.3787 9.62132C20.9413 10.1839 21.7044 10.5 22.5 10.5C23.2956 10.5 24.0587 10.1839 24.6213 9.62132C25.1839 9.05871 25.5 8.29565 25.5 7.5V6H31.5V7.5C31.5 8.29565 31.8161 9.05871 32.3787 9.62132C32.9413 10.1839 33.7044 10.5 34.5 10.5C35.2956 10.5 36.0587 10.1839 36.6213 9.62132C37.1839 9.05871 37.5 8.29565 37.5 7.5V6H41.25C41.8462 6.00178 42.4175 6.2394 42.839 6.66098C43.2606 7.08255 43.4982 7.65381 43.5 8.25V13.5Z" fill="black"/>
<path id="Vector_13" d="M21 20.25C21 19.8522 20.842 19.4706 20.5607 19.1893C20.2794 18.908 19.8978 18.75 19.5 18.75H16.5C16.1022 18.75 15.7206 18.908 15.4393 19.1893C15.158 19.4706 15 19.8522 15 20.25V22.5C15 22.8978 15.158 23.2794 15.4393 23.5607C15.7206 23.842 16.1022 24 16.5 24H19.5C19.8978 24 20.2794 23.842 20.5607 23.5607C20.842 23.2794 21 22.8978 21 22.5V20.25ZM16.5 22.5V20.25H19.5V22.5H16.5Z" fill="black"/>
<path id="Vector_14" d="M12 20.25C12 19.8522 11.842 19.4706 11.5607 19.1893C11.2794 18.908 10.8978 18.75 10.5 18.75H7.5C7.10218 18.75 6.72064 18.908 6.43934 19.1893C6.15804 19.4706 6 19.8522 6 20.25V22.5C6 22.8978 6.15804 23.2794 6.43934 23.5607C6.72064 23.842 7.10218 24 7.5 24H10.5C10.8978 24 11.2794 23.842 11.5607 23.5607C11.842 23.2794 12 22.8978 12 22.5V20.25ZM7.5 22.5V20.25H10.5V22.5H7.5Z" fill="black"/>
<path id="Vector_15" d="M37.5 24C37.8978 24 38.2794 23.842 38.5607 23.5607C38.842 23.2794 39 22.8978 39 22.5V20.25C39 19.8522 38.842 19.4706 38.5607 19.1893C38.2794 18.908 37.8978 18.75 37.5 18.75H34.5C34.1022 18.75 33.7206 18.908 33.4393 19.1893C33.158 19.4706 33 19.8522 33 20.25V22.5C33 22.8978 33.158 23.2794 33.4393 23.5607C33.7206 23.842 34.1022 24 34.5 24H37.5ZM34.5 20.25H37.5V22.5H34.5V20.25Z" fill="black"/>
<path id="Vector_16" d="M21 27C21 26.6022 20.842 26.2206 20.5607 25.9393C20.2794 25.658 19.8978 25.5 19.5 25.5H16.5C16.1022 25.5 15.7206 25.658 15.4393 25.9393C15.158 26.2206 15 26.6022 15 27V29.25C15 29.6478 15.158 30.0294 15.4393 30.3107C15.7206 30.592 16.1022 30.75 16.5 30.75H19.5C19.8978 30.75 20.2794 30.592 20.5607 30.3107C20.842 30.0294 21 29.6478 21 29.25V27ZM16.5 29.25V27H19.5V29.25H16.5Z" fill="black"/>
<path id="Vector_17" d="M12 27C12 26.6022 11.842 26.2206 11.5607 25.9393C11.2794 25.658 10.8978 25.5 10.5 25.5H7.5C7.10218 25.5 6.72064 25.658 6.43934 25.9393C6.15804 26.2206 6 26.6022 6 27V29.25C6 29.6478 6.15804 30.0294 6.43934 30.3107C6.72064 30.592 7.10218 30.75 7.5 30.75H10.5C10.8978 30.75 11.2794 30.592 11.5607 30.3107C11.842 30.0294 12 29.6478 12 29.25V27ZM7.5 29.25V27H10.5V29.25H7.5Z" fill="black"/>
<path id="Vector_18" d="M19.5 32.25H16.5C16.1022 32.25 15.7206 32.408 15.4393 32.6893C15.158 32.9706 15 33.3522 15 33.75V36C15 36.3978 15.158 36.7794 15.4393 37.0607C15.7206 37.342 16.1022 37.5 16.5 37.5H19.5C19.8978 37.5 20.2794 37.342 20.5607 37.0607C20.842 36.7794 21 36.3978 21 36V33.75C21 33.3522 20.842 32.9706 20.5607 32.6893C20.2794 32.408 19.8978 32.25 19.5 32.25ZM16.5 36V33.75H19.5V36H16.5Z" fill="black"/>
<path id="Vector_19" d="M25.5 24H28.5C28.8978 24 29.2794 23.842 29.5607 23.5607C29.842 23.2794 30 22.8978 30 22.5V20.25C30 19.8522 29.842 19.4706 29.5607 19.1893C29.2794 18.908 28.8978 18.75 28.5 18.75H25.5C25.1022 18.75 24.7206 18.908 24.4393 19.1893C24.158 19.4706 24 19.8522 24 20.25V22.5C24 22.8978 24.158 23.2794 24.4393 23.5607C24.7206 23.842 25.1022 24 25.5 24ZM25.5 20.25H28.5V22.5H25.5V20.25Z" fill="black"/>
<path id="Vector_20" d="M24 29.25C24 29.6478 24.158 30.0294 24.4393 30.3107C24.7206 30.592 25.1022 30.75 25.5 30.75C25.6989 30.75 25.8897 30.671 26.0303 30.5303C26.171 30.3897 26.25 30.1989 26.25 30C26.25 29.8011 26.171 29.6103 26.0303 29.4697C25.8897 29.329 25.6989 29.25 25.5 29.25V27H28.5C28.6989 27 28.8897 26.921 29.0303 26.7803C29.171 26.6397 29.25 26.4489 29.25 26.25C29.25 26.0511 29.171 25.8603 29.0303 25.7197C28.8897 25.579 28.6989 25.5 28.5 25.5H25.5C25.1022 25.5 24.7206 25.658 24.4393 25.9393C24.158 26.2206 24 26.6022 24 27V29.25Z" fill="black"/>
<path id="Vector_21" d="M10.5 32.25H7.5C7.10218 32.25 6.72064 32.408 6.43934 32.6893C6.15804 32.9706 6 33.3522 6 33.75V36C6 36.3978 6.15804 36.7794 6.43934 37.0607C6.72064 37.342 7.10218 37.5 7.5 37.5H10.5C10.8978 37.5 11.2794 37.342 11.5607 37.0607C11.842 36.7794 12 36.3978 12 36V33.75C12 33.3522 11.842 32.9706 11.5607 32.6893C11.2794 32.408 10.8978 32.25 10.5 32.25ZM7.5 36V33.75H10.5V36H7.5Z" fill="black"/>
<path id="Vector_22" d="M35.25 25.5C33.3216 25.5 31.4366 26.0718 29.8332 27.1432C28.2298 28.2145 26.9801 29.7373 26.2422 31.5188C25.5042 33.3004 25.3111 35.2608 25.6873 37.1521C26.0636 39.0434 26.9922 40.7807 28.3557 42.1443C29.7193 43.5079 31.4566 44.4365 33.3479 44.8127C35.2392 45.1889 37.1996 44.9958 38.9812 44.2578C40.7627 43.5199 42.2855 42.2702 43.3568 40.6668C44.4282 39.0634 45 37.1784 45 35.25C44.997 32.6651 43.9688 30.1868 42.141 28.359C40.3132 26.5312 37.835 25.503 35.25 25.5ZM35.25 43.5C33.6183 43.5 32.0233 43.0161 30.6666 42.1096C29.3098 41.2031 28.2524 39.9146 27.628 38.4071C27.0036 36.8996 26.8402 35.2408 27.1585 33.6405C27.4769 32.0402 28.2626 30.5702 29.4164 29.4164C30.5702 28.2626 32.0402 27.4768 33.6405 27.1585C35.2409 26.8402 36.8997 27.0036 38.4071 27.628C39.9146 28.2524 41.2031 29.3098 42.1096 30.6665C43.0161 32.0233 43.5 33.6183 43.5 35.25C43.4974 37.4372 42.6274 39.5342 41.0808 41.0808C39.5342 42.6274 37.4372 43.4974 35.25 43.5Z" fill="black"/>
<path id="Vector_23" d="M39.5835 32.106L33.75 37.9395L31.0987 35.2875C30.9573 35.1509 30.7678 35.0753 30.5712 35.077C30.3745 35.0787 30.1864 35.1576 30.0474 35.2967C29.9083 35.4357 29.8294 35.6238 29.8277 35.8205C29.826 36.0171 29.9016 36.2066 30.0382 36.348L33.2197 39.5303C33.3604 39.6709 33.5511 39.7499 33.75 39.7499C33.9489 39.7499 34.1396 39.6709 34.2802 39.5303L40.644 33.1665C40.7806 33.0251 40.8562 32.8356 40.8545 32.639C40.8528 32.4423 40.7739 32.2542 40.6348 32.1152C40.4958 31.9761 40.3077 31.8972 40.111 31.8955C39.9144 31.8938 39.7249 31.9694 39.5835 32.106Z" fill="black"/>
</g>
</g>
</svg>
