<svg width="19" height="19" viewBox="0 0 19 19" fill="none" xmlns="http://www.w3.org/2000/svg">
<g id="uil:calender">
<path id="Vector" d="M14.4929 3.39787H12.9674V2.63509C12.9674 2.43279 12.887 2.23878 12.7439 2.09573C12.6009 1.95268 12.4069 1.87231 12.2046 1.87231C12.0023 1.87231 11.8083 1.95268 11.6652 2.09573C11.5222 2.23878 11.4418 2.43279 11.4418 2.63509V3.39787H6.86512V2.63509C6.86512 2.43279 6.78476 2.23878 6.64171 2.09573C6.49866 1.95268 6.30465 1.87231 6.10234 1.87231C5.90004 1.87231 5.70603 1.95268 5.56298 2.09573C5.41993 2.23878 5.33957 2.43279 5.33957 2.63509V3.39787H3.81401C3.2071 3.39787 2.62506 3.63896 2.19591 4.06811C1.76676 4.49726 1.52567 5.0793 1.52567 5.68621V14.8395C1.52567 15.4465 1.76676 16.0285 2.19591 16.4576C2.62506 16.8868 3.2071 17.1279 3.81401 17.1279H14.4929C15.0998 17.1279 15.6819 16.8868 16.111 16.4576C16.5402 16.0285 16.7812 15.4465 16.7812 14.8395V5.68621C16.7812 5.0793 16.5402 4.49726 16.111 4.06811C15.6819 3.63896 15.0998 3.39787 14.4929 3.39787ZM15.2557 14.8395C15.2557 15.0419 15.1753 15.2359 15.0323 15.3789C14.8892 15.522 14.6952 15.6023 14.4929 15.6023H3.81401C3.61171 15.6023 3.41769 15.522 3.27464 15.3789C3.13159 15.2359 3.05123 15.0419 3.05123 14.8395V9.5001H15.2557V14.8395ZM15.2557 7.97454H3.05123V5.68621C3.05123 5.48391 3.13159 5.28989 3.27464 5.14684C3.41769 5.00379 3.61171 4.92343 3.81401 4.92343H5.33957V5.68621C5.33957 5.88851 5.41993 6.08252 5.56298 6.22557C5.70603 6.36862 5.90004 6.44899 6.10234 6.44899C6.30465 6.44899 6.49866 6.36862 6.64171 6.22557C6.78476 6.08252 6.86512 5.88851 6.86512 5.68621V4.92343H11.4418V5.68621C11.4418 5.88851 11.5222 6.08252 11.6652 6.22557C11.8083 6.36862 12.0023 6.44899 12.2046 6.44899C12.4069 6.44899 12.6009 6.36862 12.7439 6.22557C12.887 6.08252 12.9674 5.88851 12.9674 5.68621V4.92343H14.4929C14.6952 4.92343 14.8892 5.00379 15.0323 5.14684C15.1753 5.28989 15.2557 5.48391 15.2557 5.68621V7.97454Z" fill="#30353C"/>
</g>
</svg>
