<svg width="68" height="68" viewBox="0 0 68 68" fill="none" xmlns="http://www.w3.org/2000/svg">
<g filter="url(#filter0_dd_1052_652)">
<rect x="4" width="60" height="60" rx="7" fill="#E7E61D"/>
<g clip-path="url(#clip0_1052_652)">
<path d="M39.3475 42.5761L36.04 42.0948L34.5607 39.098C34.3507 38.6705 33.65 38.6705 33.44 39.098L31.9607 42.0948L28.6532 42.5761C28.4175 42.6105 28.2225 42.7748 28.1482 43.0017C28.075 43.2273 28.1357 43.4761 28.3063 43.6417L30.7 45.9748L30.1357 49.2692C30.0957 49.5036 30.1919 49.7405 30.3838 49.8805C30.5775 50.0211 30.8325 50.0392 31.0425 49.928L34 48.373L36.9575 49.928C37.0488 49.9761 37.1494 49.9998 37.2488 49.9998C37.3782 49.9998 37.5069 49.9598 37.6163 49.8805C37.8088 49.7405 37.905 49.5036 37.8644 49.2692L37.3 45.9748L39.6938 43.6417C39.8638 43.4755 39.925 43.2273 39.8519 43.0017C39.7782 42.7755 39.5832 42.6105 39.3475 42.5761ZM36.1925 45.3092C36.0457 45.4523 35.9782 45.6598 36.0132 45.8623L36.4188 48.2323L34.2913 47.1136C34.2 47.0655 34.1 47.0417 34 47.0417C33.9 47.0417 33.8007 47.0655 33.7088 47.1136L31.5813 48.2323L31.9869 45.8623C32.0219 45.6598 31.9544 45.453 31.8075 45.3092L30.0857 43.6305L32.465 43.2842C32.6688 43.2548 32.8444 43.1267 32.9357 42.9423L34 40.7867L35.0644 42.9423C35.1557 43.1267 35.3313 43.2548 35.535 43.2842L37.9144 43.6305L36.1925 45.3092Z" fill="black"/>
<path d="M26.4796 42.5759L23.1721 42.0946L21.6933 39.0978C21.5883 38.884 21.3708 38.749 21.1333 38.749C20.8958 38.749 20.6777 38.884 20.5733 39.0978L19.094 42.0946L15.7865 42.5759C15.5508 42.6103 15.3558 42.7746 15.2815 43.0015C15.2083 43.2271 15.269 43.4759 15.4396 43.6415L17.8333 45.974L17.2683 49.2684C17.2283 49.5028 17.3246 49.7396 17.5165 49.8796C17.7102 50.0203 17.9646 50.0384 18.1752 49.9271L21.1333 48.3721L24.0908 49.9271C24.1821 49.9753 24.2827 49.999 24.3821 49.999C24.5115 49.999 24.6402 49.959 24.7496 49.8796C24.9421 49.7396 25.0383 49.5028 24.9977 49.2684L24.4327 45.974L26.8265 43.6409C26.9965 43.4746 27.0577 43.2265 26.9846 43.0009C26.9108 42.7746 26.7152 42.6096 26.4796 42.5753V42.5759ZM23.3246 45.309C23.1777 45.4521 23.1102 45.6596 23.1452 45.8621L23.5515 48.2321L21.424 47.1134C21.2408 47.0171 21.0246 47.0171 20.8415 47.1134L18.7133 48.2321L19.1196 45.8621C19.1546 45.6596 19.0871 45.4528 18.9402 45.309L17.2183 43.6303L19.5977 43.284C19.8015 43.2546 19.9771 43.1265 20.0683 42.9421L21.1327 40.7865L22.1965 42.9421C22.2877 43.1265 22.4633 43.2546 22.6671 43.284L25.0465 43.6303L23.3246 45.309Z" fill="black"/>
<path d="M52.7196 43.0017C52.6458 42.7755 52.4502 42.6105 52.2146 42.5761L48.9071 42.0948L47.4277 39.098C47.2177 38.6705 46.5171 38.6705 46.3071 39.098L44.8283 42.0948L41.5208 42.5761C41.2852 42.6105 41.0902 42.7748 41.0158 43.0017C40.9427 43.2273 41.0033 43.4761 41.174 43.6417L43.5677 45.9748L43.0027 49.2692C42.9627 49.5036 43.059 49.7405 43.2508 49.8805C43.3602 49.9598 43.489 49.9998 43.6183 49.9998C43.7177 49.9998 43.8177 49.9761 43.9096 49.928L46.8671 48.373L49.8252 49.928C50.0358 50.0392 50.2915 50.0205 50.484 49.8805C50.6765 49.7405 50.7727 49.5036 50.7321 49.2692L50.1671 45.9748L52.5608 43.6423C52.7308 43.4761 52.7921 43.228 52.719 43.0023L52.7196 43.0017ZM49.0602 45.3092C48.9133 45.4523 48.8458 45.6598 48.8808 45.8623L49.2871 48.2323L47.159 47.1136C47.0677 47.0655 46.9677 47.0417 46.8677 47.0417C46.7677 47.0417 46.6683 47.0655 46.5765 47.1136L44.449 48.2323L44.8552 45.8623C44.8902 45.6598 44.8227 45.453 44.6758 45.3092L42.954 43.6305L45.3333 43.2842C45.5371 43.2548 45.7127 43.1267 45.804 42.9423L46.8677 40.7867L47.9321 42.9423C48.0233 43.1267 48.199 43.2548 48.4027 43.2842L50.7821 43.6305L49.0602 45.3092Z" fill="black"/>
<path d="M31.5 27.5C31.5 28.8788 32.6212 30 34 30C35.3788 30 36.5 28.8788 36.5 27.5C36.5 26.1212 35.3788 25 34 25C32.6212 25 31.5 26.1212 31.5 27.5ZM35.25 27.5C35.25 28.1894 34.6894 28.75 34 28.75C33.3106 28.75 32.75 28.1894 32.75 27.5C32.75 26.8106 33.3106 26.25 34 26.25C34.6894 26.25 35.25 26.8106 35.25 27.5Z" fill="black"/>
<path d="M39 18.75C39 15.9931 36.7569 13.75 34 13.75C31.2431 13.75 29 15.9931 29 18.75C29 21.5069 31.2431 23.75 34 23.75C36.7569 23.75 39 21.5069 39 18.75ZM34 15C36.0681 15 37.75 16.6819 37.75 18.75C37.75 18.8063 37.7437 18.8606 37.7419 18.9156C35.3825 17.8969 32.6181 17.8969 30.2587 18.9156C30.2562 18.86 30.2506 18.8056 30.2506 18.75C30.2506 16.6819 31.9319 15 34 15ZM34 22.5C32.4369 22.5 31.0956 21.5381 30.5331 20.1756C32.7012 19.1544 35.2988 19.1544 37.4669 20.1756C36.9044 21.5381 35.5631 22.5 34 22.5Z" fill="black"/>
<path d="M41.4938 32.3338L41.5056 32.3369C41.9044 32.4394 42.32 32.5 42.75 32.5C45.5069 32.5 47.75 30.2569 47.75 27.5C47.75 24.7431 45.5069 22.5 42.75 22.5C39.9931 22.5 37.75 24.7431 37.75 27.5C37.75 29.8225 39.3438 31.7744 41.4938 32.3338ZM46.5 27.5C46.5 29.5681 44.8181 31.25 42.75 31.25C42.695 31.25 42.6412 31.2444 42.5862 31.2419C43.1012 30.0637 43.375 28.7875 43.375 27.5C43.375 26.2125 43.1012 24.9363 42.5862 23.7581C42.6406 23.7556 42.6944 23.75 42.75 23.75C44.8181 23.75 46.5 25.4319 46.5 27.5ZM41.3256 24.0325C41.84 25.1156 42.125 26.3 42.125 27.5C42.125 28.7 41.84 29.8844 41.3256 30.9675C39.9625 30.4056 39 29.0638 39 27.5C39 25.9362 39.9625 24.595 41.3256 24.0325Z" fill="black"/>
<path d="M25.25 22.5C22.4931 22.5 20.25 24.7431 20.25 27.5C20.25 30.2569 22.4931 32.5 25.25 32.5C25.68 32.5 26.0956 32.4394 26.4944 32.3369L26.5063 32.3338C28.6562 31.7744 30.25 29.8225 30.25 27.5C30.25 24.7431 28.0069 22.5 25.25 22.5ZM21.5 27.5C21.5 25.4319 23.1819 23.75 25.25 23.75C25.305 23.75 25.3587 23.7556 25.4137 23.7581C24.8987 24.9363 24.625 26.2125 24.625 27.5C24.625 28.7875 24.8987 30.0637 25.4137 31.2419C25.3594 31.2444 25.3056 31.25 25.25 31.25C23.1819 31.25 21.5 29.5681 21.5 27.5ZM26.6744 30.9675C26.16 29.8844 25.875 28.7 25.875 27.5C25.875 26.3 26.16 25.1156 26.6744 24.0325C28.0375 24.5944 29 25.9362 29 27.5C29 29.0638 28.0375 30.405 26.6744 30.9675Z" fill="black"/>
<path d="M36.46 39.0729C36.2 39.2997 36.1737 39.6947 36.4006 39.9547C36.5237 40.096 36.6975 40.1685 36.8713 40.1685C37.0169 40.1685 37.1637 40.1179 37.2825 40.0141C38.3737 39.0616 39 37.6891 39 36.251C39 33.4941 36.7569 31.251 34 31.251C31.2431 31.251 29 33.4941 29 36.251C29 37.6897 29.6262 39.0616 30.7175 40.0141C30.9787 40.2422 31.3731 40.2141 31.5994 39.9547C31.8263 39.6947 31.8 39.2997 31.54 39.0729C30.72 38.3566 30.25 37.3285 30.25 36.2504C30.25 36.1954 30.2556 36.1416 30.2581 36.0866C31.4363 36.6016 32.7125 36.8754 34 36.8754C35.2875 36.8754 36.5637 36.6016 37.7419 36.0866C37.7444 36.141 37.75 36.1947 37.75 36.2504C37.75 37.3285 37.28 38.3566 36.46 39.0729ZM30.5338 34.8247C31.0963 33.4622 32.4375 32.5004 34.0006 32.5004C35.5637 32.5004 36.905 33.4622 37.4675 34.8247C35.2994 35.846 32.7019 35.846 30.5338 34.8247Z" fill="black"/>
<path d="M20.0856 37.0544C20.3775 36.8694 20.4631 36.4831 20.2781 36.1919C18.6244 33.5894 17.75 30.5837 17.75 27.5C17.75 18.5394 25.0394 11.25 34 11.25C39.4331 11.25 44.4838 13.95 47.4838 18.4269L48.8394 20.88C49.7756 22.9744 50.25 25.2013 50.25 27.5C50.25 30.5844 49.3763 33.5894 47.7219 36.1919C47.5363 36.4831 47.6225 36.8694 47.9144 37.0544C48.0181 37.12 48.1344 37.1519 48.2488 37.1519C48.4556 37.1519 48.6575 37.0494 48.7769 36.8619C50.5588 34.0594 51.5 30.8213 51.5 27.5C51.5 25.0244 50.9894 22.625 49.9575 20.3231L48.5506 17.7775C46.5487 14.7875 43.7244 12.5419 40.4888 11.2506H48.9994V15.0006C48.9994 15.3463 49.2788 15.6256 49.6244 15.6256C49.97 15.6256 50.2494 15.3463 50.2494 15.0006V10.625C50.2494 10.2794 49.97 10 49.6244 10H33.9994C24.3506 10 16.5 17.8506 16.5 27.5C16.5 30.8213 17.4419 34.0594 19.2231 36.8619C19.4081 37.1531 19.7944 37.2394 20.0856 37.0544Z" fill="black"/>
</g>
</g>
<defs>
<filter id="filter0_dd_1052_652" x="0" y="0" width="68" height="68" filterUnits="userSpaceOnUse" color-interpolation-filters="sRGB">
<feFlood flood-opacity="0" result="BackgroundImageFix"/>
<feColorMatrix in="SourceAlpha" type="matrix" values="0 0 0 0 0 0 0 0 0 0 0 0 0 0 0 0 0 0 127 0" result="hardAlpha"/>
<feOffset dy="4"/>
<feGaussianBlur stdDeviation="2"/>
<feComposite in2="hardAlpha" operator="out"/>
<feColorMatrix type="matrix" values="0 0 0 0 0 0 0 0 0 0 0 0 0 0 0 0 0 0 0.25 0"/>
<feBlend mode="normal" in2="BackgroundImageFix" result="effect1_dropShadow_1052_652"/>
<feColorMatrix in="SourceAlpha" type="matrix" values="0 0 0 0 0 0 0 0 0 0 0 0 0 0 0 0 0 0 127 0" result="hardAlpha"/>
<feOffset dy="4"/>
<feGaussianBlur stdDeviation="2"/>
<feComposite in2="hardAlpha" operator="out"/>
<feColorMatrix type="matrix" values="0 0 0 0 0 0 0 0 0 0 0 0 0 0 0 0 0 0 0.25 0"/>
<feBlend mode="normal" in2="effect1_dropShadow_1052_652" result="effect2_dropShadow_1052_652"/>
<feBlend mode="normal" in="SourceGraphic" in2="effect2_dropShadow_1052_652" result="shape"/>
</filter>
<clipPath id="clip0_1052_652">
<rect width="40" height="40" fill="white" transform="translate(14 10)"/>
</clipPath>
</defs>
</svg>
