<svg width="35" height="35" viewBox="0 0 35 35" fill="none" xmlns="http://www.w3.org/2000/svg">
<g id="nav bar icons" clip-path="url(#clip0_126_270)">
<path id="Shape" d="M32.2391 4.34648C30.3984 2.39108 27.8554 1.24832 25.1711 1.17029C22.4867 1.09226 19.8817 2.08538 17.9305 3.93056L17.4878 4.34881C13.6532 0.281788 7.24765 0.0933558 3.18063 3.92794C-0.886396 7.76252 -1.07483 14.168 2.75975 18.2351L3.75667 19.2915C3.33573 20.2661 3.47025 21.3916 4.10902 22.2396C4.74779 23.0875 5.79251 23.5274 6.84542 23.3917C6.66716 24.3196 6.94577 25.2766 7.59421 25.9637C8.24266 26.6509 9.18189 26.9845 10.1185 26.8602C9.94023 27.7879 10.2188 28.7448 10.8671 29.4318C11.5155 30.1189 12.4545 30.4524 13.391 30.3281C13.159 31.5881 13.7629 32.8545 14.888 33.4672C16.013 34.08 17.4045 33.9004 18.3371 33.022C21.6662 29.879 21.5618 30.0359 21.8762 29.5062C22.8499 29.9854 24.0082 29.8903 24.8908 29.2589C25.7734 28.6275 26.2373 27.562 26.0983 26.4857C27.026 26.6596 27.9808 26.3788 28.6667 25.7304C29.3526 25.0821 29.6866 24.1445 29.5651 23.2086C30.8324 23.4414 32.1049 22.8284 32.7128 21.6922C33.3206 20.556 33.1244 19.1572 32.2274 18.2321C35.9211 14.3423 35.9262 8.24253 32.2391 4.34648ZM5.17184 21.7001C4.4903 20.9759 4.52318 19.8369 5.24534 19.1532L8.27867 16.2891C9.00402 15.6191 10.1335 15.6579 10.8111 16.3762C11.4887 17.0944 11.4618 18.2242 10.7508 18.9094L7.7175 21.7736C6.99388 22.4553 5.85492 22.4224 5.17184 21.7001ZM8.44492 25.1686C7.76274 24.4447 7.79563 23.3051 8.51842 22.6217L11.5518 19.7576C12.2752 19.0751 13.4149 19.1082 14.0974 19.8316C14.7799 20.5551 14.7468 21.6948 14.0233 22.3773L10.99 25.2421C10.2655 25.9223 9.12727 25.8881 8.44492 25.1656V25.1686ZM11.7174 28.6365C11.0361 27.9124 11.0692 26.7735 11.7915 26.0902L14.8248 23.2261C15.5529 22.5869 16.6561 22.6383 17.3216 23.3424C17.9871 24.0465 17.9762 25.1509 17.297 25.8417L14.2637 28.7059C13.5405 29.389 12.4006 29.3566 11.7174 28.6336V28.6365ZM17.5362 32.1785C17.0682 32.6201 16.4002 32.7785 15.7837 32.594C15.1673 32.4096 14.6961 31.9102 14.5477 31.2841C14.3992 30.6581 14.596 30.0003 15.064 29.5587L18.0973 26.694C18.8227 26.024 19.9522 26.0629 20.6298 26.7811C21.3074 27.4993 21.2805 28.6291 20.5695 29.3143L17.5362 32.1785ZM31.3338 21.6102C30.987 21.9391 30.5236 22.1162 30.0459 22.1024C29.5683 22.0886 29.1158 21.885 28.7887 21.5367L21.0152 13.3001C20.794 13.0657 20.4247 13.055 20.1903 13.2761C19.956 13.4973 19.9453 13.8666 20.1664 14.101L27.9417 22.3371C28.3834 22.8049 28.5419 23.4729 28.3576 24.0894C28.1733 24.7059 27.6741 25.1772 27.048 25.3258C26.422 25.4744 25.7642 25.2777 25.3225 24.8098L17.5478 16.5726C17.4048 16.4209 17.1917 16.3572 16.9888 16.4053C16.786 16.4534 16.6242 16.606 16.5645 16.8057C16.5047 17.0054 16.556 17.2219 16.6991 17.3735L24.4714 25.6084C25.0852 26.2582 25.1288 27.26 24.5738 27.9607C24.0188 28.6613 23.0336 28.8483 22.2606 28.3996C22.3816 27.5663 22.1401 26.7211 21.5971 26.0775C21.0541 25.4339 20.2615 25.0536 19.4198 25.0326C18.7781 25.0157 19.0114 25.2584 19.0278 24.6167C19.051 23.8298 18.7605 23.066 18.2202 22.4934C17.6799 21.9209 16.9342 21.5866 16.1473 21.5641C15.5056 21.5437 15.736 21.7975 15.7553 21.1482C15.7782 20.3613 15.4875 19.5976 14.9471 19.0251C14.4068 18.4526 13.6611 18.1182 12.8742 18.0956C12.2284 18.0776 12.4629 18.3342 12.4822 17.6797C12.5137 16.4814 11.8219 15.3815 10.7281 14.891C9.63435 14.4004 8.35291 14.6152 7.47892 15.4356C3.30809 19.3726 4.74717 18.0157 4.43625 18.3091L3.60909 17.4341C0.217001 13.836 0.384017 8.16936 3.98213 4.77727C7.58024 1.38518 13.2469 1.5522 16.639 5.15031L11.8615 9.66181C11.4085 10.0962 11.1418 10.6895 11.1178 11.3167C11.0594 13.7125 14.623 15.221 16.8006 13.1601L21.1546 9.05106C21.267 8.94474 21.4171 8.88747 21.5718 8.89184C21.7265 8.89622 21.8732 8.96189 21.9794 9.0744C23.1239 10.2871 30.3094 17.902 31.4073 19.0646C31.7352 19.4118 31.9118 19.8752 31.898 20.3526C31.8842 20.8301 31.6812 21.2825 31.3338 21.6102ZM31.4335 17.3927L22.8276 8.27348C22.509 7.93597 22.0693 7.73886 21.6054 7.72551C21.1414 7.71217 20.6912 7.88368 20.3537 8.20231L15.9991 12.3125C15.5366 12.749 14.9193 12.9834 14.2837 12.9638C13.648 12.9442 13.0464 12.6723 12.6117 12.2081C12.3928 11.976 12.2753 11.6665 12.285 11.3477C12.2948 11.0289 12.431 10.727 12.6636 10.5088L18.7303 4.77873C22.2437 1.45262 27.7638 1.51848 31.1969 4.92747C34.63 8.33646 34.7348 13.8559 31.4335 17.3927Z" fill="white"/>
</g>
<defs>
<clipPath id="clip0_126_270">
<rect width="35" height="35" fill="white"/>
</clipPath>
</defs>
</svg>
