<svg width="654" height="665" viewBox="0 0 654 665" fill="none" xmlns="http://www.w3.org/2000/svg">
<g clip-path="url(#clip0_1024_1683)">
<g opacity="0.7">
<path d="M56.581 207.128C56.581 207.128 14.7281 315.23 73.5341 424.039C132.34 532.883 253.519 590.377 350.47 639.537C447.455 688.697 548.114 664.753 595.971 584.232C643.828 503.712 578.206 446.217 578.1 331.405C577.994 216.593 595.3 186.186 533.068 89.1728C470.836 -7.8402 318.294 -29.3123 202.943 42.6263C87.591 114.6 56.581 207.128 56.581 207.128Z" fill="white"/>
</g>
<path d="M16.2468 396.916C9.21832 364.496 12.2557 330.699 24.9352 300.045C42.2768 257.171 79.5383 226.729 121.285 208.929C181.963 183.078 241.511 182.619 290.816 132.011C306.038 116.401 318.788 98.5316 334.364 83.2398C380.173 38.2119 447.243 43.6152 497.325 79.355C601.799 153.942 639.378 301.704 633.55 423.827C630.902 478.673 604.73 529.704 563.336 565.656C469.671 646.989 310.594 633.286 203.013 590.836C122.733 559.193 35.1071 485.312 16.2821 396.916H16.2468Z" fill="#F4F4F4"/>
<path d="M95.8554 253.357C88.4384 253.357 81.4806 250.461 76.2181 245.234C70.9909 240.008 68.0947 233.015 68.0947 225.599C68.0947 218.182 70.9909 211.225 76.2181 205.963C81.4453 200.736 88.4384 197.84 95.8554 197.84C103.272 197.84 110.23 200.736 115.493 205.963C126.3 216.77 126.3 234.392 115.493 245.199C110.265 250.426 103.272 253.322 95.8554 253.322V253.357ZM95.8554 199.324C88.8269 199.324 82.2576 202.043 77.2776 207.022C72.333 211.967 69.5781 218.571 69.5781 225.599C69.5781 232.627 72.2977 239.195 77.2776 244.175C82.2223 249.119 88.8269 251.874 95.8554 251.874C102.884 251.874 109.453 249.154 114.433 244.175C124.676 233.933 124.676 217.264 114.433 207.058C109.488 202.114 102.884 199.359 95.8554 199.359V199.324Z" fill="#263238"/>
<path d="M588.801 251.203C587.071 251.203 585.552 250.638 584.563 249.472C582.903 247.565 583.15 244.634 585.234 241.597C588.095 237.359 593.605 234.428 601.092 233.05C603.459 232.626 606.249 232.379 609.18 232.415C612.147 227.258 614.09 221.502 614.584 215.887C615.149 209.353 613.913 200.206 604.942 193.567C598.867 189.082 590.885 187.034 582.479 186.892C580.289 190.636 577.499 194.591 574.073 198.723C564.82 209.848 555.778 216.981 547.196 219.983C542.074 221.714 537.871 220.725 535.611 217.264C532.962 213.203 533.986 207.058 538.048 202.679C547.443 192.472 565.208 185.515 581.596 185.444C585.729 178.134 587.459 171.565 586.823 165.597C586.329 160.97 584.104 157.015 580.36 154.084C575.239 150.128 567.539 148.327 560.264 149.387C559.84 149.457 559.487 149.175 559.416 148.751C559.345 148.327 559.628 147.974 560.052 147.903C567.716 146.773 575.875 148.716 581.278 152.918C585.34 156.097 587.777 160.405 588.307 165.455C588.978 171.53 587.318 178.169 583.291 185.48C591.733 185.692 599.679 187.846 605.825 192.366C615.361 199.429 616.633 209.106 616.067 216.028C615.573 221.608 613.701 227.294 610.84 232.45C620.588 232.944 631.502 236.617 634.822 246.541C634.963 246.929 634.751 247.353 634.363 247.495C633.974 247.636 633.55 247.424 633.409 247.035C630.23 237.571 619.458 234.216 609.993 233.933C605.86 240.82 599.962 246.682 593.322 250.037C591.768 250.814 590.214 251.203 588.801 251.203ZM608.262 233.933C605.754 233.933 603.388 234.18 601.339 234.534C596.395 235.452 589.79 237.535 586.435 242.444C584.775 244.881 584.492 247.141 585.658 248.483C587 250.002 589.861 250.073 592.616 248.695C598.761 245.587 604.271 240.255 608.227 233.933H608.262ZM580.749 186.928C565.067 187.175 548.149 193.92 539.178 203.703C535.117 208.117 534.94 213.485 536.882 216.452C538.754 219.312 542.322 220.054 546.701 218.571C555.001 215.675 563.831 208.682 572.908 197.77C576.051 193.955 578.665 190.353 580.749 186.892V186.928Z" fill="#263238"/>
<path d="M535.576 159.77C535.328 159.77 535.117 159.664 534.94 159.452C534.693 159.099 534.799 158.64 535.152 158.393C540.768 154.578 546.913 151.577 553.341 149.458C553.73 149.316 554.153 149.528 554.295 149.952C554.436 150.341 554.224 150.764 553.8 150.906C547.478 152.989 541.474 155.92 535.964 159.664C535.823 159.735 535.682 159.805 535.54 159.805L535.576 159.77Z" fill="#263238"/>
<path d="M524.203 168.599C523.991 168.599 523.815 168.528 523.638 168.352C523.355 168.034 523.391 167.575 523.673 167.292C525.475 165.632 527.417 164.043 529.642 162.348C529.96 162.101 530.454 162.171 530.702 162.489C530.949 162.807 530.878 163.301 530.56 163.549C528.371 165.208 526.463 166.798 524.698 168.422C524.556 168.563 524.38 168.634 524.203 168.634V168.599Z" fill="#263238"/>
<path d="M316.987 66.1472C316.987 66.1472 316.775 66.1472 316.705 66.0766L283.152 51.703C282.834 51.5617 282.657 51.2439 282.692 50.8907C282.728 50.5376 283.01 50.2904 283.364 50.255L342.134 44.6045C342.452 44.6045 342.735 44.7458 342.876 45.0283C343.017 45.3108 342.946 45.664 342.735 45.8759L337.931 50.8907C337.649 51.2086 337.154 51.2086 336.872 50.8907C336.589 50.6082 336.554 50.1138 336.872 49.8313L340.298 46.2643L286.472 51.4558L317.305 64.664C317.693 64.8405 317.87 65.2643 317.693 65.6528C317.587 65.9353 317.305 66.1119 316.987 66.1119V66.1472Z" fill="#263238"/>
<path d="M342.205 76.9538C342.205 76.9538 341.993 76.9538 341.922 76.8832L319.389 67.2419C319 67.0653 318.824 66.6415 319 66.2531C319.177 65.8646 319.601 65.688 319.989 65.8646L339.98 74.4111L328.748 59.1546C328.536 58.872 328.572 58.4482 328.819 58.201L334.964 51.8088C335.247 51.5263 335.741 51.491 336.024 51.8088C336.307 52.0914 336.342 52.5858 336.024 52.8683L330.338 58.8014L342.805 75.7531C343.017 76.0356 343.017 76.3888 342.805 76.6713C342.664 76.8479 342.452 76.9538 342.205 76.9538Z" fill="#263238"/>
<path d="M446.996 53.7864C446.572 53.7864 446.254 53.4333 446.254 53.0448V33.4091C446.254 32.9853 446.607 32.6675 446.996 32.6675C447.384 32.6675 447.738 33.0206 447.738 33.4091V53.0448C447.738 53.4686 447.384 53.7864 446.996 53.7864Z" fill="#263238"/>
<path d="M446.996 68.2308C446.572 68.2308 446.254 67.8776 446.254 67.4891V58.978C446.254 58.5542 446.607 58.2363 446.996 58.2363C447.384 58.2363 447.738 58.5895 447.738 58.978V67.4891C447.738 67.9129 447.384 68.2308 446.996 68.2308Z" fill="#263238"/>
<path d="M467.94 70.9501C467.94 70.9501 467.728 70.9501 467.622 70.8795C467.234 70.7029 467.092 70.2438 467.269 69.8906L481.397 40.2252C481.573 39.8367 482.032 39.6955 482.386 39.872C482.774 40.0486 482.915 40.5077 482.739 40.8609L468.611 70.5263C468.47 70.8088 468.223 70.9501 467.94 70.9501Z" fill="#263238"/>
<path d="M507.709 71.6919C507.497 71.6919 507.25 71.5859 507.109 71.4093C506.861 71.0915 506.897 70.5971 507.25 70.3499L513.749 65.2644C514.066 65.0172 514.561 65.0525 514.808 65.4056C515.055 65.7235 515.02 66.2179 514.667 66.4651L508.168 71.5506C508.168 71.5506 507.85 71.7272 507.709 71.7272V71.6919Z" fill="#263238"/>
<path d="M485.388 88.8904C485.176 88.8904 484.928 88.7845 484.787 88.6079C484.54 88.2901 484.611 87.7956 484.928 87.5484L501.846 74.5168C502.164 74.2696 502.658 74.3402 502.906 74.6581C503.153 74.9759 503.082 75.4704 502.764 75.7176L485.847 88.7492C485.847 88.7492 485.564 88.8904 485.388 88.8904Z" fill="#263238"/>
<path d="M5.50975 400.448C5.50975 400.448 5.26252 400.448 5.15656 400.377C4.94465 400.272 4.76805 400.06 4.73273 399.777L0 358.74C0 358.493 0.0706378 358.246 0.247232 358.069C0.423827 357.892 0.671059 357.857 0.918291 357.928L30.9747 365.768C31.3632 365.874 31.6104 366.298 31.5045 366.686C31.3985 367.075 30.9747 367.322 30.5862 367.216L1.58935 359.658L6.07485 398.47L51.0005 372.548L33.2351 367.922C32.8466 367.816 32.5993 367.392 32.7053 367.004C32.8113 366.615 33.2351 366.368 33.6236 366.474L53.1549 371.56C53.4375 371.63 53.6847 371.877 53.72 372.195C53.7554 372.513 53.6141 372.796 53.3669 372.937L5.86294 400.342C5.86294 400.342 5.6157 400.448 5.47443 400.448H5.50975Z" fill="#263238"/>
<path d="M653.258 363.72C653.258 363.72 653.082 363.72 653.011 363.684L619.741 352.171C619.352 352.03 619.14 351.606 619.281 351.218C619.423 350.829 619.847 350.617 620.235 350.759L653.505 362.272C653.894 362.413 654.106 362.837 653.965 363.225C653.859 363.543 653.576 363.72 653.258 363.72Z" fill="#263238"/>
<path d="M612.712 521.865C608.58 521.865 604.448 520.205 601.446 516.885C601.163 516.567 601.198 516.108 601.481 515.825C601.763 515.543 602.258 515.578 602.54 515.861C607.662 521.476 616.385 521.865 622.001 516.744C627.617 511.623 628.005 502.9 622.884 497.285C622.425 496.79 621.931 496.331 621.436 495.907C621.118 495.66 621.083 495.166 621.33 494.848C621.577 494.53 622.072 494.495 622.39 494.742C622.955 495.201 623.485 495.695 623.979 496.26C629.665 502.476 629.206 512.153 622.99 517.839C620.059 520.523 616.385 521.829 612.712 521.829V521.865Z" fill="#263238"/>
<path d="M600.315 515.048C600.068 515.048 599.821 514.907 599.68 514.695C596.783 510.104 596.571 504.242 599.114 499.439C601.022 495.836 604.2 493.188 608.121 491.987C612.006 490.786 616.138 491.175 619.741 493.082C620.094 493.258 620.235 493.718 620.059 494.106C619.847 494.459 619.423 494.6 619.034 494.424C615.785 492.693 612.041 492.376 608.545 493.435C605.013 494.53 602.152 496.896 600.421 500.145C598.126 504.489 598.337 509.751 600.951 513.883C601.163 514.236 601.057 514.695 600.704 514.907C600.563 514.978 600.457 515.013 600.315 515.013V515.048Z" fill="#263238"/>
<path d="M40.6165 495.342C40.6165 495.342 40.4399 495.342 40.334 495.307C39.9455 495.166 39.7689 494.707 39.9101 494.353L52.8369 461.015C52.9781 460.627 53.4373 460.45 53.8258 460.591C54.2143 460.733 54.3909 461.192 54.2496 461.545L41.3229 494.883C41.2169 495.166 40.9344 495.378 40.6165 495.378V495.342Z" fill="#263238"/>
<path d="M55.8743 455.965C55.8743 455.965 55.6977 455.965 55.5918 455.93C55.2033 455.789 55.0267 455.329 55.168 454.941L57.0752 450.067C57.2164 449.679 57.6756 449.502 58.0641 449.644C58.4526 449.785 58.6292 450.244 58.4879 450.632L56.5807 455.506C56.4748 455.789 56.1922 456 55.8743 456V455.965Z" fill="#263238"/>
<path d="M193.901 281.257C193.901 281.257 193.653 281.257 193.512 281.151L157.84 260.526C157.487 260.314 157.346 259.855 157.558 259.502C157.769 259.149 158.229 259.008 158.582 259.22L194.254 279.844C194.607 280.056 194.748 280.515 194.536 280.868C194.395 281.116 194.148 281.257 193.901 281.257Z" fill="#263238"/>
<path d="M89.7808 155.885C89.5336 155.885 89.2864 155.779 89.1451 155.532C88.9332 155.179 89.0038 154.719 89.357 154.508L118.318 135.79C118.672 135.578 119.131 135.649 119.343 136.002C119.555 136.355 119.484 136.814 119.131 137.026L90.1693 155.744C90.1693 155.744 89.8868 155.85 89.7455 155.85L89.7808 155.885Z" fill="#263238"/>
<path d="M124.534 133.353C124.287 133.353 124.04 133.248 123.899 133C123.687 132.647 123.793 132.188 124.146 131.976L128.667 129.116C129.02 128.904 129.479 129.01 129.691 129.363C129.903 129.716 129.797 130.175 129.444 130.387L124.923 133.248C124.923 133.248 124.676 133.353 124.534 133.353Z" fill="#263238"/>
<path d="M627.122 161.677C627.122 161.677 626.804 161.606 626.663 161.535C626.487 161.394 626.381 161.182 626.381 160.935V148.327C626.381 148.009 626.557 147.727 626.84 147.621C627.122 147.515 627.44 147.586 627.652 147.798L637.153 157.898C637.329 158.074 637.4 158.357 637.329 158.604C637.259 158.851 637.047 159.063 636.8 159.134L627.299 161.606C627.299 161.606 627.158 161.606 627.122 161.606V161.677ZM627.899 150.234V159.946L635.246 158.039L627.899 150.234Z" fill="#263238"/>
<path d="M223.427 166.339C221.838 161.571 239.851 140.381 239.851 140.381L249.599 150.764C249.599 150.764 226.677 175.697 223.427 166.339Z" fill="#92E3A9"/>
<path d="M226.218 169.199C225.935 169.199 225.652 169.199 225.37 169.129C224.487 168.952 223.286 168.352 222.686 166.621C222.403 165.809 221.555 163.266 230.385 151.188C234.659 145.326 239.18 139.993 239.215 139.958C239.356 139.781 239.568 139.71 239.78 139.71C239.992 139.71 240.204 139.781 240.345 139.958L250.093 150.341C250.376 150.623 250.376 151.082 250.093 151.365C248.362 153.272 233.423 169.27 226.182 169.27L226.218 169.199ZM224.134 166.091C224.452 166.974 224.946 167.469 225.688 167.61C230.597 168.634 243.418 156.238 248.574 150.729L239.886 141.476C233.034 149.634 223.109 162.948 224.169 166.056L224.134 166.091Z" fill="#263238"/>
<path d="M198.775 135.649C204.002 140.311 207.569 136.708 207.569 136.708C207.075 138.651 208.24 140.593 210.183 141.087H210.253C212.69 141.829 222.156 137.273 228.549 137.273C230.597 147.692 231.551 158.286 231.303 168.881C231.303 168.881 253.236 171.106 256.203 155.355C256.203 155.355 252.036 145.431 249.175 136.355C245.29 124.065 244.76 120.675 242.747 118.097C239.533 114 212.902 106.972 205.768 106.69C198.633 106.407 194.784 133.565 185.883 146.138C187.967 147.091 190.439 146.809 192.276 145.396C194.713 143.842 198.775 135.649 198.775 135.649Z" fill="#BFBFBF"/>
<path d="M233.882 169.729C232.292 169.729 231.268 169.623 231.233 169.623C230.844 169.587 230.562 169.234 230.562 168.846C230.774 158.533 229.891 148.151 227.948 138.015C224.77 138.156 220.884 139.322 217.459 140.346C213.609 141.511 211.348 142.147 210.042 141.758C208.876 141.476 207.922 140.77 207.322 139.745C207.004 139.216 206.828 138.651 206.757 138.085C205.203 138.827 202.448 139.392 199.022 136.779C197.857 139.004 194.819 144.619 192.665 145.996C190.651 147.55 187.932 147.868 185.566 146.773C185.354 146.667 185.212 146.491 185.142 146.279C185.071 146.067 185.142 145.82 185.248 145.643C189.097 140.204 192.064 131.764 194.678 124.312C198.351 113.894 201.282 105.701 205.768 105.877C212.337 106.16 239.709 113.046 243.277 117.602C244.831 119.58 245.537 121.946 247.268 127.703C247.939 129.927 248.751 132.682 249.846 136.108C252.671 145.078 256.804 154.967 256.839 155.037C256.91 155.178 256.91 155.32 256.874 155.461C254.437 168.316 239.886 169.693 233.846 169.693L233.882 169.729ZM232.045 168.175C235.683 168.387 252.742 168.563 255.391 155.426C254.755 153.942 251.047 144.866 248.433 136.567C247.338 133.106 246.526 130.351 245.855 128.126C244.195 122.582 243.489 120.286 242.146 118.52C239.25 114.848 213.256 107.714 205.733 107.396H205.662C202.271 107.396 199.269 115.872 196.126 124.842C193.583 132.011 190.757 140.134 187.049 145.749C188.674 146.208 190.44 145.855 191.817 144.796C193.724 143.559 197.009 137.52 198.104 135.296C198.21 135.084 198.386 134.942 198.634 134.907C198.845 134.872 199.093 134.907 199.269 135.084C203.931 139.216 206.898 136.32 207.039 136.178C207.287 135.931 207.64 135.896 207.958 136.037C208.24 136.214 208.382 136.532 208.311 136.885C207.922 138.403 208.841 139.957 210.359 140.346C211.384 140.664 214.244 139.781 216.999 138.968C220.743 137.838 225.017 136.532 228.549 136.532C228.902 136.532 229.22 136.779 229.29 137.132C231.304 147.338 232.257 157.792 232.081 168.175H232.045Z" fill="#263238"/>
<path d="M198.775 136.39C198.775 136.39 198.598 136.39 198.492 136.355C198.104 136.214 197.927 135.755 198.068 135.366C202.059 125.301 207.004 120.639 207.958 119.792C208.452 118.414 208.805 116.331 208.134 115.766C207.816 115.519 207.746 115.024 208.028 114.706C208.276 114.388 208.77 114.318 209.088 114.6C210.96 116.084 209.512 120.074 209.335 120.533C209.3 120.639 209.194 120.745 209.123 120.851C209.053 120.887 203.719 125.372 199.516 135.967C199.41 136.249 199.128 136.426 198.81 136.426L198.775 136.39Z" fill="#263238"/>
<path d="M207.569 137.45C207.569 137.45 207.534 137.45 207.499 137.45C207.075 137.415 206.792 137.062 206.828 136.638C207.04 134.236 211.278 132.223 215.375 130.281C217.353 129.327 219.613 128.268 220.002 127.703C220.814 126.538 220.425 121.417 219.86 118.132C219.79 117.709 220.072 117.32 220.496 117.285C220.92 117.214 221.308 117.497 221.344 117.92C221.591 119.333 222.651 126.502 221.202 128.586C220.602 129.469 218.836 130.316 215.975 131.694C212.973 133.106 208.417 135.296 208.276 136.85C208.276 137.238 207.923 137.521 207.534 137.521L207.569 137.45Z" fill="#263238"/>
<path d="M228.513 138.05C228.125 138.05 227.807 137.768 227.772 137.379C227.736 136.956 228.054 136.602 228.443 136.567C232.363 136.214 235.789 133.777 237.378 130.175C237.555 129.786 237.979 129.61 238.367 129.786C238.756 129.963 238.933 130.387 238.756 130.775C236.955 134.872 233.034 137.697 228.584 138.05C228.584 138.05 228.549 138.05 228.513 138.05Z" fill="#263238"/>
<path d="M219.154 129.963C218.73 129.963 218.412 129.61 218.412 129.186C218.412 126.89 217.247 124.771 215.233 123.641C211.949 123.535 208.311 120.957 208.17 120.816C207.816 120.569 207.746 120.11 207.993 119.757C208.24 119.403 208.699 119.333 209.053 119.58C209.053 119.58 212.62 122.123 215.445 122.123C215.551 122.123 215.693 122.123 215.799 122.229C218.377 123.606 219.966 126.29 219.931 129.221C219.931 129.645 219.578 129.963 219.189 129.963H219.154Z" fill="#263238"/>
<path d="M207.569 134.166C207.181 134.166 206.863 133.848 206.828 133.459C206.651 130.563 207.64 127.667 209.547 125.513C209.83 125.195 210.289 125.16 210.607 125.443C210.925 125.725 210.96 126.184 210.677 126.502C209.017 128.374 208.17 130.881 208.346 133.353C208.346 133.777 208.064 134.13 207.64 134.166C207.64 134.166 207.64 134.166 207.605 134.166H207.569Z" fill="#263238"/>
<path d="M207.887 129.045C207.64 129.045 207.393 128.939 207.251 128.692C206.51 127.562 204.426 128.904 204.426 128.904C204.073 129.116 203.614 129.045 203.402 128.692C203.19 128.339 203.26 127.879 203.614 127.668C203.79 127.562 205.45 126.502 206.969 126.82C207.605 126.961 208.17 127.314 208.523 127.879C208.735 128.233 208.664 128.692 208.311 128.904C208.17 128.974 208.028 129.01 207.887 129.01V129.045Z" fill="#263238"/>
<path d="M400.481 234.887C400.481 234.887 381.974 221.361 366.116 223.797C366.116 223.797 281.774 233.297 279.796 233.297C279.796 233.297 257.263 147.621 252.848 140.381C252.848 140.381 252.071 134.377 249.669 133.53C249.669 133.53 239.709 160.829 223.357 166.338C223.357 166.338 224.875 171.53 228.478 171.53C228.478 171.53 227.913 264.587 240.981 275.677C254.049 286.766 364.42 295.877 364.42 295.877L400.446 234.887H400.481Z" fill="#E6E51D"/>
<mask id="mask0_1024_1683" style="mask-type:luminance" maskUnits="userSpaceOnUse" x="223" y="133" width="178" height="163">
<path d="M400.481 234.887C400.481 234.887 381.974 221.361 366.116 223.797C366.116 223.797 281.774 233.297 279.796 233.297C279.796 233.297 257.263 147.621 252.848 140.381C252.848 140.381 252.071 134.377 249.669 133.53C249.669 133.53 239.709 160.829 223.357 166.338C223.357 166.338 224.875 171.53 228.478 171.53C228.478 171.53 227.913 264.587 240.981 275.677C254.049 286.766 364.42 295.877 364.42 295.877L400.446 234.887H400.481Z" fill="white"/>
</mask>
<g mask="url(#mask0_1024_1683)">
<g opacity="0.2">
<path d="M340.086 287.049L334.576 293.052C300.917 289.521 249.705 283.058 241.052 275.712C227.984 264.623 228.549 171.565 228.549 171.565C226.253 171.565 224.77 169.376 224.028 167.857C236.178 167.363 251.047 155.179 251.047 155.179C253.343 168.21 236.425 183.114 236.425 183.114C236.425 183.114 235.542 236.511 242.676 263.422C249.811 290.333 340.05 287.013 340.05 287.013L340.086 287.049Z" fill="black"/>
</g>
</g>
<path d="M364.456 296.619C364.456 296.619 364.421 296.619 364.385 296.619C359.864 296.231 253.625 287.331 240.522 276.242C227.807 265.471 227.701 181.418 227.736 172.236C224.169 171.636 222.721 166.798 222.65 166.55C222.545 166.162 222.756 165.774 223.145 165.632C238.968 160.3 248.892 133.565 248.998 133.283C249.14 132.894 249.563 132.682 249.952 132.824C252.53 133.742 253.449 139.004 253.59 140.134C258.04 147.974 278.207 224.292 280.362 232.521C286.507 231.991 338.249 226.199 366.01 223.056C381.939 220.619 400.128 233.721 400.87 234.287C401.187 234.498 401.258 234.958 401.082 235.275L365.056 296.266C364.915 296.478 364.668 296.619 364.421 296.619H364.456ZM224.346 166.798C224.84 168.069 226.218 170.788 228.478 170.788C228.69 170.788 228.867 170.859 229.008 171C229.149 171.142 229.22 171.318 229.22 171.53C229.22 172.448 228.796 264.376 241.475 275.076C253.766 285.495 356.156 294.394 364.032 295.065L399.457 235.099C396.278 232.909 380.067 222.42 366.222 224.539C362.761 224.928 281.81 234.039 279.796 234.039C279.443 234.039 279.161 233.792 279.055 233.474C278.843 232.627 256.521 147.833 252.212 140.734C252.142 140.629 252.106 140.558 252.106 140.452C251.859 138.651 251.118 135.79 250.058 134.66C248.186 139.428 238.968 161.253 224.31 166.762L224.346 166.798Z" fill="#263238"/>
<path d="M372.685 239.655C372.685 239.655 376.076 228.177 391.228 230.826C406.379 233.474 444.065 234.534 463.066 228.565C463.066 228.565 414.397 291.534 385.718 280.233C357.039 268.932 372.65 239.655 372.65 239.655H372.685Z" fill="#BFBFBF"/>
<path d="M393.241 282.352C390.45 282.352 387.872 281.893 385.435 280.939C377.135 277.655 371.661 272.605 369.189 265.859C364.703 253.71 371.378 240.502 371.979 239.372C372.332 238.313 376.429 227.471 391.369 230.084C405.39 232.521 443.323 233.969 462.854 227.859C463.172 227.753 463.525 227.859 463.702 228.142C463.878 228.424 463.878 228.777 463.702 229.025C463.596 229.166 451.305 244.987 435.694 259.184C418.741 274.582 404.543 282.352 393.276 282.352H393.241ZM386.883 231.144C376.146 231.144 373.497 239.443 373.391 239.831C373.391 239.867 373.391 239.937 373.321 239.973C373.25 240.114 366.257 253.499 370.601 265.294C372.932 271.616 378.124 276.419 386 279.491C411.077 289.38 452.682 240.149 461.018 229.907C440.745 235.311 404.719 233.898 391.122 231.532C389.603 231.249 388.19 231.144 386.919 231.144H386.883Z" fill="#263238"/>
<path d="M453.919 101.781C453.919 101.781 449.504 86.7716 438.59 89.9853C427.677 93.1991 429.16 92.7753 423.121 89.5262C417.081 86.2771 413.373 89.0671 411.289 93.6582C409.205 98.2493 405.073 97.1192 398.609 94.9296C392.146 92.74 386.601 95.5652 386.813 101.746C387.025 107.926 378.795 101.498 374.204 108.385C369.612 115.272 372.367 114.812 371.449 120.392C370.531 125.972 360.853 129.151 362.69 134.201C364.527 139.251 371.908 148.009 364.986 151.718C358.063 155.426 355.767 166.939 362.443 170.365C369.118 173.79 356.898 184.173 361.313 193.602C365.339 202.184 376.5 204.197 371.449 212.92C369.577 215.64 369.577 219.207 371.449 221.926C372.155 222.95 373.533 223.233 374.592 222.526C375.158 222.138 375.546 221.502 375.581 220.796C375.617 219.595 375.97 218.465 376.57 217.441C378.866 213.768 382.045 217.441 385.753 210.519C385.753 210.519 383.351 218.359 391.263 221.114C395.36 222.632 396.102 224.998 395.854 227.011C395.713 227.93 396.349 228.812 397.267 228.954C397.797 229.024 398.327 228.883 398.68 228.53C400.305 226.835 401.011 224.398 400.516 222.102C400.516 222.102 413.408 232.697 422.626 230.402C431.844 228.106 443.817 224.892 444.277 217.97C445.725 219.948 446.678 222.279 446.996 224.751C447.067 225.952 448.091 226.835 449.292 226.764C449.892 226.729 450.457 226.446 450.846 225.952C452.647 223.833 453.742 221.22 453.954 218.43C454.766 220.725 456.356 222.632 458.475 223.868C459.817 224.504 461.406 223.974 462.077 222.632C462.36 222.067 462.431 221.396 462.254 220.796C461.583 218.853 462.36 216.699 464.126 215.64C468.717 212.885 471.931 207.835 469.176 201.372C469.176 201.372 476.099 205.963 473.803 212.885C472.85 215.039 473.132 217.511 474.51 219.383C475.145 219.948 476.064 219.878 476.629 219.242C476.947 218.853 477.088 218.359 476.947 217.865C476.205 216.205 476.417 214.298 477.476 212.814C480.69 207.764 488.99 201.584 482.562 194.485C476.099 187.351 480.655 182.866 480.655 182.866C480.655 182.866 479.737 187.457 487.578 190.459C495.418 193.461 490.58 197.77 491.357 200.983C491.639 202.114 492.24 203.138 493.052 203.985C493.688 204.656 494.747 204.656 495.418 203.985C495.948 203.456 496.089 202.643 495.736 201.972C494.747 200.524 494.641 198.688 495.383 197.134C499.339 190.036 488.955 186.751 487.86 180.536C486.765 174.32 488.319 167.327 488.92 161.218C489.485 155.956 489.909 151.93 486.553 147.409C484.399 144.407 481.644 141.723 480.549 138.192C479.949 135.437 479.878 132.612 480.302 129.857C480.761 127.067 480.584 124.242 479.807 121.558C477.9 116.19 471.543 117.037 468.717 112.552C466.068 108.35 468.329 102.734 463.278 99.8385C460.099 98.3199 456.285 99.0615 453.883 101.64L453.919 101.781Z" fill="#263238"/>
<path d="M402.283 240.926C409.523 236.334 406.097 221.255 403.166 212.072C401.788 207.729 400.517 204.691 400.517 204.691H400.623L438.59 185.162C433.787 205.362 438.59 232.979 438.59 232.979" fill="#BFBFBF"/>
<path d="M402.282 241.667C402.035 241.667 401.788 241.561 401.647 241.314C401.435 240.961 401.541 240.502 401.894 240.29C408.781 235.911 405.214 220.866 402.459 212.284C401.117 208.047 399.845 205.009 399.81 204.974C399.704 204.727 399.74 204.48 399.881 204.268C400.022 204.091 400.199 203.95 400.446 203.95L438.272 184.526C438.52 184.385 438.838 184.42 439.085 184.597C439.332 184.773 439.403 185.091 439.367 185.374C434.67 205.186 439.332 232.627 439.367 232.874C439.438 233.298 439.155 233.686 438.767 233.757C438.378 233.827 437.955 233.545 437.884 233.156C437.849 232.874 433.363 206.563 437.531 186.61L401.47 205.115C401.929 206.245 402.883 208.753 403.872 211.861C407.404 222.844 410.053 236.935 402.671 241.597C402.53 241.667 402.424 241.703 402.282 241.703V241.667Z" fill="#263238"/>
<path d="M416.516 204.621C413.408 209 408.498 211.755 403.165 212.143C401.788 207.8 400.516 204.762 400.516 204.762H400.622L416.516 204.621Z" fill="#263238"/>
<path d="M433.963 196.569C445.689 189.188 455.579 177.957 457.98 161.853C462.501 132.364 462.219 105.453 411.571 108.703C389.391 110.221 380.773 131.976 380.95 138.862C381.338 154.79 368.659 182.831 384.376 206.069C386.707 209.53 402 209.671 418.141 204.056" fill="#BFBFBF"/>
<path d="M394.336 209.247C388.861 209.247 384.941 208.258 383.74 206.493C372.332 189.612 375.652 170.364 378.301 154.931C379.36 148.716 380.279 143.348 380.173 138.898C379.961 130.987 389.285 109.48 411.501 107.961C431.809 106.654 445.336 110.045 452.93 118.344C462.748 129.08 461.053 146.491 458.687 161.994C456.532 176.368 448.091 188.552 434.317 197.24C433.963 197.452 433.504 197.346 433.292 196.993C433.08 196.639 433.186 196.18 433.54 195.968C446.925 187.528 455.119 175.697 457.203 161.783C460.064 142.994 460.241 128.586 451.799 119.368C444.524 111.422 431.385 108.208 411.571 109.48C388.932 110.998 381.515 133.318 381.656 138.863C381.762 143.489 380.809 149.175 379.749 155.214C377.135 170.4 373.886 189.329 384.941 205.68C386.954 208.647 401.647 209 417.823 203.385C418.211 203.244 418.635 203.455 418.776 203.844C418.918 204.232 418.706 204.656 418.317 204.797C409.452 207.87 400.764 209.247 394.265 209.247H394.336Z" fill="#263238"/>
<path d="M419.553 152.883C419.235 152.883 418.953 152.707 418.847 152.389C414.609 141.441 407.51 143.913 407.227 144.019C406.839 144.16 406.415 143.948 406.273 143.56C406.132 143.171 406.309 142.748 406.697 142.606C406.803 142.606 415.421 139.498 420.224 151.859C420.366 152.248 420.189 152.671 419.801 152.848C419.695 152.848 419.624 152.883 419.518 152.883H419.553Z" fill="#263238"/>
<path d="M390.45 142.712C390.45 142.712 390.133 142.641 389.991 142.536C387.484 140.487 384.305 139.428 381.056 139.569C380.632 139.569 380.279 139.251 380.279 138.863C380.279 138.439 380.596 138.086 380.985 138.086C384.587 137.944 388.119 139.11 390.91 141.37C391.227 141.617 391.298 142.112 391.016 142.43C390.874 142.606 390.662 142.712 390.415 142.712H390.45Z" fill="#263238"/>
<path d="M389.144 174.355C389.144 174.355 388.826 174.32 388.684 174.214C387.978 173.684 381.939 168.987 381.691 165.95C381.585 163.831 383.104 163.513 384.481 163.196C386.212 162.807 388.614 162.277 390.804 158.71C391.015 158.357 391.475 158.251 391.828 158.463C392.181 158.675 392.287 159.134 392.075 159.487C389.567 163.619 386.671 164.255 384.799 164.679C383.281 164.997 383.139 165.103 383.175 165.88C383.316 167.681 387.166 171.212 389.567 173.049C389.885 173.296 389.956 173.755 389.709 174.108C389.567 174.32 389.32 174.391 389.108 174.391L389.144 174.355Z" fill="#263238"/>
<path d="M413.161 159.17C412.737 161.006 411.324 162.277 410.053 161.96C408.781 161.642 408.11 159.911 408.534 158.039C408.958 156.168 410.37 154.932 411.642 155.249C412.913 155.567 413.584 157.298 413.125 159.17H413.161Z" fill="#263238"/>
<path d="M388.72 154.614C388.402 156.486 387.13 157.828 385.824 157.616C384.517 157.404 383.74 155.709 384.022 153.837C384.305 151.965 385.612 150.623 386.883 150.835C388.155 151.047 389.002 152.742 388.685 154.614H388.72Z" fill="#263238"/>
<path d="M402.741 180.253C402.247 181.348 401.682 182.442 401.046 183.467C399.104 186.61 395.678 190.777 391.475 189.47C390.203 189.082 389.603 187.281 389.356 185.303C389.144 183.467 389.108 181.666 389.25 179.829C391.439 180.288 393.7 180.535 395.925 180.571C398.185 180.783 400.481 180.677 402.706 180.218L402.741 180.253Z" fill="white"/>
<mask id="mask1_1024_1683" style="mask-type:luminance" maskUnits="userSpaceOnUse" x="389" y="179" width="14" height="11">
<path d="M402.741 180.253C402.247 181.348 401.682 182.442 401.046 183.467C399.104 186.61 395.678 190.777 391.475 189.47C390.203 189.082 389.603 187.281 389.356 185.303C389.144 183.467 389.108 181.666 389.25 179.829C391.439 180.288 393.7 180.535 395.925 180.571C398.185 180.783 400.481 180.677 402.706 180.218L402.741 180.253Z" fill="white"/>
</mask>
<g mask="url(#mask1_1024_1683)">
<g opacity="0.4">
<path d="M402.741 180.253C402.247 181.348 401.682 182.442 401.046 183.466C397.02 182.76 392.428 184.102 389.391 185.338C389.179 183.502 389.143 181.701 389.285 179.864L402.741 180.253Z" fill="black"/>
</g>
</g>
<path d="M393.099 190.46C392.499 190.46 391.863 190.354 391.263 190.177C389.85 189.753 388.967 188.129 388.649 185.409C388.437 183.538 388.402 181.666 388.543 179.794C388.543 179.582 388.685 179.37 388.826 179.264C389.002 179.123 389.214 179.088 389.426 179.123C391.581 179.582 393.77 179.829 395.96 179.865C398.221 180.077 400.41 179.971 402.565 179.547C402.847 179.476 403.13 179.582 403.307 179.829C403.483 180.041 403.518 180.359 403.413 180.606C402.918 181.736 402.318 182.867 401.682 183.926C398.998 188.305 396.066 190.53 393.099 190.53V190.46ZM389.991 180.748C389.921 182.266 389.991 183.749 390.133 185.233C390.38 187.246 390.945 188.517 391.722 188.764C395.36 189.894 398.468 186.292 400.41 183.078C400.764 182.478 401.117 181.842 401.435 181.242C399.598 181.489 397.726 181.525 395.89 181.348C393.947 181.313 391.934 181.101 389.991 180.748Z" fill="#263238"/>
<path d="M411.324 120.851C411.324 120.851 412.56 118.097 415.068 123.606C417.576 129.115 407.05 134.625 415.068 138.792C423.085 142.959 423.403 152.812 419.589 156.627C415.774 160.441 425.875 162.312 427.253 165.985C428.63 169.658 424.498 172.66 425.416 177.145C426.335 181.63 432.127 186.045 431.986 188.446C431.844 190.848 426.829 194.662 430.255 198.759C433.681 202.855 443.394 200.277 444.312 208.506C444.312 208.506 473.344 176.262 473.768 146.244C474.192 116.225 452.577 103.829 430.538 101.922C408.499 100.015 374.345 110.751 371.59 149.175C371.59 149.175 372.615 146.738 376.676 146.173C380.738 145.608 382.68 140.169 382.186 134.166C381.692 128.162 385.789 131.87 391.334 130.457C396.879 129.045 395.042 121.24 398.751 119.933C402.459 118.627 405.143 125.937 411.359 120.851H411.324Z" fill="#263238"/>
<path d="M357.957 170.4C357.957 170.4 357.675 170.365 357.569 170.294C355.096 168.705 353.613 166.515 353.472 164.078C353.295 161.359 354.708 158.569 357.498 156.203C358.522 155.355 359.511 154.578 360.394 153.907C362.407 152.389 363.997 151.223 364.032 149.987C364.032 149.104 363.326 148.01 361.807 146.668C358.628 143.842 357.039 140.734 357.286 137.909C357.498 135.861 358.699 134.06 360.712 132.859C364.95 130.352 369.754 126.431 369.365 123.712L369.259 122.935C368.765 119.651 367.882 114.177 373.674 110.928C376.606 109.268 380.703 109.233 384.305 109.162C387.343 109.127 390.486 109.056 390.557 107.855C390.557 107.431 390.945 107.149 391.334 107.149C391.757 107.149 392.075 107.537 392.04 107.926C391.899 110.539 388.367 110.575 384.305 110.645C380.879 110.681 376.959 110.751 374.381 112.199C369.507 114.918 370.213 119.404 370.707 122.653L370.813 123.43C371.414 127.668 364.456 132.294 361.454 134.06C359.864 135.013 358.911 136.355 358.77 137.944C358.558 140.275 359.97 142.959 362.796 145.467C364.703 147.162 365.586 148.61 365.516 149.987C365.445 151.93 363.608 153.307 361.277 155.037C360.43 155.673 359.441 156.415 358.452 157.262C356.05 159.311 354.779 161.677 354.955 163.902C355.096 165.844 356.262 167.61 358.381 168.952C358.734 169.164 358.84 169.623 358.593 169.976C358.452 170.188 358.205 170.329 357.957 170.329V170.4Z" fill="#263238"/>
<path d="M426.123 186.681C426.123 186.681 425.981 186.681 425.875 186.645C425.769 186.61 423.12 185.727 421.884 182.937C420.86 180.677 421.037 177.922 422.414 174.673C424.922 168.775 423.297 167.539 420.012 165.067C418.812 164.149 417.434 163.125 416.057 161.677C413.408 158.922 414.715 155.779 415.88 153.024C417.293 149.669 418.494 146.773 414.573 143.878C406.273 137.768 409.946 130.811 412.595 125.725L412.913 125.125C413.408 124.171 413.478 123.359 413.09 122.582C412.101 120.534 408.181 119.333 406.768 119.05C406.379 118.98 406.097 118.591 406.167 118.168C406.238 117.744 406.626 117.497 407.05 117.567C407.298 117.602 412.913 118.733 414.432 121.911C414.997 123.112 414.926 124.418 414.22 125.796L413.902 126.396C411.218 131.517 408.181 137.309 415.421 142.641C420.295 146.244 418.6 150.305 417.222 153.554C416.092 156.238 415.138 158.534 417.081 160.582C418.388 161.924 419.695 162.913 420.86 163.796C424.251 166.374 426.723 168.21 423.721 175.203C422.52 178.028 422.343 180.394 423.156 182.231C424.145 184.42 426.264 185.127 426.264 185.162C426.652 185.303 426.864 185.727 426.723 186.115C426.617 186.433 426.334 186.645 426.017 186.645L426.123 186.681Z" fill="#263238"/>
<path d="M398.079 181.348C392.534 181.348 387.448 180.041 387.166 179.971C386.777 179.865 386.53 179.441 386.636 179.052C386.742 178.664 387.13 178.417 387.554 178.523C387.66 178.523 396.702 180.854 403.589 179.3C403.977 179.194 404.401 179.476 404.472 179.865C404.578 180.253 404.295 180.677 403.907 180.748C402.035 181.171 400.022 181.313 398.079 181.313V181.348Z" fill="#263238"/>
<path d="M452.682 198.582C452.682 198.582 452.4 198.546 452.259 198.44C450.563 197.275 450.139 194.944 451.27 193.249C451.517 192.896 451.976 192.825 452.329 193.037C452.682 193.284 452.753 193.743 452.541 194.061C451.87 195.085 452.117 196.463 453.142 197.169C453.495 197.416 453.565 197.875 453.318 198.229C453.177 198.441 452.93 198.546 452.682 198.546V198.582Z" fill="white"/>
<path d="M455.331 190.389C455.331 190.389 455.049 190.353 454.907 190.283C454.554 190.071 454.448 189.576 454.696 189.259C455.826 187.563 456.179 185.974 455.826 184.561C455.437 183.114 454.236 181.772 452.329 180.783C451.976 180.571 451.835 180.147 452.011 179.759C452.188 179.37 452.682 179.264 453.036 179.441C455.331 180.677 456.779 182.301 457.274 184.173C457.733 186.009 457.274 188.022 455.932 190.071C455.79 190.283 455.543 190.424 455.296 190.424L455.331 190.389Z" fill="white"/>
<path d="M448.338 178.558C448.338 178.558 448.02 178.522 447.914 178.416C442.44 174.426 444.559 170.647 446.219 167.574C446.996 166.162 447.738 164.82 447.773 163.584C447.173 161.959 445.265 160.97 443.252 159.911C440.462 158.428 437.283 156.768 437.283 152.954C437.283 152.883 437.283 152.777 437.319 152.706C437.46 152.247 437.637 151.788 437.778 151.364C439.049 147.656 439.826 145.396 437.566 143.03C430.785 138.827 426.546 131.234 426.546 123.253C426.546 122.829 426.9 122.511 427.288 122.511C427.677 122.511 428.03 122.864 428.03 123.253C428.03 130.775 432.021 137.874 438.414 141.794C438.449 141.794 438.519 141.864 438.555 141.9C441.592 144.937 440.533 147.974 439.191 151.824C439.049 152.212 438.908 152.636 438.767 153.06C438.837 155.885 441.31 157.192 443.923 158.569C446.148 159.734 448.479 160.97 449.221 163.231C449.221 163.301 449.256 163.372 449.256 163.478C449.256 165.138 448.373 166.762 447.526 168.316C445.831 171.389 444.382 174.037 448.797 177.216C449.15 177.463 449.221 177.922 448.974 178.275C448.833 178.487 448.585 178.593 448.373 178.593L448.338 178.558Z" fill="white"/>
<path d="M426.935 119.262C426.546 119.262 426.229 118.98 426.193 118.591C425.911 115.872 424.816 113.294 423.015 111.21C422.732 110.892 422.767 110.433 423.085 110.151C423.403 109.868 423.862 109.903 424.145 110.221C426.123 112.552 427.359 115.377 427.677 118.414C427.712 118.838 427.429 119.191 427.006 119.227H426.935V119.262Z" fill="white"/>
<path d="M472.496 188.446C472.214 188.446 471.931 188.27 471.79 187.987C471.154 186.398 470.978 184.667 471.296 182.972C471.366 182.548 471.755 182.301 472.179 182.372C472.602 182.442 472.85 182.831 472.779 183.255C472.532 184.667 472.673 186.115 473.203 187.457C473.344 187.846 473.203 188.27 472.779 188.446C472.673 188.482 472.602 188.517 472.496 188.517V188.446Z" fill="white"/>
<path d="M473.061 178.911C473.061 178.911 472.955 178.911 472.885 178.911C472.496 178.805 472.214 178.417 472.32 178.028C472.849 175.662 472.708 173.896 471.86 172.731C471.119 171.707 469.847 171.071 467.905 170.859C467.516 170.824 467.128 170.788 466.739 170.753C464.973 170.612 462.96 170.471 462.077 169.093C461.512 168.21 461.512 167.08 462.077 165.562C462.218 165.173 462.642 164.961 463.031 165.103C463.419 165.244 463.631 165.668 463.49 166.056C463.101 167.08 463.066 167.822 463.349 168.246C463.843 168.987 465.432 169.129 466.845 169.234C467.269 169.234 467.693 169.305 468.081 169.34C470.412 169.623 472.108 170.435 473.097 171.813C474.192 173.331 474.403 175.485 473.768 178.311C473.697 178.664 473.379 178.911 473.026 178.911H473.061Z" fill="white"/>
<path d="M464.126 161.677C464.126 161.677 463.914 161.677 463.843 161.606C463.455 161.43 463.278 161.006 463.455 160.617C464.267 158.781 463.101 157.757 461.124 156.238C460.453 155.708 459.746 155.179 459.181 154.578C455.261 150.376 455.119 147.197 456.285 142.465C457.45 137.521 454.413 135.614 450.881 133.424C447.879 131.552 444.488 129.469 444.1 125.125C444.065 124.701 444.382 124.348 444.771 124.312C445.195 124.312 445.548 124.56 445.583 124.983C445.936 128.586 448.727 130.316 451.658 132.153C455.155 134.342 459.146 136.814 457.698 142.818C456.638 147.233 456.744 149.811 460.241 153.554C460.7 154.084 461.335 154.543 462.007 155.037C463.843 156.45 466.104 158.181 464.797 161.182C464.691 161.465 464.408 161.641 464.09 161.641L464.126 161.677Z" fill="white"/>
<path d="M479.737 169.234C479.384 169.234 479.066 168.952 478.995 168.599C478.748 166.903 478.854 165.138 479.348 163.478C479.454 163.089 479.878 162.842 480.266 162.948C480.655 163.054 480.902 163.478 480.796 163.866C480.372 165.314 480.267 166.868 480.514 168.351C480.584 168.775 480.302 169.128 479.878 169.199C479.843 169.199 479.807 169.199 479.772 169.199L479.737 169.234Z" fill="white"/>
<path d="M481.503 159.205C481.503 159.205 481.361 159.205 481.291 159.205C480.902 159.099 480.655 158.675 480.796 158.287C482.421 152.813 480.337 150.517 475.145 147.445C470.236 144.584 467.87 141.935 468.576 135.473L468.647 134.978C469.176 130.21 469.424 128.021 465.15 125.372C464.656 125.054 464.126 124.807 463.631 124.525C461.724 123.5 459.923 122.547 458.863 120.145C458.545 119.439 458.439 118.556 458.333 117.673C458.051 115.59 457.804 114.671 456.497 114.565C456.073 114.565 455.755 114.177 455.791 113.753C455.791 113.329 456.214 113.047 456.603 113.047C459.287 113.223 459.57 115.66 459.817 117.461C459.923 118.238 459.993 118.98 460.241 119.474C461.088 121.381 462.607 122.194 464.338 123.147C464.867 123.43 465.397 123.712 465.927 124.03C471.013 127.173 470.66 130.316 470.13 135.084L470.059 135.578C469.424 141.3 471.366 143.454 475.922 146.103C480.62 148.857 484.328 151.683 482.28 158.64C482.174 158.958 481.891 159.17 481.573 159.17L481.503 159.205Z" fill="white"/>
<path d="M372.438 171.777C372.438 171.777 372.12 171.707 371.979 171.601C371.661 171.353 371.59 170.859 371.873 170.541C375.016 166.621 374.946 162.948 371.696 157.898C368.129 152.318 367.175 149.316 373.144 144.195C377.171 140.735 376.111 138.545 374.557 135.296C373.815 133.777 373.003 132.082 372.615 129.998C371.52 124.419 376.394 122.759 380.349 121.452C381.55 121.028 382.716 120.64 383.669 120.181C384.058 120.004 384.482 120.181 384.658 120.534C384.835 120.922 384.658 121.346 384.305 121.523C383.245 122.017 382.009 122.441 380.808 122.865C376.111 124.454 373.286 125.725 374.063 129.716C374.451 131.588 375.193 133.142 375.899 134.66C377.489 137.98 379.007 141.123 374.098 145.361C368.941 149.811 369.612 151.894 372.932 157.121C375.334 160.829 377.524 165.844 373.003 171.495C372.862 171.671 372.65 171.777 372.403 171.777H372.438Z" fill="white"/>
<path d="M388.261 118.803C388.261 118.803 387.943 118.768 387.802 118.662C387.484 118.415 387.413 117.92 387.66 117.603C388.367 116.684 388.967 115.554 389.638 114.318C391.051 111.669 392.499 108.95 395.077 108.456C396.808 108.138 398.751 108.915 400.976 110.857C401.293 111.14 401.329 111.599 401.046 111.917C400.764 112.235 400.305 112.27 399.987 111.987C398.15 110.398 396.596 109.692 395.36 109.904C393.523 110.257 392.217 112.658 390.98 114.989C390.309 116.225 389.638 117.497 388.861 118.485C388.72 118.662 388.508 118.768 388.261 118.768V118.803Z" fill="white"/>
<path d="M379.608 229.519C379.608 229.519 365.869 244.634 381.374 256.359C396.879 268.084 453.177 228.6 453.177 228.6C453.177 228.6 473.485 223.444 484.116 230.225C494.747 237.006 484.787 319.009 463.101 354.467C456.673 364.991 448.939 380.706 448.939 380.706C448.939 380.706 451.128 394.444 438.625 398.576C414.927 406.487 354.143 406.098 336.413 396.21C315.61 384.626 336.483 388.193 337.719 325.084C337.719 325.084 328.607 301.775 332.068 285.106C333.375 278.89 337.119 269.885 342.452 260.844" fill="#E6E51D"/>
<mask id="mask2_1024_1683" style="mask-type:luminance" maskUnits="userSpaceOnUse" x="327" y="226" width="162" height="179">
<path d="M379.608 229.519C379.608 229.519 365.869 244.634 381.374 256.359C396.879 268.084 453.177 228.6 453.177 228.6C453.177 228.6 473.485 223.444 484.116 230.225C494.747 237.006 484.787 319.009 463.101 354.467C456.673 364.991 448.939 380.706 448.939 380.706C448.939 380.706 451.128 394.444 438.625 398.576C414.927 406.487 354.143 406.098 336.413 396.21C315.61 384.626 336.483 388.193 337.719 325.084C337.719 325.084 328.607 301.775 332.068 285.106C333.375 278.89 337.119 269.885 342.452 260.844" fill="white"/>
</mask>
<g mask="url(#mask2_1024_1683)">
<g opacity="0.2">
<path d="M463.066 354.502C456.638 365.026 448.903 380.742 448.903 380.742C448.903 380.742 451.093 394.48 438.59 398.612C414.891 406.522 354.107 406.134 336.377 396.245C315.574 384.662 336.448 388.229 337.684 325.119C335.459 319.115 333.764 312.9 332.563 306.614C346.302 314.524 362.231 313.747 362.231 313.747C375.899 285.389 395.501 290.686 395.501 290.686C395.501 290.686 400.799 285.954 406.944 281.504C413.09 277.054 432.303 280.444 432.303 280.444L454.696 275.924C454.272 267.625 462.395 268.402 462.395 268.402L465.503 271.298C463.702 264.411 465.503 260.244 465.503 260.244L485.176 284.965C481.114 309.898 473.415 337.515 463.031 354.431L463.066 354.502Z" fill="black"/>
</g>
</g>
<path d="M389.85 404.863C367.846 404.863 345.807 402.32 336.059 396.916C324.545 390.489 325.322 388.158 328.572 378.34C331.503 369.582 336.377 354.89 336.978 325.296C336.165 323.141 327.971 301.245 331.362 285.035C332.704 278.573 336.624 269.426 341.816 260.526C342.028 260.173 342.487 260.032 342.841 260.244C343.194 260.455 343.335 260.915 343.123 261.268C338.002 270.026 334.152 278.996 332.845 285.318C329.455 301.599 338.355 324.625 338.461 324.872C338.461 324.978 338.496 325.048 338.496 325.154C337.896 355.067 332.987 369.935 330.02 378.799C326.841 388.335 326.347 389.783 336.801 395.61C352.235 404.192 411.501 406.876 438.414 397.905C450.139 393.985 448.303 381.377 448.197 380.848C448.197 380.706 448.197 380.53 448.268 380.389C448.338 380.247 456.073 364.496 462.466 354.078C472.108 338.292 480.549 311.169 484.999 281.504C488.955 255.158 488.425 233.863 483.728 230.861C473.909 224.574 455.225 228.883 453.495 229.271C450.387 231.461 410.158 259.219 389.214 259.219C385.894 259.219 383.069 258.513 380.95 256.924C376.323 253.428 373.78 249.331 373.356 244.634C372.579 236.264 378.831 229.271 379.078 228.989C379.36 228.671 379.819 228.671 380.137 228.954C380.455 229.236 380.455 229.695 380.173 230.013C380.102 230.084 374.098 236.829 374.804 244.528C375.193 248.766 377.559 252.545 381.833 255.723C383.74 257.136 386.283 257.771 389.285 257.771C409.947 257.771 452.259 228.318 452.753 227.965C452.824 227.929 452.894 227.859 453 227.859C453.848 227.647 473.732 222.703 484.54 229.589C496.231 237.041 484.717 320.599 463.773 354.855C457.804 364.567 450.669 378.976 449.751 380.848C449.963 382.755 450.916 395.327 438.908 399.318C428.03 402.955 408.958 404.863 389.85 404.863Z" fill="#263238"/>
<path d="M333.269 281.257C333.022 281.257 332.775 281.115 332.634 280.903C331.08 278.29 330.02 275.465 329.526 272.463C329.455 272.039 329.737 271.651 330.126 271.615C330.514 271.545 330.938 271.827 330.974 272.216C331.433 275.041 332.422 277.69 333.87 280.126C334.082 280.48 333.976 280.939 333.622 281.151C333.517 281.221 333.375 281.257 333.234 281.257H333.269Z" fill="#263238"/>
<path d="M329.596 268.472C329.207 268.472 328.89 268.19 328.854 267.801C328.607 265.329 328.572 262.786 328.678 260.279C328.678 259.855 329.066 259.537 329.455 259.573C329.879 259.573 330.196 259.926 330.161 260.349C330.055 262.786 330.126 265.223 330.338 267.66C330.373 268.084 330.09 268.437 329.667 268.472C329.667 268.472 329.631 268.472 329.596 268.472Z" fill="#263238"/>
<path d="M270.931 253.357C270.578 253.357 270.296 253.145 270.19 252.792C268.035 244.175 278.843 233.262 279.302 232.803C279.585 232.521 280.079 232.521 280.362 232.803C280.644 233.086 280.644 233.58 280.362 233.863C280.256 233.969 269.695 244.634 271.638 252.439C271.744 252.827 271.497 253.251 271.108 253.357C271.037 253.357 271.002 253.357 270.931 253.357Z" fill="#263238"/>
<path d="M272.591 236.264C272.344 236.264 272.062 236.123 271.92 235.876C271.708 235.523 271.85 235.064 272.203 234.852C274.499 233.545 276.688 231.991 278.631 230.225C278.949 229.943 279.408 229.978 279.691 230.296C279.973 230.614 279.938 231.073 279.62 231.355C277.571 233.192 275.311 234.816 272.909 236.194C272.803 236.264 272.662 236.3 272.556 236.3L272.591 236.264Z" fill="#263238"/>
<path d="M263.867 240.29C263.55 240.29 263.267 240.078 263.161 239.796C263.02 239.407 263.232 238.984 263.62 238.842C265.139 238.348 266.622 237.748 268.07 237.077C268.459 236.9 268.883 237.077 269.059 237.43C269.236 237.818 269.059 238.242 268.706 238.419C267.223 239.09 265.669 239.69 264.115 240.22C264.044 240.22 263.938 240.255 263.867 240.255V240.29Z" fill="#263238"/>
<path d="M228.513 172.272C228.16 172.272 227.842 172.024 227.772 171.671C227.701 171.283 227.948 170.859 228.372 170.788C228.513 170.788 244.054 167.433 250.376 154.79C250.552 154.437 251.012 154.26 251.4 154.437C251.789 154.614 251.93 155.073 251.753 155.426C245.113 168.74 229.361 172.095 228.725 172.236C228.69 172.236 228.619 172.236 228.584 172.236L228.513 172.272Z" fill="#263238"/>
<path d="M401.964 262.787C401.611 262.787 401.329 262.539 401.223 262.222C401.117 261.833 401.364 261.409 401.788 261.339C403.73 260.88 405.638 260.315 407.509 259.644C407.898 259.502 408.322 259.714 408.463 260.103C408.604 260.491 408.392 260.915 408.004 261.056C406.097 261.762 404.084 262.363 402.106 262.822C402.035 262.822 402 262.822 401.929 262.822L401.964 262.787Z" fill="#263238"/>
<path d="M391.651 264.093C382.327 264.093 372.826 260.738 369.436 251.097C367.069 244.422 368.659 235.734 373.639 227.859C373.851 227.506 374.345 227.4 374.663 227.612C375.016 227.824 375.122 228.283 374.91 228.636C370.177 236.123 368.659 244.351 370.848 250.567C374.663 261.374 386.989 263.634 397.267 262.151C397.656 262.08 398.044 262.363 398.115 262.786C398.185 263.21 397.903 263.563 397.479 263.634C395.572 263.917 393.594 264.058 391.616 264.058L391.651 264.093Z" fill="#263238"/>
<path d="M392.675 253.357C392.675 253.357 392.499 253.357 392.393 253.322C385.541 250.638 374.204 241.915 373.745 241.526C373.427 241.279 373.356 240.785 373.603 240.467C373.85 240.149 374.345 240.078 374.663 240.325C374.769 240.431 386.318 249.296 392.958 251.909C393.347 252.05 393.523 252.509 393.382 252.898C393.276 253.18 392.993 253.392 392.675 253.392V253.357Z" fill="#263238"/>
<path d="M456.744 294.642C456.744 294.642 421.92 296.231 408.181 294.818C399.351 293.9 396.561 298.279 384.517 300.575C379.996 301.458 370.531 315.443 370.531 315.443L372.049 333.772C372.049 333.772 382.574 341.365 383.917 339.21C385.259 337.056 380.243 332.147 380.243 332.147L389.532 333.666C389.78 331.194 388.685 328.792 386.671 327.309L392.075 321.305C392.075 321.305 398.998 323.389 406.591 316.714L458.616 318.727L456.78 294.677L456.744 294.642Z" fill="#BFBFBF"/>
<mask id="mask3_1024_1683" style="mask-type:luminance" maskUnits="userSpaceOnUse" x="370" y="294" width="89" height="46">
<path d="M456.744 294.642C456.744 294.642 421.92 296.231 408.181 294.818C399.351 293.9 396.561 298.279 384.517 300.575C379.996 301.458 370.531 315.443 370.531 315.443L372.049 333.772C372.049 333.772 382.574 341.365 383.917 339.21C385.259 337.056 380.243 332.147 380.243 332.147L389.532 333.666C389.78 331.194 388.685 328.792 386.671 327.309L392.075 321.305C392.075 321.305 398.998 323.389 406.591 316.714L458.616 318.727L456.78 294.677L456.744 294.642Z" fill="white"/>
</mask>
<g mask="url(#mask3_1024_1683)">
<g opacity="0.2">
<path d="M458.616 318.586L406.591 316.573C398.998 323.283 392.075 321.164 392.075 321.164L386.671 327.167C388.685 328.651 389.744 331.052 389.532 333.524L380.243 332.006C380.243 332.006 385.259 336.915 383.917 339.069C382.574 341.188 372.049 333.63 372.049 333.63L370.531 315.301C372.721 312.123 375.087 309.05 377.595 306.084C387.449 312.088 413.019 307.602 413.019 307.602C413.196 303.188 415.81 298.491 418.035 295.242C433.999 295.595 456.744 294.571 456.744 294.571L458.581 318.586H458.616Z" fill="black"/>
</g>
</g>
<path d="M383.069 340.34C380.031 340.34 373.038 335.396 371.59 334.372C371.414 334.231 371.308 334.054 371.272 333.842L369.754 315.513C369.754 315.513 369.754 315.16 369.895 315.019C370.884 313.571 379.678 300.751 384.376 299.833C389.462 298.879 392.817 297.537 395.819 296.372C399.845 294.783 403.024 293.547 408.251 294.076C421.778 295.454 456.356 293.935 456.709 293.9C457.168 293.9 457.45 294.182 457.486 294.606L459.322 318.656C459.322 318.868 459.252 319.08 459.11 319.221C458.969 319.363 458.757 319.469 458.545 319.433L406.803 317.456C400.128 323.212 394.018 322.506 392.287 322.153L387.731 327.238C389.532 328.898 390.486 331.3 390.239 333.772C390.239 333.984 390.097 334.16 389.956 334.301C389.779 334.443 389.568 334.478 389.391 334.443L382.257 333.277C383.775 335.078 385.647 337.868 384.552 339.634C384.411 339.881 384.093 340.199 383.493 340.305C383.351 340.305 383.21 340.34 383.069 340.34ZM372.756 333.348C377.594 336.809 382.468 339.352 383.281 338.787C383.987 337.692 381.55 334.478 379.714 332.677C379.466 332.465 379.431 332.076 379.572 331.794C379.714 331.511 380.031 331.335 380.349 331.405L388.791 332.783C388.72 330.876 387.766 329.039 386.212 327.909C386.036 327.768 385.93 327.591 385.894 327.379C385.894 327.168 385.93 326.956 386.071 326.814L391.475 320.811C391.651 320.599 391.969 320.493 392.252 320.599C392.534 320.669 398.892 322.471 406.026 316.149C406.167 316.008 406.379 315.937 406.556 315.972L457.733 317.95L456.038 295.489C450.952 295.701 420.613 296.902 408.11 295.63C403.236 295.136 400.375 296.266 396.384 297.82C393.347 299.021 389.885 300.363 384.694 301.387C381.303 302.023 374.063 311.734 371.343 315.725L372.791 333.454L372.756 333.348Z" fill="#263238"/>
<path d="M392.075 321.976C392.075 321.976 392.04 321.976 392.005 321.976C391.757 321.976 385.859 321.411 383.21 314.065C383.069 313.677 383.281 313.253 383.669 313.112C384.058 312.971 384.482 313.182 384.623 313.571C386.919 319.963 391.899 320.457 392.111 320.493C392.534 320.528 392.817 320.881 392.782 321.305C392.782 321.694 392.428 321.976 392.04 321.976H392.075Z" fill="#263238"/>
<path d="M380.314 325.613C378.513 325.613 376.747 325.048 375.263 323.565C374.981 323.283 374.981 322.788 375.263 322.506C375.546 322.223 376.04 322.223 376.323 322.506C380.879 327.132 389.568 320.175 389.638 320.104C389.956 319.857 390.415 319.892 390.698 320.21C390.945 320.528 390.91 320.987 390.592 321.27C390.309 321.517 385.188 325.613 380.279 325.613H380.314Z" fill="#263238"/>
<path d="M380.243 332.924C380.243 332.924 380.067 332.924 379.961 332.889C379.572 332.747 379.396 332.288 379.537 331.9C380.208 330.205 379.325 326.39 378.937 325.048C378.831 324.66 379.043 324.236 379.431 324.13C379.82 324.024 380.243 324.236 380.349 324.625C380.526 325.154 381.903 329.957 380.914 332.465C380.808 332.747 380.526 332.924 380.208 332.924H380.243Z" fill="#263238"/>
<path d="M382.433 328.792C382.433 328.792 382.221 328.792 382.151 328.792C381.727 328.792 381.409 328.439 381.409 328.015C381.409 327.591 381.762 327.274 382.151 327.274C383.634 327.274 385.011 327.062 386.389 326.567C386.777 326.426 387.201 326.638 387.343 327.026C387.484 327.415 387.272 327.839 386.883 327.98C385.435 328.51 383.952 328.792 382.398 328.792H382.433Z" fill="#263238"/>
<path d="M575.486 320.069V641.833C575.486 643.987 573.756 645.717 571.601 645.717H85.1894C83.035 645.717 81.3044 643.987 81.269 641.833V320.069C81.269 317.915 82.9997 316.184 85.1541 316.184H571.566C573.72 316.184 575.451 317.915 575.451 320.069H575.486Z" fill="white"/>
<mask id="mask4_1024_1683" style="mask-type:luminance" maskUnits="userSpaceOnUse" x="81" y="316" width="495" height="330">
<path d="M575.486 320.069V641.833C575.486 643.987 573.756 645.717 571.601 645.717H85.1894C83.035 645.717 81.3044 643.987 81.269 641.833V320.069C81.269 317.915 82.9997 316.184 85.1541 316.184H571.566C573.72 316.184 575.451 317.915 575.451 320.069H575.486Z" fill="white"/>
</mask>
<g mask="url(#mask4_1024_1683)">
<g opacity="0.2">
<path d="M575.486 320.069V334.584C561.889 339.316 541.933 342.989 525.757 342.212C504.072 341.153 422.979 322.894 394.159 316.255H571.601C573.72 316.255 575.451 317.95 575.486 320.069Z" fill="black"/>
</g>
</g>
<path d="M85.1893 646.459C82.6463 646.459 80.5625 644.375 80.5625 641.833V320.069C80.5625 317.526 82.6463 315.442 85.1893 315.442H571.636C574.179 315.442 576.263 317.526 576.263 320.069V641.833C576.263 644.375 574.179 646.459 571.636 646.459H85.1893ZM85.1893 316.926C83.4587 316.926 82.0459 318.338 82.0459 320.069V641.833C82.0459 643.563 83.4587 644.976 85.1893 644.976H571.601C573.332 644.976 574.745 643.563 574.745 641.833V320.069C574.745 318.338 573.332 316.926 571.601 316.926H85.1893Z" fill="#263238"/>
<path d="M119.908 316.184V645.717H85.1894C83.035 645.717 81.3044 643.987 81.269 641.833V320.069C81.269 317.915 82.9997 316.184 85.1541 316.184H119.873H119.908Z" fill="#263238"/>
<path d="M100.624 331.441L89.7808 337.515L100.624 343.625L111.467 337.515L100.624 331.441Z" fill="#F0FF00"/>
<path d="M100.624 346.061L93.0301 341.788L89.7808 343.625L100.624 349.699L111.467 343.625L108.217 341.788L100.624 346.061Z" fill="#F0FF00"/>
<path d="M100.624 352.136L93.0301 347.863L89.7808 349.699L100.624 355.774L111.467 349.699L108.217 347.863L100.624 352.136Z" fill="#F0FF00"/>
<path d="M219.119 377.846C219.119 400.166 201.035 418.212 178.714 418.212C177.089 418.212 175.5 418.106 173.91 417.929C151.765 415.245 135.978 395.151 138.662 373.008C141.346 350.864 161.443 335.078 183.588 337.762C203.896 340.199 219.154 357.433 219.154 377.846H219.119Z" fill="#F0FF00"/>
<path d="M178.643 418.954C177.018 418.954 175.394 418.848 173.804 418.671C151.271 415.952 135.165 395.433 137.885 372.902C140.605 350.37 161.125 334.266 183.658 336.986C204.32 339.458 219.86 357.045 219.86 377.846C219.86 400.519 201.388 418.954 178.714 418.954H178.643ZM178.714 338.186C158.97 338.186 141.805 352.984 139.404 373.078C136.79 394.762 152.295 414.539 174.016 417.153C175.57 417.329 177.195 417.435 178.749 417.435C200.611 417.435 218.377 399.671 218.377 377.811C218.377 357.787 203.366 340.87 183.482 338.469C181.892 338.292 180.268 338.186 178.714 338.186Z" fill="#263238"/>
<path d="M195.455 414.575C190.192 416.976 184.47 418.212 178.713 418.212C177.089 418.212 175.499 418.106 173.91 417.93C165.01 411.538 156.957 401.084 156.957 401.084C158.829 401.649 160.736 402.038 162.679 402.249C164.056 402.426 165.504 402.567 166.988 402.638C171.367 402.885 175.747 402.885 180.126 402.638C182.599 402.461 184.788 402.249 186.342 401.967C188.426 401.402 190.651 401.896 192.347 403.238C193.088 403.839 193.653 404.651 193.971 405.569C195.349 408.359 195.878 411.467 195.49 414.539L195.455 414.575Z" fill="#BFBFBF"/>
<path d="M178.643 418.954C177.018 418.954 175.394 418.848 173.804 418.671C173.663 418.671 173.557 418.601 173.451 418.53C164.586 412.138 156.427 401.649 156.322 401.543C156.11 401.296 156.11 400.943 156.322 400.66C156.498 400.378 156.851 400.272 157.169 400.378C159.006 400.907 160.878 401.296 162.75 401.508C164.162 401.684 165.646 401.826 167.023 401.896C171.332 402.144 175.712 402.144 180.056 401.896C182.599 401.72 184.718 401.508 186.201 401.261C188.462 400.66 190.934 401.19 192.806 402.709C193.654 403.415 194.289 404.333 194.678 405.357C196.091 408.183 196.656 411.432 196.232 414.681C196.232 414.928 196.02 415.175 195.808 415.281C190.44 417.753 184.683 418.989 178.784 418.989H178.678L178.643 418.954ZM174.193 417.188C175.676 417.365 177.23 417.435 178.714 417.435H178.749C184.294 417.435 189.698 416.305 194.748 414.045C195.031 411.255 194.501 408.43 193.23 405.922C192.912 405.075 192.417 404.368 191.782 403.839C190.298 402.638 188.32 402.214 186.449 402.709C184.824 402.991 182.669 403.203 180.091 403.38C175.712 403.627 171.261 403.627 166.882 403.38C165.469 403.274 163.95 403.168 162.538 402.956C161.337 402.814 160.136 402.603 158.935 402.355C161.619 405.569 167.694 412.491 174.158 417.188H174.193Z" fill="#263238"/>
<path d="M160.666 349.205C160.666 349.205 162.467 343.06 166.917 344.402C171.367 345.744 170.767 345.532 173.239 344.225C174.617 343.201 176.559 343.519 177.584 344.896C177.795 345.214 177.972 345.532 178.078 345.92C178.926 347.827 180.621 347.439 183.27 346.45C185.919 345.461 188.215 346.697 188.073 349.24C187.932 351.783 191.358 349.134 193.23 351.959C195.102 354.784 193.972 354.608 194.36 356.868C194.749 359.128 198.704 360.47 197.963 362.519C197.221 364.567 194.183 368.169 197.009 369.688C199.834 371.206 200.788 375.903 198.033 377.316C195.278 378.729 200.329 382.967 198.492 386.816C196.868 390.312 192.276 391.16 194.36 394.727C195.137 395.857 195.137 397.305 194.36 398.435C194.077 398.859 193.512 398.965 193.089 398.718C192.841 398.541 192.7 398.294 192.665 398.011C192.665 397.517 192.523 397.058 192.276 396.634C191.323 395.115 190.051 396.634 188.532 393.809C189.098 395.645 188.109 397.552 186.272 398.152C184.577 398.753 184.294 399.742 184.4 400.554C184.471 400.942 184.188 401.296 183.8 401.331C183.588 401.331 183.376 401.296 183.235 401.154C182.564 400.448 182.281 399.459 182.493 398.506C182.493 398.506 177.195 402.85 173.487 401.896C169.778 400.942 164.833 399.636 164.622 396.81C164.021 397.623 163.633 398.576 163.527 399.6C163.456 400.095 162.997 400.413 162.502 400.342C162.326 400.342 162.149 400.236 162.008 400.095C161.266 399.212 160.842 398.152 160.736 397.022C160.348 397.976 159.642 398.753 158.723 399.212C158.158 399.459 157.522 399.212 157.275 398.647C157.169 398.435 157.169 398.188 157.205 397.941C157.487 397.164 157.205 396.281 156.463 395.822C154.344 394.727 153.425 392.184 154.379 389.995C154.379 389.995 151.554 391.902 152.472 394.692C152.86 395.574 152.754 396.563 152.189 397.34C152.013 397.587 151.624 397.658 151.377 397.446C151.165 397.27 151.094 396.987 151.2 396.74C151.483 396.069 151.412 395.292 150.988 394.656C149.682 392.573 146.256 390.065 148.905 387.134C151.554 384.238 149.682 382.402 149.682 382.402C149.682 382.402 150.07 384.309 146.856 385.509C143.642 386.71 145.655 388.511 145.337 389.783C145.231 390.242 144.984 390.666 144.631 391.019C144.384 391.301 143.96 391.337 143.642 391.089C143.395 390.877 143.324 390.489 143.501 390.206C143.889 389.606 143.96 388.864 143.642 388.229C142.053 385.333 146.291 383.991 146.715 381.448C146.891 378.799 146.715 376.151 146.256 373.537C146.044 371.383 145.867 369.723 147.209 367.887C148.234 366.792 149.046 365.521 149.646 364.108C149.894 362.978 149.929 361.848 149.752 360.718C149.576 359.587 149.646 358.422 149.964 357.327C150.741 355.138 153.355 355.526 154.485 353.654C155.615 351.783 154.626 349.628 156.71 348.463C158.017 347.827 159.571 348.145 160.56 349.205H160.666Z" fill="#263238"/>
<path d="M181.786 406.134C178.784 404.227 180.268 398.082 181.433 394.303C181.998 392.537 182.528 391.301 182.528 391.301L166.988 383.285C168.966 391.549 166.988 402.814 166.988 402.814" fill="#BFBFBF"/>
<path d="M181.786 406.876C181.786 406.876 181.504 406.84 181.398 406.77C178.855 405.145 178.608 401.013 180.727 394.091C181.045 393.067 181.363 392.219 181.574 391.654L168.047 384.697C169.495 392.749 167.8 402.532 167.729 402.956C167.659 403.379 167.27 403.662 166.847 403.556C166.423 403.485 166.175 403.097 166.246 402.673C166.246 402.567 168.153 391.478 166.246 383.461C166.175 383.179 166.281 382.861 166.529 382.684C166.741 382.508 167.058 382.472 167.341 382.614L182.881 390.63C183.234 390.807 183.376 391.231 183.234 391.584C183.234 391.584 182.74 392.82 182.175 394.515C180.338 400.589 180.338 404.298 182.21 405.463C182.563 405.675 182.669 406.134 182.457 406.487C182.316 406.699 182.069 406.84 181.822 406.84L181.786 406.876Z" fill="#263238"/>
<path d="M175.959 391.266C177.23 393.032 179.243 394.127 181.433 394.268C181.998 392.502 182.528 391.266 182.528 391.266H175.994H175.959Z" fill="#263238"/>
<path d="M168.824 387.982C163.597 384.945 159.959 379.753 158.97 373.785C157.098 361.777 157.24 350.723 177.937 352.03C187.014 352.595 190.545 361.53 190.475 364.355C190.298 370.854 195.525 382.367 189.062 391.867C188.108 393.279 181.857 393.385 175.252 391.054" fill="#BFBFBF"/>
<path d="M185 393.632C182.175 393.632 178.502 392.997 175.041 391.76C174.652 391.619 174.44 391.195 174.581 390.807C174.723 390.419 175.146 390.207 175.535 390.348C182.281 392.749 187.932 392.29 188.462 391.443C192.877 384.909 191.57 377.281 190.51 371.136C190.086 368.629 189.663 366.298 189.733 364.355C189.804 361.742 186.378 353.337 177.901 352.807C169.955 352.277 164.692 353.584 161.796 356.727C158.441 360.365 158.547 366.156 159.712 373.679C160.666 379.435 164.127 384.415 169.178 387.346C169.531 387.558 169.672 388.017 169.46 388.37C169.248 388.723 168.789 388.865 168.436 388.653C162.997 385.51 159.253 380.142 158.229 373.926C157.24 367.498 156.533 360.259 160.701 355.703C163.915 352.207 169.566 350.759 178.007 351.288C187.402 351.889 191.323 361 191.217 364.391C191.181 366.192 191.534 368.346 191.994 370.889C193.088 377.281 194.466 385.262 189.698 392.29C189.097 393.173 187.331 393.597 185 393.597V393.632Z" fill="#263238"/>
<path d="M174.723 370.571C174.723 370.571 174.546 370.571 174.44 370.536C174.052 370.394 173.875 369.935 174.016 369.547C176.135 364.108 180.091 365.485 180.127 365.521C180.515 365.662 180.727 366.086 180.586 366.474C180.444 366.863 180.021 367.039 179.632 366.933C179.349 366.827 176.983 366.156 175.429 370.112C175.323 370.394 175.041 370.571 174.723 370.571Z" fill="#263238"/>
<path d="M186.625 366.404C186.413 366.404 186.201 366.298 186.025 366.121C185.778 365.803 185.813 365.344 186.131 365.062C187.367 364.073 188.886 363.543 190.475 363.614C190.899 363.614 191.217 363.967 191.181 364.391C191.181 364.814 190.793 365.097 190.404 365.097C189.203 365.026 188.003 365.45 187.049 366.192C186.908 366.298 186.731 366.368 186.59 366.368L186.625 366.404Z" fill="#263238"/>
<path d="M187.155 379.329C186.943 379.329 186.696 379.223 186.555 379.047C186.307 378.729 186.378 378.234 186.696 377.987C187.897 377.069 189.027 375.904 189.133 375.445C189.062 375.445 188.921 375.409 188.85 375.374C188.038 375.197 186.731 374.915 185.601 373.043C185.389 372.69 185.495 372.231 185.848 372.019C186.201 371.807 186.66 371.913 186.872 372.266C187.685 373.573 188.497 373.749 189.168 373.891C189.698 373.997 190.722 374.244 190.652 375.48C190.546 376.857 188.32 378.658 187.614 379.188C187.473 379.294 187.332 379.329 187.155 379.329Z" fill="#263238"/>
<path d="M177.336 372.69C177.513 373.467 178.078 373.961 178.608 373.855C179.138 373.749 179.42 373.007 179.208 372.266C178.996 371.524 178.467 370.994 177.937 371.136C177.407 371.277 177.124 371.983 177.336 372.725V372.69Z" fill="#263238"/>
<path d="M187.296 370.818C187.402 371.595 187.967 372.125 188.497 372.054C189.027 371.983 189.345 371.277 189.203 370.535C189.062 369.794 188.568 369.229 188.038 369.299C187.508 369.37 187.296 370.041 187.296 370.818Z" fill="#263238"/>
<path d="M181.61 381.307C181.61 381.307 183.552 385.898 186.201 385.086C187.402 384.697 187.12 381.13 187.12 381.13" fill="white"/>
<path d="M185.566 385.933C182.775 385.933 181.01 381.766 180.904 381.59C180.727 381.201 180.904 380.777 181.292 380.601C181.681 380.459 182.104 380.601 182.281 380.989C182.281 381.025 184.012 384.945 185.989 384.344C186.307 384.132 186.484 382.578 186.378 381.166C186.343 380.742 186.661 380.389 187.049 380.354C187.473 380.354 187.826 380.636 187.861 381.025C187.967 382.296 188.038 385.262 186.449 385.757C186.131 385.863 185.848 385.898 185.566 385.898V385.933Z" fill="#263238"/>
<path d="M178.113 357.009C178.113 357.009 177.619 355.879 176.594 358.14C175.57 360.4 179.879 362.66 176.594 364.355C173.31 366.05 173.168 370.076 174.758 371.666C176.347 373.255 172.18 373.961 171.65 375.48C171.12 376.998 172.78 378.199 172.391 380C172.003 381.801 169.637 383.638 169.707 384.627C169.778 385.615 171.826 387.169 170.414 388.829C169.001 390.489 165.045 389.465 164.657 392.82C164.657 392.82 152.789 379.612 152.648 367.286C152.507 354.961 161.301 349.946 170.378 349.169C179.455 348.392 193.371 352.772 194.501 368.487C194.077 367.745 193.3 367.286 192.417 367.286C190.757 367.075 189.98 364.814 190.157 362.377C190.333 359.941 188.638 361.424 186.413 360.859C184.188 360.294 184.894 357.08 183.411 356.515C181.928 355.95 180.691 359.093 178.113 357.009Z" fill="#263238"/>
<path d="M199.94 377.74C199.693 377.74 199.446 377.634 199.305 377.387C199.093 377.033 199.163 376.574 199.517 376.362C200.258 375.868 200.682 375.268 200.717 374.632C200.753 373.855 200.329 373.043 199.446 372.301C199.057 371.983 198.669 371.665 198.316 371.418C197.327 370.677 196.444 370.006 196.409 369.017C196.373 368.098 197.115 367.322 197.68 366.827C198.704 365.909 199.269 364.92 199.163 364.143C199.128 363.649 198.81 363.225 198.28 362.872C196.656 361.883 193.936 359.976 194.219 358.069V357.751C194.537 356.126 194.607 354.82 193.018 353.937C192.064 353.407 190.51 353.372 189.168 353.372C187.438 353.372 185.636 353.301 185.566 351.853C185.566 351.429 185.848 351.076 186.272 351.076C186.661 351.076 187.014 351.323 187.049 351.712C187.367 351.888 188.462 351.888 189.204 351.924C190.722 351.924 192.453 351.959 193.76 352.701C196.409 354.149 195.985 356.727 195.773 358.069V358.387C195.632 358.987 196.762 360.294 199.093 361.671C200.046 362.236 200.612 363.084 200.717 364.072C200.823 365.379 200.117 366.756 198.74 368.028C198.033 368.664 197.963 368.981 197.963 369.052C197.963 369.335 198.669 369.864 199.269 370.323C199.658 370.606 200.046 370.924 200.47 371.277C201.706 372.336 202.342 373.608 202.272 374.844C202.201 375.974 201.53 376.998 200.4 377.74C200.258 377.81 200.117 377.846 200.011 377.846L199.94 377.74Z" fill="#263238"/>
<path d="M172.074 384.415C171.756 384.415 171.473 384.203 171.367 383.92C171.226 383.532 171.438 383.108 171.827 382.967C171.827 382.967 172.498 382.719 172.815 382.013C173.098 381.377 173.027 380.53 172.568 379.47C171.191 376.292 172.498 375.303 173.875 374.244C174.334 373.89 174.864 373.502 175.358 372.972C175.888 372.407 175.747 371.842 175.217 370.571C174.617 369.158 173.84 367.251 176.1 365.556C178.572 363.719 177.901 361.954 176.595 359.446L176.453 359.199C175.994 358.351 176.171 357.645 176.347 357.221C177.054 355.773 179.42 355.244 179.667 355.208C180.091 355.138 180.48 355.385 180.55 355.809C180.621 356.232 180.374 356.621 179.95 356.692C179.349 356.797 177.972 357.257 177.689 357.892C177.619 357.998 177.584 358.21 177.76 358.528L177.901 358.775C178.996 360.894 180.656 364.073 176.983 366.792C175.712 367.71 175.959 368.522 176.595 370.006C177.089 371.206 177.725 372.69 176.453 374.032C175.853 374.632 175.288 375.091 174.793 375.444C173.487 376.433 173.063 376.751 173.946 378.87C174.546 380.318 174.652 381.589 174.158 382.613C173.592 383.885 172.427 384.309 172.286 384.379C172.215 384.379 172.109 384.415 172.038 384.415H172.074Z" fill="#263238"/>
<path d="M183.764 382.19C182.881 382.19 181.998 382.119 181.115 381.978C180.691 381.907 180.409 381.519 180.48 381.13C180.55 380.707 180.939 380.424 181.327 380.495C183.482 380.813 185.636 380.707 187.72 380.177C188.108 380.071 188.532 380.318 188.638 380.707C188.744 381.095 188.497 381.519 188.108 381.625C186.696 381.978 185.212 382.155 183.764 382.155V382.19Z" fill="#263238"/>
<path d="M206.686 406.946C199.163 414.186 189.168 418.212 178.749 418.177C177.124 418.177 175.535 418.071 173.946 417.894C163.526 416.658 153.99 411.361 147.386 403.203C147.527 402.602 147.88 402.073 148.375 401.684C152.754 398.894 161.019 401.013 161.019 401.013L162.714 402.143C168.118 405.71 185.106 416.34 190.404 412.35C193.477 410.407 194.36 406.346 192.417 403.309C192.417 403.273 192.382 403.238 192.347 403.203C192.029 402.567 191.605 401.967 191.146 401.402C191.146 401.402 198.316 398.506 206.757 406.911L206.686 406.946Z" fill="#FDD91E"/>
<path d="M178.643 418.954C177.018 418.954 175.394 418.848 173.804 418.671C163.138 417.4 153.531 412.067 146.75 403.733C146.609 403.556 146.538 403.309 146.609 403.097C146.785 402.355 147.245 401.649 147.845 401.19C152.507 398.223 160.807 400.307 161.16 400.378C161.231 400.378 161.337 400.448 161.407 400.484L163.103 401.614C173.522 408.465 186.025 414.751 189.91 411.82C191.252 410.937 192.17 409.666 192.523 408.147C192.877 406.629 192.594 405.075 191.746 403.768C191.746 403.768 191.64 403.627 191.64 403.591C191.322 402.991 190.969 402.461 190.545 401.932C190.404 401.755 190.334 401.508 190.404 401.261C190.475 401.013 190.616 400.837 190.863 400.731C191.181 400.59 198.598 397.764 207.287 406.417C207.428 406.558 207.499 406.77 207.499 406.946C207.499 407.158 207.428 407.335 207.251 407.476C199.552 414.857 189.486 418.919 178.82 418.919H178.714L178.643 418.954ZM148.198 403.097C154.697 410.972 163.844 415.952 174.016 417.188C175.57 417.365 177.195 417.471 178.749 417.471C188.744 417.471 198.245 413.762 205.591 406.982C199.587 401.296 194.431 401.508 192.347 401.896C192.559 402.214 192.771 402.567 192.947 402.885C194.042 404.58 194.395 406.558 193.971 408.465C193.548 410.372 192.417 411.997 190.757 413.056C185.495 417.047 170.626 408.394 162.255 402.85L160.666 401.79C159.641 401.543 152.472 399.989 148.728 402.391C148.516 402.567 148.339 402.815 148.198 403.097Z" fill="#263238"/>
<path d="M240.31 405.145C244.231 405.145 247.409 401.967 247.409 398.047C247.409 394.126 244.231 390.948 240.31 390.948C236.389 390.948 233.211 394.126 233.211 398.047C233.211 401.967 236.389 405.145 240.31 405.145Z" fill="#263238"/>
<path d="M259.629 405.145C263.55 405.145 266.728 401.967 266.728 398.047C266.728 394.126 263.55 390.948 259.629 390.948C255.709 390.948 252.53 394.126 252.53 398.047C252.53 401.967 255.709 405.145 259.629 405.145Z" fill="#BFBFBF"/>
<path d="M286.013 372.442H234.977C232.01 372.442 229.573 374.879 229.608 377.846C229.608 380.812 232.01 383.214 234.977 383.214H286.013C288.979 383.214 291.416 380.777 291.381 377.81C291.381 374.844 288.979 372.442 286.013 372.442Z" fill="#263238"/>
<g opacity="0.6">
<path d="M360.147 334.336H323.345C321.19 334.336 319.459 336.067 319.459 338.221C319.459 340.375 321.19 342.106 323.345 342.106H360.147C362.301 342.106 364.032 340.375 364.032 338.221C364.032 336.067 362.301 334.336 360.147 334.336Z" fill="#263238"/>
</g>
<path d="M306.109 324.801H304.59V637.242H306.109V324.801Z" fill="#263238"/>
<path d="M161.866 488.773C172.088 488.773 180.374 480.488 180.374 470.268C180.374 460.047 172.088 451.762 161.866 451.762C151.645 451.762 143.359 460.047 143.359 470.268C143.359 480.488 151.645 488.773 161.866 488.773Z" fill="#BFBFBF"/>
<path d="M161.866 489.515C151.235 489.515 142.618 480.863 142.618 470.268C142.618 459.673 151.271 451.021 161.866 451.021C172.462 451.021 181.115 459.673 181.115 470.268C181.115 480.863 172.462 489.515 161.866 489.515ZM161.866 452.504C152.083 452.504 144.101 460.485 144.101 470.268C144.101 480.05 152.083 488.032 161.866 488.032C171.65 488.032 179.632 480.05 179.632 470.268C179.632 460.485 171.65 452.504 161.866 452.504Z" fill="#263238"/>
<path d="M186.908 482.24C186.908 485.842 183.976 488.773 180.374 488.773C176.771 488.773 173.84 485.842 173.84 482.24C173.84 478.638 176.771 475.707 180.374 475.707C183.976 475.707 186.908 478.638 186.908 482.24Z" fill="#FDD91E"/>
<path d="M180.374 489.515C176.347 489.515 173.098 486.266 173.098 482.24C173.098 478.214 176.347 474.965 180.374 474.965C184.4 474.965 187.649 478.214 187.649 482.24C187.649 486.266 184.4 489.515 180.374 489.515ZM180.374 476.448C177.195 476.448 174.581 479.026 174.581 482.24C174.581 485.454 177.16 488.032 180.374 488.032C183.588 488.032 186.166 485.454 186.166 482.24C186.166 479.026 183.588 476.448 180.374 476.448Z" fill="#263238"/>
<path d="M161.866 549.552C172.088 549.552 180.374 541.267 180.374 531.047C180.374 520.826 172.088 512.541 161.866 512.541C151.645 512.541 143.359 520.826 143.359 531.047C143.359 541.267 151.645 549.552 161.866 549.552Z" fill="#BFBFBF"/>
<path d="M161.866 550.294C151.235 550.294 142.618 541.641 142.618 531.047C142.618 520.452 151.271 511.799 161.866 511.799C172.462 511.799 181.115 520.452 181.115 531.047C181.115 541.641 172.462 550.294 161.866 550.294ZM161.866 513.283C152.083 513.283 144.101 521.264 144.101 531.047C144.101 540.829 152.083 548.81 161.866 548.81C171.65 548.81 179.632 540.829 179.632 531.047C179.632 521.264 171.65 513.283 161.866 513.283Z" fill="#263238"/>
<path d="M186.908 542.984C186.908 546.586 183.976 549.517 180.374 549.517C176.771 549.517 173.84 546.586 173.84 542.984C173.84 539.381 176.771 536.45 180.374 536.45C183.976 536.45 186.908 539.381 186.908 542.984Z" fill="#FDD91E"/>
<path d="M180.374 550.294C176.347 550.294 173.098 547.045 173.098 543.019C173.098 538.993 176.347 535.744 180.374 535.744C184.365 535.744 187.649 539.028 187.649 543.019C187.649 547.045 184.4 550.294 180.374 550.294ZM180.374 537.227C177.195 537.227 174.581 539.805 174.581 543.019C174.581 546.232 177.16 548.811 180.374 548.811C183.588 548.811 186.166 546.232 186.166 543.019C186.166 539.84 183.552 537.227 180.374 537.227Z" fill="#263238"/>
<path d="M161.866 610.295C172.088 610.295 180.374 602.01 180.374 591.79C180.374 581.569 172.088 573.284 161.866 573.284C151.645 573.284 143.359 581.569 143.359 591.79C143.359 602.01 151.645 610.295 161.866 610.295Z" fill="#BFBFBF"/>
<path d="M161.867 611.037C156.71 611.037 151.871 609.024 148.234 605.387C144.596 601.749 142.583 596.911 142.583 591.755C142.583 586.599 144.596 581.76 148.234 578.123C151.871 574.485 156.71 572.472 161.867 572.472C167.023 572.472 171.862 574.485 175.5 578.123C179.138 581.76 181.151 586.599 181.151 591.755C181.151 596.911 179.138 601.749 175.5 605.387C171.862 609.024 167.023 611.037 161.867 611.037ZM161.867 574.026C157.134 574.026 152.648 575.862 149.293 579.217C145.938 582.572 144.101 587.022 144.101 591.79C144.101 596.558 145.938 601.007 149.293 604.362C152.648 607.718 157.099 609.554 161.867 609.554C166.635 609.554 171.085 607.718 174.44 604.362C177.795 601.007 179.632 596.558 179.632 591.79C179.632 587.022 177.795 582.572 174.44 579.217C171.085 575.862 166.635 574.026 161.867 574.026Z" fill="#263238"/>
<path d="M186.907 603.797C186.907 607.399 183.976 610.331 180.374 610.295C176.771 610.295 173.84 607.364 173.875 603.762C173.875 600.16 176.806 597.264 180.409 597.264C184.011 597.264 186.943 600.195 186.943 603.797H186.907Z" fill="#FDD91E"/>
<path d="M180.374 611.037C176.347 611.037 173.098 607.753 173.098 603.727C173.098 599.736 176.383 596.452 180.374 596.452C184.365 596.452 187.649 599.701 187.649 603.727C187.649 607.753 184.365 611.002 180.374 611.002V611.037ZM180.374 597.97C177.195 597.97 174.617 600.548 174.581 603.727C174.581 606.905 177.16 609.519 180.338 609.519C181.892 609.519 183.34 608.918 184.4 607.823C185.495 606.729 186.095 605.281 186.095 603.727C186.095 600.513 183.517 597.935 180.303 597.935L180.374 597.97Z" fill="#263238"/>
<g opacity="0.3">
<g opacity="0.4">
<path d="M563.902 354.467H323.98V425.982H563.902V354.467Z" fill="black"/>
</g>
<g opacity="0.4">
<path d="M563.902 543.619H323.98V615.134H563.902V543.619Z" fill="black"/>
</g>
<g opacity="0.4">
<path d="M563.902 432.515H323.98V504.03H563.902V432.515Z" fill="black"/>
</g>
</g>
<path d="M559.381 351.465H319.459V422.98H559.381V351.465Z" fill="#DBDBDB"/>
<path d="M560.158 423.721H318.718V350.688H560.158V423.721ZM320.236 422.238H558.674V352.207H320.236V422.238Z" fill="#263238"/>
<path d="M390.839 358.669H327.795V406.77H390.839V358.669Z" fill="#263238"/>
<path d="M390.839 395.115V406.77H327.795V395.928L347.715 381.166L368.2 395.928L379.784 388.547L390.839 395.115Z" fill="#FDD91E"/>
<path d="M374.946 372.301C374.946 375.797 372.12 378.658 368.624 378.658C365.127 378.658 362.266 375.833 362.266 372.336C362.266 368.84 365.092 365.979 368.588 365.979C372.085 365.979 374.91 368.805 374.91 372.301H374.946Z" fill="#F0FF00"/>
<g opacity="0.4">
<path d="M354.637 411.29H329.808C328.36 411.184 327.088 412.279 326.982 413.727C326.876 415.175 327.971 416.446 329.419 416.552C329.561 416.552 329.702 416.552 329.808 416.552H354.637C356.085 416.658 357.357 415.564 357.463 414.116C357.569 412.668 356.474 411.396 355.026 411.29C354.884 411.29 354.743 411.29 354.637 411.29Z" fill="#263238"/>
</g>
<g opacity="0.4">
<path d="M548.043 360.329H403.095C401.646 360.329 400.481 361.495 400.481 362.942C400.481 364.39 401.646 365.556 403.095 365.556H548.043C549.491 365.556 550.657 364.39 550.657 362.942C550.657 361.495 549.491 360.329 548.043 360.329Z" fill="#263238"/>
</g>
<g opacity="0.4">
<path d="M548.043 375.338H403.095C401.646 375.338 400.481 376.504 400.481 377.952C400.481 379.4 401.646 380.565 403.095 380.565H548.043C549.491 380.565 550.657 379.4 550.657 377.952C550.657 376.504 549.491 375.338 548.043 375.338Z" fill="#263238"/>
</g>
<g opacity="0.4">
<path d="M518.022 390.348H403.13C401.682 390.348 400.516 391.513 400.516 392.961C400.516 394.409 401.682 395.574 403.13 395.574H518.022C519.47 395.574 520.636 394.409 520.636 392.961C520.636 391.513 519.47 390.348 518.022 390.348Z" fill="#263238"/>
</g>
<g opacity="0.6">
<path d="M360.147 523.489H323.345C321.19 523.489 319.459 525.22 319.459 527.374C319.459 529.528 321.19 531.259 323.345 531.259H360.147C362.301 531.259 364.032 529.528 364.032 527.374C364.032 525.22 362.301 523.489 360.147 523.489Z" fill="#263238"/>
</g>
<path d="M559.381 540.617H319.459V612.132H559.381V540.617Z" fill="#DBDBDB"/>
<path d="M560.158 612.874H318.718V539.84H560.158V612.874ZM320.236 611.391H558.674V541.359H320.236V611.391Z" fill="#263238"/>
<path d="M390.839 547.822H327.795V595.922H390.839V547.822Z" fill="#263238"/>
<path d="M390.839 584.268V595.922H327.795V585.08L347.715 570.318L368.2 585.08L379.784 577.699L390.839 584.268Z" fill="#FDD91E"/>
<path d="M374.946 561.454C374.946 564.95 372.12 567.811 368.624 567.811C365.127 567.811 362.266 564.985 362.266 561.489C362.266 557.993 365.092 555.132 368.588 555.132C372.085 555.132 374.91 557.958 374.91 561.454H374.946Z" fill="#F0FF00"/>
<g opacity="0.4">
<path d="M354.637 600.443H329.808C328.36 600.337 327.088 601.431 326.982 602.879C326.876 604.327 327.971 605.599 329.419 605.705C329.561 605.705 329.702 605.705 329.808 605.705H354.637C356.085 605.811 357.357 604.716 357.463 603.268C357.569 601.82 356.474 600.549 355.026 600.443C354.884 600.443 354.743 600.443 354.637 600.443Z" fill="#263238"/>
</g>
<g opacity="0.4">
<path d="M548.043 549.481H403.095C401.646 549.481 400.481 550.647 400.481 552.095C400.481 553.543 401.646 554.708 403.095 554.708H548.043C549.491 554.708 550.657 553.543 550.657 552.095C550.657 550.647 549.491 549.481 548.043 549.481Z" fill="#263238"/>
</g>
<g opacity="0.4">
<path d="M548.043 564.491H403.095C401.646 564.491 400.481 565.656 400.481 567.104C400.481 568.552 401.646 569.718 403.095 569.718H548.043C549.491 569.718 550.657 568.552 550.657 567.104C550.657 565.656 549.491 564.491 548.043 564.491Z" fill="#263238"/>
</g>
<g opacity="0.4">
<path d="M518.022 579.5H403.13C401.682 579.5 400.516 580.665 400.516 582.113C400.516 583.561 401.682 584.727 403.13 584.727H518.022C519.47 584.727 520.636 583.561 520.636 582.113C520.636 580.665 519.47 579.5 518.022 579.5Z" fill="#263238"/>
</g>
<path d="M559.381 429.513H319.459V501.028H559.381V429.513Z" fill="#DBDBDB"/>
<path d="M560.158 501.805H318.718V428.771H560.158V501.805ZM320.236 500.286H558.674V430.255H320.236V500.286Z" fill="#263238"/>
<path d="M390.839 436.718H327.795V484.818H390.839V436.718Z" fill="#263238"/>
<path d="M390.839 473.164V484.818H327.795V473.976L347.715 459.249L368.2 473.976L379.784 466.595L390.839 473.164Z" fill="#FDD91E"/>
<path d="M374.946 450.35C374.946 453.846 372.12 456.707 368.624 456.707C365.127 456.707 362.266 453.881 362.266 450.385C362.266 446.889 365.092 444.028 368.588 444.028C372.085 444.028 374.91 446.854 374.91 450.35H374.946Z" fill="#F0FF00"/>
<g opacity="0.4">
<path d="M354.637 489.374H329.808C328.36 489.268 327.088 490.363 326.982 491.811C326.876 493.258 327.971 494.53 329.419 494.636C329.561 494.636 329.702 494.636 329.808 494.636H354.637C356.085 494.742 357.357 493.647 357.463 492.199C357.569 490.751 356.474 489.48 355.026 489.374C354.884 489.374 354.743 489.374 354.637 489.374Z" fill="#263238"/>
</g>
<g opacity="0.4">
<path d="M548.043 438.413H403.095C401.646 438.413 400.481 439.579 400.481 441.026C400.481 442.474 401.646 443.64 403.095 443.64H548.043C549.491 443.64 550.657 442.474 550.657 441.026C550.657 439.579 549.491 438.413 548.043 438.413Z" fill="#263238"/>
</g>
<g opacity="0.4">
<path d="M548.043 453.422H403.095C401.646 453.422 400.481 454.588 400.481 456.036C400.481 457.484 401.646 458.649 403.095 458.649H548.043C549.491 458.649 550.657 457.484 550.657 456.036C550.657 454.588 549.491 453.422 548.043 453.422Z" fill="#263238"/>
</g>
<g opacity="0.4">
<path d="M518.022 468.432H403.13C401.682 468.432 400.516 469.597 400.516 471.045C400.516 472.493 401.682 473.658 403.13 473.658H518.022C519.47 473.658 520.636 472.493 520.636 471.045C520.636 469.597 519.47 468.432 518.022 468.432Z" fill="#263238"/>
</g>
<g opacity="0.4">
<path d="M269.978 467.619H198.598C197.15 467.619 195.985 468.785 195.985 470.232C195.985 471.68 197.15 472.846 198.598 472.846H269.978C271.426 472.846 272.591 471.68 272.591 470.232C272.591 468.785 271.426 467.619 269.978 467.619Z" fill="#263238"/>
</g>
<g opacity="0.4">
<path d="M269.978 589.177H198.598C197.15 589.177 195.985 590.342 195.985 591.79C195.985 593.238 197.15 594.404 198.598 594.404H269.978C271.426 594.404 272.591 593.238 272.591 591.79C272.591 590.342 271.426 589.177 269.978 589.177Z" fill="#263238"/>
</g>
<g opacity="0.4">
<path d="M269.978 528.398H198.598C197.15 528.292 195.879 529.387 195.773 530.835C195.667 532.283 196.762 533.554 198.21 533.66C198.351 533.66 198.492 533.66 198.598 533.66H269.978C271.426 533.766 272.697 532.671 272.803 531.223C272.909 529.776 271.814 528.504 270.366 528.398C270.225 528.398 270.084 528.398 269.978 528.398Z" fill="#263238"/>
</g>
<path d="M479.807 228.248C501.175 235.275 553.094 262.999 561.959 274.865C570.824 286.731 564.502 311.452 544.723 317.703C524.945 323.954 432.268 317.703 432.268 317.703C432.268 317.703 424.745 322.541 422.591 320.493C420.436 318.445 419.589 284.471 427.359 284.683C433.681 284.894 436.188 287.932 436.188 287.932L476.593 280.268C476.593 280.268 463.066 264.376 463.066 248.095" fill="#E6E51D"/>
<mask id="mask5_1024_1683" style="mask-type:luminance" maskUnits="userSpaceOnUse" x="421" y="228" width="145" height="93">
<path d="M479.807 228.248C501.175 235.275 553.094 262.999 561.959 274.865C570.824 286.731 564.502 311.452 544.723 317.703C524.945 323.954 432.268 317.703 432.268 317.703C432.268 317.703 424.745 322.541 422.591 320.493C420.436 318.445 419.589 284.471 427.359 284.683C433.681 284.894 436.188 287.932 436.188 287.932L476.593 280.268C476.593 280.268 463.066 264.376 463.066 248.095" fill="white"/>
</mask>
<g mask="url(#mask5_1024_1683)">
<g opacity="0.2">
<path d="M544.723 317.703C524.91 323.954 432.268 317.703 432.268 317.703C432.268 317.703 424.745 322.541 422.591 320.493C421.319 319.327 420.507 307.92 421.496 298.279C422.661 303.294 424.145 308.909 425.204 310.534C427.182 313.712 434.705 310.534 434.705 310.534C433.999 303.894 434.528 297.149 436.224 290.686L444.029 307.391C444.029 307.391 518.305 311.734 545.642 300.257C557.014 295.489 561.888 286.448 563.654 277.513C569.941 290.086 563.195 311.911 544.759 317.738L544.723 317.703Z" fill="black"/>
</g>
<g opacity="0.2">
<path d="M498.774 275.712L476.593 280.233C474.933 278.184 473.379 276.03 472.002 273.805C472.249 267.907 473.097 260.103 475.604 257.101C479.878 251.98 479.101 265.4 483.127 272.922C483.127 272.922 498.35 260.597 504.389 263.422C510.429 266.248 502.588 266.777 498.809 275.748L498.774 275.712Z" fill="black"/>
</g>
</g>
<path d="M424.18 321.729C423.332 321.729 422.626 321.517 422.096 321.023C419.871 318.904 419.412 296.478 422.944 287.967C424.074 285.283 425.522 283.941 427.323 283.941C427.323 283.941 427.394 283.941 427.429 283.941C432.833 284.117 435.623 286.272 436.506 287.119L475.286 279.774C472.32 276.03 462.395 262.327 462.395 248.13C462.395 247.707 462.748 247.389 463.137 247.389C463.525 247.389 463.878 247.742 463.878 248.13C463.878 263.917 477.088 279.632 477.194 279.809C477.37 280.021 477.406 280.303 477.335 280.55C477.229 280.798 477.017 280.974 476.77 281.045L436.365 288.708C436.118 288.744 435.835 288.673 435.659 288.461C435.659 288.461 433.257 285.671 427.394 285.459C426.37 285.459 425.451 286.307 424.604 288.002C420.577 296.443 421.849 318.48 423.156 319.998C424.321 321.129 429.054 318.939 431.879 317.138C432.021 317.067 432.162 317.032 432.339 317.032C433.257 317.103 525.086 323.212 544.511 317.032C553.588 314.171 560.582 307.002 563.654 297.432C566.303 289.238 565.42 280.762 561.394 275.359C552.529 263.493 500.787 235.982 479.595 229.024C479.207 228.883 478.995 228.459 479.101 228.071C479.242 227.682 479.666 227.471 480.054 227.576C501.422 234.604 553.588 262.398 562.595 274.441C566.904 280.233 567.893 289.203 565.102 297.891C561.853 307.956 554.542 315.443 544.971 318.48C525.581 324.625 438.873 318.939 432.48 318.515C431.138 319.363 427.041 321.764 424.18 321.764V321.729Z" fill="#263238"/>
<path d="M531.973 287.79C531.655 287.79 531.373 287.614 531.267 287.296C530.419 284.965 528.9 282.952 526.887 281.504C526.569 281.257 526.499 280.798 526.711 280.445C526.958 280.127 527.417 280.056 527.77 280.268C529.995 281.928 531.691 284.153 532.644 286.766C532.786 287.155 532.574 287.579 532.185 287.72C532.114 287.72 532.009 287.755 531.938 287.755L531.973 287.79Z" fill="#263238"/>
<path d="M476.629 281.01C476.276 281.01 475.958 280.762 475.887 280.374C475.816 279.95 476.099 279.597 476.523 279.526C480.408 278.891 484.328 277.937 488.107 277.019C499.586 274.229 511.418 271.333 523.144 277.337C523.497 277.513 523.674 277.972 523.462 278.361C523.285 278.714 522.826 278.891 522.437 278.679C511.206 272.958 500.151 275.642 488.461 278.502C484.646 279.42 480.69 280.409 476.735 281.045C476.699 281.045 476.664 281.045 476.629 281.045V281.01Z" fill="#263238"/>
<path d="M530.772 273.664C530.772 273.664 530.455 273.628 530.313 273.487C529.183 272.604 527.876 271.968 526.499 271.651C526.11 271.545 525.828 271.156 525.934 270.768C526.04 270.379 526.428 270.097 526.817 270.203C528.406 270.556 529.925 271.297 531.232 272.322C531.55 272.569 531.62 273.063 531.373 273.381C531.232 273.558 531.02 273.664 530.772 273.664Z" fill="#263238"/>
<path d="M498.067 276.312C498.067 276.312 497.749 276.242 497.608 276.136C497.29 275.888 497.22 275.394 497.502 275.076C502.941 268.26 513.926 268.507 521.696 269.284C522.119 269.32 522.402 269.708 522.367 270.097C522.331 270.52 521.978 270.803 521.554 270.768C514.137 270.026 503.683 269.779 498.703 276.03C498.562 276.206 498.35 276.312 498.103 276.312H498.067Z" fill="#263238"/>
<path d="M435.094 302.941C434.74 302.941 434.423 302.693 434.352 302.34C433.328 297.149 434.281 291.781 437.072 287.26C437.283 286.907 437.743 286.801 438.096 287.013C438.449 287.225 438.555 287.684 438.343 288.037C435.765 292.24 434.846 297.219 435.8 302.058C435.871 302.481 435.623 302.87 435.2 302.941C435.164 302.941 435.094 302.941 435.058 302.941H435.094Z" fill="#263238"/>
<path d="M472.496 275.394C472.496 275.394 472.426 275.394 472.355 275.394C469.883 274.97 467.552 273.946 465.609 272.392C465.291 272.145 465.221 271.651 465.468 271.333C465.715 271.015 466.209 270.944 466.527 271.192C468.293 272.569 470.412 273.522 472.602 273.876C473.026 273.946 473.273 274.335 473.203 274.723C473.132 275.076 472.814 275.359 472.461 275.359L472.496 275.394Z" fill="#263238"/>
<path d="M462.395 269.179C462.183 269.179 462.007 269.108 461.83 268.931C460.382 267.342 459.075 265.612 457.945 263.811C457.733 263.457 457.839 262.998 458.192 262.786C458.545 262.575 459.004 262.681 459.216 263.034C460.276 264.764 461.547 266.424 462.925 267.943C463.207 268.26 463.172 268.72 462.89 269.002C462.748 269.143 462.572 269.214 462.395 269.214V269.179Z" fill="#263238"/>
</g>
<defs>
<clipPath id="clip0_1024_1683">
<rect width="654" height="665" fill="white"/>
</clipPath>
</defs>
</svg>
