<svg width="488" height="46" viewBox="0 0 488 46" fill="none" xmlns="http://www.w3.org/2000/svg">
<path d="M75 43H488" stroke="#D3D3D3" stroke-width="5"/>
<path d="M27.44 44.98H7.56V23.56C7.46667 20.48 7.88667 17.5867 8.82 14.88C9.84667 12.1733 11.2467 9.79333 13.02 7.73999C14.7933 5.68666 16.8933 4.00666 19.32 2.69999C21.84 1.29999 24.5467 0.413328 27.44 0.0399935V9.28C23.8933 10.4933 21.4667 12.3133 20.16 14.74C18.8533 17.0733 18.2 19.9667 18.2 23.42H27.44V44.98ZM57.26 44.98H37.38V23.56C37.2867 20.48 37.7067 17.5867 38.64 14.88C39.6667 12.1733 41.0667 9.79333 42.84 7.73999C44.6133 5.68666 46.7133 4.00666 49.14 2.69999C51.66 1.29999 54.3667 0.413328 57.26 0.0399935V9.28C53.7133 10.4933 51.2867 12.3133 49.98 14.74C48.6733 17.0733 48.02 19.9667 48.02 23.42H57.26V44.98Z" fill="#E6E51D"/>
</svg>
