<svg width="487" height="45" viewBox="0 0 487 45" fill="none" xmlns="http://www.w3.org/2000/svg">
<path d="M0 4H413" stroke="#D3D3D3" stroke-width="5"/>
<path d="M459.56 0.0199985L479.44 0.0200003L479.44 21.44C479.533 24.52 479.113 27.4133 478.18 30.12C477.153 32.8267 475.753 35.2067 473.98 37.26C472.207 39.3133 470.107 40.9933 467.68 42.3C465.16 43.7 462.453 44.5867 459.56 44.96L459.56 35.72C463.107 34.5067 465.533 32.6867 466.84 30.26C468.147 27.9267 468.8 25.0333 468.8 21.58L459.56 21.58L459.56 0.0199985ZM429.74 0.0199959L449.62 0.0199977L449.62 21.44C449.713 24.52 449.293 27.4133 448.36 30.12C447.333 32.8267 445.933 35.2067 444.16 37.26C442.387 39.3133 440.287 40.9933 437.86 42.3C435.34 43.7 432.633 44.5867 429.74 44.96L429.74 35.72C433.287 34.5067 435.713 32.6867 437.02 30.26C438.327 27.9267 438.98 25.0333 438.98 21.58L429.74 21.58L429.74 0.0199959Z" fill="#E6E51D"/>
</svg>
