<svg width="35" height="35" viewBox="0 0 35 35" fill="none" xmlns="http://www.w3.org/2000/svg">
<g id="Property 1=Creative Assets&#194;&#160;">
<path id="Vector" d="M3.36299 21.2571L4.28371 21.5258C4.3837 21.5575 4.47467 21.6126 4.54908 21.6865C4.62348 21.7605 4.67916 21.8511 4.71149 21.9509C4.88688 22.4547 5.09178 22.9478 5.32512 23.4275C5.36863 23.5178 5.38962 23.6173 5.38627 23.7175C5.38292 23.8177 5.35534 23.9155 5.30589 24.0027L4.853 24.8321C4.68139 25.1471 4.61712 25.5095 4.66993 25.8643C4.72274 26.2192 4.88975 26.5471 5.14567 26.7985L8.21757 29.8704C8.46954 30.1196 8.79494 30.2811 9.14575 30.3312C9.49655 30.3813 9.85417 30.3173 10.1658 30.1487L11 29.6915C11.1245 29.6204 11.2162 29.5032 11.2552 29.3653C11.2942 29.2273 11.2774 29.0795 11.2085 28.9537C11.1396 28.828 11.024 28.7343 10.8868 28.6929C10.7495 28.6515 10.6014 28.6657 10.4745 28.7323L9.64029 29.1895C9.53646 29.2459 9.41718 29.2674 9.30018 29.2507C9.18319 29.2339 9.07471 29.1799 8.99088 29.0966L5.90349 26.0092C5.82013 25.925 5.7662 25.8161 5.74974 25.6988C5.73328 25.5815 5.75518 25.462 5.81216 25.3582C6.05417 24.8751 6.5148 24.2568 6.48025 23.6962C6.45819 22.9522 5.9368 22.3112 5.7428 21.5872C5.65191 21.3238 5.49994 21.0858 5.29932 20.8925C5.09871 20.6993 4.85517 20.5563 4.58864 20.4753L3.67059 20.2077C3.55737 20.1744 3.45811 20.105 3.38785 20.0102C3.3176 19.9154 3.28019 19.8002 3.28129 19.6822V15.3179C3.28011 15.2 3.31737 15.085 3.38744 14.9903C3.45751 14.8956 3.55656 14.8263 3.66957 14.7929L4.58548 14.5259C5.68496 14.2827 5.84314 12.8999 6.28589 12.0959C6.76597 11.2209 6.24593 10.3902 5.81108 9.6403C5.75454 9.53604 5.73315 9.41632 5.7501 9.29893C5.76704 9.18154 5.82142 9.07275 5.90514 8.98874L8.98345 5.90456C9.40827 5.46907 10.0081 6.0662 10.473 6.2661C11.4926 6.85661 12.3721 6.05042 13.3883 5.7518C13.6576 5.66409 13.9016 5.51247 14.0996 5.30991C14.2975 5.10735 14.4434 4.85988 14.5248 4.58864L14.7924 3.67059C14.8257 3.55738 14.895 3.45812 14.9899 3.38786C15.0847 3.31761 15.1999 3.28019 15.3179 3.28129H19.6822C19.8 3.28011 19.915 3.31737 20.0098 3.38744C20.1045 3.45751 20.1738 3.55656 20.2072 3.66957C20.4366 4.5279 20.636 5.45284 21.6113 5.75129C22.6266 6.04879 23.5068 6.85503 24.5256 6.26665L25.3656 5.81114C25.4696 5.75448 25.5891 5.73291 25.7063 5.74966C25.8235 5.7664 25.9322 5.82056 26.0161 5.90407L29.0955 8.98932C29.5298 9.41471 28.9396 10.0022 28.735 10.4719C28.1325 11.4813 28.97 12.443 29.2573 13.4129C29.3482 13.6763 29.5001 13.9143 29.7007 14.1076C29.9013 14.3009 30.1449 14.4439 30.4114 14.5248L31.3295 14.7924C31.4427 14.8257 31.5419 14.8951 31.6122 14.9899C31.6825 15.0847 31.7199 15.1999 31.7188 15.3179V19.6822C31.72 19.8 31.6827 19.915 31.6126 20.0098C31.5426 20.1045 31.4435 20.1738 31.3305 20.2072L30.4146 20.4742C29.315 20.7175 29.157 22.1001 28.7142 22.9042C28.234 23.7795 28.7542 24.6097 29.189 25.3598C29.2455 25.4639 29.2669 25.5835 29.2501 25.7008C29.2332 25.8181 29.179 25.9268 29.0955 26.0108L26.0108 29.0955C25.9266 29.1793 25.8175 29.2336 25.6998 29.2502C25.5822 29.2669 25.4623 29.245 25.3582 29.1879C24.6348 28.7697 23.8022 28.2468 22.9634 28.6843C22.0939 29.1626 20.7538 29.2874 20.4753 30.4114L20.2077 31.3295C20.1744 31.4427 20.105 31.5419 20.0102 31.6122C19.9154 31.6825 19.8002 31.7199 19.6822 31.7188H15.3179C15.2 31.72 15.085 31.6827 14.9903 31.6126C14.8956 31.5426 14.8263 31.4435 14.7929 31.3305L14.5248 30.4109C14.4568 30.1865 14.3444 29.9781 14.1942 29.7981C14.044 29.618 13.8591 29.4701 13.6505 29.363C13.5222 29.2997 13.3741 29.2892 13.238 29.3338C13.102 29.3784 12.9888 29.4745 12.9229 29.6016C12.8569 29.7286 12.8434 29.8765 12.8852 30.0134C12.9269 30.1503 13.0207 30.2654 13.1464 30.334C13.2244 30.3722 13.2938 30.426 13.3503 30.492C13.4068 30.558 13.4492 30.6349 13.4748 30.7179L13.7435 31.6381C13.8423 31.9786 14.0495 32.2775 14.3336 32.4895C14.6178 32.7014 14.9634 32.8149 15.3179 32.8125H19.6822C20.0369 32.8148 20.3826 32.7012 20.6669 32.489C20.9511 32.2769 21.1584 31.9778 21.2571 31.6371L21.5258 30.7164C21.5575 30.6164 21.6126 30.5254 21.6865 30.451C21.7605 30.3766 21.8511 30.3209 21.9509 30.2886C22.4575 30.1121 22.9532 29.906 23.4356 29.6712C23.5251 29.6298 23.6233 29.6103 23.7219 29.6143C23.8205 29.6183 23.9168 29.6457 24.0027 29.6942L24.8321 30.1471C25.1441 30.317 25.5026 30.3817 25.8542 30.3315C26.2059 30.2814 26.532 30.1191 26.7841 29.8688L29.8688 26.7841C30.1191 26.5324 30.2814 26.2066 30.3317 25.8552C30.382 25.5038 30.3177 25.1456 30.1481 24.8337L29.6942 24.0027C29.6448 23.9092 29.6188 23.8052 29.6183 23.6994C29.6178 23.5937 29.643 23.4894 29.6915 23.3955C29.9222 22.9324 30.1203 22.4538 30.2843 21.9632C30.4417 21.4338 31.1482 21.4446 31.6382 21.2566C31.9786 21.1578 32.2775 20.9506 32.4895 20.6664C32.7015 20.3823 32.8149 20.0367 32.8125 19.6822V15.3179C32.8148 14.9632 32.7012 14.6174 32.489 14.3332C32.2769 14.0489 31.9778 13.8417 31.6371 13.7429L30.7164 13.4743C30.6164 13.4426 30.5254 13.3875 30.451 13.3136C30.3766 13.2396 30.3209 13.149 30.2886 13.0492C30.1121 12.5426 29.906 12.0469 29.6712 11.5645C29.4411 11.1606 29.9993 10.5178 30.147 10.1679C30.317 9.85613 30.3818 9.49778 30.3318 9.14618C30.2818 8.79458 30.1196 8.46852 29.8693 8.21651L26.79 5.13126C26.5385 4.88104 26.2131 4.71865 25.862 4.66823C25.5109 4.61781 25.1529 4.68206 24.8412 4.85141L24.0027 5.3059C23.9091 5.35502 23.8051 5.3809 23.6994 5.38136C23.5937 5.38183 23.4895 5.35686 23.3955 5.30857C22.9324 5.07789 22.4538 4.87981 21.9632 4.71575C21.4343 4.55918 21.444 3.8504 21.2566 3.36192C21.1578 3.02146 20.9506 2.72255 20.6664 2.51058C20.3823 2.29862 20.0367 2.1852 19.6822 2.18754H15.3179C14.9632 2.18529 14.6174 2.29887 14.3332 2.51102C14.0489 2.72318 13.8417 3.02232 13.7429 3.36299L13.4738 4.28532C13.4411 4.38714 13.3842 4.47953 13.3081 4.55458C13.2319 4.62964 13.1387 4.68512 13.0364 4.7163C12.5463 4.87997 12.0683 5.07751 11.6056 5.3075C11.1423 5.56883 10.5795 5.03119 10.1621 4.85305C9.85 4.68305 9.49138 4.61836 9.13958 4.66858C8.78778 4.71881 8.4616 4.88128 8.20957 5.13181L5.13126 8.21598C4.88101 8.46773 4.71866 8.79349 4.66834 9.14487C4.61802 9.49625 4.68241 9.85449 4.85195 10.1664L5.3059 10.9974C5.35527 11.0909 5.3813 11.1949 5.38176 11.3006C5.38222 11.4064 5.35711 11.5106 5.30855 11.6046C5.07788 12.0677 4.87979 12.5463 4.71574 13.0369C4.68437 13.1396 4.62851 13.2331 4.55296 13.3094C4.47741 13.3857 4.38444 13.4425 4.28207 13.4748L3.36188 13.7435C3.02143 13.8423 2.72253 14.0495 2.51058 14.3337C2.29863 14.6178 2.1852 14.9634 2.18754 15.3179V19.6822C2.18529 20.0369 2.29887 20.3826 2.51102 20.6669C2.72318 20.9511 3.02232 21.1584 3.36299 21.2571Z" fill="white"/>
<path id="Vector_2" d="M11.2042 11.2063C12.7208 9.70321 14.7248 8.79183 16.8544 8.6367C18.984 8.48157 21.0989 9.09292 22.8173 10.3604C22.9336 10.4471 23.0796 10.484 23.2231 10.4631C23.3666 10.4421 23.496 10.3651 23.5826 10.2488C23.6693 10.1325 23.7063 9.98652 23.6853 9.84299C23.6644 9.69947 23.5873 9.57014 23.471 9.48345C16.96 4.59336 7.38271 9.39298 7.50329 17.5494C7.41046 22.8914 12.1489 27.6012 17.4693 27.4925C22.808 27.6356 27.5812 22.9234 27.4972 17.5482C27.5141 15.3799 26.819 13.2661 25.5186 11.531C25.4319 11.4147 25.3026 11.3377 25.159 11.3167C25.0155 11.2958 24.8695 11.3327 24.7533 11.4194C24.637 11.5061 24.5599 11.6354 24.5389 11.7789C24.518 11.9225 24.555 12.0684 24.6416 12.1847C25.3628 13.1563 25.8787 14.2644 26.1581 15.4417C26.4375 16.6189 26.4746 17.8407 26.2669 19.0327C26.0593 20.2248 25.6114 21.3621 24.9504 22.3756C24.2895 23.389 23.4293 24.2575 22.4221 24.928V19.1424C22.4167 19.0353 22.3852 18.9312 22.3302 18.8391L17.9552 12.2766C17.9024 12.2057 17.8338 12.1482 17.7548 12.1085C17.6758 12.0689 17.5886 12.0483 17.5002 12.0483C17.4118 12.0483 17.3247 12.0689 17.2457 12.1085C17.1667 12.1482 17.098 12.2057 17.0452 12.2766L12.6702 18.8391C12.6163 18.9277 12.5854 19.0284 12.5805 19.132C12.571 19.1413 12.5828 24.9177 12.5783 24.9286C11.4764 24.2008 10.5503 23.2368 9.86737 22.1065C9.18446 20.9762 8.76187 19.708 8.63029 18.394C8.49871 17.08 8.66144 15.7531 9.10667 14.5099C9.55189 13.2666 10.2684 12.1381 11.2042 11.2063ZM18.0471 26.3759V19.6893H21.3284V25.5336C20.2984 26.0212 19.1846 26.3071 18.0471 26.3759ZM17.5002 13.5658L20.8536 18.5955H14.1469L17.5002 13.5658ZM13.6721 19.6893H16.9534V26.376C15.8159 26.3075 14.7021 26.0218 13.6721 25.5344V19.6893Z" fill="white"/>
</g>
</svg>
