<svg width="302" height="250" viewBox="0 0 302 250" fill="none" xmlns="http://www.w3.org/2000/svg">
<g clip-path="url(#clip0_348_664)">
<path d="M151 16.716V12.6006C151 5.9187 145.581 0.5 138.899 0.5H12.7205C6.03857 0.5 0.619873 5.9187 0.619873 12.6006V230.807H301.38V28.8166C301.38 22.1347 295.961 16.716 289.279 16.716H151Z" fill="#F9DF5C"/>
<path d="M290.843 34.1551H13.9736V233.023H290.843V34.1551Z" fill="white"/>
<path d="M146.709 59.0178L142.243 71.3941H12.7204C6.03851 71.3941 0.619812 76.8128 0.619812 83.4947V237.569C0.619812 244.251 6.03851 249.67 12.7204 249.67H289.279C295.961 249.67 301.38 244.251 301.38 237.569V63.1232C301.38 56.4413 295.961 51.0226 289.279 51.0226H158.093C152.995 51.0226 148.438 54.2207 146.709 59.0178Z" fill="#F3CC30"/>
<path d="M301.38 237.569V137.12C217.839 218.376 72.9377 240.12 3.9834 245.925C6.18396 248.226 9.28179 249.67 12.7205 249.67H289.28C295.961 249.67 301.38 244.251 301.38 237.569Z" fill="#EDBD31"/>
<path d="M122.754 81.139H20.4852C15.0865 81.139 10.7155 85.515 10.7155 90.9087V112.553C27.9189 100.769 66.7371 85.9211 122.759 81.139H122.754Z" fill="#F6D738"/>
</g>
<defs>
<clipPath id="clip0_348_664">
<rect width="300.76" height="249.17" fill="white" transform="translate(0.619873 0.5)"/>
</clipPath>
</defs>
</svg>
