<svg width="70" height="69" viewBox="0 0 70 69" fill="none" xmlns="http://www.w3.org/2000/svg">
<path d="M66.75 66.375L45.5 45.125M3 27.4167C3 30.6724 3.64126 33.8962 4.88715 36.904C6.13305 39.9119 7.95919 42.6449 10.2613 44.947C12.5634 47.2491 15.2964 49.0753 18.3043 50.3212C21.3122 51.5671 24.536 52.2083 27.7917 52.2083C31.0474 52.2083 34.2712 51.5671 37.279 50.3212C40.2869 49.0753 43.0199 47.2491 45.322 44.947C47.6241 42.6449 49.4503 39.9119 50.6962 36.904C51.9421 33.8962 52.5833 30.6724 52.5833 27.4167C52.5833 24.161 51.9421 20.9372 50.6962 17.9293C49.4503 14.9214 47.6241 12.1884 45.322 9.88631C43.0199 7.58419 40.2869 5.75805 37.279 4.51215C34.2712 3.26625 31.0474 2.625 27.7917 2.625C24.536 2.625 21.3122 3.26625 18.3043 4.51215C15.2964 5.75805 12.5634 7.58419 10.2613 9.88631C7.95919 12.1884 6.13305 14.9214 4.88715 17.9293C3.64126 20.9372 3 24.161 3 27.4167Z" stroke="white" stroke-width="5" stroke-linecap="round" stroke-linejoin="round"/>
</svg>
