<svg width="55" height="55" viewBox="0 0 55 55" fill="none" xmlns="http://www.w3.org/2000/svg">
<g filter="url(#filter0_d_837_356)">
<circle cx="27.5" cy="23.5" r="23.5" fill="#FCEE21"/>
</g>
<g clip-path="url(#clip0_837_356)">
<path d="M37.1875 13.875H36.0625V12H34.1875V13.875H21.8125V12H19.9375V13.875H18.8125C17.2617 13.875 16 15.1367 16 16.6875V33.1875C16 34.7383 17.2617 36 18.8125 36H37.1875C38.7383 36 40 34.7383 40 33.1875V16.6875C40 15.1367 38.7383 13.875 37.1875 13.875ZM38.125 33.1875C38.125 33.7044 37.7044 34.125 37.1875 34.125H18.8125C18.2956 34.125 17.875 33.7044 17.875 33.1875V20.8125H38.125V33.1875ZM38.125 18.9375H17.875V16.6875C17.875 16.1706 18.2956 15.75 18.8125 15.75H19.9375V17.625H21.8125V15.75H34.1875V17.625H36.0625V15.75H37.1875C37.7044 15.75 38.125 16.1706 38.125 16.6875V18.9375Z" fill="black"/>
<path d="M21.4375 22.7812H19.5625V24.6562H21.4375V22.7812Z" fill="black"/>
<path d="M25.1875 22.7812H23.3125V24.6562H25.1875V22.7812Z" fill="black"/>
<path d="M28.9375 22.7812H27.0625V24.6562H28.9375V22.7812Z" fill="black"/>
<path d="M32.6875 22.7812H30.8125V24.6562H32.6875V22.7812Z" fill="black"/>
<path d="M36.4375 22.7812H34.5625V24.6562H36.4375V22.7812Z" fill="black"/>
<path d="M21.4375 26.5312H19.5625V28.4062H21.4375V26.5312Z" fill="black"/>
<path d="M25.1875 26.5312H23.3125V28.4062H25.1875V26.5312Z" fill="black"/>
<path d="M28.9375 26.5312H27.0625V28.4062H28.9375V26.5312Z" fill="black"/>
<path d="M32.6875 26.5312H30.8125V28.4062H32.6875V26.5312Z" fill="black"/>
<path d="M21.4375 30.2812H19.5625V32.1562H21.4375V30.2812Z" fill="black"/>
<path d="M25.1875 30.2812H23.3125V32.1562H25.1875V30.2812Z" fill="black"/>
<path d="M28.9375 30.2812H27.0625V32.1562H28.9375V30.2812Z" fill="black"/>
<path d="M32.6875 30.2812H30.8125V32.1562H32.6875V30.2812Z" fill="black"/>
<path d="M36.4375 26.5312H34.5625V28.4062H36.4375V26.5312Z" fill="black"/>
</g>
<defs>
<filter id="filter0_d_837_356" x="0" y="0" width="55" height="55" filterUnits="userSpaceOnUse" color-interpolation-filters="sRGB">
<feFlood flood-opacity="0" result="BackgroundImageFix"/>
<feColorMatrix in="SourceAlpha" type="matrix" values="0 0 0 0 0 0 0 0 0 0 0 0 0 0 0 0 0 0 127 0" result="hardAlpha"/>
<feOffset dy="4"/>
<feGaussianBlur stdDeviation="2"/>
<feComposite in2="hardAlpha" operator="out"/>
<feColorMatrix type="matrix" values="0 0 0 0 0 0 0 0 0 0 0 0 0 0 0 0 0 0 0.25 0"/>
<feBlend mode="normal" in2="BackgroundImageFix" result="effect1_dropShadow_837_356"/>
<feBlend mode="normal" in="SourceGraphic" in2="effect1_dropShadow_837_356" result="shape"/>
</filter>
<clipPath id="clip0_837_356">
<rect width="24" height="24" fill="white" transform="translate(16 12)"/>
</clipPath>
</defs>
</svg>
