<svg width="60" height="60" viewBox="0 0 60 60" fill="none" xmlns="http://www.w3.org/2000/svg">
<rect width="60" height="60" rx="7" fill="#E7E61D"/>
<path d="M20.4352 28.7805C20.0565 28.7805 19.7495 28.4735 19.7495 28.0947V25.7639C19.7495 25.385 20.0565 25.0781 20.4352 25.0781C20.8141 25.0781 21.121 25.385 21.121 25.7639V28.0947C21.121 28.4735 20.8141 28.7805 20.4352 28.7805Z" fill="black"/>
<path d="M28.6843 32.6032C28.3055 32.6032 27.9985 32.2963 27.9985 31.9175V25.7639C27.9985 25.385 28.3055 25.0781 28.6843 25.0781C29.0631 25.0781 29.37 25.385 29.37 25.7639V31.9175C29.37 32.2962 29.0631 32.6032 28.6843 32.6032Z" fill="black"/>
<path d="M24.56 17.7865C22.0925 17.7865 20.085 15.6812 20.085 13.0934C20.085 10.5057 22.0925 8.40039 24.56 8.40039C27.0274 8.40039 29.035 10.5057 29.035 13.0934C29.035 15.6812 27.0274 17.7865 24.56 17.7865ZM24.56 9.77175C22.8486 9.77175 21.4563 11.2619 21.4563 13.0934C21.4563 14.925 22.8486 16.4151 24.56 16.4151C26.2713 16.4151 27.6636 14.9251 27.6636 13.0934C27.6636 11.2619 26.2713 9.77175 24.56 9.77175Z" fill="black"/>
<path d="M24.5598 51.6004C24.1809 51.6004 23.874 51.2934 23.874 50.9147V36.9308C23.874 36.552 24.1809 36.2451 24.5598 36.2451C24.9385 36.2451 25.2455 36.552 25.2455 36.9308V50.9147C25.2454 51.2934 24.9385 51.6004 24.5598 51.6004Z" fill="black"/>
<path d="M23.293 32.6035H20.435C17.9488 32.6035 15.9263 30.5809 15.9263 28.095C15.9263 27.7162 16.2333 27.4093 16.612 27.4093C16.9908 27.4093 17.2977 27.7162 17.2977 28.095C17.2977 29.8247 18.7051 31.2321 20.4351 31.2321H23.2931C23.9689 31.2321 24.5188 30.6822 24.5188 30.0064C24.5188 29.3305 23.9689 28.7806 23.2931 28.7806H20.4351C20.0564 28.7806 19.7494 28.4736 19.7494 28.0949C19.7494 27.7161 20.0564 27.4092 20.4351 27.4092H23.2931C24.725 27.4092 25.8902 28.5743 25.8902 30.0063C25.8901 31.4383 24.725 32.6035 23.293 32.6035Z" fill="black"/>
<path d="M28.6844 51.6002H20.435C20.0563 51.6002 19.7493 51.2932 19.7493 50.9145V31.9172C19.7493 31.5385 20.0563 31.2315 20.435 31.2315C20.8138 31.2315 21.1207 31.5385 21.1207 31.9172V50.2288H27.9987V31.9172C27.9987 31.5385 28.3058 31.2315 28.6845 31.2315C29.0633 31.2315 29.3702 31.5385 29.3702 31.9172C29.3702 32.547 29.8824 33.0591 30.512 33.0591H30.6797C31.3095 33.0591 31.8219 32.5469 31.8219 31.9172V22.863C31.8219 21.2532 30.5123 19.9437 28.9025 19.9437H20.2171C18.6073 19.9437 17.2977 21.2532 17.2977 22.863V28.0944C17.2977 28.4731 16.9908 28.7801 16.612 28.7801C16.2333 28.7801 15.9263 28.4731 15.9263 28.0944V22.863C15.9263 20.4971 17.8511 18.5723 20.217 18.5723H28.9024C31.2684 18.5723 33.1931 20.4971 33.1931 22.863V31.9172C33.1931 33.3031 32.0654 34.4305 30.6795 34.4305H30.5118C30.101 34.4305 29.7128 34.3313 29.37 34.1559V50.9145C29.3701 51.2932 29.0632 51.6002 28.6844 51.6002Z" fill="black"/>
<path d="M24.6638 29.3615C24.2849 29.3615 23.978 29.0546 23.978 28.6758V24.8889C23.978 24.5101 24.2849 24.2031 24.6638 24.2031C25.0425 24.2031 25.3495 24.5101 25.3495 24.8889V28.6758C25.3495 29.0546 25.0425 29.3615 24.6638 29.3615Z" fill="black"/>
<path d="M24.664 25.5738C23.4161 25.5738 22.4009 24.5587 22.4009 23.311C22.4009 22.0631 23.4161 21.0479 24.664 21.0479C25.9116 21.0479 26.9268 22.063 26.9268 23.311C26.9268 24.5587 25.9116 25.5738 24.664 25.5738ZM24.664 22.4193C24.1722 22.4193 23.7722 22.8192 23.7722 23.311C23.7722 23.8025 24.1722 24.2024 24.664 24.2024C25.1555 24.2024 25.5554 23.8026 25.5554 23.311C25.5554 22.8192 25.1555 22.4193 24.664 22.4193Z" fill="black"/>
<path d="M32.5076 51.6H16.612C16.2333 51.6 15.9263 51.293 15.9263 50.9142C15.9263 50.5354 16.2333 50.2285 16.612 50.2285H32.5076C32.8863 50.2285 33.1933 50.5354 33.1933 50.9142C33.1932 51.293 32.8863 51.6 32.5076 51.6Z" fill="black"/>
<path d="M36.1515 21.3174C35.976 21.3174 35.8006 21.2504 35.6667 21.1165C35.3989 20.849 35.3989 20.4147 35.6667 20.1469L41.5619 14.2515C41.7526 14.0616 42.0357 14.0002 42.2875 14.0942C42.5393 14.1885 42.7126 14.4213 42.7308 14.6897L42.9724 18.2347C42.9981 18.6126 42.7129 18.9397 42.335 18.9654C41.9613 18.9936 41.6299 18.7059 41.6043 18.3279L41.4652 16.2876L36.6364 21.1165C36.5024 21.2504 36.3269 21.3174 36.1515 21.3174Z" fill="black"/>
<path d="M36.1516 21.3185C35.9761 21.3185 35.8007 21.2515 35.6667 21.1176C35.3989 20.8497 35.3989 20.4158 35.6667 20.148L40.4956 15.3191L38.4554 15.1801C38.0776 15.1543 37.7921 14.8273 37.8179 14.4494C37.8436 14.0714 38.1782 13.7881 38.5485 13.812L42.0935 14.0532C42.3616 14.0714 42.5947 14.2447 42.689 14.4964C42.7833 14.7482 42.722 15.0319 42.5318 15.2221L36.6363 21.1176C36.5024 21.2516 36.327 21.3185 36.1516 21.3185Z" fill="black"/>
<path d="M42.0468 47.5452C41.8681 47.5452 41.6929 47.4753 41.5619 47.3443L35.6667 41.4488C35.3989 41.181 35.3989 40.7468 35.6667 40.4792C35.9345 40.2114 36.3685 40.2114 36.6363 40.4792L41.4651 45.3081L41.6042 43.2679C41.6299 42.89 41.9602 42.6066 42.3349 42.6305C42.7128 42.6562 42.9981 42.9832 42.9723 43.3611L42.7307 46.9061C42.7125 47.1745 42.5391 47.4073 42.2874 47.5016C42.2091 47.531 42.1276 47.5452 42.0468 47.5452Z" fill="black"/>
<path d="M38.5012 47.7865C38.1439 47.7865 37.8425 47.5093 37.8179 47.1474C37.7921 46.7694 38.0775 46.4423 38.4554 46.4167L40.4956 46.2777L35.6667 41.4488C35.3989 41.1812 35.3989 40.7469 35.6667 40.4792C35.9345 40.2114 36.3686 40.2114 36.6363 40.4792L42.5318 46.3744C42.7219 46.5645 42.7833 46.8482 42.689 47.1C42.5947 47.3517 42.362 47.5251 42.0935 47.5433L38.5485 47.7849C38.5328 47.786 38.5169 47.7865 38.5012 47.7865Z" fill="black"/>
<path d="M43.3882 31.4841H35.051C34.6722 31.4841 34.3652 31.1772 34.3652 30.7984C34.3652 30.4197 34.6722 30.1127 35.051 30.1127H41.8799L40.5358 28.572C40.2868 28.2866 40.3165 27.8533 40.6018 27.6045C40.8868 27.3556 41.3204 27.3851 41.5693 27.6704L43.9049 30.3476C44.0817 30.55 44.1238 30.8375 44.0123 31.0823C43.9011 31.3269 43.6571 31.4841 43.3882 31.4841Z" fill="black"/>
<path d="M41.0523 34.161C40.8925 34.161 40.7317 34.1052 40.6018 33.992C40.3165 33.7431 40.2868 33.3097 40.5358 33.0245L41.8799 31.4838H35.051C34.6722 31.4838 34.3652 31.1768 34.3652 30.798C34.3652 30.4193 34.6722 30.1123 35.051 30.1123H43.3882C43.6572 30.1123 43.9011 30.2696 44.0123 30.5141C44.1237 30.7589 44.0817 31.0463 43.9049 31.2488L41.5693 33.9259C41.4337 34.0814 41.2435 34.161 41.0523 34.161Z" fill="black"/>
</svg>
