<svg width="68" height="68" viewBox="0 0 68 68" fill="none" xmlns="http://www.w3.org/2000/svg">
<g filter="url(#filter0_dd_1052_653)">
<rect x="4" width="60" height="60" rx="7" fill="#E7E61D"/>
</g>
<path fill-rule="evenodd" clip-rule="evenodd" d="M48.139 48.7415H25.6736C25.2857 48.7415 24.9712 48.427 24.9712 48.0391V22.7874C24.9712 22.3995 25.2857 22.085 25.6736 22.085C26.0616 22.085 26.3761 22.3995 26.3761 22.7874V47.3365H47.4366V39.4495C47.4366 39.0615 47.7511 38.747 48.139 38.747C48.5269 38.747 48.8414 39.0615 48.8414 39.4495V48.0391C48.8414 48.4272 48.5269 48.7415 48.139 48.7415Z" fill="black"/>
<path fill-rule="evenodd" clip-rule="evenodd" d="M48.1393 31.4336C47.7514 31.4336 47.4369 31.1191 47.4369 30.7312V15.6604C47.4369 14.1071 46.1732 12.8434 44.6202 12.8434H22.9905C22.6026 12.8434 22.2881 12.5288 22.2881 12.1409C22.2881 11.753 22.6026 11.4385 22.9905 11.4385H44.6202C46.948 11.4385 48.8417 13.3324 48.8417 15.6604V30.7312C48.8417 31.1191 48.5272 31.4336 48.1393 31.4336Z" fill="black"/>
<path fill-rule="evenodd" clip-rule="evenodd" d="M25.6738 23.4895H17.6232C16.7188 23.4895 15.8686 23.1373 15.229 22.4977C14.5893 21.8582 14.2372 21.0079 14.2372 20.1035V16.8774C14.2372 16.3482 14.0311 15.8507 13.657 15.4765C13.2827 15.1024 12.7853 14.8963 12.2561 14.8963C11.8682 14.8963 11.5537 14.5818 11.5537 14.1938C11.5537 13.8059 11.8682 13.4914 12.2561 13.4914H19.8777C20.3963 12.2852 21.5963 11.4385 22.9903 11.4385C24.8574 11.4385 26.3763 12.9574 26.3763 14.8245V22.787C26.3763 23.1749 26.0618 23.4895 25.6738 23.4895ZM20.3677 22.0846H24.9715V14.8243C24.9715 13.732 24.0829 12.8432 22.9904 12.8432C22.061 12.8432 21.2791 13.4864 21.0664 14.3512C21.0652 14.3565 21.0638 14.362 21.0625 14.3674C21.0277 14.5141 21.0093 14.6671 21.0093 14.8243V20.1034C21.0092 20.8426 20.7711 21.5271 20.3677 22.0846ZM15.0031 14.8963C15.4182 15.4692 15.6422 16.1562 15.6422 16.8774V20.1035C15.6422 20.6326 15.8483 21.1302 16.2225 21.5043C16.5966 21.8785 17.0941 22.0846 17.6233 22.0846C18.7157 22.0846 19.6044 21.1959 19.6044 20.1035V14.8963H15.0031Z" fill="black"/>
<path fill-rule="evenodd" clip-rule="evenodd" d="M43.8474 27.0875H29.3011C28.9131 27.0875 28.5986 26.773 28.5986 26.3851C28.5986 25.9971 28.9131 25.6826 29.3011 25.6826H43.8474C44.2353 25.6826 44.5499 25.9971 44.5499 26.3851C44.5499 26.773 44.2353 27.0875 43.8474 27.0875Z" fill="black"/>
<path fill-rule="evenodd" clip-rule="evenodd" d="M43.8474 22.9527H29.3011C28.9131 22.9527 28.5986 22.6382 28.5986 22.2503C28.5986 21.8624 28.9131 21.5479 29.3011 21.5479H43.8474C44.2353 21.5479 44.5499 21.8624 44.5499 22.2503C44.5499 22.6382 44.2353 22.9527 43.8474 22.9527Z" fill="black"/>
<path fill-rule="evenodd" clip-rule="evenodd" d="M43.8474 31.2213H29.3011C28.9131 31.2213 28.5986 30.9068 28.5986 30.5188C28.5986 30.1309 28.9131 29.8164 29.3011 29.8164H43.8474C44.2353 29.8164 44.5499 30.1309 44.5499 30.5188C44.5499 30.9068 44.2353 31.2213 43.8474 31.2213Z" fill="black"/>
<path fill-rule="evenodd" clip-rule="evenodd" d="M43.8474 18.818H29.3011C28.9131 18.818 28.5986 18.5035 28.5986 18.1155C28.5986 17.7276 28.9131 17.4131 29.3011 17.4131H43.8474C44.2353 17.4131 44.5499 17.7276 44.5499 18.1155C44.5499 18.5035 44.2353 18.818 43.8474 18.818Z" fill="black"/>
<path fill-rule="evenodd" clip-rule="evenodd" d="M41.4068 39.4908H29.3011C28.9131 39.4908 28.5986 39.1763 28.5986 38.7884C28.5986 38.4005 28.9131 38.0859 29.3011 38.0859H41.4068C41.7947 38.0859 42.1092 38.4005 42.1092 38.7884C42.1092 39.1763 41.7949 39.4908 41.4068 39.4908Z" fill="black"/>
<path fill-rule="evenodd" clip-rule="evenodd" d="M41.4068 43.6246H29.3011C28.9131 43.6246 28.5986 43.3101 28.5986 42.9222C28.5986 42.5342 28.9131 42.2197 29.3011 42.2197H41.4068C41.7947 42.2197 42.1092 42.5342 42.1092 42.9222C42.1092 43.3101 41.7949 43.6246 41.4068 43.6246Z" fill="black"/>
<path fill-rule="evenodd" clip-rule="evenodd" d="M43.8474 35.356H29.3011C28.9131 35.356 28.5986 35.0415 28.5986 34.6536C28.5986 34.2657 28.9131 33.9512 29.3011 33.9512H43.8474C44.2353 33.9512 44.5499 34.2657 44.5499 34.6536C44.5499 35.0415 44.2353 35.356 43.8474 35.356Z" fill="black"/>
<path fill-rule="evenodd" clip-rule="evenodd" d="M47.8309 40.8195C47.7323 40.8195 47.6321 40.7986 47.5368 40.7545L44.2174 39.2209C44.0482 39.1428 43.9171 39.0007 43.8528 38.8258C43.7885 38.6509 43.7962 38.4578 43.8743 38.2886L50.9695 22.9314C51.1321 22.5792 51.5496 22.4257 51.9018 22.5884C52.254 22.7511 52.4075 23.1685 52.2448 23.5207L45.4442 38.2402L47.4882 39.1846L54.2887 24.4651C54.4514 24.1129 54.8689 23.9593 55.221 24.122C55.5732 24.2847 55.7268 24.7021 55.5641 25.0543L48.469 40.4115C48.3503 40.6682 48.0963 40.8195 47.8309 40.8195Z" fill="black"/>
<path fill-rule="evenodd" clip-rule="evenodd" d="M44.6246 43.6257C44.5293 43.6257 44.4334 43.6063 44.3427 43.5667C44.0934 43.4574 43.9296 43.2137 43.9225 42.9415L43.8098 38.6015C43.7997 38.2137 44.1059 37.8912 44.4938 37.8811C44.8808 37.8719 45.2042 38.1772 45.2143 38.5651L45.2881 41.4092L47.3688 39.5883C47.6608 39.3328 48.1044 39.3623 48.3601 39.6542C48.6155 39.9462 48.586 40.39 48.2941 40.6455L45.0874 43.4519C44.9568 43.5661 44.7916 43.6257 44.6246 43.6257Z" fill="black"/>
<path fill-rule="evenodd" clip-rule="evenodd" d="M54.851 25.6237C54.7524 25.6237 54.6522 25.6028 54.5568 25.5587L51.2376 24.0252C50.8854 23.8625 50.7318 23.445 50.8945 23.0928L51.7803 21.1758C51.9443 20.8208 52.2366 20.551 52.6037 20.416C52.9706 20.281 53.3682 20.297 53.7231 20.4609L55.66 21.3558C56.3927 21.6943 56.7134 22.5658 56.375 23.2986L55.4893 25.2156C55.3705 25.4725 55.1165 25.6237 54.851 25.6237ZM52.4644 23.0445L54.5084 23.9889L55.0995 22.7094C55.1132 22.6799 55.1003 22.6448 55.0707 22.6312L53.1338 21.7364C53.1283 21.7338 53.1116 21.7261 53.0887 21.7345C53.0657 21.743 53.0581 21.7597 53.0555 21.7652L52.4644 23.0445Z" fill="black"/>
<defs>
<filter id="filter0_dd_1052_653" x="0" y="0" width="68" height="68" filterUnits="userSpaceOnUse" color-interpolation-filters="sRGB">
<feFlood flood-opacity="0" result="BackgroundImageFix"/>
<feColorMatrix in="SourceAlpha" type="matrix" values="0 0 0 0 0 0 0 0 0 0 0 0 0 0 0 0 0 0 127 0" result="hardAlpha"/>
<feOffset dy="4"/>
<feGaussianBlur stdDeviation="2"/>
<feComposite in2="hardAlpha" operator="out"/>
<feColorMatrix type="matrix" values="0 0 0 0 0 0 0 0 0 0 0 0 0 0 0 0 0 0 0.25 0"/>
<feBlend mode="normal" in2="BackgroundImageFix" result="effect1_dropShadow_1052_653"/>
<feColorMatrix in="SourceAlpha" type="matrix" values="0 0 0 0 0 0 0 0 0 0 0 0 0 0 0 0 0 0 127 0" result="hardAlpha"/>
<feOffset dy="4"/>
<feGaussianBlur stdDeviation="2"/>
<feComposite in2="hardAlpha" operator="out"/>
<feColorMatrix type="matrix" values="0 0 0 0 0 0 0 0 0 0 0 0 0 0 0 0 0 0 0.25 0"/>
<feBlend mode="normal" in2="effect1_dropShadow_1052_653" result="effect2_dropShadow_1052_653"/>
<feBlend mode="normal" in="SourceGraphic" in2="effect2_dropShadow_1052_653" result="shape"/>
</filter>
</defs>
</svg>
