<svg width="60" height="60" viewBox="0 0 60 60" fill="none" xmlns="http://www.w3.org/2000/svg">
<rect width="60" height="60" rx="7" fill="#E7E61D"/>
<path d="M50.5724 28.9259C50.3734 28.5489 50.0352 27.9378 49.5543 27.1669C48.7479 25.8745 47.4032 23.9196 45.5763 21.9462C43.5375 19.7441 41.3398 17.9864 39.0439 16.722C36.156 15.1316 33.1133 14.3252 30 14.3252C26.8862 14.3252 23.844 15.127 20.9579 16.7081C18.6593 17.9674 16.4612 19.7178 14.4247 21.9105C12.5883 23.8879 11.247 25.8397 10.4452 27.1288C9.95706 27.9136 9.62122 28.5273 9.42541 28.9038C9 29.7218 9 29.8447 9 30.0002C9 30.1704 9 30.2642 9.42763 31.0746C9.62664 31.4515 9.96477 32.0627 10.4457 32.8335C11.2521 34.126 12.5968 36.0809 14.4237 38.0542C16.4625 40.2563 18.6602 42.014 20.9561 43.2785C23.844 44.8688 26.8867 45.6752 30 45.6752C33.1138 45.6752 36.156 44.8736 39.0422 43.2924C41.3407 42.0331 43.5388 40.2828 45.5754 38.0901C47.4118 36.1127 48.7531 34.1609 49.5549 32.8718C50.043 32.0869 50.3789 31.4733 50.5747 31.0967C51 30.2786 51 30.1558 51 30.0002C51 29.8301 51 29.7363 50.5724 28.9259ZM44.1178 37.2452C41.1686 40.3426 36.3254 44.0346 30 44.0346C24.9221 44.0346 20.1671 41.7336 15.8669 37.1952C12.9861 34.1547 11.1945 30.9622 10.7136 29.991C11.1718 29.0433 12.9461 25.8389 15.8822 22.7553C18.8314 19.658 23.6746 15.9658 30 15.9658C35.0778 15.9658 39.8329 18.267 44.1331 22.8053C47.0139 25.8458 48.8055 29.0382 49.2864 30.0096C48.8284 30.9571 47.0541 34.1614 44.1178 37.2452Z" fill="black"/>
<path d="M29.998 17.6885C23.2132 17.6885 17.6934 23.2084 17.6934 29.9932C17.6934 32.6934 18.5517 35.2564 20.1755 37.4051C21.7459 39.4833 23.9779 41.0374 26.4604 41.7815C26.8941 41.9115 27.3516 41.6652 27.4817 41.2312C27.6118 40.7973 27.3655 40.3399 26.9315 40.2099C22.4582 38.8693 19.3341 34.668 19.3341 29.9932C19.3341 24.113 24.118 19.3291 29.9981 19.3291C35.8783 19.3291 40.6622 24.1129 40.6622 29.9932C40.6622 34.668 37.5379 38.8694 33.0645 40.2099C32.6306 40.34 32.3843 40.7972 32.5143 41.2312C32.6208 41.5867 32.9467 41.8162 33.2997 41.8162C33.3777 41.8162 33.457 41.8051 33.5355 41.7815C36.0181 41.0375 38.2501 39.4833 39.8206 37.4052C41.4444 35.2565 42.3027 32.6934 42.3027 29.9932C42.3027 23.2084 36.7829 17.6885 29.998 17.6885Z" fill="black"/>
<path d="M29.998 40.6562C29.545 40.6562 29.1777 41.0235 29.1777 41.4766V41.4871C29.1777 41.9401 29.545 42.3074 29.998 42.3074C30.4511 42.3074 30.8184 41.9401 30.8184 41.4871V41.4766C30.8184 41.0235 30.4511 40.6562 29.998 40.6562Z" fill="black"/>
<path d="M35.6666 29.4304C35.5127 29.2762 35.3038 29.1896 35.086 29.1896H30.8294V24.9153C30.8294 24.4699 30.4744 24.1066 30.0304 24.0952C30.0207 24.0949 30.0087 24.0947 30.0002 24.0947C26.7434 24.0947 24.0938 26.7443 24.0938 30.001C24.0938 33.2578 26.7434 35.9074 30.0002 35.9074C33.2512 35.9074 35.9008 33.2625 35.9063 30.0113C35.9067 29.7935 35.8204 29.5845 35.6666 29.4304ZM30.0002 34.2668C27.648 34.2668 25.7344 32.3531 25.7344 30.001C25.7344 27.9262 27.2233 26.1928 29.1888 25.8128V30.0099C29.1888 30.463 29.556 30.8302 30.0091 30.8302H34.1847C33.7974 32.7864 32.0671 34.2668 30.0002 34.2668Z" fill="black"/>
<path d="M30.0567 20.7795L29.9982 20.7793C29.5451 20.7793 29.1779 21.1466 29.1779 21.5996C29.1779 22.0527 29.5451 22.4199 29.9982 22.4199L30.0456 22.4201C30.0475 22.4201 30.0494 22.4201 30.0512 22.4201C30.5017 22.4201 30.8684 22.0564 30.8715 21.6054C30.8745 21.1523 30.5098 20.7826 30.0567 20.7795Z" fill="black"/>
<path d="M33.5602 21.4938C33.1424 21.3184 32.6616 21.5151 32.4864 21.9329C32.3112 22.3507 32.5078 22.8314 32.9255 23.0067C35.7476 24.1907 37.5711 26.9331 37.5711 29.9934C37.5711 30.4465 37.9383 30.8137 38.3914 30.8137C38.8444 30.8137 39.2117 30.4465 39.2117 29.9934C39.2117 26.2705 36.9934 22.9342 33.5602 21.4938Z" fill="black"/>
<path d="M48.0216 13.4287H47.459C47.0059 13.4287 46.6387 13.796 46.6387 14.249C46.6387 14.7021 47.0059 15.0693 47.459 15.0693H48.0216C48.4747 15.0693 48.8419 14.7021 48.8419 14.249C48.8419 13.796 48.4747 13.4287 48.0216 13.4287Z" fill="black"/>
<path d="M44.0412 13.4287H43.4785C43.0255 13.4287 42.6582 13.796 42.6582 14.249C42.6582 14.7021 43.0255 15.0693 43.4785 15.0693H44.0412C44.4942 15.0693 44.8615 14.7021 44.8615 14.249C44.8615 13.796 44.4942 13.4287 44.0412 13.4287Z" fill="black"/>
<path d="M45.75 15.1377C45.2969 15.1377 44.9297 15.5049 44.9297 15.958V16.5207C44.9297 16.9737 45.2969 17.341 45.75 17.341C46.2031 17.341 46.5703 16.9737 46.5703 16.5207V15.958C46.5703 15.5049 46.2031 15.1377 45.75 15.1377Z" fill="black"/>
<path d="M45.75 11.1582C45.2969 11.1582 44.9297 11.5255 44.9297 11.9785V12.5412C44.9297 12.9942 45.2969 13.3615 45.75 13.3615C46.2031 13.3615 46.5703 12.9942 46.5703 12.5412V11.9785C46.5703 11.5255 46.2031 11.1582 45.75 11.1582Z" fill="black"/>
<path d="M16.5216 44.9307H15.959C15.5059 44.9307 15.1387 45.2979 15.1387 45.751C15.1387 46.204 15.5059 46.5713 15.959 46.5713H16.5216C16.9747 46.5713 17.3419 46.204 17.3419 45.751C17.3419 45.2979 16.9747 44.9307 16.5216 44.9307Z" fill="black"/>
<path d="M12.5412 44.9307H11.9785C11.5255 44.9307 11.1582 45.2979 11.1582 45.751C11.1582 46.204 11.5255 46.5713 11.9785 46.5713H12.5412C12.9942 46.5713 13.3615 46.204 13.3615 45.751C13.3615 45.2979 12.9942 44.9307 12.5412 44.9307Z" fill="black"/>
<path d="M14.25 46.6387C13.7969 46.6387 13.4297 47.0059 13.4297 47.459V48.0216C13.4297 48.4747 13.7969 48.8419 14.25 48.8419C14.7031 48.8419 15.0703 48.4747 15.0703 48.0216V47.459C15.0703 47.0059 14.7031 46.6387 14.25 46.6387Z" fill="black"/>
<path d="M14.25 42.6592C13.7969 42.6592 13.4297 43.0264 13.4297 43.4795V44.0421C13.4297 44.4952 13.7969 44.8625 14.25 44.8625C14.7031 44.8625 15.0703 44.4952 15.0703 44.0421V43.4795C15.0703 43.0264 14.7031 42.6592 14.25 42.6592Z" fill="black"/>
</svg>
