<svg width="118" height="78" viewBox="0 0 118 78" fill="none" xmlns="http://www.w3.org/2000/svg">
<rect x="1" y="1" width="116" height="76" rx="9" fill="#47C17A"/>
<rect x="1" y="1" width="116" height="76" rx="9" stroke="#808080" stroke-width="2"/>
<path d="M42 41C49.2 25 70.8 25 78 41" stroke="white" stroke-width="5" stroke-linecap="round" stroke-linejoin="round"/>
<path d="M60 49C59.2121 49 58.4319 48.8448 57.7039 48.5433C56.9759 48.2417 56.3145 47.7998 55.7574 47.2426C55.2002 46.6855 54.7583 46.0241 54.4567 45.2961C54.1552 44.5681 54 43.7879 54 43C54 42.2121 54.1552 41.4319 54.4567 40.7039C54.7583 39.9759 55.2002 39.3145 55.7574 38.7574C56.3145 38.2002 56.9759 37.7583 57.7039 37.4567C58.4319 37.1552 59.2121 37 60 37C61.5913 37 63.1174 37.6321 64.2426 38.7574C65.3679 39.8826 66 41.4087 66 43C66 44.5913 65.3679 46.1174 64.2426 47.2426C63.1174 48.3679 61.5913 49 60 49Z" stroke="white" stroke-width="5" stroke-linecap="round" stroke-linejoin="round"/>
</svg>
