<svg width="35" height="35" viewBox="0 0 35 35" fill="none" xmlns="http://www.w3.org/2000/svg">
<g id="nav bar icons" clip-path="url(#clip0_126_224)">
<path id="Vector" d="M31.2217 27.3043C32.588 27.3046 33.7308 26.2661 33.8613 24.9058C33.9915 23.5455 33.0668 22.309 31.7251 22.05V11.6236C31.7222 9.48896 29.9925 7.75928 27.8579 7.75704H27.6859V7.65981C27.6836 5.52521 25.9542 3.7952 23.8196 3.79264H17.6385C17.5684 3.79264 17.5012 3.76322 17.4539 3.7114L15.2115 1.25824C14.4784 0.457689 13.4431 0.000959519 12.3576 0H4.96838C2.8341 0.00223887 1.10473 1.73192 1.10217 3.8662V25.447C1.10473 27.5813 2.8341 29.3109 4.96838 29.3135H21.519C21.8024 30.1886 22.5198 30.8542 23.4138 31.0713C24.308 31.2885 25.2506 31.0262 25.904 30.3786L28.6479 31.7008C28.3204 33.0169 29.0365 34.3682 30.3092 34.8365C31.5821 35.3047 33.0032 34.7396 33.6067 33.5251C34.2102 32.3107 33.8024 30.8366 32.6606 30.1048C31.5188 29.373 30.0092 29.6183 29.1581 30.6741L26.5296 29.4075C26.7158 28.8999 26.7423 28.3476 26.6058 27.8246L29.2729 26.449C29.7741 26.9943 30.4809 27.3046 31.2217 27.3043ZM31.2217 30.8311C32.0529 30.8311 32.7271 31.505 32.7271 32.3363C32.7271 33.1675 32.0529 33.8414 31.2217 33.8414C30.3904 33.8414 29.7165 33.1675 29.7165 32.3363C29.7171 31.5053 30.3907 30.8318 31.2217 30.8311ZM32.7268 24.6528C32.7268 25.4841 32.0529 26.158 31.2217 26.158C30.3904 26.158 29.7165 25.4841 29.7165 24.6528C29.7165 23.8216 30.3904 23.1477 31.2217 23.1477C32.0526 23.1486 32.7262 23.8219 32.7268 24.6528ZM4.96838 28.1672C3.46706 28.1653 2.25007 26.9486 2.24847 25.447V3.8662C2.25007 2.36488 3.46706 1.1479 4.96838 1.1463H12.3573C13.1211 1.14726 13.8493 1.46838 14.3652 2.03161L16.607 4.48349C16.8715 4.77359 17.246 4.93894 17.6385 4.93894H23.8196C25.3213 4.94086 26.538 6.15817 26.5395 7.65981V7.75704H11.9022C9.76787 7.7596 8.03819 9.48928 8.03595 11.6236V25.447C8.03403 26.9489 6.81672 28.1656 5.31508 28.1672H4.96838ZM24.0403 29.9999C23.2091 29.9999 22.5349 29.326 22.5349 28.4947C22.5349 27.6631 23.2088 26.9892 24.04 26.9892C24.8716 26.9892 25.5455 27.6631 25.5455 28.4947C25.5449 29.3257 24.8713 29.9989 24.0403 29.9999ZM26.0822 26.805C25.408 25.9894 24.3135 25.6529 23.298 25.9491C22.2822 26.2453 21.5398 27.1172 21.4097 28.1672H8.06025C8.77925 27.4444 9.18257 26.4663 9.18193 25.447V11.6236C9.18353 10.1219 10.4005 8.90526 11.9022 8.90334H27.8576C29.3596 8.90494 30.5765 10.1216 30.5785 11.6236V22.0807C29.8681 22.2582 29.2627 22.7216 28.906 23.3613C28.5494 24.001 28.473 24.7593 28.6953 25.4572L26.0822 26.805Z" fill="white"/>
</g>
<defs>
<clipPath id="clip0_126_224">
<rect width="35" height="35" fill="white"/>
</clipPath>
</defs>
</svg>
