<svg width="180" height="92" viewBox="0 0 180 92" fill="none" xmlns="http://www.w3.org/2000/svg">
<g id="Layer_1" clip-path="url(#clip0_563_4840)">
<path id="Vector" d="M178.361 50.5148L151.161 53.6946L173.171 62.9602L144.557 61.9851L159.837 73.7598L132.612 68.7192L139.669 81.8544L116.497 73.2475L114.642 86.4522L97.791 75.1171L87.2003 87.1048L78.3195 74.1535L60.0354 83.7445L59.993 70.4432L35.8055 76.7046L44.6075 64.3561L16.8765 66.6713L33.6635 56.4846L5.11008 54.628L28.2347 47.6022L1.65264 41.7533L28.8525 38.5735L6.84265 29.3079L35.4565 30.283L20.1765 18.5083L47.4011 23.5489L40.3444 10.4137L63.5168 19.0238L65.3716 5.81593L82.2223 17.151L92.813 5.16334L101.694 18.1146L119.978 8.52361L120.02 21.8249L144.208 15.5636L135.406 27.912L163.133 25.5969L146.35 35.7835L174.903 37.6401L151.779 44.6691L178.361 50.5148Z" fill="#FCEE21"/>
</g>
<defs>
<clipPath id="clip0_563_4840">
<rect width="176.048" height="83" fill="white" transform="translate(0.0166016 9.08936) rotate(-2.86737)"/>
</clipPath>
</defs>
</svg>
