<svg width="38" height="38" viewBox="0 0 38 38" fill="none" xmlns="http://www.w3.org/2000/svg">
<g id="Frame">
<path id="Vector" d="M19 35.8859C19.541 35.8859 20.0626 35.6899 20.469 35.3339C22.0041 33.9916 23.4842 32.7302 24.79 31.6175L24.7966 31.6117C28.625 28.3492 31.9309 25.5318 34.2311 22.7565C36.8024 19.6538 38 16.712 38 13.4982C38 10.3758 36.9293 7.49522 34.9854 5.38666C33.0184 3.25316 30.3192 2.07812 27.3844 2.07812C25.1909 2.07812 23.1821 2.77161 21.4139 4.13914C20.5215 4.82944 19.7126 5.67426 19 6.65968C18.2871 5.67426 17.4786 4.82944 16.5859 4.13914C14.8177 2.77161 12.8089 2.07812 10.6154 2.07812C7.68083 2.07812 4.98141 3.25316 3.01433 5.38666C1.07044 7.49522 6.86646e-05 10.3758 6.86646e-05 13.4982C6.86646e-05 16.712 1.19742 19.6538 3.76869 22.7562C6.06889 25.5318 9.37452 28.349 13.2023 31.6111C14.5104 32.7255 15.9927 33.989 17.5313 35.3345C17.9375 35.6899 18.4593 35.8859 19 35.8859ZM27.3844 4.30411C29.6901 4.30411 31.8083 5.2243 33.3492 6.89539C34.913 8.59169 35.7743 10.9365 35.7743 13.4982C35.7743 16.2011 34.7698 18.6185 32.5174 21.3362C30.3404 23.9631 27.1023 26.7225 23.3531 29.9177L23.3462 29.9235C22.0355 31.0405 20.5496 32.3069 19.0032 33.6591C17.4475 32.3043 15.9594 31.0359 14.6461 29.9171C10.8972 26.7219 7.65937 23.9631 5.48239 21.3362C3.23032 18.6185 2.22576 16.2011 2.22576 13.4982C2.22576 10.9365 3.0871 8.59169 4.65091 6.89539C6.19152 5.2243 8.30994 4.30411 10.6154 4.30411C12.3044 4.30411 13.8552 4.84103 15.2245 5.89981C16.4447 6.84378 17.2947 8.03708 17.7931 8.87204C18.0494 9.30141 18.5005 9.55769 19 9.55769C19.4996 9.55769 19.9507 9.30141 20.207 8.87204C20.705 8.03708 21.5551 6.84378 22.7756 5.89981C24.1449 4.84103 25.6957 4.30411 27.3844 4.30411Z" fill="black"/>
</g>
</svg>
