<svg width="35" height="35" viewBox="0 0 35 35" fill="none" xmlns="http://www.w3.org/2000/svg">
<g id="nav bar icons" clip-path="url(#clip0_126_41)">
<path id="Vector" d="M26.1133 17.2266C24.9365 17.2266 23.7736 17.4613 22.6953 17.9115V7.51953H28.1641C28.5416 7.51953 28.8477 7.21352 28.8477 6.83594V3.75977C28.8477 1.68655 27.1611 0 25.0879 0H4.78516C2.14664 0 0 2.14664 0 4.78516V34.3164C0 34.694 0.306015 35 0.683594 35H8.95508C9.33266 35 9.63867 34.694 9.63867 34.3164C9.63867 33.9388 9.33266 33.6328 8.95508 33.6328H1.36719V4.78516C1.36719 2.90047 2.90047 1.36639 4.78516 1.36639H22.1898C21.6518 2.01714 21.3281 2.8516 21.3281 3.75977V18.6293C18.7887 20.2584 17.2266 23.0894 17.2266 26.1133C17.2266 29.1371 18.7887 31.9682 21.3281 33.5973V33.6328H15.1074C14.7298 33.6328 14.4238 33.9388 14.4238 34.3164C14.4238 34.694 14.7298 35 15.1074 35H22.0117C22.3893 35 22.6953 34.694 22.6953 34.3164V34.3151C23.7736 34.7653 24.9365 35 26.1133 35C31.0135 35 35 31.0135 35 26.1133C35 21.213 31.0135 17.2266 26.1133 17.2266ZM27.4805 3.75977V6.15234H22.6953V3.75977C22.6953 2.44038 23.7685 1.36719 25.0879 1.36719C26.4073 1.36719 27.4805 2.44038 27.4805 3.75977ZM26.1133 33.6328C21.9225 33.6328 18.5938 30.2047 18.5938 26.1133C18.5938 23.4422 20.0349 20.9473 22.3546 19.6029C23.4932 18.9428 24.7928 18.5938 26.1133 18.5938C30.2594 18.5938 33.6328 21.9671 33.6328 26.1133C33.6328 30.2594 30.2594 33.6328 26.1133 33.6328Z" fill="white"/>
<path id="Vector_2" d="M26.1133 19.9609C22.7209 19.9609 19.9609 22.7209 19.9609 26.1133C19.9609 29.5056 22.7209 32.2656 26.1133 32.2656C29.5056 32.2656 32.2656 29.5056 32.2656 26.1133C32.2656 22.7209 29.5056 19.9609 26.1133 19.9609ZM26.1133 30.8984C23.4748 30.8984 21.3281 28.7518 21.3281 26.1133C21.3281 23.4748 23.4748 21.3281 26.1133 21.3281C28.7518 21.3281 30.8984 23.4748 30.8984 26.1133C30.8984 28.7518 28.7518 30.8984 26.1133 30.8984Z" fill="white"/>
<path id="Vector_3" d="M28.8477 25.4297H26.7969V23.3789C26.7969 23.0013 26.4909 22.6953 26.1133 22.6953C25.7357 22.6953 25.4297 23.0013 25.4297 23.3789V26.1133C25.4297 26.4909 25.7357 26.7969 26.1133 26.7969H28.8477C29.2252 26.7969 29.5312 26.4909 29.5312 26.1133C29.5312 25.7357 29.2252 25.4297 28.8477 25.4297Z" fill="white"/>
<path id="Vector_4" d="M4.78516 9.98047H17.9102C18.2877 9.98047 18.5938 9.67445 18.5938 9.29688C18.5938 8.9193 18.2877 8.61328 17.9102 8.61328H4.78516C4.40758 8.61328 4.10156 8.9193 4.10156 9.29688C4.10156 9.67445 4.40758 9.98047 4.78516 9.98047Z" fill="white"/>
<path id="Vector_5" d="M4.78516 14.082H17.9102C18.2877 14.082 18.5938 13.776 18.5938 13.3984C18.5938 13.0209 18.2877 12.7148 17.9102 12.7148H4.78516C4.40758 12.7148 4.10156 13.0209 4.10156 13.3984C4.10156 13.776 4.40758 14.082 4.78516 14.082Z" fill="white"/>
<path id="Vector_6" d="M4.78516 18.1836H17.9102C18.2877 18.1836 18.5938 17.8776 18.5938 17.5C18.5938 17.1224 18.2877 16.8164 17.9102 16.8164H4.78516C4.40758 16.8164 4.10156 17.1224 4.10156 17.5C4.10156 17.8776 4.40758 18.1836 4.78516 18.1836Z" fill="white"/>
<path id="Vector_7" d="M4.78516 22.2852H13.8086C14.1862 22.2852 14.4922 21.9791 14.4922 21.6016C14.4922 21.224 14.1862 20.918 13.8086 20.918H4.78516C4.40758 20.918 4.10156 21.224 4.10156 21.6016C4.10156 21.9791 4.40758 22.2852 4.78516 22.2852Z" fill="white"/>
<path id="Vector_8" d="M4.78516 26.3867H13.8086C14.1862 26.3867 14.4922 26.0807 14.4922 25.7031C14.4922 25.3255 14.1862 25.0195 13.8086 25.0195H4.78516C4.40758 25.0195 4.10156 25.3255 4.10156 25.7031C4.10156 26.0807 4.40758 26.3867 4.78516 26.3867Z" fill="white"/>
<path id="Vector_9" d="M12.7148 34.3164C12.7148 34.694 12.4088 35 12.0312 35C11.6537 35 11.3477 34.694 11.3477 34.3164C11.3477 33.9388 11.6537 33.6328 12.0312 33.6328C12.4088 33.6328 12.7148 33.9388 12.7148 34.3164Z" fill="white"/>
</g>
<defs>
<clipPath id="clip0_126_41">
<rect width="35" height="35" fill="white"/>
</clipPath>
</defs>
</svg>
