<svg width="32" height="32" viewBox="0 0 32 32" fill="none" xmlns="http://www.w3.org/2000/svg">
<g id="Layer_1" clip-path="url(#clip0_1040_2732)">
<path id="Vector" d="M16 32C24.8366 32 32 24.8366 32 16C32 7.16344 24.8366 0 16 0C7.16344 0 0 7.16344 0 16C0 24.8366 7.16344 32 16 32Z" fill="white"/>
<path id="Vector_2" fill-rule="evenodd" clip-rule="evenodd" d="M25.7765 21.8716L25.7595 21.9146C25.5984 22.3258 25.4366 22.7364 25.267 23.1444C25.1213 23.4951 24.9705 23.847 24.804 24.1882C24.7044 24.3919 24.5467 24.7138 24.3867 24.8738C24.2238 25.0369 24.0439 25.1821 23.85 25.3068C22.7337 26.0212 21.3383 25.9205 20.1117 25.5916C14.8425 24.18 7.81959 17.1571 6.40791 11.888C6.07916 10.6609 5.97866 9.26519 6.69378 8.14894C6.81799 7.95514 6.96288 7.77539 7.12591 7.61288C7.28572 7.45288 7.60791 7.29526 7.81147 7.19569C8.15303 7.02913 8.50522 6.87838 8.85584 6.73269C9.26365 6.56394 9.67459 6.40144 10.0854 6.24019L10.1282 6.22369C10.3435 6.13844 10.5823 6.13356 10.8008 6.20994C11.0194 6.28632 11.2032 6.43886 11.3185 6.63963L13.3555 10.1688C13.4829 10.391 13.5172 10.6545 13.4509 10.9019C13.3846 11.1493 13.2232 11.3605 13.0018 11.4893C12.2812 11.9056 11.7063 12.5532 11.5365 13.3837C11.4511 13.7792 11.4528 14.1886 11.5415 14.5834C11.6302 14.9783 11.8038 15.349 12.0503 15.67C12.6656 16.4733 13.3364 17.2325 14.0578 17.9422C14.7676 18.6636 15.527 19.3346 16.3305 19.95C16.6514 20.1966 17.0222 20.3702 17.4171 20.459C17.8119 20.5477 18.2214 20.5493 18.617 20.4638C19.4467 20.2942 20.0951 19.7189 20.5111 18.9984C20.6398 18.777 20.8508 18.6155 21.0982 18.5492C21.3455 18.483 21.6091 18.5172 21.8312 18.6446L25.36 20.6821C25.5607 20.7973 25.7133 20.9809 25.7898 21.1993C25.8663 21.4177 25.8616 21.6564 25.7765 21.8716Z" fill="#2196F3"/>
</g>
<defs>
<clipPath id="clip0_1040_2732">
<rect width="32" height="32" fill="white"/>
</clipPath>
</defs>
</svg>
