<svg width="165" height="165" viewBox="0 0 165 165" fill="none" xmlns="http://www.w3.org/2000/svg">
<circle cx="82.5" cy="82.5" r="82.5" fill="#F0FF00"/>
<path d="M124.246 115.312H115.879V46.0312C115.879 42.1541 112.724 39 108.847 39H45.0015C40.0382 39 36 43.0384 36 48.0017V57.8241C36 59.2198 37.1355 60.3553 38.5312 60.3553H51.1909V77.625C51.1909 78.4018 51.8205 79.0312 52.5971 79.0312C53.3737 79.0312 54.0034 78.4018 54.0034 77.625V48.0017C54.0034 45.6058 53.0606 43.4272 51.5287 41.8125H108.847C111.173 41.8125 113.066 43.7051 113.066 46.0312V115.312H104.16C103.383 115.312 102.753 115.942 102.753 116.719C102.753 117.496 103.383 118.125 104.16 118.125H123.964V127.969C123.964 130.295 122.072 132.188 119.746 132.188H66.7198C68.2794 130.544 69.1935 128.298 69.1944 125.998V118.125H97.5973C98.3741 118.125 99.0036 117.496 99.0036 116.719C99.0036 115.942 98.3741 115.312 97.5973 115.312H68.9132C67.4141 115.302 66.2439 116.643 66.3819 118.125H61.0348C60.2582 118.125 59.6286 118.754 59.6286 119.531C59.6286 120.308 60.2582 120.938 61.0348 120.938H66.3819C66.3825 121.458 66.4022 126.08 66.3551 126.562H61.0348C60.2582 126.562 59.6286 127.192 59.6286 127.969C59.6286 128.746 60.2582 129.375 61.0348 129.375H65.3756C64.2698 131.067 62.3601 132.188 60.1926 132.188C56.7799 132.188 54.0034 129.411 54.0034 125.998V84.1875C54.0034 83.4107 53.3737 82.7812 52.5971 82.7812C51.8205 82.7812 51.1909 83.4107 51.1909 84.1875V125.998C51.1909 130.962 55.2291 135 60.1926 135H119.746C123.623 135 126.777 131.846 126.777 127.969V117.844C126.777 116.448 125.641 115.312 124.246 115.312ZM51.1911 57.5428H38.8125V48.0017C38.8125 44.589 41.5892 41.8125 45.0019 41.8125C48.4146 41.8125 51.1911 44.589 51.1911 48.0017V57.5428ZM59.6286 94.2188C59.6286 94.9956 60.2582 95.625 61.0348 95.625H106.035C106.812 95.625 107.441 94.9956 107.441 94.2188C107.441 93.4419 106.812 92.8125 106.035 92.8125H61.0348C60.258 92.8125 59.6286 93.4419 59.6286 94.2188ZM100.972 87.1875C102.781 87.1875 104.254 85.7154 104.254 83.9062V50.7188C104.254 48.9096 102.781 47.4375 100.972 47.4375H66.0973C64.2881 47.4375 62.8161 48.9096 62.8161 50.7188V83.9062C62.8161 85.7154 64.2881 87.1875 66.0973 87.1875H100.972ZM77.9098 84.375H72.2848V78.75H77.9098V84.375ZM86.3473 84.375H80.7223V78.75H86.3473V84.375ZM94.7848 84.375H89.1598V78.75H94.7848V84.375ZM101.441 83.9062C101.441 84.1648 101.231 84.375 100.972 84.375H97.5973V78.75H101.441V83.9062ZM97.5973 50.25H100.972C101.231 50.25 101.441 50.4602 101.441 50.7188V55.875H97.5973V50.25ZM89.1598 50.25H94.7848V55.875H89.1598V50.25ZM80.7223 50.25H86.3473V55.875H80.7223V50.25ZM72.2848 50.25H77.9098V55.875H72.2848V50.25ZM65.6286 50.7188C65.6286 50.4602 65.8389 50.25 66.0973 50.25H69.4723V55.875H65.6286V50.7188ZM65.6286 58.6875H101.441V75.9375H65.6286V58.6875ZM65.6286 83.9062V78.75H69.4723V84.375H66.0973C65.8388 84.375 65.6286 84.1648 65.6286 83.9062ZM61.0348 112.5H106.035C106.812 112.5 107.441 111.871 107.441 111.094C107.441 110.317 106.812 109.688 106.035 109.688H61.0348C60.2582 109.688 59.6286 110.317 59.6286 111.094C59.6286 111.871 60.258 112.5 61.0348 112.5ZM61.0348 104.062H106.035C106.812 104.062 107.441 103.433 107.441 102.656C107.441 101.879 106.812 101.25 106.035 101.25H61.0348C60.2582 101.25 59.6286 101.879 59.6286 102.656C59.6286 103.433 60.258 104.062 61.0348 104.062ZM82.7719 61.5259C82.1955 60.9491 81.3364 60.7779 80.5828 61.0901C79.8294 61.4019 79.3427 62.1306 79.3427 62.9458V71.6792C79.3427 72.4946 79.8296 73.2231 80.5828 73.5349C81.3281 73.8435 82.1925 73.6789 82.7717 73.0995L87.1384 68.7328C87.5177 68.3535 87.7267 67.8489 87.7267 67.3125C87.7267 66.7761 87.5179 66.2715 87.1384 65.8922L82.7719 61.5259ZM82.1552 69.7384V64.8864L84.5812 67.3125L82.1552 69.7384Z" fill="black"/>
</svg>
