<svg width="165" height="165" viewBox="0 0 165 165" fill="none" xmlns="http://www.w3.org/2000/svg">
<circle cx="82.5" cy="82.5" r="82.5" fill="#F0FF00"/>
<path d="M86.8362 64.7797V56.7131C86.8362 55.8508 86.1372 55.1518 85.2749 55.1518C84.4126 55.1518 83.7136 55.8508 83.7136 56.7131V64.7797C81.3632 65.4586 79.6388 67.6282 79.6388 70.1942C79.6388 71.1817 79.8948 72.1102 80.3429 72.9182L74.244 79.017C73.6343 79.6268 73.6343 80.6153 74.244 81.225C74.5489 81.5299 74.9483 81.6825 75.3479 81.6825C75.7476 81.6825 76.147 81.5299 76.4519 81.225L82.5507 75.1262C83.3587 75.5743 84.2872 75.8303 85.2747 75.8303C88.3825 75.8303 90.9106 73.302 90.9106 70.1942C90.911 67.628 89.1866 65.4586 86.8362 64.7797ZM85.2749 72.7077C84.5899 72.7077 83.9689 72.4317 83.5149 71.9858C83.5097 71.9803 83.5052 71.9745 83.4999 71.9692C83.4946 71.9639 83.4886 71.9594 83.4833 71.9542C83.0374 71.5004 82.7612 70.8792 82.7612 70.1942C82.7612 68.8081 83.8888 67.6807 85.2749 67.6807C86.661 67.6807 87.7884 68.8081 87.7884 70.1942C87.7884 71.5803 86.6608 72.7077 85.2749 72.7077ZM127.148 91.5063L122.959 87.3229C121.994 86.3549 120.674 85.7831 119.114 85.6479C119.556 84.6829 119.955 83.7055 120.307 82.7225C121.741 78.7098 122.469 74.4946 122.469 70.194C122.469 49.6854 105.784 33.0002 85.2751 33.0002C71.0241 33.0002 57.9925 41.2004 51.7929 53.9754C43.2517 54.2735 36.394 61.3102 36.394 69.9227C36.394 78.4526 43.1153 85.4418 51.5384 85.869C53.3394 89.7407 55.8237 93.2997 58.836 96.3487C54.1394 97.2182 52.1067 100.474 49.9757 103.895C49.7269 104.295 49.4718 104.704 49.2065 105.12L41.3337 117.472C40.8702 118.199 41.0839 119.164 41.811 119.628C42.5382 120.091 43.5032 119.877 43.9667 119.15L51.8396 106.798C52.1108 106.373 52.3714 105.955 52.6257 105.546C55.0743 101.616 56.5522 99.2436 61.4517 99.2436H89.9642C92.3667 99.2436 94.3214 101.201 94.3214 103.606C94.3214 104.434 94.0794 105.239 93.6368 105.931H73.6374C72.7751 105.931 72.0761 106.63 72.0761 107.493C72.0761 108.355 72.7751 109.054 73.6374 109.054H94.4155C94.4194 109.054 94.4231 109.053 94.4269 109.053C94.4616 109.053 94.4962 109.051 94.531 109.048C94.5477 109.047 94.5647 109.047 94.5815 109.045C94.6165 109.041 94.6513 109.035 94.686 109.029C94.7015 109.026 94.7173 109.025 94.7327 109.022C94.7812 109.011 94.8294 108.999 94.8769 108.984C94.8979 108.978 94.9181 108.97 94.9388 108.962C94.9657 108.953 94.9929 108.944 95.0194 108.933C95.0386 108.925 95.0565 108.915 95.0753 108.906C95.1024 108.894 95.1296 108.882 95.1562 108.867C95.1741 108.858 95.1911 108.846 95.2089 108.836C95.2347 108.821 95.2606 108.806 95.2856 108.789C95.3062 108.775 95.3255 108.76 95.3452 108.745C95.3657 108.73 95.3868 108.715 95.4067 108.699C95.4462 108.667 95.4841 108.632 95.5204 108.596L113.414 90.7032C114.242 89.875 115.523 89.228 116.832 88.9258C116.856 88.9204 116.88 88.9161 116.904 88.9094C117.4 88.7997 117.9 88.7385 118.379 88.7385H118.383C119.103 88.7389 120.099 88.8762 120.751 89.5301L123.837 92.6116L97.8126 118.636C95.97 120.478 93.906 121.465 91.3216 121.74L60.6347 122.237C60.1112 122.245 59.6271 122.516 59.3448 122.956L54.4562 130.597C53.9915 131.323 54.2036 132.289 54.9298 132.753C55.1903 132.92 55.4817 133 55.7698 133C56.2845 133 56.7884 132.745 57.0864 132.28L61.5233 125.345L91.4399 124.861C91.4841 124.86 91.528 124.857 91.5718 124.853C94.8952 124.517 97.6589 123.205 100.02 120.844L127.149 93.7155C127.442 93.4225 127.606 93.0252 127.606 92.611C127.606 92.1961 127.441 91.7991 127.148 91.5063ZM52.5024 82.7635C52.4532 82.7641 52.4048 82.7672 52.3556 82.7672C45.2761 82.7672 39.5165 77.0053 39.5165 69.9229C39.5165 62.8434 45.2761 57.084 52.3556 57.084C59.438 57.084 65.1999 62.8434 65.1999 69.9229C65.1999 76.9362 59.5489 82.651 52.5614 82.762C52.5417 82.762 52.522 82.7629 52.5024 82.7635ZM63.1718 96.1211C59.7683 93.2157 56.9495 89.646 54.9216 85.6809C56.7304 85.3874 58.439 84.7909 59.9913 83.9418C62.2823 88.1512 65.5866 91.729 69.6335 94.354C70.6489 95.0127 71.7019 95.5995 72.7827 96.1209H63.1718V96.1211ZM86.8362 95.801V93.3862C86.8362 92.5239 86.1372 91.8249 85.2749 91.8249C84.4126 91.8249 83.7136 92.5239 83.7136 93.3862V95.7983C77.9419 95.4426 72.5202 93.1305 68.2833 89.3936L69.98 87.6969C70.5897 87.0874 70.5897 86.0987 69.98 85.4889C69.3704 84.8792 68.3817 84.8793 67.772 85.4889L66.0685 87.1924C64.7233 85.6795 63.5515 83.9963 62.5853 82.1706C66.089 79.2393 68.3224 74.8375 68.3224 69.9229C68.3224 65.1043 66.1724 60.7809 62.7845 57.8518C63.7144 56.1549 64.8128 54.593 66.0546 53.1817L67.7722 54.8991C68.0771 55.204 68.4765 55.3565 68.8761 55.3565C69.2757 55.3565 69.6753 55.204 69.98 54.8991C70.5897 54.2893 70.5897 53.3006 69.98 52.6911L68.2556 50.9667C72.4776 47.2129 77.8759 44.9342 83.7138 44.5877V47.0018C83.7138 47.8641 84.4128 48.5631 85.2751 48.5631C86.1374 48.5631 86.8364 47.8641 86.8364 47.0018V44.5874C92.7368 44.9434 98.105 47.3022 102.269 50.9918L100.57 52.6911C99.9603 53.3006 99.9603 54.2893 100.57 54.8991C100.875 55.2042 101.274 55.3565 101.674 55.3565C102.073 55.3565 102.473 55.204 102.778 54.8991L104.477 53.1999C108.167 57.3643 110.526 62.7325 110.882 68.6329H108.467C107.605 68.6329 106.906 69.3319 106.906 70.1942C106.906 71.0565 107.605 71.7555 108.467 71.7555H110.882C110.526 77.6559 108.167 83.0241 104.477 87.1883L102.778 85.4889C102.168 84.8793 101.179 84.8793 100.57 85.4889C99.9599 86.0987 99.9599 87.0874 100.57 87.6969L102.269 89.3963C98.1048 93.0862 92.7366 95.445 86.8362 95.801ZM117.367 81.6713C116.835 83.1567 116.186 84.6311 115.433 86.0633C113.814 86.5475 112.301 87.4 111.205 88.4956L97.3403 102.36C97.006 100.372 95.8854 98.6473 94.3108 97.5182C105.766 93.7202 114.053 82.9075 114.053 70.1944C114.053 54.326 101.143 41.4159 85.2751 41.4159C79.7817 41.4159 74.4409 42.9698 69.83 45.9092C65.8345 48.4565 62.5413 51.9374 60.22 56.0405C58.6784 55.1643 56.9782 54.5383 55.1729 54.2155C61.0556 43.1573 72.6423 36.1235 85.2751 36.1235C104.062 36.1235 119.346 51.4077 119.346 70.1944C119.346 74.1356 118.68 77.9971 117.367 81.6713ZM59.6718 65.9993L52.3692 75.7268C52.1097 76.0727 51.7183 76.2954 51.2884 76.3416C51.2323 76.3477 51.1765 76.3508 51.1206 76.3508C50.7481 76.3508 50.3858 76.2174 50.1011 75.9719L45.2731 71.8086C44.62 71.2456 44.5472 70.2596 45.1104 69.6067C45.6737 68.9536 46.6595 68.8807 47.3124 69.444L50.8751 72.5163L57.1745 64.1249C57.6921 63.4354 58.6706 63.2957 59.3605 63.8135C60.0501 64.3311 60.1896 65.3096 59.6718 65.9993Z" fill="black"/>
</svg>
