<svg width="165" height="165" viewBox="0 0 165 165" fill="none" xmlns="http://www.w3.org/2000/svg">
<circle cx="82.5" cy="82.5" r="82.5" fill="#F0FF00"/>
<path d="M94.5 117.375V112.483C94.5 110.866 95.3219 109.358 96.6484 108.548C105.086 103.392 110.125 94.425 110.125 84.5625C110.125 83.6984 109.427 83 108.562 83H107C107 80.4453 105.777 78.1187 103.736 76.6703C103.817 76.2172 103.875 75.7188 103.875 75.1875C103.875 70.7859 100.767 67.0094 96.5141 66.0672C94.8891 63.0391 91.7328 61.125 88.25 61.125C86.2625 61.125 84.3641 61.7437 82.7812 62.8937C81.1984 61.7437 79.3 61.125 77.3125 61.125C73.9234 61.125 70.8438 62.9344 69.1891 65.8172C64.1625 65.9813 60.125 70.1219 60.125 75.1875C60.125 75.7188 60.1828 76.2172 60.2641 76.6703C58.2234 78.1187 57 80.4453 57 83H55.4375C54.5734 83 53.875 83.6984 53.875 84.5625C53.875 94.425 58.9141 103.392 67.3516 108.55C68.6781 109.358 69.5 110.866 69.5 112.483V117.375C69.5 118.239 70.1984 118.938 71.0625 118.938H92.9375C93.8016 118.938 94.5 118.239 94.5 117.375ZM62.7391 78.8234C62.9766 78.7062 63.1547 78.5219 63.3016 78.3172C65 78.3453 66.375 79.7328 66.375 81.4375H69.5C69.5 77.9906 66.6969 75.1875 63.25 75.1875C63.25 72.2219 65.3297 69.7453 68.1047 69.1078C68.9203 73.4516 72.7359 76.75 77.3125 76.75V73.625C74.2719 73.625 71.7391 71.4422 71.1828 68.5609C71.3391 68.4156 71.4781 68.2516 71.5656 68.0484C72.5422 65.7406 74.8 64.25 77.3125 64.25C78.9578 64.25 80.5094 64.8891 81.6828 66.0484C82.2906 66.65 83.2734 66.65 83.8797 66.0484C85.0531 64.8891 86.6047 64.25 88.25 64.25C90.1125 64.25 91.8313 65.0734 92.9984 66.4406C90.2109 67.6359 88.25 70.4047 88.25 73.625H91.375C91.375 71.3156 93.0578 69.4016 95.2594 69.0188C98.3906 69.4125 100.75 72.0641 100.75 75.1875C100.75 75.7063 100.656 76.2625 100.45 76.9938C100.244 77.7203 100.586 78.4891 101.262 78.8234C102.873 79.6172 103.875 81.2172 103.875 83H91.375C91.375 79.5531 88.5719 76.75 85.125 76.75V79.875C86.8484 79.875 88.25 81.2766 88.25 83H60.125C60.125 81.2172 61.1266 79.6172 62.7391 78.8234ZM91.375 115.812H83.5625V106.438C83.5625 105.963 83.3469 105.514 82.9766 105.217L76.2047 99.8C75.9156 99.5687 75.75 99.225 75.75 98.8562V98.2672C75.75 97.6031 76.2906 97.0625 76.9547 97.0625H77.3922C77.7969 97.0625 78.1719 97.2641 78.3969 97.6C79.2031 98.8063 80.5484 99.5281 82 99.5281C83.4516 99.5281 84.7969 98.8063 85.6031 97.6C85.8266 97.2641 86.2016 97.0625 86.6063 97.0625H87.0438C87.7094 97.0625 88.25 97.6031 88.25 98.2672V99.0406C88.25 99.3625 88.125 99.6641 87.8969 99.8922L84.0203 103.769L86.2297 105.978L90.1063 102.102C90.925 101.284 91.375 100.198 91.375 99.0422V98.2687C91.375 95.8797 89.4328 93.9375 87.0453 93.9375H86.6078C85.1563 93.9375 83.8094 94.6578 83.0031 95.8656C82.6797 96.35 82.1938 96.4031 82 96.4031C81.8062 96.4031 81.3203 96.35 80.9969 95.8656C80.1922 94.6578 78.8438 93.9375 77.3937 93.9375H76.9562C74.5672 93.9375 72.625 95.8797 72.625 98.2672V98.8562C72.625 100.177 73.2172 101.409 74.25 102.239L80.4375 107.188V115.812H72.625V112.483C72.625 109.784 71.2281 107.255 68.9812 105.881C61.9266 101.572 57.5469 94.2672 57.0469 86.125H106.953C106.455 94.2672 102.073 101.572 95.0188 105.883C92.7719 107.255 91.375 109.786 91.375 112.483V115.812Z" fill="black"/>
<path d="M71.0625 122.062H92.9375V125.188H71.0625V122.062Z" fill="black"/>
<path d="M74.1875 128.312H89.8125V131.438H74.1875V128.312Z" fill="black"/>
<path d="M129.111 54.9797L125.617 54.4453L124.039 51.0859C123.781 50.5375 123.231 50.1875 122.625 50.1875C122.019 50.1875 121.469 50.5375 121.211 51.0859L119.633 54.4453L116.139 54.9797C115.561 55.0688 115.08 55.4719 114.894 56.0281C114.708 56.5844 114.849 57.1953 115.256 57.6156L117.83 60.2531L117.219 63.9969C117.122 64.5875 117.374 65.1813 117.861 65.5266C118.349 65.8719 118.995 65.9078 119.517 65.6172L122.625 63.9L125.731 65.6172C125.967 65.7484 126.228 65.8125 126.488 65.8125C126.803 65.8125 127.119 65.7156 127.388 65.5266C127.875 65.1813 128.127 64.5875 128.03 63.9969L127.419 60.2531L129.992 57.6156C130.402 57.1953 130.542 56.5844 130.355 56.0281C130.167 55.4719 129.689 55.0688 129.111 54.9797ZM124.631 58.6359C124.284 58.9906 124.128 59.4891 124.208 59.9781L124.428 61.325L123.381 60.7469C123.147 60.6172 122.888 60.5516 122.627 60.5516C122.366 60.5516 122.106 60.6172 121.872 60.7469L120.825 61.325L121.045 59.9781C121.125 59.4891 120.967 58.9891 120.622 58.6359L119.62 57.6094L120.933 57.4094C121.447 57.3313 121.889 57 122.111 56.5297L122.625 55.4281L123.142 56.5297C123.364 57.0016 123.806 57.3328 124.32 57.4094L125.633 57.6094L124.631 58.6359Z" fill="black"/>
<path d="M35.2063 62.2781C35.0204 62.8328 35.161 63.4453 35.5688 63.8656L38.1423 66.5031L37.5313 70.2469C37.4344 70.8375 37.686 71.4313 38.1735 71.7766C38.661 72.1219 39.3094 72.1578 39.8298 71.8672L42.9376 70.15L46.0438 71.8672C46.2798 71.9984 46.5407 72.0625 46.8001 72.0625C47.1157 72.0625 47.4313 71.9656 47.7001 71.7766C48.1876 71.4313 48.4391 70.8375 48.3423 70.2469L47.7313 66.5031L50.3048 63.8656C50.7141 63.4453 50.8548 62.8344 50.6673 62.2781C50.4798 61.7219 50.0001 61.3187 49.4219 61.2297L45.9282 60.6953L44.3501 57.3359C44.0938 56.7875 43.5438 56.4375 42.9376 56.4375C42.3313 56.4375 41.7813 56.7875 41.5235 57.3359L39.9454 60.6953L36.4516 61.2297C35.8735 61.3187 35.3923 61.7234 35.2063 62.2781ZM41.2423 63.6594C41.7563 63.5813 42.1985 63.25 42.4204 62.7797L42.9376 61.6781L43.4548 62.7797C43.6766 63.2516 44.1188 63.5828 44.6329 63.6594L45.9454 63.8594L44.9438 64.8859C44.5969 65.2406 44.4407 65.7391 44.5204 66.2281L44.7407 67.575L43.6938 66.9969C43.4579 66.8687 43.1985 66.8031 42.9376 66.8031C42.6766 66.8031 42.4173 66.8688 42.1829 66.9984L41.136 67.5766L41.3563 66.2297C41.436 65.7406 41.2782 65.2406 40.9329 64.8875L39.9298 63.8594L41.2423 63.6594Z" fill="black"/>
<path d="M106.919 40.4031C106.733 39.8484 106.252 39.4437 105.674 39.3547L102.18 38.8203L100.602 35.4609C100.344 34.9125 99.7938 34.5625 99.1876 34.5625C98.5813 34.5625 98.0313 34.9125 97.7735 35.4609L96.1954 38.8203L92.7016 39.3547C92.1235 39.4437 91.6423 39.8469 91.4563 40.4031C91.2704 40.9594 91.411 41.5703 91.8188 41.9906L94.3923 44.6281L93.7813 48.3719C93.6844 48.9625 93.936 49.5563 94.4235 49.9016C94.911 50.2453 95.5594 50.2828 96.0798 49.9922L99.1876 48.275L102.294 49.9922C102.53 50.1234 102.791 50.1875 103.05 50.1875C103.366 50.1875 103.681 50.0906 103.95 49.9016C104.438 49.5563 104.689 48.9625 104.592 48.3719L103.981 44.6281L106.555 41.9906C106.966 41.5703 107.105 40.9594 106.919 40.4031ZM101.194 43.0109C100.847 43.3656 100.691 43.8641 100.77 44.3531L100.991 45.7L99.9438 45.1219C99.7079 44.9937 99.4485 44.9281 99.1876 44.9281C98.9266 44.9281 98.6673 44.9937 98.4329 45.1234L97.386 45.7016L97.6063 44.3547C97.686 43.8656 97.5282 43.3656 97.1829 43.0125L96.1798 41.9844L97.4923 41.7844C98.0063 41.7063 98.4485 41.375 98.6704 40.9047L99.1876 39.8031L99.7048 40.9047C99.9266 41.3766 100.369 41.7078 100.883 41.7844L102.195 41.9844L101.194 43.0109Z" fill="black"/>
<path d="M114.812 62.6875V59.5625C109.642 59.5625 105.438 63.7672 105.438 68.9375H108.562C108.562 65.4906 111.366 62.6875 114.812 62.6875Z" fill="black"/>
<path d="M49.8828 55.1374L51.6156 57.7374C53.7422 56.3203 56.2922 55.8343 58.7922 56.3734C61.2937 56.9124 63.4156 58.4031 64.7719 60.5718L66.6125 63.5171L69.2609 61.8593L67.4203 58.914C65.6141 56.0234 62.7828 54.0359 59.4484 53.3187C56.1187 52.5937 52.7203 53.2468 49.8828 55.1374Z" fill="black"/>
<path d="M85.125 56.4375C85.125 52.0359 87.2281 47.8297 90.7516 45.1875L88.875 42.6875C84.5703 45.9172 82 51.0578 82 56.4375V59.5625H85.125V56.4375Z" fill="black"/>
<path d="M63.25 37.6875H66.375V40.8125H63.25V37.6875Z" fill="black"/>
<path d="M36.6875 47.0625H39.8125V50.1875H36.6875V47.0625Z" fill="black"/>
<path d="M116.375 76.75H119.5V79.875H116.375V76.75Z" fill="black"/>
<path d="M41.375 83H44.5V86.125H41.375V83Z" fill="black"/>
<path d="M122.625 39.25H125.75V42.375H122.625V39.25Z" fill="black"/>
</svg>
