<svg width="19" height="19" viewBox="0 0 19 19" fill="none" xmlns="http://www.w3.org/2000/svg">
<g id="Capa_1">
<path id="Vector" d="M17.1157 3.28125H1.8843C0.845245 3.28125 0 4.12646 0 5.16555V13.835C0 14.8741 0.845245 15.7193 1.8843 15.7193H17.1157C18.1548 15.7193 19 14.8741 19 13.835V5.16555C19 4.12646 18.1548 3.28125 17.1157 3.28125ZM17.7438 5.16555V13.835C17.7438 13.9341 17.7159 14.0246 17.6748 14.108L13.2342 9.6671L17.7426 5.15878C17.7426 5.16128 17.7438 5.16309 17.7438 5.16555ZM1.2562 13.835V5.16555C1.2562 5.16309 1.25747 5.16132 1.25747 5.15882L5.76579 9.66714L1.32493 14.108C1.28412 14.0246 1.2562 13.9341 1.2562 13.835ZM9.69387 11.4312C9.59023 11.5348 9.40981 11.5348 9.30617 11.4312L2.41273 4.53745H16.5876L9.69387 11.4312ZM6.65397 10.5553L8.41799 12.3194C8.70721 12.6086 9.09149 12.7678 9.50002 12.7678C9.90851 12.7678 10.2928 12.6086 10.582 12.3194L12.3461 10.5553L16.2536 14.4631H2.74614L6.65397 10.5553Z" fill="black"/>
</g>
</svg>
