<svg width="40" height="40" viewBox="0 0 40 40" fill="none" xmlns="http://www.w3.org/2000/svg">
<g id="Layer_1">
<path id="Vector" d="M10.8938 16.8375H7.21333V12.7867C7.21333 9.26797 8.65083 6.07188 10.9672 3.75313C13.2852 1.4375 16.4813 0 20 0C23.5188 0 26.7149 1.4375 29.0336 3.75391C31.35 6.07266 32.7875 9.26797 32.7875 12.7875V16.8383H29.1071V12.7875C29.1071 10.2852 28.0821 8.00859 26.4321 6.35625C24.779 4.70391 22.5024 3.68125 20 3.68125C17.4977 3.68125 15.2211 4.70469 13.5688 6.35625C11.9165 8.00781 10.8938 10.2852 10.8938 12.7875V16.8375ZM38.25 21.1734V36.9547C38.25 38.6289 36.8813 40 35.2047 40H4.79458C3.11802 40 1.74927 38.6289 1.74927 36.9547V21.1734C1.74927 19.4992 3.11802 18.1281 4.79458 18.1281H35.2047C36.8821 18.1289 38.25 19.4992 38.25 21.1734ZM9.1688 29.0641L10.7696 28.1383C11.0774 27.9609 11.1836 27.5672 11.004 27.2594C10.8266 26.9516 10.4329 26.8477 10.125 27.025L8.52583 27.9484V26.0992C8.52583 25.7445 8.23599 25.4547 7.87895 25.4547C7.52427 25.4547 7.23442 25.7445 7.23442 26.0992V27.9484L5.6352 27.025C5.32739 26.8477 4.93286 26.9516 4.7563 27.2594C4.57661 27.5672 4.68286 27.9617 4.99067 28.1383L6.59146 29.0641L4.99224 29.9898C4.68442 30.1672 4.57817 30.5609 4.75786 30.8687C4.93521 31.1766 5.32896 31.2805 5.63677 31.1031L7.23599 30.1797V32.0289C7.23599 32.3836 7.52583 32.6734 7.88052 32.6734C8.23677 32.6734 8.52739 32.3836 8.52739 32.0289V30.1797L10.1266 31.1031C10.4344 31.2805 10.829 31.1766 11.0055 30.8687C11.1852 30.5609 11.079 30.1664 10.7711 29.9898L9.1688 29.0641ZM17.2477 29.0641L18.8508 28.1383C19.1586 27.9609 19.2625 27.5672 19.0852 27.2594C18.9055 26.9516 18.5118 26.8477 18.204 27.025L16.6047 27.9484V26.0992C16.6047 25.7445 16.3165 25.4547 15.9602 25.4547C15.604 25.4547 15.3133 25.7445 15.3133 26.0992V27.9484L13.7141 27.025C13.4063 26.8477 13.0141 26.9516 12.8352 27.2594C12.6579 27.5672 12.7618 27.9617 13.0696 28.1383L14.6727 29.0641L13.0696 29.9898C12.7618 30.1672 12.6579 30.5609 12.8352 30.8687C13.0149 31.1766 13.4063 31.2805 13.7141 31.1031L15.3133 30.1797V32.0289C15.3133 32.3836 15.6032 32.6734 15.9602 32.6734C16.3172 32.6734 16.6047 32.3836 16.6047 32.0289V30.1797L18.204 31.1031C18.5118 31.2805 18.9063 31.1766 19.0852 30.8687C19.2625 30.5609 19.1586 30.1664 18.8508 29.9898L17.2477 29.0641ZM25.3258 29.0641L26.929 28.1383C27.2368 27.9609 27.3407 27.5672 27.1633 27.2594C26.9836 26.9516 26.5922 26.8477 26.2844 27.025L24.6836 27.9484V26.0992C24.6836 25.7445 24.3954 25.4547 24.0391 25.4547C23.6829 25.4547 23.3946 25.7445 23.3946 26.0992V27.9484L21.7954 27.025C21.4876 26.8477 21.093 26.9516 20.9141 27.2594C20.7368 27.5672 20.8407 27.9617 21.1485 28.1383L22.7516 29.0641L21.1485 29.9898C20.8407 30.1672 20.7368 30.5609 20.9141 30.8687C21.0938 31.1766 21.4876 31.2805 21.7954 31.1031L23.3946 30.1797V32.0289C23.3946 32.3836 23.6829 32.6734 24.0391 32.6734C24.3954 32.6734 24.6836 32.3836 24.6836 32.0289V30.1797L26.2844 31.1031C26.5922 31.2805 26.9844 31.1766 27.1633 30.8687C27.3407 30.5609 27.2368 30.1664 26.929 29.9898L25.3258 29.0641ZM33.4071 29.0641L35.0079 28.1383C35.3157 27.9609 35.4219 27.5672 35.2422 27.2594C35.0649 26.9516 34.6711 26.8477 34.3633 27.025L32.7641 27.9484V26.0992C32.7641 25.7445 32.4743 25.4547 32.1196 25.4547C31.7633 25.4547 31.4727 25.7445 31.4727 26.0992V27.9484L29.8735 27.025C29.5657 26.8477 29.1711 26.9516 28.9946 27.2594C28.8149 27.5672 28.9211 27.9617 29.229 28.1383L30.8297 29.0641L29.229 29.9898C28.9211 30.1672 28.8149 30.5609 28.9946 30.8687C29.1719 31.1766 29.5657 31.2805 29.8735 31.1031L31.4727 30.1797V32.0289C31.4727 32.3836 31.7625 32.6734 32.1196 32.6734C32.4743 32.6734 32.7641 32.3836 32.7641 32.0289V30.1797L34.3633 31.1031C34.6711 31.2805 35.0657 31.1766 35.2422 30.8687C35.4219 30.5609 35.3157 30.1664 35.0079 29.9898L33.4071 29.0641Z" fill="black"/>
</g>
</svg>
