<svg width="70" height="71" viewBox="0 0 70 71" fill="none" xmlns="http://www.w3.org/2000/svg">
<g clip-path="url(#clip0_346_6285)">
<path d="M63.512 0.267365H5.99754C4.47216 0.267365 3.00926 0.873319 1.93065 1.95192C0.852048 3.03053 0.246094 4.49343 0.246094 6.01881V63.5333C0.246094 65.0587 0.852048 66.5216 1.93065 67.6002C3.00926 68.6788 4.47216 69.2847 5.99754 69.2847H63.512C65.0374 69.2847 66.5003 68.6788 67.5789 67.6002C68.6575 66.5216 69.2635 65.0587 69.2635 63.5333V6.01881C69.2635 4.49343 68.6575 3.03053 67.5789 1.95192C66.5003 0.873319 65.0374 0.267365 63.512 0.267365ZM54.8848 37.6518H37.6305V54.9061C37.6305 55.6688 37.3275 56.4003 36.7882 56.9396C36.2489 57.4789 35.5175 57.7818 34.7548 57.7818C33.9921 57.7818 33.2606 57.4789 32.7213 56.9396C32.182 56.4003 31.8791 55.6688 31.8791 54.9061V37.6518H14.6247C13.862 37.6518 13.1306 37.3488 12.5913 36.8095C12.052 36.2702 11.749 35.5387 11.749 34.776C11.749 34.0134 12.052 33.2819 12.5913 32.7426C13.1306 32.2033 13.862 31.9003 14.6247 31.9003H31.8791V14.646C31.8791 13.8833 32.182 13.1518 32.7213 12.6125C33.2606 12.0732 33.9921 11.7703 34.7548 11.7703C35.5175 11.7703 36.2489 12.0732 36.7882 12.6125C37.3275 13.1518 37.6305 13.8833 37.6305 14.646V31.9003H54.8848C55.6475 31.9003 56.379 32.2033 56.9183 32.7426C57.4576 33.2819 57.7606 34.0134 57.7606 34.776C57.7606 35.5387 57.4576 36.2702 56.9183 36.8095C56.379 37.3488 55.6475 37.6518 54.8848 37.6518Z" fill="black"/>
</g>
<defs>
<clipPath id="clip0_346_6285">
<rect width="69.5" height="69.5" fill="white" transform="translate(0.150391 0.75)"/>
</clipPath>
</defs>
</svg>
