<svg width="35" height="35" viewBox="0 0 35 35" fill="none" xmlns="http://www.w3.org/2000/svg">
<g id="nav bar icons" clip-path="url(#clip0_126_2227)">
<path id="Vector" d="M31.6892 34.0542H3.31079C2.68382 34.0534 2.08274 33.804 1.63941 33.3607C1.19607 32.9173 0.946674 32.3163 0.945923 31.6893V3.31091C0.946674 2.68394 1.19607 2.08286 1.63941 1.63953C2.08274 1.19619 2.68382 0.946796 3.31079 0.946045H31.6892C32.3161 0.946796 32.9172 1.19619 33.3605 1.63953C33.8039 2.08286 34.0533 2.68394 34.054 3.31091V31.6893C34.0533 32.3163 33.8039 32.9173 33.3605 33.3607C32.9172 33.804 32.3161 34.0534 31.6892 34.0542ZM3.31079 1.89199C2.93447 1.89199 2.57356 2.04148 2.30746 2.30758C2.04136 2.57368 1.89187 2.93459 1.89187 3.31091V31.6893C1.89187 32.0656 2.04136 32.4265 2.30746 32.6926C2.57356 32.9587 2.93447 33.1082 3.31079 33.1082H31.6892C32.0655 33.1082 32.4264 32.9587 32.6925 32.6926C32.9586 32.4265 33.1081 32.0656 33.1081 31.6893V3.31091C33.1081 2.93459 32.9586 2.57368 32.6925 2.30758C32.4264 2.04148 32.0655 1.89199 31.6892 1.89199H3.31079Z" fill="white"/>
<path id="Vector_2" d="M29.7972 6.62158H33.581V7.56753H29.7972V6.62158Z" fill="white"/>
<path id="Vector_3" d="M1.41895 6.62158H27.9054V7.56753H1.41895V6.62158Z" fill="white"/>
<path id="Vector_4" d="M4.72971 5.67573C4.44907 5.67573 4.17474 5.59251 3.9414 5.4366C3.70806 5.28068 3.5262 5.05908 3.4188 4.79981C3.31141 4.54053 3.28331 4.25524 3.33806 3.97999C3.39281 3.70475 3.52794 3.45192 3.72638 3.25348C3.92482 3.05504 4.17765 2.9199 4.45289 2.86516C4.72814 2.81041 5.01343 2.83851 5.27271 2.9459C5.53198 3.05329 5.75359 3.23516 5.9095 3.4685C6.06541 3.70184 6.14863 3.97617 6.14863 4.25681C6.14863 4.63313 5.99914 4.99404 5.73304 5.26014C5.46694 5.52624 5.10603 5.67573 4.72971 5.67573ZM4.72971 3.78384C4.63617 3.78384 4.54472 3.81158 4.46694 3.86355C4.38916 3.91552 4.32854 3.98939 4.29274 4.07581C4.25694 4.16224 4.24758 4.25733 4.26583 4.34908C4.28408 4.44083 4.32912 4.52511 4.39527 4.59125C4.46141 4.6574 4.54569 4.70245 4.63744 4.7207C4.72919 4.73894 4.82429 4.72958 4.91071 4.69378C4.99713 4.65798 5.071 4.59736 5.12297 4.51958C5.17494 4.4418 5.20268 4.35036 5.20268 4.25681C5.20268 4.13137 5.15285 4.01107 5.06415 3.92237C4.97545 3.83367 4.85515 3.78384 4.72971 3.78384Z" fill="white"/>
<path id="Vector_5" d="M8.51352 5.67573C8.23289 5.67573 7.95856 5.59251 7.72522 5.4366C7.49188 5.28068 7.31001 5.05908 7.20261 4.79981C7.09522 4.54053 7.06712 4.25524 7.12187 3.97999C7.17662 3.70475 7.31176 3.45192 7.5102 3.25348C7.70864 3.05504 7.96146 2.9199 8.23671 2.86516C8.51195 2.81041 8.79725 2.83851 9.05652 2.9459C9.31579 3.05329 9.5374 3.23516 9.69331 3.4685C9.84923 3.70184 9.93244 3.97617 9.93244 4.25681C9.93244 4.63313 9.78295 4.99404 9.51685 5.26014C9.25075 5.52624 8.88984 5.67573 8.51352 5.67573ZM8.51352 3.78384C8.41998 3.78384 8.32853 3.81158 8.25075 3.86355C8.17297 3.91552 8.11235 3.98939 8.07655 4.07581C8.04076 4.16224 8.03139 4.25733 8.04964 4.34908C8.06789 4.44083 8.11293 4.52511 8.17908 4.59125C8.24523 4.6574 8.3295 4.70245 8.42125 4.7207C8.513 4.73894 8.6081 4.72958 8.69452 4.69378C8.78095 4.65798 8.85482 4.59736 8.90679 4.51958C8.95876 4.4418 8.9865 4.35036 8.9865 4.25681C8.9865 4.13137 8.93667 4.01107 8.84797 3.92237C8.75927 3.83367 8.63896 3.78384 8.51352 3.78384Z" fill="white"/>
<path id="Vector_6" d="M12.2973 5.67573C12.0167 5.67573 11.7424 5.59251 11.509 5.4366C11.2757 5.28068 11.0938 5.05908 10.9864 4.79981C10.879 4.54053 10.8509 4.25524 10.9057 3.97999C10.9604 3.70475 11.0956 3.45192 11.294 3.25348C11.4924 3.05504 11.7453 2.9199 12.0205 2.86516C12.2958 2.81041 12.5811 2.83851 12.8403 2.9459C13.0996 3.05329 13.3212 3.23516 13.4771 3.4685C13.633 3.70184 13.7163 3.97617 13.7163 4.25681C13.7163 4.63313 13.5668 4.99404 13.3007 5.26014C13.0346 5.52624 12.6737 5.67573 12.2973 5.67573ZM12.2973 3.78384C12.2038 3.78384 12.1123 3.81158 12.0346 3.86355C11.9568 3.91552 11.8962 3.98939 11.8604 4.07581C11.8246 4.16224 11.8152 4.25733 11.8335 4.34908C11.8517 4.44083 11.8967 4.52511 11.9629 4.59125C12.029 4.6574 12.1133 4.70245 12.2051 4.7207C12.2968 4.73894 12.3919 4.72958 12.4783 4.69378C12.5648 4.65798 12.6386 4.59736 12.6906 4.51958C12.7426 4.4418 12.7703 4.35036 12.7703 4.25681C12.7703 4.13137 12.7205 4.01107 12.6318 3.92237C12.5431 3.83367 12.4228 3.78384 12.2973 3.78384Z" fill="white"/>
<path id="Vector_7" d="M18.4459 3.78369H31.6892V4.72964H18.4459V3.78369Z" fill="white"/>
<path id="Vector_8" d="M17.5 19.8648C16.6581 19.8648 15.8351 19.6152 15.1351 19.1474C14.4351 18.6797 13.8895 18.0149 13.5673 17.2371C13.2451 16.4592 13.1608 15.6034 13.3251 14.7776C13.4893 13.9519 13.8947 13.1934 14.4901 12.5981C15.0854 12.0028 15.8439 11.5974 16.6696 11.4331C17.4953 11.2689 18.3512 11.3532 19.129 11.6753C19.9069 11.9975 20.5717 12.5431 21.0394 13.2432C21.5071 13.9432 21.7568 14.7662 21.7568 15.6081C21.7554 16.7366 21.3065 17.8185 20.5085 18.6165C19.7105 19.4145 18.6286 19.8635 17.5 19.8648ZM17.5 12.2973C16.8452 12.2973 16.2051 12.4914 15.6607 12.8552C15.1162 13.219 14.6918 13.7361 14.4413 14.3411C14.1907 14.9461 14.1251 15.6117 14.2529 16.254C14.3806 16.8962 14.6959 17.4861 15.1589 17.9492C15.622 18.4122 16.2119 18.7275 16.8541 18.8553C17.4964 18.983 18.1621 18.9175 18.767 18.6669C19.372 18.4163 19.8891 17.9919 20.2529 17.4475C20.6167 16.903 20.8109 16.2629 20.8109 15.6081C20.8099 14.7303 20.4607 13.8888 19.84 13.2681C19.2194 12.6474 18.3778 12.2983 17.5 12.2973Z" fill="white"/>
<path id="Vector_9" d="M25.0676 29.3244C24.5063 29.3244 23.9576 29.1579 23.491 28.8461C23.0243 28.5343 22.6605 28.0911 22.4458 27.5725C22.231 27.054 22.1748 26.4834 22.2843 25.9329C22.3938 25.3824 22.664 24.8767 23.0609 24.4799C23.4578 24.083 23.9635 23.8127 24.5139 23.7032C25.0644 23.5937 25.635 23.6499 26.1536 23.8647C26.6721 24.0795 27.1153 24.4432 27.4272 24.9099C27.739 25.3766 27.9054 25.9252 27.9054 26.4865C27.9047 27.2389 27.6054 27.9603 27.0734 28.4923C26.5414 29.0244 25.82 29.3236 25.0676 29.3244ZM25.0676 24.5946C24.6934 24.5946 24.3276 24.7056 24.0165 24.9135C23.7054 25.1214 23.4629 25.4168 23.3197 25.7625C23.1765 26.1082 23.139 26.4886 23.212 26.8556C23.285 27.2226 23.4652 27.5597 23.7298 27.8243C23.9944 28.0889 24.3315 28.2691 24.6985 28.3421C25.0655 28.4151 25.4459 28.3776 25.7916 28.2344C26.1373 28.0912 26.4327 27.8487 26.6406 27.5376C26.8485 27.2265 26.9595 26.8607 26.9595 26.4865C26.9595 25.9848 26.7601 25.5036 26.4053 25.1488C26.0505 24.794 25.5693 24.5946 25.0676 24.5946Z" fill="white"/>
<path id="Vector_10" d="M17.4999 29.3244C16.9387 29.3244 16.39 29.1579 15.9233 28.8461C15.4567 28.5343 15.0929 28.0911 14.8781 27.5725C14.6633 27.054 14.6071 26.4834 14.7166 25.9329C14.8261 25.3824 15.0964 24.8767 15.4933 24.4799C15.8902 24.083 16.3958 23.8127 16.9463 23.7032C17.4968 23.5937 18.0674 23.6499 18.5859 23.8647C19.1045 24.0795 19.5477 24.4432 19.8595 24.9099C20.1714 25.3766 20.3378 25.9252 20.3378 26.4865C20.337 27.2389 20.0378 27.9603 19.5058 28.4923C18.9737 29.0244 18.2524 29.3236 17.4999 29.3244ZM17.4999 24.5946C17.1258 24.5946 16.76 24.7056 16.4489 24.9135C16.1377 25.1214 15.8953 25.4168 15.7521 25.7625C15.6089 26.1082 15.5714 26.4886 15.6444 26.8556C15.7174 27.2226 15.8976 27.5597 16.1622 27.8243C16.4268 28.0889 16.7639 28.2691 17.1309 28.3421C17.4978 28.4151 17.8782 28.3776 18.2239 28.2344C18.5696 28.0912 18.8651 27.8487 19.073 27.5376C19.2809 27.2265 19.3918 26.8607 19.3918 26.4865C19.3918 25.9848 19.1925 25.5036 18.8377 25.1488C18.4829 24.794 18.0017 24.5946 17.4999 24.5946Z" fill="white"/>
<path id="Vector_11" d="M9.93244 29.3244C9.37117 29.3244 8.82251 29.1579 8.35583 28.8461C7.88915 28.5343 7.52541 28.0911 7.31062 27.5725C7.09583 27.054 7.03964 26.4834 7.14913 25.9329C7.25863 25.3824 7.52891 24.8767 7.92579 24.4799C8.32267 24.083 8.82832 23.8127 9.37881 23.7032C9.9293 23.5937 10.4999 23.6499 11.0184 23.8647C11.537 24.0795 11.9802 24.4432 12.292 24.9099C12.6038 25.3766 12.7703 25.9252 12.7703 26.4865C12.7695 27.2389 12.4703 27.9603 11.9383 28.4923C11.4062 29.0244 10.6849 29.3236 9.93244 29.3244ZM9.93244 24.5946C9.55826 24.5946 9.19248 24.7056 8.88136 24.9135C8.57024 25.1214 8.32776 25.4168 8.18456 25.7625C8.04137 26.1082 8.0039 26.4886 8.0769 26.8556C8.1499 27.2226 8.33009 27.5597 8.59467 27.8243C8.85926 28.0889 9.19636 28.2691 9.56335 28.3421C9.93034 28.4151 10.3107 28.3776 10.6564 28.2344C11.0021 28.0912 11.2976 27.8487 11.5055 27.5376C11.7134 27.2265 11.8243 26.8607 11.8243 26.4865C11.8243 25.9848 11.625 25.5036 11.2702 25.1488C10.9154 24.794 10.4342 24.5946 9.93244 24.5946Z" fill="white"/>
<path id="Vector_12" d="M17.027 19.3918H17.9729V24.1216H17.027V19.3918Z" fill="white"/>
<path id="Vector_13" d="M25.5406 24.1215H24.5946V22.2296H10.4054V24.1215H9.45947V21.7567C9.45947 21.6312 9.5093 21.5109 9.598 21.4222C9.6867 21.3335 9.80701 21.2837 9.93245 21.2837H25.0676C25.193 21.2837 25.3133 21.3335 25.402 21.4222C25.4907 21.5109 25.5406 21.6312 25.5406 21.7567V24.1215Z" fill="white"/>
</g>
<defs>
<clipPath id="clip0_126_2227">
<rect width="35" height="35" fill="white"/>
</clipPath>
</defs>
</svg>
