<svg width="644" height="540" viewBox="0 0 644 540" fill="none" xmlns="http://www.w3.org/2000/svg">
<path style="mix-blend-mode:multiply" d="M445.525 169L471.845 214.842L459.244 214.816L458.884 373.524L431.242 373.46L431.602 214.752L419 214.726L445.525 169Z" fill="url(#paint0_linear_1001_1089)"/>
<path style="mix-blend-mode:multiply" d="M505.525 250L531.845 295.842L519.244 295.816L518.884 454.524L491.242 454.46L491.602 295.752L479 295.726L505.525 250Z" fill="url(#paint1_linear_1001_1089)"/>
<path style="mix-blend-mode:multiply" d="M592.525 189L618.845 234.842L606.244 234.816L605.884 393.524L578.242 393.46L578.602 234.752L566 234.726L592.525 189Z" fill="url(#paint2_linear_1001_1089)"/>
<path style="mix-blend-mode:multiply" d="M231.525 167L257.845 212.842L245.244 212.816L244.884 371.524L217.242 371.46L217.602 212.752L205 212.726L231.525 167Z" fill="url(#paint3_linear_1001_1089)"/>
<path style="mix-blend-mode:multiply" d="M147.525 52L173.845 97.8417L161.244 97.816L160.884 256.524L133.242 256.46L133.602 97.7519L121 97.7263L147.525 52Z" fill="url(#paint4_linear_1001_1089)"/>
<path style="mix-blend-mode:multiply" d="M59.5253 242L85.8453 287.842L73.2436 287.816L72.8842 446.524L45.2425 446.46L45.6018 287.752L33 287.726L59.5253 242Z" fill="url(#paint5_linear_1001_1089)"/>
<path style="mix-blend-mode:multiply" d="M121.495 294L136.87 320.779L129.509 320.764L129.299 413.476L113.152 413.438L113.361 320.727L106 320.712L121.495 294Z" fill="url(#paint6_linear_1001_1089)"/>
<path style="mix-blend-mode:multiply" d="M101.495 154L116.87 180.779L109.509 180.764L109.299 273.476L93.1516 273.438L93.3615 180.727L86 180.712L101.495 154Z" fill="url(#paint7_linear_1001_1089)"/>
<path style="mix-blend-mode:multiply" d="M188.495 235L203.87 261.779L196.509 261.764L196.299 354.476L180.152 354.438L180.361 261.727L173 261.712L188.495 235Z" fill="url(#paint8_linear_1001_1089)"/>
<path style="mix-blend-mode:multiply" d="M203.495 77L218.87 103.779L211.509 103.764L211.299 196.476L195.152 196.438L195.361 103.727L188 103.712L203.495 77Z" fill="url(#paint9_linear_1001_1089)"/>
<path style="mix-blend-mode:multiply" d="M434.495 52L449.87 78.779L442.509 78.764L442.299 171.476L426.152 171.438L426.361 78.7266L419 78.7116L434.495 52Z" fill="url(#paint10_linear_1001_1089)"/>
<path style="mix-blend-mode:multiply" d="M501.495 164L516.87 190.779L509.509 190.764L509.299 283.476L493.152 283.438L493.361 190.727L486 190.712L501.495 164Z" fill="url(#paint11_linear_1001_1089)"/>
<path style="mix-blend-mode:multiply" d="M397.495 226L412.87 252.779L405.509 252.764L405.299 345.476L389.152 345.438L389.361 252.727L382 252.712L397.495 226Z" fill="url(#paint12_linear_1001_1089)"/>
<path style="mix-blend-mode:multiply" d="M550.495 241L565.87 267.779L558.509 267.764L558.299 360.476L542.152 360.438L542.361 267.727L535 267.712L550.495 241Z" fill="url(#paint13_linear_1001_1089)"/>
<path style="mix-blend-mode:multiply" d="M390.367 171L384 182.089L387.049 182.083L387.135 220.476L393.822 220.46L393.735 182.068L396.784 182.061L390.367 171Z" fill="url(#paint14_linear_1001_1089)"/>
<path style="mix-blend-mode:multiply" d="M465.367 316L459 327.089L462.049 327.083L462.135 365.476L468.822 365.46L468.735 327.068L471.784 327.061L465.367 316Z" fill="url(#paint15_linear_1001_1089)"/>
<path style="mix-blend-mode:multiply" d="M541.367 183L535 194.089L538.049 194.083L538.135 232.476L544.822 232.46L544.735 194.068L547.784 194.061L541.367 183Z" fill="url(#paint16_linear_1001_1089)"/>
<path style="mix-blend-mode:multiply" d="M130.367 247L124 258.089L127.049 258.083L127.135 296.476L133.822 296.46L133.735 258.068L136.784 258.061L130.367 247Z" fill="url(#paint17_linear_1001_1089)"/>
<path style="mix-blend-mode:multiply" d="M175.367 184L169 195.089L172.049 195.083L172.135 233.476L178.822 233.46L178.735 195.068L181.784 195.061L175.367 184Z" fill="url(#paint18_linear_1001_1089)"/>
<path style="mix-blend-mode:multiply" d="M54.3671 175L48.0001 186.089L51.0485 186.083L51.1355 224.476L57.8222 224.46L57.7352 186.068L60.7837 186.061L54.3671 175Z" fill="url(#paint19_linear_1001_1089)"/>
<path style="mix-blend-mode:multiply" d="M479.367 118L473 129.089L476.049 129.083L476.135 167.476L482.822 167.46L482.735 129.068L485.784 129.061L479.367 118Z" fill="url(#paint20_linear_1001_1089)"/>
<path style="mix-blend-mode:multiply" d="M26.3671 234L20.0001 245.089L23.0485 245.083L23.1355 283.476L29.8222 283.46L29.7352 245.068L32.7837 245.061L26.3671 234Z" fill="url(#paint21_linear_1001_1089)"/>
<path d="M435.684 396.566H208.283V431.419H435.684V396.566Z" fill="#00ADEE"/>
<path d="M435.716 396.566H208.283L231.206 388.42H413.146L435.716 396.566Z" fill="#0097D1"/>
<path d="M435.684 396.566H208.283V431.419H435.684V396.566Z" fill="#E6E51D"/>
<path d="M435.716 396.566H208.283L231.206 388.42H413.146L435.716 396.566Z" fill="url(#paint22_radial_1001_1089)"/>
<path d="M644 521.28L0 522.079L208.347 431.387H436.132L644 521.28Z" fill="#FDD91E"/>
<path d="M413.05 360.181H230.95V388.421H413.05V360.181Z" fill="#E6E51D"/>
<path d="M413.05 360.181H230.95L249.301 353.6H394.987L413.05 360.181Z" fill="url(#paint23_radial_1001_1089)"/>
<path d="M394.859 330.696H249.141V353.6H394.859V330.696Z" fill="#E6E51D"/>
<path d="M394.859 330.696H249.141L263.815 325.361H380.409L394.859 330.696Z" fill="url(#paint24_radial_1001_1089)"/>
<path d="M380.505 306.769H263.527V325.329H380.505V306.769Z" fill="#E6E51D"/>
<path d="M380.473 306.769H263.527L275.292 299.326H368.9L380.473 306.769Z" fill="url(#paint25_radial_1001_1089)"/>
<path d="M419.444 143.434L322 0L224.556 143.434H275.1V299.421H368.9V143.434H419.444Z" fill="#F0FF00"/>
<path d="M311.77 221.891C311.77 222.37 311.386 222.753 310.907 222.753C310.427 222.753 310.043 222.37 310.043 221.891C310.043 221.411 310.427 221.028 310.907 221.028C311.386 221.028 311.77 221.411 311.77 221.891Z" fill="black"/>
<path d="M338.528 213.745H303.809C303.298 213.745 302.914 214.16 302.914 214.639V237.608C302.914 238.119 303.33 238.502 303.809 238.502H338.528C339.04 238.502 339.424 238.087 339.424 237.608V214.639C339.424 214.128 339.008 213.745 338.528 213.745ZM310.875 223.073C310.203 223.073 309.66 222.53 309.66 221.859C309.66 221.188 310.203 220.645 310.875 220.645C311.546 220.645 312.089 221.188 312.089 221.859C312.089 222.53 311.546 223.073 310.875 223.073Z" fill="black"/>
<path d="M303.01 228.024H303.042V236.809H303.01C302.019 236.809 301.252 236.01 301.252 235.052V229.813C301.252 228.823 302.051 228.056 303.01 228.056V228.024Z" fill="black"/>
<path d="M301.539 229.11V235.723C300.868 235.723 300.356 235.18 300.356 234.541V230.292C300.356 229.621 300.9 229.11 301.539 229.11Z" fill="black"/>
<path d="M300.804 231.219V233.582C300.293 233.582 299.877 233.167 299.877 232.656V232.145C299.877 231.634 300.293 231.219 300.804 231.219Z" fill="black"/>
<path d="M301.539 219.718H300.197C298.943 219.718 297.927 220.734 297.927 221.986V222.082C297.927 223.335 298.943 224.35 300.197 224.35H301.539C302.793 224.35 303.809 223.335 303.809 222.082V221.986C303.809 220.734 302.793 219.718 301.539 219.718Z" fill="black"/>
<path d="M295.945 220.74H294.314C294.208 220.74 294.123 220.826 294.123 220.932V223.104C294.123 223.21 294.208 223.296 294.314 223.296H295.945C296.051 223.296 296.137 223.21 296.137 223.104V220.932C296.137 220.826 296.051 220.74 295.945 220.74Z" fill="black"/>
<path d="M298.151 220.74H297.096C296.99 220.74 296.904 220.826 296.904 220.932V223.104C296.904 223.21 296.99 223.296 297.096 223.296H298.151C298.257 223.296 298.342 223.21 298.342 223.104V220.932C298.342 220.826 298.257 220.74 298.151 220.74Z" fill="black"/>
<path d="M293.195 220.741H292.013C291.789 220.741 291.597 220.709 291.405 220.581L289.775 219.559C289.775 219.559 289.679 219.559 289.647 219.622V219.814C289.455 221.284 289.455 222.753 289.647 224.191V224.382C289.647 224.382 289.743 224.478 289.775 224.446L291.405 223.424C291.597 223.296 291.789 223.264 292.013 223.264H293.195C293.195 223.264 293.387 223.2 293.387 223.073V220.868C293.387 220.868 293.323 220.677 293.195 220.677V220.741Z" fill="black"/>
<path d="M338.848 218.888H340.894C341.054 218.888 341.214 219.015 341.214 219.207V224.51C341.214 224.67 341.086 224.829 340.894 224.829H338.848V218.92V218.888Z" fill="black"/>
<path d="M359.053 227.832L358.957 228.663C358.925 229.078 358.51 229.302 358.126 229.174L348.855 225.468C347.896 225.085 346.905 224.893 345.882 224.893H345.85C345.69 224.893 345.53 224.989 345.402 225.085C345.306 225.181 345.178 225.245 345.019 225.245H344.315C344.155 225.245 343.996 225.149 343.9 225.053C343.804 224.925 343.612 224.829 343.452 224.829H342.365C342.205 224.829 342.045 224.702 342.045 224.51V219.207C342.045 219.047 342.173 218.888 342.365 218.888H343.452C343.644 218.888 343.804 218.792 343.9 218.664C343.996 218.536 344.155 218.472 344.315 218.472H345.019C345.019 218.472 345.306 218.536 345.402 218.632C345.53 218.76 345.658 218.824 345.85 218.824H345.882C346.905 218.824 347.896 218.632 348.855 218.249L358.126 214.543C358.51 214.383 358.925 214.639 358.957 215.054L359.053 215.853C359.469 219.814 359.469 223.839 359.053 227.8V227.832Z" fill="#494949"/>
<path d="M319.666 244.699C323.198 244.699 326.06 241.825 326.06 238.278C326.06 234.732 323.198 231.857 319.666 231.857C316.135 231.857 313.272 234.732 313.272 238.278C313.272 241.825 316.135 244.699 319.666 244.699Z" fill="black"/>
<path d="M319.315 242.048L318.931 242.208C318.931 242.208 318.931 242.367 318.867 242.495L319.187 242.783C319.187 242.783 319.123 242.942 319.091 243.07H318.675C318.675 243.07 318.579 243.23 318.516 243.326L318.707 243.677C318.707 243.677 318.611 243.805 318.516 243.933L318.132 243.805C318.132 243.805 318.004 243.901 317.908 243.996L317.972 244.412C317.972 244.412 317.844 244.508 317.684 244.571L317.365 244.316C317.365 244.316 317.205 244.38 317.077 244.412L317.013 244.827C317.013 244.827 316.853 244.827 316.693 244.891L316.469 244.54H316.182L315.958 244.891C315.958 244.891 315.798 244.891 315.638 244.827L315.574 244.412C315.574 244.412 315.414 244.348 315.287 244.316L314.967 244.571C314.967 244.571 314.839 244.476 314.679 244.412L314.743 243.996C314.743 243.996 314.615 243.901 314.519 243.805L314.136 243.933C314.136 243.933 314.04 243.805 313.944 243.677L314.136 243.326C314.136 243.326 314.04 243.198 313.976 243.07H313.56C313.56 243.07 313.496 242.91 313.464 242.751L313.784 242.463C313.784 242.463 313.784 242.303 313.72 242.176L313.336 242.016V241.696L313.72 241.537C313.72 241.537 313.72 241.377 313.784 241.249L313.464 240.962C313.464 240.962 313.528 240.802 313.56 240.674H313.976C313.976 240.674 314.072 240.514 314.136 240.419L313.944 240.067C313.944 240.067 314.04 239.939 314.136 239.812L314.519 239.939C314.519 239.939 314.647 239.844 314.743 239.748L314.679 239.332C314.679 239.332 314.807 239.237 314.967 239.173L315.287 239.428C315.287 239.428 315.446 239.364 315.574 239.332L315.638 238.917C315.638 238.917 315.798 238.917 315.958 238.853L316.182 239.205H316.469L316.693 238.853C316.693 238.853 316.853 238.853 317.013 238.917L317.077 239.332C317.077 239.332 317.237 239.396 317.365 239.428L317.684 239.173C317.684 239.173 317.812 239.269 317.972 239.332L317.908 239.748C317.908 239.748 318.036 239.844 318.132 239.939L318.516 239.812C318.516 239.812 318.611 239.939 318.707 240.067L318.516 240.419C318.516 240.419 318.611 240.546 318.675 240.674H319.091C319.091 240.674 319.155 240.834 319.187 240.994L318.867 241.281C318.867 241.281 318.867 241.441 318.931 241.569L319.315 241.728V242.048Z" fill="black"/>
<path d="M315.506 241.214L296.943 251.305L297.555 252.428L316.117 242.336L315.506 241.214Z" fill="black"/>
<path d="M290.057 254.755L297.611 250.648C297.752 250.571 297.953 250.607 298.045 250.776L298.58 251.758C298.656 251.898 298.62 252.099 298.452 252.191L290.897 256.298C290.476 256.527 289.956 256.373 289.727 255.952C289.482 255.503 289.636 254.984 290.057 254.755Z" fill="black"/>
<path d="M321.84 244.156H317.46V245.945H321.84V244.156Z" fill="black"/>
<path d="M321.201 245.722H318.164C317.086 245.722 316.213 246.594 316.213 247.67V247.734C316.213 248.81 317.086 249.683 318.164 249.683H321.201C322.278 249.683 323.151 248.81 323.151 247.734V247.67C323.151 246.594 322.278 245.722 321.201 245.722Z" fill="black"/>
<path d="M322.543 250.034H316.821C316.485 250.034 316.213 250.306 316.213 250.641C316.213 250.976 316.485 251.248 316.821 251.248H322.543C322.879 251.248 323.151 250.976 323.151 250.641C323.151 250.306 322.879 250.034 322.543 250.034Z" fill="black"/>
<path d="M316.373 247.191H314.967V248.245H316.373V247.191Z" fill="black"/>
<path d="M314.647 244.859H314.679C314.999 244.859 315.223 245.115 315.223 245.402V249.938C315.223 250.258 314.967 250.481 314.679 250.481H314.647C313.816 250.481 313.145 249.811 313.145 248.98V246.329C313.145 245.498 313.816 244.827 314.647 244.827V244.859Z" fill="black"/>
<path d="M339.104 299.357L338.976 299.006C338.976 299.006 338.88 298.91 338.816 298.942H338.752L334.34 287.474C334.564 287.346 334.66 287.059 334.564 286.803L334.404 286.388C334.404 286.388 334.212 286.196 334.116 286.26L322.192 255.273H322.543C322.767 255.273 322.927 255.018 322.799 254.794L322.479 253.548C322.16 252.334 321.073 251.472 319.794 251.472C319.155 251.472 318.579 251.695 318.1 252.047C317.62 252.43 317.268 252.941 317.109 253.548L316.789 254.794C316.661 254.986 316.789 255.273 317.045 255.273H317.396L305.472 286.292C305.472 286.292 305.216 286.292 305.184 286.42L305.024 286.835C304.928 287.09 305.024 287.346 305.248 287.506L300.836 299.006H300.772C300.772 299.006 300.644 299.006 300.612 299.038L300.484 299.389C300.388 299.645 300.484 299.9 300.772 299.996L301.699 300.348C301.955 300.444 302.211 300.348 302.306 300.06L302.434 299.709C302.434 299.709 302.434 299.581 302.37 299.549H302.306L306.718 288.049C306.974 288.113 307.23 287.953 307.326 287.697L307.486 287.282C307.486 287.282 307.486 287.027 307.358 286.995L312.089 274.664L318.835 277.124V290.988C318.835 290.988 318.611 291.084 318.611 291.211V291.659C318.611 291.914 318.803 292.138 319.059 292.202V304.501H318.995C318.995 304.501 318.867 304.564 318.867 304.628V304.98C318.867 305.235 319.091 305.459 319.346 305.459H320.337C320.593 305.459 320.817 305.235 320.817 304.98V304.628C320.817 304.628 320.753 304.501 320.689 304.501H320.625V292.202C320.881 292.17 321.073 291.946 321.073 291.659V291.211C321.073 291.211 320.977 290.988 320.849 290.988V277.124L327.595 274.664L332.326 286.995C332.326 286.995 332.134 287.186 332.198 287.282L332.358 287.697C332.454 287.953 332.71 288.081 332.966 288.049L337.377 299.549H337.313C337.313 299.549 337.218 299.677 337.249 299.741L337.377 300.092C337.473 300.348 337.761 300.444 337.985 300.38L338.912 300.028C339.168 299.932 339.264 299.645 339.2 299.421L339.104 299.357ZM318.771 275.878L312.441 273.578L318.771 257.094V275.91V275.878ZM320.753 275.878V257.062L327.083 273.546L320.753 275.846V275.878Z" fill="black"/>
<path d="M327.722 229.27L324.813 231.57C324.589 231.283 324.461 230.899 324.461 230.516C324.461 229.494 325.293 228.663 326.316 228.663C326.859 228.663 327.371 228.919 327.722 229.302V229.27Z" fill="white"/>
<path d="M328.202 230.484C328.202 231.506 327.371 232.337 326.348 232.337C325.804 232.337 325.293 232.081 324.941 231.698L327.85 229.398C328.074 229.685 328.202 230.069 328.202 230.452V230.484Z" fill="white"/>
<path d="M326.316 233.039C324.909 233.039 323.758 231.889 323.758 230.484C323.758 229.078 324.909 227.928 326.316 227.928C327.723 227.928 328.873 229.078 328.873 230.484C328.873 231.889 327.723 233.039 326.316 233.039ZM326.316 228.152C325.037 228.152 323.982 229.206 323.982 230.484C323.982 231.762 325.037 232.816 326.316 232.816C327.595 232.816 328.65 231.762 328.65 230.484C328.65 229.206 327.595 228.152 326.316 228.152Z" fill="white"/>
<path d="M326.956 201.094H307.87V213.361H326.956V201.094Z" fill="#727272"/>
<path d="M327.659 214.096H307.167V200.392H327.659V214.096ZM307.518 213.713H327.307V200.711H307.518V213.713Z" fill="black"/>
<path d="M315.926 207.1C315.926 206.871 315.74 206.685 315.511 206.685C315.281 206.685 315.095 206.871 315.095 207.1V208.921C315.095 209.15 315.281 209.336 315.511 209.336C315.74 209.336 315.926 209.15 315.926 208.921V207.1Z" fill="white"/>
<path d="M327.307 211.604C333.31 211.604 338.177 206.741 338.177 200.743C338.177 194.744 333.31 189.882 327.307 189.882C321.304 189.882 316.438 194.744 316.438 200.743C316.438 206.741 321.304 211.604 327.307 211.604Z" fill="#AFAFAF"/>
<path d="M327.307 212.371C320.881 212.371 315.67 207.164 315.67 200.743C315.67 194.322 320.881 189.115 327.307 189.115C333.733 189.115 338.944 194.322 338.944 200.743C338.944 207.164 333.733 212.371 327.307 212.371ZM327.307 189.562C321.137 189.562 316.118 194.578 316.118 200.743C316.118 206.908 321.137 211.924 327.307 211.924C333.478 211.924 338.497 206.908 338.497 200.743C338.497 194.578 333.478 189.562 327.307 189.562Z" fill="black"/>
<path d="M327.179 205.279C329.616 205.279 331.591 203.306 331.591 200.871C331.591 198.436 329.616 196.462 327.179 196.462C324.743 196.462 322.768 198.436 322.768 200.871C322.768 203.306 324.743 205.279 327.179 205.279Z" fill="white"/>
<path d="M327.18 203.682C328.733 203.682 329.993 202.423 329.993 200.871C329.993 199.318 328.733 198.06 327.18 198.06C325.626 198.06 324.366 199.318 324.366 200.871C324.366 202.423 325.626 203.682 327.18 203.682Z" fill="black"/>
<path d="M303.937 211.604C309.94 211.604 314.807 206.741 314.807 200.743C314.807 194.744 309.94 189.882 303.937 189.882C297.934 189.882 293.067 194.744 293.067 200.743C293.067 206.741 297.934 211.604 303.937 211.604Z" fill="#AFAFAF"/>
<path d="M303.937 212.371C297.511 212.371 292.3 207.164 292.3 200.743C292.3 194.322 297.511 189.115 303.937 189.115C310.363 189.115 315.574 194.322 315.574 200.743C315.574 207.164 310.363 212.371 303.937 212.371ZM303.937 189.562C297.767 189.562 292.748 194.578 292.748 200.743C292.748 206.908 297.767 211.924 303.937 211.924C310.107 211.924 315.127 206.908 315.127 200.743C315.127 194.578 310.107 189.562 303.937 189.562Z" fill="black"/>
<path d="M303.937 203.682C305.562 203.682 306.879 202.366 306.879 200.743C306.879 199.12 305.562 197.804 303.937 197.804C302.313 197.804 300.996 199.12 300.996 200.743C300.996 202.366 302.313 203.682 303.937 203.682Z" fill="white"/>
<path d="M303.938 201.829C304.538 201.829 305.025 201.343 305.025 200.743C305.025 200.143 304.538 199.657 303.938 199.657C303.337 199.657 302.851 200.143 302.851 200.743C302.851 201.343 303.337 201.829 303.938 201.829Z" fill="black"/>
<path d="M327.307 201.829C327.907 201.829 328.394 201.343 328.394 200.743C328.394 200.143 327.907 199.657 327.307 199.657C326.707 199.657 326.22 200.143 326.22 200.743C326.22 201.343 326.707 201.829 327.307 201.829Z" fill="white"/>
<path d="M301.923 222.881C302.4 222.881 302.786 222.495 302.786 222.019C302.786 221.542 302.4 221.156 301.923 221.156C301.447 221.156 301.06 221.542 301.06 222.019C301.06 222.495 301.447 222.881 301.923 222.881Z" fill="white"/>
<defs>
<linearGradient id="paint0_linear_1001_1089" x1="445.577" y1="183.823" x2="441.001" y2="323" gradientUnits="userSpaceOnUse">
<stop offset="0.04" stop-color="#D8D8D8"/>
<stop offset="1" stop-color="white"/>
</linearGradient>
<linearGradient id="paint1_linear_1001_1089" x1="505.577" y1="264.823" x2="501.001" y2="404" gradientUnits="userSpaceOnUse">
<stop offset="0.04" stop-color="#D8D8D8"/>
<stop offset="1" stop-color="white"/>
</linearGradient>
<linearGradient id="paint2_linear_1001_1089" x1="592.577" y1="203.823" x2="588.001" y2="343" gradientUnits="userSpaceOnUse">
<stop offset="0.04" stop-color="#D8D8D8"/>
<stop offset="1" stop-color="white"/>
</linearGradient>
<linearGradient id="paint3_linear_1001_1089" x1="231.577" y1="181.823" x2="227.001" y2="321" gradientUnits="userSpaceOnUse">
<stop offset="0.04" stop-color="#D8D8D8"/>
<stop offset="1" stop-color="white"/>
</linearGradient>
<linearGradient id="paint4_linear_1001_1089" x1="147.577" y1="66.8232" x2="143.001" y2="206" gradientUnits="userSpaceOnUse">
<stop offset="0.04" stop-color="#D8D8D8"/>
<stop offset="1" stop-color="white"/>
</linearGradient>
<linearGradient id="paint5_linear_1001_1089" x1="59.5767" y1="256.823" x2="55.0011" y2="396" gradientUnits="userSpaceOnUse">
<stop offset="0.04" stop-color="#D8D8D8"/>
<stop offset="1" stop-color="white"/>
</linearGradient>
<linearGradient id="paint6_linear_1001_1089" x1="121.525" y1="302.659" x2="118.852" y2="383.961" gradientUnits="userSpaceOnUse">
<stop offset="0.04" stop-color="#D8D8D8"/>
<stop offset="1" stop-color="white"/>
</linearGradient>
<linearGradient id="paint7_linear_1001_1089" x1="101.525" y1="162.659" x2="98.8522" y2="243.961" gradientUnits="userSpaceOnUse">
<stop offset="0.04" stop-color="#D8D8D8"/>
<stop offset="1" stop-color="white"/>
</linearGradient>
<linearGradient id="paint8_linear_1001_1089" x1="188.525" y1="243.659" x2="185.852" y2="324.961" gradientUnits="userSpaceOnUse">
<stop offset="0.04" stop-color="#D8D8D8"/>
<stop offset="1" stop-color="white"/>
</linearGradient>
<linearGradient id="paint9_linear_1001_1089" x1="203.525" y1="85.6592" x2="200.852" y2="166.961" gradientUnits="userSpaceOnUse">
<stop offset="0.04" stop-color="#D8D8D8"/>
<stop offset="1" stop-color="white"/>
</linearGradient>
<linearGradient id="paint10_linear_1001_1089" x1="434.525" y1="60.6592" x2="431.852" y2="141.961" gradientUnits="userSpaceOnUse">
<stop offset="0.04" stop-color="#D8D8D8"/>
<stop offset="1" stop-color="white"/>
</linearGradient>
<linearGradient id="paint11_linear_1001_1089" x1="501.525" y1="172.659" x2="498.852" y2="253.961" gradientUnits="userSpaceOnUse">
<stop offset="0.04" stop-color="#D8D8D8"/>
<stop offset="1" stop-color="white"/>
</linearGradient>
<linearGradient id="paint12_linear_1001_1089" x1="397.525" y1="234.659" x2="394.852" y2="315.961" gradientUnits="userSpaceOnUse">
<stop offset="0.04" stop-color="#D8D8D8"/>
<stop offset="1" stop-color="white"/>
</linearGradient>
<linearGradient id="paint13_linear_1001_1089" x1="550.525" y1="249.659" x2="547.852" y2="330.961" gradientUnits="userSpaceOnUse">
<stop offset="0.04" stop-color="#D8D8D8"/>
<stop offset="1" stop-color="white"/>
</linearGradient>
<linearGradient id="paint14_linear_1001_1089" x1="390.355" y1="174.586" x2="391.462" y2="208.253" gradientUnits="userSpaceOnUse">
<stop offset="0.04" stop-color="#D8D8D8"/>
<stop offset="1" stop-color="white"/>
</linearGradient>
<linearGradient id="paint15_linear_1001_1089" x1="465.355" y1="319.586" x2="466.462" y2="353.253" gradientUnits="userSpaceOnUse">
<stop offset="0.04" stop-color="#D8D8D8"/>
<stop offset="1" stop-color="white"/>
</linearGradient>
<linearGradient id="paint16_linear_1001_1089" x1="541.355" y1="186.586" x2="542.462" y2="220.253" gradientUnits="userSpaceOnUse">
<stop offset="0.04" stop-color="#D8D8D8"/>
<stop offset="1" stop-color="white"/>
</linearGradient>
<linearGradient id="paint17_linear_1001_1089" x1="130.355" y1="250.586" x2="131.462" y2="284.253" gradientUnits="userSpaceOnUse">
<stop offset="0.04" stop-color="#D8D8D8"/>
<stop offset="1" stop-color="white"/>
</linearGradient>
<linearGradient id="paint18_linear_1001_1089" x1="175.355" y1="187.586" x2="176.462" y2="221.253" gradientUnits="userSpaceOnUse">
<stop offset="0.04" stop-color="#D8D8D8"/>
<stop offset="1" stop-color="white"/>
</linearGradient>
<linearGradient id="paint19_linear_1001_1089" x1="54.3546" y1="178.586" x2="55.4615" y2="212.253" gradientUnits="userSpaceOnUse">
<stop offset="0.04" stop-color="#D8D8D8"/>
<stop offset="1" stop-color="white"/>
</linearGradient>
<linearGradient id="paint20_linear_1001_1089" x1="479.355" y1="121.586" x2="480.462" y2="155.253" gradientUnits="userSpaceOnUse">
<stop offset="0.04" stop-color="#D8D8D8"/>
<stop offset="1" stop-color="white"/>
</linearGradient>
<linearGradient id="paint21_linear_1001_1089" x1="26.3546" y1="237.586" x2="27.4615" y2="271.253" gradientUnits="userSpaceOnUse">
<stop offset="0.04" stop-color="#D8D8D8"/>
<stop offset="1" stop-color="white"/>
</linearGradient>
<radialGradient id="paint22_radial_1001_1089" cx="0" cy="0" r="1" gradientUnits="userSpaceOnUse" gradientTransform="translate(401.86 352.802) scale(215.349 215.182)">
<stop stop-color="white"/>
<stop offset="1" stop-color="#FDD91E"/>
</radialGradient>
<radialGradient id="paint23_radial_1001_1089" cx="0" cy="0" r="1" gradientUnits="userSpaceOnUse" gradientTransform="translate(401.861 352.802) scale(215.349 215.182)">
<stop stop-color="white"/>
<stop offset="1" stop-color="#FDD91E"/>
</radialGradient>
<radialGradient id="paint24_radial_1001_1089" cx="0" cy="0" r="1" gradientUnits="userSpaceOnUse" gradientTransform="translate(401.86 352.802) scale(215.349 215.182)">
<stop stop-color="white"/>
<stop offset="1" stop-color="#FDD91E"/>
</radialGradient>
<radialGradient id="paint25_radial_1001_1089" cx="0" cy="0" r="1" gradientUnits="userSpaceOnUse" gradientTransform="translate(1.59864 -217.355) scale(1.59849 2.74728)">
<stop stop-color="white"/>
<stop offset="1" stop-color="#FDD91E"/>
</radialGradient>
</defs>
</svg>
