<svg width="674" height="464" viewBox="0 0 674 464" fill="none" xmlns="http://www.w3.org/2000/svg">
<g clip-path="url(#clip0_590_5276)">
<path d="M119.573 163.185C119.695 163.632 119.818 164.078 119.95 164.518" stroke="#263238" stroke-linecap="round" stroke-linejoin="round"/>
<path d="M121.409 168.909C125.444 179.654 132.521 189.316 143.131 194.345C170.065 207.121 197.739 184.312 221.078 173.965C258.091 157.552 310.113 157.693 341.227 186.563C353.054 197.535 356.329 213.491 348.191 227.783C341.666 239.247 329.821 248.553 318.453 254.942C289.223 271.375 256.679 280.49 224.195 287.952C200.913 293.305 167.739 297.335 154.627 320.422C138.889 348.132 168.996 373.041 193.391 378.432C216.366 383.506 240.453 381.955 262.484 373.622C272.973 369.645 283.463 364.231 292.518 357.566C302.221 350.424 309.557 340.589 319.294 333.471C324.868 329.393 341.802 322.089 341.908 334.76C341.929 337.47 340.909 340.076 339.658 342.472C333.865 353.649 323.549 361.225 313.896 368.859C306.415 374.772 294.079 381.077 291.221 390.931C288.451 400.5 298.191 407.942 307.073 408.503" stroke="#263238" stroke-linecap="round" stroke-linejoin="round"/>
<path d="M309.382 408.481C309.845 408.445 310.301 408.39 310.752 408.305" stroke="#263238" stroke-linecap="round" stroke-linejoin="round"/>
<path d="M364.107 187.695C363.418 188.006 362.519 187.83 361.801 187.689C361.556 187.644 361.321 187.592 361.118 187.572C360.567 187.511 358.885 187.325 358.509 185.917C358.157 184.597 359.458 181.276 360.367 179.176C358.905 180.449 356.574 182.045 354.78 181.208C353.372 180.548 352.532 179.447 351.549 178.167C350.639 176.972 349.61 175.619 347.854 174.2C347.436 173.86 347.008 173.527 346.598 173.197C344.226 171.325 342.172 169.704 342.101 167.929C342.066 167.131 342.433 166.4 343.21 165.672C344.287 164.679 346.594 164.414 350.054 164.894C354.401 165.502 358.692 167.147 362.485 169.663C363.098 165.15 364.689 160.843 367.103 157.178C369.028 154.254 370.746 152.7 372.206 152.546C373.258 152.436 374.057 152.654 374.633 153.195C375.914 154.415 375.781 157.019 375.625 160.048C375.596 160.576 375.566 161.104 375.553 161.652C375.47 163.908 375.799 165.58 376.1 167.051C376.424 168.628 376.694 169.993 376.264 171.489C375.71 173.388 372.977 174.086 371.054 174.341C373.232 175.038 376.594 176.259 377.347 177.385C378.101 178.502 377.189 179.91 376.889 180.371C375.906 181.881 374.842 183.175 372.591 182.337C372.111 182.165 371.669 181.934 371.235 181.703C370.792 181.471 370.374 181.262 369.931 181.095C368.956 180.74 368.002 180.425 367.091 180.135C366.691 180.647 365.938 183.282 365.533 184.727C365.141 186.089 364.935 186.806 364.787 187.055C364.602 187.365 364.368 187.564 364.09 187.683L364.107 187.695Z" fill="#263238"/>
<path d="M362.945 170.616C362.945 170.616 362.925 170.622 362.915 170.63C362.728 170.696 362.527 170.602 362.46 170.415C362.441 170.356 360.236 164.467 355.778 161.911C355.605 161.812 355.543 161.597 355.642 161.425C355.742 161.253 355.956 161.19 356.128 161.29C358.38 162.575 360.064 164.629 361.214 166.428C360.441 163.563 359.781 160.043 360.773 158.926C360.907 158.777 361.133 158.763 361.282 158.896C361.431 159.03 361.445 159.256 361.311 159.404C360.264 160.579 361.875 166.635 363.13 170.176C363.188 170.352 363.104 170.545 362.944 170.625L362.945 170.616Z" fill="#263238"/>
<path d="M300.47 77.718C299.945 77.5397 299.556 76.9984 299.253 76.5721C299.144 76.4256 299.043 76.2805 298.947 76.1732C298.683 75.8646 297.883 74.9373 298.382 74.0012C298.844 73.1252 301.182 71.9968 302.706 71.3389C301.293 71.2941 299.265 70.9832 298.728 69.6552C298.308 68.6148 298.408 67.6024 298.519 66.4424C298.628 65.3569 298.749 64.133 298.517 62.5035C298.461 62.1129 298.404 61.7313 298.347 61.3498C298.016 59.1741 297.726 57.303 298.558 56.3216C298.939 55.8818 299.492 55.6722 300.267 55.6718C301.33 55.6758 302.69 56.6743 304.291 58.6503C306.306 61.1246 307.77 64.1169 308.548 67.3369C311.109 65.242 314.091 63.7303 317.186 62.9816C319.655 62.3759 321.34 62.4042 322.192 63.0402C322.807 63.5021 323.125 64.0146 323.164 64.5895C323.241 65.8699 321.883 67.1955 320.299 68.7221C320.027 68.9908 319.746 69.2583 319.463 69.5349C318.298 70.6923 317.651 71.747 317.088 72.6739C316.478 73.6686 315.942 74.5341 314.981 75.1143C313.745 75.8508 311.944 74.8727 310.792 74.0534C311.61 75.5059 312.79 77.8132 312.631 78.7889C312.473 79.7555 311.3 80.0532 310.913 80.1467C309.644 80.4678 308.436 80.6205 307.651 79.0701C307.484 78.738 307.366 78.3943 307.245 78.0688C307.126 77.7251 307.004 77.4088 306.851 77.1068C306.508 76.4414 306.153 75.793 305.81 75.1929C305.342 75.2655 303.643 76.2993 302.703 76.8638C301.823 77.3997 301.354 77.6773 301.15 77.732C300.896 77.8074 300.674 77.7941 300.469 77.7272L300.47 77.718Z" fill="#263238"/>
<path d="M308.304 68.0578C308.304 68.0578 308.295 68.0565 308.286 68.0551C308.154 67.9988 308.091 67.8498 308.148 67.7179C308.164 67.6735 309.911 63.4546 308.809 59.8893C308.763 59.7521 308.85 59.6059 308.978 59.559C309.115 59.5134 309.261 59.5999 309.308 59.7279C309.871 61.5263 309.752 63.4505 309.467 64.9774C310.479 63.07 311.87 60.8717 312.95 60.7659C313.092 60.7491 313.216 60.8603 313.233 61.0027C313.25 61.1451 313.138 61.2691 312.996 61.2859C311.86 61.3929 309.714 65.4049 308.632 67.9184C308.577 68.0411 308.438 68.105 308.313 68.0591L308.304 68.0578Z" fill="#263238"/>
<path d="M141.987 344.323C141.462 344.145 141.072 343.612 140.767 343.195C140.658 343.049 140.556 342.913 140.461 342.796C140.196 342.497 139.395 341.579 139.89 340.67C140.349 339.812 142.683 338.711 144.205 338.063C142.793 338.018 140.765 337.707 140.225 336.397C139.803 335.375 139.899 334.381 140.008 333.239C140.115 332.172 140.233 330.966 139.995 329.374C139.938 328.992 139.881 328.61 139.823 328.238C139.487 326.099 139.192 324.255 140.021 323.301C140.4 322.871 140.953 322.661 141.727 322.67C142.791 322.674 144.151 323.663 145.758 325.603C147.779 328.031 149.249 330.987 150.036 334.143C152.592 332.084 155.567 330.619 158.66 329.888C161.125 329.301 162.811 329.329 163.664 329.956C164.28 330.409 164.6 330.912 164.64 331.478C164.719 332.74 163.366 334.029 161.787 335.528C161.516 335.788 161.235 336.055 160.954 336.323C159.792 337.452 159.148 338.489 158.587 339.398C157.98 340.374 157.447 341.221 156.488 341.783C155.255 342.501 153.453 341.532 152.298 340.731C153.12 342.156 154.306 344.427 154.149 345.385C153.994 346.333 152.822 346.621 152.435 346.715C151.167 347.027 149.96 347.18 149.172 345.647C149.004 345.325 148.884 344.99 148.764 344.655C148.644 344.321 148.522 344.004 148.369 343.702C148.025 343.046 147.669 342.407 147.324 341.816C146.857 341.889 145.162 342.895 144.223 343.45C143.345 343.968 142.876 344.246 142.672 344.3C142.419 344.367 142.196 344.362 141.992 344.286L141.987 344.323Z" fill="#263238"/>
<path d="M149.802 334.856C149.802 334.856 149.793 334.854 149.784 334.853C149.652 334.797 149.59 334.648 149.646 334.516C149.662 334.471 151.397 330.335 150.286 326.834C150.241 326.696 150.326 326.559 150.454 326.512C150.591 326.467 150.737 326.553 150.784 326.681C151.351 328.452 151.237 330.34 150.956 331.839C151.963 329.968 153.347 327.816 154.425 327.719C154.568 327.702 154.692 327.814 154.71 327.947C154.727 328.089 154.616 328.213 154.474 328.221C153.34 328.319 151.204 332.258 150.131 334.716C150.076 334.839 149.936 334.903 149.812 334.857L149.802 334.856Z" fill="#263238"/>
<path d="M119.573 173.031C119.133 173.173 118.597 173.003 118.178 172.867C118.035 172.819 117.892 172.78 117.775 172.744C117.441 172.668 116.438 172.439 116.303 171.561C116.178 170.741 117.204 168.807 117.902 167.592C116.927 168.263 115.392 169.069 114.363 168.435C113.557 167.936 113.12 167.211 112.617 166.364C112.142 165.577 111.618 164.68 110.649 163.691C110.413 163.451 110.184 163.223 109.956 162.994C108.641 161.684 107.506 160.559 107.587 159.479C107.62 158.989 107.895 158.571 108.417 158.189C109.137 157.658 110.557 157.658 112.637 158.191C115.238 158.864 117.731 160.157 119.862 161.957C120.55 159.256 121.817 156.751 123.543 154.685C124.918 153.044 126.065 152.211 126.97 152.22C127.622 152.23 128.091 152.41 128.401 152.781C129.094 153.609 128.83 155.185 128.528 157.018C128.482 157.338 128.418 157.655 128.371 157.984C128.164 159.355 128.249 160.384 128.331 161.301C128.414 162.284 128.487 163.134 128.119 164.005C127.65 165.123 125.946 165.354 124.756 165.378C126.036 165.955 127.988 166.926 128.367 167.662C128.747 168.398 128.092 169.181 127.878 169.44C127.176 170.291 126.44 170.997 125.124 170.34C124.846 170.198 124.59 170.03 124.343 169.864C124.087 169.696 123.85 169.531 123.598 169.402C123.031 169.124 122.472 168.857 121.936 168.621C121.663 168.899 121.019 170.449 120.663 171.303C120.333 172.105 120.15 172.526 120.046 172.67C119.908 172.846 119.754 172.945 119.577 173.004L119.573 173.031Z" fill="#263238"/>
<path d="M120.053 162.573C120.053 162.573 120.044 162.571 120.035 162.57C119.919 162.6 119.799 162.527 119.769 162.41C119.756 162.371 118.828 158.635 116.295 156.777C116.193 156.706 116.176 156.563 116.246 156.471C116.316 156.369 116.459 156.352 116.551 156.422C117.835 157.362 118.713 158.721 119.291 159.896C119.017 158.102 118.865 155.915 119.542 155.303C119.637 155.223 119.766 155.233 119.847 155.319C119.928 155.405 119.918 155.544 119.831 155.625C119.113 156.268 119.669 160.053 120.186 162.302C120.206 162.417 120.153 162.531 120.036 162.561L120.053 162.573Z" fill="#263238"/>
<path d="M143.505 78.0239L150.717 70.9992L141.575 66.798L143.265 56.8778L133.403 58.8446L128.941 49.8299L122.116 57.2183L113.209 52.5471L112.031 62.5411L102.074 63.9905L107.01 72.7654L99.7979 79.7902L108.941 83.9822L107.251 93.9024L117.113 91.9356L121.575 100.95L128.4 93.5619L137.316 98.2344L138.485 88.2391L148.44 86.7988L143.505 78.0239Z" fill="#263238" stroke="#263238" stroke-linecap="round" stroke-linejoin="round"/>
<path d="M123.119 90.2343C131.318 91.4156 138.922 85.7293 140.102 77.5336C141.283 69.3379 135.594 61.7363 127.395 60.555C119.197 59.3737 111.593 65.0599 110.412 73.2556C109.231 81.4513 114.92 89.0529 123.119 90.2343Z" fill="white" stroke="#263238" stroke-linecap="round" stroke-linejoin="round"/>
<path d="M111.149 140.262L111.264 139.466C112.773 139.684 113.077 139.644 113.623 139.424C113.985 139.308 114.299 138.877 114.353 138.502C114.444 137.871 114.313 136.704 113.98 135.453L112.828 131.264L101.843 129.681L99.2255 134.176C98.9361 134.694 98.67 135.374 98.5975 135.877C98.4104 137.176 99.2737 137.729 101.286 138.019L101.171 138.815L92.8295 137.613L92.9441 136.817C95.4127 136.921 95.9155 136.088 99.2296 130.583L110.81 111.383L111.651 111.504L118.561 136.579C119.339 139.473 119.798 140.435 121.947 141.006L121.833 141.801L111.14 140.261L111.149 140.262ZM109.292 117.249L102.812 128.075L112.489 129.47L109.283 117.248L109.292 117.249Z" fill="#263238"/>
<path d="M140.355 142.846C138.873 144.256 137.715 144.519 136.297 144.315C134.742 144.091 133.948 143.118 134.057 140.875L134.011 140.868C131.426 143.062 129.3 143.306 127.498 143.047C124.9 142.673 123.327 140.822 123.727 138.052C124.04 135.875 125.575 134.426 127.369 133.574C128.752 132.914 130.413 132.342 135.404 131.269L135.729 129.01C136.103 126.414 134.891 125.044 133.006 124.773C131.333 124.532 129.937 125.273 129.774 126.407C129.665 127.166 129.894 127.32 129.768 128.198C129.653 128.994 128.679 129.796 127.59 129.639C126.712 129.513 125.903 128.584 126.066 127.45C126.23 126.316 127.085 125.114 128.69 124.403C129.969 123.822 131.807 123.573 133.691 123.845C136.042 124.184 137.537 125.08 138.368 126.441C139.199 127.802 139.237 128.704 138.868 131.264L137.715 139.264C137.438 141.194 137.866 142.105 138.616 142.213C139.284 142.309 139.735 142.159 140.533 141.677L140.364 142.847L140.355 142.846ZM135.25 132.273C132.519 132.822 130.673 133.452 129.483 134.261C128.343 135.039 127.778 135.985 127.591 137.283C127.271 139.505 128.388 140.692 130.016 140.927C130.857 141.048 131.766 140.965 132.545 140.61C133.883 139.944 134.214 139.395 134.389 138.179L135.24 132.272L135.25 132.273Z" fill="#263238"/>
<path d="M135.402 200.035C135.82 201.281 135.671 202.314 135.513 203.411C134.733 208.824 128.052 213.135 122.052 212.27C121.338 212.167 120.643 212.002 120.076 211.79C119.894 211.698 119.766 211.68 119.637 211.661C118.54 211.503 117.128 212.616 116.933 213.969C116.766 215.13 118.383 216.222 121.126 217.335C127.105 219.709 129.659 222.979 129.102 226.847C128.293 232.461 122.732 235.869 114.152 234.633C107.576 233.685 103.712 230.758 104.381 226.113C104.855 222.822 106.331 221.261 113.2 218.368C112.141 217.487 111.703 216.444 111.824 215.603C112.093 213.738 113.854 212.013 117.571 210.906C114.144 209.096 112.996 206.56 113.48 203.205C114.427 196.631 121.517 193.107 128.039 194.047C130.49 194.4 132.538 195.283 134.1 196.759C134.557 197.216 134.867 197.392 135.06 197.419L138.929 197.977L138.566 200.491L135.402 200.035ZM116.682 220.316C115.877 219.939 115.265 219.655 114.589 219.287C114.004 219.203 110.98 221.007 109.917 222.039C108.771 223.124 108.302 224.111 108.088 225.593C107.437 230.109 110.168 232.603 115.336 233.348C120.504 234.092 124.443 231.832 124.918 228.54C125.344 225.578 123.282 223.433 116.692 220.309L116.682 220.316ZM127.772 195.445C123.775 194.87 119.227 199.021 118.308 205.403C117.872 208.429 119.029 210.444 121.48 210.797C123.675 211.114 125.58 210.203 127.507 207.783C129.113 205.774 130.335 203.253 130.725 200.547C131.218 197.127 130.159 195.789 127.772 195.445Z" fill="#263238"/>
<path d="M203.188 89.47C209.667 83.3849 211.413 81.3778 211.672 79.5766C211.745 79.0737 211.546 78.6998 210.959 77.9806C210.382 77.2535 210.244 76.7203 210.329 76.1351C210.425 75.4676 211.229 74.9395 212.153 75.0726C213.406 75.2532 214.185 76.3921 213.991 77.7362C213.605 80.4151 209.798 84.8692 203.003 91.0766L202.562 91.4798C201.229 92.697 200.794 93.0636 200.419 93.0095C200.126 92.9673 200.098 92.5806 200.172 91.4807L200.826 78.3219L196.177 84.1479C195.246 85.3016 194.288 86.5729 193.274 87.9669C191.349 90.6387 190.484 91.5874 190.027 91.5215C189.652 91.4675 189.618 91.1173 189.761 89.4766L190.146 85.6401C190.507 81.9682 190.686 77.4208 190.473 75.3367C190.322 73.7283 189.975 73.4732 188.759 73.2979L187.588 73.1292L187.667 72.5806C188.996 72.5574 190.447 72.5984 191.749 72.4407C192.316 72.3918 192.715 72.2812 193.008 72.3234C193.465 72.3893 193.499 72.4782 193.598 73.8644C193.772 76.8015 193.604 82.1158 193.245 85.8348L203.13 74.2579C203.389 73.9499 203.529 73.886 203.739 73.9163C203.986 73.9519 204.059 74.0931 203.993 74.5503L203.213 89.4922L203.188 89.47Z" fill="#263238"/>
<path d="M346.245 227.68C347.582 218.4 339.401 209.54 327.977 207.894C316.552 206.248 306.202 212.438 304.865 221.718C303.528 230.999 311.709 239.859 323.134 241.505C325.457 241.839 327.735 241.841 329.902 241.575L336.346 252.387L338.755 238.519C342.785 236.011 345.59 232.225 346.244 227.689L346.245 227.68Z" fill="#263238"/>
<path d="M348.392 226.067C349.729 216.787 341.547 207.927 330.123 206.28C318.699 204.634 308.349 210.824 307.012 220.105C305.674 229.385 313.856 238.245 325.28 239.891C327.603 240.226 329.881 240.228 332.049 239.961L338.492 250.773L340.901 236.906C344.932 234.398 347.737 230.611 348.39 226.076L348.392 226.067Z" fill="white" stroke="#263238" stroke-linecap="round" stroke-linejoin="round"/>
<path d="M349.612 234.446C350.373 229.162 356.269 225.634 362.781 226.572C369.294 227.51 373.954 232.559 373.192 237.844C372.431 243.129 366.535 246.657 360.023 245.718C358.696 245.527 357.451 245.161 356.308 244.67L351.05 249.54L351.965 241.571C350.164 239.556 349.24 237.025 349.612 234.446Z" fill="#263238"/>
<path d="M348.696 233.222C349.457 227.938 355.353 224.41 361.865 225.348C368.378 226.287 373.038 231.335 372.276 236.62C371.515 241.905 365.619 245.433 359.107 244.494C357.78 244.303 356.535 243.937 355.392 243.446L350.134 248.316L351.049 240.347C349.248 238.333 348.324 235.801 348.696 233.222Z" fill="white" stroke="#263238" stroke-linecap="round" stroke-linejoin="round"/>
<path d="M334.489 131.591C334.416 132.103 334.323 132.612 334.222 133.12L321.106 131.23C321.233 130.735 321.334 130.227 321.409 129.706C322.599 121.45 316.859 113.791 308.599 112.601C300.34 111.411 292.68 117.139 291.49 125.395C291.415 125.916 291.369 126.432 291.351 126.943L278.235 125.053C278.281 124.537 278.337 124.023 278.411 123.511C280.641 108.031 294.998 97.2945 310.483 99.5257C325.969 101.757 336.72 116.111 334.489 131.591Z" fill="#263238"/>
<path d="M331.462 131.155C331.387 131.676 331.287 132.175 331.186 132.683L321.106 131.23C321.233 130.735 321.334 130.227 321.409 129.706C322.599 121.45 316.859 113.791 308.599 112.601C300.34 111.411 292.68 117.139 291.49 125.395C291.415 125.916 291.369 126.432 291.351 126.943L281.272 125.491C281.309 124.974 281.363 124.468 281.438 123.947C283.428 110.14 296.236 100.562 310.047 102.552C323.859 104.542 333.451 117.348 331.462 131.155Z" fill="white" stroke="#263238" stroke-linecap="round" stroke-linejoin="round"/>
<path d="M327.94 130.647C327.865 131.168 327.765 131.667 327.655 132.174L321.106 131.23C321.233 130.735 321.334 130.227 321.409 129.706C322.599 121.45 316.859 113.791 308.599 112.601C300.34 111.411 292.68 117.139 291.49 125.395C291.415 125.916 291.369 126.432 291.351 126.943L284.802 126C284.839 125.482 284.884 124.975 284.96 124.454C286.668 112.595 297.677 104.363 309.54 106.072C321.403 107.782 329.649 118.788 327.94 130.647Z" fill="#263238"/>
<path d="M324.19 130.107C324.115 130.628 324.006 131.126 323.895 131.632L320.154 131.093C320.282 130.598 320.383 130.09 320.458 129.569C321.648 121.313 316.734 114.659 308.474 113.469C300.215 112.279 293.686 117.284 292.496 125.54C292.421 126.061 292.375 126.577 292.357 127.088L288.562 126.541C288.59 126.023 288.635 125.516 288.71 124.995C290.121 115.202 299.204 108.41 309 109.821C318.796 111.233 325.601 120.314 324.19 130.107Z" fill="white" stroke="#263238" stroke-linecap="round" stroke-linejoin="round"/>
<path d="M276.303 132.242C280.435 132.837 284.267 129.971 284.863 125.84C285.458 121.71 282.59 117.878 278.458 117.283C274.326 116.688 270.494 119.554 269.898 123.684C269.303 127.815 272.171 131.646 276.303 132.242Z" fill="white" stroke="#263238" stroke-linecap="round" stroke-linejoin="round"/>
<path d="M288.603 130.532C288.135 133.778 285.121 136.032 281.874 135.564C278.627 135.096 276.372 132.084 276.84 128.838C277.308 125.592 280.321 123.338 283.568 123.806C286.815 124.274 289.07 127.287 288.603 130.532Z" fill="white" stroke="#263238" stroke-linecap="round" stroke-linejoin="round"/>
<path d="M302.004 127.592C301.492 131.148 298.196 133.613 294.638 133.101C291.08 132.588 288.613 129.293 289.126 125.736C289.638 122.179 292.934 119.714 296.493 120.227C300.051 120.74 302.517 124.035 302.004 127.592Z" fill="white" stroke="#263238" stroke-linecap="round" stroke-linejoin="round"/>
<path d="M296.954 132.576C296.439 136.151 293.123 138.622 289.556 138.108C285.989 137.594 283.507 134.278 284.02 130.712C284.534 127.146 287.851 124.666 291.419 125.18C294.986 125.694 297.468 129.01 296.954 132.576Z" fill="white" stroke="#263238" stroke-linecap="round" stroke-linejoin="round"/>
<path d="M316.466 138.028C320.599 138.624 324.431 135.758 325.026 131.627C325.621 127.497 322.754 123.665 318.622 123.07C314.489 122.474 310.657 125.34 310.062 129.471C309.467 133.602 312.334 137.433 316.466 138.028Z" fill="white" stroke="#263238" stroke-linecap="round" stroke-linejoin="round"/>
<path d="M328.775 136.321C328.308 139.567 325.294 141.82 322.047 141.352C318.8 140.885 316.545 137.872 317.013 134.626C317.48 131.38 320.494 129.126 323.741 129.594C326.988 130.062 329.243 133.075 328.775 136.321Z" fill="white" stroke="#263238" stroke-linecap="round" stroke-linejoin="round"/>
<path d="M342.168 133.378C341.655 136.935 338.359 139.4 334.801 138.888C331.243 138.375 328.777 135.08 329.289 131.523C329.802 127.966 333.098 125.501 336.656 126.014C340.214 126.526 342.68 129.822 342.168 133.378Z" fill="white" stroke="#263238" stroke-linecap="round" stroke-linejoin="round"/>
<path d="M337.118 138.363C336.602 141.938 333.287 144.409 329.719 143.895C326.152 143.381 323.67 140.065 324.184 136.499C324.698 132.933 328.015 130.453 331.582 130.967C335.149 131.481 337.631 134.797 337.118 138.363Z" fill="white" stroke="#263238" stroke-linecap="round" stroke-linejoin="round"/>
<path d="M288.919 342.049L267.209 332.145L253.158 312.443L244.303 318.755L258.354 338.457L260.63 362.192C260.953 365.589 264.835 367.352 267.613 365.373L289.651 349.667C292.429 347.688 292.022 343.448 288.921 342.03L288.919 342.049Z" fill="white" stroke="#263238" stroke-linecap="round" stroke-linejoin="round"/>
<path d="M273.756 339.005L262.696 346.885L264.132 361.866C264.173 362.292 264.442 362.499 264.651 362.604C264.87 362.7 265.197 362.766 265.55 362.518L287.588 346.813C287.941 346.565 287.981 346.225 287.959 345.989C287.937 345.752 287.825 345.428 287.44 345.251L273.747 339.004L273.756 339.005Z" fill="#263238"/>
<path d="M297.075 285.89C297.991 281.16 295.279 276.457 290.742 274.833C287.164 273.552 281.78 270.807 282.136 265.939C282.658 258.688 286.881 247.518 279.377 243.292C271.872 239.065 262.776 240.377 253.089 253.112C243.402 265.846 247.257 289.959 263.486 297.271C279.714 304.584 295.299 294.529 297.031 286.136C297.043 286.053 297.064 285.973 297.077 285.881L297.075 285.89Z" fill="#263238"/>
<path d="M271.883 257.136C275 257.585 277.89 255.423 278.339 252.307C278.788 249.192 276.625 246.302 273.509 245.853C270.392 245.404 267.501 247.565 267.052 250.681C266.603 253.797 268.766 256.686 271.883 257.136Z" fill="white" stroke="#263238" stroke-linecap="round" stroke-linejoin="round"/>
<path d="M257.629 271.564C260.675 272.003 263.5 269.89 263.939 266.845C264.378 263.8 262.264 260.976 259.218 260.537C256.172 260.098 253.347 262.211 252.908 265.256C252.469 268.301 254.583 271.125 257.629 271.564Z" fill="white" stroke="#263238" stroke-linecap="round" stroke-linejoin="round"/>
<path d="M260.324 287.399C263.37 287.838 266.195 285.725 266.634 282.68C267.073 279.635 264.959 276.811 261.913 276.372C258.867 275.933 256.042 278.046 255.603 281.091C255.164 284.136 257.278 286.96 260.324 287.399Z" fill="white" stroke="#263238" stroke-linecap="round" stroke-linejoin="round"/>
<path d="M273.285 295.547C276.331 295.986 279.156 293.874 279.595 290.829C280.034 287.784 277.92 284.959 274.874 284.521C271.828 284.082 269.003 286.194 268.564 289.239C268.125 292.284 270.239 295.108 273.285 295.547Z" fill="white" stroke="#263238" stroke-linecap="round" stroke-linejoin="round"/>
<path d="M166.37 139.268C170.714 136.02 171.6 129.866 168.35 125.523C165.1 121.18 158.944 120.293 154.6 123.542C150.256 126.79 149.369 132.944 152.619 137.287C155.869 141.63 162.026 142.517 166.37 139.268Z" fill="#FDD91E"/>
<path d="M149.204 109.943C149.017 111.241 147.814 112.141 146.515 111.954C145.216 111.767 144.316 110.564 144.503 109.266C144.69 107.967 145.893 107.067 147.192 107.255C148.491 107.442 149.391 108.645 149.204 109.943Z" fill="#FDD91E"/>
<path d="M248.71 129.414C252.599 129.974 256.207 127.276 256.767 123.388C257.327 119.5 254.628 115.893 250.739 115.333C246.849 114.773 243.241 117.47 242.681 121.359C242.121 125.247 244.82 128.853 248.71 129.414Z" fill="#FDD91E"/>
<path d="M81.2723 169.819C85.0155 167.019 85.7796 161.716 82.9789 157.974C80.1782 154.232 74.8733 153.468 71.13 156.267C67.3868 159.066 66.6227 164.369 69.4234 168.111C72.2241 171.853 77.529 172.618 81.2723 169.819Z" fill="#FDD91E"/>
<path d="M226.13 336.972C230.116 335.957 232.523 331.903 231.507 327.919C230.491 323.934 226.435 321.527 222.449 322.542C218.463 323.558 216.056 327.611 217.072 331.596C218.088 335.581 222.144 337.988 226.13 336.972Z" fill="#FDD91E"/>
<path d="M325.645 364.887C328.792 365.34 331.711 363.158 332.164 360.012C332.617 356.866 330.433 353.948 327.286 353.494C324.139 353.041 321.22 355.223 320.767 358.369C320.314 361.515 322.498 364.433 325.645 364.887Z" fill="#FDD91E"/>
<path d="M335.152 391.568C337.743 391.942 340.147 390.144 340.52 387.554C340.893 384.963 339.095 382.56 336.504 382.187C333.912 381.814 331.509 383.611 331.135 386.202C330.762 388.792 332.56 391.195 335.152 391.568Z" fill="#FDD91E"/>
<path d="M223.809 204.84C223.462 207.245 221.234 208.912 218.828 208.565C216.422 208.219 214.755 205.99 215.101 203.586C215.448 201.181 217.677 199.514 220.082 199.861C222.488 200.207 224.155 202.436 223.809 204.84Z" fill="#FDD91E"/>
<path d="M191.459 121.19C195.777 117.611 196.375 111.211 192.795 106.894C189.215 102.578 182.812 101.979 178.495 105.558C174.177 109.136 173.579 115.536 177.159 119.853C180.739 124.17 187.142 124.768 191.459 121.19Z" fill="#FDD91E"/>
<path d="M368.448 404.579C368.448 404.579 349.695 409.539 334.545 405.107C319.397 400.666 303.65 372.255 313.534 338.063C323.419 303.872 335.942 285.835 327.069 262.922C313.826 228.73 265.798 237.415 263.375 204.148C263.375 204.148 264.091 186.668 280.945 185.493C297.799 184.319 297.855 196.498 302.452 202.116C307.057 207.735 324.681 198.104 323.114 183.907C321.546 169.709 312.405 164.332 306.222 163.441C300.039 162.55 293.28 162.482 293.28 162.482C293.28 162.482 305.468 159.282 303.459 151.321C301.449 143.369 280.998 141.318 265.446 158.471C249.895 175.616 241.526 205.517 261.396 224.162C281.258 242.807 307.965 245.301 310.656 267.323C313.345 289.354 289.206 306.615 292.629 351.739C296.052 396.863 323.35 421.18 368.456 404.589L368.448 404.579Z" fill="#FDD91E"/>
<path d="M368.448 404.579C368.448 404.579 349.695 409.539 334.545 405.107C323.007 401.727 311.139 384.431 310.498 361.276C309.541 371.675 309.146 385.954 311.929 398.843C324.945 410.565 344.105 413.54 368.448 404.579Z" fill="#263238"/>
<path d="M316.286 327.914L316.8 327.521C320.308 316.845 323.822 307.813 326.353 299.582C307.314 318.837 297.493 341.893 292.974 355.569C293.787 363.012 295.277 369.844 297.431 375.96C301.956 345.588 316.286 327.914 316.286 327.914Z" fill="#263238"/>
<path d="M249.456 225.578C249.456 225.578 203.294 206.019 178.764 209.083C145.24 213.269 130.054 240.387 119.761 246.118C109.468 251.85 102.773 251.333 100.767 237.072C98.7601 222.811 104.464 208.299 90.8904 205.438C77.3255 202.578 66.4438 215.439 70.4084 231.793C74.3639 248.145 85.2188 257.371 96.5131 257.197C107.817 257.025 117.353 253.434 120.89 250.789C124.427 248.144 121.189 267.51 115.809 276.656C110.43 285.802 100.895 289.384 96.9159 288.811L92.937 288.238C92.937 288.238 103.869 281.245 103.058 274.371C102.248 267.488 88.6091 265.074 81.2798 272.138C73.9504 279.202 76.9554 295.865 95.8358 299.482C114.706 303.106 124.132 287.776 124.132 287.776C124.132 287.776 128.212 309.551 150.377 305.987C172.542 302.423 172.191 276.669 164.998 270.22C157.804 263.77 150.487 264.526 150.355 268.558C150.221 272.598 161.334 273.742 158.102 280.491C154.871 287.24 143.134 284.196 140.174 276.555C137.213 268.914 137.425 248.654 153.487 231.135C169.54 213.615 213.414 215.877 249.456 225.578Z" fill="#FDD91E"/>
<path d="M259.609 236.505C259.609 236.505 237.185 248.151 234.193 268.915C231.201 289.68 252.979 291.912 253.478 297.845C253.977 303.779 251.696 310.216 238.684 312.849C225.672 315.483 214.948 308.524 209.604 295.584C209.604 295.584 203.156 305.929 193.056 300.862C182.963 295.805 186.132 280.031 195.685 263.824C205.237 247.617 238.463 226.71 259.608 236.514L259.609 236.505Z" fill="#FDD91E"/>
<path d="M230.299 195.761C230.299 195.761 206.083 176.041 215.713 143.615C225.343 111.188 250.302 91.3398 240.866 62.9327C228.482 25.6357 183.01 29.3502 164.299 52.8058C145.589 76.2614 165.384 101.653 187.671 100.356C187.671 100.356 171.839 88.1541 179.809 73.5296C187.781 58.8958 212.402 60.194 218.313 75.4749C224.225 90.7557 203.563 108.965 199.433 134.521C195.302 160.078 205.679 188.172 230.296 195.779L230.299 195.761Z" fill="#FDD91E"/>
<path d="M244.441 34.431C243.289 37.5036 244.089 40.9601 246.253 43.4372C250.38 48.1664 257.649 59.2097 255.19 76.2711C251.818 99.6781 245.373 103.715 245.373 103.715C245.373 103.715 268.302 94.848 279.741 81.1619C291.179 67.4849 286.848 50.6304 282.812 47.3423C278.777 44.0542 273.843 50.1098 272.83 54.0239C271.818 57.938 269.792 62.602 269.792 62.602C269.792 62.602 270.825 39.7539 259.413 31.3523C253.217 26.7916 246.786 28.1984 244.449 34.4415L244.441 34.431Z" fill="#FDD91E"/>
<path d="M352.312 268.257C348.469 264.082 341.188 264.527 336.062 269.257C334.394 270.79 333.173 272.593 332.4 274.46C332.185 272.451 331.513 270.375 330.355 268.435C326.771 262.459 319.912 259.977 315.048 262.888C310.183 265.809 309.136 273.012 312.727 278.999C313.389 280.102 314.117 281.206 315.12 282.545L328.84 297.933L346.818 286.627C347.93 286.031 349.009 285.281 350 284.369C355.124 279.648 356.164 272.434 352.321 268.259L352.312 268.257Z" fill="#263238"/>
<path d="M293.347 203.361C291.279 201.122 287.37 201.361 284.615 203.895C283.721 204.718 283.059 205.687 282.643 206.691C282.528 205.61 282.166 204.494 281.541 203.452C279.613 200.244 275.931 198.911 273.315 200.475C270.7 202.039 270.141 205.916 272.069 209.125C272.422 209.717 272.812 210.314 273.354 211.027L280.725 219.294L290.386 213.22C290.982 212.904 291.563 212.503 292.1 212.011C294.855 209.477 295.414 205.6 293.347 203.361Z" fill="#263238"/>
<path d="M131.766 308.663C129.699 306.423 125.789 306.663 123.034 309.196C122.141 310.02 121.478 310.988 121.063 311.992C120.948 310.912 120.586 309.796 119.961 308.754C118.033 305.545 114.35 304.212 111.735 305.776C109.119 307.341 108.561 311.218 110.489 314.426C110.842 315.018 111.232 315.616 111.774 316.328L119.144 324.596L128.805 318.521C129.402 318.206 129.982 317.804 130.52 317.312C133.275 314.779 133.834 310.902 131.766 308.663Z" fill="#263238"/>
<path d="M354.88 265.856C351.038 261.681 343.756 262.125 338.631 266.856C336.963 268.389 335.741 270.191 334.968 272.059C334.753 270.049 334.081 267.974 332.923 266.033C329.34 260.057 322.48 257.575 317.617 260.487C312.751 263.407 311.704 270.611 315.295 276.597C315.958 277.701 316.686 278.804 317.688 280.143L331.408 295.532L349.386 284.225C350.499 283.629 351.578 282.88 352.568 281.968C357.693 277.246 358.732 270.032 354.89 265.857L354.88 265.856Z" fill="white" stroke="#263238" stroke-linecap="round" stroke-linejoin="round"/>
<path d="M295.916 200.95C293.849 198.711 289.939 198.95 287.184 201.484C286.291 202.307 285.628 203.276 285.213 204.28C285.098 203.199 284.736 202.083 284.111 201.041C282.183 197.833 278.5 196.5 275.885 198.064C273.269 199.628 272.711 203.505 274.638 206.714C274.992 207.306 275.382 207.903 275.924 208.616L283.294 216.883L292.955 210.809C293.551 210.493 294.132 210.092 294.67 209.6C297.425 207.066 297.984 203.189 295.916 200.95Z" fill="white" stroke="#263238" stroke-linecap="round" stroke-linejoin="round"/>
<path d="M134.336 306.252C132.268 304.013 128.359 304.252 125.604 306.786C124.71 307.609 124.048 308.577 123.632 309.581C123.517 308.501 123.155 307.385 122.531 306.343C120.603 303.134 116.92 301.801 114.304 303.366C111.689 304.93 111.13 308.807 113.058 312.015C113.412 312.607 113.802 313.205 114.343 313.918L121.714 322.185L131.375 316.11C131.971 315.795 132.552 315.393 133.09 314.901C135.845 312.368 136.403 308.491 134.336 306.252Z" fill="white" stroke="#263238" stroke-linecap="round" stroke-linejoin="round"/>
<path d="M227.208 382.259L248.768 352.242L248.26 351.879L247.592 351.4L229.741 338.627L228.565 337.786L224.274 343.785L212.024 360.891C211.628 358.781 210.223 356.609 208.023 355.032C204.213 352.309 199.465 352.409 197.419 355.268C195.373 358.128 196.805 362.646 200.612 365.379C204.42 368.111 209.169 368.002 211.215 365.143C211.59 364.618 211.841 364.038 211.995 363.426L225.449 344.635L243.299 357.408L227.707 379.185C227.444 376.926 225.996 374.534 223.626 372.839C219.817 370.115 215.069 370.215 213.023 373.075C210.977 375.935 212.408 380.453 216.216 383.185C220.023 385.918 224.773 385.809 226.819 382.949C226.972 382.729 227.098 382.504 227.216 382.269L227.208 382.259Z" fill="#263238"/>
<path d="M203.217 244.852L210.514 231.596L210.29 231.47L209.996 231.307L202.112 226.988L201.594 226.699L200.139 229.345L195.998 236.896C195.736 236.056 195.06 235.24 194.082 234.707C192.404 233.784 190.478 234.057 189.783 235.319C189.087 236.582 189.897 238.351 191.575 239.274C193.253 240.197 195.179 239.924 195.874 238.661C196.001 238.427 196.073 238.186 196.11 237.93L200.657 229.634L208.541 233.953L203.262 243.571C203.047 242.663 202.336 241.767 201.29 241.187C199.611 240.264 197.686 240.537 196.991 241.799C196.295 243.062 197.105 244.83 198.783 245.753C200.461 246.677 202.387 246.403 203.082 245.141C203.133 245.046 203.175 244.949 203.209 244.842L203.217 244.852Z" fill="#263238"/>
<path d="M187.283 212.691L194.58 199.434L194.355 199.309L194.061 199.145L186.178 194.826L185.659 194.537L184.204 197.183L180.063 204.734C179.802 203.894 179.126 203.078 178.147 202.545C176.469 201.622 174.544 201.895 173.848 203.158C173.153 204.42 173.962 206.189 175.641 207.112C177.319 208.035 179.244 207.762 179.94 206.499C180.067 206.266 180.139 206.024 180.176 205.768L184.723 197.473L192.606 201.791L187.327 211.409C187.113 210.501 186.401 209.605 185.355 209.025C183.677 208.102 181.752 208.375 181.056 209.637C180.361 210.9 181.17 212.668 182.849 213.592C184.527 214.515 186.452 214.241 187.148 212.979C187.199 212.884 187.241 212.787 187.275 212.68L187.283 212.691Z" fill="#263238"/>
<path d="M177.306 275.064L196.608 248.735L196.169 248.41L195.577 247.98L179.916 236.539L178.885 235.784L175.037 241.044L164.071 256.049C163.733 254.18 162.517 252.251 160.583 250.833C157.238 248.391 153.048 248.441 151.221 250.95C149.393 253.458 150.618 257.461 153.955 259.902C157.3 262.344 161.49 262.294 163.317 259.786C163.654 259.33 163.886 258.822 164.02 258.282L176.067 241.799L191.729 253.24L177.762 272.348C177.556 270.349 176.293 268.226 174.206 266.703C170.861 264.261 166.671 264.31 164.844 266.819C163.016 269.328 164.242 273.331 167.578 275.771C170.914 278.212 175.113 278.164 176.941 275.655C177.079 275.47 177.193 275.262 177.297 275.062L177.306 275.064Z" fill="#263238"/>
<path d="M161.593 152.915L165.599 165.159L177.956 168.815L167.537 176.395L167.884 189.278L157.443 181.717L145.301 186.025L149.271 173.763L141.415 163.55L154.302 163.531L161.593 152.915Z" fill="#263238"/>
<path d="M245.487 143.425L245.405 150.796L251.431 155.043L244.393 157.239L242.211 164.279L237.951 158.271L230.579 158.375L234.979 152.458L232.594 145.487L239.585 147.839L245.487 143.425Z" fill="#263238"/>
<path d="M192.762 307.763L192.68 315.134L198.706 319.381L191.667 321.578L189.486 328.618L185.227 322.6L177.854 322.714L182.254 316.796L179.871 309.817L186.86 312.177L192.762 307.763Z" fill="#263238"/>
<path d="M107.673 177.542L107.591 184.912L113.618 189.159L106.579 191.356L104.407 198.397L100.139 192.379L92.7652 192.492L97.1658 186.574L94.7914 179.596L101.771 181.955L107.673 177.542Z" fill="#263238"/>
<g clip-path="url(#clip1_590_5276)">
<path d="M441.827 369.251C441.827 369.251 447.314 363.695 447.905 357.714C448.487 351.731 438.384 343.378 438.384 343.378L428.947 351.399C428.947 351.399 439.788 362.34 441.827 369.251Z" fill="#DBDBDB" stroke="#263238" stroke-linecap="round" stroke-linejoin="round"/>
<path d="M370.835 304.685C370.835 304.685 363.794 315.253 365.598 323.791C367.402 332.33 390.618 364.635 398.025 374.523C405.432 384.419 405.882 390.821 408.51 391.76C411.14 392.689 417.667 387.563 419.603 381.775C421.539 375.988 414.14 364.161 414.14 364.161C414.14 364.161 428.811 371.52 430.504 375.068C432.195 378.625 435.943 379.435 439.274 375.501C442.604 371.566 442.758 368.555 438.629 360.792C434.501 353.029 429.523 349.279 429.523 349.279C429.523 349.279 445.215 338.025 456.61 335.533C468.005 333.04 475.286 316.981 465.228 296.782C455.171 276.573 425.325 271.171 408.472 278.954C391.619 286.726 370.823 304.702 370.823 304.702L370.835 304.685Z" fill="#DBDBDB" stroke="#263238" stroke-linecap="round" stroke-linejoin="round"/>
<path d="M634.96 354.053C634.96 354.053 629.742 353.852 608.427 354.365C587.103 354.876 558.985 360.485 535.724 364.852C512.471 369.229 512.164 365.591 495.294 358.195C478.424 350.799 465.222 342.831 459.712 337.072C454.193 331.311 443.635 310.76 443.635 310.76C443.635 310.76 444.798 306.512 440.593 301.221C436.388 295.93 421.521 289.924 421.521 289.924C421.962 289.652 417.924 291.889 414.678 293.353C409.546 295.665 399.18 301.321 399.18 301.321C399.18 301.321 402.039 333.382 396.424 345.331C390.818 357.282 382.687 367.898 379.559 368.549C376.431 369.199 373.574 367.966 374.735 361.787C375.906 355.609 373.488 334.028 373.507 324.371C373.515 314.721 363.962 296.788 368.452 286.683C372.944 276.569 385.659 270.683 385.659 270.683C385.659 270.683 405.828 262.828 427.477 246.646C449.127 230.455 466.006 228.202 475.31 232.576C484.614 236.95 510.184 270.145 536.33 274.463C562.476 278.781 616.408 262.556 616.408 262.556" fill="white"/>
<path d="M634.96 354.053C634.96 354.053 629.742 353.852 608.427 354.365C587.103 354.876 558.985 360.485 535.724 364.852C512.471 369.229 512.164 365.591 495.294 358.195C478.424 350.799 465.222 342.831 459.712 337.072C454.193 331.311 443.635 310.76 443.635 310.76C443.635 310.76 444.798 306.512 440.593 301.221C436.388 295.93 421.521 289.924 421.521 289.924C421.962 289.652 417.924 291.889 414.678 293.353C409.546 295.665 399.18 301.321 399.18 301.321C399.18 301.321 402.039 333.382 396.424 345.331C390.818 357.282 382.687 367.898 379.559 368.549C376.431 369.199 373.574 367.966 374.735 361.787C375.906 355.609 373.488 334.028 373.507 324.371C373.515 314.721 363.962 296.788 368.452 286.683C372.944 276.569 385.659 270.683 385.659 270.683C385.659 270.683 405.828 262.828 427.477 246.646C449.127 230.455 466.006 228.202 475.31 232.576C484.614 236.95 510.184 270.145 536.33 274.463C562.476 278.781 616.408 262.556 616.408 262.556" stroke="#263238" stroke-linecap="round" stroke-linejoin="round"/>
<path d="M472.448 241.618L440.593 301.221L437.927 299.895L472.448 241.618Z" fill="#263238"/>
<path d="M375.1 366.058C375.1 366.058 375.972 364.737 379.335 362.459C382.697 360.181 385.133 354.745 383.168 351.149C381.202 347.552 376.498 348.256 375.442 355.001C374.213 362.822 375.1 366.058 375.1 366.058Z" fill="white" stroke="#263238" stroke-linecap="round" stroke-linejoin="round"/>
<path d="M399.189 301.322C399.189 301.322 398.082 293.715 396.882 290.509L399.189 301.322Z" fill="white"/>
<path d="M399.189 301.322C399.189 301.322 398.082 293.715 396.882 290.509" stroke="#263238" stroke-linecap="round" stroke-linejoin="round"/>
<path d="M421.521 289.924C421.521 289.924 427.825 286.418 431.536 281.717L421.521 289.924Z" fill="white"/>
<path d="M421.521 289.924C421.521 289.924 427.825 286.418 431.536 281.717" stroke="#263238" stroke-linecap="round" stroke-linejoin="round"/>
<path d="M369.684 293.487C369.684 293.487 369.501 287.114 377.266 284.929" stroke="#263238" stroke-linecap="round" stroke-linejoin="round"/>
<path d="M374.059 284.187C374.059 284.187 378.077 281.182 381.089 281.336" stroke="#263238" stroke-linecap="round" stroke-linejoin="round"/>
<path d="M376.059 342.817C376.059 342.817 377.514 339.713 379.936 338.914" stroke="#263238" stroke-linecap="round" stroke-linejoin="round"/>
<path d="M380.844 335.592C380.844 335.592 379.029 336.198 377.013 338.204" stroke="#263238" stroke-linecap="round" stroke-linejoin="round"/>
<path d="M387.77 386.923L368.363 404.585L376.61 380.397L494.039 179.891C494.633 178.885 495.923 178.548 496.93 179.141L504.446 183.547C505.453 184.14 505.79 185.43 505.197 186.436L387.767 386.941L387.77 386.923Z" fill="#FDD91E" stroke="#263238" stroke-linecap="round" stroke-linejoin="round"/>
<path d="M504.438 183.536L496.922 179.131C495.915 178.538 494.624 178.884 494.032 179.881L479.209 205.194L490.24 211.963L505.199 186.418C505.793 185.412 505.447 184.12 504.449 183.529L504.438 183.536Z" fill="white" stroke="#263238" stroke-linecap="round" stroke-linejoin="round"/>
<path d="M504.438 183.537L496.922 179.131C495.915 178.538 494.624 178.884 494.032 179.881L486.442 192.834L497.635 199.328L505.2 186.418C505.793 185.412 505.447 184.12 504.449 183.529L504.438 183.537Z" fill="#263238" stroke="#263238" stroke-linecap="round" stroke-linejoin="round"/>
<path d="M504.438 183.536L496.922 179.131C495.915 178.538 494.624 178.884 494.032 179.881L488.709 188.96L499.954 195.35L505.192 186.407C505.785 185.401 505.439 184.11 504.441 183.518L504.438 183.536Z" fill="#C4C4C4" stroke="#263238" stroke-linecap="round" stroke-linejoin="round"/>
<path d="M492.743 207.685L481.672 200.994L479.207 205.203L490.24 211.964L492.743 207.685Z" fill="#263238" stroke="#263238" stroke-linecap="round" stroke-linejoin="round"/>
<path d="M387.77 386.923C385.777 383.78 383.282 385.67 383.282 385.67C383.282 385.67 384.316 379.855 381.835 378.35C379.364 376.836 376.601 380.396 376.601 380.396L368.354 404.584L387.761 386.922L387.77 386.923Z" fill="white" stroke="#263238" stroke-linecap="round" stroke-linejoin="round"/>
<path d="M376.924 389.756C375.902 389.133 374.384 389.951 372.957 391.108L368.363 404.585L377.69 396.101C378.102 393.501 378.228 390.551 376.924 389.756Z" fill="#263238" stroke="#263238" stroke-linecap="round" stroke-linejoin="round"/>
<path d="M452.087 293.955C452.087 293.955 455.415 296.264 436.956 310.068C418.497 323.872 405.247 326.993 402.039 333.382C398.83 339.779 384.083 356.395 383.179 362.668C382.276 368.94 389.698 374.583 393.029 373.691C396.36 372.799 414.94 364.5 420.187 359.768C425.444 355.038 436.531 347.946 442.809 345.649C449.087 343.353 464.911 338.315 475.78 345.369" fill="white"/>
<path d="M452.087 293.955C452.087 293.955 455.415 296.264 436.956 310.068C418.497 323.872 405.247 326.993 402.039 333.382C398.83 339.779 384.083 356.395 383.179 362.668C382.276 368.94 389.698 374.583 393.029 373.691C396.36 372.799 414.94 364.5 420.187 359.768C425.444 355.038 436.531 347.946 442.809 345.649C449.087 343.353 464.911 338.315 475.78 345.369" stroke="#263238" stroke-linecap="round" stroke-linejoin="round"/>
<path d="M393.301 351.778C393.301 351.778 392.383 356.985 396.678 361.58C401.021 366.237 401.705 366.224 401.705 366.224C401.705 366.224 393.641 372.164 390.354 371.971C387.068 371.777 382.503 365.548 383.189 362.669C383.865 359.789 390.523 349.997 393.302 351.769L393.301 351.778Z" fill="white" stroke="#263238" stroke-linecap="round" stroke-linejoin="round"/>
<path d="M406.986 335.271C406.986 335.271 409.487 342.799 414.932 345.245" stroke="#263238" stroke-linecap="round" stroke-linejoin="round"/>
<path d="M412.491 347.282C410.866 346.189 409.136 344.587 407.906 342.3" stroke="#263238" stroke-linecap="round" stroke-linejoin="round"/>
<path d="M417.094 349.42C417.094 349.42 416.101 349.184 414.71 348.535" stroke="#263238" stroke-linecap="round" stroke-linejoin="round"/>
</g>
</g>
<defs>
<clipPath id="clip0_590_5276">
<rect width="626.046" height="378.157" fill="white" transform="translate(53.9302) rotate(8.19908)"/>
</clipPath>
<clipPath id="clip1_590_5276">
<rect width="281.503" height="264.354" fill="white" transform="translate(335.932 157.976) rotate(0.192086)"/>
</clipPath>
</defs>
</svg>
