<svg width="53" height="53" viewBox="0 0 53 53" fill="none" xmlns="http://www.w3.org/2000/svg">
<circle cx="26.5" cy="26.5" r="26.5" fill="#FCEE21"/>
<g clip-path="url(#clip0_814_324)">
<path d="M38.2013 37.771L32.2513 31.5827C33.7811 29.7641 34.6194 27.4759 34.6194 25.0937C34.6194 19.5281 30.0912 15 24.5256 15C18.96 15 14.4319 19.5281 14.4319 25.0937C14.4319 30.6593 18.96 35.1875 24.5256 35.1875C26.615 35.1875 28.6061 34.5573 30.3085 33.361L36.3037 39.5963C36.5543 39.8565 36.8913 40 37.2525 40C37.5944 40 37.9187 39.8697 38.1649 39.6327C38.688 39.1293 38.7047 38.2946 38.2013 37.771ZM24.5256 17.6331C28.6395 17.6331 31.9862 20.9799 31.9862 25.0937C31.9862 29.2076 28.6395 32.5543 24.5256 32.5543C20.4118 32.5543 17.065 29.2076 17.065 25.0937C17.065 20.9799 20.4118 17.6331 24.5256 17.6331Z" fill="black"/>
</g>
<defs>
<clipPath id="clip0_814_324">
<rect width="25" height="25" fill="white" transform="translate(14 15)"/>
</clipPath>
</defs>
</svg>
