<svg width="30" height="30" viewBox="0 0 30 30" fill="none" xmlns="http://www.w3.org/2000/svg">
<g id="Layer_2" clip-path="url(#clip0_1040_2889)">
<g id="Icon">
<g id="08">
<path id="Vector" d="M30 15C30 6.71573 23.2843 0 15 0C6.71573 0 0 6.71573 0 15C0 23.2843 6.71573 30 15 30C23.2843 30 30 23.2843 30 15Z" fill="#1273EB"/>
<path id="Vector_2" d="M20.4087 8.75859H17.9577C18.3116 9.32637 18.5413 9.96621 18.6456 10.6781H21.0603L20.3964 13.2258H18.6216C18.4364 14.3449 18.0075 15.2584 17.336 15.9662C16.664 16.6746 15.7083 17.2178 14.4685 17.5963L19.3698 23.6092V23.7896H14.8306L9.28936 17.1738L9.27705 14.8436H12.1265C13.2772 14.8195 14.022 14.2805 14.3601 13.2258H8.92725L9.59111 10.6781H14.2634C13.9089 9.91348 13.2169 9.51504 12.1868 9.48281H8.93896L9.71182 6.21094H21.0726L20.4087 8.75859Z" fill="white"/>
</g>
</g>
</g>
<defs>
<clipPath id="clip0_1040_2889">
<rect width="30" height="30" fill="white"/>
</clipPath>
</defs>
</svg>
