<svg width="258" height="257" viewBox="0 0 258 257" fill="none" xmlns="http://www.w3.org/2000/svg">
<g id="Isolation_Mode" clip-path="url(#clip0_56_1270)">
<path id="Vector" d="M10.7821 133.56C9.85863 131.27 7.45517 129.689 5.57266 130.108C4.23729 130.405 3.55349 131.662 3.62335 133.216L8.91023 138.652C8.9705 138.639 9.03532 138.63 9.10028 138.613C10.9145 138.124 11.7055 135.851 10.7866 133.565L10.7821 133.56Z" fill="white"/>
<path id="Vector_2" d="M16.0218 117.741C18.1557 117.515 18.9457 115.626 17.6375 113.737C17.5152 113.564 17.379 113.396 17.2289 113.232L13.1691 117.18C14.1287 117.614 15.1284 117.835 16.0171 117.745L16.0218 117.741Z" fill="white"/>
<path id="Vector_3" d="M25.8365 130.599C25.0771 128.468 22.7004 126.952 20.6667 127.281C18.633 127.61 17.7797 129.716 18.6165 131.927C19.4533 134.138 21.664 135.623 23.6156 135.219C25.5672 134.815 26.5957 132.74 25.8318 130.604L25.8365 130.599Z" fill="white"/>
<path id="Vector_4" d="M29.0997 152.854C30.8739 152.258 31.8094 149.9 31.1633 147.604C30.5173 145.307 28.4583 143.875 26.5931 144.377C24.7371 144.879 23.8529 147.206 24.5854 149.591C25.318 151.977 27.321 153.445 29.0951 152.849L29.0997 152.854Z" fill="white"/>
<path id="Vector_5" d="M32.0522 162.446L36.3054 166.819C36.2843 166.366 36.2078 165.903 36.0803 165.453C35.4518 163.222 33.6822 161.918 32.0522 162.446Z" fill="white"/>
<path id="Vector_6" d="M32.7751 116.188C34.9824 116.001 35.9736 114.262 34.853 112.5C33.7324 110.738 30.8422 109.577 28.5434 109.699C26.2399 109.825 25.4801 111.23 26.6921 113.057C27.9042 114.885 30.5632 116.372 32.7751 116.188Z" fill="white"/>
<path id="Vector_7" d="M36.6137 124.928C34.5111 125.224 33.4431 127.155 34.1113 129.202C34.7747 131.254 36.9039 132.627 38.9198 132.252C40.9357 131.876 42.142 129.965 41.5607 127.989C40.9839 126.017 38.7162 124.633 36.6184 124.924L36.6137 124.928Z" fill="white"/>
<path id="Vector_8" d="M42.9466 148.389C44.7667 147.812 45.889 145.636 45.4341 143.546C44.9792 141.455 43.0474 140.173 41.1364 140.646C39.2207 141.125 38.1313 143.259 38.6773 145.443C39.2186 147.632 41.1266 148.956 42.942 148.384L42.9466 148.389Z" fill="white"/>
<path id="Vector_9" d="M42.821 162.441C43.3805 164.649 45.1619 165.786 46.7863 164.999C48.4153 164.217 49.3364 161.89 48.8726 159.781C48.4087 157.672 46.6508 156.512 44.9354 157.196C43.22 157.881 42.2661 160.239 42.821 162.441Z" fill="white"/>
<path id="Vector_10" d="M52.9419 175.54C52.3234 173.572 50.622 172.657 49.0932 173.543C47.7415 174.329 47.0286 176.316 47.3573 178.183L50.3218 181.231C50.7151 181.204 51.1098 181.075 51.4878 180.826C52.9347 179.847 53.5603 177.507 52.9419 175.54Z" fill="white"/>
<path id="Vector_11" d="M56.9247 188.02L58.9875 190.141C58.9161 189.965 58.8402 189.783 58.7502 189.616C58.2999 188.796 57.6424 188.242 56.9247 188.02Z" fill="white"/>
<path id="Vector_12" d="M41.0367 103.288C43.4096 103.158 44.1921 102.105 42.6067 101.16C41.0213 100.215 37.8505 99.5993 35.4218 99.7566C32.9931 99.9138 32.2189 100.712 33.8785 101.64C35.5426 102.573 38.6639 103.418 41.0367 103.288Z" fill="white"/>
<path id="Vector_13" d="M49.7313 114.667C51.9206 114.451 53.0351 112.811 52.1114 111.177C51.183 109.547 48.4807 108.494 46.1999 108.653C43.919 108.812 42.9983 110.154 44.0183 111.841C45.0336 113.532 47.5376 114.878 49.7268 114.662L49.7313 114.667Z" fill="white"/>
<path id="Vector_14" d="M57.3042 125.314C56.9053 123.506 54.82 122.291 52.7402 122.61C50.6604 122.929 49.4372 124.729 49.9183 126.611C50.4039 128.499 52.3828 129.718 54.3759 129.319C56.3736 128.925 57.7031 127.122 57.3042 125.314Z" fill="white"/>
<path id="Vector_15" d="M59.7336 139.424C59.4745 137.535 57.7249 136.439 55.8228 136.932C53.9253 137.429 52.6764 139.409 53.0266 141.391C53.3767 143.374 55.1255 144.525 56.932 143.934C58.7384 143.344 59.9974 141.308 59.7383 139.419L59.7336 139.424Z" fill="white"/>
<path id="Vector_16" d="M59.279 158.944C60.8943 158.148 61.9567 155.966 61.6792 154.068C61.4018 152.169 59.826 151.196 58.1151 151.895C56.4087 152.598 55.2954 154.783 55.6593 156.779C56.0231 158.776 57.6545 159.741 59.2745 158.94L59.279 158.944Z" fill="white"/>
<path id="Vector_17" d="M64.3702 168.306C63.9201 166.521 62.3779 165.779 60.8535 166.679C59.3292 167.578 58.4687 169.864 59.0007 171.733C59.5328 173.603 61.1869 174.272 62.6293 173.288C64.0764 172.3 64.8203 170.091 64.3655 168.311L64.3702 168.306Z" fill="white"/>
<path id="Vector_18" d="M69.018 181.142C68.2362 179.606 66.5787 179.169 65.2136 180.241C63.8484 181.314 63.3446 183.544 64.1902 185.145C65.0359 186.746 66.8664 187.043 68.1723 185.91C69.4782 184.776 69.8092 182.678 69.018 181.142Z" fill="white"/>
<path id="Vector_19" d="M76.853 191.562C75.6543 190.404 73.6401 190.34 72.389 191.521C71.1331 192.706 71.1546 194.726 72.3854 195.907C73.4975 196.975 75.3405 197.051 76.5689 195.847C77.8018 194.648 77.9652 192.63 76.853 191.562Z" fill="white"/>
<path id="Vector_20" d="M79.9696 205.449C80.8425 206.769 82.4449 206.86 83.586 205.622C84.7317 204.38 85.0439 202.3 84.2215 201.004C83.3992 199.709 81.7082 199.668 80.512 200.886C79.3157 202.104 79.0968 204.13 79.9742 205.454L79.9696 205.449Z" fill="white"/>
<path id="Vector_21" d="M89.109 216.122C90.0894 214.804 90.3891 212.627 89.7526 211.269C89.116 209.911 87.7073 209.85 86.6441 211.13C85.581 212.41 85.3278 214.57 86.0516 215.971C86.7753 217.371 88.1285 217.44 89.109 216.122Z" fill="white"/>
<path id="Vector_22" d="M94.2462 221.676C93.6971 220.343 92.5368 220.36 91.6758 221.725C91.411 222.138 91.2282 222.634 91.0958 223.155L94.0603 226.203C94.6446 224.797 94.7464 222.875 94.2417 221.672L94.2462 221.676Z" fill="white"/>
<path id="Vector_23" d="M122.846 251.27C121.469 251.187 120.357 251.74 119.812 252.681L123.946 256.932L126.394 254.552C126.394 254.552 126.394 254.533 126.394 254.524C126.419 252.805 124.79 251.383 122.846 251.27Z" fill="white"/>
<path id="Vector_24" d="M47.7835 93.8108C50.2805 93.405 50.7739 92.2145 48.7822 91.236C46.809 90.267 43.1811 89.9322 40.711 90.3939L38.8218 92.2314C39.0314 92.4375 39.3519 92.6451 39.7927 92.8451C41.7578 93.7401 45.2912 94.2122 47.7881 93.8155L47.7835 93.8108Z" fill="white"/>
<path id="Vector_25" d="M59.7765 101.79C62.2255 101.513 63.1996 100.31 61.786 99.3164C60.3723 98.3225 57.1368 97.7064 54.6319 98.0198C52.1269 98.3331 51.2843 99.3895 52.7816 100.357C54.2741 101.329 57.3276 102.067 59.7765 101.79Z" fill="white"/>
<path id="Vector_26" d="M66.987 112.571C69.2428 112.227 70.5701 110.581 69.8434 109.064C69.1167 107.548 66.5317 106.691 64.1842 106.988C61.8366 107.285 60.6938 108.642 61.5168 110.211C62.3398 111.779 64.7405 112.916 66.9917 112.567L66.987 112.571Z" fill="white"/>
<path id="Vector_27" d="M73.4505 121.965C73.2436 120.298 71.2797 119.32 69.138 119.763C66.9965 120.197 65.5708 121.939 65.8691 123.671C66.1675 125.404 68.0384 126.418 70.0886 125.909C72.1387 125.409 73.6619 123.636 73.455 121.97L73.4505 121.965Z" fill="white"/>
<path id="Vector_28" d="M70.7278 132.804C68.7827 133.392 67.3272 135.282 67.4768 137.068C67.6265 138.854 69.249 139.79 71.0983 139.112C72.9476 138.434 74.3996 136.476 74.3411 134.774C74.2873 133.068 72.6683 132.21 70.7231 132.808L70.7278 132.804Z" fill="white"/>
<path id="Vector_29" d="M71.9191 152.609C73.5676 151.753 74.8043 149.657 74.7321 147.951C74.6553 146.24 73.2195 145.495 71.4797 146.267C69.74 147.039 68.4343 149.111 68.5976 150.911C68.7656 152.706 70.2751 153.47 71.9236 152.614L71.9191 152.609Z" fill="white"/>
<path id="Vector_30" d="M73.8615 165.562C75.3276 164.537 76.2181 162.414 75.9504 160.797C75.6781 159.185 74.2719 158.63 72.7237 159.58C71.1754 160.53 70.1503 162.693 70.5001 164.385C70.8591 166.077 72.3999 166.592 73.8615 165.562Z" fill="white"/>
<path id="Vector_31" d="M79.3665 172.526C78.717 171.108 77.1823 170.805 75.7983 171.905C74.419 173.001 73.7824 175.142 74.4913 176.611C75.2002 178.081 76.9443 178.28 78.2551 177.133C79.5705 175.981 80.0021 173.949 79.3618 172.531L79.3665 172.526Z" fill="white"/>
<path id="Vector_32" d="M86.3322 182.342C85.1884 181.223 83.2798 181.211 82.0285 182.401C80.7772 183.591 80.6978 185.554 81.8645 186.688C82.9766 187.765 84.783 187.812 86.0159 186.613C87.2489 185.414 87.4441 183.429 86.3322 182.342Z" fill="white"/>
<path id="Vector_33" d="M92.3813 196.075C93.527 194.833 93.9447 192.805 93.2326 191.557C92.5205 190.309 90.9029 190.306 89.7067 191.524C88.5105 192.742 88.218 194.74 88.9853 196.007C89.7479 197.279 91.2355 197.317 92.3813 196.075Z" fill="white"/>
<path id="Vector_34" d="M97.6065 201.298C97.1582 200.021 95.8872 200.027 94.8195 201.302C93.7564 202.582 93.3654 204.685 93.9009 205.995C94.4411 207.31 95.6335 207.307 96.6047 205.989C97.5852 204.671 98.0502 202.57 97.6019 201.293L97.6065 201.298Z" fill="white"/>
<path id="Vector_35" d="M100.479 210.977C100.16 209.748 99.1832 209.841 98.3175 211.211C97.4518 212.582 97.1154 214.74 97.5405 216.022C97.9703 217.298 98.9196 217.168 99.6796 215.754C100.435 214.336 100.799 212.215 100.475 210.981L100.479 210.977Z" fill="white"/>
<path id="Vector_36" d="M102.567 224.726C103.084 223.203 103.221 221.112 102.89 220.003C102.56 218.894 101.802 219.156 101.171 220.627C100.54 222.097 100.374 224.263 100.815 225.419C101.256 226.576 102.046 226.244 102.567 224.726Z" fill="white"/>
<path id="Vector_37" d="M104.345 228.956C103.953 230.531 103.947 232.541 104.634 233.576C105.326 234.616 106.151 234.142 106.429 232.523C106.711 230.9 106.437 228.78 105.864 227.797C105.296 226.819 104.738 227.38 104.345 228.956Z" fill="white"/>
<path id="Vector_38" d="M113.678 239.067C113.762 237.372 112.814 235.543 111.756 234.831C110.699 234.128 109.857 234.792 109.69 236.458C109.527 238.12 110.186 240.185 111.321 240.921C112.457 241.657 113.593 240.762 113.668 239.067L113.678 239.067Z" fill="white"/>
<path id="Vector_39" d="M126.581 241.313C126.606 239.594 124.968 238.163 123.033 238.059C121.098 237.955 119.727 239.115 119.693 240.834C119.663 242.548 121.007 244.174 122.942 244.288C124.882 244.397 126.556 243.032 126.581 241.313Z" fill="white"/>
<path id="Vector_40" d="M134.654 243.001C134.628 243.856 135.007 244.762 135.634 245.556L139.403 241.89C139.092 241.674 138.762 241.475 138.417 241.327C136.387 240.441 134.707 241.292 134.654 243.001Z" fill="white"/>
<path id="Vector_41" d="M51.0387 80.3496L49.6838 81.6672C50.5761 81.3278 51.022 80.8577 51.0387 80.3496Z" fill="white"/>
<path id="Vector_42" d="M66.6884 86.6765C64.6435 85.5494 61.1027 85.2667 58.8559 85.9486C56.609 86.6305 56.4832 87.9737 58.5106 89.0359C60.5333 90.1026 63.9515 90.5501 66.2206 89.9286C68.4896 89.307 68.7333 87.8036 66.6884 86.6765Z" fill="white"/>
<path id="Vector_43" d="M73.1343 94.7299C70.8615 95.2912 70.19 96.655 71.5153 97.6893C72.8452 98.7191 75.6145 99.2966 77.8357 98.7854C80.0571 98.2649 80.9422 96.8301 79.6776 95.755C78.413 94.6798 75.4116 94.1731 73.1343 94.7299Z" fill="white"/>
<path id="Vector_44" d="M81.5372 103.923C79.3991 104.435 78.2361 105.913 78.8618 107.381C79.4875 108.85 81.6053 109.733 83.6607 109.183C85.7207 108.637 87.0122 106.907 86.46 105.467C85.9124 104.032 83.6707 103.406 81.5326 103.918L81.5372 103.923Z" fill="white"/>
<path id="Vector_45" d="M81.6911 119.727C81.8065 121.327 83.4222 122.097 85.3176 121.429C87.2084 120.757 88.7137 118.946 88.6715 117.393C88.6294 115.839 86.9759 115.124 85.012 115.741C83.048 116.357 81.5757 118.126 81.6911 119.727Z" fill="white"/>
<path id="Vector_46" d="M84.8981 133.445C86.6199 132.636 88.0949 130.682 88.2236 129.135C88.3479 127.584 87.0117 126.979 85.2124 127.718C83.4083 128.461 81.8839 130.317 81.8419 131.934C81.7954 133.547 83.181 134.249 84.9028 133.44L84.8981 133.445Z" fill="white"/>
<path id="Vector_47" d="M84.2815 145.661C85.8344 144.706 87.1213 142.653 87.2271 141.101C87.3283 139.545 86.1433 139.03 84.5082 139.919C82.873 140.808 81.4804 142.818 81.4522 144.44C81.4286 146.067 82.7286 146.615 84.2815 145.661Z" fill="white"/>
<path id="Vector_48" d="M87.1633 152.807C87.0461 151.327 85.8406 150.959 84.3698 151.989C82.899 153.019 81.7733 155.107 81.9589 156.648C82.1444 158.189 83.5166 158.54 84.9235 157.455C86.3305 156.369 87.285 154.292 87.1678 152.812L87.1633 152.807Z" fill="white"/>
<path id="Vector_49" d="M89.5289 163.672C88.9983 162.338 87.6005 162.158 86.2622 163.296C84.9237 164.443 84.1958 166.508 84.7768 167.874C85.3578 169.241 86.9875 169.36 88.2756 168.18C89.5637 167 90.0597 164.996 89.529 163.663L89.5289 163.672Z" fill="white"/>
<path id="Vector_50" d="M95.816 173.119C94.7045 172.004 92.8924 172.026 91.6457 173.221C90.399 174.415 90.2276 176.349 91.3483 177.464C92.4554 178.565 94.2393 178.57 95.4677 177.366C96.7007 176.167 96.9231 174.22 95.8207 173.114L95.816 173.119Z" fill="white"/>
<path id="Vector_51" d="M102.257 182.115C101.66 180.919 100.107 180.945 98.9105 182.163C97.7143 183.381 97.353 185.345 98.01 186.565C98.6625 187.78 100.04 187.77 101.186 186.528C102.331 185.286 102.859 183.306 102.262 182.11L102.257 182.115Z" fill="white"/>
<path id="Vector_52" d="M104.119 195.857C105.099 194.539 105.725 192.509 105.465 191.322C105.2 190.131 104.067 190.195 103.004 191.474C101.941 192.754 101.412 194.79 101.764 196.024C102.116 197.258 103.143 197.179 104.124 195.861L104.119 195.857Z" fill="white"/>
<path id="Vector_53" d="M106.712 200.277C106.618 199.148 105.825 199.327 104.964 200.693C104.098 202.063 103.578 204.145 103.778 205.317C103.978 206.489 104.739 206.278 105.495 204.86C106.25 203.441 106.802 201.401 106.717 200.273L106.712 200.277Z" fill="white"/>
<path id="Vector_54" d="M106.532 213.035C107.048 211.512 107.373 209.502 107.291 208.498C107.208 207.494 106.635 207.842 106.008 209.317C105.376 210.788 105.018 212.867 105.22 213.919C105.422 214.971 106.02 214.554 106.536 213.04L106.532 213.035Z" fill="white"/>
<path id="Vector_55" d="M107.363 216.864C106.971 218.439 106.813 220.397 107.243 221.317C107.678 222.234 108.301 221.683 108.579 220.064C108.861 218.441 108.784 216.402 108.473 215.538C108.162 214.674 107.756 215.288 107.363 216.864Z" fill="white"/>
<path id="Vector_56" d="M112.67 221.907C111.782 221.267 111.102 221.993 110.943 223.659C110.781 225.321 111.278 227.324 112.244 227.997C113.209 228.671 114.235 227.728 114.315 226.038C114.4 224.343 113.562 222.552 112.67 221.907Z" fill="white"/>
<path id="Vector_57" d="M126.773 228.098C126.798 226.379 125.151 224.938 123.225 224.843C121.294 224.744 119.974 225.928 119.935 227.642C119.905 229.356 121.204 230.963 123.13 231.068C125.06 231.167 126.744 229.812 126.769 228.093L126.773 228.098Z" fill="white"/>
<path id="Vector_58" d="M135.071 229.886C135.014 231.59 136.65 233.526 138.753 234.441C140.856 235.356 142.684 234.918 142.805 233.233C142.922 231.552 141.223 229.242 139.055 228.298C136.882 227.359 135.128 228.181 135.071 229.886Z" fill="white"/>
<path id="Vector_59" d="M57.151 74.7784C59.714 75.8755 63.2891 76.0246 65.106 75.032C66.9229 74.0393 66.2696 72.2421 63.6609 71.1075C62.9169 70.7833 62.0929 70.5552 61.2585 70.4101L56.8893 74.6594C56.9765 74.7022 57.0591 74.7402 57.151 74.7784Z" fill="white"/>
<path id="Vector_60" d="M75.1278 83.4887C77.1904 84.6716 80.3287 84.9813 82.1861 84.0678C84.0389 83.1495 83.9037 81.3222 81.8324 80.1023C79.761 78.8824 76.5507 78.7612 74.7021 79.7118C72.8534 80.6624 73.0652 82.3059 75.1278 83.4887Z" fill="white"/>
<path id="Vector_61" d="M89.0714 89.2338C87.2283 90.1244 86.8524 91.8201 88.056 92.9546C89.2597 94.089 91.6297 94.4717 93.4398 93.6315C95.2499 92.7913 95.8395 91.0152 94.6691 89.8211C93.5033 88.6225 90.9099 88.3477 89.0714 89.2338Z" fill="white"/>
<path id="Vector_62" d="M100.61 99.8412C100.187 98.4399 98.3853 98.0693 96.6265 98.8778C94.8677 99.6864 93.8589 101.369 94.3375 102.78C94.8115 104.196 96.5453 104.788 98.2534 103.965C99.9616 103.142 101.038 101.238 100.615 99.8367L100.61 99.8412Z" fill="white"/>
<path id="Vector_63" d="M95.9539 114.319C95.9273 115.83 97.2186 116.342 98.8169 115.443C100.415 114.545 101.751 112.608 101.828 111.12C101.905 109.633 100.632 109.196 98.9875 110.066C97.3433 110.936 95.9851 112.804 95.9586 114.315L95.9539 114.319Z" fill="white"/>
<path id="Vector_64" d="M98.1542 121.29C96.6061 122.231 95.1456 124.143 94.9438 125.624C94.7421 127.105 95.8354 127.563 97.3287 126.576C98.822 125.588 100.192 123.573 100.444 122.134C100.696 120.695 99.6978 120.345 98.1497 121.285L98.1542 121.29Z" fill="white"/>
<path id="Vector_65" d="M95.6399 137.83C97.0284 136.744 98.2556 134.667 98.4799 133.228C98.7041 131.789 97.8025 131.499 96.3592 132.539C94.9253 133.578 93.5418 135.598 93.3677 137.079C93.189 138.565 94.247 138.912 95.6354 137.825L95.6399 137.83Z" fill="white"/>
<path id="Vector_66" d="M97.5451 144.132C97.5282 142.745 96.5421 142.547 95.2037 143.685C93.8654 144.822 92.7307 146.891 92.784 148.316C92.8418 149.745 94.0358 149.95 95.3377 148.775C96.635 147.604 97.5664 145.523 97.5498 144.127L97.5451 144.132Z" fill="white"/>
<path id="Vector_67" d="M98.013 159.001C99.26 157.788 99.7468 155.775 99.2758 154.475C98.8094 153.179 97.5396 153.093 96.2743 154.296C95.0089 155.5 94.2536 157.546 94.7429 158.856C95.2323 160.166 96.766 160.214 98.0085 158.996L98.013 159.001Z" fill="white"/>
<path id="Vector_68" d="M101.181 163.974C99.9475 165.183 99.7207 167.116 100.827 168.245C101.93 169.359 103.686 169.337 104.915 168.133C106.148 166.934 106.397 165.024 105.295 163.9C104.175 162.748 102.409 162.761 101.181 163.974Z" fill="white"/>
<path id="Vector_69" d="M109.985 176.986C111.131 175.744 111.769 173.811 111.282 172.673C110.79 171.529 109.315 171.588 108.119 172.806C106.923 174.024 106.493 175.955 107.035 177.122C107.577 178.29 108.844 178.232 109.99 176.991L109.985 176.986Z" fill="white"/>
<path id="Vector_70" d="M111.624 185.724C112.604 184.406 113.395 182.452 113.319 181.342C113.243 180.232 112.247 180.362 111.184 181.642C110.121 182.922 109.45 184.896 109.618 186.044C109.782 187.188 110.644 187.042 111.624 185.724Z" fill="white"/>
<path id="Vector_71" d="M111.305 193.979C112.061 192.561 112.806 190.606 112.945 189.578C113.085 188.549 112.471 188.809 111.601 190.174C110.735 191.545 110.036 193.546 110.002 194.618C109.973 195.694 110.541 195.397 111.296 193.979L111.305 193.979Z" fill="white"/>
<path id="Vector_72" d="M111.691 197.002C111.848 196.103 111.476 196.537 110.845 198.007C110.213 199.478 109.657 201.476 109.616 202.419C109.574 203.37 109.979 202.867 110.5 201.349C111.017 199.826 111.54 197.896 111.691 197.002Z" fill="white"/>
<path id="Vector_73" d="M110.733 207.6C111.016 205.977 111.136 204.019 111.087 203.275C111.033 202.534 110.774 203.197 110.381 204.772C109.989 206.347 109.684 208.257 109.857 209.054C110.03 209.851 110.46 209.224 110.733 207.6Z" fill="white"/>
<path id="Vector_74" d="M113.578 208.988C112.861 208.41 112.341 209.198 112.183 210.864C112.025 212.53 112.353 214.471 113.153 215.078C113.953 215.685 114.863 214.708 114.948 213.013C115.033 211.318 114.3 209.57 113.583 208.992L113.578 208.988Z" fill="white"/>
<path id="Vector_75" d="M123.408 211.628C121.491 211.533 120.207 212.736 120.173 214.455C120.143 216.169 121.396 217.757 123.317 217.857C125.243 217.952 126.931 216.601 126.956 214.882C126.981 213.163 125.324 211.713 123.408 211.628Z" fill="white"/>
<path id="Vector_76" d="M135.493 216.775C135.435 218.48 137.154 220.444 139.391 221.412C141.627 222.38 143.602 221.99 143.719 220.309C143.836 218.628 141.998 216.261 139.688 215.273C137.382 214.281 135.54 215.07 135.493 216.775Z" fill="white"/>
<path id="Vector_77" d="M153.475 226.026C153.403 226.552 153.537 227.187 153.837 227.852L156.631 225.135C154.926 224.469 153.646 224.794 153.475 226.026Z" fill="white"/>
<path id="Vector_78" d="M69.9495 66.4492C72.5901 67.6073 75.7937 67.5621 76.9669 66.339C78.1401 65.116 76.9394 63.1405 74.3172 61.9826C73.1508 61.4679 71.8975 61.2017 70.761 61.1682L67.3529 64.4828C67.8369 65.2056 68.7233 65.9107 69.9495 66.4492Z" fill="white"/>
<path id="Vector_79" d="M86.6668 71.1912C85.512 72.4144 86.1675 74.3827 88.2385 75.6211C90.305 76.8548 92.9896 76.8951 94.1398 75.6671C95.29 74.4392 94.5708 72.4053 92.509 71.1671C90.4472 69.9288 87.8169 69.9632 86.6668 71.1912Z" fill="white"/>
<path id="Vector_80" d="M100.899 80.9101C99.7351 82.1425 99.7699 84.2042 100.92 85.4905C102.071 86.7767 103.95 86.9079 105.054 85.6979C106.158 84.4878 106.207 82.3902 105.131 81.0587C104.055 79.7273 102.068 79.6731 100.904 80.9055L100.899 80.9101Z" fill="white"/>
<path id="Vector_81" d="M109.378 96.3527C110.421 95.1742 110.942 93.0367 110.56 91.622C110.179 90.2073 109.03 90.058 107.982 91.2504C106.934 92.4427 106.258 94.4488 106.644 95.8496C107.035 97.2552 108.33 97.5358 109.368 96.3526L109.378 96.3527Z" fill="white"/>
<path id="Vector_82" d="M109.847 102.219C108.776 103.397 107.692 105.481 107.592 106.954C107.492 108.427 108.413 108.661 109.521 107.474C110.629 106.288 111.552 104.178 111.615 102.714C111.682 101.245 110.918 101.041 109.847 102.219Z" fill="white"/>
<path id="Vector_83" d="M107.646 118.163C108.852 116.954 109.96 114.829 110.211 113.436C110.467 112.049 109.812 111.91 108.653 113.111C107.494 114.311 106.235 116.364 105.947 117.766C105.658 119.167 106.432 119.371 107.642 118.167L107.646 118.163Z" fill="white"/>
<path id="Vector_84" d="M106.459 123.845C105.198 125.062 103.966 127.163 103.71 128.56C103.449 129.961 104.256 130.106 105.559 128.885C106.861 127.663 107.992 125.525 108.221 124.137C108.449 122.749 107.72 122.628 106.459 123.845Z" fill="white"/>
<path id="Vector_85" d="M107.226 134.716C107.222 133.353 106.272 133.266 104.937 134.492C103.597 135.722 102.563 137.839 102.562 139.207C102.556 140.57 103.581 140.648 104.93 139.418C106.279 138.189 107.234 136.075 107.226 134.716Z" fill="white"/>
<path id="Vector_86" d="M107.435 149.545C108.738 148.333 109.267 146.279 108.824 144.979C108.376 143.675 107.096 143.616 105.761 144.841C104.422 146.062 103.726 148.151 104.192 149.447C104.659 150.743 106.128 150.762 107.435 149.545Z" fill="white"/>
<path id="Vector_87" d="M114.598 154.715C113.507 153.49 111.825 153.467 110.596 154.662C109.373 155.852 109.15 157.827 110.311 159.021C111.409 160.15 113.156 160.099 114.26 158.898C115.364 157.697 115.585 155.814 114.598 154.715Z" fill="white"/>
<path id="Vector_88" d="M118.523 167.389C119.383 166.088 119.91 164.172 119.565 163.096C119.22 162.019 118.058 162.165 117.097 163.419C116.14 164.668 115.614 166.565 116.046 167.675C116.473 168.79 117.663 168.69 118.518 167.384L118.523 167.389Z" fill="white"/>
<path id="Vector_89" d="M118.872 175.505C119.576 174.091 120.325 172.15 120.409 171.139C120.498 170.124 119.856 170.383 119.083 171.746C118.315 173.103 117.488 175.01 117.463 176.073C117.438 177.136 118.158 176.919 118.862 175.505L118.872 175.505Z" fill="white"/>
<path id="Vector_90" d="M118.046 179.552C117.396 181.031 116.503 182.947 116.244 183.918C115.985 184.89 116.356 184.511 116.97 182.976C117.584 181.44 118.421 179.506 118.739 178.586C119.053 177.67 118.696 178.072 118.046 179.552Z" fill="white"/>
<path id="Vector_91" d="M116.172 185.091C116.301 184.756 116.316 184.742 116.172 185.091V185.091Z" fill="white"/>
<path id="Vector_92" d="M116.172 185.091C116.172 185.091 116.148 185.151 116.134 185.183C115.803 185.978 115.017 187.881 114.471 189.533C114.278 190.122 114.128 190.568 114.031 190.872C114.055 190.812 114.079 190.753 114.103 190.702C114.426 189.777 115.089 188.049 115.623 186.572C115.874 185.873 116.071 185.372 116.181 185.091L116.172 185.091Z" fill="white"/>
<path id="Vector_93" d="M113.471 192.538C112.956 194.25 112.541 196.112 112.462 196.79C112.378 197.473 112.55 196.759 113.024 194.995C113.498 193.231 114.062 191.307 114.205 190.676C114.274 190.372 114.218 190.399 114.094 190.702C114.075 190.748 114.051 190.808 114.022 190.872C113.887 191.222 113.694 191.783 113.466 192.542L113.471 192.538Z" fill="white"/>
<path id="Vector_94" d="M115.338 195.696C114.782 195.19 114.043 196.09 113.624 197.91C113.205 199.73 113.436 201.61 114.061 202.159C114.691 202.703 115.432 201.673 115.778 199.815C116.123 197.957 115.895 196.212 115.334 195.701L115.338 195.696Z" fill="white"/>
<path id="Vector_95" d="M124.137 197.99C122.322 197.915 120.801 199.193 120.561 201.085C120.326 202.981 121.597 204.551 123.509 204.641C125.426 204.727 127.063 203.381 127.215 201.502C127.367 199.623 125.943 198.065 124.133 197.985L124.137 197.99Z" fill="white"/>
<path id="Vector_96" d="M144.753 207.359C145.05 205.667 143.383 203.306 140.94 202.229C138.497 201.152 136.255 201.83 136.022 203.587C135.793 205.35 137.644 207.366 140.019 208.382C142.398 209.403 144.446 209.051 144.748 207.354L144.753 207.359Z" fill="white"/>
<path id="Vector_97" d="M161.081 213.727C158.321 211.865 155.684 211.751 155.309 213.392C154.934 215.032 156.928 217.721 159.615 219.554C160.214 219.964 160.801 220.296 161.366 220.548L164.591 217.411C163.875 216.131 162.638 214.765 161.09 213.727L161.081 213.727Z" fill="white"/>
<path id="Vector_98" d="M84.1122 56.4742C84.8249 55.1342 83.3853 53.063 80.9021 51.8792C80.769 51.8174 80.6312 51.7601 80.498 51.6983L76.4148 55.6695C76.9128 56.0689 77.5082 56.4373 78.1878 56.7422C80.7498 57.9131 83.4041 57.8097 84.1169 56.4697L84.1122 56.4742Z" fill="white"/>
<path id="Vector_99" d="M100.711 65.8964C101.298 64.587 100.206 62.4789 98.2273 61.2232C96.249 59.9676 94.0892 60.0637 93.4554 61.3817C92.8215 62.6997 93.9889 64.7441 96.0182 65.9866C98.0476 67.229 100.123 67.2058 100.711 65.8964Z" fill="white"/>
<path id="Vector_100" d="M107.373 71.1612C106.827 72.4572 107.462 74.5732 108.445 75.9404C109.433 77.303 110.6 77.3971 111.095 76.1235C111.59 74.8498 111.261 72.664 110.343 71.27C109.425 69.8759 107.918 69.8651 107.373 71.1612Z" fill="white"/>
<path id="Vector_101" d="M115.217 86.9744C115.716 85.7239 115.775 83.534 115.362 82.105C114.948 80.6761 114.233 80.5603 113.758 81.8157C113.282 83.0711 113.214 85.2239 113.6 86.6432C113.99 88.0673 114.714 88.2201 115.212 86.9697L115.217 86.9744Z" fill="white"/>
<path id="Vector_102" d="M116.038 92.8363C115.47 94.0905 114.985 96.2747 115.001 97.7354C115.007 99.1959 115.519 99.2905 116.161 98.0281C116.799 96.761 117.278 94.6367 117.188 93.1844C117.098 91.732 116.606 91.5821 116.042 92.841L116.038 92.8363Z" fill="white"/>
<path id="Vector_103" d="M115.311 108.54C116.115 107.248 116.789 105.08 116.887 103.718C116.99 102.351 116.543 102.294 115.822 103.57C115.096 104.849 114.298 106.983 114.116 108.363C113.934 109.742 114.502 109.828 115.311 108.54Z" fill="white"/>
<path id="Vector_104" d="M114.228 119.114C115.194 117.801 115.97 115.616 116.059 114.244C116.149 112.873 115.581 112.833 114.688 114.138C113.796 115.443 112.849 117.603 112.686 118.983C112.523 120.362 113.266 120.432 114.232 119.119L114.228 119.114Z" fill="white"/>
<path id="Vector_105" d="M114.233 129.587C115.315 128.261 116.017 126.084 115.935 124.724C115.848 123.369 115.054 123.349 114.013 124.671C112.977 125.988 112.054 128.153 112.089 129.512C112.125 130.872 113.155 130.908 114.233 129.587Z" fill="white"/>
<path id="Vector_106" d="M116.649 139.819C117.755 138.507 118.179 136.364 117.759 135.041C117.339 133.718 116.234 133.718 115.124 135.034C114.019 136.355 113.318 138.485 113.742 139.804C114.167 141.122 115.544 141.131 116.649 139.819Z" fill="white"/>
<path id="Vector_107" d="M122.785 145.058C121.879 143.78 120.418 143.798 119.355 145.087C118.296 146.381 118.072 148.439 119.057 149.695C119.901 150.769 121.271 150.612 122.251 149.331C123.236 148.045 123.532 146.117 122.776 145.058L122.785 145.058Z" fill="white"/>
<path id="Vector_108" d="M126.448 153.139C126.218 152.115 125.207 152.323 124.297 153.619C123.386 154.915 122.956 156.809 123.228 157.848C123.494 158.891 124.316 158.657 125.19 157.352C126.064 156.046 126.683 154.169 126.453 153.144L126.448 153.139Z" fill="white"/>
<path id="Vector_109" d="M124.9 164.886C125.756 163.543 126.628 161.71 126.749 160.755C126.869 159.8 126.199 160.078 125.339 161.407C124.483 162.731 123.771 164.626 123.651 165.599C123.531 166.573 124.039 166.233 124.895 164.89L124.9 164.886Z" fill="white"/>
<path id="Vector_110" d="M122.822 171.735C123.725 170.347 124.759 168.576 125.053 167.725C125.343 166.87 124.81 167.242 123.94 168.607C123.065 169.977 122.169 171.842 121.847 172.72C121.529 173.594 121.924 173.128 122.827 171.74L122.822 171.735Z" fill="white"/>
<path id="Vector_111" d="M121.476 175.012C120.541 176.423 119.576 178.245 119.251 178.999C118.925 179.753 119.392 179.126 120.356 177.697C121.329 176.268 122.402 174.586 122.695 173.855C122.983 173.119 122.412 173.601 121.481 175.017L121.476 175.012Z" fill="white"/>
<path id="Vector_112" d="M118.907 182.641C119.94 181.18 120.916 179.53 121.031 178.944C121.146 178.359 120.379 178.968 119.378 180.415C118.372 181.867 117.483 183.607 117.34 184.21C117.202 184.809 117.873 184.102 118.907 182.641Z" fill="white"/>
<path id="Vector_113" d="M121.214 187.011C122.257 185.532 122.615 184.091 122.104 183.612C121.594 183.134 120.401 183.802 119.353 185.277C118.306 186.751 117.805 188.487 118.32 188.97C118.835 189.452 120.171 188.49 121.214 187.011Z" fill="white"/>
<path id="Vector_114" d="M131.559 188.803C132.509 187.36 131.637 185.967 130.012 185.871C128.386 185.776 126.399 186.724 125.403 188.195C124.406 189.665 124.824 191.099 126.524 191.177C128.224 191.255 130.614 190.242 131.564 188.799L131.559 188.803Z" fill="white"/>
<path id="Vector_115" d="M149.733 195.718C150.705 194.373 149.502 192.235 147.009 191.07C144.512 189.909 141.67 190.186 140.707 191.559C139.744 192.933 141.029 194.854 143.513 195.982C146.001 197.115 148.762 197.055 149.728 195.714L149.733 195.718Z" fill="white"/>
<path id="Vector_116" d="M170.79 208.722C171.785 207.371 170.373 204.709 167.562 202.851C164.751 200.992 161.604 200.636 160.623 201.973C159.643 203.309 161.187 205.844 163.988 207.711C166.789 209.579 169.8 210.067 170.795 208.717L170.79 208.722Z" fill="white"/>
<path id="Vector_117" d="M88.2311 45.9083C88.3533 45.4524 88.2732 44.9199 88.041 44.3622L85.3547 46.9747C86.8205 47.2438 87.972 46.8801 88.2311 45.9083Z" fill="white"/>
<path id="Vector_118" d="M96.8279 50.977C96.5629 52.3553 97.9463 54.4812 99.8412 55.7542C101.736 57.0272 103.354 56.984 103.531 55.6276C103.708 54.2711 102.436 52.1006 100.629 50.8056C98.8227 49.5106 97.0882 49.6032 96.8279 50.977Z" fill="white"/>
<path id="Vector_119" d="M109.715 61.02C109.627 62.3544 110.598 64.5164 111.456 65.942C112.313 67.3677 113.032 67.4696 113.079 66.1577C113.126 64.8458 112.507 62.6145 111.691 61.1571C110.871 59.7043 109.804 59.6855 109.715 61.02Z" fill="white"/>
<path id="Vector_120" d="M117.444 77.1829C117.546 75.8902 117.208 73.6858 116.702 72.2463C116.201 70.8116 115.759 70.6948 115.703 71.9881C115.647 73.2814 115.971 75.481 116.426 76.9152C116.881 78.3493 117.342 78.4664 117.444 77.1829Z" fill="white"/>
<path id="Vector_121" d="M118.866 83.0159C118.671 84.3073 118.653 86.5209 118.849 87.9701C119.045 89.4193 119.359 89.4327 119.647 88.1239C119.938 86.8199 120.034 84.7044 119.731 83.2677C119.428 81.8309 119.056 81.7197 118.866 83.0159Z" fill="white"/>
<path id="Vector_122" d="M120.278 98.434C120.783 97.0958 121.064 94.9273 120.958 93.5903C120.853 92.2532 120.479 92.2436 120.076 93.5647C119.673 94.8858 119.309 97.0439 119.317 98.3935C119.32 99.7477 119.778 99.7676 120.278 98.434Z" fill="white"/>
<path id="Vector_123" d="M120.438 103.917C119.818 105.268 119.259 107.451 119.267 108.81C119.275 110.169 119.927 110.173 120.645 108.81C121.362 107.447 121.796 105.248 121.7 103.902C121.595 102.556 121.068 102.567 120.448 103.918L120.438 103.917Z" fill="white"/>
<path id="Vector_124" d="M121.723 119.195C122.603 117.82 123.069 115.608 122.853 114.26C122.637 112.913 121.874 112.935 121.064 114.306C120.254 115.677 119.63 117.878 119.777 119.229C119.924 120.581 120.844 120.57 121.723 119.195Z" fill="white"/>
<path id="Vector_125" d="M125.324 124.595C124.876 123.253 123.85 123.286 122.915 124.66C121.98 126.034 121.467 128.227 121.901 129.564C122.33 130.896 123.55 130.875 124.499 129.506C125.448 128.137 125.766 125.941 125.319 124.6L125.324 124.595Z" fill="white"/>
<path id="Vector_126" d="M130.023 134.857C129.247 133.535 127.934 133.554 127 134.9C126.065 136.256 125.886 138.407 126.717 139.712C127.395 140.784 128.571 140.597 129.469 139.268C130.366 137.94 130.659 135.952 130.023 134.857Z" fill="white"/>
<path id="Vector_127" d="M133.239 143.136C133.01 142.093 132.045 142.293 131.171 143.598C130.293 144.908 129.835 146.811 130.051 147.84C130.267 148.869 131.08 148.635 131.972 147.339C132.86 146.047 133.474 144.174 133.244 143.131L133.239 143.136Z" fill="white"/>
<path id="Vector_128" d="M131.974 154.835C132.949 153.568 133.835 151.796 133.872 150.839C133.909 149.883 133.134 150.109 132.209 151.39C131.28 152.667 130.523 154.506 130.435 155.457C130.348 156.408 130.999 156.112 131.979 154.84L131.974 154.835Z" fill="white"/>
<path id="Vector_129" d="M133.021 157.825C133.182 156.968 132.415 157.249 131.366 158.506C130.313 159.767 129.326 161.52 129.087 162.372C128.853 163.219 129.519 162.844 130.647 161.593C131.774 160.341 132.861 158.683 133.021 157.825Z" fill="white"/>
<path id="Vector_130" d="M129.795 164.826C128.58 166.071 127.447 167.729 127.228 168.461C127.005 169.189 127.839 168.714 129.137 167.488C130.435 166.253 131.641 164.726 131.776 163.983C131.917 163.246 131.01 163.59 129.795 164.835L129.795 164.826Z" fill="white"/>
<path id="Vector_131" d="M126.064 173.548C126.009 174.139 127.13 173.641 128.594 172.436C130.063 171.235 131.262 169.777 131.234 169.166C131.211 168.561 130.04 168.979 128.65 170.195C127.259 171.41 126.109 172.957 126.054 173.548L126.064 173.548Z" fill="white"/>
<path id="Vector_132" d="M131.381 176.905C132.96 175.743 133.703 174.509 133.133 173.998C132.563 173.487 130.925 173.904 129.387 175.09C127.85 176.276 126.95 177.761 127.479 178.249C128.008 178.736 129.797 178.062 131.381 176.905Z" fill="white"/>
<path id="Vector_133" d="M141.349 179.182C142.922 178.107 142.552 176.891 141.011 176.714C139.465 176.532 137.057 177.151 135.465 178.272C133.873 179.392 133.703 180.559 135.277 180.696C136.847 180.827 139.781 180.261 141.349 179.182Z" fill="white"/>
<path id="Vector_134" d="M159.318 186.552C160.817 185.504 160.049 183.608 157.603 182.434C155.156 181.26 151.921 181.254 150.39 182.297C148.859 183.339 149.639 185.041 152.122 186.216C154.605 187.39 157.819 187.599 159.318 186.552Z" fill="white"/>
<path id="Vector_135" d="M180.158 199.228C181.579 198.101 180.533 195.693 177.772 193.923C175.006 192.149 171.547 191.641 170.089 192.721C168.632 193.802 169.758 196.086 172.556 197.912C175.353 199.738 178.732 200.36 180.153 199.233L180.158 199.228Z" fill="white"/>
<path id="Vector_136" d="M103.753 45.1532C103.666 43.7886 102.39 41.5764 100.816 40.2198C99.2408 38.8632 97.8721 38.9098 97.8473 40.3006C97.8177 41.6959 99.2418 43.8824 100.933 45.2082C102.623 46.5339 103.844 46.5132 103.753 45.1532Z" fill="white"/>
<path id="Vector_137" d="M112.255 56.0808C112.015 54.7743 111.202 52.5128 110.452 51.0008C109.703 49.4888 108.997 49.4193 109.19 50.7529C109.392 52.0866 110.497 54.292 111.275 55.7766C112.053 57.2613 112.486 57.3872 112.246 56.0807L112.255 56.0808Z" fill="white"/>
<path id="Vector_138" d="M114.993 62.0282C115.209 63.3206 115.833 65.5473 116.404 66.9875C116.975 68.4278 117.311 68.5386 117.158 67.2471C117.006 65.9557 116.354 63.7563 115.728 62.3153C115.102 60.8743 114.78 60.7406 114.993 62.0282Z" fill="white"/>
<path id="Vector_139" d="M119.339 73.0439C119.385 74.3386 119.755 76.5481 120.182 77.9726C120.61 79.3971 120.855 79.368 120.921 78.0564C120.986 76.7447 120.771 74.6759 120.228 73.2637C119.68 71.8468 119.293 71.7493 119.339 73.0439Z" fill="white"/>
<path id="Vector_140" d="M122.276 83.3708C122.086 84.6947 122.096 86.8439 122.331 88.1642C122.566 89.4845 123.029 89.4721 123.335 88.1267C123.645 86.7859 123.593 84.6407 123.243 83.3328C122.892 82.0248 122.471 82.0423 122.276 83.3708Z" fill="white"/>
<path id="Vector_141" d="M124.018 98.3589C124.239 99.6929 124.9 99.66 125.456 98.2902C126.008 96.9156 126.155 94.7408 125.827 93.4192C125.495 92.1023 124.894 92.1313 124.454 93.4888C124.014 94.8464 123.797 97.0249 124.018 98.3589Z" fill="white"/>
<path id="Vector_142" d="M126.676 103.709C126.014 105.091 125.667 107.296 125.971 108.64C126.275 109.985 127.177 109.946 127.923 108.555C128.669 107.165 128.923 104.959 128.535 103.623C128.148 102.287 127.339 102.327 126.676 103.709Z" fill="white"/>
<path id="Vector_143" d="M131.93 113.951C131.418 112.599 130.397 112.627 129.586 114.017C128.776 115.407 128.434 117.625 128.913 118.972C129.393 120.318 130.53 120.297 131.373 118.912C132.22 117.532 132.437 115.307 131.926 113.956L131.93 113.951Z" fill="white"/>
<path id="Vector_144" d="M136.084 128.999C136.917 127.661 137.168 125.621 136.566 124.439C135.874 123.071 134.663 123.064 133.812 124.43C132.969 125.796 132.821 128.008 133.546 129.354C134.158 130.489 135.246 130.333 136.075 128.999L136.084 128.999Z" fill="white"/>
<path id="Vector_145" d="M138.853 137.54C139.758 136.285 140.239 134.415 139.936 133.307C139.633 132.198 138.679 132.306 137.824 133.593C136.969 134.88 136.548 136.82 136.81 137.896C137.071 138.972 137.952 138.789 138.853 137.54Z" fill="white"/>
<path id="Vector_146" d="M141.495 141.475C141.376 140.462 140.519 140.566 139.54 141.782C138.561 142.999 137.846 144.815 137.887 145.795C137.928 146.775 138.777 146.569 139.844 145.387C140.905 144.199 141.614 142.489 141.495 141.475Z" fill="white"/>
<path id="Vector_147" d="M142.081 148.878C142.034 147.967 141.131 148.08 139.954 149.233C138.773 150.382 137.81 152.084 137.755 152.957C137.701 153.839 138.671 153.588 139.958 152.464C141.245 151.339 142.137 149.789 142.09 148.878L142.081 148.878Z" fill="white"/>
<path id="Vector_148" d="M142.549 155.447C142.459 154.651 141.385 154.775 139.964 155.865C138.543 156.956 137.397 158.517 137.368 159.283C137.343 160.046 138.549 159.747 140.085 158.691C141.625 157.63 142.63 156.243 142.54 155.447L142.549 155.447Z" fill="white"/>
<path id="Vector_149" d="M143.733 161.129C143.493 160.451 142.151 160.59 140.481 161.612C138.812 162.635 137.571 164.051 137.705 164.686C137.835 165.325 139.378 165.046 141.157 164.062C142.937 163.078 143.973 161.807 143.733 161.129Z" fill="white"/>
<path id="Vector_150" d="M145.116 169.022C147.084 168.12 147.755 167.103 147.042 166.501C146.33 165.9 144.554 165.988 142.659 166.938C140.769 167.883 139.664 169.204 140.303 169.758C140.942 170.312 143.143 169.921 145.116 169.022Z" fill="white"/>
<path id="Vector_151" d="M155.49 170.066C153.947 169.745 151.485 169.953 149.462 170.79C147.439 171.628 146.903 172.633 148.438 172.879C149.974 173.126 153.222 172.883 155.239 172.096C157.256 171.319 157.029 170.382 155.485 170.071L155.49 170.066Z" fill="white"/>
<path id="Vector_152" d="M172.376 179.455C174.254 178.648 173.602 177.087 171.271 175.965C168.944 174.839 165.782 174.543 163.839 175.321C161.896 176.099 162.235 177.573 164.626 178.728C167.017 179.883 170.492 180.257 172.371 179.45L172.376 179.455Z" fill="white"/>
<path id="Vector_153" d="M190.522 186.707C187.879 185.068 184.5 184.409 182.699 185.277C180.893 186.14 181.645 188.17 184.347 189.879C186.463 191.219 189.115 191.92 190.999 191.719L193.188 189.59C192.952 188.681 192.001 187.628 190.517 186.712L190.522 186.707Z" fill="white"/>
<path id="Vector_154" d="M100.387 34.7513C101.827 36.1384 102.727 36.2197 102.501 34.9365C102.351 34.0888 101.792 32.8566 101.055 31.7053L99.25 33.4606C99.6037 33.9275 99.9901 34.3717 100.387 34.7513Z" fill="white"/>
<path id="Vector_155" d="M107.052 40.7694C107.398 42.0265 108.471 44.2268 109.193 45.7662C109.915 47.3055 110.212 47.5082 109.833 46.2738C109.453 45.0394 108.533 42.818 107.83 41.2604C107.127 39.7028 106.7 39.5169 107.047 40.774L107.052 40.7694Z" fill="white"/>
<path id="Vector_156" d="M112.786 52.312C113.133 53.5413 113.965 55.7384 114.666 57.1804C115.366 58.6224 115.738 58.7614 115.46 57.5284C115.187 56.2907 114.303 54.153 113.529 52.7193C112.755 51.2855 112.439 51.0826 112.781 52.3165L112.786 52.312Z" fill="white"/>
<path id="Vector_157" d="M120.963 68.1481C120.921 66.8766 120.479 64.8926 119.662 63.5092C118.846 62.1257 118.339 61.9988 118.497 63.2487C118.654 64.4987 119.32 66.6658 120.007 68.0661C120.694 69.4663 121 69.4149 120.967 68.1435L120.963 68.1481Z" fill="white"/>
<path id="Vector_158" d="M123.328 73.3095C123.231 74.6069 123.537 76.7046 124.027 77.9959C124.512 79.2826 125.1 79.2488 125.331 77.9301C125.559 76.6067 125.242 74.5273 124.623 73.262C124.008 72.0014 123.43 72.0168 123.333 73.3142L123.328 73.3095Z" fill="white"/>
<path id="Vector_159" d="M129.384 87.8188C129.871 86.4526 129.796 84.3118 129.214 83.0285C128.631 81.7452 127.864 81.7904 127.497 83.1397C127.127 84.4843 127.188 86.6388 127.649 87.939C128.111 89.2392 128.898 89.185 129.384 87.8188Z" fill="white"/>
<path id="Vector_160" d="M133.416 97.9013C134.12 96.5057 134.217 94.3071 133.64 92.9915C133.067 91.6806 132.114 91.7326 131.503 93.1202C130.891 94.5079 130.767 96.7061 131.246 98.0343C131.731 99.3579 132.712 99.297 133.416 97.9013Z" fill="white"/>
<path id="Vector_161" d="M138.113 103.237C137.518 101.884 136.417 101.925 135.634 103.334C134.851 104.742 134.633 106.985 135.187 108.342C135.74 109.699 136.882 109.654 137.712 108.246C138.536 106.834 138.712 104.595 138.113 103.237Z" fill="white"/>
<path id="Vector_162" d="M140.191 113.853C139.357 115.256 139.213 117.537 139.858 118.923C140.436 120.165 141.501 120.077 142.32 118.715C143.144 117.349 143.416 115.162 142.853 113.861C142.244 112.466 141.029 112.445 140.191 113.853Z" fill="white"/>
<path id="Vector_163" d="M145.437 128.111C146.31 126.87 146.741 124.912 146.37 123.687C145.991 122.461 144.983 122.485 144.146 123.782C143.309 125.079 142.952 127.103 143.286 128.272C143.625 129.437 144.564 129.352 145.437 128.111Z" fill="white"/>
<path id="Vector_164" d="M148.832 132.69C148.557 131.573 147.545 131.582 146.604 132.762C145.667 133.937 145.095 135.788 145.292 136.853C145.498 137.919 146.456 137.835 147.471 136.711C148.485 135.588 149.107 133.807 148.823 132.69L148.832 132.69Z" fill="white"/>
<path id="Vector_165" d="M149.109 144.493C150.33 143.478 151.116 141.876 150.854 140.865C150.591 139.854 149.468 139.862 148.348 140.924C147.228 141.986 146.464 143.667 146.621 144.626C146.778 145.585 147.884 145.503 149.105 144.488L149.109 144.493Z" fill="white"/>
<path id="Vector_166" d="M150.025 148.276C148.684 149.234 147.766 150.737 147.971 151.586C148.176 152.434 149.522 152.355 150.972 151.445C152.423 150.545 153.34 149.115 153.021 148.214C152.706 147.309 151.361 147.314 150.02 148.272L150.025 148.276Z" fill="white"/>
<path id="Vector_167" d="M155.925 154.756C155.475 153.955 153.848 153.952 152.273 154.79C150.699 155.629 149.695 156.951 150.041 157.691C150.386 158.43 152.041 158.406 153.716 157.624C155.391 156.842 156.376 155.547 155.921 154.751L155.925 154.756Z" fill="white"/>
<path id="Vector_168" d="M158.923 163.475C160.762 162.825 161.48 161.771 160.631 161.039C159.787 160.302 157.745 160.219 155.969 160.935C154.193 161.651 153.289 162.85 154.069 163.521C154.85 164.193 157.078 164.13 158.923 163.484L158.923 163.475Z" fill="white"/>
<path id="Vector_169" d="M169.275 167.638C171.154 167.141 171.184 166.318 169.644 165.813C168.103 165.307 165.464 165.286 163.575 165.848C161.685 166.409 161.257 167.282 162.795 167.691C164.332 168.099 167.396 168.126 169.27 167.633L169.275 167.638Z" fill="white"/>
<path id="Vector_170" d="M185.535 174.574C187.29 174.015 186.862 172.636 184.649 171.609C182.432 170.576 179.229 170.247 177.415 170.764C175.6 171.281 175.911 172.472 178.183 173.552C180.455 174.631 183.78 175.142 185.531 174.578L185.535 174.574Z" fill="white"/>
<path id="Vector_171" d="M195.396 179.835C193.704 180.478 194.409 182.179 196.998 183.724C197.461 184.003 197.952 184.245 198.453 184.469L202.198 180.826C199.798 179.69 196.911 179.263 195.391 179.839L195.396 179.835Z" fill="white"/>
<path id="Vector_172" d="M104.096 31.3805C104.499 32.5644 105.447 34.7584 106.132 36.3343C106.816 37.9101 107.061 38.1907 106.63 37.0249C106.194 35.8637 105.236 33.6973 104.566 32.0985C103.901 30.5044 103.693 30.1966 104.096 31.3713L104.096 31.3805Z" fill="white"/>
<path id="Vector_173" d="M109.865 43.1084C110.259 44.2644 111.245 46.4034 112.107 47.8337C112.969 49.264 113.433 49.4412 113.113 48.2769C112.792 47.1126 111.736 45.0604 110.8 43.6384C109.864 42.2164 109.475 41.9478 109.869 43.1038L109.865 43.1084Z" fill="white"/>
<path id="Vector_174" d="M117.061 53.8939C117.261 55.0751 118.183 57.1578 119.148 58.5248C120.108 59.887 120.547 59.8328 120.472 58.6302C120.398 57.4275 119.759 55.5704 118.66 54.2248C117.566 52.8838 116.861 52.7219 117.061 53.8939Z" fill="white"/>
<path id="Vector_175" d="M123.922 63.5842C123.854 64.808 124.425 66.8214 125.193 68.061C125.956 69.2958 126.724 69.2691 126.927 68.0239C127.125 66.7741 126.576 64.7933 125.679 63.5798C124.781 62.3662 123.991 62.3603 123.922 63.5842Z" fill="white"/>
<path id="Vector_176" d="M130.886 77.6388C131.608 78.8962 132.56 78.8534 133.032 77.5563C133.504 76.2593 133.215 74.2173 132.373 72.9768C131.527 71.7408 130.542 71.7601 130.195 73.0356C129.849 74.3112 130.161 76.3767 130.882 77.6341L130.886 77.6388Z" fill="white"/>
<path id="Vector_177" d="M136.267 87.448C136.946 88.7465 138.051 88.7103 138.745 87.3793C139.439 86.0482 139.391 83.9355 138.615 82.6496C137.839 81.3637 136.702 81.3856 136.105 82.704C135.508 84.0225 135.588 86.1496 136.267 87.448Z" fill="white"/>
<path id="Vector_178" d="M144.278 92.7492C143.586 91.3997 142.37 91.3882 141.593 92.7366C140.815 94.0758 140.724 96.2699 141.365 97.6233C142.011 98.9722 143.189 98.974 144.018 97.6308C144.841 96.283 144.975 94.1033 144.283 92.7539L144.278 92.7492Z" fill="white"/>
<path id="Vector_179" d="M148.644 108.438C149.476 107.136 149.763 104.88 149.216 103.445C148.673 102.023 147.44 101.928 146.602 103.271C145.765 104.614 145.635 106.873 146.201 108.28C146.759 109.651 147.812 109.739 148.644 108.438Z" fill="white"/>
<path id="Vector_180" d="M152.232 118.842C153.132 117.676 153.493 115.675 153.023 114.319C152.553 112.963 151.46 112.824 150.61 114.051C149.756 115.283 149.429 117.368 149.859 118.663C150.284 119.953 151.332 120.009 152.232 118.842Z" fill="white"/>
<path id="Vector_181" d="M156.563 124.243C156.104 123.012 154.933 122.867 153.96 123.977C152.982 125.082 152.507 126.976 152.878 128.154C153.249 129.333 154.394 129.395 155.458 128.341C156.523 127.288 157.016 125.478 156.558 124.247L156.563 124.243Z" fill="white"/>
<path id="Vector_182" d="M160.165 133.284C159.678 132.164 158.331 132.017 157.156 133.013C155.986 134.005 155.342 135.716 155.724 136.784C156.106 137.852 157.445 137.916 158.73 136.976C160.015 136.037 160.653 134.405 160.17 133.28L160.165 133.284Z" fill="white"/>
<path id="Vector_183" d="M164.183 141.513C163.62 140.494 162.023 140.343 160.609 141.226C159.196 142.108 158.407 143.641 158.85 144.604C159.298 145.571 160.906 145.648 162.434 144.818C163.962 143.988 164.736 142.533 164.173 141.513L164.183 141.513Z" fill="white"/>
<path id="Vector_184" d="M164.717 148.656C163.056 149.415 162.158 150.771 162.727 151.639C163.297 152.506 165.213 152.656 166.989 151.959C168.76 151.256 169.63 149.919 168.95 148.994C168.265 148.066 166.382 147.902 164.721 148.661L164.717 148.656Z" fill="white"/>
<path id="Vector_185" d="M173.572 158.84C175.53 158.274 176.217 157.151 175.213 156.269C174.209 155.387 171.948 155.135 170.062 155.766C168.181 156.402 167.322 157.629 168.249 158.441C169.175 159.253 171.609 159.401 173.567 158.835L173.572 158.84Z" fill="white"/>
<path id="Vector_186" d="M184.239 164.209C186.242 163.801 186.493 163.046 184.936 162.346C183.375 161.651 180.601 161.415 178.593 161.892C176.585 162.369 176.077 163.301 177.625 163.908C179.174 164.516 182.232 164.612 184.239 164.209Z" fill="white"/>
<path id="Vector_187" d="M199.514 170.6C201.383 170.121 201.142 168.916 199.057 167.983C196.972 167.058 193.793 166.725 191.859 167.157C189.926 167.589 190.021 168.644 192.175 169.62C194.319 170.596 197.644 171.079 199.514 170.6Z" fill="white"/>
<path id="Vector_188" d="M106.975 34.6216C107.311 35.6705 108.367 37.7227 109.391 39.1413C110.41 40.5552 111.063 40.795 110.801 39.747C110.534 38.6943 109.384 36.7611 108.295 35.3509C107.197 33.9405 106.643 33.5773 106.979 34.6263L106.975 34.6216Z" fill="white"/>
<path id="Vector_189" d="M120.051 49.8018C120.03 48.7108 119.273 47.0046 117.896 45.7015C116.52 44.3984 115.539 44.1682 115.68 45.233C115.822 46.2979 116.935 48.2769 118.177 49.6013C119.42 50.9258 120.063 50.8927 120.051 49.8018Z" fill="white"/>
<path id="Vector_190" d="M128.613 58.8122C128.866 57.674 128.153 55.8344 126.977 54.6726C125.802 53.5108 124.726 53.4457 124.599 54.5624C124.476 55.6746 125.248 57.5659 126.294 58.7537C127.335 59.9368 128.361 59.9504 128.613 58.8122Z" fill="white"/>
<path id="Vector_191" d="M136.809 67.9795C137.33 66.7894 136.9 64.8842 135.789 63.6956C134.679 62.5069 133.418 62.4671 133.017 63.631C132.617 64.795 133.125 66.7428 134.114 67.9576C135.1 69.1677 136.288 69.1696 136.813 67.9842L136.809 67.9795Z" fill="white"/>
<path id="Vector_192" d="M140.854 72.9646C140.203 74.1714 140.437 76.1942 141.325 77.4631C142.212 78.732 143.488 78.7489 144.236 77.5295C144.979 76.3054 144.841 74.3162 143.857 73.0599C142.877 71.8083 141.5 71.7623 140.849 72.9691L140.854 72.9646Z" fill="white"/>
<path id="Vector_193" d="M150.494 87.6693C151.362 86.433 151.494 84.3458 150.71 83.0043C149.916 81.6627 148.544 81.566 147.718 82.7982C146.891 84.0305 146.874 86.1331 147.617 87.4786C148.36 88.8242 149.626 88.9057 150.494 87.6693Z" fill="white"/>
<path id="Vector_194" d="M155.854 93.7718C155.362 92.328 154.09 92.1169 153.198 93.3483C152.312 94.5844 152.15 96.7822 152.67 98.2079C153.212 99.7126 154.308 99.9952 155.185 98.8052C156.067 97.6106 156.391 95.3365 155.854 93.7718Z" fill="white"/>
<path id="Vector_195" d="M159.999 105.64C159.428 104.172 158.241 103.833 157.337 104.967C156.438 106.096 156.139 108.209 156.664 109.63C157.184 111.047 158.373 111.275 159.322 110.197C160.267 109.124 160.573 107.113 160.008 105.64L159.999 105.64Z" fill="white"/>
<path id="Vector_196" d="M164.644 116.428C164.007 115.089 162.658 114.78 161.631 115.797C160.604 116.814 160.229 118.736 160.784 120.019C161.338 121.311 162.689 121.528 163.798 120.558C164.908 119.589 165.286 117.763 164.639 116.424L164.644 116.428Z" fill="white"/>
<path id="Vector_197" d="M169.876 126.282C169.154 125.052 167.587 124.763 166.363 125.681C165.143 126.594 164.647 128.334 165.253 129.511C165.865 130.693 167.447 130.904 168.781 130.034C170.111 129.169 170.593 127.507 169.876 126.282Z" fill="white"/>
<path id="Vector_198" d="M175.781 135.317C174.965 134.188 173.134 133.9 171.671 134.713C170.208 135.525 169.58 137.093 170.276 138.174C170.972 139.256 172.832 139.479 174.414 138.714C175.997 137.95 176.596 136.446 175.781 135.317Z" fill="white"/>
<path id="Vector_199" d="M180.832 146.786C182.653 146.135 183.367 144.74 182.448 143.683C181.526 142.631 179.413 142.326 177.702 143.033C175.991 143.741 175.24 145.145 176.049 146.135C176.862 147.131 179.011 147.427 180.832 146.777L180.832 146.786Z" fill="white"/>
<path id="Vector_200" d="M190.311 151.908C189.142 150.885 186.694 150.506 184.758 151.095C182.822 151.684 182.064 152.977 183.159 153.934C184.254 154.892 186.847 155.203 188.856 154.68C190.865 154.157 191.479 152.931 190.306 151.912L190.311 151.908Z" fill="white"/>
<path id="Vector_201" d="M199.899 161.232C201.957 160.853 202.365 160.119 200.783 159.234C199.202 158.348 196.347 157.964 194.283 158.403C192.22 158.843 191.711 159.885 193.284 160.687C194.853 161.484 197.842 161.612 199.899 161.232Z" fill="white"/>
<path id="Vector_202" d="M214.114 167.106C216.034 166.669 215.929 165.586 213.986 164.761C212.039 163.931 208.942 163.636 206.962 164.03C204.974 164.424 204.909 165.38 206.921 166.257C208.928 167.129 212.199 167.547 214.118 167.11L214.114 167.106Z" fill="white"/>
<path id="Vector_203" d="M109.334 32.2081C109.232 31.3055 108.084 29.5155 106.833 28.117C106.442 27.6774 106.096 27.3308 105.808 27.082L105.143 27.7295C105.526 28.7328 106.377 30.2277 107.336 31.3727C108.513 32.7795 109.432 33.106 109.33 32.2034L109.334 32.2081Z" fill="white"/>
<path id="Vector_204" d="M115.121 37.5767C115.113 38.4963 116.32 40.3287 117.84 41.6106C119.361 42.8925 120.289 42.9187 120.419 41.9822C120.548 41.0457 119.757 39.5193 118.106 38.2542C116.456 36.989 115.13 36.6571 115.121 37.5767Z" fill="white"/>
<path id="Vector_205" d="M126.037 46.5398C125.774 47.5069 126.668 49.2426 127.987 50.374C129.302 51.5099 130.646 51.597 131.034 50.6085C131.423 49.6201 130.62 47.9502 129.176 46.8403C127.731 45.7304 126.305 45.5775 126.037 46.5398Z" fill="white"/>
<path id="Vector_206" d="M136.532 55.2201C136.004 56.2345 136.643 58.0269 137.888 59.1942C139.133 60.3616 140.606 60.4412 141.254 59.41C141.898 58.374 141.387 56.6295 140.022 55.4883C138.661 54.3425 137.059 54.2057 136.532 55.2201Z" fill="white"/>
<path id="Vector_207" d="M146.25 64.2366C145.486 65.2894 145.814 67.1655 146.901 68.4047C147.983 69.6392 149.483 69.7562 150.34 68.6861C151.197 67.616 151.02 65.7742 149.845 64.557C148.666 63.3351 147.014 63.1837 146.25 64.2366Z" fill="white"/>
<path id="Vector_208" d="M157.547 78.7323C158.52 77.6499 158.696 75.7019 157.814 74.3637C156.932 73.0256 155.364 72.8107 154.433 73.889C153.503 74.9674 153.515 76.941 154.356 78.2832C155.196 79.6254 156.575 79.824 157.547 78.7415L157.547 78.7323Z" fill="white"/>
<path id="Vector_209" d="M159.588 89.0842C160.114 90.7226 161.276 91.2141 162.239 90.1685C163.201 89.1229 163.603 86.9006 163.096 85.207C162.656 83.7314 161.316 83.3763 160.344 84.4494C159.367 85.5272 159.128 87.6269 159.592 89.0796L159.588 89.0842Z" fill="white"/>
<path id="Vector_210" d="M164.541 96.785C163.565 97.7795 163.267 99.8831 163.887 101.412C164.507 102.941 165.842 103.347 166.858 102.394C167.875 101.442 168.149 99.4626 167.492 97.8964C166.836 96.3302 165.521 95.7951 164.546 96.7897L164.541 96.785Z" fill="white"/>
<path id="Vector_211" d="M173.144 109.382C172.333 107.957 170.814 107.484 169.724 108.389C168.634 109.295 168.343 111.209 169.076 112.6C169.809 113.992 171.362 114.359 172.52 113.487C173.679 112.615 173.951 110.803 173.139 109.378L173.144 109.382Z" fill="white"/>
<path id="Vector_212" d="M179.911 119.866C178.968 118.56 177.19 118.129 175.921 118.963C174.657 119.792 174.298 121.543 175.14 122.812C175.985 124.085 177.792 124.432 179.163 123.637C180.533 122.842 180.853 121.173 179.906 119.862L179.911 119.866Z" fill="white"/>
<path id="Vector_213" d="M183.027 128.689C181.537 129.446 181.079 131.048 182.023 132.225C182.968 133.402 185.051 133.753 186.652 133.035C188.252 132.317 188.672 130.77 187.617 129.554C186.563 128.338 184.512 127.937 183.022 128.693L183.027 128.689Z" fill="white"/>
<path id="Vector_214" d="M194.889 141.88C196.719 141.248 197.244 139.78 196.1 138.633C194.953 137.481 192.647 137.08 190.923 137.755C189.199 138.43 188.627 139.888 189.67 140.997C190.712 142.106 193.058 142.512 194.889 141.88Z" fill="white"/>
<path id="Vector_215" d="M204.296 150.633C206.296 150.1 206.782 148.753 205.463 147.621C204.144 146.481 201.567 146.026 199.636 146.61C197.705 147.195 197.093 148.573 198.339 149.657C199.59 150.746 202.292 151.17 204.291 150.638L204.296 150.633Z" fill="white"/>
<path id="Vector_216" d="M215.666 158.262C217.7 157.859 218.197 157.066 216.604 156.019C215.011 154.972 212.148 154.486 210.103 154.953C208.063 155.416 207.602 156.602 209.196 157.575C210.786 158.553 213.635 158.669 215.67 158.267L215.666 158.262Z" fill="white"/>
<path id="Vector_217" d="M222.198 160.983C220.669 161.296 220.225 161.918 220.988 162.552L222.68 160.906C222.518 160.927 222.356 160.948 222.203 160.979L222.198 160.983Z" fill="white"/>
<path id="Vector_218" d="M109.504 25.948C109.593 25.5517 109.316 24.8917 108.823 24.1503L107.459 25.4771C108.495 26.3366 109.37 26.5424 109.499 25.9525L109.504 25.948Z" fill="white"/>
<path id="Vector_219" d="M118.863 34.8488C120.647 36.0926 121.917 36.2066 122.288 35.4628C122.659 34.7098 121.925 33.4013 120.025 32.1791C118.129 30.9523 116.389 30.4855 116.124 31.2168C115.859 31.9481 117.078 33.6142 118.863 34.8581L118.863 34.8488Z" fill="white"/>
<path id="Vector_220" d="M128.903 39.8256C128.407 40.6001 129.345 42.147 130.924 43.2355C132.503 44.3241 134.215 44.5178 134.822 43.7171C135.435 42.9211 134.62 41.4544 132.925 40.3874C131.235 39.3251 129.395 39.0465 128.908 39.8211L128.903 39.8256Z" fill="white"/>
<path id="Vector_221" d="M141.344 48.1435C140.611 48.9657 141.3 50.5739 142.79 51.6937C144.28 52.8134 146.089 53.0131 146.933 52.1739C147.777 51.3347 147.254 49.7934 145.658 48.6861C144.061 47.5788 142.082 47.3168 141.349 48.1389L141.344 48.1435Z" fill="white"/>
<path id="Vector_222" d="M153.485 60.6168C154.756 61.8215 156.514 62.0713 157.539 61.2022C158.568 60.3285 158.421 58.6766 157.07 57.4847C155.72 56.2929 153.746 55.9986 152.795 56.8503C151.844 57.7111 152.208 59.4075 153.48 60.6121L153.485 60.6168Z" fill="white"/>
<path id="Vector_223" d="M165.547 71.1619C166.669 70.2802 166.949 68.4954 166.002 67.1656C165.051 65.8312 163.259 65.4515 162.169 66.329C161.079 67.2065 161.062 69.018 161.986 70.3521C162.905 71.6907 164.429 72.0391 165.551 71.1574L165.547 71.1619Z" fill="white"/>
<path id="Vector_224" d="M170.095 82.8551C171.185 82.0053 171.701 79.9 171.26 78.1148C170.889 76.6079 169.473 76.0622 168.361 76.9348C167.248 77.8074 166.873 79.7666 167.281 81.2556C167.759 83.0043 169.011 83.7095 170.1 82.8598L170.095 82.8551Z" fill="white"/>
<path id="Vector_225" d="M175.003 95.6483C176.114 94.8496 176.396 92.9539 175.68 91.3268C174.964 89.6997 173.533 88.969 172.454 89.7911C171.369 90.6086 171.03 92.6515 171.723 94.2645C172.416 95.8681 173.9 96.4563 175.007 95.653L175.003 95.6483Z" fill="white"/>
<path id="Vector_226" d="M177.833 106.006C178.727 107.46 180.467 107.973 181.68 107.213C182.902 106.452 183.084 104.699 182.13 103.221C181.172 101.748 179.49 101.124 178.337 101.899C177.179 102.679 176.944 104.548 177.833 106.006Z" fill="white"/>
<path id="Vector_227" d="M185.331 116.717C186.384 118.053 188.393 118.514 189.78 117.784C191.173 117.058 191.349 115.41 190.214 114.055C189.073 112.704 187.117 112.165 185.816 112.911C184.512 113.651 184.279 115.381 185.331 116.717Z" fill="white"/>
<path id="Vector_228" d="M198.936 127.62C200.527 126.929 200.763 125.361 199.496 124.096C198.23 122.832 196.013 122.354 194.515 123.064C193.016 123.775 192.734 125.389 193.908 126.633C195.083 127.878 197.35 128.315 198.941 127.625L198.936 127.62Z" fill="white"/>
<path id="Vector_229" d="M208.797 136.999C210.581 136.357 210.918 134.827 209.572 133.612C208.226 132.397 205.783 131.949 204.087 132.615C202.39 133.281 202.007 134.801 203.266 135.992C204.524 137.182 207.013 137.65 208.797 137.008L208.797 136.999Z" fill="white"/>
<path id="Vector_230" d="M219.407 146.351C221.329 145.766 221.669 144.296 220.226 143.076C218.788 141.86 216.142 141.381 214.275 142.003C212.404 142.621 211.962 144.089 213.349 145.272C214.737 146.455 217.48 146.94 219.407 146.351Z" fill="white"/>
<path id="Vector_231" d="M225.484 151.127C223.535 151.665 223.169 153.005 224.757 154.131C225.759 154.842 227.196 155.138 228.606 155.143L231.658 152.175C230.061 151.068 227.378 150.607 225.484 151.127Z" fill="white"/>
<path id="Vector_232" d="M112.264 20.8037L111.617 21.4329C111.82 21.4264 111.997 21.3733 112.109 21.2638C112.227 21.1499 112.275 20.9934 112.264 20.8037Z" fill="white"/>
<path id="Vector_233" d="M126.371 30.5441C127.077 30.0219 126.501 28.9513 124.378 27.7631C122.26 26.5703 120.055 25.9356 119.443 26.4404C118.83 26.9453 119.955 28.4115 121.975 29.6168C123.996 30.8222 125.661 31.0707 126.371 30.5441Z" fill="white"/>
<path id="Vector_234" d="M140.602 38.4605C141.511 37.8948 140.781 36.665 138.873 35.6414C136.96 34.6223 134.679 34.1807 133.867 34.7245C133.055 35.2683 133.941 36.6019 135.756 37.6428C137.572 38.6836 139.697 39.0215 140.607 38.4559L140.602 38.4605Z" fill="white"/>
<path id="Vector_235" d="M148.037 42.7095C147.021 43.2968 147.68 44.6874 149.393 45.7732C151.101 46.8542 153.277 47.2066 154.386 46.6021C155.495 45.9975 155.047 44.6836 153.246 43.6198C151.445 42.556 149.048 42.1267 148.032 42.714L148.037 42.7095Z" fill="white"/>
<path id="Vector_236" d="M161.561 54.4386C162.99 55.6176 165.031 56.0376 166.298 55.4074C167.559 54.7817 167.52 53.3439 166.026 52.1732C164.531 51.0026 162.209 50.5281 161.012 51.1453C159.815 51.7626 160.136 53.255 161.565 54.4341L161.561 54.4386Z" fill="white"/>
<path id="Vector_237" d="M171.345 60.4843C170.037 61.1186 169.93 62.7348 170.905 64.0649C171.879 65.395 173.567 65.9489 174.889 65.3102C176.206 64.676 176.659 63.0968 175.671 61.7619C174.683 60.427 172.648 59.8454 171.34 60.4797L171.345 60.4843Z" fill="white"/>
<path id="Vector_238" d="M179.056 77.1923C180.308 76.5758 181.011 74.681 180.681 72.8418C180.404 71.2899 178.908 70.5213 177.61 71.1465C176.311 71.7716 175.745 73.5435 176.069 75.0775C176.454 76.899 177.804 77.8089 179.056 77.1923Z" fill="white"/>
<path id="Vector_239" d="M181.288 84.2516C180.068 84.8639 179.633 86.7808 180.363 88.4219C181.092 90.063 182.713 90.8102 183.933 90.1886C185.153 89.567 185.502 87.8246 184.767 86.1881C184.038 84.5562 182.503 83.6345 181.288 84.2516Z" fill="white"/>
<path id="Vector_240" d="M187.557 96.4944C186.314 97.1203 186.094 98.8921 187.103 100.371C188.112 101.849 190.017 102.475 191.297 101.841C192.577 101.206 192.721 99.5532 191.67 98.0881C190.619 96.6229 188.8 95.8685 187.557 96.4944Z" fill="white"/>
<path id="Vector_241" d="M200.539 112.459C201.944 111.803 201.999 110.209 200.711 108.866C199.423 107.522 197.329 106.917 195.988 107.564C194.648 108.212 194.517 109.879 195.745 111.235C196.969 112.587 199.138 113.12 200.539 112.459Z" fill="white"/>
<path id="Vector_242" d="M205.975 117.768C204.491 118.437 204.366 120.034 205.734 121.309C207.098 122.58 209.494 123.046 211.048 122.373C212.601 121.692 212.666 120.135 211.233 118.868C209.795 117.606 207.464 117.103 205.98 117.772L205.975 117.768Z" fill="white"/>
<path id="Vector_243" d="M222.21 131.89C223.911 131.201 224.045 129.622 222.547 128.4C221.053 127.174 218.541 126.739 216.909 127.424C215.276 128.11 215.088 129.66 216.521 130.89C217.954 132.12 220.517 132.579 222.214 131.895L222.21 131.89Z" fill="white"/>
<path id="Vector_244" d="M233.694 141.475C235.479 140.787 235.655 139.195 234.138 137.955C232.622 136.714 229.998 136.287 228.246 136.98C226.493 137.673 226.23 139.222 227.719 140.462C229.208 141.702 231.909 142.163 233.694 141.475Z" fill="white"/>
<path id="Vector_245" d="M117.941 18.4435C118.864 18.2293 118.495 17.203 117.238 15.9662L115.311 17.8401C116.344 18.3483 117.343 18.5881 117.941 18.4435Z" fill="white"/>
<path id="Vector_246" d="M125.835 23.5398C124.773 23.7798 125.703 25.0169 127.918 26.1971C130.138 27.3728 132.249 27.7798 133.385 27.5222C134.521 27.2646 134.209 26.4656 131.91 25.3027C129.607 24.1352 126.902 23.2951 125.835 23.5398Z" fill="white"/>
<path id="Vector_247" d="M147.666 32.902C145.578 31.9175 142.809 31.2846 141.59 31.5596C140.375 31.83 141.112 32.9258 143.117 33.9277C145.127 34.9249 147.713 35.4445 149.002 35.1566C150.295 34.8641 149.75 33.8909 147.662 32.9065L147.666 32.902Z" fill="white"/>
<path id="Vector_248" d="M157.196 39.2493C155.819 39.5592 156.362 40.7079 158.255 41.7545C160.149 42.801 162.72 43.3435 164.167 43.0207C165.613 42.6979 165.338 41.6452 163.374 40.6116C161.411 39.578 158.569 38.944 157.192 39.2539L157.196 39.2493Z" fill="white"/>
<path id="Vector_249" d="M171.391 47.4472C169.875 47.7829 170.074 49.0288 171.624 50.191C173.174 51.3531 175.526 51.9805 177.08 51.6361C178.633 51.2916 178.784 50.115 177.192 48.957C175.596 47.8035 172.903 47.1068 171.391 47.4472Z" fill="white"/>
<path id="Vector_250" d="M187.245 58.5048C186.261 57.1653 183.967 56.3353 182.395 56.6795C180.819 57.0283 180.544 58.4158 181.533 59.7507C182.521 61.0856 184.39 61.8731 185.962 61.5288C187.534 61.1846 188.228 59.8443 187.245 58.4955L187.245 58.5048Z" fill="white"/>
<path id="Vector_251" d="M191.666 69.7572C191.532 68.1656 189.939 67.1184 188.418 67.4495C186.893 67.7758 186.066 69.3362 186.269 70.9149C186.511 72.7483 187.946 73.8488 189.398 73.5122C190.849 73.1756 191.82 71.5571 191.666 69.7572Z" fill="white"/>
<path id="Vector_252" d="M194.953 82.7138C194.269 81.138 192.658 80.0628 191.275 80.4327C189.892 80.8025 189.295 82.5139 190.006 84.127C190.717 85.7402 192.447 86.6274 193.802 86.2202C195.153 85.8084 195.633 84.2942 194.953 82.7138Z" fill="white"/>
<path id="Vector_253" d="M197.476 92.3234C196.134 92.7816 195.879 94.3865 196.954 95.8289C198.033 97.2667 200.051 97.9729 201.399 97.4732C202.746 96.9734 202.902 95.5012 201.818 94.1049C200.733 92.7086 198.818 91.8744 197.476 92.3234Z" fill="white"/>
<path id="Vector_254" d="M211.336 107.653C212.74 107.061 212.715 105.582 211.347 104.316C209.974 103.045 207.793 102.416 206.421 102.966C205.05 103.516 204.981 105.068 206.325 106.385C207.665 107.696 209.936 108.249 211.34 107.657L211.336 107.653Z" fill="white"/>
<path id="Vector_255" d="M222.743 117.14C224.232 116.457 224.147 114.945 222.607 113.746C221.072 112.552 218.684 112.085 217.238 112.727C215.791 113.369 215.801 114.908 217.299 116.148C218.802 117.383 221.254 117.823 222.743 117.14Z" fill="white"/>
<path id="Vector_256" d="M234.769 126.326C236.333 125.561 236.287 123.966 234.7 122.794C233.114 121.622 230.618 121.279 229.083 122.008C227.556 122.736 227.547 124.293 229.097 125.502C230.65 126.706 233.205 127.091 234.769 126.326Z" fill="white"/>
<path id="Vector_257" d="M246.673 135.649C248.257 134.81 248.268 133.114 246.737 131.915C245.202 130.712 242.696 130.433 241.113 131.235C239.525 132.041 239.451 133.662 240.991 134.889C242.526 136.12 245.09 136.478 246.678 135.644L246.673 135.649Z" fill="white"/>
<path id="Vector_258" d="M122.244 12.7374C120.687 12.7029 120.522 13.8931 122.064 15.2816C123.606 16.6701 126.257 17.7359 127.805 17.7703C129.736 17.8145 129.859 16.6561 128.317 15.2676C126.775 13.8791 124.166 12.7814 122.239 12.742L122.244 12.7374Z" fill="white"/>
<path id="Vector_259" d="M136.05 22.825C134.466 22.7901 135.052 23.75 137.425 24.9046C139.798 26.0591 142.409 26.6808 144.045 26.7117C145.967 26.7465 146.153 26.0372 143.762 24.8824C141.371 23.7276 137.977 22.8645 136.05 22.825Z" fill="white"/>
<path id="Vector_260" d="M153.696 32.3674C155.859 33.3343 158.922 34.0729 160.682 34.0916C162.586 34.1169 162.344 33.2679 160.168 32.3055C157.991 31.343 154.687 30.6474 152.774 30.6128C151.078 30.5856 151.543 31.4006 153.701 32.3628L153.696 32.3674Z" fill="white"/>
<path id="Vector_261" d="M169.952 39.9456C170.851 40.4012 171.945 40.7947 173.036 41.1004L170.117 38.0991C169.868 38.0773 169.628 38.0649 169.415 38.062C167.604 38.0472 167.928 38.925 169.952 39.9456Z" fill="white"/>
<path id="Vector_262" d="M198.678 67.4655C198.375 67.9422 198.21 68.513 198.219 69.1325C198.249 70.8799 199.742 72.1707 201.425 72.156C201.965 72.1493 202.462 72.0219 202.908 71.8152L198.678 67.4655Z" fill="white"/>
<path id="Vector_263" d="M206.908 80.9269C206.337 79.4958 204.503 78.4917 202.643 78.6241C201.075 78.7281 200.223 80.131 200.843 81.6413C201.464 83.1515 203.279 84.1462 204.775 83.9673C206.594 83.7465 207.479 82.3579 206.908 80.9269Z" fill="white"/>
<path id="Vector_264" d="M212.03 94.2128C213.765 93.7922 214.228 92.4211 213.188 91.1733C212.148 89.9255 209.972 89.2172 208.197 89.5495C206.751 89.8168 206.38 91.1799 207.452 92.5067C208.523 93.8335 210.611 94.5545 212.03 94.2128Z" fill="white"/>
<path id="Vector_265" d="M222.079 103.345C223.705 102.747 223.892 101.354 222.531 100.236C221.165 99.113 218.741 98.6371 217.065 99.1556C215.673 99.5807 215.606 100.976 216.994 102.168C218.381 103.37 220.694 103.853 222.079 103.345Z" fill="white"/>
<path id="Vector_266" d="M233.815 111.81C235.347 111.059 235.359 109.589 233.817 108.538C232.274 107.487 229.728 107.194 228.151 107.881C226.774 108.472 226.864 109.934 228.428 111.055C229.988 112.18 232.438 112.485 233.815 111.81Z" fill="white"/>
<path id="Vector_267" d="M246.11 120.052C247.565 119.147 247.491 117.552 245.907 116.514C244.323 115.476 241.806 115.336 240.315 116.167C238.931 116.939 239.07 118.489 240.672 119.592C242.278 120.699 244.729 120.903 246.105 120.048L246.11 120.052Z" fill="white"/>
<path id="Vector_268" d="M253.61 123.946C253.187 124.065 252.797 124.236 252.46 124.472C251.102 125.42 251.198 127.094 252.711 128.237C253.447 128.797 254.38 129.119 255.29 129.182L257.043 127.477L253.605 123.942L253.61 123.946Z" fill="white"/>
<path id="Vector_269" d="M133.045 5.05639C134.422 4.81123 135.301 3.80151 135.541 2.5476L133.35 0.295493L129.652 3.89287C130.447 4.80466 131.785 5.27997 133.045 5.05639Z" fill="white"/>
<path id="Vector_270" d="M142.474 16.4954C144.328 16.1596 144.339 14.764 142.797 13.3755C141.255 11.987 138.757 11.1358 136.899 11.467C135.046 11.8029 134.536 13.2011 136.078 14.5895C137.62 15.978 140.62 16.8313 142.474 16.4954Z" fill="white"/>
<path id="Vector_271" d="M150.618 21.5673C148.783 21.9034 149.057 23.0671 151.42 24.2216C153.554 25.262 156.099 25.7118 157.909 25.5463L154.216 21.7491C152.856 21.4769 151.554 21.3949 150.618 21.5673Z" fill="white"/>
</g>
<defs>
<clipPath id="clip0_56_1270">
<rect width="185.67" height="177.418" fill="white" transform="translate(0.249023 129.746) rotate(-44.2034)"/>
</clipPath>
</defs>
</svg>
