<svg width="131" height="125" viewBox="0 0 131 125" fill="none" xmlns="http://www.w3.org/2000/svg">
<g id="Isolation_Mode" clip-path="url(#clip0_56_1931)">
<path id="Vector" d="M17.6192 63.8854C17.6279 63.812 17.6534 63.7483 17.6687 63.6731L17.6634 63.6532C17.8602 63.1171 18.1387 62.5946 18.4959 62.1009C19.212 61.12 20.2672 60.2402 21.6494 59.5215C22.5292 59.0725 23.5429 58.673 24.6843 58.3529C31.8986 56.3417 42.1664 57.8908 50.1345 61.7906C52.0691 62.7365 53.8565 63.8213 55.4367 65.0328C55.5343 65.1061 55.632 65.1795 55.7315 65.2594C56.5859 65.9332 57.3507 66.6168 58.0074 67.2938L57.7813 67.4824C57.5943 67.632 57.381 67.7886 57.1694 67.952C57.1085 67.9896 57.0561 68.0321 57.0054 68.0812C56.2127 68.6703 55.7231 69.6758 55.586 71.0702C55.5614 71.3753 55.5487 71.6986 55.5498 72.0466C55.5485 72.0683 55.5538 72.0882 55.5441 72.105C55.5561 72.4145 55.5783 72.7356 55.6076 73.0831C55.6645 73.5868 55.7502 74.1182 55.8597 74.686C56.1334 75.9987 56.5702 77.417 57.1523 78.8746C57.7925 80.5227 58.5984 82.2331 59.5593 83.9659C60.1375 85.0122 60.7626 86.0744 61.4275 87.126C64.1716 91.4375 67.6272 95.6507 71.2282 98.9507C72.0068 99.659 72.7945 100.322 73.5764 100.937C73.7753 101.097 73.9743 101.257 74.1678 101.397C75.5791 102.455 76.8946 103.261 78.0914 103.836C79.8227 104.659 81.3095 104.992 82.4821 104.842C82.8784 104.785 83.234 104.683 83.5538 104.526L83.5803 104.519C83.8527 104.318 84.1119 104.121 84.3729 103.93C84.3337 103.969 84.2945 104.008 84.2487 104.048C84.2143 104.079 84.1799 104.11 84.1437 104.133L84.2504 104.055C84.7345 103.691 85.2053 103.33 85.6479 102.97L85.9186 102.762C85.9186 102.762 85.9252 102.76 85.9234 102.754L85.9499 102.747C86.835 102.026 87.9779 101.023 88.8692 100.273C88.7299 100.388 88.5702 100.481 88.3933 100.535C88.1158 100.638 87.7857 100.677 87.4065 100.665C86.3651 100.617 84.9499 100.1 83.2373 99.1092C82.0302 98.4162 80.6827 97.4907 79.1967 96.3393C79.1092 96.2774 79.0313 96.1988 78.9421 96.1303C77.9966 95.3814 77.0417 94.571 76.0894 93.7173C72.9704 90.8924 69.8407 87.5514 67.1092 84.1606C66.2665 83.107 65.4502 82.0462 64.6923 80.9912C63.3879 79.194 62.2306 77.4428 61.2725 75.7732C60.4804 74.379 59.8094 73.0661 59.328 71.8517C59.1214 71.3455 58.9604 70.8769 58.8197 70.4312C58.631 69.8065 58.5064 69.2357 58.4513 68.7387C58.324 67.6284 58.5284 66.8557 59.0295 66.4229C59.0278 66.4162 59.0344 66.4145 59.0476 66.4109C59.0688 66.3839 59.0899 66.3569 59.1146 66.3432C58.315 65.477 57.3455 64.5853 56.2064 63.6963C56.0698 63.5837 55.92 63.4745 55.7852 63.3685C47.645 57.2118 34.4391 53.1162 25.9719 54.1838C25.106 54.2878 24.3259 54.4471 23.623 54.6568C22.366 55.022 21.3826 55.5343 20.6588 56.1689C20.2053 56.5677 19.8573 57.0163 19.6114 57.5016C19.5599 57.6007 19.512 57.713 19.4707 57.8236C19.4659 57.832 19.458 57.8555 19.4549 57.8705L19.2805 58.3579C19.2805 58.3579 19.266 58.3831 19.2611 58.3915C19.229 58.457 19.2155 58.5388 19.1918 58.6092C19.1869 58.6176 19.1737 58.6211 19.1772 58.6344C19.0296 59.0364 18.8746 59.4903 18.7261 59.9423C18.5479 60.4947 18.3683 61.0689 18.2104 61.6443L18.0571 62.1047C18.037 62.1883 18.015 62.2653 17.9913 62.3356C17.9645 62.421 17.9492 62.4962 17.9189 62.5683L17.7461 63.2472C17.6913 63.4396 17.643 63.6302 17.5912 63.8076C17.5364 64 17.4882 64.1906 17.4399 64.3812C17.4259 64.4347 17.4203 64.4931 17.4062 64.5466C17.422 64.4997 17.4348 64.4679 17.4458 64.4294C17.4629 64.3609 17.4866 64.2905 17.5019 64.2153L17.3883 64.6651C17.3883 64.6651 17.3901 64.6718 17.3919 64.6784C17.4353 64.4962 17.4871 64.3188 17.5305 64.1366C17.5572 64.0512 17.5756 63.961 17.6024 63.8757L17.6192 63.8854Z" fill="white"/>
<path id="Vector_2" d="M99.267 89.2413L99.2567 89.2441L99.2697 89.2515L99.267 89.2413Z" fill="white"/>
<path id="Vector_3" d="M23.2181 49.4128C23.4599 49.0708 23.8426 48.8048 24.3596 48.6165C24.9873 48.3915 25.8016 48.2799 26.8257 48.2898C27.3395 48.3014 27.9085 48.3337 28.5231 48.4036C31.8993 48.7998 36.2377 50.1394 40.7373 52.0542C43.363 53.1703 46.0468 54.477 48.61 55.9155C51.7267 57.6464 54.6804 59.5631 57.1778 61.524C58.4822 62.5534 59.5861 63.5229 60.4828 64.4341C60.5876 64.534 60.6876 64.6423 60.7923 64.7421C60.7941 64.7488 60.8007 64.747 60.8043 64.7603C61.0065 64.5355 61.2238 64.3138 61.4084 64.1293L61.4476 64.0903C61.5683 63.9584 61.6988 63.8098 61.8424 63.6576C61.8635 63.6306 61.8847 63.6036 61.9094 63.5899C61.8098 63.6947 61.7898 63.8849 61.8591 64.1435C61.9231 64.3823 62.0596 64.6798 62.2685 65.0361C62.4655 65.3742 62.732 65.7862 63.0625 66.2521C63.3058 66.5778 63.585 66.9579 63.8978 67.3575C64.71 68.3767 65.7091 69.5377 66.8594 70.7861C68.4166 72.4942 70.2442 74.3644 72.2158 76.2955C75.8476 79.8431 79.98 83.5907 83.8519 86.7897C84.7978 87.5669 85.7217 88.3145 86.6216 89.0258C87.5923 89.7893 88.49 90.4657 89.3063 91.0502C91.2421 92.4507 92.741 93.3854 93.7464 93.8552C94.1016 94.0159 94.4059 94.1192 94.6426 94.1553C94.8528 94.1985 95.0055 94.186 95.1043 94.1311L95.1241 94.1258C95.1634 94.0868 95.2026 94.0479 95.2286 94.0125C95.2237 94.0209 95.214 94.0377 95.2092 94.0461C95.2629 93.982 95.3136 93.9329 95.3674 93.8687C95.7688 93.4342 96.175 92.9912 96.527 92.5842C96.5675 92.5236 96.6248 92.4727 96.6671 92.4187L96.7208 92.3545C97.1362 91.8665 97.6133 91.2908 98.0886 90.7086C98.0952 90.7068 98.0934 90.7002 98.1067 90.6966C98.149 90.6426 98.1996 90.5935 98.2353 90.5413C98.2758 90.4807 98.3265 90.4316 98.3688 90.3776C98.53 90.1851 98.6846 89.9944 98.8476 89.8086C98.9014 89.7444 98.9419 89.6838 98.9859 89.6365C99.015 89.586 99.0445 89.5639 99.0771 89.5267C99.0917 89.5015 99.1062 89.4763 99.1176 89.4661C99.1225 89.4577 99.1357 89.4542 99.1388 89.4392C99.1533 89.4139 99.1714 89.402 99.1811 89.3852C99.2004 89.3515 99.2216 89.3246 99.2427 89.2976L99.2621 89.2639C99.2621 89.2639 99.0769 89.1288 98.7755 88.9039C98.5412 88.7179 98.223 88.4833 97.8221 88.1784C96.7069 87.3257 94.9813 85.9684 92.6762 84.1693C92.3005 83.879 91.9212 83.5755 91.5168 83.2574C89.3448 81.5577 86.9552 79.6817 84.5166 77.7548C82.9612 76.5296 81.3788 75.2832 79.8233 74.0581C76.5219 71.4526 73.3332 68.9235 70.6651 66.8023C69.2559 65.673 67.9834 64.6563 66.9199 63.8111C66.5322 63.5027 66.1799 63.2204 65.878 62.9672C65.4448 62.6212 65.0775 62.3358 64.7941 62.099C64.1651 61.578 63.8632 61.3248 63.8579 61.3049C64.1442 60.9439 64.4807 60.5054 64.7453 60.1431C64.7858 60.0825 64.8197 60.0236 64.8704 59.9745C64.8686 59.9679 64.8752 59.9661 64.8849 59.9493C64.8898 59.9409 64.9061 59.9223 64.914 59.8989L64.9074 59.9007C64.3638 59.5132 63.7698 59.0966 63.1231 58.6159C62.3351 58.031 61.4758 57.3656 60.5357 56.6366C59.5297 55.847 58.4896 55.0097 57.4256 54.1362C53.6771 51.0535 49.685 47.5384 46.1166 44.2013C44.1381 42.3502 42.2868 40.5503 40.6861 38.9179C39.4272 37.6346 38.3211 36.4453 37.4189 35.4076C37.3796 35.4466 37.3488 35.4904 37.3096 35.5293C37.3488 35.4904 37.3796 35.4466 37.4123 35.4094C37.0934 35.0399 36.8116 34.7031 36.5586 34.3942C36.1321 33.8616 35.8003 33.4174 35.5679 33.0532C35.2245 32.5126 35.0853 32.1519 35.1503 31.971C35.1533 31.9559 35.1648 31.9458 35.1745 31.9289C35.0489 32.0692 34.9282 32.2011 34.8092 32.3396L34.5418 32.6387L34.5092 32.6759C33.6409 33.6975 32.5604 35.039 31.6544 36.1845C31.4901 36.392 31.3306 36.5911 31.176 36.7818C31.176 36.7818 31.1893 36.7783 31.1977 36.7832C31.2895 36.8083 31.5533 36.9722 31.9771 37.2567C32.3404 37.5005 32.8133 37.8358 33.3755 38.2396C33.7003 38.4725 34.0605 38.7314 34.4477 39.0115C34.4785 38.9677 34.5159 38.9221 34.5485 38.8849C34.5177 38.9287 34.4803 38.9743 34.4494 39.0181C35.675 39.9123 37.1517 41.0022 38.8003 42.2309C42.2592 44.8155 46.4599 47.9974 50.6107 51.1785C50.6377 51.1997 50.6647 51.2209 50.6899 51.2355C53.7255 53.5639 56.7347 55.8994 59.4089 57.9905C59.7695 58.2777 60.1183 58.5468 60.4418 58.8013C61.8068 59.8714 62.8822 60.7347 63.7468 61.42C63.6085 61.5921 63.4671 61.7793 63.324 61.9598L62.9187 62.4593L62.6712 62.7531C62.6712 62.7531 62.6465 62.7668 62.6368 62.7837L62.5764 62.8496C62.5161 62.9155 62.4623 62.9797 62.4152 63.0421C62.4086 63.0438 62.4103 63.0505 62.3971 63.054C62.283 63.1841 62.1641 63.3226 62.0433 63.4544C61.0069 62.4456 59.6688 61.2901 58.0294 60.0163C57.1108 59.2886 56.1341 58.5552 55.1158 57.8258C49.6805 53.9014 43.0997 49.964 37.5155 47.231C34.996 46.0082 32.6931 45.0117 30.7741 44.3886C30.2675 44.2187 29.7998 44.0881 29.379 43.9734C28.5492 43.7622 27.8824 43.6565 27.3589 43.6617C26.8385 43.6519 26.4714 43.7645 26.2722 43.9742C26.2542 43.9862 26.2396 44.0114 26.23 44.0282C26.2154 44.0534 26.2009 44.0786 26.1895 44.0888L26.1701 44.1224L26.1507 44.156L25.7273 44.8524L25.6982 44.9028C25.6982 44.9028 25.6885 44.9196 25.6837 44.928C25.6093 45.0475 25.5349 45.1669 25.4623 45.293C25.1731 45.7756 24.865 46.3202 24.5684 46.8546C24.5007 46.9723 24.4347 47.0966 24.3735 47.2125C24.2058 47.5133 24.0466 47.819 23.8873 48.1247C23.8776 48.1415 23.8679 48.1583 23.8649 48.1733C23.8649 48.1733 23.8552 48.1901 23.8503 48.1985L23.8182 48.264C23.6765 48.5294 23.527 48.8183 23.3791 49.1138C23.3937 49.0886 23.4064 49.0567 23.4276 49.0297C23.413 49.055 23.4003 49.0868 23.3858 49.112C23.3374 49.1961 23.3004 49.2699 23.2652 49.3505C23.2471 49.3624 23.2459 49.3841 23.2313 49.4093C23.2023 49.4597 23.1799 49.5084 23.1526 49.5654C23.1852 49.5283 23.1913 49.4982 23.2107 49.4646C23.2155 49.4562 23.2252 49.4394 23.2318 49.4376L23.2181 49.4128Z" fill="white"/>
<path id="Vector_4" d="M23.024 49.7482C23.024 49.7482 23.0083 49.7948 22.9986 49.8116C23.045 49.7214 23.098 49.6294 23.1312 49.5428C23.0927 49.6096 23.0625 49.6813 23.0174 49.75L23.024 49.7482Z" fill="white"/>
<path id="Vector_5" d="M107.117 21.5799C107.044 21.4929 106.971 21.4058 106.898 21.3187C106.806 21.2153 106.716 21.1185 106.633 21.02C106.913 21.3501 107.197 21.6935 107.463 22.0272C107.351 21.8725 107.234 21.7262 107.117 21.5799Z" fill="white"/>
<path id="Vector_6" d="M70.899 47.9529C70.8574 47.8503 70.8175 47.7544 70.7758 47.6518C70.802 47.723 70.8383 47.8057 70.88 47.9082L70.8924 47.9547L70.899 47.9529Z" fill="white"/>
<path id="Vector_7" d="M17.7685 91.8158C17.7685 91.8158 17.7774 91.8489 17.7827 91.8688L17.7952 91.9153C17.8267 92.0063 17.8564 92.0908 17.8861 92.1752C17.9544 92.3773 18.0329 92.5908 18.1132 92.811C18.1899 93.0179 18.2582 93.2199 18.3416 93.425C18.3451 93.4383 18.3469 93.4449 18.3505 93.4582C18.3469 93.4449 18.3451 93.4383 18.3434 93.4317C18.303 93.3074 18.256 93.185 18.2174 93.0674C16.6922 88.4079 16.701 81.4254 24.7458 73.9103C24.7055 73.7861 24.6567 73.657 24.6031 73.5363C24.6567 73.657 24.6988 73.7879 24.7525 73.9085C26.0756 72.7579 27.4992 71.7438 28.9968 70.8734C31.1859 69.6187 33.518 68.6597 35.8873 68.0248C42.3071 66.3047 49.0693 66.8953 54.1244 69.9833C53.9648 70.0759 53.7883 70.1587 53.6335 70.2428L53.4143 70.3513L53.3945 70.3566C53.3469 70.3907 53.2891 70.4133 53.2397 70.4408C47.6668 67.8824 40.6486 68.3484 34.4097 71.4844C32.582 72.3935 30.8183 73.5413 29.1829 74.9036C28.2917 75.6542 27.4314 76.4676 26.6154 77.3402C19.3278 85.1926 18.1724 95.6526 23.3044 102.416C23.7273 102.936 24.0772 103.368 24.408 103.755C24.4386 103.79 24.4691 103.824 24.508 103.864C24.8017 104.219 25.0781 104.535 25.3594 104.844C25.6915 105.21 26.0219 105.569 26.4141 105.947C26.5728 106.09 26.7218 106.249 26.8775 106.406C27.1392 106.642 27.3996 106.899 27.6985 107.167C25.6928 105.188 24.3056 102.738 23.5307 100.031C22.9313 97.9528 22.7014 95.7185 22.8198 93.4335C23.0959 88.6397 24.9536 83.607 28.4501 79.2369C29.0976 78.4236 29.7858 77.6564 30.5032 76.9453C31.8168 75.6266 33.2397 74.4776 34.7305 73.5024C40.4356 69.7773 47.1041 68.6942 52.6883 70.6596L52.728 70.6489C52.5467 70.7402 52.3571 70.8265 52.171 70.9261C46.9608 69.8273 41.2234 71.4996 36.5106 75.5133C35.3461 76.5148 34.237 77.6436 33.2253 78.9241C32.6672 79.6209 32.1299 80.3691 31.6298 81.1499C29.8248 83.9437 28.609 86.9777 27.9238 90.0329C26.2781 97.4185 27.8532 104.965 32.405 109.801C32.9538 110.393 33.5533 110.936 34.1968 111.432C35.3395 112.334 36.5634 113.037 37.8373 113.556C38.9553 113.995 40.4914 114.487 41.6415 114.861L41.6481 114.859C41.6481 114.859 41.6565 114.864 41.6733 114.874C42.0774 114.979 42.4766 115.092 42.8537 115.176C43.0207 115.216 43.181 115.259 43.3461 115.293C43.3996 115.307 43.4596 115.319 43.5263 115.33C43.7749 115.384 44.0385 115.441 44.292 115.487L44.3772 115.514C44.3772 115.514 44.4289 115.521 44.4505 115.523C44.4788 115.522 44.5106 115.535 44.5406 115.541C44.6241 115.561 44.6973 115.57 44.779 115.584C44.7724 115.586 44.7556 115.576 44.749 115.578C44.7556 115.576 44.7706 115.579 44.779 115.584C44.8541 115.599 44.9225 115.617 44.9958 115.625C44.9808 115.622 44.9592 115.621 44.9424 115.611C45.0091 115.622 45.0757 115.632 45.1358 115.645C45.1424 115.643 45.1574 115.646 45.1658 115.651C45.3592 115.684 45.5442 115.713 45.7359 115.74C45.7359 115.74 45.7359 115.74 45.7292 115.742C45.3809 115.686 45.0325 115.63 44.6806 115.561C44.492 115.519 44.3034 115.477 44.1016 115.438C42.4889 115.032 40.9193 114.336 39.4424 113.325C39.1414 113.128 38.852 112.921 38.5673 112.706C32.2885 107.778 29.7404 98.3745 31.6051 89.4233C32.1423 86.8483 33.046 84.3174 34.3229 81.9352L34.3428 81.9299C34.7498 81.1456 35.1943 80.4223 35.6677 79.7268C36.4893 78.5044 37.3831 77.419 38.3485 76.4424C42.2853 72.4448 47.2255 70.524 51.9902 71.0457C50.4883 71.9528 49.2433 73.3952 48.3815 75.3676C48.0389 76.1276 47.7609 76.9698 47.5374 77.8826C47.3919 78.5045 47.2685 79.1559 47.1673 79.837C47.1938 79.8299 47.2185 79.8162 47.2449 79.8091C47.2202 79.8228 47.1938 79.8299 47.1708 79.8503C46.9603 81.4207 46.9309 83.0848 47.0517 84.7797C47.183 86.6992 47.513 88.6722 48.009 90.6291C48.34 91.8909 48.7275 93.1518 49.1879 94.3932C50.9862 99.278 53.8006 103.905 57.2125 107.319C57.9248 108.045 58.6742 108.698 59.4411 109.31C59.6987 109.504 59.9582 109.704 60.2141 109.891C61.6597 110.919 63.0855 111.66 64.4613 112.108C66.175 112.68 67.8111 112.803 69.292 112.506C69.6745 112.425 70.0452 112.325 70.4051 112.186C70.5225 112.148 70.6363 112.096 70.7518 112.051L73.1133 110.963L73.1808 110.924C73.2254 110.904 73.2747 110.877 73.3193 110.858C73.3705 110.837 73.4265 110.808 73.471 110.789C74.3641 110.336 75.4278 109.753 76.309 109.282C75.9182 109.465 75.5017 109.605 75.0662 109.7C73.6917 109.998 72.1014 109.834 70.3532 109.186C69.1235 108.727 67.813 108.019 66.4567 107.06C66.1168 106.824 65.78 106.573 65.4379 106.302C64.9309 105.919 64.4332 105.491 63.9469 105.053C60.0312 101.532 56.5845 96.5838 54.2061 91.4137C53.6674 90.2502 53.1882 89.0707 52.7739 87.8952C52.1307 86.0772 51.6293 84.2853 51.3098 82.537C51.0184 80.9731 50.8639 79.4436 50.869 78.0064C50.8727 77.3586 50.907 76.7452 50.9718 76.1663C51.0701 75.3154 51.2228 74.5352 51.4449 73.8289C52.0196 71.9761 53.0171 70.6426 54.3286 69.8718L54.3551 69.8647C54.3551 69.8647 54.3961 69.8324 54.4208 69.8186C54.5557 69.7398 54.7039 69.6575 54.8569 69.5667C54.8617 69.5583 54.875 69.5548 54.875 69.5548C50.721 66.5736 45.163 65.2622 39.4966 65.5579C36.5173 65.7165 33.514 66.3151 30.6664 67.3624C28.2733 68.2525 25.9985 69.452 23.9467 70.9542C18.1532 75.4351 15.6939 80.4727 16.3872 86.343C16.3984 86.4111 16.4011 86.4744 16.4123 86.5424C16.4194 86.569 16.4265 86.5955 16.427 86.6238C16.5021 86.9306 16.5658 87.2477 16.6414 87.5828C16.6663 87.6757 16.681 87.757 16.7041 87.8432L16.7218 87.9096C16.8477 88.4587 16.9535 88.9066 17.0487 89.3147C16.9434 88.8951 16.837 88.4189 16.7059 87.8499C16.7059 87.8499 16.7094 87.8631 16.7112 87.8698C16.8287 88.414 16.9474 88.9367 17.0586 89.4044C17.2324 90.1326 17.5227 91.0571 17.7769 91.8206L17.7685 91.8158Z" fill="white"/>
<path id="Vector_8" d="M41.9073 30.8215C42.4382 32.0085 43.1537 33.3023 43.9886 34.6708C45.0128 36.3227 46.2386 38.0911 47.6043 39.879C48.628 41.2111 49.71 42.5489 50.8534 43.8774C53.1892 46.5853 55.7487 49.2545 58.3209 51.6004C59.3713 52.5558 60.4243 53.4678 61.4512 54.3086C61.7058 54.5176 61.9635 54.7115 62.2079 54.909C63.6387 56.0397 64.9526 56.9458 66.1099 57.6379L66.3282 57.7643L66.2701 57.8651C66.4527 57.5674 66.9682 57.479 67.8367 57.623C68.2601 57.6944 68.7543 57.8179 69.3276 57.9983C69.737 58.1232 70.1901 58.279 70.672 58.4626L70.6787 58.4609C72.4088 59.1203 74.4432 60.0679 76.6871 61.2153C82.5287 64.2205 89.6299 68.644 95.3716 72.8915C96.1411 73.4601 96.8991 74.0389 97.6152 74.5934C99.8058 76.3094 101.47 77.7826 102.618 78.9679C103.149 79.522 103.567 80.0215 103.867 80.4529C104.324 81.0982 104.505 81.5898 104.411 81.8994C104.409 81.9211 104.411 81.9277 104.401 81.9445C104.387 81.9697 104.367 82.0033 104.348 82.037C104.384 81.9848 104.408 81.9427 104.444 81.8905L104.891 81.1522L105.499 80.1647C105.572 80.0387 105.658 79.909 105.733 79.7679C105.733 79.7679 105.739 79.7639 105.751 79.756C105.921 79.4618 106.085 79.176 106.242 78.8854C106.584 78.282 106.927 77.6569 107.227 77.1074C107.294 76.9615 107.376 76.8186 107.454 76.6841C107.483 76.6337 107.512 76.5832 107.539 76.5262C107.558 76.4925 107.571 76.4607 107.584 76.4288C107.602 76.4169 107.603 76.3952 107.613 76.3784C107.878 75.6747 107.621 74.713 106.846 73.5417C106.424 72.8942 105.845 72.1892 105.122 71.4234C104.14 70.4069 102.906 69.2947 101.372 68.0992C99.3688 66.5249 97.0778 64.9637 94.6404 63.4915C91.1244 61.3558 87.324 59.4029 83.6867 57.8471C79.7295 56.1565 75.9551 54.9359 72.9849 54.4666L72.9782 54.4683C72.3716 54.375 71.8369 54.3121 71.3244 54.2789C70.5973 54.2391 69.9727 54.2643 69.4524 54.3611C68.5641 54.5138 67.9816 54.8547 67.7194 55.3586L67.7127 55.3603C67.7127 55.3603 67.6806 55.4258 67.6661 55.451C67.6371 55.5014 67.6129 55.5435 67.5838 55.5939L67.3937 55.9434L67.1873 56.3114C66.187 55.7549 65.1025 55.0433 63.9472 54.1729C63.7956 54.0572 63.6506 53.9396 63.4888 53.8124C62.6883 53.181 61.8886 52.4997 61.0933 51.7816C57.5317 48.5493 54.0847 44.4474 51.2829 40.2651C50.5934 39.2273 49.9405 38.1939 49.3459 37.1661C48.3281 35.4059 47.4334 33.6554 46.7332 31.9949C46.1233 30.5661 45.6539 29.185 45.3392 27.9045C45.209 27.3921 45.1172 26.8907 45.0493 26.4255C44.9279 25.6548 44.891 24.961 44.9336 24.3525C45.0032 23.1824 45.3486 22.3008 45.9272 21.7335C45.9519 21.7198 45.9731 21.6928 45.996 21.6724C46.1207 21.5821 46.2486 21.4768 46.38 21.3847C46.3076 21.4325 46.2221 21.4839 46.1432 21.5335L45.2545 22.2407L45.2479 22.2425C45.2479 22.2425 45.2496 22.2492 45.243 22.2509C44.212 23.0887 42.9298 24.2071 41.8508 25.1572C41.6657 25.3135 41.4986 25.4577 41.3316 25.602C41.2761 25.6595 41.232 25.7069 41.1783 25.771C40.8581 26.1909 40.7546 26.8371 40.8845 27.7192C40.9649 28.2308 41.1212 28.8144 41.359 29.4899C41.5124 29.9037 41.6844 30.3339 41.8887 30.8051L41.9073 30.8215Z" fill="white"/>
<path id="Vector_9" d="M54.0283 37.8307C56.4262 42.7822 59.7979 47.5297 63.5816 51.0083C64.1744 51.5531 64.7717 52.0612 65.3834 52.5441C65.4033 52.5388 65.4196 52.5202 65.4443 52.5065C65.4641 52.5012 65.4804 52.4826 65.4985 52.4707C65.4623 52.4946 65.4196 52.5202 65.3816 52.5375C65.6866 52.7757 65.9881 53.0005 66.2877 53.2188C66.9374 53.6844 67.5795 54.0953 68.199 54.4482C68.2583 54.3256 68.3129 54.2115 68.3692 54.104C68.374 54.0956 68.3771 54.0806 68.3819 54.0722C68.3819 54.0722 68.3995 54.0319 68.4092 54.0151C68.4074 54.0085 68.4189 53.9983 68.4237 53.9899C68.4268 53.9748 68.4365 53.958 68.4462 53.9412C68.451 53.9328 68.4541 53.9178 68.4655 53.9076C68.4655 53.9076 68.4704 53.8992 68.4752 53.8908C68.5746 53.6793 68.6801 53.4378 68.7808 53.2047C68.4097 52.9843 68.038 52.7356 67.6694 52.4718C67.3715 52.2602 67.0785 52.0402 66.7753 51.8087C66.7373 51.826 66.6928 51.845 66.6549 51.8623C66.6681 51.8587 66.6813 51.8552 66.6928 51.845C66.7193 51.8379 66.7422 51.8176 66.7687 51.8105C66.1048 51.2918 65.4651 50.731 64.8346 50.1252C61.224 46.6572 58.2239 41.867 56.288 36.8129C55.8561 35.6776 55.4723 34.5365 55.1516 33.3928C54.5903 31.4036 54.2117 29.4082 54.0318 27.4661C53.8761 25.7734 53.8676 24.1267 54.0384 22.5669C54.1119 21.9145 54.2075 21.2918 54.3318 20.697C54.5425 19.7094 54.8195 18.8106 55.1712 18.0056C56.0149 16.0451 57.252 14.6261 58.7633 13.7804L58.9217 13.7096C59.1986 13.5785 59.4774 13.454 59.7496 13.3314C59.5877 13.389 59.4209 13.455 59.2643 13.5325L59.2445 13.5378L58.0426 14.1086C58.0113 14.1241 57.98 14.1396 57.9487 14.1551C57.9354 14.1586 57.9156 14.164 57.9041 14.1741C57.8776 14.1812 57.8481 14.2034 57.8216 14.2105C57.6783 14.2844 57.5283 14.3601 57.3718 14.4376C56.9581 14.6409 56.5461 14.8508 56.1474 15.0571C55.6566 15.3166 55.1609 15.5845 54.7248 15.8364C54.6326 15.8895 54.5338 15.9444 54.4434 16.0042C54.2723 16.1069 54.1078 16.2078 53.9434 16.3087C53.9072 16.3327 53.8693 16.3499 53.8331 16.3738C53.6554 16.4783 53.4711 16.5846 53.2819 16.6992C53.2277 16.7351 53.1734 16.7709 53.121 16.8134C53.1078 16.817 53.1029 16.8254 53.0915 16.8356C52.0673 17.5933 51.2898 18.7684 50.8316 20.3412C50.6184 21.0807 50.4715 21.9091 50.4042 22.8227C50.3618 23.353 50.35 23.9177 50.3651 24.5036C50.4145 24.4761 50.4639 24.4487 50.5115 24.4146C50.4621 24.4421 50.4127 24.4695 50.3585 24.5054C50.3901 25.947 50.5878 27.4791 50.9242 29.0522C51.3132 30.8743 51.896 32.7582 52.6368 34.6495C53.0576 35.7167 53.5198 36.7799 54.0319 37.8439L54.0283 37.8307Z" fill="white"/>
<path id="Vector_10" d="M59.1786 20.6778C58.7035 22.4257 58.4409 24.2518 58.3404 26.1268C58.2204 28.5118 58.399 30.9518 58.8379 33.3575C59.1493 35.0227 59.5719 36.6794 60.1167 38.2891C61.3372 41.8644 63.1434 45.1904 65.4059 47.8894C66.2158 48.8737 67.094 49.7685 68.0255 50.571C68.2531 50.7588 68.464 50.9368 68.6881 51.1113C68.9223 51.2974 69.1597 51.4683 69.397 51.6393C69.3618 51.7198 69.3351 51.8052 69.3047 51.8773L69.2494 52.0414C69.4941 51.3929 69.9412 50.8111 70.5862 50.3326C70.9111 50.0892 71.2846 49.8683 71.7067 49.6699C71.753 49.6575 71.7843 49.642 71.8205 49.6181C72.2594 49.4294 72.7402 49.265 73.2781 49.128C73.973 48.9418 74.7537 48.8108 75.6183 48.7284C84.1235 47.935 97.5658 52.4364 105.654 58.7705C105.942 58.9989 106.214 59.2176 106.48 59.4447C107.772 60.5343 108.818 61.6046 109.609 62.6225C111.183 64.66 111.781 66.5187 111.388 68.0172C111.375 68.0773 111.352 68.1476 111.333 68.2096L111.972 66.5172L112.003 66.4235C112.003 66.4235 112.018 66.3982 112.019 66.3766C112.02 66.3549 112.035 66.3297 112.048 66.2978C112.151 65.9931 112.256 65.6733 112.372 65.3367C112.514 64.9147 112.669 64.4609 112.811 64.0106C112.962 63.5153 113.105 63.015 113.251 62.5281C113.264 62.4962 113.265 62.4745 113.279 62.4493L113.3 62.3657C113.3 62.3657 113.312 62.3339 113.314 62.3122C113.315 62.2905 113.328 62.2587 113.335 62.2353C113.34 62.2268 113.337 62.2136 113.35 62.21C113.359 62.1649 113.359 62.1366 113.371 62.1048C113.378 62.103 113.376 62.0964 113.376 62.0964C113.398 61.9911 113.423 61.8991 113.444 61.7939C113.93 59.4246 112.806 56.6337 110.056 53.8594C109.426 53.2318 108.727 52.6088 107.937 51.9889C107.004 51.2581 105.994 50.5619 104.921 49.9183C96.7183 44.9583 84.9866 42.5788 77.0356 44.5671C75.8769 44.8492 74.8561 45.2222 73.9709 45.6513C72.6112 46.3213 71.5832 47.1441 70.8865 48.0913C70.8816 48.0997 70.8719 48.1165 70.8539 48.1285C66.9317 41.3534 68.3278 31.7388 74.9965 24.3294C75.8181 23.3984 76.6995 22.558 77.6168 21.7721C79.1141 20.5037 80.7045 19.4236 82.371 18.5221C89.8877 14.4893 98.6604 14.4559 104.629 19.126C105.266 19.6235 105.85 20.1635 106.387 20.7376C106.119 20.4256 105.87 20.1582 105.648 19.912C105.099 19.3198 104.651 18.8642 104.149 18.3945C103.507 17.7988 102.785 17.1961 101.709 16.2762C101.7 16.2713 101.697 16.2581 101.682 16.255C101.657 16.2404 101.645 16.2223 101.611 16.2029C101.399 16.0465 101.165 15.8604 100.927 15.6895C100.778 15.5803 100.621 15.473 100.468 15.3789C94.2589 11.2922 85.7608 12.1121 78.8467 16.9644C77.5329 17.8851 76.2815 18.9596 75.1006 20.1646C74.4017 20.892 73.7286 21.6624 73.093 22.4937C73.1266 22.5132 73.1571 22.5476 73.1925 22.5737C72.7679 22.6306 72.5931 23.3811 72.3447 23.7249L71.7776 24.5735C71.7177 24.6677 71.6513 24.7637 71.5914 24.8579C71.4844 25.0145 71.399 25.1725 71.3088 25.3388C71.2877 25.3658 71.2683 25.3994 71.2489 25.433C71.1618 25.5843 71.0729 25.729 70.9857 25.8803L70.9131 26.0064C70.8586 26.1205 70.7908 26.2382 70.7261 26.3408C70.6922 26.3997 70.6601 26.4651 70.6394 26.5204C70.5862 26.6129 70.5365 26.7186 70.4832 26.8111C70.4511 26.8765 70.4172 26.9354 70.3869 27.0075C70.3403 27.0981 70.287 27.1906 70.2505 27.2928C70.2167 27.3516 70.1845 27.4171 70.1542 27.4892C70.1076 27.5799 70.0711 27.682 70.0245 27.7727C69.9924 27.8382 69.9585 27.897 69.9281 27.9691C69.9136 27.9944 69.9123 28.016 69.8996 28.0479C69.8609 28.1151 69.8323 28.1938 69.8002 28.2593C69.7747 28.323 69.7474 28.3801 69.7237 28.4504C69.6722 28.5495 69.6291 28.6534 69.5945 28.7623C69.5672 28.8193 69.5465 28.8746 69.5193 28.9317C69.4701 29.0657 69.4125 29.1949 69.3632 29.3289C69.3487 29.3541 69.336 29.3859 69.3347 29.4076C69.2873 29.5483 69.2314 29.6841 69.184 29.8247C69.1695 29.8499 69.1549 29.8752 69.1519 29.8902C69.1361 29.9371 69.1203 29.984 69.1044 30.0308C69.0886 30.0777 69.0777 30.1162 69.0619 30.1631C69.057 30.1715 69.0491 30.1949 69.0346 30.2202C69.0218 30.252 69.0091 30.2839 69.0096 30.3122C68.9951 30.3374 68.9938 30.359 68.9823 30.3692C68.9568 30.4329 68.9397 30.5015 68.9257 30.555C68.8971 30.6337 68.8668 30.7058 68.8515 30.781C68.8502 30.8027 68.8423 30.8261 68.826 30.8447C68.826 30.8447 68.8278 30.8513 68.8211 30.8531C68.8216 30.8814 68.8089 30.9133 68.7961 30.9451C68.7834 30.977 68.7706 31.0088 68.7645 31.0389C68.7329 31.1326 68.7097 31.2313 68.6714 31.3268C68.6701 31.3485 68.6574 31.3803 68.6495 31.4038C68.6495 31.4038 68.6446 31.4122 68.6482 31.4254C68.6355 31.4573 68.6263 31.5024 68.6201 31.5325C68.5885 31.6263 68.5653 31.7249 68.5403 31.8169C68.5148 31.8806 68.5043 31.9474 68.4854 32.0093C68.4841 32.031 68.4696 32.0562 68.4635 32.0862C68.4587 32.0946 68.4507 32.1181 68.4543 32.1314C68.4416 32.1632 68.4288 32.195 68.4262 32.2384C68.4249 32.2601 68.4122 32.2919 68.4061 32.322C68.3806 32.3857 68.3701 32.4525 68.3578 32.5126C68.3451 32.5444 68.3438 32.5661 68.3311 32.598C68.3298 32.6196 68.3236 32.6497 68.3224 32.6714C68.3065 32.7183 68.2956 32.7567 68.2864 32.8019C68.2815 32.8103 68.2851 32.8235 68.2736 32.8337C68.268 32.8921 68.254 32.9456 68.2399 32.9991C68.2386 33.0208 68.2325 33.0509 68.218 33.0761C68.2057 33.1362 68.1953 33.203 68.183 33.2632C68.1738 33.3083 68.1646 33.3534 68.1488 33.4003C68.1541 33.4202 68.1493 33.4286 68.1414 33.452C68.1432 33.4586 68.1401 33.4737 68.1286 33.4839C68.1274 33.5055 68.1194 33.529 68.1164 33.544C68.1077 33.6174 68.0972 33.6842 68.0867 33.751C68.078 33.8244 68.0543 33.8947 68.0456 33.9681C68.0456 33.9681 68.0408 33.9765 68.0443 33.9898C68.043 34.0115 68.0316 34.0216 68.0369 34.0415C68.0246 34.1017 68.0142 34.1685 68.0019 34.2286C68.0024 34.2569 67.9963 34.287 67.9817 34.3122C67.9876 34.3604 67.9801 34.4122 67.9626 34.4524C67.9643 34.459 67.963 34.4807 67.9666 34.494C67.9653 34.5156 67.9671 34.5223 67.9574 34.5391C67.9579 34.5674 67.95 34.5908 67.9487 34.6125C67.936 34.6443 67.9365 34.6727 67.9303 34.7027C67.9102 34.7863 67.9015 34.8597 67.8945 34.9398C67.895 34.9681 67.8858 35.0132 67.8797 35.0433C67.8705 35.0884 67.871 35.1167 67.8649 35.1468C67.86 35.1552 67.8503 35.172 67.8521 35.1786C67.8539 35.1852 67.8575 35.1985 67.8526 35.2069C67.8513 35.2286 67.8452 35.2586 67.8439 35.2803C67.8347 35.3254 67.837 35.3604 67.8344 35.4037C67.8296 35.4121 67.8331 35.4254 67.8349 35.432C67.8222 35.4638 67.813 35.509 67.8152 35.5439C67.8193 35.5855 67.8065 35.6173 67.8022 35.654C67.7965 35.7124 67.7861 35.7792 67.7822 35.8442C67.7694 35.876 67.7735 35.9176 67.7691 35.9543C67.7696 35.9826 67.7551 36.0078 67.749 36.0379C67.7495 36.0662 67.7548 36.0861 67.7487 36.1162C67.74 36.1896 67.7361 36.2546 67.7274 36.328C67.7218 36.3864 67.7179 36.4514 67.7207 36.5146C67.7207 36.5146 67.7202 36.5218 67.7194 36.5363C67.7099 36.6597 67.7021 36.7897 67.6975 36.9047C67.6919 36.963 67.7012 37.0245 67.6956 37.0829C67.6943 37.1045 67.6828 37.1147 67.6864 37.128C67.6866 37.2346 67.685 37.3345 67.6834 37.4344C67.6839 37.4627 67.6778 37.4928 67.6782 37.5211C67.6787 37.5494 67.6841 37.5693 67.6779 37.5994C67.6702 37.7294 67.6643 37.866 67.6632 37.9943C67.6611 38.0659 67.6554 38.1243 67.663 38.1791C67.6594 38.3507 67.6654 38.5055 67.6714 38.6602C67.6662 38.7469 67.6695 38.8385 67.6842 38.9198C67.6769 39.0781 67.6896 39.2311 67.7088 39.3824C67.7199 39.4504 67.7161 39.5155 67.7206 39.5853C67.7224 39.592 67.726 39.6052 67.7247 39.6269C67.7376 39.7016 67.7373 39.7799 67.7436 39.8564C67.743 40.0129 67.7724 40.1756 67.7916 40.3269C67.7921 40.3552 67.7992 40.3817 67.8063 40.4082C67.8114 40.5064 67.8261 40.5877 67.8377 40.6841C67.843 40.704 67.8501 40.7306 67.8489 40.7522C67.856 40.7788 67.8565 40.8071 67.8636 40.8336C67.8747 40.9017 67.881 40.9782 67.894 41.0529L67.9492 41.3651C67.9492 41.3651 67.9551 41.4133 67.9622 41.4398C67.9662 41.4814 67.9698 41.4946 67.9769 41.5211C67.9822 41.541 67.9875 41.5609 67.9827 41.5693L68.0076 41.6622C68.0116 41.7038 68.0187 41.7303 68.0276 41.7634C68.0334 41.8116 68.0423 41.8448 68.0547 41.8912C68.0619 41.9178 68.0623 41.9461 68.073 41.9858L68.0943 42.0654C68.1002 42.1136 68.1126 42.1601 68.1215 42.1932L68.1339 42.2396C68.1339 42.2396 68.1451 42.3077 68.1522 42.3343L68.1913 42.4802C68.1953 42.5217 68.2042 42.5549 68.2149 42.5947L68.2468 42.7141L68.2646 42.7804C68.2771 42.8268 68.2847 42.8816 68.3006 42.9413L68.4215 43.3923C68.4321 43.4321 68.4393 43.4586 68.4548 43.49L68.5312 43.7752C68.5312 43.7752 68.5502 43.8198 68.5556 43.8397L68.5751 43.9127C68.5875 43.9591 68.6084 44.0104 68.6244 44.0701L68.6368 44.1165C68.6368 44.1165 68.6421 44.1364 68.6505 44.1412C68.6505 44.1412 68.6576 44.1678 68.663 44.1877L68.6879 44.2805C68.6879 44.2805 68.6985 44.3203 68.7087 44.3318C68.7211 44.3782 68.73 44.4114 68.7491 44.456C68.7615 44.5024 68.7704 44.5356 68.7895 44.5803C68.8001 44.62 68.809 44.6532 68.8281 44.6979L68.8387 44.7376C68.8387 44.7376 68.856 44.7757 68.8596 44.7889L68.8738 44.842C68.8738 44.842 68.8875 44.8667 68.8946 44.8933C68.8999 44.9132 68.9053 44.9331 68.9154 44.9446L68.9208 44.9644C68.9398 45.0091 68.954 45.0622 68.9797 45.105L68.9922 45.1515C69.013 45.2027 69.0422 45.2589 69.0631 45.3102L69.0808 45.3765C69.0808 45.3765 69.1017 45.4278 69.122 45.4507C69.1291 45.4773 69.1344 45.4972 69.1482 45.5219C69.1535 45.5418 69.1588 45.5617 69.169 45.5732C69.1815 45.6196 69.2023 45.6709 69.228 45.7138C69.2297 45.7204 69.2351 45.7403 69.2452 45.7518C69.2696 45.8163 69.2971 45.8659 69.3215 45.9304C69.3215 45.9304 69.3387 45.9684 69.3423 45.9817L69.3476 46.0016C69.3649 46.0396 69.3888 46.0758 69.4079 46.1205C69.434 46.1917 69.4734 46.2593 69.5128 46.3269C69.5199 46.3535 69.5337 46.3782 69.5408 46.4047C69.5527 46.4229 69.5598 46.4494 69.5784 46.4657C69.5855 46.4923 69.5992 46.517 69.6064 46.5436C69.644 46.6046 69.6648 46.6558 69.7024 46.7168C69.7197 46.7549 69.7268 46.7814 69.7489 46.811C69.7627 46.8358 69.783 46.8587 69.8003 46.8968C69.8176 46.9348 69.8397 46.9644 69.857 47.0024C69.8641 47.0289 69.876 47.0471 69.8964 47.07C69.9017 47.0899 69.9154 47.1147 69.9208 47.1346C69.9548 47.1823 69.9775 47.2402 70.0115 47.288C70.0492 47.349 70.085 47.4033 70.116 47.4661C70.1178 47.4727 70.1213 47.486 70.1297 47.4909C70.1368 47.5174 70.1541 47.5554 70.1745 47.5784C70.1829 47.5832 70.1882 47.6031 70.1882 47.6031C70.19 47.6098 70.1935 47.623 70.2019 47.6279L70.2085 47.6261C70.2085 47.6261 70.2192 47.6659 70.2276 47.6708C70.2807 47.7632 70.3321 47.8489 70.3984 47.9378L70.3683 48.1164L70.2238 48.7949C66.0571 43.8339 64.672 36.4145 66.3057 29.1956C66.9669 26.289 68.1123 23.416 69.7684 20.7546C69.7617 20.7563 69.7516 20.7449 69.7366 20.7418C69.7432 20.74 69.76 20.7497 69.7666 20.7479C70.2654 19.9888 70.7815 19.2676 71.3149 18.5845C72.2434 17.3903 73.2206 16.3252 74.2431 15.376C79.2739 10.7227 85.3393 9.08329 91.5716 10.8466C91.6101 10.8576 91.6551 10.8668 91.6953 10.8845C91.6401 10.8638 91.5849 10.843 91.523 10.824C91.334 10.7539 91.1533 10.6885 90.9745 10.6298C90.8958 10.6012 90.819 10.5791 90.7338 10.5522C90.6953 10.5411 90.6569 10.5301 90.6167 10.5125C90.5465 10.4886 90.4696 10.4666 90.4012 10.4494C90.0987 10.3527 89.7997 10.2694 89.5157 10.1891C89.4773 10.178 89.4322 10.1688 89.3938 10.1578C89.0732 10.0731 88.7075 9.97912 88.3269 9.8821C88.3203 9.88387 88.3035 9.87415 88.2885 9.87107C88.0147 9.80227 87.7444 9.74674 87.4724 9.68457C86.9584 9.56641 86.4797 9.47431 85.8863 9.37743C85.5595 9.32282 85.2046 9.26867 84.7829 9.20395C84.7529 9.19778 84.7246 9.19824 84.6946 9.19207C84.7078 9.18852 84.7246 9.19824 84.7396 9.20132C85.0562 9.24445 85.3781 9.30746 85.6934 9.37225C84.9635 9.26927 84.1688 9.16236 83.401 9.07665C78.9662 8.88598 74.4719 10.8295 70.875 14.5867C69.9281 15.5797 69.0366 16.7 68.2336 17.9387C67.7916 18.6187 67.3783 19.3265 66.9907 20.0772C67.0123 20.0785 67.0273 20.0816 67.0423 20.0847C67.0207 20.0834 67.0057 20.0803 66.984 20.079C65.7486 22.4572 64.8948 24.989 64.3991 27.5599C63.5555 31.9299 63.7477 36.4063 64.8925 40.4142C65.1652 41.3789 65.4939 42.3144 65.8768 43.214C66.894 45.607 68.2859 47.7574 70.0401 49.5123C70.001 49.6578 69.9602 49.7967 69.926 49.9338C69.9079 49.9457 69.9133 49.9656 69.9102 49.9807C69.8847 50.0444 69.8676 50.1129 69.8553 50.1731L69.6929 50.6786C69.0776 50.1824 68.4913 49.6358 67.9443 49.0503C66.3599 47.3992 65.0261 45.4394 63.9497 43.2755C63.7721 42.9037 63.5926 42.5253 63.4181 42.1385C62.3178 39.6469 61.5609 36.9283 61.177 34.1453C60.8148 31.4701 60.7806 28.7214 61.1265 26.0413C61.3918 23.9871 61.8787 21.9659 62.6003 20.0524C62.8833 19.3084 63.1884 18.594 63.521 17.9291C64.0977 16.7723 64.7395 15.7261 65.4464 14.7903C67.848 11.6021 70.9708 9.64938 74.3066 9.1536C73.6632 9.24071 72.9999 9.33314 72.3882 9.43306L72.3618 9.44015C72.2938 9.45125 72.2373 9.45218 72.1843 9.46636C72.04 9.48371 71.8993 9.51432 71.7682 9.52812C71.6954 9.54762 71.6208 9.5605 71.548 9.58C71.462 9.60306 71.3592 9.61639 71.2665 9.64122C71.3658 9.61462 71.462 9.60306 71.548 9.58C71.2166 9.64037 70.8804 9.70914 70.5291 9.77483C70.1117 9.85825 69.7159 9.94298 69.3567 10.0321C69.3368 10.0374 69.317 10.0428 69.2971 10.0481C69.2376 10.064 69.178 10.08 69.1184 10.096C69.0721 10.1084 69.0258 10.1208 68.9795 10.1332C68.9265 10.1474 68.8736 10.1616 68.8206 10.1758C68.7081 10.2059 68.5956 10.236 68.4897 10.2644C68.4103 10.2857 68.3309 10.307 68.2515 10.3283C68.2184 10.3371 68.1853 10.346 68.1522 10.3549C68.1456 10.3566 68.1389 10.3584 68.1323 10.3602L67.8941 10.424C67.6823 10.4808 67.4723 10.5441 67.2791 10.6172C64.9198 11.4484 62.8419 13.1709 61.2668 15.7112C60.7267 16.581 60.2432 17.5564 59.8231 18.6356C59.5686 19.3009 59.3447 20.0006 59.1381 20.7384L59.1786 20.6778Z" fill="white"/>
<path id="Vector_11" d="M106.407 20.7604C106.407 20.7604 106.387 20.7375 106.377 20.7261C106.407 20.7604 106.439 20.8012 106.476 20.8338C106.456 20.8109 106.436 20.7881 106.414 20.7586L106.407 20.7604Z" fill="white"/>
<path id="Vector_12" d="M28.6189 108.008C28.2985 107.738 27.996 107.457 27.6985 107.167C27.9721 107.421 28.2794 107.694 28.6189 108.008Z" fill="white"/>
<path id="Vector_13" d="M17.1147 72.1949C18.4122 69.9422 20.5606 67.8739 23.5439 66.2215C23.5386 66.2016 23.5483 66.1848 23.543 66.1649C23.5483 66.1848 23.5452 66.1998 23.5439 66.2215C27.311 64.1317 31.8447 63.0235 36.4342 62.8387C39.979 62.6992 43.5583 63.112 46.8609 64.0538C50.0181 64.9564 52.9312 66.351 55.3039 68.2172C55.3039 68.2172 55.3022 68.2106 55.3004 68.204C55.3004 68.204 55.3022 68.2106 55.3039 68.2172C55.5466 68.4081 55.7827 68.6007 56.0121 68.7952C56.1796 68.6792 56.3767 68.5411 56.6099 68.3791C56.7233 68.299 56.8414 68.2104 56.9578 68.1153C56.4895 67.665 55.9798 67.2187 55.4238 66.7848C54.2392 65.8583 52.9232 65.0239 51.5125 64.2859C49.2531 63.1072 46.757 62.1838 44.1493 61.532C37.2677 59.8076 29.6478 59.987 23.8654 62.4178C23.837 62.6031 23.8153 62.7867 23.7851 62.9653C23.8069 62.7818 23.837 62.6031 23.8588 62.4196C22.0154 63.1908 20.5025 64.1364 19.3125 65.2016C17.8607 66.5075 16.8957 67.9887 16.4393 69.5681C16.4283 69.6066 16.4125 69.6535 16.4015 69.692C16.3546 69.861 16.3143 70.0281 16.2806 70.1935C16.2714 70.2387 16.2622 70.2838 16.253 70.3289C16.2364 70.4257 16.2198 70.5226 16.2049 70.6261C16.2067 70.6327 16.2019 70.6411 16.1988 70.6562C16.151 71.0599 16.1036 71.492 16.0615 71.944C16.0546 72.024 16.0477 72.1041 16.039 72.1775C15.9019 73.5719 15.7787 75.0976 15.6989 76.4411C15.7042 76.461 15.6945 76.4778 15.6932 76.4994C15.6915 76.4928 15.6897 76.4862 15.6945 76.4778C15.8403 75.01 16.3124 73.5685 17.0997 72.1918L17.1147 72.1949Z" fill="white"/>
<path id="Vector_14" d="M88.0003 21.5558C85.6218 22.2358 83.2853 23.2315 81.1207 24.5507C79.6615 25.4322 78.2745 26.4506 76.9832 27.6141C70.6621 33.3026 68.451 40.7757 70.5137 46.9117C70.5868 47.1054 70.6485 47.3092 70.7265 47.4944C70.6808 47.3503 70.6435 47.211 70.5645 46.9692L70.5592 46.9493C70.9379 45.1063 71.9431 43.3514 73.5671 41.8145C74.7693 40.6891 76.3126 39.6714 78.1748 38.8384L78.1814 38.8366C83.6839 36.3671 90.8161 35.9558 97.4185 37.3001C100.538 37.9285 103.539 38.9653 106.178 40.3692C107.482 41.0507 108.701 41.8401 109.804 42.703C113.569 45.6606 115.352 49.0852 115.229 52.3311C115.221 52.3828 115.229 52.4376 115.221 52.4894C115.223 52.496 115.22 52.5111 115.222 52.5177C115.224 52.5243 115.221 52.5394 115.222 52.546C115.202 52.7362 115.187 52.9179 115.159 53.1032C115.18 52.9697 115.192 52.8312 115.22 52.6959C115.25 52.4107 115.282 52.132 115.32 51.8517C115.321 51.83 115.316 51.8101 115.326 51.7933C115.327 51.7716 115.335 51.7482 115.331 51.7349C115.348 51.4815 115.374 51.233 115.403 50.9694C115.424 50.7576 115.437 50.5409 115.453 50.3091C115.46 50.1225 115.481 49.939 115.492 49.7656C115.554 48.8604 115.582 47.6943 115.582 46.7417C115.577 46.6436 115.579 46.5436 115.577 46.4587C115.579 46.437 115.572 46.4105 115.579 46.3871L115.574 46.3672C115.574 46.3672 115.575 46.3455 115.574 46.3389C115.135 39.4336 108.916 34.3829 100.909 32.4055C97.6206 31.595 94.03 31.2989 90.41 31.6078C86.3054 31.9613 82.1642 33.0781 78.4041 35.0878L78.3975 35.0896C74.3692 37.4484 72.4107 40.1199 71.462 42.3501C70.646 44.2818 70.5591 45.8902 70.5156 46.7335C70.126 45.068 69.9546 42.6545 70.8882 39.8383C71.8183 37.0089 73.8619 33.7815 77.8969 30.4684L77.9036 30.4666C79.8522 29.056 81.9122 27.9282 84.0264 27.0561C86.9425 25.8411 89.9372 25.1311 92.8797 24.8616C102.572 23.9988 111.567 28.1283 114.297 36.2534C114.343 36.3975 114.385 36.5566 114.439 36.7056L114.393 36.5332C114.381 36.4868 114.375 36.4386 114.363 36.3922L114.341 36.3126C114.316 36.1914 114.284 36.0721 114.252 35.9527L114.181 35.6091C114.167 35.5561 114.148 35.5114 114.135 35.465C114.092 35.2775 114.044 35.0985 113.995 34.9128C113.91 34.6227 113.815 34.3212 113.713 34.0215C113.685 33.9437 113.66 33.8508 113.637 33.7646C113.6 33.6536 113.574 33.5541 113.534 33.4582L113.5 33.3322C113.482 33.2659 113.466 33.2062 113.442 33.1417L113.424 33.0753C113.387 32.9644 113.361 32.8649 113.319 32.7623C113.282 32.6514 113.237 32.5355 113.197 32.4113L113.191 32.3914C113.165 32.3202 113.132 32.2508 113.115 32.1845C113.087 32.1067 113.05 32.024 113.022 31.9462C112.994 31.8684 112.956 31.7791 112.927 31.6946C112.895 31.6036 112.857 31.5143 112.827 31.4298C112.825 31.4232 112.813 31.4051 112.808 31.3852C112.771 31.2742 112.723 31.1734 112.68 31.0642C112.652 30.9864 112.614 30.8971 112.571 30.8162L112.56 30.7764C112.532 30.6986 112.501 30.6358 112.475 30.5647C112.464 30.5249 112.45 30.5001 112.442 30.467L112.434 30.4404L112.333 30.2189L112.327 30.1991C112.327 30.1991 112.313 30.1743 112.31 30.161C111.378 28.0081 109.9 26.0656 107.859 24.4587C102.669 20.3903 95.1077 19.5164 87.9968 21.5425L88.0003 21.5558Z" fill="white"/>
<path id="Vector_15" d="M61.0137 115.179C60.9458 115.19 60.8827 115.193 60.8147 115.204C59.1598 115.434 57.4211 115.246 55.6571 114.645C54.1337 114.122 52.5966 113.283 51.0885 112.102C50.8997 111.954 50.714 111.79 50.5235 111.635C49.5351 110.805 48.6162 109.864 47.7722 108.832C45.4884 106.054 43.6952 102.618 42.5359 98.9265C42.0681 97.4454 41.7062 95.9359 41.4502 94.3981C41.0467 92.0184 40.9101 89.6027 41.0522 87.2473C41.1746 85.2953 41.4989 83.3817 42.0343 81.5678C42.2428 80.8367 42.4883 80.1383 42.7578 79.4761C43.1626 78.472 43.6435 77.5399 44.1673 76.6888C46.0471 73.6972 48.5921 71.7856 51.4491 71.0911C51.4906 71.0871 51.5321 71.0831 51.5669 71.0809L51.4491 71.0911L51.5947 71.0521C51.5417 71.0663 51.4689 71.0858 51.4208 71.0916C47.713 71.4169 44.171 73.4465 41.4875 76.959C40.7867 77.8647 40.1559 78.8725 39.583 79.9642C39.2342 80.6477 38.9123 81.3524 38.6028 82.1034L38.5962 82.1052C37.7954 84.1466 37.2557 86.2886 36.9544 88.4733C36.5774 91.2754 36.6087 94.1458 37.0192 96.9217C37.787 102.196 39.9125 107.164 43.153 110.76C43.8902 111.579 44.6794 112.327 45.5237 112.989C46.6831 113.901 47.8686 114.593 49.0776 115.107C50.9798 115.906 52.9102 116.227 54.8147 116.108C54.843 116.107 54.8862 116.11 54.9211 116.108L55.4719 116.045C55.9216 116.003 56.3749 115.974 56.8211 115.918C57.04 115.888 57.2589 115.858 57.4579 115.833C57.559 115.813 57.675 115.796 57.7827 115.774C58.3913 115.69 58.9879 115.587 59.5995 115.487C59.7006 115.467 59.8131 115.437 59.9159 115.423C60.0867 115.399 60.2539 115.361 60.4296 115.328C60.4693 115.318 60.5108 115.314 60.5505 115.303L60.6497 115.276C60.7971 115.244 60.9595 115.215 61.1135 115.181C61.241 115.153 61.38 115.116 61.5292 115.09C61.7476 115.032 61.9876 114.975 62.2192 114.913C62.0189 114.959 61.8036 115.003 61.5834 115.055C61.3963 115.098 61.1942 115.138 61.0005 115.182L61.0137 115.179Z" fill="white"/>
</g>
<defs>
<clipPath id="clip0_56_1931">
<rect width="107.75" height="99.5145" fill="white" transform="translate(0.693115 28.3807) rotate(-15)"/>
</clipPath>
</defs>
</svg>
