<svg width="163" height="95" viewBox="0 0 163 95" fill="none" xmlns="http://www.w3.org/2000/svg">
<g id="Group 5">
<path id="Vector" d="M55.52 83.1358C55.2383 83.2028 55.0262 83.4098 54.8287 83.6401C55.0262 83.4098 55.2412 83.2058 55.52 83.1387V83.1358Z" fill="#F0FF00"/>
<path id="Vector_2" d="M28.0795 82.3837C27.728 82.2992 27.3708 82.2467 27.0135 82.2088C27.3737 82.2438 27.728 82.2992 28.0795 82.3837Z" fill="#F0FF00"/>
<path id="Vector_3" d="M74.4739 81.2585C74.6714 81.2439 74.8602 81.2206 75.0286 81.1798C74.8602 81.2235 74.6714 81.2439 74.4739 81.2585Z" fill="#F0FF00"/>
<path id="Vector_4" d="M13.5431 46.1444C13.5431 46.1444 13.5431 46.1503 13.5489 46.1619L13.5431 46.1444Z" fill="#F0FF00"/>
<path id="Vector_5" d="M5.5531 71.674C5.31785 72.2337 4.98384 72.7759 4.53076 73.2889C4.98675 72.7788 5.31785 72.2366 5.5531 71.674Z" fill="#F0FF00"/>
<path id="Vector_6" d="M59.8939 89.5459C59.2956 89.5459 58.8658 89.3506 58.6509 88.9017C58.8629 89.3506 59.2956 89.5459 59.8939 89.5459Z" fill="#F0FF00"/>
<path id="Vector_7" d="M18.5938 84.844C18.4573 84.535 18.3062 84.1998 18.1349 83.8383C18.3033 84.1998 18.4544 84.535 18.5938 84.844Z" fill="#F0FF00"/>
<path id="Vector_8" d="M6.95308 51.7821C6.9618 51.4643 7.06635 51.0766 7.05764 50.7968C6.88628 50.6277 6.75559 50.4266 6.73816 50.2342C6.75268 50.4237 6.88628 50.6248 7.05764 50.7968C7.06635 51.0795 6.9618 51.4672 6.95308 51.7821Z" fill="#F0FF00"/>
<path id="Vector_9" d="M4.22583 74.557C4.32458 74.1343 4.42623 73.7116 4.52788 73.2889C4.42623 73.7116 4.32748 74.1343 4.22583 74.557Z" fill="#F0FF00"/>
<path id="Vector_10" d="M58.6857 86.8553C58.6015 86.8291 58.5289 86.7999 58.4563 86.7737C58.5289 86.8028 58.6015 86.8291 58.6857 86.8553Z" fill="#F0FF00"/>
<path id="Vector_11" d="M66.6698 89.2049C67.5789 88.9804 68.4473 88.5373 69.2895 87.9485C68.4473 88.5402 67.5789 88.9833 66.6698 89.2049Z" fill="#F0FF00"/>
<path id="Vector_12" d="M72.6383 83.5118C71.9732 84.1006 71.3052 84.6866 70.6401 85.2725C71.3052 84.6866 71.9732 84.0977 72.6383 83.5118C72.8387 83.5031 73.0304 83.4535 73.2105 83.3632C73.0304 83.4535 72.8417 83.5031 72.6383 83.5118Z" fill="#F0FF00"/>
<path id="Vector_13" d="M67.1839 86.6017C67.2855 86.6017 67.4075 86.5784 67.5556 86.5259C68.0087 86.8961 68.4589 87.2692 68.912 87.6394C68.4618 87.2692 68.0087 86.8961 67.5585 86.5259C67.4075 86.5784 67.2855 86.6017 67.1839 86.6017C66.815 86.6017 66.725 86.2898 66.6407 85.9779C66.725 86.2927 66.8121 86.6017 67.1839 86.6017Z" fill="#F0FF00"/>
<path id="Vector_14" d="M61.4652 89.2544C61.2967 90.1755 62.1041 90.8518 62.624 91.5981C62.107 90.8489 61.2967 90.1726 61.4652 89.2544Z" fill="#F0FF00"/>
<path id="Vector_15" d="M65.9379 85.2317C65.813 85.2317 65.7084 85.325 65.6939 85.4503C65.6794 85.5786 65.7694 85.6952 65.8943 85.7185L65.9117 85.4765L65.9408 85.2317H65.9379Z" fill="#F0FF00"/>
<path id="Vector_16" d="M57.6546 81.6696C58.3023 81.518 58.9587 81.416 59.6296 81.416C60.0362 81.416 60.4486 81.4539 60.8669 81.5355C60.4486 81.4509 60.0362 81.416 59.6296 81.416C58.9587 81.416 58.3023 81.5151 57.6517 81.6696H57.6546Z" fill="#F0FF00"/>
<path id="Vector_17" d="M65.9495 85.2317L65.9292 85.4765L65.9582 85.2317C65.9582 85.2317 65.9524 85.2317 65.9495 85.2317Z" fill="#F0FF00"/>
<path id="Vector_18" d="M24.0714 82.1506C23.2146 82.1506 22.3636 82.1214 21.533 81.9407C21.1148 82.0456 20.6936 82.1535 20.2754 82.2584C20.6936 82.1535 21.1148 82.0485 21.533 81.9407C22.3607 82.1185 23.2117 82.1506 24.0656 82.1506C24.5129 82.1506 24.963 82.1418 25.4103 82.1418C25.9447 82.1418 26.4762 82.1535 27.0048 82.2059C26.4762 82.1535 25.9447 82.1418 25.4074 82.1418C24.963 82.1418 24.5158 82.1506 24.0714 82.1506Z" fill="#F0FF00"/>
<path id="Vector_19" d="M135.669 4.01687C135.559 4.03436 135.448 4.0431 135.341 4.0431C135.451 4.0431 135.562 4.03436 135.672 4.01687H135.669Z" fill="#F0FF00"/>
<path id="Vector_20" d="M3.34875 73.0033C3.59563 73.0616 3.8425 73.1228 4.08937 73.1811C3.8425 73.1199 3.59563 73.0616 3.34875 73.0004V73.0033Z" fill="#F0FF00"/>
<path id="Vector_21" d="M127.165 3.61166C126.825 3.59417 126.509 3.51838 126.207 3.41052C126.509 3.52129 126.822 3.59417 127.165 3.61166Z" fill="#F0FF00"/>
<path id="Vector_22" d="M117.316 2.28247C116.805 2.45154 116.311 2.67891 115.847 3.00539C116.308 2.67891 116.802 2.45446 117.313 2.28247H117.316Z" fill="#F0FF00"/>
<path id="Vector_23" d="M2.21899 71.7265C2.43101 72.088 2.56752 72.5485 2.75921 72.9333C2.56461 72.5485 2.43101 72.085 2.21899 71.7265Z" fill="#F0FF00"/>
<path id="Vector_24" d="M3.57529 72.2832C3.85411 71.1056 3.53753 70.371 2.70398 70.1553C3.53753 70.3739 3.85701 71.1085 3.57529 72.2832Z" fill="#F0FF00"/>
<path id="Vector_25" d="M2.00696 71.8518L2.21898 71.7265L2.00696 71.8489V71.8518Z" fill="#F0FF00"/>
<path id="Vector_26" d="M23.8101 34.4816C23.2873 34.7643 22.8255 35.3094 22.3027 35.5922C22.8255 35.3094 23.2873 34.7643 23.8101 34.4786V34.4816Z" fill="#F0FF00"/>
<path id="Vector_27" d="M35.2039 33.7557C34.806 33.7382 34.4052 33.7207 34.0073 33.7032C34.4052 33.7207 34.806 33.7382 35.2039 33.7586V33.7557Z" fill="#F0FF00"/>
<path id="Vector_28" d="M113.497 1.95891C113.421 2.13381 113.329 2.30288 113.221 2.46029C113.329 2.29996 113.421 2.13381 113.497 1.95599V1.95891Z" fill="#F0FF00"/>
<path id="Vector_29" d="M25.0327 34.4465C25.1518 34.5077 25.2767 34.5865 25.4074 34.6914C25.2767 34.5894 25.1518 34.5077 25.0327 34.4465Z" fill="#F0FF00"/>
<path id="Vector_30" d="M35.6308 32.2924C35.3462 32.2924 35.1574 32.5635 35.1865 33.4409C35.1574 32.5635 35.3433 32.2924 35.6308 32.2924Z" fill="#F0FF00"/>
<path id="Vector_31" d="M25.3784 34.9887L25.5352 34.7993L25.3726 34.9858C25.3726 34.9858 25.3755 34.9858 25.3784 34.9916V34.9887Z" fill="#F0FF00"/>
<path id="Vector_32" d="M51.8344 19.0204C51.085 19.3673 51.0066 20.5362 50.295 20.9326C51.0066 20.5362 51.085 19.3702 51.8344 19.0204Z" fill="#F0FF00"/>
<path id="Vector_33" d="M49.2378 20.2593C49.139 20.4896 49.1332 20.7373 49.4004 21.0259C49.1332 20.7373 49.1361 20.4896 49.2378 20.2593Z" fill="#F0FF00"/>
<path id="Vector_34" d="M46.136 22.3318C46.3102 21.9558 46.499 21.6759 46.7227 21.5127C46.499 21.6759 46.3102 21.9587 46.136 22.3318Z" fill="#F0FF00"/>
<path id="Vector_35" d="M60.3412 84.1794C60.1728 83.8937 60.0362 83.5818 59.9346 83.2466C59.6732 83.3253 59.4147 83.3719 59.1533 83.4011C59.4118 83.3748 59.6732 83.3253 59.9346 83.2466C60.0362 83.5818 60.1698 83.8937 60.3412 84.1794Z" fill="#F0FF00"/>
<path id="Vector_36" d="M105.995 73.2131C106.213 73.1811 106.364 73.0033 106.497 72.7905C106.361 73.0033 106.21 73.1782 105.995 73.2131Z" fill="#F0FF00"/>
<path id="Vector_37" d="M99.2162 75.8512C99.2162 75.8512 99.2191 75.8512 99.222 75.8454L99.2162 75.8512C99.3817 75.9649 99.4747 76.064 99.5008 76.1544C99.4747 76.064 99.3846 75.9649 99.2162 75.8512Z" fill="#F0FF00"/>
<path id="Vector_38" d="M109.207 76.886C108.809 76.8306 108.411 76.7752 108.014 76.7228C108.411 76.7782 108.809 76.8335 109.207 76.886Z" fill="#F0FF00"/>
<path id="Vector_39" d="M111.107 69.7064C111.496 69.0563 111.998 68.8144 112.547 68.7502C111.998 68.8144 111.499 69.0563 111.107 69.7064Z" fill="#F0FF00"/>
<path id="Vector_40" d="M74.7991 85.8438C74.7091 85.6893 74.6161 85.5319 74.5232 85.3745C74.6132 85.5319 74.7062 85.6864 74.7991 85.8438Z" fill="#F0FF00"/>
<path id="Vector_41" d="M94.3542 76.956L94.5721 77.0026C94.6534 77.2358 94.7202 77.4807 94.7928 77.7226C94.7202 77.4836 94.6563 77.2358 94.5721 77.0026C94.5721 77.0026 94.4414 76.9735 94.3542 76.956Z" fill="#F0FF00"/>
<path id="Vector_42" d="M99.2278 75.8425L99.2337 75.8395C99.2337 75.8395 99.2337 75.8395 99.2278 75.8425Z" fill="#F0FF00"/>
<path id="Vector_43" d="M139.814 48.9895C139.398 49.2752 138.96 49.5375 138.515 49.7911C138.957 49.5375 139.395 49.2781 139.814 48.9895L139.674 48.7855C139.209 49.1061 138.704 49.4005 138.266 49.6483C138.146 49.7153 138.106 49.8669 138.173 49.9835C138.219 50.0651 138.3 50.1089 138.388 50.1089C138.428 50.1089 138.472 50.0972 138.509 50.0768C138.954 49.8232 139.471 49.5259 139.953 49.1906L139.814 48.9866V48.9895Z" fill="#F0FF00"/>
<path id="Vector_44" d="M137.687 55.9884C137.641 55.9884 137.595 56.003 137.551 56.0292L137.522 56.0496C137.409 56.1254 137.38 56.2799 137.455 56.3936C137.455 56.3936 137.458 56.3965 137.461 56.3994C137.507 56.4665 137.583 56.5014 137.661 56.5014C137.708 56.5014 137.757 56.4869 137.798 56.4606L137.824 56.4431C137.937 56.3674 137.969 56.2158 137.894 56.1021C137.847 56.0292 137.769 55.9913 137.687 55.9913V55.9884Z" fill="#F0FF00"/>
<path id="Vector_45" d="M119.573 64.2437C119.39 64.3807 119.204 64.5177 119.021 64.6547C118.748 65.054 118.774 65.6516 118.426 66.0043C118.774 65.6545 118.748 65.054 119.021 64.6547C119.204 64.5177 119.39 64.3807 119.573 64.2437C120.325 64.0892 120.671 63.4129 121.095 62.8386C120.671 63.4129 120.325 64.0862 119.573 64.2407V64.2437Z" fill="#F0FF00"/>
<path id="Vector_46" d="M117.177 66.8672C117.43 66.6398 117.694 66.4241 117.981 66.2433C117.694 66.4241 117.43 66.6369 117.177 66.8672Z" fill="#F0FF00"/>
<path id="Vector_47" d="M136.273 58.5653C136.18 58.5565 136.09 58.5507 136.003 58.5507C135.312 58.5507 134.71 58.8101 134.13 59.1075C134.71 58.8072 135.312 58.5507 136.003 58.5507C136.093 58.5507 136.183 58.5536 136.273 58.5653C136.302 57.7899 136.593 57.2273 137.025 56.7813C137.022 56.7784 137.019 56.7725 137.017 56.7696C136.97 56.7317 136.915 56.7142 136.86 56.7142C136.79 56.7142 136.717 56.7463 136.668 56.8046C136.311 57.2389 136.107 57.7345 136.044 58.3087C136.029 58.3087 136.015 58.3087 136 58.3087C135.213 58.3087 134.545 58.6177 133.981 58.9092C133.86 58.9704 133.813 59.122 133.874 59.2415C133.918 59.3261 134.005 59.3756 134.092 59.3756C134.13 59.3756 134.167 59.3669 134.205 59.3494C134.716 59.0841 135.32 58.8043 135.997 58.8043C136.078 58.8043 136.16 58.8072 136.244 58.816C136.253 58.816 136.259 58.816 136.267 58.816C136.325 58.816 136.383 58.7955 136.43 58.7547C136.482 58.711 136.511 58.6469 136.514 58.5769C136.534 58.0056 136.709 57.5304 137.046 57.1194C137.13 57.0174 137.115 56.8716 137.022 56.7842C136.59 57.2302 136.299 57.7928 136.27 58.5682L136.273 58.5653Z" fill="#F0FF00"/>
<path id="Vector_48" d="M128.408 63.5907C127.47 64.3049 126.633 65.4476 125.588 65.6546C126.636 65.4476 127.473 64.302 128.411 63.5907C129.846 63.3809 130.328 62.1245 131.06 61.0926C130.325 62.1245 129.846 63.3809 128.411 63.5907H128.408Z" fill="#F0FF00"/>
<path id="Vector_49" d="M99.0216 76.8627H99.0158C98.9142 76.8627 98.8212 76.9239 98.7805 77.0114C98.7399 76.9822 98.6905 76.9676 98.6411 76.9676C98.615 76.9676 98.5918 76.9706 98.5656 76.9793L97.6304 77.2766C97.6043 77.2854 97.581 77.297 97.5578 77.3145C97.4503 77.3961 97.3458 77.4923 97.2441 77.5856C97.1193 77.7022 96.9886 77.8247 96.8782 77.8859C96.7591 77.9529 96.7155 78.1016 96.7823 78.2211C96.8259 78.3027 96.9101 78.3494 96.9973 78.3494C97.0379 78.3494 97.0786 78.3406 97.1163 78.3173C97.2819 78.2269 97.4329 78.0841 97.581 77.9471C97.6653 77.8684 97.7437 77.7955 97.8221 77.7343L98.7137 77.4486C98.7835 77.4253 98.8357 77.3757 98.8648 77.3145C98.8996 77.3378 98.9403 77.3524 98.9868 77.3524C98.9868 77.3524 99.1145 77.3553 99.1175 77.3553C99.1813 77.3553 99.2423 77.332 99.2888 77.2854C99.3353 77.2387 99.3643 77.1775 99.3643 77.1105C99.3672 76.8656 99.1262 76.8598 99.0245 76.8569L99.0216 76.8627ZM97.7059 77.5157C97.4707 77.6906 97.2354 77.9762 97.0002 78.1045C97.2354 77.9733 97.4707 77.6906 97.7059 77.5157C98.0167 77.4166 98.3275 77.3174 98.6411 77.2183C98.3304 77.3174 98.0196 77.4166 97.7088 77.5157H97.7059ZM99.1146 77.1134H98.9751V77.1105L99.1146 77.1134Z" fill="#F0FF00"/>
<path id="Vector_50" d="M75.8273 86.8203C75.4846 86.4968 75.139 86.1703 74.7963 85.8438C75.139 86.1703 75.4817 86.4968 75.8244 86.8233C76.1032 87.689 76.4605 88.3128 77.0152 88.3128C77.1749 88.3128 77.3492 88.2603 77.5438 88.1496C77.3492 88.2603 77.172 88.3128 77.0152 88.3128C76.4605 88.3128 76.1032 87.6919 75.8244 86.8233L75.8273 86.8203Z" fill="#F0FF00"/>
<path id="Vector_51" d="M82.307 81.9348C82.2489 82.1039 82.1908 82.2758 82.1327 82.4449C81.7493 82.407 81.3659 82.3662 80.9855 82.3283C81.3689 82.3662 81.7522 82.407 82.1356 82.4449C82.1937 82.2729 82.2518 82.1039 82.3099 81.9319C82.3941 80.7367 82.9024 80.1537 83.6604 79.9322C82.9024 80.1537 82.3941 80.7396 82.3099 81.9319L82.307 81.9348Z" fill="#F0FF00"/>
<path id="Vector_52" d="M85.0051 88.7443C84.9209 88.7705 84.8366 88.7967 84.7495 88.823C84.8337 88.7967 84.918 88.7734 85.0051 88.7443Z" fill="#F0FF00"/>
<path id="Vector_53" d="M79.2167 88.3799L79.0627 88.5752L79.2225 88.3857C79.2225 88.3857 79.2225 88.3857 79.2167 88.3828V88.3799Z" fill="#F0FF00"/>
<path id="Vector_54" d="M78.5138 85.9721C78.7171 86.2169 78.7781 86.4385 78.7578 86.6454C78.781 86.4385 78.72 86.2198 78.5138 85.9721C77.9649 85.8438 77.4131 85.7156 76.8641 85.5902C77.4131 85.7185 77.9649 85.8467 78.5138 85.9721Z" fill="#F0FF00"/>
<path id="Vector_55" d="M78.2234 87.5958C78.4819 87.9951 78.7607 88.3187 79.0657 88.5723C78.7636 88.3187 78.4819 87.9951 78.2234 87.5958Z" fill="#F0FF00"/>
<path id="Vector_56" d="M78.6329 81.1857C78.2438 81.3314 77.8546 81.7016 77.4712 82.375C77.8546 81.7016 78.2408 81.3314 78.6329 81.1857Z" fill="#F0FF00"/>
<path id="Vector_57" d="M89.9861 77.676C89.7131 78.1453 89.4401 78.6117 89.1642 79.081C89.4372 78.6146 89.7102 78.1453 89.9832 77.676C90.2098 77.6206 90.4653 77.6352 90.6977 77.6002C90.4624 77.6352 90.2098 77.6206 89.9832 77.676H89.9861Z" fill="#F0FF00"/>
<path id="Vector_58" d="M90.3347 79.4483C90.3753 79.4775 90.4131 79.5066 90.4509 79.5358C90.416 79.5066 90.3783 79.4775 90.3347 79.4483Z" fill="#F0FF00"/>
<path id="Vector_59" d="M90.7702 76.0028L91.2727 76.647C91.3221 76.7082 91.3947 76.7432 91.4673 76.7432C91.5196 76.7432 91.5748 76.7257 91.6183 76.6907C91.7258 76.6062 91.7432 76.4517 91.6619 76.3438L91.1217 75.65C91.0984 75.618 91.0665 75.5917 91.0287 75.5772C90.8429 75.4926 90.6366 75.4489 90.4392 75.4052C90.1661 75.3469 89.9076 75.2915 89.7769 75.1516C89.7276 75.0991 89.6637 75.0729 89.5969 75.0729C89.5359 75.0729 89.4778 75.0962 89.4284 75.1399C89.3297 75.2332 89.3239 75.3906 89.4168 75.4897C89.6521 75.7433 89.9977 75.8162 90.3346 75.8891C90.4943 75.9241 90.6454 75.9561 90.7732 76.0057L90.7702 76.0028ZM90.9242 75.7987C91.1042 76.0319 91.2843 76.2622 91.4644 76.4925C91.2843 76.2622 91.1042 76.029 90.9242 75.7987Z" fill="#F0FF00"/>
<path id="Vector_60" d="M88.5542 79.1219C88.3916 79.1073 88.229 79.0898 88.0692 79.0694C88.2319 79.0898 88.3945 79.1073 88.5542 79.1219Z" fill="#F0FF00"/>
<path id="Vector_61" d="M84.6421 84.3397C84.3197 84.6691 83.9944 85.0014 83.672 85.3308C83.9973 85.0014 84.3197 84.672 84.645 84.3397C84.7292 84.3484 84.8105 84.3513 84.8889 84.3513C84.8076 84.3513 84.7263 84.3484 84.645 84.3397H84.6421Z" fill="#F0FF00"/>
<path id="Vector_62" d="M60.6259 17.0003C60.6026 17.012 60.5794 17.0207 60.5562 17.0324C60.5794 17.0236 60.6026 17.012 60.6259 17.0003Z" fill="#F0FF00"/>
<path id="Vector_63" d="M59.5425 17.3122C59.5715 17.2305 59.6006 17.1431 59.6238 17.0527C59.6006 17.146 59.5744 17.2305 59.5425 17.3122Z" fill="#F0FF00"/>
<path id="Vector_64" d="M87.5988 88.7442C87.5988 88.7442 87.6191 88.7443 87.6278 88.7472C87.7846 88.7734 87.9415 88.8171 88.0925 88.8608C88.2406 88.9046 88.4062 88.9512 88.4991 88.957C88.9929 88.6364 89.4779 88.3332 89.9571 88.0505C89.6405 88.1496 89.3065 88.2429 88.9551 88.3391C88.4933 88.4673 88.0228 88.5985 87.5988 88.7413V88.7442Z" fill="#F0FF00"/>
<path id="Vector_65" d="M101.636 75.8395L101.688 76.0786L101.633 75.8395H101.636ZM161.75 21.8712C161.678 21.7663 161.649 21.6351 161.672 21.5069C161.701 21.3378 161.744 21.1716 161.782 21.0084C161.855 20.7198 161.962 20.2855 161.872 20.1718C161.861 20.1572 161.744 20.0289 161.198 20.0289H161.175C161.021 20.0289 160.879 19.959 160.786 19.8395C160.693 19.717 160.661 19.5596 160.696 19.411C160.983 18.2974 160.44 17.7494 159.528 16.9536C159.096 16.5718 158.648 16.1811 158.338 15.6739L158.201 15.4874L157.742 14.8548C157.702 14.8024 157.675 14.7411 157.661 14.677L157.016 11.9282C156.781 11.1528 156.313 10.8205 155.442 10.8205C155.326 10.8205 155.201 10.8263 155.073 10.838C155.056 10.838 155.041 10.838 155.027 10.838C154.916 10.838 154.806 10.8001 154.719 10.7301C154.367 10.4473 154.277 10.0218 154.208 9.6807C154.1 9.156 154.057 9.156 153.83 9.156C153.798 9.156 153.766 9.156 153.728 9.156C153.717 9.156 153.702 9.156 153.688 9.156C153.519 9.156 153.357 9.06855 153.269 8.91988C152.439 7.57607 151.091 7.10092 149.659 6.59954C148.948 6.34885 148.213 6.09233 147.533 5.72213C147.252 5.57929 146.976 5.42188 146.706 5.27322C146.096 4.92925 145.518 4.60277 144.911 4.44536C144.519 4.34042 144.196 4.00519 143.885 3.68163C143.7 3.49215 143.36 3.13944 143.226 3.13944C143.226 3.13944 143.003 3.21523 142.7 4.10139C142.529 4.6086 142.131 4.64649 142.012 4.64649C141.55 4.64649 141.205 4.18301 141.109 3.96147C140.789 3.19774 140.246 3.08988 139.32 2.96454C138.89 2.90915 138.44 2.84794 138.019 2.67012C137.946 2.63806 137.882 2.59142 137.833 2.53312C137.455 2.08421 137.063 1.87433 136.587 1.87433C136.224 1.87433 135.803 1.99676 135.306 2.25036C135.233 2.28826 135.158 2.30575 135.082 2.30575C134.989 2.30575 134.896 2.27951 134.812 2.22413C134.165 1.79271 133.636 1.577 133.241 1.577C133.023 1.577 132.454 1.58283 132.088 3.01118C132.033 3.2298 131.835 3.38138 131.612 3.38138C131.6 3.38138 131.588 3.38138 131.571 3.38138C131.391 3.36972 131.208 3.33766 131.034 3.29102C130.897 3.25312 130.784 3.16276 130.717 3.03741L129.997 1.63238C129.73 1.71983 129.454 1.76064 129.154 1.76064C128.533 1.76064 127.94 1.577 127.365 1.39627C126.84 1.23303 126.34 1.07853 125.87 1.07853C125.495 1.07853 125.17 1.18347 124.862 1.39627L124.824 1.77522L124.958 1.97927L124.978 2.0055C125.129 2.23287 125.068 2.53895 124.842 2.69053C124.757 2.74591 124.661 2.77506 124.568 2.77506C124.412 2.77506 124.252 2.69927 124.159 2.55644L123.909 2.17749C123.845 2.08129 123.816 1.96469 123.828 1.85101L123.883 1.32339C123.77 1.24177 123.633 1.21262 123.421 1.21262C123.311 1.21262 123.192 1.22137 123.07 1.23011C122.933 1.23886 122.791 1.25052 122.646 1.25052C122.44 1.25052 122.126 1.23303 121.815 1.07562C121.731 1.03481 121.661 0.973593 121.615 0.894888C121.275 0.346868 121.092 0.320633 121.089 0.320633C120.953 0.320633 120.619 0.795778 120.459 1.02315C120.404 1.10477 120.346 1.1893 120.287 1.26801C120.197 1.39335 120.046 1.46914 119.892 1.46914C119.884 1.46914 119.869 1.46914 119.861 1.46914C119.303 1.43416 118.92 0.973593 118.58 0.562578C118.408 0.355613 118.121 0.00872803 117.99 0.00872803C117.99 0.00872803 117.772 0.017473 117.351 0.752053C117.264 0.906548 117.098 0.999828 116.924 0.999828C116.884 0.999828 116.849 0.993998 116.808 0.988168C116.523 0.918208 116.233 0.883228 115.922 0.883228C115.179 0.883228 114.426 1.08436 113.793 1.2855C113.744 1.30007 113.695 1.30882 113.645 1.30882C113.538 1.30882 113.427 1.27092 113.343 1.20388C113.282 1.15432 113.233 1.09311 113.201 1.02315C113.029 1.23594 112.844 1.38461 112.594 1.38461C112.396 1.38461 112.077 1.29716 111.987 0.757883C111.603 0.317718 111.426 0.306058 111.406 0.306058C111.284 0.306058 111.04 0.687923 110.909 0.891973C110.642 1.30882 110.334 1.78396 109.82 1.90639C109.782 1.91514 109.747 1.91805 109.707 1.91805C109.66 1.91805 109.614 1.91222 109.57 1.89765C108.737 1.65279 108.043 1.46623 107.372 1.46623C106.701 1.46623 106.161 1.6557 105.655 2.0638C105.583 2.18623 105.461 2.26785 105.321 2.29409L104.639 2.41943L104.128 2.51563C104.096 2.52146 104.067 2.52437 104.037 2.52437C103.875 2.52437 103.721 2.44275 103.628 2.30283C103.189 1.63821 102.963 1.5391 102.867 1.5391C102.745 1.5391 102.437 1.67902 101.775 2.61765C101.682 2.74883 101.531 2.82462 101.374 2.82462H101.328C101.238 2.81587 101.156 2.81296 101.081 2.81296C100.814 2.81296 100.634 2.8596 100.541 2.95579C100.419 3.07822 100.401 3.326 100.404 3.51256C100.404 3.63499 100.366 3.74867 100.288 3.84195C99.9423 4.25588 99.5067 4.46576 98.9868 4.46576C98.5918 4.46576 98.2171 4.34625 97.8512 4.23256C97.5433 4.13637 97.2529 4.046 97.006 4.046C96.823 4.046 96.6226 4.08681 96.4048 4.38997C96.338 4.48034 96.2451 4.54447 96.1376 4.57653C96.0534 4.59985 95.9227 4.7456 95.8065 4.87095C95.5655 5.13913 95.2344 5.50642 94.7 5.50642C94.3776 5.50642 94.0494 5.37233 93.6892 5.09249C93.7125 5.27322 93.7241 5.44229 93.7008 5.58804C93.6776 5.73379 93.5876 5.86205 93.4569 5.93784C93.3843 5.98156 93.3 6.00488 93.2129 6.00488C93.1548 6.00488 93.0909 5.99322 93.0328 5.9699C92.9051 5.91743 92.7656 5.89411 92.5943 5.89411C92.3939 5.89411 92.1761 5.92909 91.9437 5.96699C91.6765 6.0078 91.3977 6.05444 91.0956 6.05444C90.5467 6.05444 90.0675 5.89994 89.626 5.57929C89.5505 5.52391 89.4953 5.49767 89.4663 5.48893C89.3762 5.61136 89.2775 5.98156 89.2223 6.18561C89.1671 6.38383 89.1148 6.58788 89.0422 6.76278C88.9871 6.89687 88.8796 6.9989 88.7431 7.04554C88.6937 7.06303 88.6385 7.07177 88.5891 7.07177C88.4991 7.07177 88.412 7.04845 88.3336 6.9989C88.1187 6.86772 87.7207 6.62578 87.4913 6.62578C87.3548 6.62578 87.2241 6.79485 87.1108 7.13007C87.0673 7.26125 86.9685 7.36619 86.8436 7.42157C86.7797 7.45072 86.7129 7.46238 86.6461 7.46238H86.6316C86.7333 7.53234 86.8088 7.63728 86.8378 7.76554C86.8785 7.94627 87.0063 8.15324 87.1428 8.37478C87.1805 8.43599 87.2154 8.49721 87.2532 8.56134C87.3316 8.69251 87.3432 8.85575 87.288 8.99859C87.2299 9.14142 87.1079 9.24928 86.9569 9.29009C85.7429 9.61948 84.5317 9.94596 83.3177 10.2724L82.1356 10.5902C82.0921 10.6018 82.0485 10.6077 82.0079 10.6077C81.79 10.6077 81.5925 10.4648 81.5315 10.2433C81.4589 9.98094 81.6158 9.70985 81.8801 9.63697L84.0177 9.0598L86.0769 8.50304C85.9897 8.3398 85.9171 8.1649 85.8736 7.97542C85.8184 7.71016 85.9839 7.44781 86.2482 7.38659C86.2802 7.37785 86.3121 7.37785 86.3441 7.37493C85.8184 7.15631 85.3334 7.0572 84.8251 7.0572C84.4911 7.0572 84.1397 7.10092 83.7563 7.19129C82.3419 7.52068 81.1278 8.17364 79.8412 8.8645C79.5449 9.02191 79.2487 9.18223 78.9495 9.33964C78.8769 9.37754 78.8014 9.39503 78.723 9.39503C78.694 9.39503 78.662 9.39503 78.633 9.38628L78.4703 9.35713L77.5496 9.18806C77.2389 9.30466 76.9165 9.45624 76.5767 9.61657C75.8244 9.97511 75.0461 10.3453 74.2938 10.3453C74.1399 10.3453 73.9889 10.3307 73.8437 10.2987C73.5794 10.2404 73.3615 10.2083 73.1931 10.2083C73.0711 10.2083 73.0101 10.2229 72.984 10.2316C72.9607 10.3278 73.0072 10.5902 73.0333 10.7505C73.0885 11.0653 73.1466 11.4239 73.0479 11.7474C73.013 11.8553 72.9433 11.9486 72.8475 12.0127C72.6122 12.1701 72.4089 12.243 72.2114 12.243C71.6044 12.243 71.4708 11.6308 71.4156 11.3656C71.4098 11.3539 71.4069 11.3393 71.4069 11.3248C70.7795 11.4472 70.4543 11.7999 70.3642 12.4645C70.3439 12.619 70.2539 12.7502 70.1203 12.826C70.0447 12.8697 69.9605 12.8901 69.8763 12.8901C69.8124 12.8901 69.7456 12.8785 69.6846 12.8522C69.2577 12.6686 68.8743 12.3683 68.5025 12.0768C68.0262 11.7008 67.5731 11.3452 67.1491 11.3452C66.818 11.3452 66.4608 11.5725 66.0716 12.0389C65.5459 13.1437 64.6804 13.887 63.841 14.61C63.5448 14.8636 63.263 15.1055 62.9929 15.3649L62.9494 15.4349C62.5369 16.0762 62.0664 16.7991 61.1138 17.0323C61.1051 17.2014 61.0151 17.3588 60.8611 17.4463C60.6607 17.5541 60.4313 17.6095 60.1554 17.6095C60.0915 17.6095 60.0276 17.6095 59.9637 17.6008C59.7546 18.1225 59.4177 18.5336 58.9442 18.8513C58.86 18.9067 58.7642 18.9358 58.6712 18.9358C58.5144 18.9358 58.3547 18.86 58.2617 18.7172C58.1078 18.4927 58.1717 18.1838 58.3982 18.0322C58.7845 17.7727 59.0198 17.4259 59.1446 16.9449C59.1998 16.7233 59.3973 16.5718 59.621 16.5718C59.6442 16.5718 59.6645 16.5718 59.6849 16.5776L59.74 16.5834C59.894 16.6067 60.0363 16.6242 60.1583 16.6242C60.2628 16.6242 60.3383 16.6126 60.3877 16.5834C60.4255 16.563 60.4603 16.5455 60.4981 16.5368C60.4923 16.2686 60.5736 15.9625 60.652 15.6681C60.684 15.5515 60.7275 15.3883 60.7537 15.2542C60.7537 15.2542 60.7479 15.2542 60.7449 15.2542C60.2802 15.397 59.7807 15.4961 59.2986 15.5923C57.7825 15.8926 56.3477 16.1724 55.671 17.7465C55.6362 17.834 55.5781 17.9039 55.5026 17.9564L54.6574 18.5481C54.5732 18.6035 54.4744 18.6356 54.3757 18.6356C54.335 18.6356 54.2972 18.6356 54.2595 18.6239C54.0242 18.586 52.2961 18.5161 51.48 18.5161C51.3551 18.5161 51.2912 18.5161 51.2622 18.5219C51.2273 18.5306 51.1925 18.5306 51.1576 18.5306H51.1315C51.0995 18.5306 51.0676 18.5306 51.0356 18.5306C50.5535 18.5306 50.3037 18.7347 50.1788 19.2361C50.1208 19.4576 49.9233 19.6063 49.7025 19.6063C49.6648 19.6063 49.627 19.6063 49.5864 19.5946C49.2465 19.5101 48.8719 19.4664 48.5321 19.4664C47.8989 19.4664 47.4255 19.6179 47.2629 19.8686C46.1708 21.5768 44.5879 21.9849 43.0573 22.3784C42.6304 22.4863 42.1918 22.6 41.7794 22.7399C41.7533 22.7486 41.7242 22.7574 41.6981 22.7603C41.2944 22.8244 40.8849 22.8827 40.4899 22.941C39.5721 23.0722 38.6195 23.2092 37.7162 23.4249C37.6087 23.4512 37.5419 23.4803 37.5042 23.4978C37.5361 23.559 37.6145 23.6727 37.7859 23.8155C37.905 23.9146 37.9689 24.0633 37.9602 24.212C37.9543 24.3665 37.8788 24.5064 37.754 24.5938L36.9698 25.1535L35.5815 26.1446C35.4944 26.2058 35.3956 26.235 35.2969 26.235C35.2301 26.235 35.1603 26.2233 35.0965 26.1942C34.7508 26.0426 34.4372 25.9668 34.1583 25.9668C33.3422 25.9668 32.7962 26.6373 32.1747 27.7216C32.0875 27.8761 31.9249 27.9694 31.7477 27.9694H31.7332C31.7158 27.9694 31.6954 27.9694 31.678 27.9694C30.8967 27.9694 30.4582 28.3717 30.1677 29.3599C30.1271 29.5027 30.0225 29.6193 29.886 29.6776C29.825 29.7009 29.7611 29.7155 29.6972 29.7155C29.6159 29.7155 29.5346 29.6951 29.462 29.6543C29.0641 29.4357 28.823 29.389 28.6952 29.389C28.3612 29.389 28.2189 29.7913 28.0098 30.7561L27.9982 30.8144C27.9488 31.0447 27.7455 31.2021 27.5189 31.2021C27.4957 31.2021 27.4754 31.2021 27.4551 31.2021C26.9177 31.1293 26.5315 31.0797 26.2962 31.0797H26.2788C26.2962 31.2342 26.3427 31.482 26.3862 31.7064C26.3979 31.7735 26.3979 31.8434 26.3862 31.9105C25.9913 33.6712 24.6494 33.6712 23.9233 33.6712C23.8507 33.6712 23.7752 33.6712 23.7026 33.6712H23.4848C22.9359 33.6712 22.5699 33.7149 22.3288 33.9481C22.2388 34.0384 22.1139 34.0851 21.989 34.0851H21.96C21.9309 34.0851 21.9019 34.0851 21.8699 34.0851C21.2949 34.0851 21.08 34.4349 20.7198 35.1112C20.4323 35.6533 20.075 36.3209 19.3228 36.5628C19.3461 36.6007 19.3606 36.6386 19.3722 36.6853C19.4216 36.8835 19.4767 37.0496 19.5348 37.1808C19.6452 37.4315 19.5348 37.723 19.2851 37.8309C19.2212 37.86 19.1544 37.8746 19.0876 37.8746C18.8988 37.8746 18.7187 37.7638 18.6374 37.5773C18.5561 37.3936 18.4835 37.1808 18.4196 36.9272C18.3644 36.6998 18.4747 36.4666 18.6722 36.3646C18.6432 36.3151 18.6229 36.2597 18.6141 36.2014C18.4283 35.1753 18.2133 35.0558 18.2104 35.0558C18.1872 35.0558 17.9287 35.0791 17.223 35.9128C16.8425 36.3588 16.9093 36.7611 17.0574 37.4315C17.1765 37.9766 17.3101 38.5946 17.0051 39.2301C16.9238 39.402 16.7524 39.5099 16.5608 39.5099H16.5462L15.3729 39.4749C15.2044 39.4662 15.0476 39.3729 14.9605 39.2271C14.9517 39.6119 14.8269 40.0288 14.3622 40.3552L12.6805 41.8069L12.0241 42.3724C12.0241 42.4949 11.9835 42.6173 11.9021 42.7106C11.8092 42.8155 11.6727 42.8767 11.5333 42.8767C11.5159 42.8767 11.4984 42.8767 11.481 42.8767L11.2719 42.8534C10.8972 42.8126 10.511 42.7718 10.1711 42.7718C9.65998 42.7718 9.33759 42.8651 9.15461 43.0662C8.93679 43.3023 8.85256 43.7541 8.90484 44.4013C8.91065 44.4625 8.91646 44.5179 8.92517 44.5703C8.96583 44.9026 9.04715 45.5877 8.12937 45.7801C5.59095 46.3077 4.87067 48.3044 4.46986 50.3828C4.45534 50.4528 4.4292 50.5169 4.38854 50.5752C4.19395 50.8463 3.96741 51.1087 3.74668 51.3623C3.33135 51.8403 2.8986 52.3301 2.84342 52.7731C2.73305 53.6593 2.26835 54.4434 1.81817 55.1984C1.01947 56.5452 0.389223 57.6091 1.53645 59.0637C1.66134 59.2211 1.67586 59.4427 1.57711 59.6176C-0.325252 62.9348 -0.490801 66.5932 1.06013 71.1347C1.09499 71.2338 1.09789 71.3417 1.06594 71.4408C0.891679 72.0034 1.15017 72.2891 1.65843 72.7788C1.99824 73.1082 2.38162 73.4784 2.53846 74.006C2.57331 74.1284 2.56169 74.2625 2.5007 74.3733C2.52394 74.3879 2.55007 74.4054 2.58493 74.4258C2.66625 74.4724 2.73305 74.5424 2.77662 74.6269C2.91312 74.8951 2.99444 75.1749 3.07577 75.4489C3.27907 76.1398 3.40106 76.4779 3.99645 76.5508C4.04002 76.5566 4.08649 76.5683 4.12715 76.5858C4.9607 76.9356 5.24243 77.6935 5.46897 78.2998C5.6868 78.8799 5.83782 79.2472 6.22991 79.4308C6.288 79.4571 6.34318 79.5008 6.38675 79.5503C6.44774 79.6174 6.49131 79.7048 6.50583 79.7923C6.55811 80.0896 6.70623 80.1508 7.26387 80.2674C7.76923 80.3724 8.53308 80.5327 8.75962 81.3955C8.76833 81.4276 8.77124 81.4597 8.77414 81.4946C8.79738 81.8853 8.84675 81.8852 9.18075 81.8852C9.24175 81.8852 9.30274 81.8852 9.36663 81.8852C9.43924 81.8852 9.51766 81.8794 9.59027 81.8794C9.90975 81.8794 10.6533 81.8794 11.1499 82.5936C12.7415 84.8702 15.2974 85.9925 19.1776 86.1091C19.2357 86.0624 19.2996 86.0246 19.3722 86.0041C19.4129 85.9925 19.4593 85.9867 19.5029 85.9867C19.6103 85.9867 19.7207 86.0246 19.8078 86.0916C19.8863 86.1528 19.9444 86.2373 19.9734 86.3277C22.2359 87.5316 24.7976 88.0913 28.0069 88.0913C28.672 88.0913 29.3632 88.068 30.1242 88.0213C30.1329 88.0213 30.1445 88.0213 30.1532 88.0213C30.2113 88.0213 30.2723 88.0301 30.3246 88.0534C30.3972 88.0155 30.4727 87.9951 30.5511 87.9951C30.6615 87.9951 30.7689 88.0359 30.8619 88.1059C30.9345 88.1671 31.01 88.2312 31.0826 88.2924C31.4137 88.5723 31.7535 88.8608 32.0294 88.8608C32.1979 88.8608 32.3925 88.7442 32.6103 88.514C32.7033 88.4148 32.834 88.3595 32.9676 88.3595C32.9995 88.3595 33.0314 88.3595 33.0634 88.3682C34.3587 88.6247 35.625 89.0357 36.8507 89.4322C38.8373 90.0764 40.7164 90.6885 42.7582 90.7177C42.9121 90.7177 43.0573 90.7935 43.1474 90.9188C43.5366 91.4464 44.0535 91.5222 44.8697 91.6068C45.4447 91.6651 46.0372 91.7263 46.5832 92.0528C46.6646 92.1023 46.7314 92.1752 46.772 92.2568C46.9928 92.7028 47.2193 92.7961 47.5184 92.7961C47.7363 92.7961 47.986 92.7407 48.2503 92.6853C48.5553 92.6183 48.869 92.5512 49.1914 92.5512C49.598 92.5512 49.9378 92.6591 50.2282 92.8835C50.3095 92.9448 50.3676 93.0293 50.3967 93.1226C50.4983 93.4345 50.5826 93.5948 50.6319 93.6735C50.6929 93.6123 50.7946 93.4928 50.9311 93.2596C50.9892 93.1634 51.0763 93.0905 51.1809 93.0497L51.4626 92.9448L51.753 92.8369C51.8082 92.8136 51.8663 92.8048 51.9244 92.8048C51.9825 92.8048 52.0464 92.8165 52.1015 92.8398C52.299 92.9156 52.4907 93.0118 52.6737 93.1022C53.0048 93.2654 53.3185 93.4199 53.5712 93.4199H53.5915C53.6467 93.4199 53.6989 93.4199 53.7541 93.4199C54.306 93.4199 54.8549 93.5161 55.3864 93.6065C55.9005 93.6968 56.3884 93.7785 56.8589 93.7785C57.6286 93.7785 58.2007 93.5423 58.7148 93.006C58.8106 92.9069 58.9384 92.8544 59.0691 92.8544C59.1446 92.8544 59.2202 92.8719 59.287 92.9069C59.3189 92.8981 59.3508 92.8981 59.3799 92.8981C59.5513 92.8981 59.7139 92.9885 59.8039 93.1401C60.2657 93.9155 60.7333 94.0146 61.0935 94.0146C61.5611 94.0146 62.0868 93.828 62.6444 93.6269C62.7519 93.5861 62.8622 93.5482 62.9726 93.5074C63.0452 93.4695 63.1265 93.452 63.2079 93.452C63.2659 93.452 63.3269 93.4607 63.3821 93.484C63.812 93.6502 64.3667 93.8397 64.8924 93.8397C65.3222 93.8397 65.7085 93.7143 66.0716 93.4578C66.1384 93.4112 66.211 93.382 66.2923 93.3703C67.5528 93.2042 68.8394 93.1138 70.0854 93.0235C73.3064 92.7961 76.3472 92.5833 79.2371 91.1899C79.3039 91.1579 79.3765 91.1404 79.4491 91.1404C79.5624 91.1404 79.6727 91.1812 79.7657 91.2541C80.0009 91.4494 80.2304 91.5426 80.4656 91.5426C80.8781 91.5426 81.3195 91.2628 81.7697 90.9509C81.9643 90.8139 82.1502 90.639 82.3477 90.4553C82.8414 89.9919 83.3961 89.4701 84.2413 89.4701C84.4708 89.4701 84.7089 89.5109 84.9529 89.5925C85.1359 89.6246 85.3159 89.6654 85.4902 89.7091C85.7923 89.782 86.0798 89.849 86.3237 89.849C86.5939 89.849 86.8756 89.7907 87.0818 89.1057C87.105 89.0299 87.1457 88.9629 87.198 88.9075C87.1805 88.9133 87.166 88.9191 87.1486 88.9279C87.0876 88.9512 87.0266 88.9658 86.9627 88.9658C86.8669 88.9658 86.771 88.9366 86.6897 88.8812C86.5532 88.7909 86.4719 88.6364 86.4719 88.4702C86.4719 88.4382 86.4719 88.4032 86.4806 88.3711C86.5125 88.2108 86.6229 88.0738 86.7768 88.0126C87.3519 87.7765 88.0344 87.5841 88.6995 87.4033C89.0858 87.2955 89.4518 87.1935 89.7829 87.0885C89.8322 87.074 89.8845 87.0652 89.9339 87.0652C90.143 87.0652 90.3347 87.1993 90.4015 87.4092C90.4538 87.5666 90.4189 87.7327 90.3289 87.8552C93.0125 86.3102 95.5219 85.3337 98.0952 84.8294C98.5628 84.465 99.1117 84.2814 99.6432 84.1065C100.584 83.7917 101.174 83.5614 101.429 82.7423C101.493 82.5353 101.685 82.3954 101.9 82.3954C101.917 82.3954 101.938 82.3954 101.955 82.3954C102.065 82.407 102.179 82.4158 102.286 82.4158C103.152 82.4158 103.91 82.0281 104.807 81.1244C104.83 81.0545 104.833 80.9874 104.827 80.9087C104.807 80.7397 104.877 80.5764 105.005 80.4715C105.013 80.4627 105.028 80.454 105.037 80.4482C104.964 80.3403 104.935 80.2004 104.967 80.0663L105.054 79.6932L105.109 79.4483C105.15 79.2647 105.292 79.1247 105.472 79.081C105.716 79.0198 105.789 78.8741 105.931 78.3668L105.951 78.3027C106.01 78.087 106.204 77.9413 106.425 77.9413C106.445 77.9413 106.466 77.9413 106.483 77.9471C106.881 77.9937 107.285 78.0433 107.682 78.0899C107.953 78.122 108.144 78.3668 108.112 78.6379C108.083 78.8886 107.871 79.0752 107.624 79.0752C107.604 79.0752 107.584 79.0752 107.566 79.0694L106.776 78.9761C106.654 79.3288 106.448 79.7165 106.01 79.9293L105.975 80.0838L105.925 80.2878C105.911 80.3578 105.882 80.4161 105.844 80.4715C105.902 80.4773 105.966 80.4802 106.024 80.4802C106.663 80.4802 107.168 80.0721 107.752 79.597C107.999 79.3988 108.252 79.1947 108.525 79.0169C108.603 78.9644 108.693 78.9382 108.783 78.9353C108.969 78.9353 109.019 78.8974 109.187 78.4776C109.228 78.3756 109.271 78.2736 109.323 78.1657C109.411 77.9937 109.582 77.8946 109.765 77.8946C109.806 77.8946 109.849 77.9004 109.89 77.9092C109.971 77.9325 110.052 77.9558 110.137 77.9821C110.32 78.0374 110.508 78.0899 110.639 78.0899C110.715 78.0899 110.802 78.0899 110.906 77.8072C110.944 77.711 111.008 77.6293 111.092 77.571L112.634 76.5246L113.265 75.8745C113.314 75.825 113.369 75.7841 113.433 75.7608C116.323 74.5948 118.632 73.2131 120.485 71.5428C120.578 71.4583 120.697 71.4175 120.816 71.4175C120.871 71.4175 120.929 71.4262 120.985 71.4466C121.054 71.4204 121.066 71.3359 121.104 71.0706C121.121 70.9482 121.141 70.8083 121.176 70.6712C121.217 70.5342 121.31 70.4206 121.44 70.3593C121.507 70.3273 121.577 70.3098 121.653 70.3098C121.719 70.3098 121.786 70.3244 121.847 70.3506C122.065 70.4468 122.251 70.4934 122.399 70.4934C122.695 70.4934 122.837 70.2748 123.119 69.6248C123.372 69.033 123.691 68.2955 124.528 68.2168C126.424 68.0419 127.548 66.7768 128.739 65.4359C128.925 65.226 129.111 65.0161 129.303 64.8092C129.381 64.7217 129.491 64.6663 129.608 64.6547C130.386 64.5672 130.868 63.9755 131.426 63.2875C132.091 62.4713 132.843 61.5444 134.214 61.5444C134.301 61.5444 134.385 61.5502 134.472 61.556C134.493 61.556 134.51 61.556 134.528 61.5648C134.565 61.5735 134.6 61.5735 134.629 61.5735C134.774 61.5735 134.862 61.4919 135.091 61.2062C135.228 61.0372 135.384 60.8419 135.599 60.6932L136.479 59.81L137.165 59.1191C137.237 59.0462 137.324 58.9996 137.42 58.9821C137.757 58.918 137.833 58.746 137.978 58.2271C138.039 58.0056 138.103 57.7753 138.222 57.5537C138.309 57.3905 138.478 57.2914 138.658 57.2914C138.707 57.2914 138.756 57.3001 138.806 57.3147C138.916 57.3526 139.012 57.3701 139.09 57.3701C139.326 57.3701 139.439 57.169 139.668 56.5743L139.683 56.5306C139.738 56.3848 139.86 56.277 140.008 56.2303C140.052 56.2187 140.098 56.2128 140.145 56.2128C140.211 56.2128 140.275 56.2245 140.333 56.2507C140.36 56.242 140.386 56.2332 140.412 56.2274C140.993 56.105 141.245 55.694 141.603 55.0352C141.858 54.563 142.149 54.0295 142.669 53.6768C142.744 53.6272 142.831 53.5981 142.918 53.5923C143.54 53.5602 143.656 53.4174 143.668 53.4028C143.74 53.2978 143.624 52.9189 143.546 52.6682C143.438 52.3184 143.328 51.9628 143.366 51.6042C143.38 51.4614 143.456 51.336 143.569 51.2544C143.549 51.2311 143.528 51.2136 143.511 51.1903C143.502 51.1786 143.49 51.167 143.482 51.1582C143.293 50.96 143.296 50.6481 143.49 50.4586C143.586 50.3654 143.708 50.3187 143.833 50.3187C143.917 50.3187 144.002 50.342 144.077 50.3828L144.864 50.173L144.928 50.1584L144.989 50.1409C145.03 50.1292 145.073 50.1234 145.114 50.1234C145.332 50.1234 145.532 50.2721 145.59 50.4907C145.66 50.756 145.5 51.0241 145.242 51.097L145.178 51.1116L145.117 51.1291L144.6 51.2661C144.704 51.2952 144.809 51.3273 144.914 51.3594C145.163 51.4381 145.422 51.5197 145.611 51.5197C145.733 51.5197 145.953 51.5197 146.072 50.7268C146.11 50.4849 146.316 50.3071 146.557 50.3071H146.581C146.63 50.3071 146.679 50.3129 146.726 50.3129C147.321 50.3129 147.446 50.1263 147.484 49.7386C147.496 49.6279 147.542 49.5258 147.62 49.4442C147.963 49.0886 148.198 48.6251 148.451 48.1354C148.846 47.3658 149.29 46.4972 150.234 45.9899C150.383 45.8937 150.554 45.818 150.722 45.7422C150.757 45.7276 150.795 45.7072 150.839 45.6897C150.766 45.646 150.676 45.5906 150.557 45.5323C150.467 45.4856 150.394 45.4128 150.351 45.3282V45.5585L150.342 45.3166V45.3107H150.336V45.5585C150.019 45.5585 149.834 45.6285 149.68 45.8005C149.604 45.885 149.505 45.9375 149.395 45.9579C148.811 46.0541 148.39 46.3077 148.03 46.777C147.934 46.9053 147.789 46.9694 147.641 46.9694C147.536 46.9694 147.429 46.9373 147.342 46.8674C147.124 46.6983 147.086 46.3893 147.252 46.1736C147.728 45.5527 148.326 45.1708 149.076 45.0105C149.404 44.7132 149.816 44.5674 150.336 44.5674H150.351V44.6345C150.412 44.203 150.566 43.5326 151.222 43.5326C151.387 43.5326 151.553 43.5821 151.733 43.6842C152.035 43.8562 152.209 43.9174 152.297 43.9349C152.317 43.8299 152.326 43.6579 152.331 43.5443C152.343 43.3023 152.357 43.0487 152.436 42.8213C152.503 42.6173 152.692 42.4861 152.901 42.4861H152.924C152.959 42.4861 152.991 42.4861 153.026 42.4861C153.824 42.4861 154.057 42.0226 154.437 41.1394C154.521 40.9382 154.608 40.7284 154.713 40.5301C154.759 40.4369 154.838 40.3611 154.931 40.3115C155.747 39.9063 156.017 39.1309 156.331 38.2331C156.534 37.653 156.743 37.0555 157.115 36.5395L157.034 36.5162C156.845 36.4608 156.705 36.2976 156.682 36.0993C156.595 35.3648 156.929 35.0004 157.222 34.8226C157.539 34.636 157.911 34.5894 158.271 34.5457C158.535 34.5165 158.895 34.4728 158.974 34.3678C159.006 34.3241 159.023 34.2017 158.982 33.9889L158.436 31.7706L157.885 29.5289C157.434 29.1471 156.551 28.2988 157.005 27.264C157.083 27.0774 157.266 26.9667 157.455 26.9667C157.521 26.9667 157.588 26.9783 157.652 27.0075C157.902 27.1153 158.015 27.4068 157.905 27.6575C157.858 27.7712 157.707 28.1152 158.634 28.8672C158.718 28.9343 158.776 29.0276 158.802 29.1325L159.589 32.3361C159.868 31.3508 159.9 30.3072 159.932 29.2229C159.952 28.4941 159.976 27.7391 160.08 26.9987L160.228 26.0892L160.382 25.171C160.391 24.4335 160.899 23.9409 161.347 23.5065C161.997 22.8769 162.241 22.5883 161.762 21.8887L161.75 21.8712ZM2.00696 71.8518V71.846L2.21898 71.7236L2.00696 71.8489V71.8518ZM4.2288 74.5569C4.33045 74.1343 4.43211 73.7116 4.53086 73.2889C4.4292 73.7116 4.33045 74.1343 4.23171 74.5569H4.2288ZM113.3 2.34073C113.276 2.38154 113.25 2.42235 113.224 2.46316C113.25 2.42235 113.279 2.38445 113.302 2.34073H113.3ZM25.5382 34.7963L25.3813 34.9858H25.3755L25.5382 34.7993V34.7963ZM24.0657 82.1534C23.6387 82.1534 23.2147 82.1447 22.7935 82.1126C23.2176 82.1418 23.6416 82.1505 24.0715 82.1505C24.2922 82.1505 24.5158 82.1505 24.7366 82.1505C24.5158 82.1505 24.2922 82.1563 24.0657 82.1563V82.1534ZM60.8669 81.5384C60.6578 81.4976 60.4516 81.4655 60.2454 81.4451C60.4516 81.4655 60.6578 81.4946 60.8669 81.5354V81.5384ZM65.8944 85.7214C65.7695 85.6981 65.6795 85.5844 65.694 85.4532C65.7085 85.3279 65.816 85.2346 65.938 85.2346L65.9118 85.4794L65.8915 85.7243L65.8944 85.7214ZM65.9322 85.4794L65.9525 85.2346H65.9612L65.9351 85.4794H65.9322ZM75.8273 86.8233C75.4846 86.4968 75.1419 86.1703 74.7992 85.8438C75.1448 86.1703 75.4846 86.4968 75.8303 86.8203C75.9 87.0361 75.9726 87.2372 76.0539 87.4179C75.9697 87.2401 75.897 87.039 75.8273 86.8233ZM79.0628 88.5723L79.2168 88.3799H79.2226L79.0628 88.5664V88.5723ZM83.6692 85.3308C83.9944 84.9985 84.3168 84.672 84.6392 84.3397C84.3139 84.672 83.9915 84.9985 83.6663 85.3308H83.6692ZM84.8861 84.3543C84.8077 84.3543 84.7321 84.3484 84.6508 84.3397C84.7292 84.3484 84.8077 84.3513 84.8861 84.3513V84.3543ZM85.4641 84.2814C85.586 84.2493 85.708 84.2085 85.8271 84.1619C85.708 84.2085 85.5889 84.2522 85.4641 84.2814ZM91.6184 76.6878C91.5719 76.7228 91.5197 76.7403 91.4645 76.7403C91.3919 76.7403 91.3193 76.7082 91.2699 76.647L90.7703 76.0028C90.6425 75.9532 90.4915 75.9212 90.3318 75.8862C89.9949 75.8133 89.6463 75.7404 89.414 75.4868C89.324 75.3877 89.3269 75.2332 89.4256 75.137C89.4721 75.0933 89.5331 75.07 89.5941 75.07C89.6609 75.07 89.7277 75.0962 89.777 75.1487C89.9048 75.2857 90.1633 75.344 90.4363 75.4023C90.6367 75.4431 90.8429 75.4897 91.0259 75.5714C91.0637 75.5859 91.0956 75.6122 91.1189 75.6442L91.6591 76.338C91.7433 76.4459 91.723 76.6033 91.6184 76.6878ZM99.286 77.2912C99.2395 77.3349 99.1785 77.3612 99.1146 77.3612L98.9868 77.3553C98.9403 77.3553 98.8968 77.3408 98.8648 77.3174C98.8387 77.3787 98.7835 77.4282 98.7138 77.4515L97.8222 77.7343C97.7437 77.7955 97.6653 77.8713 97.5811 77.95C97.433 78.087 97.2819 78.2298 97.1193 78.3202C97.0786 78.3406 97.0409 78.3493 97.0002 78.3493C96.9102 78.3493 96.8289 78.3027 96.7824 78.2211C96.7156 78.1016 96.7591 77.9529 96.8782 77.8859C96.9886 77.8276 97.1193 77.7051 97.2442 77.5856C97.3429 77.4923 97.4475 77.3961 97.5579 77.3145C97.5811 77.3 97.6043 77.2854 97.6305 77.2766L98.5657 76.9764C98.5889 76.9676 98.615 76.9676 98.6383 76.9676C98.6877 76.9676 98.737 76.9822 98.7748 77.0085C98.8154 76.9181 98.9113 76.8598 99.01 76.8598H99.0187C99.1233 76.8598 99.3644 76.8685 99.3586 77.1105C99.3586 77.1775 99.3324 77.2387 99.286 77.2854V77.2912ZM118.751 65.3484C118.795 65.194 118.835 65.0395 118.893 64.8966C118.838 65.0395 118.795 65.1969 118.751 65.3484ZM118.975 64.7305C118.989 64.7072 119.004 64.678 119.021 64.6547C119.004 64.678 118.986 64.7072 118.972 64.7305H118.975ZM137.049 57.1165C136.715 57.5275 136.54 58.0027 136.52 58.574C136.52 58.641 136.485 58.7052 136.436 58.7518C136.389 58.7926 136.331 58.8101 136.273 58.8101H136.25C136.166 58.8014 136.084 58.7985 136.003 58.7985C135.323 58.7985 134.722 59.0812 134.211 59.3436C134.173 59.361 134.138 59.3698 134.098 59.3698C134.011 59.3698 133.923 59.3202 133.88 59.2357C133.819 59.1133 133.865 58.9646 133.984 58.9034C134.548 58.6119 135.216 58.3029 136.003 58.3029H136.044C136.105 57.7286 136.311 57.236 136.668 56.8017C136.715 56.7434 136.787 56.7113 136.857 56.7113C136.912 56.7113 136.967 56.7317 137.011 56.7667C137.017 56.7667 137.02 56.7754 137.02 56.7784C137.115 56.8687 137.127 57.0145 137.043 57.1136L137.049 57.1165ZM137.824 56.4402L137.798 56.4577C137.757 56.4839 137.708 56.4985 137.661 56.4985C137.586 56.4985 137.51 56.4606 137.461 56.3936C137.461 56.3936 137.461 56.3877 137.455 56.3848C137.38 56.2711 137.412 56.1166 137.525 56.0409L137.551 56.0234C137.592 55.9971 137.641 55.9826 137.688 55.9826C137.769 55.9826 137.847 56.0234 137.894 56.0933C137.966 56.207 137.937 56.3615 137.824 56.4373V56.4402ZM138.509 50.0797C138.469 50.103 138.428 50.1118 138.387 50.1118C138.303 50.1118 138.219 50.068 138.173 49.9864C138.106 49.8669 138.149 49.7182 138.266 49.6512C138.704 49.4005 139.209 49.109 139.674 48.7854L139.814 48.9895L139.953 49.1935C139.468 49.5258 138.954 49.8261 138.507 50.0797H138.509ZM154.806 24.3344C154.701 26.1913 153.952 27.7537 153.29 29.1325C153.145 29.4327 153.008 29.7155 152.88 29.9982C152.471 30.899 151.922 31.7327 151.393 32.5401C150.484 33.9218 149.627 35.2278 149.357 36.8893C149.235 37.6268 148.457 37.656 147.94 37.6764C147.629 37.688 147.202 37.7055 147.098 37.8454C147.069 37.8862 146.984 38.0524 147.121 38.5683C147.15 38.6762 147.144 38.7899 147.098 38.8919C146.86 39.4428 146.331 39.7169 145.866 39.9588C145.088 40.364 144.858 40.5301 145.195 41.2997C145.274 41.4775 145.239 41.6874 145.105 41.8302L144.789 42.18L144.516 42.4803C144.423 42.5823 144.289 42.6377 144.153 42.6377C144.1 42.6377 144.051 42.6289 143.999 42.6144C143.854 42.5677 143.7 42.5415 143.546 42.5415C142.712 42.5415 142.073 43.1828 142.03 43.4131C142.442 45.1708 141.347 45.6605 140.694 45.955C140.426 46.0774 140.168 46.1911 140.063 46.3397C139.503 47.1443 138.602 47.5524 137.734 47.9488C136.349 48.5785 135.254 49.0769 135.556 50.9688C135.605 51.2807 135.521 51.5809 135.32 51.817C134.899 52.3126 134.147 52.365 133.842 52.365C133.767 52.365 133.688 52.365 133.616 52.3563C133.511 52.3476 133.406 52.3417 133.308 52.3417C132.024 52.3417 131.397 53.0063 131.045 54.7757C131.298 54.7087 131.524 54.7087 131.649 54.7087C131.821 54.7087 131.989 54.7174 132.152 54.732C132.277 54.7408 132.393 54.7495 132.5 54.7524C132.77 54.7583 132.988 54.9856 132.982 55.2567C132.977 55.5249 132.756 55.7406 132.489 55.7406H132.48C132.346 55.7406 132.213 55.729 132.082 55.7173C131.928 55.7085 131.786 55.6969 131.649 55.6969C131.205 55.6969 131.06 55.8106 130.952 56.0117C130.935 56.0467 130.915 56.0758 130.891 56.1021C130.22 56.892 129.471 57.612 128.745 58.3087C128.318 58.7168 127.879 59.1395 127.464 59.5651C127.368 59.6642 127.241 59.7138 127.11 59.7138C126.988 59.7138 126.863 59.6671 126.767 59.5738C126.573 59.3844 126.567 59.0725 126.758 58.8772C127.185 58.437 127.633 58.0085 128.062 57.5946C128.696 56.9882 129.346 56.3644 129.933 55.7027C129.77 55.729 129.596 55.7435 129.404 55.7435C129.137 55.7435 128.873 55.7173 128.64 55.694C128.46 55.6736 128.292 55.659 128.164 55.659C127.775 58.574 125.69 59.2648 123.845 59.8712C123.308 60.049 122.803 60.2181 122.329 60.4308L120.238 61.9379C120.154 61.9991 120.052 62.0312 119.951 62.0312H119.805L119.378 62.0224C118.681 62.2265 118.371 62.7745 118.106 63.582C118.066 63.7102 117.973 63.8152 117.854 63.8735L116.599 64.4827L114.528 66.3104L112.974 67.6805C112.884 67.7592 112.768 67.8029 112.649 67.8029C112.597 67.8029 112.544 67.7941 112.495 67.7766C112.286 67.7067 112.094 67.6717 111.923 67.6717C111.296 67.6717 110.889 68.1702 110.398 69.033C110.308 69.1904 110.145 69.2837 109.971 69.2837C109.916 69.2837 109.864 69.275 109.808 69.2546C109.463 69.1321 109.17 69.0709 108.937 69.0709C108.626 69.0709 108.513 69.1875 108.475 69.2254C108.307 69.3974 108.22 69.7647 108.229 70.2777C108.229 70.3098 108.229 70.3448 108.22 70.3768C108.438 70.4001 108.609 70.5634 108.647 70.7733C108.655 70.8199 108.658 70.8665 108.655 70.9103L108.56 72.0209L108.536 72.3036C108.513 72.5631 108.301 72.7555 108.046 72.7555C108.031 72.7555 108.016 72.7555 108.002 72.7555C107.732 72.7321 107.531 72.4931 107.555 72.222L107.581 71.9364L107.677 70.8257C107.677 70.8257 107.677 70.7995 107.682 70.7849H107.642C107.322 70.7849 107.009 70.6975 106.71 70.6129C106.46 70.543 106.222 70.4759 106.039 70.4759C105.905 70.4759 105.684 70.4759 105.559 71.2251C105.542 71.33 105.493 71.4291 105.414 71.502C105.164 71.7411 104.839 71.8139 104.581 71.8693C104.313 71.9276 104.183 72.0345 104.189 72.19C104.194 72.292 104.165 72.394 104.11 72.4785C104.049 72.5747 104.017 72.6768 104.011 72.7905C104.006 72.9304 103.942 73.0615 103.837 73.1519C103.866 73.2015 103.886 73.2568 103.895 73.3151C103.921 73.4667 103.878 73.6183 103.776 73.7291L103.294 74.2654L102.873 74.7348L104.72 75.0029L104.845 75.0204C105.08 74.8951 105.31 74.8339 105.536 74.8339C105.676 74.8339 105.815 74.8572 105.949 74.9067C105.96 74.9126 105.972 74.9155 105.986 74.9213L105.896 75.1516C106.021 75.2041 106.082 75.3469 106.03 75.4723C105.992 75.5684 105.899 75.6267 105.803 75.6267C105.771 75.6267 105.742 75.6209 105.71 75.6093L105.615 75.8366C105.588 75.8279 105.565 75.822 105.542 75.822C105.484 75.822 105.379 75.8454 105.211 75.9561C105.127 76.0115 105.034 76.0378 104.944 76.0378C104.894 76.0378 104.842 76.029 104.796 76.0144L104.723 76.0057L104.586 75.9853L102.896 75.7404C102.896 75.7404 102.896 75.7492 102.89 75.7521C102.841 75.8745 102.789 76.0028 102.719 76.131C102.632 76.2972 102.463 76.3876 102.289 76.3876H102.266C102.24 76.5741 102.103 76.7374 101.906 76.7898H101.894L101.856 76.7986C101.813 76.8073 101.772 76.8161 101.729 76.8219C101.705 76.8277 101.688 76.8277 101.665 76.8277C101.421 76.8277 101.209 76.647 101.177 76.3963C101.139 76.1281 101.331 75.8774 101.601 75.8425C101.615 75.8425 101.63 75.8366 101.644 75.8337H101.656C101.697 75.822 101.734 75.8162 101.775 75.8162H101.798C101.807 75.7608 101.824 75.7055 101.853 75.653C101.894 75.5743 101.935 75.481 101.975 75.379C102.033 75.242 102.094 75.0875 102.179 74.9417C102.193 74.9184 102.211 74.8951 102.228 74.8747L101.54 74.8105C101.299 74.7872 101.11 74.5919 101.095 74.3471C101.049 73.6008 101.162 73.1082 101.456 72.7963C101.557 72.6855 101.723 72.5602 101.961 72.5048C101.929 72.5048 101.897 72.5048 101.865 72.5048C101.229 72.5048 100.59 72.9187 99.9104 73.356C99.6926 73.4959 99.466 73.6416 99.2395 73.7757C99.1611 73.8194 99.0768 73.8428 98.9897 73.8428C98.8271 73.8428 98.6702 73.7611 98.5773 73.6125C98.069 72.8167 97.5027 72.4465 96.7853 72.4465C96.2712 72.4465 95.6584 72.636 94.9149 73.0266C94.8423 73.0674 94.7638 73.0819 94.6854 73.0819C94.5576 73.0819 94.4298 73.0324 94.334 72.9333C94.1307 72.7263 94.0261 72.4377 93.9332 72.1812C93.8925 72.0734 93.8344 71.9072 93.7822 71.8198C93.7415 71.8402 93.6631 71.8781 93.5527 71.9655C93.4656 72.9158 92.693 73.1198 92.2196 73.2452C92.0018 73.3035 91.7782 73.3618 91.691 73.4609C91.54 73.7145 91.2815 73.8603 90.9707 73.8603C90.6861 73.8603 90.3986 73.7407 90.1227 73.6271C90.0123 73.5804 89.8729 73.5221 89.7625 73.4901C89.7567 73.595 89.7625 73.7757 89.8177 74.0847C89.8526 74.2683 89.777 74.4549 89.6318 74.5657L89.2514 74.8514L88.9203 75.1021C88.8564 75.1487 88.7808 75.1808 88.6995 75.1924C88.6124 75.207 88.5282 75.2128 88.4439 75.2128C87.805 75.2128 87.3751 74.8397 87.0324 74.5395C86.9308 74.452 86.8349 74.3704 86.7391 74.2975C86.3296 74.28 85.9752 74.0147 85.6645 73.7845C85.5047 73.6649 85.2346 73.4638 85.13 73.4638C85.13 73.4696 84.9761 73.5629 84.8077 74.1284C84.7409 74.3383 84.5492 74.4782 84.3372 74.4782C84.2994 74.4782 84.2645 74.4782 84.2239 74.4666C83.9218 74.3966 83.6692 74.3616 83.4571 74.3616C83.0302 74.3616 82.641 74.4403 82.612 75.4139C82.6062 75.5859 82.5103 75.7463 82.3622 75.8308C81.6506 76.2302 80.9216 76.4342 80.1926 76.4342C79.5246 76.4342 78.8508 76.2622 78.1886 75.9241C78.145 75.9007 78.1015 75.8716 78.0666 75.8366C78.2031 75.9853 78.2409 76.2068 78.145 76.3963C78.084 76.5187 78.0376 76.6587 78.0056 76.8131C77.9679 76.9851 77.8459 77.1251 77.6774 77.1804C76.5244 77.5623 75.3714 77.9442 74.2183 78.3231C73.8059 78.6525 73.3964 78.979 72.9811 79.3084C72.8939 79.3813 72.7836 79.4133 72.6761 79.4133C72.5309 79.4133 72.3886 79.3492 72.2898 79.2268C72.1214 79.0111 72.1562 78.6992 72.3682 78.533L73.6723 77.4923C73.7188 77.4544 73.771 77.4282 73.8262 77.4078C74.9212 77.0434 76.0161 76.6849 77.114 76.3205C77.1546 76.1893 77.2069 76.0669 77.265 75.9503V75.9445C77.3521 75.7725 77.5264 75.6734 77.7065 75.6734C77.7791 75.6734 77.8575 75.6909 77.9272 75.7259C77.9708 75.7492 78.0143 75.7783 78.0492 75.8133C78.0405 75.8046 78.0289 75.79 78.0201 75.7812C77.994 75.7463 77.9708 75.7113 77.9533 75.6821C77.7762 75.6384 77.5932 75.618 77.4015 75.618C76.7161 75.618 76.0248 75.8862 75.2929 76.1631C74.5088 76.4633 73.6984 76.7782 72.83 76.7782C72.4176 76.7782 72.0284 76.7053 71.6538 76.5654L71.6625 76.8365C71.6712 77.058 71.5289 77.2591 71.3169 77.3262L67.7997 78.431L66.272 78.909C66.2255 78.9236 66.1761 78.9324 66.1267 78.9324L65.4297 78.9382H65.1305C65.0928 78.9469 65.0579 78.9469 65.026 78.9469C64.5961 78.9469 64.3028 78.5884 64.0182 78.2415C63.9746 78.1861 63.9165 78.1162 63.8613 78.0491C63.8207 78.1745 63.7742 78.3668 63.7248 78.6554C63.6842 78.8945 63.478 79.0694 63.2398 79.0694C63.2224 79.0694 63.205 79.0694 63.1875 79.0694C63.144 79.0635 63.0975 79.0606 63.0568 79.0606C62.6473 79.0606 62.4847 79.2763 62.1594 79.8389C61.9967 80.1217 61.8283 80.4161 61.5727 80.658C61.5117 80.7163 61.4333 80.7601 61.3491 80.7805C61.2416 80.8067 61.1283 80.8213 61.018 80.8213C60.3412 80.8213 59.772 80.349 59.316 79.9701C59.1359 79.8214 58.8455 79.5795 58.7119 79.5387C58.7003 79.5503 58.6799 79.5766 58.6567 79.6145C58.0845 80.5881 57.3701 81.0603 56.4639 81.0603C56.0457 81.0603 55.6507 80.967 55.2673 80.8737C55.1192 80.8388 54.9769 80.8038 54.8375 80.7775C54.698 80.7484 54.5761 80.7367 54.4831 80.7338C54.4483 80.7338 54.4221 80.7338 54.4018 80.7397C54.3931 80.8154 54.4018 80.9466 54.4018 81.0312C54.4134 81.2498 54.4279 81.5005 54.3495 81.7395C54.2885 81.9231 54.1288 82.0543 53.9371 82.0747C53.9197 82.0747 53.8993 82.0806 53.8819 82.0806C53.7106 82.0806 53.5508 81.9902 53.4608 81.8415C53.243 81.483 52.7057 81.4159 52.1829 81.3518C51.6078 81.2818 50.8265 81.1856 50.7307 80.4365C50.6842 80.0779 50.6174 79.9264 50.5826 79.8681C50.4983 79.8914 50.3444 79.9701 50.2456 80.0197C50.0743 80.11 49.8826 80.2062 49.6851 80.247C49.3366 81.518 48.2416 81.6112 47.4923 81.6754C47.1176 81.7074 46.7633 81.7366 46.5222 81.8707C46.5281 81.8707 46.531 81.8794 46.5339 81.8823C47.0712 82.4682 47.6259 82.8122 48.14 82.8793C48.4072 82.9142 48.6018 83.162 48.5669 83.4302C48.535 83.6809 48.323 83.8616 48.079 83.8616C48.0558 83.8616 48.0383 83.8616 48.0151 83.8558C47.4749 83.7858 46.923 83.5293 46.3974 83.1037C46.3654 83.1591 46.3335 83.2174 46.2928 83.2699C46.197 83.3952 46.0517 83.4623 45.9007 83.4623C45.7962 83.4623 45.6916 83.4302 45.6016 83.3602C45.3837 83.1941 45.346 82.8822 45.5115 82.6694C45.5551 82.6111 45.6103 82.41 45.6422 82.2875C45.6626 82.2117 45.6829 82.133 45.7032 82.066C45.7264 81.9989 45.7584 81.9377 45.8049 81.8852C45.7758 81.8852 45.7468 81.8852 45.7177 81.8852C45.5435 81.8852 45.468 81.9057 45.3895 82.1214C45.3373 82.2642 45.2211 82.375 45.0759 82.4216C45.0265 82.4391 44.9742 82.4449 44.9248 82.4449C44.8261 82.4449 44.7302 82.4187 44.6489 82.3604L44.463 82.235C43.4843 81.5675 42.6362 80.9933 41.5354 80.9933C41.216 80.9933 40.8907 81.0399 40.5421 81.1361C40.304 81.2061 40.0368 81.2381 39.7551 81.2381C38.2622 81.2381 36.5283 80.3141 35.9184 79.8681C35.1429 79.2967 34.5011 79.0081 34.0015 79.0052C33.2667 79.0052 32.834 79.6553 32.2153 80.7222C31.9859 81.1157 31.7477 81.5238 31.4718 81.8823C31.3905 81.9873 31.2714 82.0543 31.1407 82.0718C31.1204 82.0718 31.1 82.0718 31.0797 82.0718C30.9722 82.0718 30.8619 82.0339 30.7747 81.9669C29.9906 81.3431 29.006 81.2993 27.9633 81.2527C26.7435 81.1973 25.4859 81.1419 24.3997 80.1975C24.3677 80.1683 24.3387 80.145 24.3125 80.1246C24.2806 80.1916 24.2457 80.2733 24.2225 80.3374C24.0773 80.6843 23.8391 81.2614 23.2234 81.2614C23.1072 81.2614 22.9852 81.2381 22.8603 81.1915C22.7355 81.1419 22.6338 81.0457 22.5815 80.9204C22.2853 80.215 21.8932 79.8447 21.3181 79.7398C21.0945 79.769 20.8679 79.7835 20.6472 79.7835C19.2212 79.7835 18.0042 79.1889 16.8222 78.6117C16.4591 78.431 16.0786 78.2473 15.7069 78.087C15.5733 78.0316 15.4716 77.9179 15.4281 77.7809C15.2625 77.2533 15.0156 77.2067 14.2866 77.2038C13.9962 77.2038 13.6941 77.1979 13.3921 77.1221C13.2178 77.0784 13.0784 76.9414 13.0349 76.7665C12.9477 76.4167 12.7299 76.3293 12.1723 76.1777C11.7221 76.0552 11.1644 75.9007 10.8275 75.3761C9.62222 74.1722 8.92807 72.6564 8.25426 71.1872C8.07419 70.7937 7.90574 70.4235 7.72857 70.0591C7.57464 69.7443 7.36262 69.412 7.13608 69.0592C6.34899 67.832 5.36731 66.3046 6.288 64.4331C6.30252 64.404 6.31995 64.3778 6.34028 64.3515C7.04604 63.4216 7.39166 60.6028 6.99376 60.0169C6.90373 59.8799 6.8834 59.7108 6.94148 59.5593L7.27549 58.6906L7.40037 58.3641V58.3583L7.26677 58.3874C7.27258 58.4078 7.27549 58.4282 7.27549 58.4428C7.27549 58.5536 7.19707 58.6556 7.0838 58.6789C7.06637 58.6848 7.04604 58.6877 7.02861 58.6877C6.91534 58.6877 6.81369 58.609 6.78755 58.4953L6.54939 58.5507C6.51454 58.3962 6.4884 58.2475 6.47098 58.0872C6.43612 57.8161 6.62781 57.5683 6.90082 57.5363C6.92115 57.5363 6.94148 57.5363 6.95891 57.5363C7.20578 57.5363 7.4178 57.7199 7.44975 57.9706C7.45846 58.0551 7.47298 58.1397 7.48751 58.2213C7.54559 58.1513 7.62401 58.1018 7.70824 58.0726C8.07128 57.9531 8.17294 57.7753 8.10614 57.3876C8.06838 57.1631 8.19036 56.9416 8.39948 56.8512C9.22141 56.5014 9.62803 55.9622 9.68321 55.1576C9.69483 54.9652 9.81972 54.7991 9.99979 54.7291C10.418 54.5688 10.4529 54.3327 10.4558 53.6506C10.4558 53.5456 10.4558 53.4407 10.4616 53.3357C10.4616 53.2599 10.4848 53.1812 10.5226 53.1171C10.7607 52.6799 11.1848 52.4787 11.5275 52.3213C11.9835 52.1085 12.1316 52.0152 12.1403 51.7063C12.1461 51.5051 12.2739 51.3273 12.4598 51.2603C12.7909 51.1378 12.8403 50.9484 12.9013 50.4003C12.9245 50.2021 12.9448 49.9981 13.0029 49.7911C13.0639 49.5725 13.2614 49.4267 13.4792 49.4267C13.5199 49.4267 13.5634 49.4326 13.607 49.4442C13.7842 49.4909 13.9468 49.5142 14.0891 49.5142C14.4754 49.5142 14.9111 49.3684 15.2306 48.2724C15.2712 48.1266 15.3787 48.01 15.5152 47.9546C16.2355 47.6573 16.9732 47.2871 17.4669 46.5846C17.5221 46.5088 17.5947 46.4476 17.6818 46.4155C18.4718 46.0832 18.7216 45.3486 19.0091 44.4945L19.0818 44.2876C19.1515 44.0835 19.3431 43.9553 19.5465 43.9553C19.5871 43.9553 19.6307 43.964 19.6684 43.9728C19.8369 44.0165 19.9995 44.0398 20.1477 44.0398C20.7518 44.0398 21.2223 43.7017 21.8322 42.8301C21.9164 42.7106 22.0471 42.6377 22.1894 42.6231C22.3724 42.6056 22.4189 42.5677 22.5641 42.1334C22.596 42.043 22.628 41.9468 22.6687 41.8477C22.7442 41.6582 22.9271 41.5387 23.1246 41.5387C23.1624 41.5387 23.2001 41.5446 23.2408 41.5533C23.3889 41.5883 23.5283 41.6087 23.6619 41.6087C24.4142 41.6087 24.8847 40.9995 25.4365 40.2969L25.4772 40.2416C25.573 40.1191 25.7153 40.055 25.8664 40.055C25.9186 40.055 25.9709 40.0637 26.0261 40.0812C26.1626 40.125 26.2875 40.1512 26.4008 40.1512C26.7754 40.1512 27.0455 39.9034 27.4551 39.5011C27.7542 39.2038 28.065 38.8977 28.4832 38.7141C28.5064 38.7054 28.5297 38.6966 28.5558 38.6908C29.1541 38.5363 29.4939 38.0728 29.8889 37.5364C30.1009 37.2479 30.3188 36.9505 30.5918 36.6882C30.6847 36.5978 30.8096 36.5512 30.9345 36.5512C30.9752 36.5512 31.0129 36.557 31.0536 36.5657C31.3672 36.6445 31.6664 36.6853 31.9336 36.6853C33.0082 36.6853 33.7517 36.0644 34.2687 34.7293C34.3413 34.5427 34.5185 34.4145 34.7189 34.4145H34.7741C35.5583 34.4028 36.2379 34.3912 36.7258 33.8577C36.7839 33.7965 36.8507 33.7528 36.9291 33.7236C37.2834 33.6012 37.6552 33.5371 38.0153 33.4729C39.1103 33.2805 39.7405 33.1202 39.9497 32.0854C39.9758 31.9542 40.0542 31.8434 40.1617 31.7677L41.033 31.1934C41.1143 31.138 41.2072 31.1118 41.3031 31.1118C41.3438 31.1118 41.3873 31.1176 41.4251 31.1264C41.6894 31.1963 41.9333 31.2313 42.1599 31.2313C42.8744 31.2313 43.403 30.899 43.8241 30.1761C43.9112 30.0332 44.0622 29.9399 44.2278 29.9341C46.499 29.8408 48.2765 28.6399 50.1643 27.3689L50.5709 27.0949C50.6087 27.0716 50.6436 27.0541 50.6871 27.0395L52.119 26.5527L54.1143 25.8764C54.913 25.4829 55.7523 25.1768 56.5627 24.8795C58.1397 24.3023 59.6268 23.7572 60.8408 22.6466C60.925 22.5679 61.0325 22.5242 61.1487 22.5184C63.0655 22.4192 64.9214 21.8042 66.7163 21.2124C67.3379 21.0084 67.9739 20.7956 68.6158 20.6032C68.6477 20.507 68.6855 20.3496 68.7087 20.2447C68.7436 20.0872 68.7813 19.9211 68.8307 19.7753C68.8859 19.615 69.0195 19.4926 69.1851 19.4576C69.763 19.3235 70.3555 19.2157 70.9219 19.1107C72.7197 18.7813 74.4158 18.4723 75.8709 17.4025C76.1759 17.1781 76.4721 17.0673 76.7713 17.0673C77.2273 17.0673 77.57 17.318 77.8343 17.5687C77.9766 17.5425 78.1189 17.5191 78.2612 17.4987C79.1877 17.353 79.7744 17.2305 80.1491 16.5455C80.1723 16.5047 80.2013 16.4639 80.2362 16.4318C81.5373 15.1522 83.1348 14.916 84.6799 14.6858C85.6238 14.5458 86.5154 14.4117 87.3229 14.0561C87.9415 13.7821 88.5921 13.648 89.2223 13.5198C90.1314 13.3332 90.9911 13.1554 91.6852 12.587C91.7491 12.5374 91.8217 12.4995 91.903 12.4849C91.9931 12.4674 92.0889 12.4616 92.1848 12.4616C92.4316 12.4616 92.6669 12.517 92.8731 12.5665C93.0415 12.6074 93.2042 12.6453 93.3349 12.6453C93.4656 12.6453 93.5614 12.6132 93.6863 12.4558C93.7793 12.3363 93.9216 12.2692 94.0726 12.2692C94.1075 12.2692 94.1423 12.2692 94.1772 12.278C94.1888 12.278 94.2004 12.2838 94.212 12.2838C94.2236 12.2838 94.2382 12.2838 94.2701 12.2605C94.3514 12.2051 94.4473 12.1759 94.546 12.1759C94.5722 12.1759 94.6012 12.1759 94.6273 12.1847L94.7871 12.2109C95.1327 12.2692 95.4551 12.3275 95.7455 12.3275C96.2247 12.3275 96.5675 12.1905 96.7882 11.4967C96.8347 11.3481 96.9508 11.2315 97.099 11.179C97.1512 11.1615 97.2035 11.1557 97.2558 11.1557C97.3574 11.1557 97.4562 11.1848 97.5375 11.2461C97.8367 11.4559 98.101 11.558 98.342 11.558C98.7951 11.558 99.2133 11.179 99.6577 10.7797C99.8697 10.5902 100.088 10.392 100.326 10.2229C100.596 9.99843 100.912 9.88766 101.27 9.88766C101.702 9.88766 102.118 10.0509 102.519 10.2112C102.847 10.3395 103.157 10.4619 103.401 10.4619C103.529 10.4619 103.796 10.4619 104.072 9.80604C104.139 9.64863 104.284 9.53786 104.453 9.51163L118.731 7.407C118.754 7.407 118.777 7.40117 118.803 7.40117C118.824 7.40117 118.844 7.40117 118.864 7.407C119.306 7.46238 119.741 7.55275 120.165 7.64311C120.816 7.78012 121.435 7.91129 122.05 7.91129C122.445 7.91129 122.803 7.85591 123.142 7.74514C123.154 7.73931 123.169 7.73639 123.183 7.73639C123.328 7.68684 123.482 7.66352 123.639 7.66352C124.156 7.66352 124.615 7.92004 125.056 8.16781C125.388 8.35437 125.733 8.54968 125.992 8.54968C126.082 8.54968 126.36 8.54968 126.724 7.87923C126.811 7.7189 126.976 7.62271 127.156 7.62271C127.18 7.62271 127.2 7.62271 127.223 7.62854L128.315 7.78012C128.423 7.79469 128.527 7.84716 128.603 7.92878C129.102 8.4564 129.669 8.6896 130.432 8.6896C130.938 8.6896 131.463 8.5934 132.024 8.48846C132.187 8.45931 132.352 8.43016 132.515 8.3981C132.541 8.39227 132.57 8.39227 132.599 8.39227C132.646 8.39227 132.689 8.3981 132.736 8.40976C133.915 8.75373 135.12 9.08312 136.285 9.40669C139.729 10.357 143.293 11.3335 146.671 12.7531C146.755 12.7881 146.828 12.8464 146.883 12.9222C147.467 13.7413 148.37 14.0007 149.328 14.2718C149.999 14.4584 150.687 14.6537 151.309 15.0472C151.347 15.0705 151.382 15.1026 151.414 15.1376C153.926 17.9593 155.006 20.8801 154.809 24.3315L154.806 24.3344ZM101.691 76.0786L101.636 75.8395L101.688 76.0786H101.691Z" fill="#F0FF00"/>
<path id="Vector_66" d="M97.0002 78.1045C97.2355 77.9733 97.4707 77.6906 97.706 77.5157C98.0167 77.4165 98.3275 77.3174 98.6383 77.2183C98.3275 77.3174 98.0167 77.4165 97.7031 77.5157C97.4678 77.6906 97.2326 77.9762 96.9973 78.1045H97.0002Z" fill="#F0FF00"/>
<path id="Vector_67" d="M136.003 58.5507C135.312 58.5507 134.711 58.8101 134.13 59.1074C134.711 58.8072 135.312 58.5507 136.003 58.5507C136.093 58.5507 136.183 58.5536 136.273 58.5652C136.18 58.5565 136.09 58.5507 136.003 58.5507Z" fill="#F0FF00"/>
</g>
</svg>
