<svg width="37" height="35" viewBox="0 0 37 35" fill="none" xmlns="http://www.w3.org/2000/svg">
<path id="Vector" d="M8.28138 35C7.876 35 7.47345 34.8752 7.1299 34.63C6.48994 34.1721 6.19099 33.3852 6.36516 32.6259L8.74547 22.276L0.672975 15.2881C0.0795918 14.7768 -0.147091 13.967 0.0965296 13.2261C0.34015 12.4865 1.00298 11.963 1.78776 11.8913L12.4687 10.9342L16.6915 1.17952C17.0029 0.462836 17.712 0 18.4999 0C19.2878 0 19.9969 0.462836 20.3083 1.17785L24.5311 10.9342L35.2103 11.8913C35.9968 11.9613 36.6596 12.4865 36.9032 13.2261C37.1468 13.9656 36.9216 14.7768 36.3282 15.2881L28.2557 22.2747L30.636 32.6242C30.8105 33.3852 30.5112 34.1721 29.8715 34.6286C29.2333 35.085 28.3822 35.1201 27.71 34.7213L18.4999 29.2885L9.28973 34.7244C8.97836 34.9069 8.63142 35 8.28138 35ZM18.4999 26.9482C18.8499 26.9482 19.1966 27.0409 19.5082 27.2235L28.2004 32.3551L25.9539 22.5865C25.7935 21.8912 26.0326 21.1653 26.5769 20.695L34.1991 14.0966L24.1147 13.1926C23.3887 13.1272 22.7642 12.6766 22.4805 12.0162L18.4999 2.81073L14.5144 12.0176C14.2338 12.6735 13.6094 13.1241 12.885 13.1896L2.79922 14.0935L10.4212 20.6919C10.9671 21.1637 11.2059 21.8882 11.0442 22.5851L8.79939 32.3534L17.4915 27.2235C17.8029 27.0409 18.1498 26.9482 18.4999 26.9482ZM12.3871 11.1228C12.3871 11.1228 12.3871 11.1245 12.3854 11.1259L12.3871 11.1228ZM24.6096 11.1184L24.6113 11.1214C24.6113 11.1198 24.6113 11.1198 24.6096 11.1184Z" fill="black"/>
</svg>
