<svg width="31" height="31" viewBox="0 0 31 31" fill="none" xmlns="http://www.w3.org/2000/svg">
<g id="Group">
<path id="Vector" fill-rule="evenodd" clip-rule="evenodd" d="M5.44091 5.74424H20.779C21.1163 5.74424 21.3891 5.96243 21.3891 6.2323C21.3891 6.50217 21.1163 6.72036 20.779 6.72036H5.44091C5.10358 6.72036 4.83084 6.50217 4.83084 6.2323C4.83084 5.96243 5.10358 5.74424 5.44091 5.74424ZM30.5976 20.0875V0.903809H2.31157H0.344971V2.24741V30.2852C0.86892 30.2852 1.37134 30.2909 1.86658 30.3081H19.6521V21.9479H30.612C30.6048 21.1957 30.5976 20.5239 30.5976 20.0933V20.0875ZM28.9397 22.9757H20.9441V30.3024H26.5711H30.6479V25.7376C30.6479 25.0313 30.6335 23.9978 30.6264 22.9814H28.9397V22.9757ZM5.44091 10.4239H23.3054C23.6428 10.4239 23.9155 10.6421 23.9155 10.912C23.9155 11.1818 23.6428 11.4 23.3054 11.4H5.44091C5.10358 11.4 4.83084 11.1818 4.83084 10.912C4.83084 10.6421 5.10358 10.4239 5.44091 10.4239ZM17.9152 15.1035H25.5089C25.8462 15.1035 26.119 15.3217 26.119 15.5916C26.119 15.8615 25.8462 16.0797 25.5089 16.0797H17.9152H5.44091C5.10358 16.0797 4.83084 15.8615 4.83084 15.5916C4.83084 15.3217 5.10358 15.1035 5.44091 15.1035H17.9152ZM21.8197 26.2658C22.0566 26.0763 22.4441 26.0763 22.6882 26.2658L24.6189 28.2984L29.2196 24.7385C29.4421 24.5318 29.8225 24.5145 30.0809 24.6868C30.3393 24.8648 30.3608 25.1691 30.1455 25.3758L25.1428 29.3033C25.1213 29.3205 25.1069 29.3435 25.0854 29.3607C24.8486 29.5502 24.461 29.5502 24.2169 29.3607L21.8197 26.9548C21.5828 26.7654 21.5828 26.4553 21.8197 26.2601V26.2658Z" fill="white"/>
</g>
</svg>
