<svg width="50" height="49" viewBox="0 0 50 49" fill="none" xmlns="http://www.w3.org/2000/svg">
<g id="fluent:people-team-24-filled">
<path id="Vector" d="M30.6227 20.4167C32.5949 20.4167 34.1956 22.0173 34.1956 23.9896V33.6855C34.1956 36.1227 33.2274 38.4601 31.504 40.1834C29.7807 41.9068 27.4433 42.875 25.006 42.875C22.5688 42.875 20.2314 41.9068 18.5081 40.1834C16.7847 38.4601 15.8165 36.1227 15.8165 33.6855V23.9896C15.8165 22.0173 17.4151 20.4167 19.3894 20.4167H30.6227ZM15.059 20.4167C14.3237 21.3016 13.8814 22.3932 13.7932 23.5404L13.7728 23.9896V33.6855C13.7728 35.4148 14.1648 37.0522 14.863 38.514C13.6529 38.8377 12.3845 38.8788 11.156 38.6341C9.92743 38.3893 8.77163 37.8653 7.77794 37.1025C6.78426 36.3398 5.97932 35.3587 5.42536 34.2351C4.87141 33.1116 4.58328 31.8757 4.58325 30.623V23.9896C4.58329 23.0929 4.92048 22.229 5.52789 21.5694C6.1353 20.9098 6.96853 20.5027 7.86217 20.4289L8.15617 20.4167H15.059ZM34.953 20.4167H41.8437C43.8159 20.4167 45.4166 22.0173 45.4166 23.9896V30.625C45.4169 31.8769 45.1293 33.1121 44.5762 34.2351C44.0231 35.3582 43.2192 36.339 42.2266 37.1019C41.234 37.8648 40.0794 38.3893 38.8518 38.6348C37.6242 38.8804 36.3567 38.8404 35.147 38.5181C35.7595 37.2359 36.1352 35.8231 36.2189 34.3286L36.2372 33.6855V23.9896C36.2372 22.6319 35.7575 21.3865 34.953 20.4167ZM24.9999 6.125C26.6244 6.125 28.1823 6.77031 29.3309 7.91897C30.4796 9.06763 31.1249 10.6255 31.1249 12.25C31.1249 13.8745 30.4796 15.4324 29.3309 16.581C28.1823 17.7297 26.6244 18.375 24.9999 18.375C23.3755 18.375 21.8175 17.7297 20.6689 16.581C19.5202 15.4324 18.8749 13.8745 18.8749 12.25C18.8749 10.6255 19.5202 9.06763 20.6689 7.91897C21.8175 6.77031 23.3755 6.125 24.9999 6.125ZM38.2707 8.16667C39.6245 8.16667 40.9227 8.70443 41.8799 9.66164C42.8372 10.6189 43.3749 11.9171 43.3749 13.2708C43.3749 14.6245 42.8372 15.9228 41.8799 16.88C40.9227 17.8372 39.6245 18.375 38.2707 18.375C36.917 18.375 35.6188 17.8372 34.6616 16.88C33.7043 15.9228 33.1666 14.6245 33.1666 13.2708C33.1666 11.9171 33.7043 10.6189 34.6616 9.66164C35.6188 8.70443 36.917 8.16667 38.2707 8.16667ZM11.7291 8.16667C13.0828 8.16667 14.3811 8.70443 15.3383 9.66164C16.2955 10.6189 16.8333 11.9171 16.8333 13.2708C16.8333 14.6245 16.2955 15.9228 15.3383 16.88C14.3811 17.8372 13.0828 18.375 11.7291 18.375C10.3754 18.375 9.07711 17.8372 8.11989 16.88C7.16268 15.9228 6.62492 14.6245 6.62492 13.2708C6.62492 11.9171 7.16268 10.6189 8.11989 9.66164C9.07711 8.70443 10.3754 8.16667 11.7291 8.16667Z" fill="white"/>
</g>
</svg>
