<svg width="35" height="35" viewBox="0 0 35 35" fill="none" xmlns="http://www.w3.org/2000/svg">
<g id="nav bar icons" clip-path="url(#clip0_126_109)">
<path id="Vector" d="M34.8895 28.3054C34.3497 26.562 33.2439 24.9965 31.7757 23.8972C30.944 23.2745 30.0252 22.8137 29.0521 22.5231C30.3609 21.6912 31.2319 20.2292 31.2319 18.5668C31.2319 15.9831 29.1299 13.8811 26.5461 13.8811C25.5823 13.8811 24.6858 14.1738 23.9401 14.6747C22.8628 13.497 21.5036 12.6512 20.005 12.2042C21.3144 11.3723 22.1858 9.91006 22.1858 8.24722C22.1858 5.66351 20.0838 3.56152 17.5001 3.56152C14.9164 3.56152 12.8143 5.66351 12.8143 8.24722C12.8143 9.91006 13.6858 11.3723 14.9951 12.2042C13.4965 12.6512 12.1372 13.497 11.0599 14.6746C10.3143 14.1738 9.41774 13.8811 8.45401 13.8811C5.8703 13.8811 3.76825 15.9831 3.76825 18.5668C3.76825 20.2292 4.63922 21.6911 5.9481 22.5231C4.97493 22.8136 4.05604 23.2745 3.22438 23.8972C1.75616 24.9966 0.650381 26.5621 0.110547 28.3053C-0.12003 29.0497 0.0113572 29.834 0.470869 30.4575C0.930381 31.0809 1.64104 31.4385 2.42027 31.4385H14.4875C15.2667 31.4385 15.9772 31.081 16.4369 30.4575C16.8965 29.8341 17.0278 29.0496 16.7973 28.3054C16.2575 26.562 15.1517 24.9965 13.6835 23.8972C12.8518 23.2745 11.933 22.8137 10.9599 22.5231C11.5279 22.162 12.0131 21.6825 12.3806 21.119H22.6194C22.9869 21.6825 23.4721 22.162 24.0402 22.5231C23.067 22.8136 22.1481 23.2745 21.3164 23.8972C19.8482 24.9966 18.7424 26.5621 18.2026 28.3054C17.9721 29.0497 18.1035 29.8341 18.563 30.4575C19.0226 31.081 19.7331 31.4385 20.5123 31.4385H32.5796C33.3588 31.4385 34.0694 31.081 34.529 30.4575C34.9886 29.8339 35.12 29.0497 34.8895 28.3054ZM13.9081 8.24728C13.9081 6.26664 15.5194 4.65534 17.5001 4.65534C19.4807 4.65534 21.0921 6.26664 21.0921 8.24728C21.0921 10.2279 19.4807 11.8393 17.5001 11.8393C15.5194 11.8393 13.9081 10.2279 13.9081 8.24728ZM15.7526 28.6289C15.8793 29.0378 15.8078 29.4677 15.5566 29.8086C15.3053 30.1494 14.9157 30.3449 14.4876 30.3449H2.42027C1.99214 30.3449 1.60249 30.1494 1.35127 29.8086C1.10005 29.4677 1.02861 29.0379 1.15528 28.6289C2.15107 25.4131 5.08417 23.2526 8.45394 23.2526C11.8237 23.2526 14.7567 25.4131 15.7526 28.6289ZM8.45401 22.1588C6.47337 22.1588 4.862 20.5475 4.862 18.5668C4.862 16.5862 6.47337 14.9748 8.45401 14.9748C10.4347 14.9748 12.046 16.5862 12.046 18.5668C12.046 20.5475 10.4347 22.1588 8.45401 22.1588ZM12.9062 20.0253C13.0571 19.566 13.1398 19.076 13.1398 18.5668C13.1398 17.3402 12.6654 16.2228 11.8913 15.3867C13.3369 13.8217 15.3539 12.933 17.5 12.933C19.6462 12.933 21.6632 13.8217 23.1088 15.3868C22.3347 16.2229 21.8604 17.3403 21.8604 18.5669C21.8604 19.076 21.9431 19.566 22.094 20.0253H12.9062V20.0253ZM22.9541 18.5668C22.9541 16.5862 24.5655 14.9748 26.5461 14.9748C28.5268 14.9748 30.1382 16.5862 30.1382 18.5668C30.1382 20.5475 28.5268 22.1588 26.5461 22.1588C24.5655 22.1588 22.9541 20.5475 22.9541 18.5668ZM33.6487 29.8086C33.3975 30.1494 33.0078 30.3449 32.5797 30.3449H20.5124C20.0843 30.3449 19.6947 30.1494 19.4435 29.8086C19.1922 29.4677 19.1207 29.0378 19.2474 28.6289C20.2432 25.4131 23.1763 23.2526 26.5461 23.2526C29.9158 23.2526 32.8489 25.4131 33.8447 28.629C33.9713 29.0378 33.8999 29.4677 33.6487 29.8086Z" fill="white"/>
</g>
<defs>
<clipPath id="clip0_126_109">
<rect width="35" height="35" fill="white"/>
</clipPath>
</defs>
</svg>
