<svg width="60" height="60" viewBox="0 0 60 60" fill="none" xmlns="http://www.w3.org/2000/svg">
<rect width="60" height="60" rx="7" fill="#E7E61D"/>
<g clip-path="url(#clip0_1052_658)">
<path d="M40.695 38.7778C40.797 38.6757 40.8644 38.5442 40.8875 38.4018C40.9107 38.2593 40.8884 38.1132 40.8239 37.9841L39.8148 35.9656C40.0638 35.4702 40.275 34.9567 40.4466 34.4295L42.5923 33.7145C42.7292 33.6689 42.8483 33.5813 42.9326 33.4642C43.017 33.3472 43.0624 33.2065 43.0624 33.0622V31.6529C45.367 31.4774 47.5139 30.4155 49.0521 28.6904C50.5902 26.9652 51.3998 24.711 51.3108 22.4014C51.2218 20.0919 50.2411 17.9067 48.5748 16.305C46.9085 14.7033 44.6862 13.8098 42.3749 13.8122H27.5345L28.4234 12.9233L27.4512 11.9512L25.3887 14.0137C25.2599 14.1426 25.1874 14.3174 25.1874 14.4997C25.1874 14.682 25.2599 14.8569 25.3887 14.9858L27.4512 17.0483L28.4234 16.0762L27.5345 15.1872H42.3749C44.3216 15.1857 46.1939 15.935 47.602 17.2793C49.01 18.6236 49.8453 20.4591 49.9339 22.4038C50.0225 24.3485 49.3576 26.2525 48.0776 27.7192C46.7976 29.1859 45.0012 30.1024 43.0624 30.2779V28.9372C43.0624 28.7929 43.017 28.6523 42.9327 28.5352C42.8483 28.4182 42.7293 28.3306 42.5924 28.285L40.4467 27.57C40.2751 27.0428 40.0639 26.5293 39.8149 26.0338L40.824 24.0153C40.8885 23.8863 40.9108 23.7401 40.8876 23.5977C40.8645 23.4553 40.7971 23.3237 40.6951 23.2217L37.7779 20.3049C37.6758 20.203 37.5443 20.1357 37.4019 20.1126C37.2595 20.0895 37.1135 20.1117 36.9844 20.176L34.9661 21.1851C34.4708 20.9357 33.9573 20.7242 33.43 20.5527L32.7143 18.4072C32.6688 18.2703 32.5813 18.1513 32.4643 18.0669C32.3473 17.9825 32.2066 17.9372 32.0624 17.9372H27.9374C27.7931 17.9372 27.6525 17.9825 27.5355 18.0669C27.4185 18.1513 27.331 18.2703 27.2855 18.4072L26.5698 20.5527C26.0425 20.7243 25.5289 20.9357 25.0336 21.1851L23.0155 20.176C22.8864 20.1115 22.7403 20.0892 22.5979 20.1123C22.4554 20.1355 22.3239 20.2028 22.2219 20.3049L19.3047 23.2217C19.2026 23.3237 19.1353 23.4553 19.1121 23.5977C19.089 23.7401 19.1113 23.8863 19.1758 24.0153L20.1849 26.0338C19.9359 26.5292 19.7247 27.0427 19.5532 27.57L17.4074 28.285C17.2705 28.3306 17.1515 28.4182 17.0671 28.5352C16.9828 28.6523 16.9374 28.7929 16.9374 28.9372V30.347C14.6339 30.5239 12.4884 31.5863 10.9515 33.3112C9.41455 35.0361 8.60566 37.2894 8.69462 39.598C8.78359 41.9066 9.76349 44.091 11.4286 45.6925C13.0937 47.294 15.3146 48.1882 17.6249 48.1872H32.4652L31.5762 49.0762L32.5484 50.0483L34.6109 47.9858C34.7397 47.8569 34.8122 47.682 34.8122 47.4997C34.8122 47.3174 34.7397 47.1426 34.6109 47.0137L32.5484 44.9512L31.5762 45.9233L32.4652 46.8122H17.6249C15.6782 46.8138 13.8059 46.0645 12.3978 44.7202C10.9898 43.3759 10.1545 41.5403 10.0659 39.5956C9.97728 37.6509 10.6422 35.747 11.9222 34.2803C13.2022 32.8135 14.9986 31.897 16.9374 31.7216V33.0622C16.9374 33.2065 16.9828 33.3472 17.0671 33.4642C17.1515 33.5813 17.2705 33.6689 17.4074 33.7145L19.5532 34.4295C19.7247 34.9567 19.9359 35.4702 20.1849 35.9656L19.1758 37.9841C19.1113 38.1132 19.089 38.2593 19.1121 38.4018C19.1353 38.5442 19.2026 38.6757 19.3047 38.7778L22.2219 41.6946C22.324 41.7965 22.4555 41.8637 22.5979 41.8869C22.7403 41.91 22.8864 41.8878 23.0155 41.8235L25.0336 40.8144C25.529 41.0636 26.0425 41.2749 26.5698 41.4465L27.2855 43.5922C27.331 43.7291 27.4185 43.8482 27.5355 43.9326C27.6525 44.0169 27.7931 44.0623 27.9374 44.0622H32.0624C32.2066 44.0623 32.3473 44.0169 32.4643 43.9326C32.5813 43.8482 32.6688 43.7291 32.7143 43.5922L33.43 41.4465C33.9573 41.2749 34.4708 41.0636 34.9661 40.8144L36.9844 41.8235C37.1135 41.8875 37.2595 41.9095 37.4018 41.8864C37.5441 41.8633 37.6757 41.7962 37.7779 41.6946L40.695 38.7778ZM37.1562 40.372L35.2655 39.4267C35.166 39.377 35.056 39.3522 34.9448 39.3543C34.8336 39.3565 34.7245 39.3855 34.627 39.4391C34.0145 39.7737 33.3672 40.0404 32.6968 40.2343C32.5902 40.2655 32.4927 40.322 32.4128 40.3991C32.3328 40.4761 32.2727 40.5714 32.2375 40.6767L31.5669 42.6872H28.4328L27.7625 40.6767C27.7274 40.5714 27.6673 40.4761 27.5873 40.3991C27.5073 40.322 27.4098 40.2655 27.3033 40.2343C26.6328 40.0404 25.9855 39.7737 25.373 39.4391C25.2755 39.3855 25.1665 39.3564 25.0553 39.3543C24.9441 39.3521 24.8341 39.377 24.7346 39.4267L22.844 40.372L20.6277 38.156L21.573 36.2654C21.6226 36.1659 21.6474 36.056 21.6453 35.9449C21.6432 35.8337 21.6142 35.7248 21.5609 35.6273C21.2267 35.0145 20.9601 34.3672 20.766 33.6967C20.7349 33.59 20.6784 33.4924 20.6014 33.4123C20.5243 33.3322 20.429 33.272 20.3236 33.2368L18.3126 32.5665V29.4328L20.3236 28.7624C20.429 28.7272 20.5243 28.667 20.6014 28.5869C20.6784 28.5068 20.7349 28.4092 20.766 28.3025C20.9601 27.632 21.2267 26.9847 21.5609 26.3719C21.6142 26.2744 21.6432 26.1655 21.6453 26.0544C21.6474 25.9433 21.6226 25.8333 21.573 25.7338L20.6277 23.8432L22.844 21.6272L24.7346 22.5725C24.8341 22.6221 24.9441 22.6469 25.0553 22.6448C25.1665 22.6426 25.2755 22.6136 25.373 22.5602C25.9855 22.2255 26.6328 21.9588 27.3033 21.7649C27.4098 21.7337 27.5073 21.6772 27.5873 21.6002C27.6673 21.5231 27.7274 21.4278 27.7625 21.3225L28.4328 19.3115H31.5669L32.2372 21.3225C32.2723 21.4278 32.3324 21.5231 32.4124 21.6002C32.4924 21.6772 32.5898 21.7337 32.6964 21.7649C33.3669 21.9588 34.0142 22.2255 34.6267 22.5602C34.7242 22.6136 34.8332 22.6426 34.9444 22.6447C35.0556 22.6469 35.1657 22.6221 35.2652 22.5725L37.1558 21.6272L39.3721 23.8432L38.4267 25.7338C38.3772 25.8333 38.3524 25.9432 38.3544 26.0543C38.3565 26.1655 38.3855 26.2744 38.4388 26.3719C38.7731 26.9847 39.0396 27.632 39.2337 28.3025C39.2648 28.4092 39.3213 28.5068 39.3983 28.5869C39.4754 28.667 39.5707 28.7273 39.6762 28.7624L41.6871 29.4328V32.5667L39.6762 33.237C39.5707 33.2722 39.4754 33.3324 39.3983 33.4125C39.3213 33.4926 39.2648 33.5902 39.2337 33.697C39.0396 34.3675 38.7731 35.0148 38.4388 35.6276C38.3855 35.7251 38.3565 35.834 38.3544 35.9451C38.3524 36.0562 38.3772 36.1662 38.4267 36.2656L39.3721 38.1563L37.1562 40.372Z" fill="black"/>
<path d="M30 24.8125C28.7762 24.8125 27.5799 25.1754 26.5624 25.8553C25.5449 26.5352 24.7518 27.5015 24.2835 28.6321C23.8152 29.7628 23.6926 31.0069 23.9314 32.2071C24.1701 33.4074 24.7594 34.5099 25.6248 35.3752C26.4901 36.2406 27.5926 36.8299 28.7929 37.0686C29.9931 37.3074 31.2372 37.1848 32.3679 36.7165C33.4985 36.2482 34.4648 35.4551 35.1447 34.4376C35.8246 33.4201 36.1875 32.2238 36.1875 31C36.1857 29.3595 35.5332 27.7868 34.3732 26.6268C33.2132 25.4668 31.6405 24.8143 30 24.8125ZM30 35.8125C29.0482 35.8125 28.1177 35.5303 27.3263 35.0014C26.5349 34.4726 25.9181 33.721 25.5538 32.8417C25.1896 31.9623 25.0943 30.9947 25.28 30.0611C25.4657 29.1276 25.924 28.2701 26.5971 27.597C27.2701 26.924 28.1276 26.4657 29.0611 26.28C29.9947 26.0943 30.9623 26.1896 31.8417 26.5538C32.721 26.9181 33.4726 27.5349 34.0015 28.3263C34.5303 29.1177 34.8125 30.0482 34.8125 31C34.811 32.2759 34.3035 33.4991 33.4013 34.4013C32.4991 35.3035 31.2759 35.811 30 35.8125Z" fill="black"/>
<path d="M9.375 19.3125H21.75C21.9323 19.3125 22.1072 19.2401 22.2361 19.1111C22.3651 18.9822 22.4375 18.8073 22.4375 18.625V10.375C22.4375 10.1927 22.3651 10.0178 22.2361 9.88886C22.1072 9.75993 21.9323 9.6875 21.75 9.6875H9.375C9.19266 9.6875 9.0178 9.75993 8.88886 9.88886C8.75993 10.0178 8.6875 10.1927 8.6875 10.375V18.625C8.6875 18.8073 8.75993 18.9822 8.88886 19.1111C9.0178 19.2401 9.19266 19.3125 9.375 19.3125ZM10.0625 11.0625H21.0625V17.9375H10.0625V11.0625Z" fill="black"/>
<path d="M50.625 42.6875H38.25C38.0677 42.6875 37.8928 42.7599 37.7639 42.8889C37.6349 43.0178 37.5625 43.1927 37.5625 43.375V51.625C37.5625 51.8073 37.6349 51.9822 37.7639 52.1111C37.8928 52.2401 38.0677 52.3125 38.25 52.3125H50.625C50.8073 52.3125 50.9822 52.2401 51.1111 52.1111C51.2401 51.9822 51.3125 51.8073 51.3125 51.625V43.375C51.3125 43.1927 51.2401 43.0178 51.1111 42.8889C50.9822 42.7599 50.8073 42.6875 50.625 42.6875ZM49.9375 50.9375H38.9375V44.0625H49.9375V50.9375Z" fill="black"/>
<path d="M11.4375 12.4375H19.6875V13.8125H11.4375V12.4375Z" fill="black"/>
<path d="M11.4375 15.1875H19.6875V16.5625H11.4375V15.1875Z" fill="black"/>
<path d="M40.3125 45.4375H48.5625V46.8125H40.3125V45.4375Z" fill="black"/>
<path d="M40.3125 48.1875H48.5625V49.5625H40.3125V48.1875Z" fill="black"/>
<path d="M29.3127 32.0901L27.7363 30.5137L26.7642 31.4858L28.8267 33.5483C28.9556 33.6772 29.1304 33.7496 29.3127 33.7496C29.495 33.7496 29.6699 33.6772 29.7988 33.5483L33.2363 30.1108L32.2642 29.1387L29.3127 32.0901Z" fill="black"/>
</g>
<defs>
<clipPath id="clip0_1052_658">
<rect width="44" height="44" fill="white" transform="translate(8 9)"/>
</clipPath>
</defs>
</svg>
