<svg width="654" height="668" viewBox="0 0 654 668" fill="none" xmlns="http://www.w3.org/2000/svg">
<g clip-path="url(#clip0_1015_1298)">
<path d="M604.061 319.852C627.382 170.69 502.993 20.3371 339.646 1.66628C337.606 1.42822 335.567 1.22417 333.527 1.02011C219.405 -10.3388 115.108 76.8596 85.2598 143.381C55.446 209.902 -22.607 273.192 6.32293 396.474C35.2529 519.756 113.85 585.461 298.138 604.88C482.426 624.333 516.421 571.585 565.34 456.397C582.304 416.471 596.378 368.825 604.061 319.852Z" fill="#F4F4F4"/>
<path d="M458.902 373.314C458.902 373.314 458.8 373.314 458.732 373.28C407.331 341.108 354.298 319.512 301.062 309.106C258.5 300.773 215.7 299.515 173.886 305.399C102.7 315.397 58.5059 342.978 58.064 343.25C57.928 343.352 57.758 343.284 57.656 343.148C57.5541 343.012 57.622 342.842 57.758 342.74C58.2 342.468 102.53 314.819 173.818 304.786C215.7 298.903 258.534 300.161 301.198 308.493C354.502 318.934 407.603 340.564 459.072 372.736C459.207 372.838 459.242 373.008 459.174 373.144C459.106 373.246 459.038 373.28 458.936 373.28L458.902 373.314Z" fill="#1A2E35"/>
<path d="M268.222 355.595C256.188 345.699 292.019 307.575 292.019 307.575C276.347 304.752 278.455 305.331 278.455 305.331C278.455 305.331 237.695 344.713 237.253 367.09C236.811 389.468 299.464 410.418 299.464 410.418L322.955 400.113L343.454 392.495C343.454 392.495 280.257 365.526 268.222 355.63V355.595Z" fill="#FDD91E"/>
<path d="M299.43 410.69C299.43 410.69 299.362 410.69 299.328 410.69C299.158 410.622 283.452 405.35 268.018 397.392C247.213 386.68 236.743 376.477 236.913 367.091C237.321 345.631 274.987 308.255 278.013 305.297V305.229C278.081 304.854 278.115 304.786 292.019 307.303C292.121 307.303 292.223 307.405 292.257 307.507C292.257 307.609 292.257 307.711 292.189 307.813C291.917 308.085 265.163 336.755 266.047 350.494C266.183 352.603 266.964 354.235 268.392 355.426C280.257 365.186 342.944 391.985 343.556 392.257C343.658 392.291 343.726 392.427 343.726 392.529C343.726 392.665 343.658 392.767 343.522 392.801L323.023 400.419L299.532 410.724C299.532 410.724 299.464 410.724 299.43 410.724V410.69ZM278.591 305.603C276.891 307.235 237.967 345.461 237.525 367.091C237.117 388.55 296.506 409.091 299.43 410.078L322.819 399.807L342.672 392.461C335.805 389.502 279.305 365.084 268.018 355.834C266.455 354.541 265.605 352.773 265.469 350.494C265.095 344.611 269.412 335.564 278.319 323.593C284.03 315.907 289.911 309.412 291.441 307.779C281.82 306.045 279.271 305.671 278.625 305.603H278.591Z" fill="#1A2E35"/>
<path d="M234.839 453.099C234.839 453.099 234.669 453.099 234.635 452.997C234.533 452.895 234.533 452.69 234.635 452.588C235.009 452.214 273.118 416.505 341.108 392.767C381.018 378.857 423.309 371.716 466.754 371.614C521.079 371.478 577.375 382.36 634.113 403.922C634.249 403.99 634.351 404.16 634.283 404.296C634.215 404.432 634.045 404.534 633.909 404.466C577.613 383.041 521.725 372.192 467.774 372.192C467.434 372.192 467.094 372.192 466.754 372.192C423.377 372.294 381.154 379.402 341.278 393.311C273.424 416.981 235.417 452.622 235.043 452.997C234.975 453.065 234.907 453.065 234.839 453.065V453.099Z" fill="#1A2E35"/>
<path d="M640.266 586.753C640.266 586.753 640.096 586.753 640.062 586.651C639.892 586.481 621.671 567.742 588.967 544.14C558.78 522.34 509.724 491.801 447.411 470.069C391.285 450.48 312.11 445.277 230.182 455.819C192.141 460.717 154.644 468.913 121.737 479.557C87.9798 490.474 58.9819 503.976 37.8369 518.667C37.7009 518.77 37.5309 518.736 37.4289 518.6C37.3269 518.463 37.3609 518.293 37.4969 518.191C58.6759 503.466 87.7418 489.93 121.533 479.013C154.44 468.369 191.971 460.172 230.08 455.275C269.038 450.276 308.745 448.745 344.848 450.82C383.908 453.099 418.447 459.39 447.581 469.559C509.962 491.324 559.085 521.898 589.273 543.732C622.011 567.368 640.266 586.107 640.436 586.311C640.538 586.413 640.538 586.617 640.436 586.719C640.368 586.787 640.3 586.787 640.232 586.787L640.266 586.753Z" fill="#1A2E35"/>
<path d="M177.285 552.132C162.633 557.302 149.613 561.723 138.021 565.566C179.529 584.985 232.051 597.908 298.172 604.88C312.756 606.41 326.422 607.498 339.204 608.145C423.614 546.487 462.233 475.034 462.233 475.034C465.122 475.987 415.217 454.017 358.955 452.078C358.955 452.078 288.585 513.022 177.285 552.132Z" fill="#FDD91E"/>
<path d="M228.414 668C228.414 668 228.176 667.932 228.142 667.796C228.074 667.66 228.142 667.49 228.312 667.422C265.231 653.818 300.45 635.25 333.085 612.192C359.16 593.759 383.636 572.435 405.835 548.799C435.853 516.831 455.536 486.767 461.859 475.102C457.168 472.722 409.846 454.153 359.058 452.35C357.664 453.541 340.054 468.471 310.002 487.652C281.242 506.016 234.907 532.169 177.353 552.37C68.3984 590.664 50.109 590.154 26.9583 589.508C23.8987 589.44 20.7032 589.338 17.2356 589.338C17.0657 589.338 16.9297 589.202 16.9297 589.032C16.9297 588.862 17.0657 588.726 17.2356 588.726C20.7032 588.726 23.8987 588.828 26.9583 588.896C50.075 589.542 68.3305 590.052 177.149 551.792C234.601 531.591 280.937 505.472 309.662 487.141C340.802 467.246 358.548 451.942 358.752 451.806C358.82 451.772 358.888 451.738 358.956 451.738C410.526 453.507 458.528 472.552 462.369 474.728C462.369 474.728 462.607 474.864 462.607 474.898C462.641 475 462.607 475.136 462.539 475.204C462.471 475.272 462.437 475.306 462.369 475.306C456.046 486.937 436.329 517.103 406.243 549.139C384.044 572.775 359.533 594.133 333.425 612.6C300.756 635.692 265.469 654.294 228.516 667.932C228.516 667.932 228.448 667.932 228.414 667.932V668Z" fill="#1A2E35"/>
<path d="M496.874 489.454C523.119 500.065 552.592 474.32 550.519 446.909C548.479 420.246 515.13 405.86 494.223 397.052C438.708 373.688 402.469 377.735 402.469 377.735C402.469 377.735 458.8 367.261 517.543 374.504C568.4 380.762 621.331 411.54 642.85 459.628C654.442 485.475 654.884 514.178 652.674 541.963C650.159 573.388 640.3 586.447 640.3 586.447C640.3 586.447 569.454 529.448 496.942 489.454H496.874Z" fill="#FDD91E"/>
<path d="M640.266 586.753C640.266 586.753 640.13 586.753 640.096 586.685C639.382 586.107 568.434 529.244 496.772 489.726C496.636 489.658 496.568 489.488 496.636 489.352C496.704 489.216 496.874 489.148 497.01 489.216C508.365 493.807 521.181 491.835 532.161 483.809C544.365 474.864 551.301 460.751 550.247 446.977C548.207 420.11 514.348 405.894 494.121 397.392C439.32 374.334 402.877 378.041 402.537 378.075C402.368 378.075 402.232 377.973 402.198 377.837C402.198 377.667 402.265 377.531 402.435 377.497C403.013 377.395 459.479 367.09 517.577 374.266C543.346 377.429 569.522 387.02 591.347 401.201C615.008 416.573 632.889 436.774 643.122 459.56C655.496 487.175 654.884 518.123 652.98 542.032C650.499 573.184 640.64 586.549 640.538 586.685C640.504 586.753 640.402 586.787 640.334 586.787C640.334 586.787 640.334 586.787 640.3 586.787L640.266 586.753ZM500.002 490.848C568.57 529.108 635.575 582.366 640.198 586.005C641.524 584.066 650.057 570.565 652.368 541.93C655.972 496.562 649.037 474.184 642.578 459.73C632.413 437.046 614.6 416.947 591.041 401.609C569.284 387.462 543.176 377.939 517.509 374.776C469.474 368.859 422.561 374.879 407.501 377.191C419.331 377.021 451.151 378.619 494.325 396.78C514.688 405.35 548.751 419.668 550.825 446.875C551.878 460.853 544.875 475.17 532.501 484.217C522.371 491.631 510.71 493.943 500.036 490.848H500.002Z" fill="#1A2E35"/>
<path d="M403.387 386.781C402.911 386.781 402.503 386.407 402.503 385.931L397.098 116.65C397.098 116.174 397.472 115.766 397.948 115.732C398.458 115.732 398.832 116.106 398.866 116.582L404.271 385.863C404.271 386.339 403.897 386.747 403.421 386.781H403.387Z" fill="#1A2E35"/>
<path d="M433.847 150.795L459.004 165.112L450.437 177.356L456.692 193.238L423.207 182.729L433.847 150.795Z" fill="#E6E51D"/>
<path d="M456.692 193.51C456.692 193.51 456.624 193.51 456.59 193.51L423.105 183.001C423.105 183.001 422.969 182.933 422.935 182.865C422.901 182.797 422.901 182.729 422.935 182.627L433.575 150.693C433.575 150.693 433.677 150.556 433.745 150.522C433.813 150.522 433.915 150.522 433.983 150.522L459.14 164.806C459.14 164.806 459.276 164.908 459.276 165.01C459.276 165.078 459.276 165.18 459.242 165.248L450.743 177.355L456.964 193.101C456.964 193.101 456.964 193.339 456.896 193.408C456.828 193.476 456.76 193.51 456.692 193.51ZM423.581 182.525L456.182 192.761L450.131 177.457C450.131 177.457 450.131 177.253 450.131 177.185L458.528 165.214L433.983 151.271L423.547 182.559L423.581 182.525Z" fill="#1A2E35"/>
<path d="M432.589 179.226L423.207 182.729L433.847 150.795L432.589 179.226Z" fill="#1A2E35"/>
<path d="M423.207 183.035C423.207 183.035 423.071 183.035 423.003 182.967C422.935 182.899 422.901 182.763 422.935 182.661L433.575 150.727C433.575 150.727 433.779 150.489 433.915 150.523C434.051 150.523 434.153 150.693 434.153 150.829L432.895 179.226C432.895 179.226 432.827 179.464 432.691 179.498L423.309 183.001C423.309 183.001 423.241 183.001 423.207 183.001V183.035ZM433.473 152.903L423.717 182.219L432.317 178.988L433.473 152.903Z" fill="#1A2E35"/>
<path d="M399.036 120.935L435.615 136.511L432.589 179.226L399.954 167.391L399.036 120.935Z" fill="#F0FF00"/>
<path d="M432.589 179.498C432.589 179.498 432.521 179.498 432.487 179.498L399.852 167.663C399.852 167.663 399.648 167.527 399.648 167.391L398.73 120.935C398.73 120.935 398.764 120.731 398.866 120.697C398.934 120.629 399.07 120.629 399.138 120.697L435.717 136.273C435.717 136.273 435.921 136.443 435.887 136.579L432.861 179.294C432.861 179.294 432.793 179.464 432.725 179.532C432.691 179.532 432.623 179.566 432.555 179.566L432.589 179.498ZM400.226 167.187L432.317 178.818L435.309 136.715L399.342 121.411L400.226 167.221V167.187Z" fill="#1A2E35"/>
<path d="M266.522 310.84C266.216 310.84 265.945 310.602 265.945 310.262L262.783 197.217C262.783 196.877 263.021 196.604 263.361 196.604C263.701 196.604 263.973 196.843 263.973 197.183L267.134 310.228C267.134 310.568 266.896 310.84 266.556 310.84H266.522Z" fill="#1A2E35"/>
<path d="M278.557 211.466L289.401 218.744L285.594 222.553L289.571 228.573L274.171 224.9L278.557 211.466Z" fill="#E6E51D"/>
<path d="M289.571 228.845C289.571 228.845 289.537 228.845 289.503 228.845L274.103 225.172C274.103 225.172 273.967 225.104 273.899 225.036C273.865 224.968 273.865 224.866 273.899 224.798L278.251 211.364C278.251 211.364 278.353 211.194 278.421 211.16C278.523 211.16 278.591 211.16 278.693 211.16L289.571 218.438C289.571 218.438 289.707 218.574 289.707 218.642C289.707 218.744 289.707 218.812 289.605 218.88L285.934 222.519L289.809 228.335C289.809 228.335 289.877 228.573 289.809 228.675C289.741 228.743 289.673 228.811 289.571 228.811V228.845ZM274.545 224.696L288.925 228.097L285.356 222.723C285.356 222.723 285.288 222.451 285.39 222.349L288.959 218.778L278.693 211.908L274.545 224.662V224.696Z" fill="#1A2E35"/>
<path d="M278.115 223.369L274.171 224.9L278.557 211.466L278.115 223.369Z" fill="#1A2E35"/>
<path d="M274.171 225.172C274.171 225.172 274.035 225.172 273.967 225.104C273.899 225.036 273.865 224.9 273.899 224.798L278.251 211.364C278.251 211.364 278.421 211.126 278.591 211.16C278.727 211.16 278.829 211.33 278.829 211.466L278.387 223.403C278.387 223.403 278.319 223.642 278.183 223.676L274.273 225.172C274.273 225.172 274.205 225.172 274.171 225.172ZM278.183 213.541L274.647 224.39L277.809 223.165L278.149 213.541H278.183Z" fill="#1A2E35"/>
<path d="M263.837 199.019L279.372 205.753L278.115 223.37L264.347 218.54L263.837 199.019Z" fill="#F0FF00"/>
<path d="M278.115 223.676C278.115 223.676 278.047 223.676 278.013 223.676L264.279 218.812C264.279 218.812 264.075 218.676 264.075 218.54L263.531 199.053C263.531 199.053 263.565 198.849 263.667 198.815C263.735 198.747 263.871 198.747 263.939 198.815L279.475 205.549C279.475 205.549 279.645 205.719 279.645 205.855L278.387 223.472C278.387 223.472 278.319 223.642 278.251 223.71C278.217 223.71 278.149 223.744 278.081 223.744L278.115 223.676ZM264.653 218.302L277.843 222.961L279.067 205.923L264.143 199.461L264.653 218.302Z" fill="#1A2E35"/>
<path d="M360.893 325.498C360.893 325.498 360.587 325.362 360.587 325.226L358.276 251.937C358.276 251.937 358.412 251.631 358.548 251.631C358.718 251.631 358.854 251.767 358.854 251.903L361.165 325.192C361.165 325.192 361.029 325.498 360.893 325.498Z" fill="#1A2E35"/>
<path d="M369.732 262.412L377.755 267.785L374.933 270.574L377.857 274.995L366.536 272.308L369.732 262.412Z" fill="#E6E51D"/>
<path d="M377.857 275.301C377.857 275.301 377.823 275.301 377.789 275.301L366.434 272.614C366.434 272.614 366.298 272.546 366.23 272.478C366.196 272.41 366.196 272.308 366.23 272.24L369.426 262.343C369.426 262.343 369.528 262.173 369.596 262.139C369.698 262.139 369.766 262.139 369.868 262.139L377.857 267.479C377.857 267.479 377.993 267.615 377.993 267.683C377.993 267.785 377.993 267.853 377.891 267.921L375.239 270.574L378.061 274.791C378.061 274.791 378.129 275.029 378.061 275.131C377.993 275.199 377.925 275.267 377.823 275.267L377.857 275.301ZM366.91 272.104L377.211 274.553L374.695 270.744C374.695 270.744 374.627 270.472 374.729 270.37L377.279 267.819L369.902 262.888L366.91 272.104Z" fill="#1A2E35"/>
<path d="M369.426 271.186L366.536 272.308L369.732 262.412L369.426 271.186Z" fill="#5AE4A7"/>
<path d="M366.536 272.614C366.536 272.614 366.4 272.614 366.332 272.546C366.264 272.478 366.23 272.342 366.264 272.24L369.46 262.344C369.46 262.344 369.63 262.106 369.8 262.14C369.936 262.14 370.038 262.31 370.038 262.446L369.732 271.22C369.732 271.22 369.664 271.458 369.528 271.492L366.638 272.614C366.638 272.614 366.57 272.614 366.536 272.614ZM369.358 264.52L366.978 271.798L369.12 270.982L369.358 264.52Z" fill="#1A2E35"/>
<path d="M358.921 253.263L370.344 258.229L369.426 271.186L359.295 267.615L358.921 253.263Z" fill="#F0FF00"/>
<path d="M369.426 271.492C369.426 271.492 369.358 271.492 369.324 271.492L359.193 267.921C359.193 267.921 358.989 267.785 358.989 267.649L358.615 253.297C358.615 253.297 358.649 253.093 358.751 253.059C358.853 253.025 358.955 252.991 359.023 253.059L370.446 258.025C370.446 258.025 370.616 258.195 370.616 258.331L369.698 271.288C369.698 271.288 369.63 271.458 369.562 271.526C369.528 271.526 369.46 271.56 369.392 271.56L369.426 271.492ZM359.601 267.411L369.154 270.778L370.038 258.399L359.227 253.705L359.601 267.411Z" fill="#1A2E35"/>
<path d="M469.066 496.834C468.42 496.834 467.876 496.29 467.91 495.644L471.038 47.1703C471.038 46.5241 471.616 45.98 472.228 46.014C472.874 46.014 473.417 46.5581 473.383 47.2043L470.256 495.678C470.256 496.324 469.712 496.834 469.066 496.834Z" fill="#1A2E35"/>
<path d="M519.175 94.3743L553.17 118.827L540.524 130.628L552.66 150.285L509.52 144.707L519.175 94.3743Z" fill="#E6E51D"/>
<path d="M552.66 150.591C552.66 150.591 552.66 150.591 552.626 150.591L509.486 145.013C509.486 145.013 509.316 144.945 509.282 144.877C509.248 144.809 509.214 144.741 509.248 144.639L518.903 94.3402C518.903 94.3402 519.005 94.1702 519.073 94.1362C519.175 94.1021 519.277 94.1362 519.345 94.1702L553.34 118.622C553.34 118.622 553.442 118.758 553.476 118.827C553.476 118.929 553.476 118.997 553.374 119.065L540.898 130.696L552.898 150.149C552.898 150.149 552.966 150.353 552.898 150.455C552.83 150.523 552.762 150.591 552.66 150.591ZM509.86 144.435L552.082 149.911L540.286 130.764C540.286 130.764 540.218 130.492 540.32 130.389L552.728 118.861L519.413 94.8843L509.894 144.435H509.86Z" fill="#1A2E35"/>
<path d="M533.725 142.463L509.52 144.707L519.175 94.3743L533.725 142.463Z" fill="#1A2E35"/>
<path d="M509.52 144.979C509.52 144.979 509.35 144.945 509.316 144.877C509.248 144.809 509.214 144.707 509.248 144.639L518.903 94.3404C518.903 94.3404 519.039 94.1023 519.175 94.1023C519.311 94.1023 519.447 94.1703 519.481 94.3063L533.997 142.395C533.997 142.395 533.997 142.565 533.963 142.633C533.929 142.701 533.827 142.769 533.759 142.769L509.554 145.013L509.52 144.979ZM519.243 95.5987L509.86 144.333L533.317 142.157L519.243 95.5647V95.5987Z" fill="#1A2E35"/>
<path d="M473.485 53.0198L538.212 85.4641L533.725 142.463L473.077 115.46L473.485 53.0198Z" fill="#F0FF00"/>
<path d="M533.725 142.769C533.725 142.769 533.657 142.769 533.589 142.769L472.941 115.766C472.941 115.766 472.771 115.596 472.771 115.494L473.179 53.0537C473.179 53.0537 473.247 52.8497 473.315 52.8157C473.417 52.7476 473.519 52.7476 473.587 52.8157L538.314 85.26C538.314 85.26 538.484 85.4301 538.484 85.5321L533.997 142.531C533.997 142.531 533.929 142.701 533.861 142.769C533.827 142.769 533.759 142.803 533.725 142.803V142.769ZM473.349 115.29L533.453 142.055L537.906 85.6681L473.791 53.5298L473.383 115.29H473.349Z" fill="#1A2E35"/>
<path d="M302.285 65.2629H175.925C175.925 65.2629 175.721 65.1948 175.687 65.1268C175.619 65.0248 175.619 64.9228 175.687 64.8207C175.755 64.7187 181.364 54.7201 189.115 50.299C193.807 47.6123 201.592 49.6528 207.813 51.3193C211.96 52.4075 215.564 53.3598 216.821 52.5436C217.671 51.9654 218.283 50.6051 219.031 48.8706C221.071 44.2795 224.504 36.5935 237.932 32.6825C245.003 30.6079 250.443 32.9205 254.828 34.757C259.077 36.5595 262.409 37.9538 265.571 34.825C266.828 33.5667 268.052 32.0023 269.48 30.1658C271.486 27.5812 273.763 24.6564 276.789 21.7997C276.891 21.6976 277.095 21.6976 277.197 21.7997C277.299 21.9017 277.299 22.1057 277.197 22.2078C274.205 25.0645 271.928 27.9553 269.956 30.5059C268.528 32.3424 267.27 33.9408 266.013 35.1991C262.579 38.634 258.908 37.0696 254.624 35.2671C250.341 33.4647 245.003 31.1861 238.102 33.1926C224.946 37.0356 221.717 44.2795 219.575 49.0747C218.759 50.8772 218.113 52.3395 217.127 52.9857C215.666 53.9719 212.13 53.0197 207.643 51.8634C201.49 50.231 193.875 48.2245 189.387 50.7751C182.724 54.5841 177.625 62.6782 176.435 64.6507H302.285C302.285 64.6507 302.591 64.7867 302.591 64.9568C302.591 65.1268 302.455 65.2629 302.285 65.2629Z" fill="#1A2E35"/>
<path d="M394.379 65.2628H316.495C316.495 65.2628 316.19 65.1268 316.19 64.9567C316.19 64.7867 316.326 64.6507 316.495 64.6507H394.005C393.291 62.032 388.633 45.9118 377.653 41.9328C369.086 38.804 364.633 43.6673 361.403 47.2382C360.111 48.6665 358.989 49.8909 357.868 50.299C356.508 50.8091 355.386 50.8091 354.502 50.299C353.346 49.6528 353.108 48.3945 353.108 48.3265C352.972 47.9864 336.247 7.54995 307.963 9.72651C299.226 10.4067 291.917 12.4132 285.696 15.8821C285.56 15.9501 285.39 15.8821 285.288 15.7801C285.22 15.644 285.288 15.474 285.39 15.372C291.679 11.8691 299.056 9.82854 307.895 9.14836C322.921 7.99206 334.581 18.6708 341.686 27.8532C349.369 37.7497 353.618 48.0544 353.652 48.1564C353.652 48.2244 353.89 49.2787 354.808 49.7888C355.522 50.1969 356.474 50.1629 357.664 49.7208C358.65 49.3467 359.737 48.1564 360.995 46.7961C364.361 43.1231 368.95 38.0898 377.891 41.3547C390.095 45.8098 394.65 64.6847 394.718 64.8547C394.718 64.9567 394.718 65.0247 394.65 65.0928C394.582 65.1608 394.514 65.1948 394.412 65.1948L394.379 65.2628Z" fill="#1A2E35"/>
<path d="M582.542 239.83H501.361C501.361 239.83 501.157 239.762 501.124 239.694C501.056 239.592 501.056 239.49 501.124 239.388C501.259 239.15 504.285 233.776 508.568 231.293C511.22 229.797 515.537 230.919 519.005 231.838C521.181 232.416 523.22 232.96 523.866 232.518C524.308 232.212 524.648 231.498 525.056 230.545C526.178 227.995 528.116 223.71 535.561 221.533C539.504 220.377 542.564 221.669 544.977 222.689C547.357 223.71 549.091 224.424 550.756 222.757C551.436 222.077 552.116 221.193 552.898 220.207C554.224 218.506 555.72 216.602 557.827 214.765C557.963 214.663 558.133 214.663 558.235 214.765C558.337 214.901 558.337 215.071 558.235 215.173C556.162 216.976 554.666 218.846 553.374 220.513C552.592 221.533 551.878 222.417 551.198 223.131C549.227 225.104 547.153 224.22 544.773 223.199C542.292 222.145 539.504 220.955 535.731 222.077C528.524 224.186 526.756 228.131 525.6 230.783C525.158 231.804 524.784 232.62 524.206 232.994C523.356 233.572 521.385 233.062 518.869 232.382C515.503 231.498 511.322 230.375 508.874 231.77C505.407 233.742 502.721 237.857 501.905 239.184H582.576C582.576 239.184 582.882 239.32 582.882 239.49C582.882 239.66 582.746 239.796 582.576 239.796L582.542 239.83Z" fill="#1A2E35"/>
<path d="M622.044 239.83H589.171C589.171 239.83 588.865 239.694 588.865 239.524C588.865 239.354 589.001 239.218 589.171 239.218H621.637C621.127 237.381 618.543 229.049 612.73 226.906C608.072 225.206 605.659 227.859 603.891 229.797C603.177 230.579 602.531 231.293 601.885 231.532C601.103 231.838 600.424 231.838 599.914 231.532C599.234 231.157 599.064 230.375 599.064 230.341C598.996 230.171 589.783 207.929 574.247 209.12C570.644 209.392 567.414 210.106 564.627 211.262C564.491 211.33 564.321 211.262 564.253 211.092C564.185 210.922 564.253 210.786 564.423 210.718C567.278 209.562 570.576 208.814 574.247 208.542C590.191 207.317 599.574 229.933 599.642 230.171C599.642 230.239 599.778 230.749 600.22 230.987C600.594 231.191 601.069 231.157 601.681 230.953C602.191 230.749 602.803 230.103 603.449 229.389C605.217 227.45 607.902 224.526 612.934 226.328C619.733 228.811 622.214 238.979 622.316 239.422C622.316 239.524 622.316 239.592 622.248 239.66C622.18 239.728 622.112 239.762 622.011 239.762L622.044 239.83Z" fill="#1A2E35"/>
<path d="M348.043 276.321H277.299C277.299 276.321 277.095 276.253 277.061 276.185C276.993 276.083 276.993 275.981 277.061 275.879C277.129 275.743 278.931 272.546 281.48 271.084C283.078 270.166 285.628 270.846 287.701 271.39C288.823 271.696 290.115 272.036 290.455 271.798C290.693 271.662 290.863 271.22 291.101 270.71C291.781 269.179 292.903 266.663 297.356 265.37C299.702 264.69 301.504 265.438 302.965 266.051C304.461 266.697 305.345 267.003 306.229 266.119C306.637 265.71 307.011 265.234 307.487 264.622C309.424 262.14 312.382 258.365 320.065 257.752C329.516 257.038 334.853 269.962 335.091 270.506C335.091 270.506 335.091 270.54 335.091 270.574C335.091 270.574 335.159 270.846 335.363 270.948C335.533 271.05 335.805 271.05 336.111 270.914C336.383 270.812 336.723 270.438 337.097 270.03C338.15 268.873 339.748 267.105 342.774 268.193C346.819 269.655 348.281 275.675 348.349 275.947C348.349 276.049 348.349 276.117 348.281 276.185C348.213 276.253 348.145 276.287 348.043 276.287V276.321ZM277.843 275.709H347.669C347.295 274.383 345.765 269.894 342.57 268.737C339.918 267.785 338.592 269.213 337.504 270.404C337.063 270.88 336.689 271.288 336.281 271.458C335.771 271.662 335.363 271.628 335.023 271.458C334.615 271.254 334.513 270.846 334.479 270.71C334.343 270.404 333.017 267.275 330.671 264.248C328.428 261.357 324.756 257.99 320.065 258.365C312.62 258.943 309.9 262.446 307.895 264.996C307.419 265.608 307.011 266.119 306.603 266.527C305.413 267.717 304.087 267.173 302.693 266.595C301.266 265.983 299.634 265.302 297.492 265.949C293.311 267.173 292.291 269.451 291.611 270.982C291.339 271.594 291.135 272.07 290.761 272.342C290.217 272.716 289.095 272.41 287.532 272.002C285.594 271.492 283.146 270.846 281.752 271.628C279.883 272.682 278.387 274.825 277.809 275.743L277.843 275.709Z" fill="#1A2E35"/>
<path d="M103.107 170.622H32.3974C32.3974 170.622 32.1934 170.554 32.1594 170.486C32.0914 170.384 32.0914 170.282 32.1594 170.18C32.2274 170.044 34.0291 166.847 36.5788 165.385C38.1765 164.466 40.7262 165.147 42.7999 165.691C43.9217 165.997 45.2136 166.337 45.5535 166.099C45.7915 165.963 45.9614 165.521 46.1994 165.011C46.8793 163.48 48.0012 160.963 52.4545 159.671C54.8002 158.991 56.602 159.739 58.0637 160.351C59.5595 160.998 60.4434 161.304 61.3273 160.419C61.7352 160.011 62.1092 159.535 62.5851 158.923C64.5228 156.44 67.4804 152.665 75.1633 152.053C84.614 151.339 89.9513 164.262 90.1892 164.806C90.1892 164.806 90.1892 164.84 90.1892 164.874C90.1892 164.874 90.2572 165.147 90.4612 165.249C90.6312 165.351 90.9031 165.351 91.2091 165.215C91.481 165.113 91.821 164.738 92.195 164.33C93.2488 163.174 94.8466 161.406 97.8722 162.494C101.918 163.956 103.379 169.976 103.447 170.248C103.447 170.35 103.447 170.418 103.379 170.486C103.311 170.554 103.243 170.588 103.141 170.588L103.107 170.622ZM32.9073 170.044H102.733C102.36 168.717 100.83 164.228 97.6342 163.072C94.9826 162.12 93.6567 163.548 92.6029 164.738C92.161 165.215 91.787 165.623 91.3791 165.793C90.8691 165.963 90.4612 165.963 90.1212 165.793C89.7133 165.589 89.6113 165.181 89.5773 165.045C89.4413 164.738 88.1155 161.61 85.7699 158.583C83.5262 155.692 79.8547 152.325 75.1633 152.699C67.7184 153.278 64.9988 156.78 62.9931 159.331C62.5171 159.943 62.1092 160.453 61.7012 160.861C60.5114 162.052 59.1856 161.508 57.7918 160.929C56.364 160.317 54.7322 159.637 52.5905 160.283C48.4091 161.508 47.3892 163.786 46.7093 165.317C46.4374 165.929 46.2334 166.405 45.8595 166.677C45.3155 167.051 44.1937 166.745 42.6299 166.337C40.6922 165.827 38.2445 165.181 36.8507 165.963C34.981 167.017 33.4852 169.16 32.9073 170.078V170.044Z" fill="#1A2E35"/>
<path d="M185.988 125.968C185.988 125.968 189.183 134.437 189.829 138.756C190.475 143.075 192.277 145.421 191.801 146.68C191.325 147.972 189.727 150.829 189.727 151.815C189.727 152.801 192.583 160.351 193.841 163.072C195.133 165.793 191.427 166.609 190.305 168.207C189.183 169.806 188.877 173.479 188.402 178.138C187.926 182.763 189.353 185.348 188.232 187.728C187.11 190.143 179.903 190.449 176.877 189.633C173.852 188.817 172.39 187.388 172.39 187.388L171.438 191.401C171.438 191.401 163.925 185.484 156.242 182.117C148.559 178.75 135.913 175.383 135.913 175.383L136.729 166.439C136.729 166.439 128.264 153.788 124.898 143.245C121.533 132.668 127.618 120.697 131.12 116.038C134.655 111.413 152.061 107.876 161.035 107.706C169.976 107.536 184.22 114.439 184.866 114.575C185.512 114.746 190.951 113.283 191.087 115.392C191.257 117.466 189.795 120.187 189.795 120.187C189.795 120.187 196.662 116.99 196.016 120.663C195.371 124.336 187.382 126.411 185.954 125.934L185.988 125.968Z" fill="white"/>
<path d="M171.404 191.707C171.404 191.707 171.268 191.707 171.234 191.639C171.166 191.571 163.653 185.688 156.106 182.389C148.525 179.09 135.947 175.723 135.845 175.689C135.709 175.655 135.607 175.519 135.641 175.383L136.423 166.541C135.675 165.385 127.788 153.379 124.592 143.347C123.131 138.688 123.301 133.178 125.136 127.363C126.666 122.465 129.114 118.214 130.882 115.902C134.587 111.005 152.74 107.604 161.035 107.468C168.752 107.366 180.141 112.297 183.914 113.929C184.424 114.167 184.866 114.337 184.968 114.371C185.104 114.371 185.648 114.337 186.124 114.269C187.654 114.065 189.999 113.759 190.985 114.541C191.257 114.78 191.427 115.086 191.461 115.426C191.563 116.922 190.917 118.691 190.475 119.677C191.869 119.099 194.691 118.146 195.914 119.065C196.39 119.439 196.56 120.017 196.424 120.799C196.22 122.057 195.234 123.214 193.501 124.234C191.155 125.628 187.959 126.41 186.498 126.376C187.178 128.213 189.625 135.015 190.169 138.79C190.475 140.898 191.087 142.531 191.563 143.823C192.039 145.149 192.413 146.136 192.107 146.85C191.937 147.292 191.631 147.938 191.325 148.618C190.747 149.809 190.067 151.305 190.067 151.849C190.067 152.665 192.787 160.045 194.147 163.004C195.132 165.078 193.467 166.201 192.175 167.085C191.529 167.527 190.951 167.935 190.611 168.411C189.591 169.874 189.251 173.173 188.809 177.424L188.741 178.206C188.537 180.314 188.707 181.947 188.843 183.375C189.047 185.11 189.183 186.504 188.537 187.898C187.314 190.517 180.039 190.823 176.843 189.973C174.633 189.395 173.24 188.476 172.628 188L171.778 191.537C171.778 191.537 171.676 191.707 171.574 191.741C171.574 191.741 171.506 191.741 171.472 191.741L171.404 191.707ZM136.219 175.179C138.02 175.655 149.307 178.784 156.344 181.845C163.007 184.77 169.636 189.667 171.234 190.891L172.084 187.32C172.084 187.32 172.186 187.15 172.288 187.116C172.39 187.116 172.492 187.116 172.56 187.184C172.56 187.184 173.987 188.579 176.911 189.361C179.835 190.143 186.906 189.803 187.925 187.592C188.503 186.368 188.367 185.042 188.163 183.409C187.993 181.947 187.823 180.246 188.061 178.104L188.129 177.322C188.571 173.002 188.911 169.602 190.033 168.037C190.441 167.459 191.087 167.017 191.733 166.575C193.297 165.487 194.215 164.738 193.501 163.208C192.277 160.589 189.353 152.869 189.353 151.815C189.353 151.135 190.033 149.707 190.679 148.312C190.985 147.632 191.291 147.02 191.461 146.578C191.665 146.034 191.359 145.149 190.883 143.959C190.441 142.701 189.795 141 189.489 138.79C188.877 134.539 185.682 126.138 185.682 126.036C185.648 125.934 185.682 125.798 185.75 125.73C185.818 125.662 185.954 125.628 186.056 125.662C186.838 125.934 190.441 125.22 193.093 123.656C194.181 123.01 195.506 121.955 195.744 120.629C195.846 120.051 195.744 119.677 195.472 119.473C194.419 118.657 191.121 119.915 189.931 120.493C189.829 120.561 189.693 120.493 189.591 120.425C189.489 120.323 189.489 120.187 189.557 120.085C189.557 120.085 190.951 117.398 190.815 115.46C190.815 115.256 190.713 115.12 190.577 114.984C189.795 114.337 187.518 114.643 186.192 114.848C185.41 114.95 185.036 114.984 184.832 114.95C184.73 114.95 184.458 114.814 183.71 114.473C180.005 112.841 168.684 107.944 161.103 108.08C151.755 108.25 134.791 111.855 131.425 116.276C127.244 121.785 122.145 133.518 125.238 143.211C128.536 153.618 136.967 166.201 137.035 166.337C137.069 166.405 137.103 166.473 137.069 166.541L136.287 175.247L136.219 175.179Z" fill="#1A2E35"/>
<path d="M187.62 154.604C188.126 154.604 188.537 153.386 188.537 151.883C188.537 150.38 188.126 149.162 187.62 149.162C187.113 149.162 186.702 150.38 186.702 151.883C186.702 153.386 187.113 154.604 187.62 154.604Z" fill="#1A2E35"/>
<path d="M186.6 146.816C186.6 146.816 186.464 146.816 186.396 146.748C186.26 146.646 186.26 146.442 186.396 146.34C187.314 145.353 188.197 144.877 189.047 144.945C189.999 145.047 190.475 145.796 190.509 145.83C190.611 145.966 190.543 146.136 190.407 146.238C190.271 146.34 190.101 146.272 189.999 146.136C189.999 146.136 189.625 145.592 188.979 145.524C188.333 145.455 187.586 145.898 186.838 146.714C186.77 146.782 186.702 146.816 186.634 146.816H186.6Z" fill="#1A2E35"/>
<path d="M188.197 187.728C189.319 185.314 187.891 182.763 188.367 178.138C188.843 173.513 189.183 169.806 190.271 168.207C187.076 167.085 180.514 171.88 179.699 170.758C178.883 169.636 178.271 149.639 178.747 146.612C179.223 143.585 183.37 143.585 185.138 139.742C186.906 135.899 180.99 131.58 180.65 129.029C180.31 126.479 185.92 126.003 185.92 126.003C187.347 126.479 195.37 124.404 195.982 120.731C196.628 117.058 189.761 120.255 189.761 120.255C189.761 120.255 191.189 117.534 191.053 115.46C190.883 113.385 185.444 114.814 184.832 114.644C184.186 114.474 169.942 107.604 161.001 107.774C152.06 107.944 134.621 111.447 131.085 116.106C127.55 120.731 121.499 132.736 124.864 143.313C127.72 152.325 134.281 162.8 136.185 165.725C136.967 166.235 137.613 166.575 137.986 166.677C141.012 167.493 147.437 169.228 155.426 167.799C163.415 166.371 169.806 163.48 168.718 161.236C167.63 158.991 166.95 149.707 169.534 145.388C172.118 141.068 174.973 147.632 174.327 155.454C173.681 163.31 171.914 168.241 171.438 173.207C170.962 178.172 172.39 187.456 172.39 187.456C172.39 187.456 173.817 188.885 176.877 189.701C179.903 190.517 187.11 190.177 188.231 187.796L188.197 187.728Z" fill="#1A2E35"/>
<path d="M180.684 190.347C179.189 190.347 177.761 190.211 176.775 189.939C173.681 189.123 172.22 187.694 172.152 187.626C172.118 187.592 172.084 187.524 172.084 187.456C172.084 187.354 170.656 178.07 171.132 173.139C171.336 170.996 171.778 168.819 172.254 166.541C172.9 163.412 173.647 159.875 173.987 155.386C174.463 149.639 173.036 144.809 171.438 144.299C170.758 144.095 170.146 144.809 169.738 145.489C167.188 149.775 167.902 158.923 168.956 161.031C169.16 161.474 169.16 161.95 168.956 162.46C167.936 164.534 162.531 166.779 155.494 168.037C147.607 169.466 141.182 167.765 138.122 166.949H137.953C137.545 166.779 136.933 166.473 136.049 165.895C136.015 165.895 135.981 165.827 135.947 165.793C134.009 162.8 127.482 152.325 124.592 143.313C123.131 138.654 123.301 133.144 125.136 127.329C126.666 122.432 129.114 118.18 130.882 115.868C134.587 110.971 152.74 107.57 161.035 107.434C168.752 107.298 180.141 112.263 183.914 113.895C184.424 114.133 184.866 114.303 184.968 114.337C185.104 114.337 185.648 114.303 186.124 114.235C187.654 114.031 189.999 113.725 190.985 114.507C191.257 114.746 191.427 115.052 191.461 115.392C191.563 116.888 190.917 118.657 190.475 119.643C191.869 119.065 194.691 118.112 195.914 119.031C196.39 119.405 196.56 119.983 196.424 120.765C196.22 122.023 195.234 123.18 193.501 124.2C190.849 125.798 187.144 126.581 186.022 126.275C185.58 126.309 182.418 126.683 181.364 127.975C181.126 128.281 181.024 128.621 181.058 128.995C181.16 129.879 182.044 131.036 182.996 132.294C184.662 134.505 186.702 137.293 185.512 139.878C184.594 141.885 183.064 142.871 181.738 143.721C180.447 144.537 179.359 145.285 179.121 146.68C178.611 149.911 179.359 169.602 180.039 170.622C180.243 170.928 182.044 170.112 183.2 169.602C185.58 168.581 188.503 167.289 190.441 167.935C190.543 167.935 190.611 168.037 190.611 168.139C190.611 168.241 190.611 168.309 190.577 168.411C189.557 169.874 189.217 173.173 188.775 177.424L188.707 178.206C188.503 180.314 188.673 181.947 188.809 183.375C189.013 185.11 189.149 186.504 188.503 187.898C187.654 189.701 183.982 190.381 180.718 190.381L180.684 190.347ZM172.662 187.252C172.968 187.524 174.395 188.681 176.945 189.361C179.869 190.143 186.94 189.803 187.959 187.592C188.537 186.368 188.401 185.042 188.197 183.409C188.027 181.947 187.857 180.246 188.095 178.104L188.163 177.322C188.571 173.309 188.911 170.078 189.829 168.411C188.095 168.071 185.512 169.228 183.404 170.146C181.364 171.03 180.005 171.642 179.495 170.962C178.611 169.738 177.999 149.741 178.475 146.578C178.747 144.911 180.005 144.095 181.33 143.245C182.588 142.429 184.05 141.476 184.9 139.64C185.92 137.361 184.084 134.879 182.418 132.668C181.398 131.308 180.515 130.117 180.379 129.097C180.311 128.553 180.447 128.077 180.82 127.635C182.078 126.07 185.784 125.73 185.954 125.696C185.988 125.696 186.022 125.696 186.056 125.696C186.838 125.968 190.441 125.254 193.093 123.69C194.181 123.044 195.506 121.989 195.744 120.663C195.846 120.085 195.744 119.711 195.472 119.507C194.419 118.691 191.121 119.949 189.931 120.527C189.829 120.595 189.693 120.527 189.591 120.459C189.489 120.357 189.489 120.221 189.557 120.119C189.557 120.119 190.951 117.432 190.815 115.494C190.815 115.29 190.713 115.154 190.577 115.018C189.795 114.371 187.518 114.678 186.192 114.882C185.41 114.984 185.036 115.018 184.832 114.984C184.73 114.984 184.458 114.848 183.71 114.507C180.005 112.875 168.684 107.944 161.103 108.114C151.755 108.284 134.791 111.889 131.425 116.31C127.244 121.819 122.145 133.552 125.238 143.245C128.06 152.121 134.519 162.46 136.491 165.521C137.443 166.133 137.919 166.337 138.156 166.405H138.326C141.352 167.255 147.675 168.921 155.46 167.527C162.089 166.337 167.562 164.126 168.48 162.29C168.65 161.984 168.65 161.678 168.48 161.406C167.358 159.161 166.61 149.809 169.296 145.285C170.214 143.755 171.098 143.653 171.676 143.823C173.749 144.469 175.109 149.843 174.633 155.522C174.259 160.045 173.511 163.582 172.866 166.745C172.356 169.126 171.948 171.2 171.744 173.309C171.302 177.9 172.526 186.368 172.696 187.388L172.662 187.252Z" fill="#1A2E35"/>
<path d="M173.478 189.905C173.478 189.905 174.191 186.64 161.443 180.621C148.695 174.601 135.199 172.05 133.567 172.765C131.935 173.479 130.1 176.948 130.1 176.948C130.1 176.948 143.596 179.124 154.712 184.804C165.829 190.449 175.313 195.38 175.313 195.38L173.478 189.905Z" fill="white"/>
<path d="M175.279 195.686C175.279 195.686 175.177 195.686 175.143 195.686C175.041 195.652 165.557 190.687 154.542 185.11C143.596 179.532 130.168 177.322 130.032 177.288C129.93 177.288 129.862 177.22 129.828 177.118C129.794 177.016 129.794 176.948 129.828 176.846C129.896 176.71 131.731 173.275 133.431 172.527C135.199 171.744 148.729 174.329 161.545 180.383C173.41 185.994 173.818 189.259 173.75 189.905L175.551 195.312C175.551 195.312 175.551 195.55 175.449 195.618C175.381 195.652 175.313 195.686 175.245 195.686H175.279ZM130.542 176.744C132.887 177.152 144.888 179.498 154.814 184.532C164.163 189.293 172.458 193.578 174.769 194.768L173.172 189.973C173.172 189.973 173.172 189.871 173.172 189.837C173.172 189.769 173.444 186.572 161.307 180.859C148.219 174.669 135.097 172.39 133.669 173.037C132.445 173.581 131.052 175.859 130.542 176.744Z" fill="#1A2E35"/>
<path d="M180.582 198.849C180.582 198.849 178.951 194.666 173.104 191.741C167.256 188.817 161.171 182.423 137.375 177.152C132.853 176.165 131.357 176.438 130.1 176.982C128.842 177.526 125.17 180.995 123.539 183.545L121.907 186.096C121.907 186.096 137.409 185.926 148.151 189.191C158.894 192.456 183.88 202.148 183.88 202.148L180.616 198.883L180.582 198.849Z" fill="#F0FF00"/>
<path d="M183.846 202.42C183.846 202.42 183.778 202.42 183.744 202.42C183.506 202.318 158.656 192.728 148.049 189.497C137.477 186.266 122.043 186.402 121.907 186.402C121.805 186.402 121.703 186.334 121.635 186.266C121.567 186.164 121.601 186.062 121.635 185.96L123.267 183.409C124.898 180.859 128.604 177.322 129.964 176.744C131.426 176.131 133.091 175.961 137.443 176.914C156.174 181.063 164.061 185.96 169.296 189.225C170.758 190.143 171.982 190.891 173.24 191.537C178.815 194.326 180.583 198.203 180.821 198.747L184.05 201.978C184.05 201.978 184.152 202.216 184.084 202.352C184.016 202.454 183.948 202.488 183.846 202.488V202.42ZM122.417 185.79C125.272 185.79 138.667 185.994 148.219 188.919C157.466 191.741 177.387 199.359 182.656 201.366L180.345 199.053C180.345 199.053 180.277 198.985 180.277 198.951C180.277 198.917 178.611 194.836 172.934 192.013C171.676 191.367 170.418 190.585 168.956 189.701C163.755 186.47 155.902 181.573 137.307 177.458C132.683 176.437 131.324 176.778 130.202 177.254C129.046 177.764 125.442 181.131 123.777 183.715L122.417 185.824V185.79Z" fill="#1A2E35"/>
<path d="M232.459 379.266C232.459 379.266 226.85 384.027 228.346 387.666C229.842 391.305 233.105 396.712 233.105 396.712L235.485 394.128C235.485 394.128 232.255 386.782 232.901 385.727C233.547 384.639 249.083 375.593 249.083 375.593L253.604 385.081L255.984 383.143C255.984 383.143 252.109 373.212 250.579 372.362C249.083 371.512 236.335 374.947 232.459 379.266Z" fill="#1A2E35"/>
<path d="M233.105 397.018C233.003 397.018 232.935 396.95 232.867 396.882C232.867 396.814 229.604 391.441 228.108 387.768C226.544 383.993 231.881 379.368 232.255 379.028C236.165 374.708 249.015 371.104 250.715 372.09C252.279 372.974 255.848 381.986 256.222 383.007C256.256 383.143 256.222 383.279 256.12 383.347L253.74 385.285C253.74 385.285 253.57 385.353 253.502 385.353C253.4 385.353 253.332 385.285 253.298 385.183L248.913 375.967C242.93 379.47 233.581 385.115 233.139 385.829C232.799 386.408 234.193 390.421 235.757 393.957C235.791 394.059 235.757 394.196 235.689 394.264L233.309 396.848C233.309 396.848 233.173 396.95 233.105 396.95V397.018ZM249.695 372.498C246.669 372.498 236.165 375.593 232.663 379.47C232.595 379.504 227.224 384.129 228.652 387.53C229.91 390.591 232.459 394.978 233.173 396.202L235.145 394.059C234.295 392.121 231.983 386.646 232.663 385.557C233.343 384.435 247.349 376.239 248.947 375.321C249.015 375.287 249.117 375.253 249.185 375.321C249.253 375.321 249.321 375.389 249.355 375.491L253.706 384.639L255.61 383.075C254.046 379.13 251.463 373.212 250.443 372.634C250.307 372.566 250.069 372.532 249.729 372.532L249.695 372.498Z" fill="#1A2E35"/>
<path d="M235.893 355.765C235.893 355.765 250.137 369.777 250.987 370.661C251.836 371.545 252.482 374.776 251.836 376.477C251.19 378.211 239.122 387.7 236.743 388.788C234.363 389.876 233.071 386.645 232.867 385.761C232.663 384.877 231.575 382.53 231.371 381.884C231.167 381.238 225.32 374.776 223.62 369.811C221.921 364.846 221.683 362.907 221.683 362.907L235.927 355.799L235.893 355.765Z" fill="white"/>
<path d="M235.825 389.264C235.485 389.264 235.179 389.196 234.873 389.026C233.513 388.38 232.765 386.475 232.595 385.795C232.459 385.285 231.983 384.163 231.609 383.279C231.371 382.7 231.167 382.19 231.065 381.952C230.997 381.816 230.487 381.136 229.91 380.388C228.04 378.007 224.572 373.552 223.315 369.879C221.615 364.948 221.377 363.009 221.343 362.907C221.343 362.771 221.377 362.669 221.513 362.601L235.757 355.493C235.757 355.493 235.995 355.493 236.097 355.561C236.233 355.697 250.341 369.607 251.191 370.457C252.176 371.444 252.822 374.776 252.108 376.579C251.395 378.449 239.19 387.972 236.879 389.026C236.505 389.196 236.165 389.264 235.825 389.264ZM221.989 363.043C222.091 363.656 222.499 365.696 223.892 369.675C225.15 373.246 228.584 377.667 230.419 380.014C231.269 381.068 231.609 381.544 231.677 381.748C231.745 381.986 231.949 382.462 232.187 383.04C232.595 383.993 233.037 385.115 233.173 385.659C233.309 386.237 233.989 387.938 235.111 388.516C235.587 388.754 236.097 388.754 236.641 388.516C239.122 387.394 250.987 378.007 251.565 376.375C252.176 374.708 251.497 371.58 250.783 370.865C249.967 370.049 237.355 357.636 235.859 356.14L222.023 363.077L221.989 363.043Z" fill="#1A2E35"/>
<path d="M65.9171 365.764C65.9171 365.764 68.8407 372.498 69.5206 373.178C70.2005 373.858 76.7276 380.83 77.4075 382.632C78.0874 384.435 77.4075 390.523 79.8892 395.012C82.3708 399.501 80.773 401.303 78.0874 400.419C75.4018 399.535 73.3621 394.127 73.3621 394.127C73.3621 394.127 75.8437 403.14 76.2857 404.704C76.7276 406.269 83.4926 408.071 82.3708 409.669C81.249 411.234 69.3166 411.914 66.631 411.71C63.9454 411.472 58.9821 405.18 57.4183 404.296C55.8545 403.412 51.8091 386.305 50.6873 383.143C49.5654 379.98 47.7637 366.274 47.7637 366.274L65.9851 365.832L65.9171 365.764Z" fill="white"/>
<path d="M68.0246 412.016C67.4127 412.016 66.9028 412.016 66.5968 411.982C64.7271 411.812 61.9735 409.057 59.7978 406.847C58.7099 405.759 57.7581 404.806 57.2821 404.5C56.1943 403.854 54.3585 397.494 52.1149 389.23C51.367 386.51 50.7211 384.163 50.3811 383.211C49.2593 380.082 47.5255 366.853 47.4575 366.274C47.4575 366.206 47.4575 366.104 47.5255 366.036C47.5935 365.968 47.6615 365.934 47.7295 365.934L65.9509 365.492C65.9509 365.492 66.1889 365.56 66.2229 365.662C67.3787 368.349 69.2824 372.532 69.7584 373.008C70.3023 373.552 76.9994 380.66 77.7133 382.565C77.9512 383.211 78.0192 384.299 78.1212 385.693C78.2912 388.346 78.5631 391.985 80.1609 394.91C81.5207 397.392 81.7927 399.297 80.9428 400.317C80.3649 401.031 79.277 401.167 77.9852 400.759C76.5914 400.283 75.3676 398.719 74.5177 397.222C75.2656 399.977 76.3195 403.718 76.5914 404.67C76.7614 405.248 78.2232 405.997 79.481 406.677C81.0448 407.493 82.5406 408.275 82.7446 409.125C82.8125 409.397 82.7446 409.636 82.5746 409.874C81.4867 411.404 72.138 412.05 68.0246 412.05V412.016ZM48.0354 366.512C48.3074 368.621 49.9052 380.184 50.891 383.007C51.231 383.993 51.8769 386.34 52.6248 389.094C54.0866 394.468 56.5342 403.446 57.5201 404.024C58.098 404.364 59.0159 405.282 60.1717 406.439C62.1775 408.479 64.9651 411.268 66.5968 411.404C69.6904 411.642 81.1128 410.826 82.0646 409.5C82.1326 409.397 82.1326 409.329 82.1326 409.227C81.9967 408.615 80.4329 407.799 79.1411 407.153C77.5433 406.337 76.1835 405.623 75.9455 404.806C75.5036 403.242 73.0559 394.332 73.0219 394.23C72.9879 394.094 73.0559 393.923 73.2259 393.855C73.3619 393.821 73.5318 393.855 73.5998 394.026C73.5998 394.094 75.6056 399.297 78.1552 400.147C79.2091 400.487 80.0249 400.419 80.4669 399.909C81.1468 399.093 80.8068 397.392 79.617 395.182C77.9512 392.121 77.6793 388.414 77.5093 385.727C77.4073 384.435 77.3393 383.347 77.1353 382.769C76.4894 381.068 70.1663 374.266 69.3164 373.416C68.6705 372.77 66.2569 367.329 65.7469 366.07L48.0694 366.512H48.0354Z" fill="#1A2E35"/>
<path d="M74.2458 408.581C74.2458 408.581 74.1098 408.581 74.0419 408.479C73.9399 408.377 73.9399 408.173 74.0419 408.071C74.0758 408.037 74.1438 407.969 74.1098 407.935C73.9059 407.323 70.2684 406.711 68.3307 406.371C66.3589 406.031 65.2031 405.827 64.8631 405.589C63.9113 404.874 61.6336 399.127 61.3956 398.481C61.3956 398.481 61.3956 398.413 61.3956 398.379C61.3956 398.209 61.1917 394.23 62.5515 390.625C63.8773 387.122 63.2314 380.252 63.1974 380.184C63.1974 380.014 63.2994 379.878 63.4693 379.878C63.6393 379.878 63.7753 379.98 63.7753 380.15C63.7753 380.422 64.4552 387.224 63.0954 390.863C61.8716 394.162 61.9735 397.903 61.9735 398.345C62.9254 400.759 64.6252 404.704 65.2371 405.146C65.5091 405.35 67.0728 405.589 68.4666 405.827C72.0701 406.439 74.4498 406.881 74.7218 407.765C74.7897 407.935 74.7897 408.207 74.4838 408.479C74.4158 408.547 74.3478 408.581 74.2798 408.581H74.2458Z" fill="#1A2E35"/>
<path d="M175.211 602.975C175.211 602.975 181.025 607.396 183.812 609.063C186.6 610.729 198.498 611.852 199.348 614.062C200.164 616.273 198.09 618.381 196.934 619.402C195.643 620.558 187.45 623.619 181.059 622.938C178.509 622.666 176.333 623.211 174.396 623.483C172.458 623.755 158.86 625.421 153.047 625.965C147.233 626.509 145.84 621.816 145.568 615.967C145.296 610.151 145.568 603.485 145.568 603.485L168.854 600.153L175.245 602.941L175.211 602.975Z" fill="white"/>
<path d="M152.163 626.339C150.531 626.339 149.205 625.897 148.185 625.013C146.384 623.449 145.5 620.694 145.296 616.035C145.024 610.253 145.296 603.588 145.296 603.52C145.296 603.383 145.398 603.247 145.534 603.247L168.82 599.915C168.82 599.915 168.922 599.915 168.99 599.915L175.381 602.703C175.381 602.703 175.415 602.703 175.449 602.737C175.517 602.771 181.297 607.192 184.016 608.825C185.138 609.505 187.858 610.083 190.747 610.729C195.813 611.818 199.144 612.634 199.654 613.994C200.606 616.579 198.022 618.891 197.138 619.674C195.813 620.864 187.45 623.959 181.025 623.279C179.053 623.075 177.285 623.381 175.687 623.619C175.245 623.687 174.838 623.755 174.43 623.823C172.39 624.129 158.826 625.761 153.081 626.305C152.775 626.305 152.469 626.339 152.163 626.339ZM145.84 603.792C145.806 605.05 145.602 610.865 145.84 616.001C146.044 620.422 146.893 623.143 148.525 624.537C149.647 625.489 151.075 625.863 152.979 625.693C158.724 625.149 172.288 623.483 174.328 623.211C174.736 623.143 175.143 623.075 175.551 623.007C177.149 622.734 178.985 622.428 181.025 622.632C187.314 623.313 195.405 620.32 196.662 619.164C198.804 617.259 199.552 615.627 199.008 614.13C198.566 613.008 194.113 612.022 190.509 611.239C187.586 610.593 184.798 610.015 183.608 609.267C180.957 607.669 175.449 603.52 175.007 603.179L168.752 600.459L145.806 603.724L145.84 603.792Z" fill="#1A2E35"/>
<path d="M183.03 619.231C178.033 618.891 174.464 620.218 160.73 620.864C152.945 621.238 148.491 620.83 146.078 620.388C146.894 623.993 148.763 626.407 153.013 625.999C158.826 625.455 172.424 623.789 174.362 623.517C176.299 623.244 178.475 622.7 181.025 622.972C187.416 623.653 195.609 620.592 196.9 619.436C197.818 618.619 199.28 617.157 199.484 615.49C195.167 618.347 187.008 619.538 183.03 619.265V619.231Z" fill="white"/>
<path d="M152.129 626.339C148.763 626.339 146.69 624.401 145.806 620.456C145.806 620.354 145.806 620.252 145.874 620.184C145.942 620.116 146.044 620.082 146.146 620.082C148.491 620.49 152.945 620.898 160.73 620.558C167.597 620.218 171.982 619.741 175.178 619.367C178.407 618.993 180.549 618.755 183.064 618.925C187.042 619.163 195.099 618.007 199.348 615.184C199.45 615.116 199.552 615.116 199.654 615.184C199.756 615.252 199.79 615.354 199.79 615.456C199.62 616.749 198.77 618.109 197.138 619.571C195.813 620.762 187.45 623.857 181.025 623.176C179.053 622.972 177.285 623.278 175.687 623.516C175.246 623.584 174.838 623.652 174.43 623.72C172.39 624.027 158.826 625.659 153.081 626.203C152.775 626.203 152.469 626.237 152.163 626.237L152.129 626.339ZM146.486 620.762C147.437 624.469 149.545 626.033 153.013 625.693C158.758 625.149 172.322 623.482 174.362 623.21C174.77 623.142 175.178 623.074 175.585 623.006C177.183 622.734 179.019 622.428 181.059 622.632C187.348 623.312 195.439 620.32 196.697 619.163C197.954 618.041 198.702 617.021 199.008 616.069C194.521 618.687 186.838 619.776 182.962 619.503C180.481 619.333 178.373 619.571 175.178 619.946C171.982 620.32 167.597 620.796 160.696 621.136C153.319 621.476 148.899 621.136 146.452 620.728L146.486 620.762Z" fill="#1A2E35"/>
<path d="M84.5459 374.81C84.5459 374.81 90.631 396.984 98.144 416.403C105.623 435.822 115.346 464.934 115.346 464.934L122.281 507.105C122.281 507.105 123.402 528.19 127.278 543.698C131.153 559.24 146.145 606.274 146.145 606.274C146.145 606.274 151.414 608.485 158.35 608.213C165.285 607.94 175.245 602.941 175.245 602.941C175.245 602.941 176.061 596.548 175.517 593.793C174.973 591.004 171.642 589.644 170.792 587.399C169.976 585.189 159.403 520.368 159.403 520.368C159.403 520.368 156.072 474.32 154.984 465.444C153.862 456.567 151.109 381.68 151.109 381.68L84.5799 374.742L84.5459 374.81Z" fill="#1A2E35"/>
<path d="M157.126 608.553C150.803 608.553 146.043 606.58 146.009 606.58C145.941 606.58 145.873 606.478 145.839 606.41C145.703 605.934 130.813 559.172 126.972 543.8C123.13 528.428 121.975 507.343 121.975 507.138L115.04 465.002C114.938 464.764 105.249 435.72 97.872 416.539C90.4611 397.324 84.3419 375.116 84.2739 374.912C84.2739 374.81 84.2739 374.708 84.3419 374.64C84.4099 374.572 84.5119 374.538 84.6139 374.538L151.143 381.476C151.143 381.476 151.414 381.612 151.414 381.748C151.414 382.496 154.202 456.703 155.29 465.478C156.378 474.252 159.709 519.96 159.743 520.402C159.845 521.014 170.282 585.189 171.098 587.331C171.438 588.249 172.254 589.032 173.137 589.882C174.293 590.97 175.483 592.126 175.823 593.759C176.367 596.548 175.585 602.737 175.551 603.009C175.551 603.111 175.483 603.179 175.381 603.247C175.279 603.281 165.251 608.281 158.35 608.553C157.942 608.553 157.534 608.553 157.16 608.553H157.126ZM146.349 606.07C147.199 606.41 152.094 608.178 158.282 607.94C164.639 607.702 173.681 603.383 174.939 602.771C175.075 601.785 175.687 596.343 175.211 593.861C174.905 592.398 173.783 591.344 172.695 590.29C171.778 589.406 170.894 588.589 170.52 587.535C169.704 585.325 159.573 523.089 159.131 520.47C159.097 519.994 155.8 474.32 154.678 465.546C153.624 457.01 150.973 386.85 150.803 382.02L84.9538 375.15C85.8377 378.279 91.5829 398.583 98.4159 416.301C105.827 435.482 115.516 464.559 115.618 464.832L122.553 507.036C122.553 507.275 123.708 528.292 127.55 543.63C131.289 558.56 145.465 603.281 146.349 606.07Z" fill="#1A2E35"/>
<path d="M36.6807 567.878C36.6807 567.878 15.5357 571.959 10.2665 573.66C4.99719 575.326 4.99719 578.455 6.18703 584.236C7.37686 590.018 9.79052 592.875 10.7424 593.623C11.6943 594.337 12.4082 603.485 15.0598 609.233C17.7114 615.014 23.6946 626.543 29.2358 629.4C34.777 632.257 40.7602 632.291 41.4741 631.339C42.188 630.386 40.0463 623.653 40.0463 623.653L34.539 605.866C34.539 605.866 41.0321 588.317 41.984 587.365C42.9359 586.413 47.7632 581.346 47.7632 581.346L36.7147 567.878H36.6807Z" fill="white"/>
<path d="M38.8225 632.189C36.3069 632.189 32.5334 631.475 29.0999 629.672C23.0148 626.509 16.6237 613.314 14.7879 609.335C13.2581 606.002 12.3743 601.513 11.6944 598.248C11.2864 596.208 10.8785 594.099 10.5385 593.861C9.45068 593.045 7.03701 589.984 5.84718 584.305C4.72534 578.897 4.41938 575.224 10.1306 573.388C15.3658 571.721 36.3749 567.64 36.5789 567.606C36.6808 567.606 36.7828 567.606 36.8508 567.708L47.8993 581.176C47.8993 581.176 48.0013 581.448 47.8993 581.55C47.8653 581.584 43.0719 586.617 42.1201 587.569C41.4402 588.25 37.3607 598.826 34.7771 605.866L40.2843 623.551C40.7943 625.149 42.426 630.488 41.6781 631.509C41.3722 631.951 40.2843 632.189 38.7885 632.189H38.8225ZM36.5449 568.218C34.5051 568.626 15.2979 572.367 10.3346 573.932C5.23527 575.564 5.26926 578.421 6.4591 584.169C7.61493 589.644 9.85862 592.569 10.9125 593.351C11.3884 593.725 11.6944 595.153 12.2723 598.112C12.9182 601.343 13.8021 605.798 15.2979 609.097C17.0996 613.008 23.4227 626.033 29.3379 629.128C34.9811 632.053 40.6583 631.849 41.2022 631.135C41.6101 630.624 40.7603 626.951 39.7064 623.721L34.1652 605.934C34.1652 605.934 34.1652 605.798 34.1652 605.73C34.8451 603.928 40.6923 588.114 41.6781 587.127C42.528 586.277 46.3695 582.23 47.2534 581.312L36.4769 568.184L36.5449 568.218Z" fill="#1A2E35"/>
<path d="M29.2359 629.4C34.7431 632.291 40.7603 632.291 41.4742 631.339C41.6782 631.066 41.6442 630.284 41.4742 629.332C36.5789 629.094 28.284 627.972 24.8845 622.666C20.5671 615.933 16.2497 601.513 14.312 593.589C12.8162 587.399 11.1844 577.605 10.5045 573.558C10.4026 573.558 10.3006 573.626 10.1986 573.66C4.92932 575.326 4.92932 578.455 6.11916 584.236C7.30899 590.018 9.72265 592.875 10.6745 593.623C11.6264 594.371 12.3403 603.485 14.9919 609.233C17.6435 614.98 23.6267 626.543 29.1679 629.4H29.2359Z" fill="white"/>
<path d="M38.8225 632.189C36.3069 632.189 32.5334 631.475 29.0999 629.672C23.0148 626.509 16.6237 613.314 14.7879 609.335C13.2581 606.002 12.3743 601.513 11.6944 598.248C11.2864 596.208 10.8785 594.099 10.5385 593.861C9.45068 593.045 7.03701 589.984 5.84718 584.304C4.72534 578.897 4.41938 575.224 10.1306 573.388L10.4365 573.286C10.4365 573.286 10.6065 573.286 10.6745 573.286C10.7425 573.32 10.8105 573.422 10.8105 573.49C11.4564 577.435 13.0882 587.331 14.584 593.487C16.2837 600.493 20.6691 615.558 25.1225 622.462C28.25 627.326 35.763 628.686 41.4742 628.992C41.6101 628.992 41.7121 629.094 41.7461 629.23C41.9841 630.76 41.8481 631.237 41.6781 631.441C41.3722 631.883 40.2843 632.121 38.7885 632.121L38.8225 632.189ZM29.3719 629.128C35.0151 632.053 40.6923 631.849 41.2362 631.135C41.2362 631.101 41.4062 630.828 41.2362 629.604C35.389 629.298 27.8761 627.836 24.6465 622.836C20.1592 615.831 15.7398 600.697 14.04 593.691C12.5782 587.671 10.9805 578.149 10.3006 573.966C5.23527 575.598 5.26926 578.455 6.4591 584.202C7.61493 589.678 9.85862 592.603 10.9125 593.385C11.3884 593.759 11.6944 595.187 12.2723 598.146C12.9182 601.377 13.8021 605.832 15.2979 609.131C17.0996 613.042 23.4227 626.067 29.3379 629.162L29.3719 629.128Z" fill="#1A2E35"/>
<path d="M106.201 380.932C106.201 380.932 114.224 391.475 115.074 392.869C115.889 394.263 121.737 446.943 122.281 452.214C122.824 457.486 122.281 464.968 122.281 464.968C122.281 464.968 102.801 484.421 90.0191 500.235C77.2709 516.049 35.7627 567.13 35.7627 567.13L53.9501 595.493C53.9501 595.493 76.7269 577.196 93.0446 561.654C118.881 537.032 143.188 510.981 144.853 509.621C146.519 508.261 157.738 496.358 158.553 493.025C159.369 489.692 168.276 443.066 171.336 428.102C174.395 413.138 178.543 372.634 178.543 372.634L102.291 374.572" fill="#1A2E35"/>
<path d="M53.9503 595.765C53.9503 595.765 53.9503 595.765 53.9163 595.765C53.8483 595.765 53.7463 595.697 53.7123 595.629L35.5248 567.266C35.5248 567.266 35.4569 567.028 35.5248 566.926C35.9328 566.416 77.169 515.675 89.7812 500.031C101.985 484.897 120.615 466.192 121.975 464.832C122.043 463.879 122.485 457.078 121.975 452.248C121.295 445.651 115.618 394.604 114.802 393.005C113.986 391.645 106.031 381.204 105.963 381.102C105.861 380.966 105.895 380.796 106.031 380.694C106.167 380.592 106.337 380.626 106.439 380.762C106.779 381.204 114.496 391.339 115.312 392.699C116.263 394.263 122.485 451.602 122.553 452.18C123.097 457.418 122.553 464.9 122.553 465.002C122.553 465.07 122.519 465.138 122.451 465.206C122.247 465.41 102.835 484.829 90.2232 500.439C77.9849 515.607 38.7204 563.933 36.1028 567.164L53.9842 595.085C56.5339 593.011 77.6109 575.972 92.8068 561.485C111.334 543.834 128.808 525.707 138.224 515.981C141.93 512.138 144.174 509.825 144.649 509.417C146.315 508.023 157.432 496.256 158.248 492.957C158.69 491.188 161.443 476.973 164.367 461.941C166.95 448.711 169.602 435.006 171.03 428.034C173.885 413.955 177.795 376.851 178.203 372.94L102.291 374.878C102.291 374.878 101.985 374.742 101.985 374.606C101.985 374.47 102.121 374.3 102.257 374.3L178.509 372.362C178.509 372.362 178.679 372.362 178.747 372.464C178.815 372.532 178.849 372.6 178.815 372.702C178.781 373.11 174.633 413.376 171.608 428.204C170.18 435.176 167.528 448.848 164.945 462.111C162.021 477.143 159.267 491.358 158.825 493.161C157.976 496.63 146.723 508.499 145.023 509.927C144.548 510.301 142.202 512.75 138.666 516.423C129.25 526.183 111.742 544.31 93.2487 561.961C77.101 577.333 54.3582 595.629 54.1542 595.799C54.0862 595.833 54.0522 595.867 53.9842 595.867L53.9503 595.765Z" fill="#1A2E35"/>
<path d="M123.539 183.545C123.539 183.545 110.043 190.653 102.938 194.122C95.8326 197.591 72.1379 204.699 69.7582 208.542C67.3786 212.385 67.7525 218.37 67.7525 218.37C67.7525 218.37 44.4998 282.443 43.9219 293.598C43.3439 304.752 45.6556 368.349 45.6556 368.349C45.6556 368.349 47.3894 370.933 56.5341 370.627C65.6788 370.355 69.4183 368.621 69.4183 368.621C69.4183 368.621 74.0076 304.48 74.8575 300.773C75.7074 297.066 77.1352 293.904 77.1352 293.904L87.1638 273.872C87.1638 273.872 90.5973 294.482 90.5973 295.332C90.5973 296.182 71.6959 373.518 71.6959 373.518C71.6959 373.518 71.6959 378.687 105.181 383.245C138.667 387.836 167.868 390.692 169.296 390.692C170.724 390.692 178.441 377.803 178.441 377.803C178.441 377.803 180.447 384.945 179.869 385.829C179.291 386.679 185.58 384.401 187.008 383.245C188.436 382.088 192.719 378.653 192.719 378.653C192.719 378.653 183.846 329.409 183.846 325.668C183.846 321.927 186.124 308.493 186.124 308.493L219.337 369.199C219.337 369.199 219.337 370.049 227.36 365.492C235.383 360.935 239.394 356.344 239.394 356.344L212.504 290.197C212.504 290.197 206.215 217.18 205.637 213.473C205.059 209.766 206.487 208.882 203.053 207.181C199.62 205.447 183.846 202.216 183.846 202.216C183.846 202.216 157.874 192.251 148.117 189.259C138.361 186.266 123.505 183.613 123.505 183.613L123.539 183.545Z" fill="#F0FF00"/>
<path d="M169.296 390.965C168.004 390.965 138.973 388.142 105.147 383.517C72.3419 379.028 71.3901 374.028 71.3901 373.484C71.3901 373.484 71.3901 373.45 71.3901 373.416C77.8832 346.889 90.1554 296.42 90.2574 295.298C90.2574 294.72 88.3537 283.021 86.9599 274.791L77.3392 294.04C77.3392 294.04 75.9114 297.202 75.0616 300.841C74.2117 304.514 69.6903 368.009 69.6223 368.655C69.6223 368.757 69.5543 368.859 69.4523 368.893C69.2824 368.961 65.5769 370.627 56.4662 370.933C47.2535 371.206 45.4177 368.621 45.3497 368.519C45.3497 368.485 45.3157 368.417 45.3157 368.349C45.3157 367.703 43.0381 304.65 43.582 293.598C44.1599 282.579 66.1888 221.669 67.4126 218.336C67.3786 217.656 67.1747 212.079 69.4523 208.372C71.0501 205.787 81.5886 201.944 90.8693 198.509C95.6966 196.741 100.286 195.04 102.768 193.85C109.805 190.415 123.233 183.341 123.369 183.273C123.437 183.273 123.505 183.239 123.573 183.273C123.709 183.273 138.565 185.994 148.219 188.919C157.874 191.877 183.71 201.774 183.948 201.876C184.56 202.012 199.756 205.141 203.19 206.875C205.773 208.168 205.773 209.12 205.773 210.82C205.773 211.5 205.773 212.351 205.943 213.405C206.521 217.078 212.504 286.558 212.81 290.129L239.7 356.242C239.7 356.242 239.7 356.48 239.632 356.548C239.598 356.582 235.485 361.207 227.53 365.764C220.085 370.015 219.473 369.641 219.235 369.539C219.167 369.539 219.133 369.437 219.099 369.369L186.294 309.412C185.784 312.404 184.152 322.573 184.152 325.702C184.152 329.341 192.923 378.143 193.025 378.619C193.025 378.721 193.025 378.824 192.923 378.892L187.212 383.483C186.158 384.333 180.311 386.816 179.665 386.203C179.563 386.101 179.495 385.897 179.665 385.693C179.937 385.251 179.257 381.782 178.373 378.585C176.197 382.156 170.724 391.033 169.33 391.033L169.296 390.965ZM72.002 373.484C72.104 373.824 73.9397 378.619 105.215 382.905C139.007 387.53 168.004 390.352 169.296 390.352C170.146 390.25 174.498 383.789 178.203 377.599C178.271 377.497 178.373 377.429 178.509 377.463C178.611 377.463 178.713 377.565 178.747 377.667C179.189 379.266 180.515 384.197 180.243 385.659C181.365 385.489 185.682 383.925 186.872 382.973L192.447 378.517C191.767 374.811 183.608 329.307 183.608 325.668C183.608 322.029 185.818 309.004 185.886 308.425C185.886 308.289 185.988 308.221 186.124 308.187C186.26 308.187 186.362 308.221 186.43 308.323L219.575 368.927C219.881 368.927 221.343 368.553 227.224 365.186C234.329 361.105 238.307 356.99 239.054 356.208L212.232 290.231C212.232 290.231 212.232 290.163 212.232 290.129C212.164 289.414 205.943 217.078 205.365 213.405C205.195 212.283 205.195 211.432 205.195 210.718C205.195 209.052 205.195 208.44 202.952 207.317C199.586 205.651 183.982 202.386 183.812 202.352C183.506 202.25 157.704 192.354 148.049 189.395C138.837 186.572 124.899 184.021 123.573 183.783C122.383 184.395 109.805 191.027 103.074 194.326C100.592 195.55 96.0026 197.217 91.1413 199.019C82.4045 202.216 71.5261 206.229 70.0303 208.644C67.7526 212.351 68.0585 218.268 68.0585 218.302C68.0585 218.336 68.0585 218.37 68.0585 218.404C67.8206 219.05 44.8058 282.545 44.2279 293.53C43.684 304.344 45.8257 365.288 45.9277 368.145C46.2676 368.519 48.4433 370.491 56.5002 370.253C64.455 370.015 68.2965 368.655 69.1124 368.349C69.4183 363.86 73.7017 304.276 74.5516 300.637C75.4015 296.93 76.8293 293.734 76.8633 293.7L86.8919 273.634C86.8919 273.634 87.0619 273.464 87.1978 273.464C87.3338 273.464 87.4358 273.566 87.4358 273.702C87.5718 274.553 90.8693 294.346 90.8693 295.23C90.8693 296.114 73.9737 365.254 71.968 373.416L72.002 373.484Z" fill="#1A2E35"/>
<path d="M87.1296 273.838L77.7129 223.131L81.6903 283.565L87.1296 273.838Z" fill="#1A2E35"/>
<path d="M81.6904 283.871C81.6904 283.871 81.6564 283.871 81.6224 283.871C81.4865 283.871 81.4185 283.735 81.3845 283.599L77.373 223.165C77.373 223.165 77.475 222.859 77.645 222.859C77.781 222.859 77.951 222.927 77.985 223.097L87.4356 273.77C87.4356 273.77 87.4356 273.907 87.4356 273.975L81.9964 283.701C81.9964 283.701 81.8604 283.837 81.7244 283.837L81.6904 283.871ZM78.3249 228.097L81.9284 282.545L86.8237 273.77L78.3249 228.097Z" fill="#1A2E35"/>
<path d="M135.233 259.215C135.233 259.215 135.063 259.181 134.995 259.113C133.601 257.48 132.309 255.542 131.154 253.297C131.086 253.161 131.154 252.991 131.29 252.889C131.426 252.821 131.596 252.889 131.698 253.025C132.853 255.236 134.111 257.14 135.471 258.739C135.573 258.875 135.573 259.045 135.471 259.147C135.403 259.181 135.335 259.215 135.267 259.215H135.233Z" fill="#1A2E35"/>
<path d="M130.066 250.679C130.066 250.679 129.828 250.611 129.794 250.509C123.301 235.783 122.621 215.071 122.621 214.867C122.621 214.697 122.757 214.561 122.893 214.561C123.063 214.561 123.199 214.697 123.199 214.833C123.199 215.037 123.845 235.647 130.304 250.27C130.372 250.406 130.304 250.611 130.168 250.645C130.134 250.645 130.1 250.645 130.066 250.645V250.679Z" fill="#1A2E35"/>
<path d="M125.783 249.794C125.783 249.794 125.579 249.726 125.511 249.658C120.411 240.85 118.338 231.634 118.338 231.532C118.304 231.362 118.406 231.226 118.576 231.192C118.746 231.158 118.881 231.26 118.915 231.43C118.915 231.532 120.955 240.646 126.054 249.386C126.122 249.522 126.054 249.692 125.952 249.794C125.918 249.794 125.85 249.828 125.817 249.828L125.783 249.794Z" fill="#1A2E35"/>
<path d="M118.847 317.71C118.847 317.71 118.609 317.608 118.575 317.472C118.541 317.302 118.643 317.166 118.779 317.098C131.086 314.037 147.199 310.092 154.066 308.731C154.984 308.561 155.562 308.425 155.97 308.289C153.217 308.187 144.208 308.8 138.395 309.31C138.225 309.31 138.089 309.208 138.089 309.038C138.089 308.868 138.191 308.731 138.361 308.731C157.092 307.167 157.194 307.847 157.228 308.153C157.262 308.493 157.16 308.697 154.168 309.31C147.301 310.67 131.188 314.615 118.915 317.676C118.915 317.676 118.881 317.676 118.847 317.676V317.71Z" fill="#1A2E35"/>
<path d="M105.453 321.077C105.453 321.077 105.215 320.975 105.181 320.839C105.147 320.669 105.249 320.533 105.385 320.464C105.385 320.464 107.731 319.852 111.437 318.934C111.606 318.9 111.742 319.002 111.81 319.138C111.844 319.308 111.742 319.444 111.606 319.512C107.901 320.43 105.555 321.043 105.555 321.043C105.555 321.043 105.521 321.043 105.487 321.043L105.453 321.077Z" fill="#1A2E35"/>
<path d="M186.192 308.459C186.192 308.459 179.597 297.576 179.053 294.992C178.509 292.407 173.885 264.35 173.885 264.35C173.885 264.35 177.047 309.003 178.169 315.023C179.325 321.042 183.88 325.634 183.88 325.634L186.158 308.459H186.192Z" fill="#1A2E35"/>
<path d="M183.88 325.94C183.88 325.94 183.744 325.94 183.676 325.838C183.472 325.634 179.019 321.111 177.863 315.091C176.741 309.139 173.614 264.826 173.58 264.384C173.58 264.214 173.682 264.078 173.852 264.078C174.022 264.078 174.158 264.18 174.192 264.316C174.226 264.588 178.781 292.407 179.325 294.924C179.869 297.44 186.396 308.187 186.43 308.289C186.464 308.357 186.464 308.425 186.464 308.493L184.186 325.668C184.186 325.668 184.084 325.872 183.982 325.906C183.982 325.906 183.914 325.906 183.88 325.906V325.94ZM174.633 270.846C175.551 283.463 177.591 310.466 178.441 314.989C179.359 319.784 182.52 323.695 183.676 324.988L185.886 308.527C185.206 307.405 179.291 297.577 178.747 295.06C178.339 293.257 176.027 279.28 174.633 270.846Z" fill="#1A2E35"/>
<path d="M172.152 258.365C172.152 258.365 171.88 258.263 171.88 258.127C171.88 258.127 171.336 255.78 170.724 252.209C170.724 252.039 170.792 251.903 170.962 251.869C171.132 251.869 171.268 251.937 171.302 252.107C171.914 255.644 172.458 257.956 172.458 257.99C172.492 258.161 172.39 258.297 172.22 258.331C172.22 258.331 172.186 258.331 172.152 258.331V258.365Z" fill="#1A2E35"/>
<path d="M170.316 248.23C170.316 248.23 170.044 248.128 170.01 247.992C169.126 241.87 168.208 232.96 168.99 225.41C170.418 211.33 181.705 208.304 181.807 208.27C181.977 208.236 182.113 208.338 182.181 208.474C182.214 208.644 182.113 208.78 181.977 208.848C181.875 208.848 170.996 211.84 169.602 225.478C168.82 232.994 169.738 241.836 170.622 247.924C170.622 248.094 170.52 248.23 170.384 248.264C170.384 248.264 170.384 248.264 170.35 248.264L170.316 248.23Z" fill="#1A2E35"/>
<path d="M168.718 245.203C168.718 245.203 168.48 245.135 168.446 244.999C165.897 236.191 165.591 225.002 165.557 224.866C165.557 224.696 165.693 224.56 165.829 224.56C165.829 224.56 166.135 224.696 166.135 224.832C166.135 224.934 166.441 236.055 168.99 244.795C169.024 244.965 168.956 245.101 168.786 245.169H168.718V245.203Z" fill="#1A2E35"/>
<path d="M272.539 373.654C272.539 373.654 216.039 403.208 214.34 405.35C212.606 407.493 213.694 410.962 214.136 412.458C214.578 413.955 228.142 469.389 229.876 470.273C231.609 471.123 236.98 468.335 236.98 468.335C236.98 468.335 243.032 472.008 244.527 471.361C246.023 470.715 297.152 439.019 299.94 436.434C302.727 433.85 302.523 431.911 301.673 429.973C300.824 428.034 287.667 398.481 287.667 398.481C287.667 398.481 289.163 396.1 288.313 394.161C287.463 392.223 280.324 377.973 278.829 375.831C277.333 373.688 278.183 371.308 272.574 373.688L272.539 373.654Z" fill="#969696"/>
<path d="M244.086 471.735C242.148 471.735 237.932 469.253 236.947 468.675C235.927 469.185 231.405 471.395 229.706 470.545C228.618 470.001 224.164 453.949 214.918 416.879C214.306 414.431 213.898 412.798 213.83 412.56V412.39C213.32 410.758 212.334 407.357 214.102 405.18C215.836 403.004 270.092 374.606 272.404 373.382C276.823 371.512 277.469 372.464 278.285 374.266C278.489 374.708 278.693 375.185 278.999 375.627C280.528 377.837 287.633 392.053 288.517 394.025C289.333 395.828 288.245 397.936 287.939 398.481C288.925 400.657 301.062 427.966 301.877 429.837C302.727 431.741 303.101 433.884 300.076 436.638C297.322 439.189 246.567 470.783 244.595 471.633C244.46 471.701 244.256 471.735 244.052 471.735H244.086ZM236.981 468.062C236.981 468.062 237.083 468.062 237.117 468.096C239.394 469.491 243.406 471.531 244.392 471.089C245.139 470.783 258.364 462.655 271.588 454.357C288.041 444.052 298.58 437.25 299.736 436.196C302.319 433.816 302.251 432.013 301.402 430.075C300.552 428.136 287.395 398.583 287.395 398.583C287.361 398.481 287.395 398.379 287.395 398.31C287.395 398.31 288.823 396.032 288.007 394.263C287.158 392.325 280.019 378.075 278.557 375.967C278.217 375.457 277.979 374.946 277.775 374.504C277.129 373.008 276.755 372.192 272.676 373.926C253.162 384.129 215.904 403.888 214.578 405.554C213.014 407.527 213.932 410.69 214.374 412.254V412.424C214.476 412.662 214.884 414.227 215.53 416.777C224.164 451.262 229.026 469.185 230.046 470.069C231.337 470.715 235.417 468.879 236.879 468.13C236.913 468.13 236.981 468.13 237.015 468.13L236.981 468.062Z" fill="#1A2E35"/>
<path d="M214.136 412.492C214.578 413.989 228.142 469.423 229.876 470.307C231.609 471.191 236.98 468.369 236.98 468.369C236.98 468.369 242.726 471.837 244.391 471.429C240.176 460.342 223.858 416.913 221.037 409.703C218.623 403.582 216.107 404.194 214.952 404.908C214.748 405.044 214.578 405.18 214.476 405.248C214.476 405.248 214.442 405.282 214.408 405.316L214.34 405.384C212.606 407.527 213.694 410.996 214.136 412.492Z" fill="#1A2E35"/>
<path d="M244.086 471.735C242.182 471.735 237.932 469.287 236.981 468.709C235.961 469.219 231.439 471.429 229.74 470.579C228.652 470.035 224.198 453.983 214.952 416.913C214.34 414.431 213.932 412.798 213.864 412.594V412.424C213.354 410.792 212.368 407.391 214.136 405.214C214.136 405.214 214.204 405.146 214.238 405.112L214.306 405.044C214.306 405.044 214.578 404.806 214.816 404.67C215.36 404.33 216.243 403.99 217.263 404.33C218.759 404.84 220.119 406.609 221.309 409.601C223.042 414.023 229.842 431.979 235.791 447.861C239.496 457.724 243.032 467.042 244.663 471.327C244.663 471.395 244.663 471.497 244.663 471.565C244.629 471.633 244.561 471.701 244.459 471.701C244.357 471.701 244.221 471.735 244.086 471.735ZM236.981 468.063C236.981 468.063 237.082 468.062 237.116 468.096C238.578 468.981 242.386 471.089 243.95 471.157C242.25 466.702 238.85 457.622 235.213 448.031C229.23 432.183 222.465 414.193 220.731 409.805C219.643 407.017 218.351 405.316 217.025 404.874C216.209 404.602 215.53 404.874 215.088 405.146C214.918 405.282 214.748 405.384 214.646 405.486L214.544 405.588C212.98 407.561 213.898 410.724 214.34 412.254V412.424C214.442 412.662 214.85 414.227 215.496 416.777C224.13 451.262 228.992 469.185 230.011 470.069C231.303 470.715 235.383 468.879 236.845 468.13C236.879 468.13 236.947 468.13 236.981 468.13V468.063Z" fill="#1A2E35"/>
<path d="M231.371 435.006C231.371 435.006 231.167 434.972 231.133 434.87C231.031 434.734 231.099 434.564 231.235 434.462L286.206 399.943C286.206 399.943 286.512 399.909 286.614 400.045C286.716 400.181 286.648 400.351 286.512 400.453L231.541 434.972C231.541 434.972 231.439 435.006 231.371 435.006Z" fill="#1A2E35"/>
<path d="M256.8 415.723L260.675 422.389L266.284 418.308L262.647 412.05L256.8 415.723Z" fill="white"/>
<path d="M260.675 422.695C260.675 422.695 260.641 422.695 260.607 422.695C260.539 422.695 260.471 422.627 260.403 422.559L256.528 415.859C256.528 415.859 256.494 415.553 256.63 415.451L262.443 411.778C262.443 411.778 262.579 411.71 262.681 411.744C262.749 411.744 262.817 411.812 262.851 411.88L266.522 418.138C266.522 418.138 266.556 418.444 266.454 418.512L260.845 422.593C260.845 422.593 260.743 422.661 260.675 422.661V422.695ZM257.208 415.825L260.777 421.981L265.91 418.24L262.545 412.492L257.208 415.859V415.825Z" fill="#1A2E35"/>
</g>
<defs>
<clipPath id="clip0_1015_1298">
<rect width="654" height="668" fill="white"/>
</clipPath>
</defs>
</svg>
