<svg width="44" height="44" viewBox="0 0 44 44" fill="none" xmlns="http://www.w3.org/2000/svg">
<g id="Capa_1" clip-path="url(#clip0_1106_765)">
<g id="Group">
<g id="Group_2">
<path id="Vector" d="M22 7.5625C13.0915 7.5625 5.84375 14.8101 5.84375 23.7188C5.84375 32.6273 13.0915 39.875 22 39.875C30.9085 39.875 38.1562 32.6273 38.1562 23.7188C38.1562 14.8101 30.9085 7.5625 22 7.5625ZM22 38.1562C14.0391 38.1562 7.5625 31.6797 7.5625 23.7188C7.5625 15.7578 14.0391 9.28125 22 9.28125C29.9609 9.28125 36.4375 15.7578 36.4375 23.7188C36.4375 31.6797 29.9609 38.1562 22 38.1562Z" fill="black"/>
</g>
</g>
<g id="Group_3">
<g id="Group_4">
<path id="Vector_2" d="M43.9151 42.7681L39.6039 33.8057C41.3502 30.7692 42.2812 27.3157 42.2812 23.7188C42.2812 20.572 41.5681 17.5352 40.2206 14.7911C40.288 14.7534 40.3518 14.7067 40.4091 14.6493L40.4729 14.5856C41.7202 13.3382 42.4071 11.6798 42.4071 9.91573C42.4071 8.15177 41.7202 6.49327 40.4729 5.24597C37.8977 2.67102 33.7079 2.67111 31.1334 5.2458L31.0697 5.30956C31.0123 5.36688 30.9654 5.43073 30.9276 5.4982C29.4586 4.77675 27.9058 4.23758 26.2969 3.89228V2.98633C26.2969 1.33968 24.9572 0 23.3105 0H20.6894C19.0428 0 17.7031 1.33968 17.7031 2.98633V3.89228C16.0942 4.23758 14.5414 4.77675 13.0724 5.49811C13.0346 5.43065 12.9877 5.36688 12.9303 5.30948L12.8668 5.24588C10.292 2.67111 6.10233 2.67102 3.52713 5.24588C0.952184 7.82083 0.952184 12.0105 3.52713 14.5855L3.59089 14.6493C3.64821 14.7066 3.71198 14.7533 3.77936 14.791C2.43186 17.5352 1.71875 20.572 1.71875 23.7188C1.71875 27.3157 2.64979 30.7692 4.39613 33.8057L0.0849024 42.7681C-0.0431444 43.0344 -0.0254413 43.3478 0.131824 43.598C0.28909 43.8481 0.563918 44 0.859371 44H4.18266C4.41057 44 4.62911 43.9094 4.79032 43.7483L9.13704 39.4015C12.7548 42.3799 17.2529 44 22 44C26.7471 44 31.2452 42.3799 34.863 39.4015L39.2097 43.7483C39.3709 43.9094 39.5894 44 39.8173 44H43.1406C43.4361 44 43.7109 43.8481 43.8682 43.598C44.0254 43.3478 44.0431 43.0344 43.9151 42.7681ZM39.2575 6.4613C41.1214 8.32519 41.1602 11.3323 39.3761 13.2453C38.5346 11.8549 37.5196 10.5564 36.341 9.37767C35.1624 8.19904 33.8638 7.18403 32.4735 6.34253C34.3864 4.55855 37.3936 4.59731 39.2575 6.4613ZM19.4219 2.98633C19.4219 2.2874 19.9905 1.71875 20.6894 1.71875H23.3105C24.0095 1.71875 24.5781 2.2874 24.5781 2.98633V3.59949C23.7296 3.4925 22.8691 3.4375 22 3.4375C21.1309 3.4375 20.2704 3.4925 19.4219 3.59949V2.98633ZM3.3116 9.91573C3.3116 8.61085 3.81975 7.38401 4.74246 6.4613C6.60627 4.59748 9.61331 4.55855 11.5265 6.34262C10.1362 7.18412 8.83764 8.19913 7.659 9.37776C6.48029 10.5565 5.46519 11.8551 4.62378 13.2455C3.77695 12.3383 3.3116 11.163 3.3116 9.91573ZM3.82662 42.2812H2.22638L5.48788 35.5011C6.13447 36.4032 6.85858 37.2594 7.659 38.0597C7.72397 38.1247 7.79023 38.188 7.85589 38.2519L3.82662 42.2812ZM22 42.2812C11.7646 42.2812 3.4375 33.9542 3.4375 23.7188C3.4375 13.4833 11.7646 5.15625 22 5.15625C32.2354 5.15625 40.5625 13.4833 40.5625 23.7188C40.5625 33.9542 32.2354 42.2812 22 42.2812ZM40.1734 42.2812L36.1441 38.2519C36.2098 38.1879 36.276 38.1247 36.341 38.0597C37.1414 37.2593 37.8655 36.4031 38.5121 35.5011L41.7736 42.2812H40.1734Z" fill="black"/>
</g>
</g>
<g id="Group_5">
<g id="Group_6">
<path id="Vector_3" d="M22.6169 11.4237C22.4571 11.2638 22.2362 11.1719 22.0093 11.1719C21.7833 11.1719 21.5616 11.2638 21.4018 11.4237C21.242 11.5835 21.15 11.8052 21.15 12.0312C21.15 12.2573 21.2419 12.479 21.4018 12.6388C21.5616 12.7987 21.7833 12.8906 22.0093 12.8906C22.2363 12.8906 22.4571 12.7987 22.6169 12.6388C22.7776 12.479 22.8687 12.2573 22.8687 12.0312C22.8687 11.8052 22.7776 11.5835 22.6169 11.4237Z" fill="black"/>
</g>
</g>
<g id="Group_7">
<g id="Group_8">
<path id="Vector_4" d="M22.5981 34.7987C22.4383 34.6387 22.2166 34.5469 21.9905 34.5469C21.7637 34.5469 21.5428 34.6387 21.3821 34.7987C21.2223 34.9585 21.1312 35.1802 21.1312 35.4062C21.1312 35.6323 21.2223 35.854 21.3821 36.0137C21.5428 36.1736 21.7645 36.2656 21.9905 36.2656C22.2166 36.2656 22.4374 36.1737 22.5981 36.0137C22.7579 35.854 22.8499 35.6323 22.8499 35.4062C22.8499 35.1802 22.758 34.9585 22.5981 34.7987Z" fill="black"/>
</g>
</g>
<g id="Group_9">
<g id="Group_10">
<path id="Vector_5" d="M34.295 23.1205C34.1352 22.9607 33.9135 22.8687 33.6875 22.8687C33.4615 22.8687 33.2398 22.9606 33.0799 23.1205C32.9201 23.2803 32.8281 23.502 32.8281 23.728C32.8281 23.9541 32.92 24.1758 33.0799 24.3356C33.2398 24.4963 33.4615 24.5874 33.6875 24.5874C33.9135 24.5874 34.1352 24.4963 34.295 24.3356C34.4548 24.1758 34.5469 23.9541 34.5469 23.728C34.5469 23.502 34.4549 23.2803 34.295 23.1205Z" fill="black"/>
</g>
</g>
<g id="Group_11">
<g id="Group_12">
<path id="Vector_6" d="M10.92 23.1008C10.7602 22.9409 10.5385 22.8499 10.3125 22.8499C10.0865 22.8499 9.86477 22.941 9.70492 23.1008C9.54508 23.2615 9.45312 23.4832 9.45312 23.7092C9.45312 23.9352 9.54499 24.1561 9.70492 24.3168C9.86477 24.4766 10.0865 24.5686 10.3125 24.5686C10.5385 24.5686 10.7602 24.4766 10.92 24.3168C11.0798 24.157 11.1719 23.9352 11.1719 23.7092C11.1719 23.4824 11.0799 23.2615 10.92 23.1008Z" fill="black"/>
</g>
</g>
<g id="Group_13">
<g id="Group_14">
<path id="Vector_7" d="M30.2902 15.4394C29.9546 15.1038 29.4106 15.1039 29.0748 15.4394L23.5588 20.9555C23.098 20.6945 22.5663 20.5447 22 20.5447C21.4365 20.5447 20.9073 20.6929 20.4482 20.9514L17.8113 18.3146C17.4757 17.979 16.9317 17.979 16.5959 18.3146C16.2603 18.6502 16.2603 19.1944 16.5959 19.53L19.2327 22.1668C18.9742 22.626 18.826 23.1553 18.826 23.7187C18.826 25.4689 20.2498 26.8928 22.0001 26.8928C23.7504 26.8928 25.1742 25.469 25.1742 23.7187C25.1742 23.158 25.0275 22.6313 24.7714 22.1737L30.2902 16.6548C30.6258 16.3192 30.6258 15.7751 30.2902 15.4394ZM22 25.1741C21.1975 25.1741 20.5447 24.5213 20.5447 23.7188C20.5447 22.9163 21.1975 22.2634 22 22.2634C22.8025 22.2634 23.4554 22.9163 23.4554 23.7188C23.4554 24.5213 22.8025 25.1741 22 25.1741Z" fill="black"/>
</g>
</g>
<g id="Group_15">
<g id="Group_16">
<path id="Vector_8" d="M33.2806 26.7111C32.8324 26.5563 32.3427 26.7939 32.1875 27.2425C31.2077 30.0758 29.0682 32.3914 26.3178 33.5957C25.883 33.786 25.6848 34.2927 25.8753 34.7275C26.0165 35.0501 26.3319 35.2425 26.6629 35.2425C26.778 35.2425 26.895 35.2192 27.0071 35.17C30.1956 33.7741 32.6758 31.0895 33.8119 27.8042C33.967 27.3556 33.7291 26.8663 33.2806 26.7111Z" fill="black"/>
</g>
</g>
</g>
<defs>
<clipPath id="clip0_1106_765">
<rect width="44" height="44" fill="white"/>
</clipPath>
</defs>
</svg>
