<svg width="652" height="617" viewBox="0 0 652 617" fill="none" xmlns="http://www.w3.org/2000/svg">
<g clip-path="url(#clip0_1029_1935)">
<path d="M326.894 16.1722C26.2187 32.9747 -38.4169 431.403 62.3222 553.221C140.488 647.769 279.889 632.192 353.463 539.604C414.033 463.397 512.108 519.686 592.938 437.284C698.233 329.923 664.408 -2.66051 326.894 16.1722Z" fill="#F4F4F4"/>
<path d="M106.277 443.97L200.146 458.357V487.306H249.92V505.754H421.674V538.309L509.444 525.287V495.602L563.283 486.291L558.411 433.573L496.369 438.964L493.11 394.823L549.403 388.522L544.11 338.429L608.185 329.678V285.817H544.11V240.73L602.471 240.345L604.925 192.703L538.817 188.678L539.623 138.305L461.283 130.639L457.041 85.1674L355.741 76.2761L349.783 116.182L249.078 112.751L250.726 73.0557H182.164L175.645 107.361L140.558 108.516L136.457 144.011L201.758 144.921L199.305 182.342L107.083 187.907L101.37 226.413L50.79 230.439V266.634H122.611L116.057 305.665L77.7099 309.725L75.2562 352.361L148.129 357.297L144.624 398.603L105.471 401.194L106.277 443.97Z" fill="#263238"/>
<path d="M76.8685 113.522C76.483 113.522 76.1324 113.207 76.0974 112.822C76.0623 112.402 76.3778 112.017 76.7984 111.982C112.516 108.481 175.014 106.626 175.61 106.591C176.03 106.591 176.381 106.906 176.416 107.326C176.416 107.746 176.1 108.096 175.68 108.131C175.049 108.131 112.621 109.986 76.9737 113.487C76.9737 113.487 76.9386 113.487 76.9036 113.487L76.8685 113.522Z" fill="#263238"/>
<path d="M61.6564 147.126C61.2708 147.126 60.9554 146.846 60.8852 146.461C60.8151 146.041 61.0956 145.656 61.5162 145.586C99.1969 139.81 200.742 144.116 201.759 144.151C202.179 144.151 202.53 144.536 202.495 144.956C202.495 145.376 202.144 145.726 201.689 145.691C200.672 145.656 99.3021 141.351 61.7615 147.091C61.7265 147.091 61.6914 147.091 61.6564 147.091V147.126Z" fill="#263238"/>
<path d="M53.8395 189.447C53.4189 189.447 53.0684 189.132 53.0684 188.712C53.0684 188.292 53.3838 187.942 53.8044 187.907L199.305 181.571C199.725 181.571 200.111 181.886 200.111 182.306C200.111 182.726 199.796 183.077 199.375 183.112L53.8746 189.447H53.8395Z" fill="#263238"/>
<path d="M76.8686 175.796C76.8686 175.796 76.7635 175.796 76.7284 175.796C76.3078 175.726 76.0274 175.306 76.1325 174.886L82.2666 144.186C82.3367 143.766 82.7573 143.486 83.178 143.591C83.5986 143.661 83.879 144.081 83.7738 144.501L77.6398 175.201C77.5697 175.551 77.2542 175.831 76.8686 175.831V175.796Z" fill="#263238"/>
<path d="M14.6517 234.639C14.2662 234.639 13.9156 234.324 13.8806 233.939C13.8455 233.519 14.161 233.134 14.5816 233.099L101.3 225.678C101.721 225.608 102.106 225.958 102.141 226.378C102.176 226.798 101.861 227.183 101.44 227.218L14.7218 234.639C14.7218 234.639 14.6868 234.639 14.6517 234.639Z" fill="#263238"/>
<path d="M14.6515 267.964C14.2309 267.964 13.8804 267.614 13.8804 267.194C13.8804 266.774 14.2309 266.424 14.6515 266.424L122.611 265.864C123.032 265.864 123.382 266.214 123.382 266.634C123.382 267.054 123.032 267.404 122.611 267.404L14.6515 267.964Z" fill="#263238"/>
<path d="M61.6564 309.69L33.4045 308.85C32.9839 308.85 32.6685 308.5 32.6685 308.08V267.194C32.6685 266.774 33.019 266.424 33.4396 266.424C33.8602 266.424 34.2107 266.774 34.2107 267.194V307.345L61.7265 308.15C62.1471 308.15 62.4976 308.535 62.4626 308.955C62.4626 309.375 62.112 309.69 61.6914 309.69H61.6564Z" fill="#263238"/>
<path d="M314.766 75.4011L250.726 73.8259H107.784C107.364 73.8259 107.013 73.4758 107.013 73.0558C107.013 72.6357 107.364 72.2856 107.784 72.2856H250.726L314.801 73.8609C315.221 73.8609 315.572 74.2109 315.572 74.666C315.572 75.0861 315.221 75.4361 314.801 75.4361L314.766 75.4011Z" fill="#263238"/>
<path d="M146.412 73.8259C146.412 73.8259 146.342 73.8259 146.307 73.8259C145.886 73.7909 145.571 73.4058 145.641 72.9858L149.426 39.6259C149.461 39.2408 149.812 38.9258 150.197 38.9258H219.775C219.986 38.9258 220.196 39.0308 220.336 39.1708C220.476 39.3458 220.547 39.5559 220.511 39.7659L217.287 68.9252C217.252 69.3452 216.866 69.6603 216.445 69.6253C216.025 69.5903 215.709 69.2052 215.744 68.7851L218.864 40.466H150.863L147.148 73.1258C147.113 73.5108 146.762 73.8259 146.377 73.8259H146.412Z" fill="#263238"/>
<path d="M406.391 73.8257C405.971 73.8257 405.655 73.5107 405.62 73.0906L404.113 44.5265C362.086 37.9105 310.069 36.5453 303.163 36.4053L302.392 64.1643C302.392 64.5844 302.007 64.9344 301.586 64.8994C301.166 64.8994 300.815 64.5144 300.85 64.0943L301.656 35.5652C301.656 35.1451 302.007 34.795 302.427 34.8301C302.988 34.8301 359.877 35.9152 404.954 43.0913C405.305 43.1613 405.585 43.4413 405.62 43.8264L407.162 72.9856C407.162 73.4057 406.847 73.7907 406.426 73.7907C406.426 73.7907 406.426 73.7907 406.391 73.7907V73.8257Z" fill="#263238"/>
<path d="M521.958 93.4287C521.958 93.4287 521.923 93.4287 521.888 93.4287L355.671 77.0463C355.251 77.0113 354.935 76.6262 354.97 76.2062C355.005 75.7861 355.391 75.4711 355.812 75.5061L522.028 91.8885C522.448 91.9235 522.764 92.3085 522.729 92.7286C522.694 93.1136 522.343 93.4287 521.958 93.4287Z" fill="#263238"/>
<path d="M574.5 142.331C574.5 142.331 574.465 142.331 574.43 142.331L461.212 131.409C460.792 131.374 460.476 130.989 460.511 130.569C460.547 130.149 460.932 129.834 461.353 129.869L573.659 140.686L571.275 102.145C571.275 101.725 571.556 101.34 572.011 101.34C572.467 101.34 572.818 101.655 572.818 102.075L575.271 141.491C575.271 141.701 575.201 141.946 575.026 142.086C574.886 142.226 574.675 142.296 574.5 142.296V142.331Z" fill="#263238"/>
<path d="M512.669 86.3578C512.283 86.3578 511.933 86.0777 511.898 85.6927L508.813 60.279C508.778 59.8589 509.058 59.4738 509.479 59.4038C509.9 59.3688 510.285 59.6489 510.355 60.0689L513.44 85.4826C513.475 85.9027 513.194 86.2878 512.774 86.3578C512.774 86.3578 512.704 86.3578 512.669 86.3578Z" fill="#263238"/>
<path d="M624.274 195.013C624.274 195.013 624.274 195.013 624.239 195.013L530.475 189.483C530.055 189.483 529.739 189.098 529.739 188.677C529.739 188.257 530.125 187.907 530.545 187.942L624.309 193.473C624.73 193.473 625.045 193.858 625.045 194.278C625.045 194.698 624.695 195.013 624.274 195.013Z" fill="#263238"/>
<path d="M619.367 173.24C618.946 173.24 618.595 172.89 618.595 172.47V149.857L574.36 142.331C573.939 142.261 573.659 141.876 573.729 141.456C573.799 141.036 574.22 140.756 574.605 140.826L619.472 148.492C619.857 148.562 620.103 148.877 620.103 149.262V172.54C620.103 172.96 619.752 173.31 619.332 173.31L619.367 173.24Z" fill="#263238"/>
<path d="M651.229 242.585C650.212 242.585 549.158 241.5 544.145 241.5C543.725 241.5 543.374 241.15 543.374 240.73C543.374 240.31 543.725 239.96 544.145 239.96C549.158 239.96 650.212 241.045 651.264 241.045C651.684 241.045 652.035 241.395 652.035 241.815C652.035 242.235 651.684 242.585 651.264 242.585H651.229Z" fill="#263238"/>
<path d="M544.11 286.587C543.689 286.587 543.339 286.237 543.339 285.817C543.339 285.397 543.689 285.047 544.11 285.047L651.194 284.697C651.614 284.697 651.965 285.047 651.965 285.467C651.965 285.887 651.614 286.237 651.194 286.237L544.11 286.587Z" fill="#263238"/>
<path d="M493.11 395.593C492.724 395.593 492.374 395.278 492.339 394.893C492.339 394.472 492.619 394.087 493.04 394.052L632.336 382.781C632.757 382.781 633.142 383.061 633.177 383.481C633.177 383.901 632.897 384.286 632.476 384.321L493.18 395.593C493.18 395.593 493.145 395.593 493.11 395.593Z" fill="#263238"/>
<path d="M496.37 439.734C495.984 439.734 495.634 439.419 495.599 439.034C495.599 438.614 495.879 438.229 496.3 438.194L588.311 431.123L584.876 396.118C584.841 395.698 585.156 395.313 585.577 395.278C585.997 395.278 586.383 395.558 586.418 395.978L589.923 431.753C589.923 431.963 589.888 432.173 589.748 432.313C589.608 432.488 589.433 432.558 589.222 432.593L496.44 439.699C496.44 439.699 496.405 439.699 496.37 439.699V439.734Z" fill="#263238"/>
<path d="M338.777 553.186C338.426 553.186 338.111 552.941 338.005 552.556L330.75 517.796C330.68 517.375 330.925 516.955 331.346 516.885C331.766 516.78 332.187 517.06 332.257 517.481L339.337 551.54L509.269 524.517L602.156 516.885C602.577 516.885 602.963 517.165 602.998 517.586C603.033 518.006 602.717 518.391 602.297 518.426L509.479 526.057L338.882 553.186C338.882 553.186 338.812 553.186 338.742 553.186H338.777Z" fill="#263238"/>
<path d="M509.444 496.373C509.058 496.373 508.743 496.093 508.673 495.708C508.603 495.288 508.883 494.902 509.304 494.832L636.472 474.354L631.67 439.034C631.6 438.614 631.915 438.229 632.336 438.159C632.756 438.089 633.142 438.404 633.212 438.824L638.119 474.915C638.19 475.335 637.874 475.72 637.488 475.79L509.584 496.373C509.584 496.373 509.514 496.373 509.444 496.373Z" fill="#263238"/>
<path d="M122.611 489.477C122.611 489.477 122.541 489.477 122.506 489.477L53.7343 480.34C53.524 480.34 53.3487 480.2 53.2085 480.025C53.0683 479.85 53.0333 479.64 53.0683 479.43L60.9199 435.604C60.99 435.184 61.3756 434.904 61.7962 434.974L200.251 457.587C200.672 457.657 200.952 458.042 200.882 458.462C200.812 458.882 200.426 459.162 200.006 459.092L62.287 436.619L54.7157 478.905L122.716 487.936C123.137 488.006 123.452 488.391 123.382 488.811C123.347 489.197 122.997 489.477 122.611 489.477Z" fill="#263238"/>
<path d="M177.327 557.176C177.117 557.176 176.942 557.106 176.802 556.966C176.661 556.826 176.556 556.616 176.556 556.406L177.082 509.64C177.082 509.219 177.397 508.904 177.818 508.869L254.932 504.984C255.388 504.949 255.738 505.299 255.738 505.719C255.738 506.139 255.423 506.524 255.002 506.524L178.624 510.375L178.098 555.601L270.04 551.961C270.425 551.961 270.811 552.276 270.846 552.696C270.846 553.116 270.53 553.466 270.11 553.501L177.362 557.176H177.327Z" fill="#263238"/>
<path d="M107.819 565.052C107.434 565.052 107.083 564.737 107.048 564.352C107.048 563.932 107.329 563.547 107.749 563.512L166.777 558.997C167.197 558.997 167.583 559.277 167.618 559.697C167.653 560.117 167.338 560.502 166.917 560.537L107.89 565.052C107.89 565.052 107.855 565.052 107.819 565.052Z" fill="#263238"/>
<path d="M14.6515 429.023C14.2309 429.023 13.8804 428.673 13.8804 428.253V405.009C13.8804 404.589 14.1958 404.274 14.6165 404.239L144.589 397.868C145.009 397.798 145.395 398.183 145.395 398.603C145.395 399.023 145.08 399.408 144.659 399.408L15.4227 405.744V428.253C15.4227 428.673 15.0721 429.023 14.6515 429.023Z" fill="#263238"/>
<path d="M148.129 358.067L0.806298 357.402C0.385675 357.402 0.0351562 357.052 0.0351562 356.632C0.0351562 356.212 0.385675 355.862 0.806298 355.862L148.129 356.527C148.55 356.527 148.9 356.877 148.9 357.297C148.9 357.717 148.55 358.067 148.129 358.067Z" fill="#263238"/>
<path d="M249.92 539.078C249.499 539.078 249.149 538.728 249.149 538.308V505.754C249.149 505.333 249.499 504.983 249.92 504.983C250.341 504.983 250.691 505.333 250.691 505.754V538.308C250.691 538.728 250.341 539.078 249.92 539.078Z" fill="#263238"/>
<path d="M225.103 594.947C224.683 594.947 224.332 594.597 224.332 594.177V555.321C224.332 554.901 224.683 554.551 225.103 554.551C225.524 554.551 225.874 554.901 225.874 555.321V594.177C225.874 594.597 225.524 594.947 225.103 594.947Z" fill="#263238"/>
<path d="M404.884 588.751C404.499 588.751 404.183 588.471 404.113 588.086L398.435 545.31C398.364 544.89 398.68 544.505 399.101 544.435C399.521 544.365 399.907 544.68 399.977 545.1L405.655 587.876C405.725 588.296 405.41 588.681 404.989 588.751C404.989 588.751 404.919 588.751 404.884 588.751Z" fill="#263238"/>
<path d="M310.945 594.947H252.058C251.638 594.947 251.287 594.597 251.287 594.177C251.287 593.757 251.638 593.407 252.058 593.407H310.139V556.406C310.139 555.986 310.49 555.636 310.91 555.636C311.331 555.636 311.681 555.986 311.681 556.406V594.177C311.681 594.597 311.331 594.947 310.91 594.947H310.945Z" fill="#263238"/>
<path d="M608.185 503.233C607.835 503.233 607.519 502.988 607.449 502.638L601.525 479.78C601.42 479.36 601.665 478.94 602.086 478.835C602.507 478.73 602.927 478.975 603.032 479.395L608.956 502.253C609.061 502.673 608.816 503.093 608.395 503.198C608.325 503.198 608.255 503.198 608.185 503.198V503.233Z" fill="#263238"/>
<path d="M482.489 573.489C482.103 573.489 481.788 573.209 481.718 572.824L475.478 531.553C475.408 531.133 475.689 530.748 476.144 530.678C476.565 530.608 476.951 530.888 477.021 531.343L483.155 571.879L551.576 565.823C551.962 565.823 552.382 566.103 552.417 566.523C552.452 566.943 552.137 567.328 551.716 567.363L482.559 573.489C482.559 573.489 482.524 573.489 482.489 573.489Z" fill="#263238"/>
<path d="M566.754 551.61C566.333 551.61 566.018 551.295 565.983 550.875L563.985 520.771C563.985 520.351 564.265 519.966 564.721 519.966C565.142 519.966 565.527 520.246 565.527 520.701L567.525 550.805C567.525 551.225 567.245 551.61 566.789 551.61C566.789 551.61 566.789 551.61 566.719 551.61H566.754Z" fill="#263238"/>
<path d="M352.377 38.8555C351.956 38.8555 351.605 38.5055 351.605 38.0854L350.764 0.769961C350.764 0.3499 351.08 -0.000151146 351.535 -0.0351562C351.991 -0.0351562 352.306 0.27989 352.341 0.734956L353.183 38.0504C353.183 38.4705 352.867 38.8205 352.412 38.8555H352.377Z" fill="#263238"/>
<path d="M486.135 55.0979C486.135 55.0979 486.065 55.0979 486.03 55.0979L423.813 46.1716C423.392 46.1016 423.111 45.7165 423.147 45.2965C423.217 44.8764 423.602 44.5964 424.023 44.6314L486.24 53.5577C486.661 53.6277 486.941 54.0127 486.906 54.4328C486.836 54.8179 486.52 55.0979 486.135 55.0979Z" fill="#263238"/>
<path d="M459.39 51.2824C458.969 51.2824 458.619 50.9323 458.619 50.5123V16.2423C458.619 15.8222 458.969 15.4722 459.39 15.4722C459.81 15.4722 460.161 15.8222 460.161 16.2423V50.5123C460.161 50.9323 459.81 51.2824 459.39 51.2824Z" fill="#263238"/>
<path d="M286.269 34.1651H261.101C260.681 34.1651 260.33 33.815 260.33 33.395V3.25556L184.583 4.48074C184.163 4.48074 183.812 4.13068 183.812 3.71062C183.812 3.29056 184.163 2.94051 184.583 2.94051L261.101 1.71533C261.347 1.71533 261.522 1.78534 261.662 1.92536C261.802 2.06538 261.908 2.27541 261.908 2.48544V32.5898H286.304C286.724 32.5898 287.075 32.9399 287.075 33.36C287.075 33.78 286.724 34.1301 286.304 34.1301L286.269 34.1651Z" fill="#263238"/>
<path d="M394.193 271.184C394.193 271.184 412.35 279.726 418.134 287.462C423.917 295.198 428.895 311.58 427.598 319.912C425.495 333.494 405.2 366.083 406.181 370.564C407.163 375.045 378.315 413.83 378.315 413.83C378.315 413.83 390.688 419.116 396.682 415.791C402.676 412.465 409.932 419.326 409.932 419.326L421.499 415.791C421.499 415.791 445.79 429.863 429.35 456.256L413.682 461.857C413.682 461.857 403.973 473.899 394.158 477.154C384.344 480.41 341.3 485.626 322.302 478.695C303.304 471.764 300.57 447.715 295.347 433.188C290.124 418.661 338.04 319.912 338.04 319.912L394.193 271.149V271.184Z" fill="white"/>
<mask id="mask0_1029_1935" style="mask-type:luminance" maskUnits="userSpaceOnUse" x="294" y="271" width="142" height="212">
<path d="M394.193 271.184C394.193 271.184 412.35 279.726 418.134 287.462C423.917 295.198 428.895 311.58 427.598 319.912C425.495 333.494 405.2 366.083 406.181 370.564C407.163 375.045 378.315 413.83 378.315 413.83C378.315 413.83 390.688 419.116 396.682 415.791C402.676 412.465 409.932 419.326 409.932 419.326L421.499 415.791C421.499 415.791 445.79 429.863 429.35 456.256L413.682 461.857C413.682 461.857 403.973 473.899 394.158 477.154C384.344 480.41 341.3 485.626 322.302 478.695C303.304 471.764 300.57 447.715 295.347 433.188C290.124 418.661 338.04 319.912 338.04 319.912L394.193 271.149V271.184Z" fill="white"/>
</mask>
<g mask="url(#mask0_1029_1935)">
<g opacity="0.3">
<g opacity="0.7">
<path d="M378.35 413.935C381.294 415.126 384.379 416.036 387.498 416.596C377.438 423.037 367.939 431.543 365.065 442.325C360.158 460.387 378.525 472.499 390.478 478.275C376.247 481.425 339.547 485.066 322.407 478.835C303.584 471.974 300.745 448.31 295.592 433.748L338.075 320.052L396.857 326.388C396.857 326.388 397.804 338.324 410.107 336.784C415.47 336.119 421.744 329.713 427.142 322.747C423.216 337.519 405.375 366.504 406.286 370.739C407.197 375.22 378.385 413.97 378.385 413.97L378.35 413.935Z" fill="black"/>
</g>
</g>
<g opacity="0.3">
<g opacity="0.7">
<path d="M429.385 456.361L413.717 461.962C413.717 461.962 412.35 463.677 410.107 465.953C403.552 457.797 391.74 438.894 407.408 423.282C407.408 423.282 405.55 438.159 413.717 447.155C421.884 456.151 425.39 452.931 425.39 452.931C425.39 452.931 415.54 449.045 415.855 431.823C415.926 427.342 417.818 420.096 421.394 415.896H421.534C421.534 415.896 445.825 429.933 429.385 456.361Z" fill="black"/>
</g>
</g>
</g>
<path d="M349.608 482.93C339.092 482.93 328.997 481.985 322.022 479.465C306.424 473.794 301.516 456.746 297.555 443.059C296.574 439.629 295.628 436.373 294.576 433.503C289.283 418.836 335.341 323.657 337.304 319.631C337.339 319.526 337.409 319.456 337.48 319.386L393.633 270.624C393.878 270.414 394.194 270.379 394.474 270.519C395.21 270.869 412.876 279.235 418.73 287.041C424.759 295.093 429.631 311.79 428.334 320.086C427.177 327.647 420.658 340.564 414.944 351.941C410.808 360.167 406.532 368.673 406.917 370.459C407.899 374.904 385.501 405.499 379.542 413.55C382.451 414.67 391.635 417.751 396.297 415.195C402.01 412.045 408.53 417.19 410.107 418.521L421.254 415.125C421.464 415.055 421.674 415.09 421.885 415.195C422.305 415.44 432.26 421.321 435.099 432.663C436.992 440.189 435.274 448.275 429.981 456.746C429.876 456.886 429.736 456.991 429.596 457.061L414.138 462.592C412.876 464.132 403.798 474.879 394.369 477.994C387.989 480.095 368.115 483 349.608 483V482.93ZM338.636 320.436C336.568 324.707 291.071 419.186 296.048 432.978C297.1 435.883 298.046 439.174 299.028 442.604C303.094 456.676 307.685 472.604 322.547 477.994C341.475 484.89 384.028 479.71 393.878 476.454C403.377 473.304 412.981 461.507 413.051 461.402C413.157 461.297 413.262 461.192 413.402 461.157L428.825 455.661C433.732 447.68 435.344 440.049 433.592 433.013C431.173 423.316 423.006 417.681 421.394 416.665L410.142 420.096C409.862 420.166 409.581 420.096 409.371 419.921C409.301 419.851 402.466 413.515 397.033 416.525C390.793 419.991 378.525 414.81 378 414.6C377.789 414.495 377.614 414.32 377.544 414.075C377.474 413.83 377.544 413.62 377.684 413.41C391.565 394.752 406.006 373.469 405.41 370.774C404.919 368.568 408.039 362.232 413.577 351.241C418.975 340.494 425.705 327.122 426.827 319.841C428.054 311.86 423.357 295.793 417.503 287.987C412.385 281.161 397.138 273.53 394.299 272.164L338.636 320.506V320.436Z" fill="#263238"/>
<path d="M409.932 452.861C409.686 452.861 409.406 452.721 409.266 452.476C409.056 452.126 403.938 443.62 404.043 434.203C404.043 428.672 405.901 423.247 409.301 418.906C409.581 418.556 410.037 418.521 410.388 418.766C410.738 419.046 410.773 419.501 410.528 419.851C407.338 423.947 405.585 429.057 405.585 434.238C405.48 443.164 410.528 451.601 410.563 451.671C410.773 452.021 410.668 452.511 410.317 452.721C410.177 452.791 410.037 452.826 409.932 452.826V452.861Z" fill="#263238"/>
<path d="M413.717 462.733C413.542 462.733 413.367 462.663 413.192 462.558C412.806 462.242 404.043 454.436 402.115 444.11C402.045 443.69 402.326 443.27 402.746 443.2C403.167 443.13 403.587 443.41 403.658 443.83C405.515 453.631 414.138 461.332 414.243 461.402C414.559 461.682 414.594 462.172 414.313 462.487C414.173 462.663 413.963 462.768 413.717 462.768V462.733Z" fill="#263238"/>
<path d="M356.057 424.087C356.057 424.087 355.847 424.087 355.742 424.017C355.356 423.842 355.181 423.387 355.356 423.001C359.457 413.83 377.579 413.2 378.35 413.165C378.806 413.165 379.121 413.48 379.156 413.9C379.156 414.32 378.841 414.67 378.42 414.705C378.245 414.705 360.474 415.335 356.793 423.632C356.653 423.912 356.373 424.087 356.092 424.087H356.057Z" fill="#263238"/>
<path d="M388.761 339.2C388.375 339.2 388.025 338.884 387.989 338.499C387.954 338.079 388.27 337.694 388.691 337.659C410.072 335.664 423.041 313.996 423.182 313.786C423.392 313.401 423.883 313.296 424.233 313.506C424.619 313.716 424.724 314.206 424.514 314.556C424.373 314.766 410.984 337.134 388.831 339.2C388.831 339.2 388.796 339.2 388.761 339.2Z" fill="#263238"/>
<path d="M403.903 329.153C403.692 331.288 403.482 333.493 403.202 335.734C402.571 341.194 401.73 346.795 400.748 352.361C396.998 373.644 390.934 393.737 383.643 400.458C368.185 414.565 357.529 454.226 360.509 458.497C363.488 462.767 344.28 493.327 344.28 493.327C344.28 493.327 349.012 501.063 345.121 505.788H247.782V487.341H197.973V458.392L185.95 456.536C196.676 406.619 199.095 342.735 203.126 316.656C208.664 281.196 222.72 261.628 244.031 236.564C263.765 213.391 298.467 212.761 325.387 223.857C327.244 222.562 329.207 221.372 331.205 220.287C337.024 217.206 346.277 213.321 354.515 215.001C367.764 217.626 395.035 264.288 397.453 273.88L399.416 290.892" fill="white"/>
<mask id="mask1_1029_1935" style="mask-type:luminance" maskUnits="userSpaceOnUse" x="185" y="214" width="219" height="292">
<path d="M403.903 329.153C403.692 331.288 403.482 333.493 403.202 335.734C402.571 341.194 401.73 346.795 400.748 352.361C396.998 373.644 390.934 393.737 383.643 400.458C368.185 414.565 357.529 454.226 360.509 458.497C363.488 462.767 344.28 493.327 344.28 493.327C344.28 493.327 349.012 501.063 345.121 505.788H247.782V487.341H197.973V458.392L185.95 456.536C196.676 406.619 199.095 342.735 203.126 316.656C208.664 281.196 222.72 261.628 244.031 236.564C263.765 213.391 298.467 212.761 325.387 223.857C327.244 222.562 329.207 221.372 331.205 220.287C337.024 217.206 346.277 213.321 354.515 215.001C367.764 217.626 395.035 264.288 397.453 273.88L399.416 290.892" fill="white"/>
</mask>
<g mask="url(#mask1_1029_1935)">
<g opacity="0.3">
<g opacity="0.7">
<path d="M344.209 493.292C344.209 493.292 348.941 501.028 345.051 505.753H247.782V487.306H197.973V458.356L185.95 456.501C189.525 439.909 192.154 421.776 194.257 403.958C215.148 430.492 259.734 482.265 293.279 487.271C338.601 494.027 348.661 468.963 348.661 468.963C348.661 468.963 300.92 475.754 265.588 438.439C230.256 401.123 290.896 439.909 327.314 438.439C340.424 437.913 353.358 435.428 365.731 431.017C361.104 444.039 358.826 456.151 360.403 458.391C363.418 462.697 344.209 493.257 344.209 493.257V493.292Z" fill="black"/>
</g>
</g>
<g opacity="0.3">
<g opacity="0.7">
<path d="M385.466 303.564L394.299 311.51C394.299 311.51 407.198 289.877 384.87 255.642C362.542 221.407 334.43 223.542 334.43 223.542C328.576 228.688 321.846 231.454 322.828 247.381C319.638 241.815 315.817 237.474 311.296 235.024C279.749 217.662 218.689 280.251 218.689 280.251C218.689 280.251 196.641 348.231 222.369 376.515C248.097 404.799 338.776 357.262 338.776 357.262C339.302 337.519 338.496 317.776 336.358 298.173C337.164 300.414 338.04 302.724 338.952 305.104L350.624 290.192C350.624 290.192 366.608 307.905 368.991 326.247C370.849 340.424 364.084 389.467 378.14 406.584C379.717 404.344 381.54 402.278 383.538 400.388C386.517 397.658 389.321 392.652 391.81 386.421C389.672 384.671 387.954 382.466 386.727 380.015C376.913 361.462 378.385 317.461 378.385 317.461L385.501 303.529L385.466 303.564Z" fill="black"/>
</g>
</g>
</g>
<path d="M345.121 506.524H247.782C247.361 506.524 247.011 506.174 247.011 505.754V488.076H197.973C197.553 488.076 197.202 487.726 197.202 487.306V459.022L185.845 457.271C185.635 457.271 185.46 457.131 185.319 456.956C185.214 456.781 185.144 456.571 185.214 456.361C192.26 423.667 195.66 385.476 198.394 354.776C199.796 339.059 200.988 325.512 202.39 316.516C208.068 279.971 223 260.123 243.47 236.039C263.766 212.236 299.098 212.306 325.317 222.947C327.104 221.722 328.962 220.567 330.89 219.587C337.234 216.226 346.488 212.551 354.725 214.196C368.395 216.926 395.666 263.203 398.26 273.635L400.222 290.717C400.258 291.137 399.977 291.522 399.557 291.557C399.136 291.627 398.75 291.312 398.715 290.892L396.752 273.88C394.509 264.918 367.169 218.187 354.41 215.666C346.628 214.091 337.725 217.661 331.591 220.882C329.628 221.932 327.665 223.122 325.842 224.417C325.632 224.557 325.352 224.592 325.106 224.487C299.378 213.916 264.502 213.671 244.627 236.984C224.332 260.858 209.54 280.531 203.897 316.691C202.495 325.652 201.303 339.199 199.901 354.882C197.167 385.371 193.802 423.211 186.862 455.836L198.043 457.552C198.429 457.622 198.709 457.937 198.709 458.322V486.501H247.747C248.167 486.501 248.518 486.851 248.518 487.271V504.948H344.7C347.785 500.643 343.614 493.712 343.579 493.642C343.438 493.397 343.438 493.082 343.579 492.837C351.43 480.34 361.665 461.507 359.808 458.847C356.583 454.226 367.239 414.215 383.047 399.793C389.391 393.947 395.666 376.13 399.907 352.151C400.924 346.515 401.73 340.949 402.361 335.594C402.606 333.563 402.851 331.428 403.062 329.048C403.097 328.628 403.447 328.313 403.903 328.348C404.324 328.383 404.639 328.768 404.604 329.188C404.394 331.568 404.148 333.738 403.903 335.769C403.272 341.16 402.431 346.76 401.449 352.431C399.381 364.123 393.598 392.197 384.099 400.948C368.851 414.845 358.265 453.946 361.07 457.972C364.119 462.347 348.871 487.306 345.121 493.257C346.102 495.007 349.362 501.693 345.647 506.209C345.507 506.384 345.296 506.489 345.051 506.489L345.121 506.524Z" fill="#263238"/>
<path d="M344.315 271.184C344.315 271.184 358.16 295.198 370.604 303.634L383.503 318.546C383.503 318.546 394.93 361.323 429.175 374.765C463.421 388.207 483.891 322.852 504.256 325.722L515.683 309.9L493.636 297.263C484.697 298.453 476.46 302.794 470.431 309.48C459.846 320.892 445.124 361.813 432.47 359.677C419.816 357.542 388.831 320.822 387.989 314.136V300.239C387.989 300.239 396.086 285.292 394.193 275.595L387.989 274.79C387.989 274.79 386.762 289.527 383.503 293.553L370.604 295.198C362.051 287.077 355.216 277.31 350.484 266.529L342.737 273.495" fill="#F0FF00"/>
<path d="M438.569 377.39C435.485 377.39 432.295 376.795 428.965 375.5C395.841 362.513 383.713 321.942 382.872 318.932L370.148 304.229C359.317 296.843 347.785 278.396 344.56 273.04L343.403 274.09C343.088 274.37 342.597 274.335 342.317 274.02C342.036 273.705 342.071 273.215 342.387 272.935L343.789 271.675C343.789 271.675 343.754 271.605 343.719 271.57C343.508 271.185 343.649 270.729 343.999 270.519C344.315 270.344 344.665 270.414 344.91 270.624L350.098 265.934C350.273 265.759 350.519 265.689 350.764 265.759C351.009 265.794 351.22 265.969 351.325 266.214C355.987 276.855 362.612 286.342 370.989 294.358L383.222 292.783C386.167 288.652 387.358 274.825 387.358 274.685C387.358 274.475 387.463 274.265 387.639 274.16C387.814 274.02 388.024 273.985 388.235 273.985L394.439 274.79C394.754 274.825 395.035 275.07 395.105 275.42C396.962 284.837 389.882 298.629 388.936 300.414V314.136C389.672 320.192 420.482 356.842 432.75 358.907C440.287 360.168 449.26 343.855 457.182 329.433C461.773 321.032 466.155 313.121 470.011 308.92C476.145 302.129 484.557 297.683 493.671 296.458C493.846 296.458 494.021 296.458 494.161 296.563L516.209 309.2C516.384 309.305 516.524 309.48 516.595 309.69C516.63 309.9 516.595 310.145 516.454 310.32L505.027 326.143C504.852 326.388 504.572 326.493 504.291 326.458C496.299 325.337 487.712 336.014 478.633 347.356C467.242 361.568 454.588 377.355 438.674 377.355L438.569 377.39ZM345.682 271.955C348.626 276.855 360.438 295.793 371.059 302.969C371.129 303.004 371.164 303.039 371.199 303.109L384.098 318.021C384.098 318.021 384.239 318.231 384.274 318.336C384.379 318.757 395.981 360.903 429.491 374.03C449.015 381.696 464.052 362.933 477.301 346.376C486.906 334.404 495.143 324.007 503.941 324.847L514.597 310.075L493.53 297.998C484.873 299.224 476.916 303.459 471.062 309.935C467.312 313.961 463 321.837 458.443 330.133C449.891 345.71 441.093 361.813 432.4 360.378C419.255 358.172 388.094 320.717 387.288 314.171V300.169C387.288 300.169 387.288 299.924 387.393 299.784C387.463 299.644 395.035 285.537 393.597 276.19L388.76 275.56C388.445 278.746 387.148 290.297 384.169 293.938C384.028 294.078 383.853 294.183 383.678 294.218L370.779 295.863C370.533 295.863 370.323 295.828 370.148 295.653C361.735 287.672 355.075 278.256 350.308 267.719L345.682 271.885V271.955Z" fill="#263238"/>
<path d="M370.639 293.063L354.55 274.51L342.177 288.617C342.177 288.617 323.284 243.11 324.475 232.294C325.387 223.858 337.059 209.365 360.369 211.186C383.713 213.041 401.555 266.809 399.837 287.602C399.522 291.978 398.47 296.283 396.752 300.309L387.744 278.326L376.212 287.287" fill="white"/>
<path d="M396.787 301.079C396.472 301.079 396.191 300.904 396.086 300.589L387.464 279.551L376.738 287.882C376.387 288.127 375.931 288.092 375.651 287.742C375.371 287.392 375.441 286.937 375.791 286.657L387.323 277.695C387.499 277.555 387.779 277.485 387.989 277.555C388.235 277.625 388.41 277.8 388.515 278.01L396.787 298.208C398.084 294.778 398.855 291.172 399.101 287.497C400.293 273.18 391.354 239.365 376.562 221.967C371.235 215.701 365.802 212.341 360.368 211.886C337.339 210.066 326.158 224.278 325.282 232.294C324.195 241.85 339.513 279.971 342.422 287.112L353.989 273.95C353.989 273.95 354.34 273.67 354.585 273.67C354.795 273.67 355.006 273.775 355.181 273.95L371.27 292.503C371.55 292.818 371.515 293.308 371.2 293.588C370.884 293.868 370.393 293.833 370.113 293.518L354.62 275.63L342.843 289.072C342.667 289.282 342.387 289.387 342.141 289.317C341.861 289.282 341.651 289.107 341.546 288.862C340.774 287.007 322.583 243.04 323.809 232.154C324.721 223.613 336.463 208.49 360.544 210.381C366.397 210.836 372.181 214.406 377.789 220.987C392.161 237.86 402.08 271.254 400.713 287.637C400.398 292.118 399.346 296.458 397.559 300.589C397.453 300.869 397.173 301.044 396.857 301.044L396.787 301.079Z" fill="#263238"/>
<path d="M302.217 506.524C302.217 506.524 301.937 506.524 301.832 506.419C301.446 506.209 301.341 505.718 301.551 505.368C302.182 504.248 302.288 502.918 301.797 501.728C299.273 497.352 302.393 464.657 305.547 455.941C306.319 453.806 309.789 447.05 315.011 436.758C331.205 404.974 361.35 345.85 366.538 317.321C366.608 316.901 367.028 316.621 367.449 316.691C367.87 316.761 368.15 317.181 368.08 317.601C362.857 346.34 332.642 405.604 316.413 437.459C311.401 447.295 307.756 454.401 307.02 456.466C303.83 465.288 301.096 497.387 303.234 501.063C303.935 502.813 303.83 504.633 302.954 506.174C302.813 506.419 302.533 506.559 302.288 506.559L302.217 506.524Z" fill="#263238"/>
<path d="M257.105 231.103C267.796 225.608 279.784 223.017 291.807 223.612C314.24 224.243 324.195 261.418 324.195 261.418C324.195 261.418 362.892 280.986 369.307 309.935C375.721 338.884 342.246 376.375 288.862 378.755C235.478 381.135 220.371 342.735 217.111 320.051C215.569 309.375 217.111 287.147 226.085 266.739" fill="white"/>
<mask id="mask2_1029_1935" style="mask-type:luminance" maskUnits="userSpaceOnUse" x="216" y="223" width="155" height="156">
<path d="M257.105 231.103C267.796 225.608 279.784 223.017 291.807 223.612C314.24 224.243 324.195 261.418 324.195 261.418C324.195 261.418 362.892 280.986 369.307 309.935C375.721 338.884 342.246 376.375 288.862 378.755C235.478 381.135 220.371 342.735 217.111 320.051C215.569 309.375 217.111 287.147 226.085 266.739" fill="white"/>
</mask>
<g mask="url(#mask2_1029_1935)">
<g opacity="0.3">
<g opacity="0.7">
<path d="M368.851 326.843C362.472 351.661 332.187 376.725 288.792 378.72C236.565 381.1 221.037 344.45 217.287 321.557C217.742 305.944 222.79 287.567 239.72 272.585C239.369 273.705 225.944 316.411 230.887 338.394C230.887 319.596 236.425 301.219 246.765 285.501C263.941 260.228 288.267 262.153 295.277 265.059C302.287 267.964 349.607 277.065 363.278 309.2C365.696 314.906 367.519 320.787 368.816 326.843H368.851Z" fill="black"/>
</g>
</g>
<g opacity="0.3">
<g opacity="0.7">
<path d="M266.429 255.677C266.429 255.677 283.359 239.61 297.38 240.73C311.401 241.85 321.005 260.613 321.005 260.613L306.458 258.967C306.458 258.967 298.677 252.281 266.464 255.677H266.429Z" fill="black"/>
</g>
</g>
</g>
<path d="M284.236 379.595C229.275 379.595 218.374 334.298 216.341 320.121C214.903 310.11 216.095 287.497 225.349 266.389C225.524 266.003 225.98 265.828 226.365 266.003C226.751 266.178 226.926 266.634 226.751 267.019C217.602 287.847 216.411 310.075 217.848 319.911C220.477 338.184 232.675 380.47 288.793 377.95C317.816 376.655 343.929 364.438 358.651 345.255C367.484 333.738 370.989 321.242 368.501 310.075C362.226 281.826 324.195 262.293 323.81 262.083C323.599 261.978 323.459 261.803 323.424 261.593C323.319 261.243 313.329 224.942 291.737 224.347C279.855 223.752 267.972 226.308 257.421 231.768C257.036 231.979 256.58 231.803 256.37 231.418C256.159 231.033 256.335 230.578 256.72 230.368C267.516 224.802 279.679 222.212 291.807 222.807C301.236 223.052 309.964 229.808 317.045 242.34C321.777 250.706 324.3 259.107 324.826 260.858C328.507 262.783 363.909 282.141 370.043 309.725C372.637 321.347 369.027 334.298 359.913 346.2C344.911 365.733 318.377 378.195 288.898 379.49C287.321 379.56 285.743 379.595 284.236 379.595Z" fill="#263238"/>
<path d="M266.43 271.954C266.184 271.954 265.974 271.849 265.834 271.674C265.553 271.324 265.623 270.869 265.974 270.589C291.316 250.601 324.16 260.578 324.475 260.683C324.896 260.823 325.106 261.243 324.966 261.663C324.826 262.083 324.405 262.293 323.985 262.153C323.669 262.048 291.597 252.317 266.92 271.814C266.78 271.919 266.605 271.989 266.43 271.989V271.954Z" fill="#263238"/>
<path d="M237.442 358.067C237.442 358.067 237.161 358.032 237.021 357.927C236.565 357.647 226.05 350.436 224.402 319.981C222.755 289.597 247.431 260.368 247.677 260.088C247.957 259.772 248.448 259.737 248.763 260.018C249.079 260.298 249.114 260.788 248.833 261.103C248.588 261.383 224.332 290.157 225.944 319.911C227.522 349.456 237.757 356.597 237.862 356.667C238.213 356.912 238.318 357.367 238.072 357.752C237.932 357.962 237.687 358.102 237.442 358.102V358.067Z" fill="#263238"/>
<path d="M310.946 259.878C310.735 259.878 310.525 259.808 310.385 259.633C301.026 249.201 273.791 254.382 273.51 254.452C273.09 254.522 272.669 254.277 272.599 253.857C272.529 253.437 272.774 253.017 273.195 252.947C274.351 252.737 301.587 247.556 311.506 258.618C311.787 258.933 311.752 259.423 311.436 259.703C311.296 259.843 311.121 259.913 310.911 259.913L310.946 259.878Z" fill="#263238"/>
<path d="M361.841 311.545C361.841 311.545 372.882 351.381 346.733 372.454C320.585 393.492 271.687 391.147 255.108 380.05C238.528 368.954 235.409 339.304 235.409 339.304C236.53 305.944 245.749 279.901 279.644 265.128C313.539 250.356 357.074 289.737 361.841 311.58V311.545Z" fill="white"/>
<g opacity="0.3">
<g opacity="0.7">
<path d="M362.226 301.184C362.226 301.184 368.15 355.652 344.946 374.239C321.741 392.827 278.592 390.762 263.941 380.96C249.289 371.124 246.52 344.94 246.52 344.94C247.501 315.466 255.704 296.038 285.638 282.981C315.572 269.924 357.985 281.861 362.191 301.184H362.226Z" fill="black"/>
</g>
</g>
<path d="M293.034 389.116C277.26 389.116 262.539 385.896 254.687 380.645C238.037 369.479 234.777 340.564 234.637 339.339C234.602 338.919 234.883 338.534 235.338 338.499C235.759 338.464 236.144 338.779 236.179 339.199C236.179 339.479 239.509 368.638 255.563 379.385C272.669 390.867 321.11 392.057 346.242 371.824C371.69 351.346 361.175 312.14 361.069 311.755C360.964 311.335 361.21 310.915 361.595 310.81C362.016 310.705 362.436 310.95 362.542 311.335C362.647 311.755 373.408 351.906 347.189 373.049C331.135 385.966 309.052 388.626 297.345 389.081C295.908 389.151 294.471 389.151 293.034 389.151V389.116Z" fill="#263238"/>
<path d="M437.377 414.215C437.377 414.215 431.664 420.656 424.303 421.006C420.903 425.697 419.256 431.438 419.676 437.214C419.781 442.744 423.252 447.68 428.474 449.57L444.248 444.67" fill="white"/>
<mask id="mask3_1029_1935" style="mask-type:luminance" maskUnits="userSpaceOnUse" x="419" y="414" width="26" height="36">
<path d="M437.377 414.215C437.377 414.215 431.664 420.656 424.303 421.006C420.903 425.697 419.256 431.438 419.676 437.214C419.781 442.744 423.252 447.68 428.474 449.57L444.248 444.67" fill="white"/>
</mask>
<g mask="url(#mask3_1029_1935)">
<g opacity="0.4">
<path d="M437.377 414.215C437.377 414.215 431.664 420.656 424.303 421.006C420.903 425.697 419.256 431.438 419.676 437.214C419.781 442.744 423.252 447.68 428.474 449.57L444.248 444.67" fill="#E6E51D"/>
</g>
</g>
<path d="M428.509 450.306C428.509 450.306 428.334 450.306 428.229 450.271C422.761 448.275 419.01 443.025 418.905 437.214C418.52 431.298 420.202 425.382 423.707 420.551C423.847 420.376 424.058 420.236 424.303 420.236C431.208 419.921 436.782 413.76 436.817 413.725C437.097 413.41 437.588 413.375 437.903 413.655C438.219 413.935 438.254 414.425 437.973 414.74C437.728 415.02 432.12 421.216 424.759 421.741C421.639 426.222 420.097 431.683 420.483 437.144C420.553 442.289 423.777 446.91 428.544 448.73L444.072 443.9C444.493 443.76 444.914 444.005 445.054 444.425C445.194 444.845 444.949 445.265 444.528 445.405L428.755 450.306C428.755 450.306 428.615 450.306 428.509 450.306Z" fill="#263238"/>
<path d="M432.225 444.179C434.293 448.8 451.539 447.925 460.757 442.779C469.976 437.634 474.147 431.963 474.392 428.497C474.638 425.032 479.615 420.691 479.195 418.591C478.774 416.49 479.896 413.165 479.65 410.68C479.405 408.194 467.592 396.888 465.454 396.783C463.316 396.678 459.706 399.653 459.706 399.653C459.706 399.653 452.555 392.267 448.664 395.697C436.782 406.234 431.945 425.977 431.945 425.977C431.384 429.267 431.945 429.932 431.945 429.932" fill="white"/>
<mask id="mask4_1029_1935" style="mask-type:luminance" maskUnits="userSpaceOnUse" x="431" y="394" width="49" height="54">
<path d="M432.225 444.179C434.293 448.8 451.539 447.925 460.757 442.779C469.976 437.634 474.147 431.963 474.392 428.497C474.638 425.032 479.615 420.691 479.195 418.591C478.774 416.49 479.896 413.165 479.65 410.68C479.405 408.194 467.592 396.888 465.454 396.783C463.316 396.678 459.706 399.653 459.706 399.653C459.706 399.653 452.555 392.267 448.664 395.697C436.782 406.234 431.945 425.977 431.945 425.977C431.384 429.267 431.945 429.932 431.945 429.932" fill="white"/>
</mask>
<g mask="url(#mask4_1029_1935)">
<g opacity="0.4">
<path d="M443.967 423.911C442.109 425.977 440.567 428.287 439.34 430.772C439.34 430.772 442.565 431.682 443.056 433.188C443.547 434.693 445.615 439.069 448.419 438.193C451.223 437.318 457.287 435.708 457.287 435.708C457.287 435.708 452.029 431.612 451.889 428.847C451.889 427.062 452.66 425.347 453.992 424.121C453.992 424.121 455.184 418.766 457.357 417.54C458.198 416.945 459.145 416.525 460.161 416.245C460.161 416.245 465.033 411.099 465.033 408.159C465.033 405.219 463.631 405.079 463.491 405.079C463.736 404.974 465.174 404.414 465.279 401.333C465.349 399.863 464.858 398.393 463.842 397.272C462.51 397.868 461.248 398.603 460.126 399.478C461.037 400.458 461.108 401.928 460.301 402.978C458.198 406.339 456.446 414.25 453.046 412.78C449.646 411.31 449.365 407.529 449.33 407.109C449.12 407.809 446.386 421.531 444.002 423.946L443.967 423.911Z" fill="#E6E51D"/>
</g>
</g>
<path d="M441.829 447.925C439.095 447.925 436.677 447.645 434.924 447.05C433.136 446.455 431.98 445.58 431.489 444.46C431.314 444.075 431.489 443.62 431.874 443.445C432.26 443.27 432.716 443.445 432.891 443.83C433.206 444.53 434.083 445.125 435.415 445.58C440.813 447.365 452.906 446.245 460.372 442.079C469.205 437.144 473.376 431.648 473.621 428.427C473.761 426.432 475.234 424.262 476.531 422.372C477.477 420.971 478.564 419.396 478.423 418.696C478.178 417.471 478.423 416.001 478.599 414.425C478.774 413.13 478.984 411.8 478.879 410.715C478.669 408.72 467.487 397.763 465.419 397.518C464.122 397.413 461.528 399.128 460.196 400.213C459.881 400.458 459.425 400.458 459.145 400.143C457.287 398.253 451.924 393.807 449.19 396.223C437.623 406.479 432.751 425.907 432.716 426.082C432.26 428.708 432.611 429.443 432.611 429.443C432.891 429.758 432.821 430.213 432.505 430.493C432.19 430.773 431.664 430.703 431.384 430.353C431.068 430.003 430.648 428.953 431.208 425.732C431.419 424.857 436.256 405.604 448.174 394.998C451.959 391.637 457.988 396.818 459.776 398.498C460.932 397.623 463.596 395.803 465.524 395.908C468.188 396.048 480.176 407.809 480.421 410.505C480.561 411.765 480.351 413.2 480.141 414.565C479.931 416.001 479.755 417.331 479.931 418.311C480.211 419.641 479.089 421.286 477.792 423.142C476.601 424.857 475.269 426.817 475.163 428.427C474.918 431.823 471.133 437.774 461.143 443.34C455.745 446.35 447.998 447.855 441.864 447.855L441.829 447.925Z" fill="#263238"/>
<path d="M453.431 413.55C452.239 413.55 451.012 412.78 450.031 411.38C448.769 409.559 447.858 406.619 448.909 404.414C449.085 404.029 449.54 403.854 449.926 404.064C450.311 404.239 450.487 404.694 450.276 405.079C449.645 406.409 450.066 408.754 451.258 410.47C451.994 411.485 452.8 412.045 453.501 411.975C454.377 411.87 455.008 410.82 455.359 409.979C456.41 407.564 457.497 405.849 458.338 404.449C459.986 401.788 460.196 401.228 459.109 400.213C458.794 399.933 458.794 399.443 459.109 399.128C459.425 398.813 459.916 398.813 460.196 399.128C462.264 401.123 461.177 402.873 459.67 405.289C458.829 406.619 457.777 408.299 456.796 410.61C455.815 412.885 454.553 413.445 453.676 413.55C453.571 413.55 453.501 413.55 453.396 413.55H453.431Z" fill="#263238"/>
<path d="M474.568 414.985C474.357 414.985 474.147 414.915 474.007 414.74C471.027 411.625 465.84 406.479 464.648 405.919C463.631 405.429 460.372 406.269 458.339 407.004C457.953 407.144 457.497 406.934 457.357 406.549C457.217 406.164 457.427 405.709 457.813 405.569C458.724 405.219 463.386 403.609 465.314 404.554C467.137 405.429 474.287 412.85 475.093 413.69C475.374 414.005 475.374 414.495 475.093 414.775C474.953 414.915 474.743 414.985 474.568 414.985Z" fill="#263238"/>
<path d="M470.151 424.087C470.151 424.087 469.8 424.017 469.66 423.912C465.559 420.656 460.862 417.191 460.021 417.016C459.32 416.946 454.132 417.506 450.907 417.856C450.627 417.856 450.312 417.751 450.171 417.506C450.031 417.296 448.91 415.265 451.223 411.765C451.468 411.415 451.924 411.31 452.31 411.555C452.66 411.8 452.765 412.255 452.52 412.64C451.293 414.46 451.258 415.651 451.363 416.281C453.361 416.071 459.075 415.476 460.126 415.476C461.388 415.511 467.242 420.026 470.607 422.722C470.957 423.002 470.992 423.457 470.747 423.807C470.607 424.017 470.361 424.087 470.151 424.087Z" fill="#263238"/>
<path d="M465.629 430.528C465.629 430.528 465.384 430.528 465.279 430.458L453.641 424.822C453.466 424.752 452.66 424.717 452.064 424.682C450.101 424.577 447.893 424.437 447.122 423.282C446.421 422.161 447.157 420.306 447.507 419.571C448.208 418.101 449.4 416.526 450.697 416.351C451.118 416.316 451.503 416.596 451.538 417.016C451.573 417.436 451.293 417.821 450.872 417.856C450.487 417.891 449.61 418.731 448.909 420.201C448.314 421.496 448.313 422.266 448.419 422.441C448.734 422.967 451.118 423.072 452.134 423.142C453.291 423.212 453.887 423.247 454.272 423.422L465.945 429.057C466.33 429.232 466.505 429.688 466.295 430.073C466.155 430.353 465.874 430.493 465.594 430.493L465.629 430.528Z" fill="#263238"/>
<path d="M459.145 437.949C459.145 437.949 458.829 437.879 458.689 437.774L450.557 431.508C449.295 431.508 446.806 431.333 446.07 430.458C445.79 430.143 445.86 429.653 446.175 429.373C446.491 429.093 446.982 429.163 447.262 429.478C447.542 429.723 449.26 429.968 450.802 429.968C450.977 429.968 451.153 430.038 451.258 430.143L459.6 436.549C459.951 436.794 459.986 437.284 459.74 437.634C459.6 437.844 459.355 437.949 459.109 437.949H459.145Z" fill="#263238"/>
<path d="M450.207 434.973C449.751 434.973 449.295 434.903 448.875 434.763C447.157 434.133 444.704 431.928 443.862 429.827C443.477 428.882 443.442 428.077 443.792 427.377C445.019 425.522 446.526 424.017 448.314 422.826C448.664 422.581 449.155 422.686 449.401 423.036C449.646 423.386 449.541 423.877 449.19 424.122C447.578 425.172 446.246 426.537 445.159 428.147C445.054 428.392 445.159 428.917 445.334 429.267C446 430.913 448.139 432.838 449.436 433.328C450.452 433.678 451.644 433.328 452.38 432.488C452.66 432.173 453.151 432.138 453.466 432.418C453.782 432.698 453.817 433.188 453.537 433.503C452.695 434.448 451.504 434.973 450.277 434.973H450.207Z" fill="#263238"/>
<path d="M291.807 379.49C291.807 379.49 276.349 385.686 271.407 381.975C266.465 378.265 249.745 344.1 249.745 344.1C249.745 344.1 243.996 338.989 244.067 333.388C244.137 327.787 248.413 303.844 253.25 301.044C258.087 298.243 268.217 299.888 272.494 298.523C276.77 297.158 281.502 287.111 285.813 286.411C290.125 285.711 301.271 286.516 306.003 285.851C310.735 285.186 318.762 278.29 322.092 278.325C325.422 278.36 334.746 282.281 340.389 281.896C346.032 281.511 352.657 278.22 356.373 278.325C360.088 278.43 371.48 288.022 373.583 290.052C375.686 292.082 381.75 328.978 381.75 328.978C381.75 328.978 393.072 337.554 396.122 341.789C399.171 346.025 402.326 360.447 404.499 366.433C406.672 372.419 400.118 382.745 396.893 383.446C393.668 384.146 375.09 387.401 361.525 393.387C357.074 395.382 352.692 388.416 352.692 388.416C352.692 388.416 335.342 391.497 332.573 391.287C329.803 391.077 324.511 386.316 324.511 386.316C324.511 386.316 321.286 390.517 311.296 391.532C302.253 392.477 299.729 392.337 291.772 379.455L291.807 379.49Z" fill="white"/>
<g opacity="0.4">
<path d="M404.499 366.468C402.325 360.482 399.206 346.06 396.121 341.825C393.037 337.589 381.75 329.013 381.75 329.013C381.75 329.013 375.651 292.082 373.583 290.087C372.601 289.142 369.622 286.552 366.362 284.066C372.566 293.413 370.218 306.855 370.078 307.625L373.513 300.309C373.513 300.309 385.886 352.396 384.204 357.297C382.521 362.198 363.067 363.283 360.368 360.167C357.669 357.052 353.603 336.994 353.358 335.104C353.463 331.603 354.339 328.173 355.987 325.092C357.529 322.992 351.115 310.39 348.661 310.67C346.207 310.95 343.789 326.002 345.331 329.013C346.873 332.023 347.785 341.265 348.661 345.535C349.537 349.806 354.515 372.524 350.554 376.445C346.593 380.365 329.102 381.24 327.244 378.755C325.387 376.27 318.692 339.059 319.603 335.034C320.514 331.008 319.323 318.896 314.731 317.391C310.139 315.886 308.527 325.302 310.91 329.153C312.593 332.373 313.889 335.804 314.731 339.339C313.539 351.836 319.603 382.326 319.603 382.326C319.603 382.326 303.409 384.916 299.729 382.326C296.048 379.735 289.318 346.725 289.318 346.725C289.318 346.725 293.945 347.32 289.318 341.23C284.691 335.139 277.996 321.662 276.454 329.188C274.912 336.714 281.642 345.815 281.642 345.815C282.553 353.761 284.095 367.623 284.095 367.623C284.095 367.623 279.223 371.194 274.596 370.879C269.969 370.564 259.91 345.22 261.277 342.455C262.644 339.689 271.231 351.311 271.231 351.311C271.231 351.311 269.689 343.365 266.359 340.004C263.029 336.644 253.46 318.581 252.023 317.426C251.217 316.761 252.198 312.56 253.215 308.92C254.126 305.734 256.51 301.184 259.839 301.184C265.763 301.184 275.157 303.424 277.365 303.564C280.73 303.774 283.57 290.227 285.673 288.407C287.776 286.587 305.547 291.767 307.335 291.767C309.122 291.767 319.883 280.776 324.125 280.251C328.366 279.726 337.62 283.506 345.156 285.816C351.08 287.637 357.108 281.931 359.387 279.446C358.44 278.85 357.389 278.5 356.302 278.36C352.622 278.255 345.997 281.546 340.319 281.931C334.64 282.316 325.351 278.36 322.022 278.36C318.692 278.36 310.665 285.221 305.933 285.886C301.201 286.552 290.089 285.746 285.743 286.447C281.396 287.147 276.664 297.263 272.423 298.558C268.182 299.854 258.017 298.243 253.18 301.079C248.342 303.914 244.101 327.858 243.996 333.423C243.891 338.989 249.674 344.135 249.674 344.135C249.674 344.135 266.499 378.265 271.337 382.01C276.174 385.756 291.737 379.525 291.737 379.525C299.693 392.407 302.217 392.547 311.226 391.637C321.215 390.622 324.44 386.421 324.44 386.421C324.44 386.421 329.698 391.147 332.502 391.392C335.306 391.637 352.622 388.521 352.622 388.521C352.622 388.521 357.003 395.487 361.455 393.492C375.02 387.471 393.562 384.216 396.822 383.551C400.082 382.886 406.707 372.489 404.534 366.538L404.499 366.468Z" fill="#E6E51D"/>
</g>
<path d="M359.878 394.543C356.338 394.543 353.288 390.622 352.342 389.292C349.432 389.817 335.131 392.302 332.537 392.057C330.049 391.847 326.123 388.697 324.616 387.402C323.284 388.662 319.463 391.497 311.436 392.302C302.217 393.282 299.378 393.002 291.527 380.436C288.547 381.556 275.683 386.106 270.986 382.606C266.079 378.93 250.481 347.251 249.149 344.59C248.273 343.785 243.26 338.884 243.33 333.389C243.4 328.628 247.431 303.564 252.899 300.379C255.949 298.629 260.821 298.524 265.133 298.419C267.972 298.349 270.671 298.314 272.283 297.789C274.106 297.193 276.209 294.603 278.277 292.083C280.801 288.967 283.184 286.062 285.743 285.642C288.021 285.257 291.877 285.292 296.013 285.327C299.799 285.327 303.69 285.397 305.968 285.047C308.211 284.732 311.506 282.771 314.416 281.021C317.605 279.131 320.304 277.486 322.162 277.521C323.599 277.521 325.948 278.186 328.647 278.956C332.432 280.006 337.129 281.336 340.389 281.091C343.193 280.881 346.313 279.936 349.117 279.096C352.026 278.221 354.55 277.451 356.443 277.521C360.754 277.626 372.987 288.337 374.179 289.492C376.317 291.558 381.4 321.697 382.521 328.558C384.239 329.888 393.913 337.379 396.823 341.335C398.926 344.24 400.994 351.521 402.816 357.962C403.728 361.148 404.569 364.158 405.305 366.188C406.847 370.424 404.324 375.78 403.167 377.88C401.695 380.506 399.241 383.761 397.138 384.216C396.752 384.286 396.157 384.426 395.42 384.566C389.532 385.721 373.828 388.837 361.946 394.123C361.28 394.438 360.614 394.543 359.948 394.543H359.878ZM352.727 387.682C352.973 387.682 353.253 387.822 353.393 388.032C353.428 388.102 357.494 394.403 361.28 392.687C373.338 387.332 389.146 384.216 395.07 383.026C395.806 382.886 396.402 382.746 396.787 382.676C397.839 382.431 399.977 380.401 401.8 377.11C404.008 373.12 404.744 369.234 403.833 366.714C403.097 364.648 402.22 361.603 401.309 358.382C399.521 352.081 397.524 344.94 395.561 342.245C392.616 338.149 381.47 329.678 381.33 329.608C381.189 329.503 381.049 329.328 381.049 329.118C378.736 315.081 374.53 292.223 373.092 290.612C370.604 288.162 359.597 279.166 356.408 279.096C354.725 279.026 352.201 279.831 349.538 280.636C346.698 281.511 343.438 282.491 340.494 282.701C336.989 282.946 332.327 281.651 328.226 280.496C325.737 279.796 323.354 279.131 322.127 279.131C320.69 279.131 317.886 280.811 315.187 282.421C311.997 284.312 308.737 286.272 306.178 286.657C303.795 287.007 299.834 286.972 295.978 286.937C292.123 286.937 288.127 286.867 285.988 287.217C284.026 287.532 281.712 290.367 279.469 293.098C277.19 295.898 275.017 298.559 272.739 299.294C270.881 299.889 268.112 299.924 265.133 299.994C260.996 300.064 256.335 300.169 253.636 301.744C249.324 304.229 244.943 327.403 244.838 333.424C244.767 338.604 250.2 343.505 250.236 343.54C250.306 343.61 250.376 343.68 250.411 343.785C256.159 355.547 268.042 378.545 271.828 381.381C275.578 384.181 287.285 380.471 291.492 378.79C291.842 378.65 292.228 378.79 292.438 379.105C300.395 391.952 302.673 391.707 311.226 390.797C320.69 389.817 323.88 385.931 323.915 385.896C324.055 385.721 324.23 385.616 324.44 385.616C324.651 385.616 324.861 385.651 325.036 385.826C326.438 387.087 330.574 390.412 332.643 390.587C334.816 390.762 347.75 388.592 352.552 387.752C352.587 387.752 352.657 387.752 352.692 387.752L352.727 387.682Z" fill="#263238"/>
<path d="M249.745 344.905C249.429 344.905 249.149 344.73 249.009 344.415C248.868 344.03 245.433 335.209 246.134 329.153C246.169 328.733 246.555 328.418 246.976 328.488C247.396 328.523 247.712 328.908 247.642 329.363C246.976 335.034 250.376 343.785 250.411 343.855C250.551 344.24 250.376 344.695 249.99 344.87C249.885 344.905 249.815 344.94 249.71 344.94L249.745 344.905Z" fill="#263238"/>
<path d="M297.345 314.276C297.345 314.276 297.24 314.276 297.205 314.276C296.785 314.206 296.504 313.785 296.574 313.365C297.906 306.364 298.993 295.793 297.275 294.218C296.96 293.938 296.96 293.447 297.24 293.132C297.521 292.817 298.011 292.817 298.327 293.097C301.271 295.828 298.642 310.705 298.081 313.68C298.011 314.066 297.696 314.311 297.31 314.311L297.345 314.276Z" fill="#263238"/>
<path d="M330.645 305.979C330.645 305.979 330.574 305.979 330.539 305.979C330.119 305.944 329.803 305.559 329.873 305.104L329.979 304.229C330.68 298.418 331.766 289.597 328.892 285.992C328.612 285.641 328.682 285.186 328.997 284.906C329.348 284.626 329.803 284.696 330.084 285.011C333.379 289.107 332.257 298.313 331.521 304.404L331.416 305.279C331.381 305.664 331.03 305.944 330.645 305.944V305.979Z" fill="#263238"/>
<path d="M352.762 389.291C352.377 389.291 352.061 389.011 351.991 388.661C351.921 388.241 352.201 387.856 352.622 387.751C353.218 387.646 353.744 387.261 354.164 386.631C355.391 384.741 355.426 381.415 355.111 380.05C354.69 378.335 353.779 372.629 353.007 367.588L352.412 363.738C352.096 361.847 351.675 358.277 351.185 354.146C350.308 347.075 349.152 337.379 348.521 335.944C347.469 333.493 348.275 322.502 348.381 321.276C348.381 320.856 348.836 320.541 349.222 320.576C349.642 320.576 349.958 320.996 349.923 321.417C349.572 325.967 349.257 333.773 349.923 335.349C350.589 336.854 351.5 344.03 352.692 353.971C353.183 358.102 353.638 361.637 353.919 363.493L354.515 367.343C355.321 372.349 356.197 378.02 356.583 379.665C357.038 381.52 356.898 385.231 355.426 387.436C354.76 388.451 353.884 389.046 352.867 389.256C352.832 389.256 352.762 389.256 352.727 389.256L352.762 389.291Z" fill="#263238"/>
<path d="M359.352 379.49C357.004 379.14 354.585 374.345 353.884 372.874C353.709 372.489 353.884 372.034 354.27 371.859C354.655 371.684 355.111 371.859 355.286 372.244C356.548 374.905 358.476 377.845 359.457 377.985C364.785 377.74 370.288 377.11 375.651 376.095C377.719 375.605 385.536 363.213 385.921 359.783C386.237 356.912 382.486 336.784 381.014 329.293C380.944 328.873 381.189 328.453 381.61 328.383C382.031 328.313 382.451 328.558 382.521 328.978C382.732 330.098 387.849 356.282 387.464 359.958C387.078 363.458 379.156 376.865 375.967 377.635C370.464 378.685 364.89 379.315 359.352 379.56V379.49Z" fill="#263238"/>
<path d="M324.51 387.191C324.3 387.191 324.055 387.086 323.914 386.911C321.566 384.111 318.306 370.564 316.799 357.332C316.203 352.256 315.817 347.95 315.467 344.52C314.941 338.989 314.591 335.314 314.03 333.248C313.925 332.828 314.17 332.408 314.556 332.303C314.976 332.198 315.397 332.443 315.502 332.828C316.098 335.034 316.448 338.744 317.009 344.38C317.325 347.845 317.745 352.116 318.341 357.192C319.954 371.299 323.213 383.691 325.106 385.966C325.387 386.281 325.352 386.771 325.001 387.051C324.861 387.156 324.686 387.226 324.51 387.226V387.191Z" fill="#263238"/>
<path d="M291.807 380.26C291.457 380.26 291.141 380.05 291.071 379.7C290.896 379.105 287.005 364.893 286.304 361.113C285.638 357.542 284.551 346.305 284.376 344.415C281.992 341.755 280.17 338.709 278.943 335.349C278.803 334.964 279.013 334.509 279.399 334.369C279.819 334.229 280.24 334.439 280.38 334.824C281.572 338.079 283.36 341.02 285.673 343.575C285.778 343.715 285.848 343.855 285.883 344.03C285.883 344.17 287.11 357.122 287.811 360.833C288.512 364.578 292.508 379.175 292.578 379.315C292.683 379.735 292.438 380.155 292.052 380.26C291.982 380.26 291.912 380.26 291.842 380.26H291.807Z" fill="#263238"/>
<path d="M367.694 301.079C367.274 301.079 366.923 300.728 366.923 300.308C366.923 300.203 366.783 289.457 365.311 286.096C365.136 285.711 365.311 285.256 365.696 285.081C366.082 284.906 366.538 285.081 366.713 285.466C368.29 289.107 368.43 299.818 368.43 300.273C368.43 300.693 368.08 301.044 367.659 301.044L367.694 301.079Z" fill="#263238"/>
<path d="M366.643 366.503C363.698 366.503 361.245 366.048 359.913 364.928C359.597 364.648 359.562 364.158 359.842 363.843C360.123 363.528 360.614 363.493 360.929 363.773C362.962 365.488 370.358 365.348 377.789 363.388C382.942 362.023 385.676 360.412 385.991 359.467C386.131 359.082 386.587 358.872 386.973 359.012C387.358 359.152 387.569 359.607 387.428 359.992C386.587 362.338 381.259 364.053 378.14 364.893C374.424 365.873 370.183 366.538 366.607 366.538L366.643 366.503Z" fill="#263238"/>
<path d="M328.191 385.511C326.684 385.511 325.562 385.371 325.036 385.126C324.651 384.916 324.51 384.461 324.721 384.076C324.931 383.691 325.387 383.551 325.772 383.761C327.981 384.916 348.1 382.081 349.993 379.56C350.238 379.21 350.729 379.14 351.08 379.42C351.43 379.665 351.5 380.155 351.22 380.506C349.327 383.026 334.956 385.511 328.191 385.511Z" fill="#263238"/>
<path d="M257.877 326.527C257.631 326.527 257.421 326.422 257.246 326.212C257.035 325.932 251.883 319.036 251.357 314.241C251.322 313.82 251.602 313.435 252.023 313.4C252.479 313.365 252.829 313.645 252.864 314.066C253.39 318.441 258.402 325.197 258.472 325.267C258.718 325.617 258.648 326.107 258.332 326.352C258.192 326.457 258.017 326.492 257.877 326.492V326.527Z" fill="#263238"/>
<path d="M401.414 373.189C401.134 373.189 400.854 373.014 400.713 372.769C399.066 369.408 394.825 362.758 392.336 363.808C391.95 363.983 391.495 363.808 391.319 363.388C391.144 363.003 391.319 362.547 391.74 362.372C396.227 360.517 401.52 370.914 402.115 372.104C402.291 372.489 402.115 372.944 401.765 373.154C401.66 373.224 401.555 373.224 401.414 373.224V373.189Z" fill="#263238"/>
<path d="M404.499 254.627C402.991 256.657 401.379 258.582 399.627 260.368C397.909 262.153 396.086 263.868 394.229 265.513C387.849 271.009 380.979 275.98 373.758 280.321C353.113 260.753 331.556 230.998 341.125 224.487C350.694 217.976 347.89 200.544 347.89 200.544C349.257 200.509 350.624 200.544 351.991 200.719C371.41 202.924 396.437 224.802 403.868 241.045C406.392 246.541 406.882 251.371 404.534 254.627H404.499Z" fill="white"/>
<mask id="mask5_1029_1935" style="mask-type:luminance" maskUnits="userSpaceOnUse" x="338" y="200" width="69" height="81">
<path d="M404.499 254.627C402.991 256.657 401.379 258.582 399.627 260.368C397.909 262.153 396.086 263.868 394.229 265.513C387.849 271.009 380.979 275.98 373.758 280.321C353.113 260.753 331.556 230.998 341.125 224.487C350.694 217.976 347.89 200.544 347.89 200.544C349.257 200.509 350.624 200.544 351.991 200.719C371.41 202.924 396.437 224.802 403.868 241.045C406.392 246.541 406.882 251.371 404.534 254.627H404.499Z" fill="white"/>
</mask>
<g mask="url(#mask5_1029_1935)">
<g opacity="0.4">
<path d="M399.627 260.298C397.909 262.083 396.086 263.798 394.229 265.443C387.849 270.939 380.979 275.91 373.758 280.251C353.113 260.683 331.556 230.928 341.125 224.417C350.694 217.906 347.89 200.544 347.89 200.544C349.257 200.509 350.624 200.544 351.991 200.719C352.902 210.625 353.638 224.977 350.939 228.548C346.663 234.044 342.878 235.059 342.878 235.059C342.878 235.059 358.335 265.058 375.966 275.63C375.966 275.63 382.977 261.348 399.697 260.333L399.627 260.298Z" fill="#E6E51D"/>
</g>
<path d="M404.499 254.627C401.449 258.582 398.014 262.223 394.194 265.443C389.181 268.209 383.748 270.134 378.105 271.219C362.787 257.987 358.195 230.963 358.195 230.963C358.195 230.963 389.637 233.729 403.798 241.08C406.322 246.541 406.812 251.371 404.464 254.662L404.499 254.627Z" fill="#263238"/>
</g>
<path d="M373.758 281.091C373.548 281.091 373.373 281.021 373.232 280.881C355.251 263.868 337.164 239.715 338.04 228.758C338.216 226.588 339.092 224.908 340.669 223.857C349.713 217.697 347.119 200.859 347.119 200.684C347.119 200.474 347.119 200.229 347.294 200.054C347.434 199.879 347.645 199.774 347.855 199.774C349.257 199.739 350.659 199.774 352.061 199.949C371.83 202.189 396.928 224.067 404.534 240.695C407.303 246.751 407.513 251.686 405.13 255.047C403.622 257.112 401.94 259.038 400.152 260.858C398.575 262.503 396.787 264.183 394.684 266.039C388.27 271.569 381.365 276.575 374.109 280.951C373.969 281.021 373.828 281.056 373.723 281.056L373.758 281.091ZM348.766 201.314C349.222 205.025 350.273 219.202 341.546 225.118C340.354 225.923 339.723 227.148 339.583 228.898C338.741 239.295 356.267 262.608 373.863 279.341C380.839 275.105 387.534 270.239 393.738 264.918C395.806 263.133 397.558 261.453 399.101 259.843C400.818 258.092 402.466 256.167 403.938 254.207C406.497 250.566 404.954 245.211 403.167 241.395C395.771 225.223 370.639 203.659 351.921 201.524C350.904 201.384 349.783 201.349 348.801 201.349L348.766 201.314Z" fill="#263238"/>
<path d="M353.288 219.727C353.288 219.727 352.762 225.923 353.463 228.268C357.144 240.8 373.373 262.258 380.698 264.043C388.024 265.828 397.453 265.583 402.431 260.963C411.579 252.561 430.297 238.944 432.715 227.358C435.134 215.771 447.122 195.923 447.122 174.185C447.122 162.283 445.404 132.179 411.299 123.358C362.542 110.721 352.832 140.79 349.082 161.268C347.434 170.229 347.329 182.551 347.469 191.408" fill="white"/>
<mask id="mask6_1029_1935" style="mask-type:luminance" maskUnits="userSpaceOnUse" x="347" y="120" width="101" height="146">
<path d="M353.288 219.727C353.288 219.727 352.762 225.923 353.463 228.268C357.144 240.8 373.373 262.258 380.698 264.043C388.024 265.828 397.453 265.583 402.431 260.963C411.579 252.561 430.297 238.944 432.715 227.358C435.134 215.771 447.122 195.923 447.122 174.185C447.122 162.283 445.404 132.179 411.299 123.358C362.542 110.721 352.832 140.79 349.082 161.268C347.434 170.229 347.329 182.551 347.469 191.408" fill="white"/>
</mask>
<g mask="url(#mask6_1029_1935)">
<g opacity="0.4">
<path d="M447.157 174.185C447.157 195.923 435.204 215.736 432.751 227.358C430.297 238.979 411.614 252.596 402.466 260.963C399.837 263.133 396.577 264.463 393.177 264.778C403.307 258.582 400.678 253.401 400.678 253.401C398.4 254.417 395.841 254.697 393.387 254.207C389.321 253.401 389.777 248.396 389.777 248.396C392.231 247.486 394.93 247.556 397.348 248.501C401.309 250.041 406.041 243.6 406.111 243.005C406.181 242.41 399.276 241.57 399.276 241.57L408.074 239.609L400.959 235.654C400.959 235.654 400.152 237.089 396.472 237.509C392.791 237.929 390.548 228.758 390.548 228.758L411.404 218.886C411.404 218.886 411.404 216.086 411.018 210.94C410.808 207.93 410.948 204.884 411.404 201.909L412.456 198.583L415.365 200.439C415.365 200.439 429.946 194.453 429.911 190.182C429.876 185.912 433.592 182.026 436.116 174.92C438.639 167.814 435.274 157.172 435.274 157.172C435.274 157.172 430.647 149.646 439.621 152.307C441.864 152.972 444.002 155.737 445.965 159.518C446.841 164.313 447.227 169.214 447.157 174.115V174.185Z" fill="#F0FF00"/>
</g>
</g>
<path d="M389.286 265.864C386.202 265.864 383.152 265.443 380.523 264.813C372.917 262.958 356.548 241.605 352.727 228.513C351.991 226.028 352.482 219.937 352.517 219.692C352.517 219.272 352.973 218.957 353.358 218.992C353.779 219.027 354.094 219.412 354.059 219.832C353.919 221.512 353.674 226.273 354.199 228.093C357.845 240.555 373.793 261.628 380.874 263.343C387.954 265.058 397.208 264.813 401.905 260.438C403.728 258.757 405.936 256.867 408.284 254.872C417.468 247.031 430.052 236.284 431.944 227.218C432.751 223.297 434.608 218.572 436.782 213.041C441.023 202.119 446.316 188.572 446.316 174.185C446.316 147.021 434.468 130.149 411.089 124.093C393.002 119.402 378.701 120.277 368.606 126.718C356.162 134.664 352.026 149.402 349.818 161.373C348.556 168.339 347.995 178.421 348.205 191.373C348.205 191.793 347.855 192.143 347.434 192.143C347.014 192.143 346.663 191.793 346.663 191.373C346.453 178.316 347.014 168.129 348.311 161.093C350.554 148.806 354.83 133.649 367.764 125.423C378.245 118.737 392.967 117.792 411.474 122.588C428.089 126.893 447.858 139.32 447.858 174.185C447.858 188.852 442.495 202.574 438.219 213.601C436.116 219.027 434.258 223.717 433.487 227.533C431.489 237.089 419.186 247.591 409.301 256.027C406.952 258.022 404.744 259.913 402.957 261.558C399.557 264.743 394.369 265.864 389.251 265.864H389.286Z" fill="#263238"/>
<path d="M397.068 200.544C395.841 200.544 394.194 200.159 392.055 199.354C387.569 197.674 382.521 195.048 378.07 192.738C373.653 190.428 368.641 187.802 367.379 188.082C366.958 188.187 366.538 187.907 366.467 187.487C366.362 187.067 366.643 186.647 367.063 186.577C368.781 186.192 372.426 188.047 378.806 191.373C383.222 193.683 388.2 196.273 392.616 197.919C396.998 199.564 398.014 198.899 398.224 198.654C398.68 198.129 398.154 196.763 397.839 196.203C397.629 195.818 397.769 195.363 398.154 195.153C398.54 194.943 398.996 195.083 399.206 195.468C399.346 195.748 400.678 198.199 399.416 199.669C398.926 200.264 398.154 200.544 397.068 200.544Z" fill="#263238"/>
<path d="M412.806 202.855C411.825 202.855 411.229 202.75 411.159 202.75C410.948 202.715 410.738 202.575 410.633 202.4C410.528 202.225 410.493 201.98 410.563 201.769L412.105 196.904C412.245 196.484 412.666 196.274 413.087 196.414C413.507 196.554 413.718 196.974 413.577 197.394L412.315 201.349C414.278 201.419 419.466 201.069 425.845 196.519C434.223 190.533 438.149 191.303 439.971 192.983C440.287 193.263 440.322 193.753 440.006 194.068C439.726 194.383 439.235 194.418 438.92 194.103C437.973 193.263 434.959 191.898 426.722 197.744C420.447 202.225 415.295 202.89 412.771 202.89L412.806 202.855Z" fill="#263238"/>
<path d="M383.643 200.824C383.397 202.61 382.276 203.905 381.084 203.765C379.892 203.625 379.156 202.05 379.402 200.264C379.647 198.479 380.769 197.184 381.96 197.324C383.152 197.464 383.853 199.004 383.643 200.824Z" fill="#263238"/>
<path d="M423.357 205.62C423.111 207.405 421.99 208.7 420.798 208.56C419.606 208.42 418.87 206.845 419.115 205.06C419.361 203.274 420.482 201.979 421.674 202.119C422.866 202.259 423.602 203.834 423.357 205.655V205.62Z" fill="#263238"/>
<path d="M379.296 239.68C384.028 239.435 388.795 239.96 393.387 241.22C395.771 241.85 398.295 241.85 400.678 241.22C400.678 241.22 406.041 239.925 409.301 241.71" fill="white"/>
<path d="M397.033 242.48C395.736 242.48 394.439 242.305 393.177 241.99C388.655 240.765 383.993 240.24 379.332 240.485C378.911 240.485 378.525 240.17 378.525 239.75C378.525 239.33 378.841 238.945 379.261 238.945C384.099 238.7 388.901 239.225 393.598 240.52C395.841 241.115 398.225 241.115 400.468 240.52C400.713 240.45 406.181 239.155 409.651 241.08C410.037 241.29 410.177 241.745 409.967 242.13C409.757 242.515 409.301 242.655 408.915 242.445C405.936 240.835 400.888 242.025 400.853 242.025C399.592 242.375 398.33 242.515 397.033 242.515V242.48Z" fill="#263238"/>
<path d="M386.728 246.226C386.728 246.226 388.761 248.466 389.812 248.466C390.864 248.466 397.348 247.836 398.68 248.466C400.012 249.096 403.097 246.821 403.097 246.226" fill="white"/>
<path d="M399.241 249.341C398.925 249.341 398.645 249.306 398.365 249.166C397.523 248.781 393.037 249.061 391.354 249.166C390.618 249.201 390.057 249.236 389.812 249.236C388.515 249.236 386.692 247.311 386.131 246.751C385.851 246.436 385.851 245.945 386.166 245.665C386.482 245.385 386.973 245.385 387.253 245.7C388.199 246.716 389.391 247.696 389.777 247.696C390.022 247.696 390.548 247.696 391.214 247.626C395.35 247.381 397.944 247.311 398.96 247.766C399.661 248.081 401.905 246.646 402.29 246.051C402.36 245.7 402.676 245.42 403.061 245.42C403.482 245.42 403.833 245.77 403.833 246.191C403.833 246.996 402.676 247.871 401.975 248.291C401.309 248.711 400.222 249.306 399.206 249.306L399.241 249.341Z" fill="#263238"/>
<path d="M354.83 193.543L357.669 192.563C357.669 192.563 356.443 179.191 360.544 175.55C364.645 171.91 373.197 168.199 373.197 166.169C373.197 164.139 374.845 148.106 376.072 146.951C376.072 146.951 401.379 160.463 414.839 163.719C428.299 166.974 442.6 161.268 442.6 161.268C442.6 161.268 443.827 177.581 442.6 183.287C441.373 188.992 443.126 197.989 443.126 197.989C443.126 197.989 458.689 174.325 447.192 149.857C447.192 149.857 451.573 132.739 439.551 118.492C427.528 104.245 389.777 109.531 389.777 109.531C389.777 109.531 396.752 110.336 399.276 112.401C386.797 108.341 373.127 110.931 363.032 119.332C345.471 133.579 342.317 172.89 347.925 200.614C347.925 200.614 348.731 185.737 350.799 183.707C352.867 181.676 354.9 193.543 354.9 193.543H354.83Z" fill="#263238"/>
<path d="M352.167 187.312C352.167 187.312 349.713 177.371 348.066 175.516C346.418 173.66 338.882 177.511 338.286 181.396C337.69 185.282 339.092 200.159 340.529 202.084C341.967 204.01 345.822 206.04 348.066 210.346C350.309 214.651 352.973 214.196 353.569 210.346C353.954 208.105 353.183 205.83 351.536 204.29" fill="white"/>
<path d="M351.325 214.196C350.379 214.196 348.872 213.636 347.364 210.73C345.997 208.105 343.929 206.355 342.282 204.92C341.3 204.079 340.459 203.344 339.898 202.574C338.216 200.264 336.919 185.072 337.515 181.291C337.971 178.351 341.721 175.515 344.911 174.57C346.628 174.045 347.925 174.22 348.661 175.025C350.414 176.951 352.692 186.122 352.938 187.137C353.043 187.557 352.797 187.977 352.377 188.082C351.956 188.187 351.536 187.942 351.43 187.522C350.449 183.601 348.626 177.336 347.505 176.075C347.294 175.83 346.523 175.725 345.331 176.075C342.632 176.88 339.408 179.366 339.057 181.571C338.426 185.527 339.933 200.019 341.16 201.699C341.616 202.329 342.422 202.994 343.333 203.799C345.086 205.305 347.259 207.195 348.802 210.065C349.888 212.166 351.01 212.796 351.536 212.691C352.132 212.586 352.657 211.676 352.868 210.31C353.218 208.315 352.552 206.32 351.08 204.955C350.765 204.675 350.764 204.184 351.045 203.869C351.325 203.554 351.816 203.554 352.132 203.834C353.989 205.585 354.831 208.105 354.375 210.59C354.059 212.691 353.113 214.021 351.781 214.266C351.676 214.266 351.536 214.266 351.395 214.266L351.325 214.196Z" fill="#263238"/>
<path d="M418.449 159.483C420.412 160.323 422.34 161.373 424.128 162.563C425.985 163.754 427.633 165.224 428.965 166.939C429.666 167.849 430.192 168.899 430.507 170.019C430.858 171.175 430.893 172.365 430.612 173.555C429.981 175.655 428.684 177.546 426.967 178.911C425.46 180.451 423.637 181.641 421.604 182.341C420.517 182.656 419.361 182.656 418.274 182.341C417.187 181.956 416.311 181.221 415.715 180.241C414.629 178.316 414.734 175.97 415.996 174.15C417.012 172.26 419.08 171.21 421.218 171.49C419.15 171.35 417.187 172.47 416.346 174.36C415.295 176.04 415.295 178.176 416.346 179.856C416.872 180.626 417.643 181.151 418.519 181.396C419.431 181.571 420.342 181.501 421.218 181.186C423.006 180.416 424.583 179.261 425.845 177.756C427.247 176.495 428.229 174.85 428.649 173.03C428.895 171.28 428.299 169.529 427.107 168.269C424.373 165.539 421.043 163.508 417.328 162.318L418.484 159.553L418.449 159.483Z" fill="#263238"/>
<path d="M444.107 153.182C444.107 153.182 443.967 153.182 443.897 153.182C443.476 153.077 443.231 152.657 443.336 152.237C443.406 151.957 450.452 124.653 431.068 114.817C419.781 109.076 397.488 110.406 397.278 110.406C396.822 110.406 396.472 110.091 396.472 109.671C396.472 109.251 396.752 108.866 397.208 108.866C398.119 108.796 420.132 107.501 431.804 113.417C440.322 117.757 445.264 125.913 446.105 137.045C446.736 145.376 444.913 152.307 444.843 152.622C444.738 152.972 444.423 153.182 444.107 153.182Z" fill="white"/>
<path d="M346.803 172.33C346.418 172.33 346.067 172.015 346.032 171.63C345.927 170.475 343.894 143.031 355.741 126.298C367.659 109.531 389.777 107.711 405.445 114.642C405.831 114.817 406.006 115.272 405.831 115.657C405.655 116.042 405.2 116.217 404.814 116.042C389.707 109.391 368.43 111.071 357.003 127.174C345.471 143.451 347.539 171.21 347.574 171.49C347.574 171.91 347.294 172.295 346.873 172.33C346.873 172.33 346.838 172.33 346.803 172.33Z" fill="white"/>
<path d="M444.633 193.298C444.633 193.298 444.388 193.298 444.283 193.228C443.897 193.018 443.757 192.563 443.932 192.178C446.911 186.367 448.804 180.136 449.575 173.695C450.417 166.554 449.33 159.308 446.421 152.727C446.245 152.342 446.421 151.887 446.806 151.712C447.192 151.537 447.648 151.712 447.823 152.097C450.837 158.923 451.959 166.484 451.083 173.87C450.276 180.521 448.313 186.927 445.264 192.878C445.124 193.158 444.843 193.298 444.563 193.298H444.633Z" fill="white"/>
<path d="M425.39 160.498C425.179 160.498 424.969 160.428 424.829 160.253C424.549 159.938 424.549 159.448 424.829 159.168C424.969 159.028 439.2 145.201 431.314 125.598C431.138 125.213 431.314 124.758 431.734 124.583C432.12 124.408 432.575 124.583 432.751 125.003C440.988 145.621 426.021 160.148 425.881 160.288C425.74 160.428 425.53 160.498 425.355 160.498H425.39Z" fill="white"/>
<path d="M419.01 160.498C419.01 160.498 418.835 160.498 418.765 160.463C418.344 160.323 418.134 159.868 418.309 159.483C418.344 159.343 423.146 145.516 417.608 134.559C414.769 128.923 409.686 124.968 402.501 122.798C402.08 122.658 401.87 122.238 401.975 121.817C402.115 121.397 402.536 121.187 402.956 121.292C410.563 123.603 415.961 127.838 419.01 133.859C424.864 145.411 419.992 159.413 419.781 159.973C419.676 160.288 419.361 160.498 419.045 160.498H419.01Z" fill="white"/>
<path d="M411.334 158.048C411.018 158.048 410.703 157.838 410.598 157.523C410.177 156.263 399.626 126.858 367.414 132.984C366.993 133.054 366.573 132.774 366.502 132.354C366.432 131.934 366.713 131.514 367.133 131.444C400.748 125.073 411.965 156.683 412.07 156.998C412.21 157.418 412 157.838 411.579 157.978C411.509 157.978 411.404 158.013 411.334 158.013V158.048Z" fill="white"/>
<path d="M411.334 205.34C410.107 206.88 411.334 212.236 411.334 218.957C411.334 221.477 412.771 233.869 407.969 234.779C400.643 236.214 398.259 229.703 394.404 229.493C390.548 229.283 389.777 229.108 389.777 226.658C390.057 224.103 392.336 222.282 394.894 222.562C394.965 222.562 395.035 222.562 395.07 222.562" fill="white"/>
<path d="M405.936 235.794C402.361 235.794 400.047 233.904 398.119 232.364C396.787 231.279 395.631 230.369 394.369 230.299C390.548 230.089 389.006 229.879 389.006 226.693C389.321 223.648 391.985 221.477 395 221.827H395.21C395.631 221.932 395.911 222.317 395.841 222.738C395.771 223.158 395.35 223.438 394.965 223.368C392.686 223.123 390.793 224.663 390.548 226.763C390.548 228.373 390.548 228.548 394.474 228.758C396.227 228.863 397.629 229.984 399.101 231.174C401.379 232.994 403.693 234.884 407.864 234.079C411.299 233.414 410.843 224.138 410.668 220.637C410.633 219.937 410.598 219.377 410.598 218.992C410.598 216.472 410.423 214.161 410.282 212.096C410.002 208.455 409.827 206.075 410.773 204.885C411.053 204.535 411.509 204.5 411.86 204.745C412.21 205.025 412.245 205.48 412 205.83C411.439 206.565 411.614 209.191 411.825 211.991C411.965 214.056 412.14 216.402 412.14 218.992C412.14 219.342 412.14 219.867 412.21 220.532C412.456 225.118 412.946 234.639 408.179 235.584C407.408 235.724 406.672 235.794 405.971 235.794H405.936Z" fill="#263238"/>
<path d="M141.539 486.746L249.745 482.23L258.262 515.8L244.417 531.273L146.412 537.013L137.053 500.958L141.539 486.746Z" fill="white"/>
<path d="M383.012 542.789L393.352 520.316L489.289 543.454L493.706 567.958L485.048 587.981L395.42 566.243L383.012 542.789Z" fill="white"/>
<path d="M148.479 230.439L232.534 187.312L254.967 192.703V236.46L177.853 272.06H153.387L148.479 230.439Z" fill="white"/>
<path d="M252.093 60.1738L235.408 95.599L243.751 114.747L331.52 134.35L359.948 108.516L350.624 77.5714L252.093 60.1738Z" fill="white"/>
<path d="M479.685 213.426L466.295 245.526L467.311 262.328L556.554 283.577L572.046 252.282V236.46L479.685 213.426Z" fill="white"/>
<path d="M60.8147 336.364L46.4785 371.999L51.526 388.592L143.257 414.216L159.906 379.491V361.953L60.8147 336.364Z" fill="white"/>
<path d="M530.51 331.918L524.727 349.596L531.737 386.981L636.402 387.297L646.567 374.31L640.047 332.409L530.51 331.918Z" fill="white"/>
<g opacity="0.4">
<path d="M235.408 95.5989L324.23 111.526L350.624 77.5713L359.948 108.516L331.52 134.35L243.751 114.747L235.408 95.5989Z" fill="#E6E51D"/>
</g>
<path d="M254.967 192.703L175.82 234.289L177.853 272.06H153.387L148.479 230.439L232.534 187.312L254.967 192.703Z" fill="#E6E51D"/>
<path d="M46.4785 372L139.717 398.113L159.906 361.953V379.491L143.257 414.216L51.526 388.592L46.4785 372Z" fill="#E6E51D"/>
<path d="M141.539 486.746L153.808 523.431L258.262 515.8L244.417 531.273L146.412 537.013L137.053 500.958L141.539 486.746Z" fill="#E6E51D"/>
<path d="M393.352 520.316L407.408 546.64L493.706 567.958L485.048 587.981L395.42 566.243L383.012 542.789L393.352 520.316Z" fill="#F0FF00"/>
<path d="M530.51 331.918L543.094 372.419L646.567 374.31L636.402 387.297L531.737 386.981L524.727 349.596L530.51 331.918Z" fill="#E6E51D"/>
<g opacity="0.4">
<path d="M467.311 262.328L486.134 226.343L572.046 252.282V236.46L479.685 213.426L466.295 245.526L467.311 262.328Z" fill="#F0FF00"/>
</g>
<path d="M148.479 230.439L175.82 234.29L177.853 272.06H153.387L148.479 230.439Z" fill="#F0FF00"/>
<path d="M324.23 111.526L331.52 134.35L243.751 114.747L235.408 95.5991L324.23 111.526Z" fill="#F0FF00"/>
<path d="M479.685 213.426L486.134 226.343L467.311 262.328L466.295 245.526L479.685 213.426Z" fill="#E6E51D"/>
<path d="M531.737 386.982L543.094 372.419L646.567 374.31L636.402 387.297L531.737 386.982Z" fill="#F0FF00"/>
<path d="M407.408 546.64L395.42 566.243L383.012 542.789L393.352 520.316L407.408 546.64Z" fill="#E6E51D"/>
<path d="M153.808 523.431L146.412 537.013L244.417 531.273L258.262 515.8L153.808 523.431Z" fill="#F0FF00"/>
<path d="M46.4785 372L139.717 398.113L143.257 414.216L51.526 388.592L46.4785 372Z" fill="#F0FF00"/>
<path d="M146.411 537.784C146.061 537.784 145.745 537.539 145.675 537.189L136.316 501.133C136.316 501.133 136.316 500.853 136.316 500.713L140.803 486.501C140.908 486.186 141.189 485.976 141.504 485.976L249.674 481.46C250.06 481.46 250.375 481.706 250.445 482.056L258.998 515.625C259.068 515.871 258.998 516.151 258.823 516.326L244.977 531.798C244.977 531.798 244.662 532.043 244.451 532.043L146.446 537.784C146.446 537.784 146.446 537.784 146.411 537.784ZM137.859 500.993L147.007 536.208L244.066 530.503L257.421 515.59L249.148 483.036L142.135 487.516L137.859 500.993Z" fill="#263238"/>
<path d="M485.048 588.751C485.048 588.751 484.943 588.751 484.873 588.751L395.245 567.013C395.035 566.943 394.859 566.803 394.754 566.628L382.346 543.174C382.241 542.964 382.241 542.719 382.346 542.474L392.686 520.001C392.826 519.651 393.212 519.511 393.563 519.581L489.535 542.754C489.85 542.824 490.06 543.069 490.13 543.384L494.512 567.888C494.512 567.888 494.512 568.203 494.477 568.343L485.854 588.366C485.714 588.646 485.434 588.821 485.153 588.821L485.048 588.751ZM395.946 565.578L484.627 587.071L492.9 567.853L488.623 544.085L393.773 521.191L383.853 542.719L395.911 565.543L395.946 565.578Z" fill="#263238"/>
<path d="M177.853 272.83H153.387C153.001 272.83 152.651 272.55 152.616 272.165L147.709 230.544C147.673 230.229 147.849 229.914 148.129 229.774L232.184 186.647C232.184 186.647 232.534 186.542 232.709 186.577L255.143 191.968C255.493 192.038 255.738 192.353 255.738 192.703V236.46C255.738 236.775 255.563 237.02 255.283 237.16L178.169 272.76C178.169 272.76 177.958 272.83 177.853 272.83ZM154.088 271.29H177.713L254.196 235.97V193.298L232.639 188.118L149.321 230.859L154.088 271.255V271.29Z" fill="#263238"/>
<path d="M331.52 135.155C331.52 135.155 331.415 135.155 331.345 135.155L243.54 115.517C243.295 115.447 243.084 115.307 243.014 115.062L234.707 95.9491C234.602 95.7391 234.637 95.5291 234.707 95.319L251.357 59.8939C251.497 59.5788 251.847 59.4038 252.198 59.4738L350.729 76.8714C351.009 76.9064 351.255 77.1164 351.325 77.3964L360.648 108.341C360.718 108.621 360.648 108.936 360.438 109.146L332.046 134.98C332.046 134.98 331.731 135.19 331.52 135.19V135.155ZM244.311 114.082L331.31 133.545L359.071 108.306L350.028 78.2716L252.548 61.0491L236.284 95.6341L244.311 114.082Z" fill="#263238"/>
<path d="M556.554 284.347C556.554 284.347 556.449 284.347 556.378 284.347L467.136 263.098C466.821 263.028 466.576 262.748 466.541 262.398L465.559 245.596C465.559 245.596 465.559 245.351 465.629 245.246L478.984 213.111C479.124 212.761 479.51 212.551 479.895 212.656L572.257 235.724C572.607 235.794 572.853 236.109 572.853 236.46V252.282C572.853 252.282 572.853 252.527 572.783 252.632L557.29 283.926C557.15 284.206 556.869 284.347 556.589 284.347H556.554ZM468.048 261.698L556.133 282.666L571.276 252.107V237.055L480.141 214.301L467.101 245.631L468.048 261.663V261.698Z" fill="#263238"/>
<path d="M143.257 414.986C143.257 414.986 143.117 414.986 143.047 414.986L51.2807 389.362C51.0354 389.292 50.825 389.082 50.7549 388.837L45.7075 372.245C45.7075 372.245 45.6724 371.894 45.7075 371.719L60.0437 336.084C60.1839 335.734 60.5695 335.524 60.955 335.629L160.082 361.218C160.432 361.323 160.678 361.603 160.678 361.953V379.491C160.678 379.491 160.678 379.736 160.608 379.841L143.958 414.531C143.818 414.811 143.537 414.986 143.257 414.986ZM52.122 387.962L142.836 413.306L159.135 379.351V362.583L61.2705 337.344L47.2848 372.105L52.122 388.032V387.962Z" fill="#263238"/>
<path d="M636.402 388.067L531.737 387.787C531.352 387.787 531.036 387.507 530.966 387.157L523.956 349.736C523.956 349.736 523.956 349.491 523.956 349.351L529.739 331.674C529.844 331.358 530.125 331.148 530.475 331.148L640.047 331.639C640.433 331.639 640.748 331.919 640.819 332.304L647.338 374.205C647.338 374.415 647.338 374.625 647.198 374.8L637.033 387.752C636.893 387.927 636.647 388.032 636.437 388.032L636.402 388.067ZM532.368 386.211L636.016 386.492L645.726 374.1L639.381 333.179L531.036 332.689L525.498 349.631L532.368 386.211Z" fill="#F0FF00"/>
<path d="M329.488 128.714C329.172 128.714 328.857 128.504 328.751 128.189L323.634 112.226L275.262 103.545C274.842 103.475 274.561 103.055 274.631 102.635C274.701 102.215 275.122 101.935 275.543 102.005L324.37 110.756C324.65 110.791 324.896 111.001 324.966 111.281L330.224 127.664C330.364 128.084 330.118 128.504 329.733 128.644C329.663 128.644 329.558 128.679 329.488 128.679V128.714Z" fill="#263238"/>
<path d="M338.145 94.4089C338.145 94.4089 337.795 94.3389 337.654 94.2339C337.304 93.9888 337.269 93.4988 337.514 93.1487L349.993 77.1164C350.273 76.7663 350.729 76.7313 351.079 76.9763C351.43 77.2214 351.465 77.7115 351.219 78.0615L338.741 94.0938C338.601 94.3039 338.355 94.4089 338.145 94.4089Z" fill="#263238"/>
<path d="M331.521 102.88C331.521 102.88 331.17 102.81 331.03 102.705C330.679 102.425 330.644 101.97 330.89 101.62L333.799 97.9093C334.079 97.5593 334.535 97.5243 334.886 97.7693C335.236 98.0494 335.271 98.5044 335.026 98.8545L332.116 102.565C331.976 102.775 331.731 102.88 331.521 102.88Z" fill="#263238"/>
<path d="M244.662 98.0492C244.662 98.0492 244.557 98.0492 244.522 98.0492L235.268 96.404C234.848 96.334 234.567 95.9139 234.637 95.4938C234.707 95.0738 235.128 94.7937 235.549 94.8637L244.802 96.509C245.223 96.579 245.503 96.9991 245.433 97.4191C245.363 97.8042 245.048 98.0492 244.662 98.0492Z" fill="#263238"/>
<path d="M478.809 241.15C478.809 241.15 478.563 241.15 478.458 241.045C478.072 240.835 477.932 240.38 478.143 239.995L485.293 226.308L479.019 213.741C478.844 213.356 478.984 212.901 479.369 212.691C479.755 212.516 480.211 212.656 480.421 213.041L486.87 225.958C486.976 226.168 486.976 226.448 486.87 226.658L479.51 240.695C479.369 240.975 479.089 241.115 478.809 241.115V241.15Z" fill="#263238"/>
<path d="M512.669 235.129C512.669 235.129 512.529 235.129 512.458 235.129L493.145 229.283C492.724 229.143 492.514 228.723 492.619 228.303C492.759 227.883 493.18 227.673 493.601 227.778L512.914 233.624C513.335 233.764 513.545 234.184 513.44 234.604C513.335 234.954 513.019 235.164 512.704 235.164L512.669 235.129Z" fill="#263238"/>
<path d="M524.726 238.77C524.726 238.77 524.586 238.77 524.516 238.77L518.978 237.09C518.557 236.95 518.347 236.529 518.452 236.109C518.557 235.689 519.013 235.479 519.434 235.584L524.972 237.265C525.392 237.405 525.603 237.825 525.498 238.245C525.392 238.595 525.077 238.805 524.761 238.805L524.726 238.77Z" fill="#263238"/>
<path d="M467.312 263.099C467.312 263.099 467.066 263.099 466.961 262.994C466.575 262.784 466.435 262.329 466.646 261.943L470.151 255.292C470.361 254.907 470.817 254.767 471.202 254.977C471.588 255.187 471.728 255.643 471.518 256.028L468.013 262.679C467.872 262.959 467.592 263.099 467.312 263.099Z" fill="#263238"/>
<path d="M574.5 373.785L543.094 373.225C542.743 373.225 542.463 373.015 542.357 372.665L539.413 363.143C539.273 362.723 539.518 362.303 539.939 362.163C540.36 362.023 540.78 362.268 540.92 362.688L543.725 371.684L574.57 372.245C574.991 372.245 575.341 372.595 575.341 373.015C575.341 373.435 574.991 373.785 574.57 373.785H574.5Z" fill="#263238"/>
<path d="M589.152 373.785H585.647C585.226 373.785 584.875 373.435 584.875 373.015C584.875 372.595 585.226 372.245 585.647 372.245H589.152C589.572 372.245 589.923 372.595 589.923 373.015C589.923 373.435 589.572 373.785 589.152 373.785Z" fill="#263238"/>
<path d="M536.083 350.716C535.768 350.716 535.452 350.506 535.347 350.156L529.774 332.129C529.634 331.709 529.879 331.288 530.3 331.148C530.72 331.008 531.141 331.253 531.281 331.674L536.854 349.701C536.995 350.121 536.749 350.541 536.329 350.681C536.259 350.681 536.188 350.681 536.083 350.681V350.716Z" fill="#263238"/>
<path d="M531.737 387.752C531.737 387.752 531.421 387.682 531.246 387.576C530.896 387.296 530.861 386.841 531.106 386.491L537.52 378.23C537.766 377.88 538.257 377.845 538.607 378.09C538.958 378.37 538.993 378.825 538.747 379.175L532.333 387.436C532.193 387.647 531.947 387.752 531.737 387.752Z" fill="#263238"/>
<path d="M424.408 551.611C424.408 551.611 424.303 551.611 424.233 551.611L407.233 547.41C407.022 547.34 406.847 547.2 406.742 547.025L400.573 535.473C400.362 535.088 400.503 534.633 400.888 534.423C401.274 534.213 401.729 534.353 401.94 534.738L407.934 545.975L424.583 550.071C425.004 550.176 425.249 550.596 425.144 551.016C425.039 551.366 424.724 551.611 424.408 551.611Z" fill="#263238"/>
<path d="M440.357 555.566C440.357 555.566 440.251 555.566 440.181 555.566L431.839 553.501C431.418 553.396 431.173 552.976 431.278 552.556C431.383 552.135 431.804 551.89 432.225 551.995L440.567 554.061C440.988 554.166 441.233 554.586 441.128 555.006C441.058 555.356 440.742 555.601 440.392 555.601L440.357 555.566Z" fill="#263238"/>
<path d="M493.705 568.728C493.705 568.728 493.565 568.728 493.53 568.728L479.509 565.262C479.089 565.157 478.843 564.737 478.949 564.317C479.054 563.897 479.474 563.652 479.895 563.757L493.916 567.223C494.336 567.328 494.582 567.748 494.477 568.168C494.371 568.518 494.056 568.763 493.741 568.763L493.705 568.728Z" fill="#263238"/>
<path d="M399.381 560.537C399.381 560.537 399.1 560.502 398.96 560.432C398.61 560.222 398.469 559.732 398.715 559.382L403.201 552.03C403.412 551.68 403.902 551.54 404.253 551.785C404.604 551.995 404.744 552.485 404.498 552.836L400.012 560.187C399.872 560.432 399.626 560.572 399.346 560.572L399.381 560.537Z" fill="#263238"/>
<path d="M150.197 530.783C150.197 530.783 149.952 530.783 149.812 530.678C149.426 530.468 149.286 530.012 149.496 529.627L153.071 523.011C153.212 522.766 153.422 522.626 153.702 522.591L175.715 520.981C176.136 520.946 176.521 521.261 176.556 521.681C176.556 522.101 176.276 522.486 175.855 522.521L154.263 524.097L150.863 530.328C150.723 530.573 150.443 530.748 150.197 530.748V530.783Z" fill="#263238"/>
<path d="M189.28 521.611C188.894 521.611 188.544 521.296 188.509 520.911C188.509 520.491 188.789 520.106 189.21 520.071L196.395 519.546C196.816 519.511 197.202 519.826 197.237 520.246C197.237 520.666 196.956 521.051 196.536 521.086L189.35 521.611C189.35 521.611 189.315 521.611 189.28 521.611Z" fill="#263238"/>
<path d="M146.411 502.078C146.096 502.078 145.78 501.868 145.675 501.553L140.803 486.991C140.663 486.571 140.873 486.151 141.294 486.011C141.714 485.871 142.135 486.081 142.275 486.501L147.147 501.063C147.288 501.483 147.077 501.903 146.657 502.043C146.587 502.043 146.481 502.078 146.411 502.078Z" fill="#263238"/>
<path d="M153.808 524.202C153.492 524.202 153.177 523.992 153.071 523.642L149.496 512.09C149.356 511.67 149.601 511.25 150.022 511.11C150.443 510.97 150.863 511.215 151.003 511.635L154.579 523.187C154.719 523.607 154.474 524.027 154.053 524.167C153.983 524.167 153.913 524.167 153.808 524.167V524.202Z" fill="#263238"/>
<path d="M141.539 407.005C141.189 407.005 140.873 406.76 140.768 406.41L138.91 398.323C138.875 398.148 138.91 397.938 138.98 397.763L146.411 384.426C146.622 384.041 147.077 383.936 147.463 384.111C147.848 384.321 147.954 384.776 147.778 385.161L140.488 398.253L142.275 406.06C142.38 406.48 142.1 406.9 141.679 406.97C141.609 406.97 141.574 406.97 141.504 406.97L141.539 407.005Z" fill="#263238"/>
<path d="M154.298 372.77C154.298 372.77 154.053 372.77 153.913 372.665C153.527 372.455 153.422 372 153.632 371.615L159.276 361.568C159.486 361.183 159.942 361.078 160.327 361.288C160.713 361.498 160.818 361.953 160.608 362.338L154.964 372.385C154.824 372.63 154.544 372.77 154.298 372.77Z" fill="#263238"/>
<path d="M76.8688 381.311C76.8688 381.311 76.7286 381.311 76.6585 381.311L46.2685 372.805C45.8479 372.7 45.6025 372.28 45.7427 371.859C45.8479 371.439 46.3036 371.229 46.6891 371.334L77.0791 379.841C77.4997 379.946 77.7451 380.366 77.6049 380.786C77.4997 381.136 77.1843 381.346 76.8688 381.346V381.311Z" fill="#263238"/>
<path d="M127.904 395.593C127.904 395.593 127.764 395.593 127.694 395.593L87.5244 384.321C87.1037 384.216 86.8584 383.796 86.9986 383.376C87.1388 382.956 87.5594 382.711 87.945 382.851L128.114 394.123C128.535 394.228 128.78 394.648 128.64 395.068C128.535 395.418 128.22 395.628 127.904 395.628V395.593Z" fill="#263238"/>
<path d="M176.801 253.052C176.381 253.052 176.065 252.737 176.03 252.317L175.049 234.29C175.049 233.974 175.189 233.694 175.469 233.554L192.364 224.698C192.75 224.488 193.206 224.628 193.416 225.013C193.626 225.398 193.486 225.853 193.101 226.063L176.661 234.675L177.608 252.212C177.608 252.632 177.292 253.017 176.872 253.017C176.872 253.017 176.872 253.017 176.836 253.017L176.801 253.052Z" fill="#263238"/>
<path d="M177.853 272.83C177.432 272.83 177.117 272.515 177.082 272.095L176.556 262.363C176.556 261.943 176.872 261.558 177.292 261.558C177.713 261.558 178.098 261.873 178.098 262.293L178.624 272.025C178.624 272.445 178.309 272.83 177.888 272.83C177.888 272.83 177.888 272.83 177.853 272.83Z" fill="#263238"/>
<path d="M210.802 216.682C210.521 216.682 210.241 216.542 210.101 216.262C209.89 215.877 210.031 215.422 210.416 215.212L228.363 205.795C228.748 205.585 229.204 205.725 229.414 206.11C229.625 206.495 229.484 206.95 229.099 207.161L211.152 216.577C211.152 216.577 210.907 216.682 210.802 216.682Z" fill="#263238"/>
<path d="M166.847 233.764C166.847 233.764 166.777 233.764 166.742 233.764L148.41 231.174C147.989 231.104 147.709 230.719 147.744 230.299C147.814 229.879 148.164 229.564 148.62 229.634L166.952 232.224C167.373 232.294 167.653 232.679 167.618 233.099C167.548 233.484 167.233 233.764 166.847 233.764Z" fill="#263238"/>
<path d="M175.82 235.06C175.82 235.06 175.75 235.06 175.715 235.06L172.841 234.675C172.42 234.605 172.14 234.219 172.175 233.799C172.21 233.379 172.631 233.099 173.051 233.134L175.925 233.519C176.346 233.589 176.626 233.974 176.591 234.394C176.521 234.78 176.206 235.06 175.82 235.06Z" fill="#263238"/>
</g>
<defs>
<clipPath id="clip0_1029_1935">
<rect width="652" height="617" fill="white"/>
</clipPath>
</defs>
</svg>
