<svg width="63" height="7" viewBox="0 0 63 7" fill="none" xmlns="http://www.w3.org/2000/svg">
<path id="Line" d="M0 5.31923C18.9641 2.98593 39.7102 -0.0196767 58.7061 9.70595e-05C59.5334 0.178061 63.9032 -0.138319 62.832 2.72887C60.2759 5.55652 56.8818 5.89267 53.9969 7C56.7758 5.53674 60.0001 4.86444 62.4502 2.07634C62.4608 2.03679 62.4714 1.99724 62.4926 1.97747C62.482 1.97747 62.4926 1.9577 62.4926 1.97747C62.4926 2.03679 62.4926 1.99724 62.4502 1.93792C59.8092 0.632857 56.9137 1.48313 54.1984 1.48313C48.1846 1.9577 42.1708 2.53114 36.1464 3.1639C24.1082 4.15258 12.0594 5.18082 0 5.31923Z" fill="#E7E61D"/>
</svg>
