<svg width="24" height="24" viewBox="0 0 24 24" fill="none" xmlns="http://www.w3.org/2000/svg">
<g id="Capa_1">
<g id="Group">
<g id="Group_2">
<path id="Vector" d="M13.5755 4.94971H2.62582C1.18162 4.94971 0 6.13133 0 7.57553V16.4245C0 17.8687 1.18162 19.0504 2.62582 19.0504H13.5755C15.0197 19.0504 16.2013 17.8687 16.2013 16.4245V7.57553C16.2013 6.10507 15.0197 4.94971 13.5755 4.94971Z" fill="#4971B8"/>
</g>
</g>
<g id="Group_3">
<g id="Group_4">
<path id="Vector_2" d="M22.057 6.39386C21.8994 6.42012 21.7419 6.49889 21.6106 6.57766L17.5143 8.9409V15.0328L21.6368 17.396C22.3983 17.8424 23.3436 17.5799 23.79 16.8184C23.9213 16.582 24.0001 16.3195 24.0001 16.0306V7.91683C24.0001 6.94528 23.081 6.15753 22.057 6.39386Z" fill="#4971B8"/>
</g>
</g>
</g>
</svg>
