<svg width="72" height="62" viewBox="0 0 72 62" fill="none" xmlns="http://www.w3.org/2000/svg">
<rect width="72" height="62" rx="5" fill="#5A88E3"/>
<path d="M54.2959 33.014C54.2434 32.8955 52.9729 30.077 50.1484 27.2525C46.3849 23.489 41.6314 21.5 36.3994 21.5C31.1674 21.5 26.4139 23.489 22.6504 27.2525C19.8259 30.077 18.5494 32.9 18.5029 33.014C18.4347 33.1675 18.3994 33.3335 18.3994 33.5015C18.3994 33.6695 18.4347 33.8355 18.5029 33.989C18.5554 34.1075 19.8259 36.9245 22.6504 39.749C26.4139 43.511 31.1674 45.5 36.3994 45.5C41.6314 45.5 46.3849 43.511 50.1484 39.749C52.9729 36.9245 54.2434 34.1075 54.2959 33.989C54.3641 33.8355 54.3994 33.6695 54.3994 33.5015C54.3994 33.3335 54.3641 33.1675 54.2959 33.014ZM36.3994 39.5C35.2127 39.5 34.0527 39.1481 33.066 38.4888C32.0793 37.8295 31.3102 36.8925 30.8561 35.7961C30.402 34.6997 30.2832 33.4933 30.5147 32.3295C30.7462 31.1656 31.3176 30.0965 32.1568 29.2574C32.9959 28.4182 34.065 27.8468 35.2289 27.6153C36.3927 27.3838 37.5991 27.5026 38.6955 27.9567C39.7919 28.4108 40.7289 29.1799 41.3882 30.1666C42.0475 31.1533 42.3994 32.3133 42.3994 33.5C42.3994 35.0913 41.7673 36.6174 40.642 37.7426C39.5168 38.8679 37.9907 39.5 36.3994 39.5Z" fill="white"/>
</svg>
