<svg width="19" height="19" viewBox="0 0 19 19" fill="none" xmlns="http://www.w3.org/2000/svg">
<g id="Bold" clip-path="url(#clip0_598_5545)">
<path id="Vector" d="M13.8597 11.3267L13.8526 11.3861C12.1117 10.5184 11.9296 10.4028 11.7048 10.7401C11.5488 10.9736 11.0944 11.5033 10.9574 11.66C10.8189 11.8144 10.6812 11.8263 10.446 11.7194C10.2085 11.6006 9.44615 11.3513 8.54365 10.5438C7.84065 9.91438 7.36882 9.1425 7.22949 8.905C6.99753 8.50442 7.48282 8.44742 7.92457 7.61142C8.00374 7.44517 7.96336 7.31455 7.90478 7.19659C7.8454 7.07784 7.37278 5.91409 7.17486 5.45017C6.98486 4.98784 6.78932 5.04642 6.64286 5.04642C6.18686 5.00684 5.85357 5.01317 5.55986 5.31875C4.28211 6.72317 4.60432 8.17192 5.69761 9.7125C7.8462 12.5245 8.99095 13.0423 11.0841 13.7611C11.6494 13.9408 12.1647 13.9155 12.5724 13.8569C13.0269 13.7848 13.9713 13.2861 14.1684 12.728C14.3703 12.1698 14.3703 11.7067 14.3109 11.5998C14.2524 11.493 14.0972 11.4336 13.8597 11.3267Z" fill="black"/>
<path id="Vector_2" d="M16.245 2.72982C10.1579 -3.15463 0.0839167 1.11324 0.0799583 9.41466C0.0799583 11.074 0.514583 12.6922 1.34267 14.1211L0 18.9994L5.01521 17.6915C11.2733 21.072 18.9968 16.5832 19 9.41941C19 6.90507 18.0183 4.53878 16.2331 2.7607L16.245 2.72982ZM17.4183 9.39328C17.4135 15.4361 10.7801 19.21 5.53375 16.1256L5.24875 15.9562L2.28 16.7281L3.07563 13.8425L2.88642 13.5456C-0.378417 8.34828 3.3725 1.55578 9.557 1.55578C11.6581 1.55578 13.6301 2.37516 15.1153 3.85953C16.5997 5.33124 17.4183 7.30328 17.4183 9.39328Z" fill="black"/>
</g>
<defs>
<clipPath id="clip0_598_5545">
<rect width="19" height="19" fill="white"/>
</clipPath>
</defs>
</svg>
