<svg width="652" height="631" viewBox="0 0 652 631" fill="none" xmlns="http://www.w3.org/2000/svg">
<g clip-path="url(#clip0_1024_1447)">
<path d="M646.151 219.978C640.471 145.818 590.567 83.3536 528.558 45.9695C468.071 9.7347 397.408 -5.74623 327.319 1.89283C231.128 12.7092 102.987 74.2949 109.647 187.765C110.864 208.283 116.646 228.8 113.637 249.148C108.193 285.823 76.5469 311.883 55.4154 342.372C32.9991 374.922 22.0107 414.03 24.2084 453.476C26.8118 497.283 49.5324 542.914 90.2739 559.274C131.015 575.634 177.234 559.375 221.222 560.998C292.528 563.634 354.029 613.018 424.287 625.288C476.761 634.177 530.621 622.009 574.169 591.419C594.218 577.222 611.935 558.733 621.199 535.917C644.528 478.591 609.5 413.354 618.697 352.174C625.053 310.092 647.605 273.35 646.59 229.78C646.489 226.502 646.354 223.257 646.117 220.012L646.151 219.978Z" fill="#F4F4F4"/>
<path d="M651.29 615.384H597.261C596.856 615.384 596.551 615.08 596.551 614.674C596.551 614.269 596.856 613.964 597.261 613.964H651.29C651.696 613.964 652 614.269 652 614.674C652 615.08 651.696 615.384 651.29 615.384Z" fill="#263238"/>
<path d="M587.321 615.384H58.4586C58.0528 615.384 57.7485 615.08 57.7485 614.674C57.7485 614.269 58.0528 613.964 58.4586 613.964H587.321C587.727 613.964 588.031 614.269 588.031 614.674C588.031 615.08 587.727 615.384 587.321 615.384Z" fill="#263238"/>
<path d="M47.0981 615.384H31.4439C31.0382 615.384 30.7339 615.08 30.7339 614.674C30.7339 614.269 31.0382 613.964 31.4439 613.964H47.0981C47.5039 613.964 47.8081 614.269 47.8081 614.674C47.8081 615.08 47.5039 615.384 47.0981 615.384Z" fill="#263238"/>
<path d="M91.7952 555.488C91.0176 555.488 90.3752 554.812 90.409 554.035C90.4428 552.48 93.9253 399.665 95.3115 376.207C95.7848 368.298 98.1854 363.092 102.513 360.726C109.039 357.143 117.288 361.605 117.626 361.808C118.303 362.18 118.573 363.058 118.167 363.734C117.795 364.41 116.916 364.681 116.24 364.275C116.173 364.241 109.005 360.354 103.866 363.194C100.484 365.053 98.5573 369.481 98.1516 376.376C96.7654 399.8 93.2829 552.581 93.2491 554.102C93.2491 554.88 92.6067 555.488 91.829 555.488H91.7952Z" fill="#263238"/>
<path d="M95.3112 553.393C95.3112 553.393 95.2774 553.393 95.2436 553.393C94.4659 553.359 93.8574 552.683 93.8912 551.906C97.4751 480.247 95.0407 437.049 92.3697 413.422C89.462 387.801 85.6752 379.013 85.6414 378.945C85.3371 378.235 85.6414 377.39 86.3514 377.052C87.0615 376.714 87.9067 377.052 88.2448 377.762C88.8872 379.182 103.662 413.76 96.7651 552.007C96.7312 552.751 96.0888 553.359 95.345 553.359L95.3112 553.393Z" fill="#263238"/>
<path d="M102.006 367.824C102.006 367.824 94.804 372.455 90.6453 367.148C86.4867 361.841 93.4854 352.208 87.3657 348.051C81.246 343.893 70.8662 350.214 70.8662 350.214C70.8662 350.214 78.9131 352.58 78.6426 356.974C78.3722 361.368 74.5178 363.025 74.0106 361.098C73.5035 359.171 69.6491 349.504 63.0899 353.526C59.2693 355.791 56.5644 359.475 55.5501 363.802C55.5501 363.802 70.7648 362.179 71.7115 367.892C72.6582 373.604 65.4566 366.912 59.2017 366.472C52.9467 366.033 47.199 367.013 47.6047 370.833C47.7399 374.179 47.5371 377.559 46.9961 380.872C50.4448 378.032 54.7725 376.545 59.2355 376.613C66.1328 377.018 65.8961 381.412 59.6074 381.041C53.3186 380.669 47.9428 386.652 47.9428 386.652C47.9428 386.652 53.6229 396.42 60.9598 401.287C68.2967 406.155 70.9001 404.397 71.7115 400.645C72.523 396.893 70.5958 387.328 74.9911 387.598C79.3865 387.868 67.7219 404.161 73.3344 405.141C78.9469 406.121 83.4437 404.465 84.9314 400.78L86.3514 397.096C86.3514 397.096 84.3904 387.53 85.2695 383.812C86.1486 380.094 87.1629 383.914 88.1096 388.375C89.0562 392.837 89.8001 403.586 91.7949 403.079C93.7897 402.572 99.8418 394.73 101.262 391.722C102.682 388.713 93.1811 379.283 93.2826 377.39C93.384 375.497 100.755 379.08 101.904 381.041C102.716 382.528 103.493 384.049 104.136 385.604C104.136 385.604 108.7 382.764 108.599 373.908C108.497 365.053 102.039 367.824 102.039 367.824H102.006Z" fill="#FDD91E"/>
<path d="M65.4907 389.22C65.4907 389.22 65.1864 389.153 65.0512 389.051C64.7469 388.815 64.7131 388.375 64.9497 388.037C69.717 382.122 76.6482 374.28 82.5312 370.461C82.8693 370.258 83.3088 370.326 83.5117 370.664C83.7145 371.002 83.6469 371.441 83.3088 371.644C77.561 375.362 70.7651 383.069 66.0655 388.916C65.9303 389.085 65.7274 389.187 65.5245 389.187L65.4907 389.22Z" fill="#263238"/>
<path d="M60.0468 396.285C60.0468 396.285 59.7764 396.251 59.6411 396.15C59.3368 395.913 59.2354 395.474 59.4721 395.169C59.4721 395.169 60.6892 393.446 62.6503 390.944C62.8869 390.64 63.3265 390.572 63.6646 390.809C63.9689 391.046 64.0365 391.485 63.7998 391.823C61.8726 394.291 60.6892 395.981 60.6554 395.981C60.5202 396.183 60.2835 396.285 60.0807 396.285H60.0468Z" fill="#263238"/>
<path d="M94.2293 393.243C93.8912 393.243 93.5869 392.972 93.5193 392.634C92.2683 382.798 85.4386 373.03 85.371 372.928C85.1343 372.624 85.2358 372.151 85.54 371.948C85.8443 371.711 86.3177 371.779 86.5206 372.117C86.8248 372.523 93.5869 382.257 94.9055 392.431C94.9393 392.837 94.6689 393.175 94.2969 393.243C94.2969 393.243 94.2293 393.243 94.1955 393.243H94.2293Z" fill="#263238"/>
<path d="M79.2853 390.471C79.2853 390.471 79.2853 390.471 79.2515 390.471C78.8458 390.471 78.5753 390.099 78.5753 389.727C79.0825 381.345 78.3386 379.486 78.0681 379.114C77.8315 379.114 77.5948 378.979 77.4596 378.776C77.2567 378.438 77.3581 377.998 77.6962 377.796C77.9329 377.66 78.3386 377.593 78.7444 377.829C79.2515 378.134 80.6039 378.979 79.9615 389.829C79.9615 390.201 79.6234 390.505 79.2515 390.505L79.2853 390.471Z" fill="#263238"/>
<path d="M83.1736 367.419C82.9707 367.419 82.7679 367.351 82.6326 367.182C82.3621 366.878 82.3959 366.439 82.7002 366.168C82.7002 366.168 86.318 362.788 84.3908 356.298C84.2893 355.926 84.4922 355.521 84.8641 355.419C85.236 355.318 85.6418 355.521 85.7432 355.893C87.9409 363.295 83.816 367.081 83.6469 367.216C83.5117 367.351 83.3426 367.385 83.1736 367.385V367.419Z" fill="#263238"/>
<path d="M77.7637 373.401C77.527 373.401 77.2565 373.266 77.1551 373.03L74.315 367.824C74.1122 367.486 74.2474 367.047 74.5855 366.844C74.9236 366.641 75.3632 366.776 75.566 367.114L78.4061 372.32C78.609 372.658 78.4737 373.097 78.1356 373.3C78.0342 373.368 77.8989 373.401 77.7975 373.401H77.7637Z" fill="#263238"/>
<path d="M71.7791 378.708C71.7791 378.708 71.4748 378.674 71.3396 378.573C71.2382 378.505 62.3798 371.847 56.9702 371.542C56.5644 371.542 56.2939 371.171 56.2939 370.799C56.2939 370.393 56.6321 370.089 57.0378 370.123C62.887 370.461 71.7791 377.153 72.151 377.458C72.4553 377.694 72.5229 378.134 72.2863 378.438C72.151 378.641 71.9482 378.708 71.7115 378.708H71.7791Z" fill="#263238"/>
<path d="M127.668 349.2C127.668 349.2 127.397 359.577 119.283 360.05C111.168 360.523 106.198 347.104 97.9485 350.315C89.6988 353.526 88.8873 368.331 88.8873 368.331C88.8873 368.331 96.7314 361.875 100.958 365.12C105.184 368.365 104.203 373.401 101.938 372.59C99.6729 371.779 87.3659 369.041 86.9263 378.269C86.5544 383.643 88.3802 388.95 92.0317 392.939C92.0317 392.939 100.789 376.613 107.145 379.587C113.501 382.562 101.904 385.164 97.2047 391.181C92.5051 397.197 89.5974 403.586 93.6546 405.749C97.1033 407.879 100.349 410.38 103.324 413.185C103.324 413.185 102.209 404.668 107.348 398.009C112.487 391.35 116.68 394.629 112.047 400.679C107.415 406.729 109.715 416.194 109.715 416.194C109.715 416.194 123.408 417.14 133.213 413.152C143.018 409.163 143.052 405.377 139.907 401.963C136.763 398.55 125.842 394.02 129.088 389.795C132.334 385.57 140.719 408.386 145.52 403.417C150.321 398.448 151.775 392.837 149.07 388.849L146.365 384.86C146.365 384.86 135.444 380.297 132.3 376.917C129.156 373.537 133.72 375.125 138.859 377.153C143.998 379.181 155.19 385.908 156.001 383.609C156.812 381.311 153.161 369.852 151.031 366.337C148.901 362.822 133.078 365.931 131.252 364.546C129.426 363.16 138.048 358.225 140.786 358.428C142.815 358.597 144.844 358.867 146.872 359.273C146.872 359.273 147.109 352.715 138.217 346.834C129.325 340.952 127.702 349.234 127.702 349.234L127.668 349.2Z" fill="#92E3A9"/>
<g opacity="0.2">
<path d="M127.668 349.2C127.668 349.2 127.397 359.577 119.283 360.05C111.168 360.523 106.198 347.104 97.9485 350.315C89.6988 353.526 88.8873 368.331 88.8873 368.331C88.8873 368.331 96.7314 361.875 100.958 365.12C105.184 368.365 104.203 373.401 101.938 372.59C99.6729 371.779 87.3659 369.041 86.9263 378.269C86.5544 383.643 88.3802 388.95 92.0317 392.939C92.0317 392.939 100.789 376.613 107.145 379.587C113.501 382.562 101.904 385.164 97.2047 391.181C92.5051 397.197 89.5974 403.586 93.6546 405.749C97.1033 407.879 100.349 410.38 103.324 413.185C103.324 413.185 102.209 404.668 107.348 398.009C112.487 391.35 116.68 394.629 112.047 400.679C107.415 406.729 109.715 416.194 109.715 416.194C109.715 416.194 123.408 417.14 133.213 413.152C143.018 409.163 143.052 405.377 139.907 401.963C136.763 398.55 125.842 394.02 129.088 389.795C132.334 385.57 140.719 408.386 145.52 403.417C150.321 398.448 151.775 392.837 149.07 388.849L146.365 384.86C146.365 384.86 135.444 380.297 132.3 376.917C129.156 373.537 133.72 375.125 138.859 377.153C143.998 379.181 155.19 385.908 156.001 383.609C156.812 381.311 153.161 369.852 151.031 366.337C148.901 362.822 133.078 365.931 131.252 364.546C129.426 363.16 138.048 358.225 140.786 358.428C142.815 358.597 144.844 358.867 146.872 359.273C146.872 359.273 147.109 352.715 138.217 346.834C129.325 340.952 127.702 349.234 127.702 349.234L127.668 349.2Z" fill="#263238"/>
</g>
<path d="M123.509 400.578C123.205 400.578 122.934 400.375 122.833 400.071C120.669 392.972 117.119 379.688 117.254 370.562C117.254 370.157 117.626 369.886 117.964 369.852C118.37 369.852 118.674 370.19 118.674 370.562C118.539 379.519 122.089 392.634 124.219 399.665C124.321 400.037 124.118 400.442 123.746 400.544C123.678 400.544 123.611 400.544 123.543 400.544L123.509 400.578Z" fill="#263238"/>
<path d="M126.89 410.853C126.586 410.853 126.316 410.684 126.214 410.38C126.214 410.38 125.335 407.98 124.152 404.33C124.016 403.958 124.253 403.552 124.625 403.451C124.997 403.316 125.403 403.552 125.504 403.924C126.654 407.541 127.533 409.873 127.533 409.907C127.668 410.279 127.465 410.684 127.127 410.819C127.059 410.819 126.958 410.853 126.89 410.853Z" fill="#263238"/>
<path d="M147.143 374.551C147.143 374.551 146.94 374.551 146.805 374.483C136.053 369.007 121.616 369.176 121.481 369.176C121.109 369.176 120.771 368.872 120.771 368.467C120.771 368.061 121.075 367.757 121.481 367.757C122.089 367.757 136.425 367.554 147.481 373.199C147.819 373.368 147.954 373.807 147.785 374.145C147.65 374.382 147.413 374.517 147.143 374.517V374.551Z" fill="#263238"/>
<path d="M134.194 387.632C134.194 387.632 133.889 387.598 133.754 387.497C125.268 380.939 123.002 380.703 122.563 380.703C122.428 380.939 122.157 381.108 121.887 381.074C121.481 381.074 121.21 380.703 121.21 380.331C121.21 380.06 121.413 379.655 121.887 379.418C122.461 379.148 124.22 378.37 134.599 386.347C134.904 386.584 134.971 387.023 134.735 387.328C134.599 387.497 134.397 387.598 134.16 387.598L134.194 387.632Z" fill="#263238"/>
<path d="M113.738 368.027C113.4 368.027 113.096 367.757 113.028 367.419C112.994 367.182 112.115 361.402 104.203 358.901C103.832 358.766 103.629 358.394 103.73 358.022C103.832 357.65 104.237 357.447 104.609 357.549C113.434 360.354 114.38 366.979 114.414 367.25C114.448 367.621 114.178 367.993 113.806 368.027C113.806 368.027 113.738 368.027 113.704 368.027H113.738Z" fill="#263238"/>
<path d="M116.037 377.491C116.037 377.491 116.003 377.491 115.969 377.491L108.801 376.782C108.396 376.748 108.125 376.41 108.159 376.004C108.193 375.599 108.531 375.328 108.937 375.362L116.105 376.072C116.51 376.106 116.781 376.444 116.747 376.849C116.713 377.221 116.409 377.491 116.037 377.491Z" fill="#263238"/>
<path d="M100.078 396.927C100.078 396.927 99.7741 396.893 99.6389 396.792C99.3346 396.555 99.267 396.116 99.5036 395.812C103.764 390.268 116.51 385.908 117.051 385.739C117.423 385.604 117.829 385.806 117.964 386.178C118.099 386.55 117.897 386.956 117.525 387.091C117.389 387.125 104.677 391.485 100.653 396.69C100.518 396.859 100.315 396.961 100.078 396.961V396.927Z" fill="#263238"/>
<path d="M81.3477 552.007C80.5701 552.007 79.9277 551.365 79.9277 550.587C80.1643 520.842 76.9185 478.489 60.2838 445.804C50.3436 426.3 40.2342 419.405 40.1328 419.337C39.4904 418.898 39.2876 418.019 39.7271 417.377C40.1666 416.735 41.0457 416.532 41.6881 416.971C43.4124 418.087 83.5454 445.804 82.7677 550.621C82.7677 551.398 82.1253 552.041 81.3477 552.041V552.007Z" fill="#263238"/>
<path d="M91.6261 410.921C91.6261 410.921 90.3075 422.852 80.942 422.65C71.5765 422.447 67.0797 406.459 57.2071 409.433C47.3344 412.408 45.0353 429.342 45.0353 429.342C45.0353 429.342 54.7051 422.65 59.2357 426.807C63.7663 430.965 62.1772 436.643 59.6414 435.528C57.1056 434.412 43.1419 430.086 41.7895 440.733C40.8766 446.851 42.5333 453.105 46.3539 457.972C46.3539 457.972 57.9847 439.956 65.0511 443.978C72.1174 448.001 58.458 449.893 52.5412 456.417C46.6244 462.941 42.601 470.005 47.0977 472.912C51.5945 475.819 57.5452 482.478 57.5452 482.478C57.5452 482.478 57.0718 472.54 63.5972 465.341C70.1226 458.141 74.687 462.332 68.7702 468.822C62.8534 475.312 64.6115 486.5 64.6115 486.5C64.6115 486.5 80.3334 488.866 92.0318 485.216C103.73 481.565 104.136 477.171 100.822 472.946C97.5091 468.721 85.3373 462.434 89.4622 457.871C93.5871 453.307 101.161 480.348 107.179 475.075C113.197 469.802 115.361 463.448 112.656 458.58L109.917 453.713C109.917 453.713 97.7457 447.426 94.4323 443.201C91.1189 438.976 96.2243 441.24 101.972 444.08C107.72 446.919 119.993 455.707 121.109 453.172C122.224 450.637 119.114 437.015 117.018 432.756C114.921 428.497 96.3257 430.627 94.3647 428.835C92.4037 427.044 102.783 422.21 105.928 422.683C108.261 423.055 110.594 423.562 112.859 424.171C112.859 424.171 113.738 416.633 104.034 408.994C94.3309 401.355 91.6261 410.887 91.6261 410.887V410.921Z" fill="#92E3A9"/>
<path d="M91.6261 410.921C91.6261 410.921 90.3075 422.852 80.942 422.65C71.5765 422.447 67.0797 406.459 57.2071 409.433C47.3344 412.408 45.0353 429.342 45.0353 429.342C45.0353 429.342 54.7051 422.65 59.2357 426.807C63.7663 430.965 62.1772 436.643 59.6414 435.528C57.1056 434.412 43.1419 430.086 41.7895 440.733C40.8766 446.851 42.5333 453.105 46.3539 457.972C46.3539 457.972 57.9847 439.956 65.0511 443.978C72.1174 448.001 58.458 449.893 52.5412 456.417C46.6244 462.941 42.601 470.005 47.0977 472.912C51.5945 475.819 57.5452 482.478 57.5452 482.478C57.5452 482.478 57.0718 472.54 63.5972 465.341C70.1226 458.141 74.687 462.332 68.7702 468.822C62.8534 475.312 64.6115 486.5 64.6115 486.5C64.6115 486.5 80.3334 488.866 92.0318 485.216C103.73 481.565 104.136 477.171 100.822 472.946C97.5091 468.721 85.3373 462.434 89.4622 457.871C93.5871 453.307 101.161 480.348 107.179 475.075C113.197 469.802 115.361 463.448 112.656 458.58L109.917 453.713C109.917 453.713 97.7457 447.426 94.4323 443.201C91.1189 438.976 96.2243 441.24 101.972 444.08C107.72 446.919 119.993 455.707 121.109 453.172C122.224 450.637 119.114 437.015 117.018 432.756C114.921 428.497 96.3257 430.627 94.3647 428.835C92.4037 427.044 102.783 422.21 105.928 422.683C108.261 423.055 110.594 423.562 112.859 424.171C112.859 424.171 113.738 416.633 104.034 408.994C94.3309 401.355 91.6261 410.887 91.6261 410.887V410.921Z" fill="#FDD91E"/>
<path d="M82.0577 469.701C81.7196 469.701 81.4491 469.464 81.3477 469.126C79.5219 460.744 76.5804 445.094 77.6623 434.548C77.6962 434.142 78.0681 433.872 78.44 433.906C78.8457 433.939 79.1162 434.278 79.0824 434.683C78.0004 445.026 80.9081 460.473 82.7339 468.789C82.8353 469.16 82.5649 469.566 82.1929 469.634C82.1253 469.634 82.0915 469.634 82.0239 469.634L82.0577 469.701Z" fill="#263238"/>
<path d="M84.9652 481.869C84.6609 481.869 84.3566 481.667 84.289 481.329C84.289 481.329 83.5114 478.422 82.4971 474.197C82.3956 473.825 82.6323 473.419 83.038 473.352C83.4099 473.25 83.8157 473.487 83.8833 473.892C84.8638 478.084 85.6414 480.957 85.6414 480.991C85.7429 481.362 85.5062 481.768 85.1343 481.869C85.0667 481.869 84.999 481.869 84.9652 481.869Z" fill="#263238"/>
<path d="M111.777 441.917C111.777 441.917 111.506 441.883 111.405 441.815C99.47 434.48 82.7676 433.331 82.5986 433.297C82.1928 433.297 81.9224 432.925 81.9224 432.554C81.9224 432.148 82.2605 431.844 82.6662 431.878C82.8352 431.878 99.8757 433.061 112.115 440.598C112.453 440.801 112.555 441.24 112.352 441.579C112.216 441.781 111.98 441.917 111.743 441.917H111.777Z" fill="#263238"/>
<path d="M95.5818 455.775C95.4127 455.775 95.2437 455.707 95.1084 455.606C85.5401 446.919 83.1057 446.649 82.7 446.682C82.5648 446.953 82.2605 447.088 81.9562 447.054C81.5843 446.987 81.3138 446.649 81.3476 446.243C81.3814 445.939 81.6181 445.533 82.1252 445.364C82.8014 445.128 84.8639 444.384 96.0213 454.558C96.3256 454.829 96.3256 455.268 96.0551 455.572C95.9199 455.741 95.717 455.809 95.5141 455.809L95.5818 455.775Z" fill="#263238"/>
<path d="M73.8419 431.201C73.47 431.201 73.1657 430.897 73.1319 430.525C73.1319 430.255 72.6586 423.427 63.6312 419.777C63.2593 419.641 63.0902 419.202 63.2255 418.864C63.3607 418.492 63.7664 418.323 64.1383 418.458C74.0448 422.481 74.5181 430.12 74.5181 430.458C74.5181 430.863 74.2477 431.168 73.8419 431.201Z" fill="#263238"/>
<path d="M75.5998 442.356C75.5998 442.356 75.4984 442.356 75.4646 442.356L67.2824 440.869C66.9105 440.801 66.64 440.429 66.7077 440.057C66.7753 439.686 67.1472 439.415 67.5191 439.483L75.7012 440.97C76.0731 441.038 76.3436 441.409 76.276 441.781C76.2084 442.119 75.9041 442.356 75.566 442.356H75.5998Z" fill="#263238"/>
<path d="M55.3476 463.312C55.1785 463.312 55.0095 463.245 54.8742 463.143C54.5699 462.873 54.5699 462.434 54.8404 462.129C60.2839 456.147 75.3295 452.327 75.9719 452.158C76.3438 452.057 76.7496 452.293 76.8172 452.665C76.9186 453.037 76.682 453.442 76.31 453.51C76.1748 453.544 61.0277 457.363 55.8886 463.042C55.7533 463.211 55.5504 463.279 55.3476 463.279V463.312Z" fill="#263238"/>
<path d="M84.8301 551.432C82.1253 522.397 56.3617 502.421 56.0913 502.218C55.4827 501.745 55.3474 500.866 55.8208 500.224C56.2941 499.581 57.1732 499.48 57.8156 499.953C58.6947 500.629 75.938 514.014 83.9172 535.174L79.2176 450.975C79.1838 450.198 79.7585 449.522 80.57 449.488C81.3476 449.454 82.0238 450.029 82.0576 450.84L87.6364 551.229L84.7963 551.432H84.8301Z" fill="#263238"/>
<path d="M86.2501 552.717C85.4725 552.717 84.8301 552.075 84.8301 551.297C84.8301 551.196 84.8301 539.636 87.0954 526.386C90.1383 508.437 95.548 496.066 103.257 489.644C108.396 485.351 114.516 483.796 121.413 485.047C122.191 485.182 122.698 485.926 122.562 486.703C122.427 487.481 121.683 487.988 120.906 487.852C114.888 486.771 109.545 488.123 105.083 491.841C87.9068 506.206 87.704 550.858 87.704 551.297C87.704 552.075 87.0616 552.717 86.2839 552.717H86.2501Z" fill="#263238"/>
<path d="M90.409 552.007C89.699 552.007 89.0904 551.5 88.989 550.79C88.9552 550.52 85.4389 524.696 85.608 495.052C85.8108 455.031 92.2686 427.517 104.711 413.219C111.169 405.817 119.249 402.065 128.784 402.065C129.562 402.065 130.204 402.707 130.204 403.485C130.204 404.262 129.562 404.904 128.784 404.904C120.128 404.904 112.758 408.318 106.875 415.078C78.1359 448.035 91.66 549.37 91.8291 550.384C91.9305 551.162 91.3895 551.872 90.6119 551.973C90.5443 551.973 90.4767 551.973 90.409 551.973V552.007Z" fill="#263238"/>
<path d="M107.821 482.207C103.054 476.833 92.9446 476.833 86.9939 490.556C81.0433 504.28 86.3853 501.846 86.3853 501.846C86.3853 501.846 97.7456 498.263 104.88 495.897C112.014 493.531 121.548 487.548 122.123 491.131C122.698 494.714 117.356 498.229 110.763 499.446C104.17 500.663 86.9601 505.395 88.7521 508.978C90.544 512.561 94.7027 523.276 94.7027 523.276C99.7743 518.949 105.15 514.994 110.763 511.378C118.505 506.612 123.272 508.403 119.114 513.744C114.955 519.084 103.088 525.135 105.421 532.233C107.754 539.331 122.089 548.322 122.089 548.322C122.089 548.322 123.881 533.416 128.175 528.65C132.469 523.884 132.334 529.259 131.15 537.574C130.576 541.123 130.17 544.706 129.967 548.289L146.635 554.238C146.635 554.238 152.586 545.314 155.561 542.34L158.537 539.365C158.537 539.365 145.418 528.008 144.844 520.876C144.269 513.744 153.769 520.876 156.745 522.059C159.72 523.242 164.487 531.591 164.487 531.591C164.487 531.591 167.463 517.901 168.071 513.102L168.68 508.336C168.68 508.336 156.17 503.57 151.403 503.57C146.635 503.57 144.303 507.153 144.303 502.387C144.303 497.621 149.07 494.646 154.412 495.288C159.247 496.1 164.048 497.283 168.714 498.871C168.714 498.871 172.298 495.897 171.08 486.973C169.863 478.05 166.922 478.05 159.788 480.45C152.654 482.85 147.785 488.224 142.409 488.224C137.033 488.224 140.009 481.7 143.593 479.909C147.176 478.117 156.102 474.534 157.793 473.96C159.483 473.385 148.258 465.036 142.308 463.853C136.357 462.67 128.648 466.862 129.223 472.777C130.474 485.249 112.622 487.616 107.855 482.275L107.821 482.207Z" fill="#E6E51D"/>
<path d="M146.5 549.607C146.128 549.607 145.79 549.303 145.79 548.931C145.723 547.207 145.587 545.483 145.418 543.59C145.385 543.185 145.655 542.847 146.061 542.813C146.467 542.813 146.805 543.05 146.838 543.455C147.007 545.348 147.143 547.14 147.21 548.863C147.21 549.269 146.906 549.573 146.534 549.607H146.5Z" fill="#263238"/>
<path d="M145.384 538.351C145.046 538.351 144.742 538.115 144.674 537.777C142.477 525.135 138.724 512.797 133.517 501.068C133.348 500.697 133.517 500.291 133.889 500.122C134.227 499.953 134.666 500.122 134.835 500.494C140.076 512.324 143.863 524.797 146.094 537.54C146.162 537.912 145.891 538.284 145.52 538.351C145.486 538.351 145.452 538.351 145.384 538.351Z" fill="#263238"/>
<path d="M132.029 496.708C131.759 496.708 131.522 496.573 131.387 496.303C128.479 490.083 126.248 486.196 126.248 486.162L125.876 485.486L126.586 485.148C129.697 483.661 132.266 481.329 134.024 478.32C135.444 475.481 137.574 472.912 140.144 470.986C140.448 470.749 140.922 470.817 141.124 471.121C141.361 471.425 141.294 471.898 140.989 472.101C138.589 473.892 136.594 476.259 135.275 478.963C133.483 482.005 130.948 484.438 127.871 486.061C128.615 487.413 130.474 490.861 132.706 495.66C132.875 496.032 132.706 496.438 132.368 496.607C132.266 496.641 132.165 496.674 132.063 496.674L132.029 496.708Z" fill="#263238"/>
<path d="M106.029 506.747C105.759 506.747 105.488 506.578 105.387 506.308C105.251 505.936 105.387 505.53 105.759 505.361C114.955 501.508 126.248 497.148 127.769 498.162C128.04 498.331 128.175 498.601 128.175 498.905C128.175 499.311 127.871 499.615 127.465 499.615C127.262 499.615 127.059 499.514 126.924 499.345H126.89C124.963 499.345 115.124 502.961 106.3 506.646C106.198 506.679 106.131 506.713 106.029 506.713V506.747Z" fill="#263238"/>
<path d="M139.366 495.424C139.096 495.424 138.859 495.288 138.724 495.018C138.555 494.68 138.724 494.241 139.028 494.072C139.434 493.869 148.799 489.238 157.184 489.238C157.59 489.238 157.894 489.542 157.894 489.948C157.894 490.353 157.59 490.658 157.184 490.658C149.137 490.658 139.738 495.288 139.637 495.356C139.535 495.424 139.434 495.424 139.332 495.424H139.366Z" fill="#263238"/>
<path d="M116.071 534.768C116.071 534.768 115.902 534.768 115.8 534.701C115.428 534.565 115.259 534.126 115.428 533.788C117.491 528.752 120.365 524.087 123.881 519.896C127.296 515.738 131.15 511.851 135.343 508.437C135.647 508.2 136.087 508.234 136.357 508.538C136.594 508.843 136.56 509.282 136.256 509.552C132.131 512.933 128.344 516.718 124.997 520.808C121.548 524.864 118.776 529.394 116.747 534.329C116.646 534.599 116.375 534.768 116.105 534.768H116.071Z" fill="#263238"/>
<path d="M161.411 514.488C161.242 514.488 161.073 514.42 160.938 514.319C154.75 508.708 142.68 512.054 142.545 512.088C142.173 512.189 141.767 511.986 141.666 511.614C141.564 511.243 141.767 510.837 142.139 510.736C142.646 510.567 155.088 507.119 161.85 513.271C162.155 513.541 162.155 513.981 161.884 514.285C161.749 514.454 161.546 514.521 161.343 514.521L161.411 514.488Z" fill="#263238"/>
<path d="M164.994 430.965C158.503 427.112 151.335 427.044 147.819 423.022C144.303 418.999 151.2 416.937 154.919 418.459C158.638 419.98 167.158 424.374 168.781 425.354C170.404 426.334 169.288 412.307 166.279 407.034C163.27 401.761 155.02 398.685 150.862 402.944C142.206 412.036 128.682 400.104 129.629 393.006C130.575 385.908 123.949 378.269 109.714 382.731C95.4803 387.192 100.788 389.694 100.788 389.694C100.788 389.694 110.898 395.879 117.389 399.733C123.881 403.586 134.599 406.831 132.3 409.67C130.001 412.509 123.78 410.752 118.607 406.594C113.434 402.437 98.4894 392.533 96.9679 396.217C95.4465 399.902 90.0706 410.076 90.0706 410.076C96.6974 411.09 103.223 412.543 109.647 414.436C118.302 417.174 120.094 421.94 113.298 422.312C106.502 422.684 94.2293 417.58 90.3749 424.069C86.5205 430.559 89.1577 447.189 89.1577 447.189C89.1577 447.189 101.566 438.807 107.889 438.807C114.211 438.807 110.188 442.356 103.088 446.919C100.011 448.812 97.0694 450.84 94.2293 453.037L100.653 469.532C100.653 469.532 111.304 468.18 115.496 468.484L119.689 468.788C119.689 468.788 119.689 451.482 124.659 446.344C129.629 441.207 130.508 453.071 131.556 456.113C132.604 459.155 129.426 468.214 129.426 468.214C129.426 468.214 141.733 461.487 145.689 458.817L149.678 456.147C149.678 456.147 145.114 443.573 141.902 439.99C138.69 436.407 134.531 436.948 138.115 433.804C141.699 430.661 147.075 432.385 150.152 436.745C152.721 440.936 154.953 445.33 156.846 449.894C156.846 449.894 161.411 450.637 167.395 443.911C173.379 437.151 171.418 434.92 164.927 431.1L164.994 430.965ZM108.666 449.995C103.899 447.629 115.192 442.897 115.192 442.897C119.384 442.255 113.4 452.395 108.666 449.995ZM116.679 427.788C114.651 426.774 120.737 424.746 120.737 424.746C129.561 426.436 118.708 428.802 116.679 427.788Z" fill="#E6E51D"/>
<path d="M104.711 466.659C104.508 466.659 104.339 466.591 104.204 466.422C103.933 466.152 103.967 465.679 104.204 465.408C105.59 464.124 106.841 462.873 107.99 461.622C108.261 461.352 108.7 461.318 109.005 461.622C109.275 461.893 109.309 462.332 109.005 462.636C107.821 463.921 106.536 465.171 105.15 466.49C105.015 466.625 104.846 466.693 104.677 466.693L104.711 466.659Z" fill="#263238"/>
<path d="M112.453 458.479C112.453 458.479 112.149 458.411 112.014 458.31C111.709 458.073 111.675 457.6 111.912 457.296C120.027 447.325 126.89 436.373 132.334 424.745C132.503 424.374 132.942 424.238 133.28 424.407C133.652 424.576 133.787 424.982 133.618 425.354C128.107 437.083 121.176 448.136 112.994 458.175C112.859 458.344 112.656 458.445 112.453 458.445V458.479Z" fill="#263238"/>
<path d="M135.242 421.061C135.242 421.061 135.039 421.061 134.937 420.994C134.565 420.825 134.43 420.419 134.565 420.047C137.372 413.76 138.792 409.535 138.792 409.501L139.028 408.758L139.738 409.062C142.917 410.448 146.399 410.853 149.78 410.177C152.857 409.366 156.204 409.298 159.382 410.008C159.754 410.11 160.025 410.481 159.923 410.853C159.856 411.225 159.45 411.495 159.078 411.394C156.136 410.752 153.026 410.819 150.118 411.563C146.636 412.239 143.119 411.935 139.874 410.65C139.333 412.138 137.98 415.754 135.85 420.588C135.749 420.858 135.478 420.994 135.208 420.994L135.242 421.061Z" fill="#263238"/>
<path d="M129.967 419.506C129.764 419.506 129.561 419.439 129.426 419.27C129.291 419.101 129.223 418.898 129.257 418.695C128.107 417.309 118.809 412.205 110.188 407.946C109.85 407.777 109.681 407.338 109.884 407C110.053 406.662 110.492 406.493 110.83 406.696C119.79 411.157 130.508 416.802 130.711 418.56C130.745 418.864 130.643 419.168 130.406 419.337C130.271 419.439 130.102 419.506 129.933 419.506H129.967Z" fill="#263238"/>
<path d="M156.238 436.136C156.035 436.136 155.832 436.069 155.697 435.9C150.422 429.816 140.752 425.759 140.651 425.726C140.279 425.59 140.11 425.151 140.279 424.813C140.414 424.441 140.854 424.272 141.192 424.441C141.598 424.61 151.234 428.666 156.745 435.021C157.015 435.325 156.981 435.765 156.677 436.035C156.542 436.136 156.373 436.204 156.204 436.204L156.238 436.136Z" fill="#263238"/>
<path d="M96.0552 433.973C95.7509 433.973 95.4804 433.77 95.379 433.5C95.2437 433.128 95.4466 432.723 95.8185 432.587C100.991 430.864 106.367 429.917 111.845 429.849C117.187 429.714 122.63 430.086 127.938 430.999C128.31 431.066 128.581 431.438 128.513 431.81C128.446 432.182 128.074 432.452 127.702 432.385C122.495 431.506 117.153 431.1 111.878 431.269C106.57 431.337 101.33 432.216 96.2918 433.906C96.2242 433.906 96.1566 433.939 96.0552 433.939V433.973Z" fill="#263238"/>
<path d="M140.989 454.862C140.584 454.862 140.279 454.524 140.279 454.119C140.482 445.77 130.001 438.841 129.899 438.773C129.561 438.57 129.494 438.131 129.697 437.793C129.899 437.455 130.339 437.387 130.677 437.59C131.15 437.894 141.902 445.026 141.699 454.152C141.699 454.524 141.361 454.862 140.989 454.862Z" fill="#263238"/>
<path d="M72.4892 513.44C67.2823 510.364 61.5008 510.296 58.6945 507.017C55.8882 503.739 61.3993 502.116 64.3747 503.367C67.35 504.618 74.2135 508.099 75.5321 508.91C76.8507 509.722 75.9378 498.432 73.5035 494.173C71.0691 489.914 64.4761 487.447 61.1627 490.928C54.1977 498.229 43.3446 488.63 44.0884 482.917C44.8322 477.205 39.4902 471.053 28.0285 474.636C16.5667 478.219 20.8606 480.315 20.8606 480.315C20.8606 480.315 29.009 485.317 34.2158 488.393C39.4226 491.469 48.078 494.072 46.2185 496.37C44.3589 498.669 39.3549 497.249 35.1963 493.903C31.0376 490.556 19.0349 482.545 17.7839 485.554C16.5329 488.562 12.239 496.708 12.239 496.708C17.5472 497.519 22.7878 498.702 27.9608 500.19C34.9258 502.387 36.3458 506.206 30.9023 506.51C25.4589 506.815 15.5524 502.725 12.408 507.93C9.26368 513.135 11.4275 526.521 11.4275 526.521C11.4275 526.521 21.3678 519.76 26.507 519.794C31.6462 519.794 28.3327 522.634 22.6526 526.318C20.1844 527.839 17.8177 529.495 15.5524 531.253L20.7254 544.537C24.6812 543.996 28.6709 543.725 32.6605 543.658L36.0415 543.895C36.0415 543.895 36.0415 529.968 40.0312 525.845C44.0208 521.721 44.7646 531.287 45.5761 533.72C46.3875 536.154 43.8855 543.455 43.8855 543.455C43.8855 543.455 53.8258 538.047 57.004 535.884L60.1822 533.72C60.1822 533.72 56.463 523.614 53.961 520.707C51.4591 517.8 48.0104 518.239 50.9181 515.738C53.8258 513.237 58.1535 514.555 60.5879 518.104C62.6503 521.484 64.4423 525 65.9637 528.65C65.9637 528.65 69.6491 529.259 74.484 523.817C79.3189 518.375 77.6621 516.516 72.4553 513.44H72.4892ZM27.1832 528.785C23.3288 526.859 32.4576 523.039 32.4576 523.039C35.7034 522.566 30.9361 530.712 27.1832 528.785ZM33.6072 510.938C31.9843 510.127 36.8868 508.505 36.8868 508.505C43.9532 509.823 35.2639 511.716 33.6072 510.938Z" fill="#E6E51D"/>
<path d="M23.9714 542.306C23.7686 542.306 23.5995 542.238 23.4305 542.069C23.16 541.765 23.1938 541.326 23.4981 541.055C24.58 540.075 25.5943 539.061 26.5072 538.047C26.7777 537.743 27.2172 537.743 27.5215 537.979C27.8258 538.25 27.8258 538.689 27.5892 538.993C26.6087 540.075 25.5605 541.123 24.4786 542.103C24.3434 542.238 24.1743 542.272 24.0053 542.272L23.9714 542.306Z" fill="#263238"/>
<path d="M30.1924 535.681C30.1924 535.681 29.8881 535.613 29.7528 535.512C29.4485 535.275 29.4147 534.802 29.6514 534.498C36.1768 526.487 41.6879 517.699 46.0495 508.369C46.2185 507.998 46.6242 507.862 46.9961 508.031C47.3681 508.2 47.5033 508.606 47.3343 508.978C42.9051 518.408 37.3264 527.298 30.7333 535.377C30.5981 535.546 30.3952 535.647 30.1924 535.647V535.681Z" fill="#263238"/>
<path d="M48.5175 505.598C48.5175 505.598 48.3146 505.598 48.2132 505.53C47.8413 505.361 47.7061 504.956 47.8413 504.584C50.1066 499.514 51.29 496.134 51.29 496.1L51.5266 495.39L52.2366 495.694C54.7724 496.81 57.5449 497.114 60.2497 496.573C62.7517 495.931 65.4565 495.863 68.0261 496.404C68.398 496.472 68.6685 496.877 68.5671 497.249C68.4995 497.621 68.1275 497.891 67.7218 497.79C65.3551 497.283 62.8869 497.317 60.5878 497.925C57.7816 498.466 54.9753 498.229 52.4057 497.249C51.9324 498.5 50.8504 501.373 49.1599 505.125C49.0585 505.395 48.788 505.53 48.5175 505.53V505.598Z" fill="#263238"/>
<path d="M44.2577 504.347C44.0548 504.347 43.852 504.246 43.7167 504.11C43.5815 503.975 43.5477 503.806 43.5477 503.603C42.4657 502.454 35.1289 498.398 28.2992 495.018C27.9611 494.849 27.792 494.41 27.9949 494.072C28.1639 493.733 28.6035 493.565 28.9416 493.767C39.4566 499.006 44.8663 502.251 45.0015 503.434C45.0353 503.739 44.9339 504.009 44.6972 504.212C44.562 504.313 44.3929 504.381 44.2239 504.381L44.2577 504.347Z" fill="#263238"/>
<path d="M65.4566 517.699C65.2537 517.699 65.0509 517.631 64.9156 517.462C60.6893 512.595 52.9467 509.35 52.8453 509.316C52.4734 509.181 52.3043 508.741 52.4734 508.403C52.6086 508.031 53.0482 507.862 53.3863 508.031C53.7244 508.167 61.5346 511.412 65.9638 516.549C66.2342 516.854 66.2004 517.293 65.8961 517.563C65.7609 517.665 65.5918 517.732 65.4228 517.732L65.4566 517.699Z" fill="#263238"/>
<path d="M16.9726 516.009C16.6683 516.009 16.3979 515.806 16.2964 515.535C16.1612 515.164 16.3641 514.758 16.736 514.623C20.9285 513.203 25.3238 512.493 29.753 512.426C34.0469 512.291 38.4084 512.629 42.6686 513.338C43.0405 513.406 43.311 513.778 43.2433 514.15C43.1757 514.521 42.8038 514.792 42.4319 514.724C38.2732 514.014 34.0131 513.71 29.7868 513.845C25.4929 513.879 21.2666 514.589 17.2093 515.941C17.1417 515.941 17.0741 515.975 16.9726 515.975V516.009Z" fill="#263238"/>
<path d="M53.0822 532.774C52.6764 532.774 52.3721 532.436 52.4059 532.03C52.6426 525.405 44.2914 519.929 44.19 519.862C43.8519 519.659 43.7843 519.22 43.9872 518.882C44.19 518.544 44.6296 518.476 44.9677 518.679C45.3396 518.915 54.0627 524.662 53.826 532.098C53.826 532.47 53.4879 532.774 53.116 532.774H53.0822Z" fill="#263238"/>
<path d="M51.2226 415.146C51.2226 415.146 44.6971 419.912 40.5047 415.146C36.3122 410.38 42.2966 400.848 36.346 397.299C30.3953 393.75 20.8608 400.274 20.8608 400.274C20.8608 400.274 28.6372 402.065 28.6372 406.223C28.6372 410.38 25.0533 412.172 24.4785 410.38C23.9037 408.589 19.7113 399.665 13.7606 403.823C10.2782 406.155 7.91142 409.805 7.20141 413.929C7.20141 413.929 21.5032 411.563 22.6866 416.904C23.8699 422.244 16.7359 416.295 10.7853 416.295C4.83468 416.295 -0.507369 417.478 0.067408 421.061C0.371702 424.239 0.371702 427.416 0.067408 430.593C3.14416 427.72 7.16759 426.03 11.3601 425.827C17.9193 425.827 17.9193 429.985 11.9687 429.985C6.01804 429.985 1.25077 435.934 1.25077 435.934C1.25077 435.934 7.20141 444.857 14.3692 449.015C21.537 453.172 23.9037 451.415 24.4785 447.832C25.0533 444.249 22.6866 435.325 26.8453 435.325C31.0039 435.325 20.8946 451.415 26.2367 451.989C31.5787 452.564 35.7712 450.806 36.9546 447.223L38.1379 443.64C38.1379 443.64 35.7374 434.717 36.346 431.134C36.9546 427.551 38.1379 431.134 39.3213 435.292C40.5047 439.449 41.688 449.589 43.48 448.981C45.2719 448.373 50.5802 440.666 51.7973 437.624C53.0145 434.582 43.48 426.267 43.48 424.509C43.48 422.751 50.5802 425.692 51.7973 427.483C52.6764 428.835 53.454 430.255 54.1641 431.709C54.1641 431.709 58.3227 428.734 57.748 420.351C57.1732 411.969 51.1888 415.045 51.1888 415.045L51.2226 415.146Z" fill="#E6E51D"/>
<path d="M17.8519 437.455C17.8519 437.455 17.5476 437.421 17.4461 437.319C17.1418 437.083 17.0742 436.643 17.2771 436.339C23.6334 427.551 28.7726 421.805 32.9313 418.763C33.2356 418.526 33.709 418.594 33.9118 418.932C34.1485 419.236 34.0809 419.709 33.7428 419.912C29.7531 422.853 24.5801 428.633 18.3928 437.184C18.2576 437.387 18.0209 437.488 17.8181 437.488L17.8519 437.455Z" fill="#263238"/>
<path d="M13.1184 444.418C13.1184 444.418 12.848 444.384 12.7465 444.316C12.4084 444.113 12.307 443.674 12.5098 443.336C12.5098 443.336 13.5918 441.646 15.2823 439.178C15.519 438.84 15.9585 438.773 16.2628 439.009C16.6009 439.246 16.6685 439.685 16.4319 439.99C14.7413 442.423 13.6932 444.08 13.6932 444.113C13.558 444.316 13.3213 444.451 13.0846 444.451L13.1184 444.418Z" fill="#263238"/>
<path d="M45.2381 439.686C44.9 439.686 44.5957 439.449 44.5281 439.111C42.7699 429.85 35.805 421.027 35.7373 420.96C35.5007 420.656 35.5345 420.216 35.8388 419.946C36.1431 419.709 36.5826 419.743 36.8531 420.047C37.1574 420.419 44.0885 429.207 45.9143 438.841C45.9819 439.212 45.7452 439.584 45.3395 439.686C45.3057 439.686 45.2381 439.686 45.2043 439.686H45.2381Z" fill="#263238"/>
<path d="M30.9701 437.894C30.5644 437.894 30.2601 437.59 30.2601 437.184C30.2601 429.309 29.4824 427.551 29.212 427.179C28.9753 427.179 28.7386 427.078 28.6034 426.875C28.4005 426.537 28.4681 426.097 28.8062 425.895C29.0429 425.759 29.4148 425.658 29.8544 425.895C30.3615 426.165 31.7139 426.875 31.7139 437.218C31.7139 437.624 31.4096 437.928 31.0039 437.928L30.9701 437.894Z" fill="#263238"/>
<path d="M33.3707 415.856C33.2016 415.856 32.9987 415.788 32.8635 415.653C32.593 415.383 32.593 414.943 32.8635 414.639C32.9987 414.504 36.0755 411.259 33.9116 405.276C33.7764 404.904 33.9792 404.499 34.3512 404.363C34.7231 404.228 35.1288 404.431 35.264 404.803C37.766 411.698 34.0469 415.518 33.9116 415.653C33.7764 415.788 33.6073 415.856 33.4045 415.856H33.3707Z" fill="#263238"/>
<path d="M28.6035 421.805C28.3668 421.805 28.1302 421.703 27.9949 421.467L25.0196 416.701C24.8168 416.363 24.9182 415.923 25.2563 415.721C25.5944 415.518 26.0339 415.619 26.2368 415.957L29.2121 420.723C29.415 421.061 29.3135 421.501 28.9754 421.703C28.874 421.771 28.7388 421.805 28.6035 421.805Z" fill="#263238"/>
<path d="M23.2274 427.179C23.2274 427.179 22.9569 427.145 22.8217 427.044C22.7203 426.976 13.9972 421.196 8.99322 421.196C8.5875 421.196 8.2832 420.892 8.2832 420.486C8.2832 420.081 8.5875 419.777 8.99322 419.777C14.4367 419.777 23.2274 425.59 23.5993 425.861C23.9374 426.064 24.005 426.537 23.8022 426.841C23.6669 427.044 23.4303 427.145 23.2274 427.145V427.179Z" fill="#263238"/>
<path d="M111.337 548.491H65.3213V614.708H111.337V548.491Z" fill="#263238"/>
<path d="M112.758 616.161H63.8677V547.106H112.758V616.161ZM66.7416 613.322H109.917V549.945H66.7416V613.322Z" fill="#263238"/>
<g opacity="0.3">
<path d="M578.734 124.442C552.959 124.442 532 103.489 532 77.7212C532 51.953 552.959 31 578.734 31C604.509 31 625.468 51.953 625.468 77.7212C625.468 103.489 604.509 124.442 578.734 124.442ZM578.734 31.9773C553.507 31.9773 533.001 52.5013 533.001 77.6974C533.001 102.894 553.507 123.417 578.734 123.417C603.961 123.417 624.467 102.917 624.467 77.6974C624.467 52.4775 603.961 31.9773 578.734 31.9773Z" fill="black"/>
<path d="M557.203 106.231C556.202 106.231 555.224 105.873 554.437 105.134C552.84 103.609 552.768 101.058 554.294 99.461L574.49 78.2695L553.913 56.7206C552.387 55.1235 552.434 52.5729 554.056 51.0473C555.653 49.5217 558.204 49.5693 559.73 51.1903L582.931 75.5044C584.409 77.0538 584.409 79.4852 582.931 81.0347L560.088 104.991C559.301 105.826 558.252 106.231 557.179 106.231H557.203Z" fill="black"/>
<path d="M582.668 106.231C581.667 106.231 580.689 105.873 579.902 105.134C578.305 103.609 578.233 101.058 579.759 99.461L599.955 78.2695L579.378 56.7206C577.852 55.1235 577.9 52.5729 579.521 51.0473C581.118 49.5217 583.67 49.5693 585.196 51.1903L608.396 75.5044C609.874 77.0538 609.874 79.4852 608.396 81.0347L585.553 104.991C584.767 105.826 583.717 106.231 582.644 106.231H582.668Z" fill="black"/>
</g>
<g opacity="0.3">
<path d="M325.527 551.939H247.222V473.656H325.527V551.939ZM248.642 550.52H324.107V475.075H248.642V550.52Z" fill="black"/>
<path d="M302.84 513.338L296.483 506.984L296.45 507.051L278.834 489.441L272.478 495.762L290.093 513.406L272.478 531.016L278.834 537.337L296.45 519.727L296.483 519.794L302.84 513.44L302.772 513.406L302.84 513.338Z" fill="black"/>
</g>
<g opacity="0.3">
<path d="M469.863 515.4L440.752 498.601V532.199L469.863 515.4Z" fill="black"/>
<path d="M446.669 515.4L417.559 498.601V532.199L446.669 515.4Z" fill="black"/>
<path d="M479.195 551.027H400.89V472.743H479.195V551.027ZM402.31 549.607H477.775V474.163H402.31V549.607Z" fill="black"/>
</g>
<g opacity="0.2">
<path d="M97.0695 40.6968H466.685C470.607 40.6968 473.785 43.8741 473.785 47.795V448.575H89.9355V47.795C89.9355 43.8741 93.1137 40.6968 97.0357 40.6968H97.0695Z" fill="black"/>
</g>
<path d="M91.3556 32.1787H460.971C464.893 32.1787 468.071 35.356 468.071 39.277V440.057H84.2554V39.277C84.2554 35.356 87.4336 32.1787 91.3556 32.1787Z" fill="white"/>
<path d="M468.105 440.767H84.2554C83.8497 440.767 83.5454 440.463 83.5454 440.057V39.2771C83.5454 34.9505 87.0617 31.469 91.3556 31.469H460.971C465.265 31.469 468.781 34.9843 468.781 39.2771V440.057C468.781 440.463 468.477 440.767 468.071 440.767H468.105ZM84.9654 439.348H467.395V39.2771C467.395 35.7617 464.521 32.8886 461.005 32.8886H91.3556C87.8393 32.8886 84.9654 35.7617 84.9654 39.2771V439.348Z" fill="#263238"/>
<path d="M328.84 137.233H221.154V180.059H328.84V137.233Z" fill="#EDEDED"/>
<path d="M271.734 153.761C270.821 153.761 270.213 154.269 270.213 155.587V157.581H267.373V155.79C267.373 152.815 268.86 151.125 271.734 151.125C274.608 151.125 276.096 152.815 276.096 155.79C276.096 161.637 270.28 163.834 270.28 166.876C270.28 167.012 270.28 167.147 270.28 167.282H275.994V169.952H267.474V167.654C267.474 162.178 273.289 161.265 273.289 155.891C273.289 154.201 272.715 153.761 271.768 153.761H271.734Z" fill="#263238"/>
<path d="M443.491 137.233H335.805V180.059H443.491V137.233Z" fill="#EDEDED"/>
<path d="M388.278 155.891C388.278 154.201 387.704 153.762 386.757 153.762C385.81 153.762 385.235 154.269 385.235 155.587V156.77H382.564V155.756C382.564 152.781 383.984 151.091 386.926 151.091C389.868 151.091 391.288 152.781 391.288 155.756V156.229C391.288 158.223 390.645 159.474 389.225 160.049C390.679 160.792 391.49 162.347 391.288 163.97V165.389C391.288 168.364 389.8 170.088 386.926 170.088C384.052 170.088 382.564 168.398 382.564 165.457V163.936H385.337V165.66C385.337 167.012 385.912 167.485 386.858 167.485C387.805 167.485 388.278 167.012 388.278 165.389V163.97C388.278 162.246 387.704 161.603 386.385 161.603H385.438V158.899H386.588C387.67 158.899 388.346 158.426 388.346 156.939L388.278 155.891Z" fill="#263238"/>
<path d="M214.189 180.093V137.233H106.502V180.093V410.447H443.491V180.093H214.189Z" fill="white"/>
<path d="M443.491 411.157H106.502C106.097 411.157 105.792 410.853 105.792 410.448V137.233C105.792 136.827 106.097 136.523 106.502 136.523H214.189C214.594 136.523 214.899 136.827 214.899 137.233V179.349H443.457C443.863 179.349 444.167 179.653 444.167 180.059V410.414C444.167 410.819 443.863 411.124 443.457 411.124L443.491 411.157ZM107.213 409.738H442.747V180.802H214.189C213.783 180.802 213.479 180.498 213.479 180.093V137.976H107.213V409.772V409.738Z" fill="#263238"/>
<path d="M155.798 153.66C157.32 153.897 158.74 152.849 159.01 151.328H160.971V169.952H158.03V155.756H155.765V153.694L155.798 153.66Z" fill="#263238"/>
<path d="M259.36 221.33H130.846C130.441 221.33 130.136 221.026 130.136 220.62C130.136 220.215 130.441 219.91 130.846 219.91H259.36C259.765 219.91 260.07 220.215 260.07 220.62C260.07 221.026 259.765 221.33 259.36 221.33Z" fill="#263238"/>
<path d="M259.36 279.198H130.846C130.441 279.198 130.136 278.894 130.136 278.488C130.136 278.082 130.441 277.778 130.846 277.778H259.36C259.765 277.778 260.07 278.082 260.07 278.488C260.07 278.894 259.765 279.198 259.36 279.198Z" fill="#263238"/>
<path d="M355.483 265.305H130.846C130.441 265.305 130.136 265.001 130.136 264.596V231.031C130.136 230.625 130.441 230.321 130.846 230.321H355.483C355.888 230.321 356.193 230.625 356.193 231.031V264.596C356.193 265.001 355.888 265.305 355.483 265.305ZM131.556 263.886H354.773V231.741H131.556V263.886Z" fill="#263238"/>
<path d="M416.274 337.505H316.668C313.158 337.505 310.312 340.35 310.312 343.859V383.238C310.312 386.747 313.158 389.592 316.668 389.592H416.274C419.784 389.592 422.63 386.747 422.63 383.238V343.859C422.63 340.35 419.784 337.505 416.274 337.505Z" fill="#263238"/>
<path d="M416.274 390.302H316.702C312.814 390.302 309.636 387.125 309.636 383.238V343.893C309.636 340.006 312.814 336.829 316.702 336.829H416.274C420.162 336.829 423.34 340.006 423.34 343.893V383.238C423.34 387.125 420.162 390.302 416.274 390.302ZM316.702 338.214C313.592 338.214 311.056 340.75 311.056 343.859V383.204C311.056 386.314 313.592 388.849 316.702 388.849H416.274C419.384 388.849 421.92 386.314 421.92 383.204V343.859C421.92 340.75 419.384 338.214 416.274 338.214H316.702Z" fill="#263238"/>
<path d="M343.919 375.193H341.553V351.498H344.9L350.377 368.635V351.498H352.744V375.193H350.005L343.919 355.994V375.193Z" fill="#F0FF00"/>
<path d="M363.868 362.01V364.377H358.086V372.793H365.186V375.193H355.449V351.498H365.186V353.898H358.086V361.977H363.868V362.01Z" fill="#F0FF00"/>
<path d="M373.504 364.985L369.548 375.227H367.046L371.813 362.991L367.35 351.498H370.089L373.74 360.963L377.426 351.498H379.894L375.499 362.991L380.232 375.227H377.46L373.504 364.985Z" fill="#F0FF00"/>
<path d="M385.811 375.193V353.864H381.449V351.465H392.81V353.864H388.448V375.193H385.811Z" fill="#F0FF00"/>
<path d="M91.3556 32.1787H460.971C464.893 32.1787 468.071 35.356 468.071 39.277V57.7662H84.2554V39.277C84.2554 35.356 87.4336 32.1787 91.3556 32.1787Z" fill="#263238"/>
<path d="M468.105 58.4761H84.2554C83.8497 58.4761 83.5454 58.1719 83.5454 57.7663V39.2771C83.5454 34.9505 87.0617 31.469 91.3556 31.469H460.971C465.265 31.469 468.781 34.9843 468.781 39.2771V57.7663C468.781 58.1719 468.477 58.4761 468.071 58.4761H468.105ZM84.9654 57.0565H467.395V39.2771C467.395 35.7617 464.521 32.8886 461.005 32.8886H91.3556C87.8393 32.8886 84.9654 35.7617 84.9654 39.2771V57.0565Z" fill="#263238"/>
<path d="M455.764 42.5895C455.764 39.953 453.668 37.8235 451.031 37.8235C448.394 37.8235 446.264 39.9192 446.264 42.5557C446.264 45.1921 448.36 47.3216 450.997 47.3216C453.601 47.3216 455.731 45.1921 455.731 42.5895H455.764Z" fill="white"/>
<path d="M451.031 48.0315C449.543 48.0315 448.157 47.4569 447.143 46.4091C446.128 45.3613 445.554 44.0092 445.554 42.5558C445.554 39.5475 448.022 37.1138 450.997 37.1138C454.006 37.1138 456.441 39.5813 456.441 42.5896C456.441 45.5979 454.006 48.0315 450.997 48.0315H451.031ZM451.031 38.5334C448.799 38.5334 447.008 40.3249 447.008 42.5558C447.008 43.6374 447.413 44.6514 448.191 45.4289C448.969 46.2063 449.949 46.6119 451.031 46.6119C453.262 46.6119 455.088 44.8204 455.088 42.5896C455.088 41.5079 454.683 40.4939 453.905 39.7165C453.127 38.939 452.147 38.5334 451.065 38.5334H451.031Z" fill="#263238"/>
<path d="M435.884 42.5895C435.884 39.953 433.788 37.8235 431.151 37.8235C428.513 37.8235 426.383 39.9192 426.383 42.5557C426.383 45.1921 428.48 47.3216 431.117 47.3216C433.72 47.3216 435.85 45.1921 435.85 42.5895H435.884Z" fill="white"/>
<path d="M431.151 48.0315C429.663 48.0315 428.277 47.4569 427.262 46.4091C426.248 45.3613 425.673 44.0092 425.673 42.5558C425.673 39.5475 428.142 37.1138 431.117 37.1138C434.126 37.1138 436.56 39.5813 436.56 42.5896C436.56 45.5979 434.126 48.0315 431.117 48.0315H431.151ZM431.117 38.5334C428.885 38.5334 427.093 40.3249 427.093 42.5558C427.093 43.6374 427.499 44.6514 428.277 45.4289C429.054 46.2063 430.035 46.6119 431.117 46.6119C433.348 46.6119 435.174 44.8204 435.174 42.5896C435.174 41.5079 434.768 40.4939 433.991 39.7165C433.213 38.939 432.233 38.5334 431.151 38.5334H431.117Z" fill="#263238"/>
<path d="M415.969 42.5895C415.969 39.953 413.873 37.8235 411.236 37.8235C408.599 37.8235 406.469 39.9192 406.469 42.5557C406.469 45.1921 408.565 47.3216 411.202 47.3216C413.806 47.3216 415.936 45.1921 415.936 42.5895H415.969Z" fill="white"/>
<path d="M411.236 48.0315C409.748 48.0315 408.362 47.4569 407.348 46.4091C406.334 45.3613 405.759 44.0092 405.759 42.5558C405.759 39.5475 408.227 37.1138 411.202 37.1138C414.211 37.1138 416.646 39.5813 416.646 42.5896C416.646 45.5979 414.211 48.0315 411.202 48.0315H411.236ZM411.236 38.5334C409.005 38.5334 407.213 40.3249 407.213 42.5558C407.213 43.6374 407.618 44.6514 408.396 45.4289C409.174 46.2063 410.154 46.6119 411.236 46.6119C413.468 46.6119 415.293 44.8204 415.293 42.5896C415.293 41.5079 414.888 40.4939 414.11 39.7165C413.332 38.939 412.352 38.5334 411.27 38.5334H411.236Z" fill="#263238"/>
<path d="M444.641 106.71H105.353C104.947 106.71 104.643 106.406 104.643 106.001C104.643 105.595 104.947 105.291 105.353 105.291H444.641C445.046 105.291 445.351 105.595 445.351 106.001C445.351 106.406 445.046 106.71 444.641 106.71Z" fill="#263238"/>
<path d="M216.522 85.855H112.318C111.912 85.855 111.608 85.5507 111.608 85.1451C111.608 84.7395 111.912 84.4353 112.318 84.4353H216.522C216.927 84.4353 217.232 84.7395 217.232 85.1451C217.232 85.5507 216.927 85.855 216.522 85.855Z" fill="#263238"/>
<path d="M575.588 222.412C575.588 222.412 595.503 253.002 598.546 268.449C601.589 283.896 594.049 290.893 597.058 302.385C600.067 313.878 608.52 314.858 614.031 327.33C619.542 339.803 603.042 366.743 595.063 369.244C587.084 371.745 562.132 370.224 562.132 352.276C562.132 334.327 568.049 304.278 572.072 296.369C576.096 288.459 579.578 263.446 579.578 258.951" fill="#263238"/>
<path d="M587.219 370.9C581.167 370.9 573.594 369.582 568.049 365.526C563.62 362.281 561.388 357.819 561.388 352.309C561.388 334.665 567.271 304.21 571.43 296.098C575.42 288.256 578.834 263.277 578.834 258.984C578.834 258.579 579.139 258.275 579.544 258.275C579.95 258.275 580.254 258.579 580.254 258.984C580.254 263.48 576.84 288.56 572.681 296.74C568.59 304.751 562.808 334.834 562.808 352.309C562.808 357.346 564.871 361.402 568.894 364.376C576.704 370.123 589.721 370.156 594.827 368.568C599.019 367.25 605.984 358.427 610.346 348.862C614.335 340.073 615.451 332.333 613.355 327.635C610.785 321.821 607.607 318.61 604.564 315.5C601.183 312.052 597.971 308.807 596.348 302.588C594.861 296.909 595.875 292.279 596.991 287.377C598.174 282.037 599.391 276.493 597.836 268.618C594.861 253.475 575.183 223.121 574.98 222.817C574.777 222.479 574.845 222.04 575.183 221.837C575.521 221.634 575.961 221.702 576.163 222.04C576.975 223.29 596.179 252.9 599.222 268.347C600.845 276.527 599.526 282.442 598.343 287.682C597.261 292.617 596.314 296.876 597.701 302.25C599.222 308.098 602.164 311.072 605.545 314.52C608.554 317.562 611.969 321.043 614.64 327.094C617.716 334.057 614.065 344.096 611.597 349.47C607.032 359.509 599.831 368.534 595.199 369.954C593.407 370.528 590.533 370.9 587.152 370.9H587.219Z" fill="#263238"/>
<path d="M555.607 258.444C555.607 258.444 553.206 276.595 555.843 280.178C558.481 283.761 568.522 284.944 576.13 288.527C583.737 292.11 583.061 297.146 583.061 303.805C583.061 310.464 569.672 348.727 570.382 355.656C571.092 362.585 589.012 382.19 592.122 401.761C595.233 421.332 577.076 477.982 574.676 487.041C572.275 496.1 570.111 501.88 572.749 510.465C575.386 519.051 579.849 525.507 580.39 540.582C580.931 555.657 569.401 595.779 568.691 599.599C567.981 603.418 573.256 615.384 574.676 621.57C576.096 627.755 570.619 630.425 566.054 630.155C561.49 629.885 553.646 628.262 553.646 625.152C553.646 622.043 556.283 608.184 556.283 602.945C556.283 597.706 555.573 589.323 555.573 585.74C555.573 582.157 551.752 547.748 550.806 540.582C549.859 533.416 547.222 521.958 547.222 521.958C547.222 521.958 547.932 558.497 548.912 568.536C549.352 573.2 548.371 584.185 549.014 593.819C549.758 604.838 552.057 614.404 551.313 616.33C549.893 619.913 543.908 619.17 537.451 620.387C530.993 621.603 532.92 623.969 525.042 625.389C517.164 626.809 511.721 625.085 512.904 621.265C514.088 617.446 523.521 613.897 527.815 607.948C530.418 604.601 531.872 600.511 531.94 596.253C532.109 593.21 531.94 590.168 531.466 587.16C530.993 583.814 524.366 569.245 521.898 558.97C519.43 548.694 520.241 546.294 519.497 530.543C518.753 514.792 522.845 506.646 520.207 496.607C517.57 486.568 508.509 453.848 505.872 435.19C503.234 416.532 502.017 399.462 503.674 391.215C506.886 375.565 514.933 365.222 516.387 359.239C517.841 353.256 511.112 342.744 508.002 327.702C504.891 312.661 510.639 299.749 513.682 292.583C516.725 285.417 526.834 282.307 528.491 281.598C530.148 280.888 531.601 273.08 531.838 267.976C532.075 262.872 532.075 260.337 532.075 260.337L555.573 258.41L555.607 258.444Z" fill="#263238"/>
<path d="M566.663 630.932C566.46 630.932 566.257 630.932 566.054 630.932C562.639 630.763 552.969 629.31 552.969 625.22C552.969 623.8 553.477 620.454 554.051 616.533C554.795 611.564 555.607 605.92 555.607 602.979C555.607 600.038 555.404 596.286 555.201 592.872C555.032 590.067 554.897 587.397 554.897 585.74C554.897 582.293 551.144 548.322 550.129 540.683C549.69 537.337 548.845 533.01 548.101 529.36C548.371 540.582 548.946 561.37 549.622 568.468C549.825 570.597 549.724 573.944 549.622 577.797C549.487 582.766 549.352 588.411 549.724 593.751C550.062 598.923 550.772 603.756 551.347 607.677C552.09 612.883 552.428 615.452 551.989 616.567C550.806 619.541 547.12 619.913 542.86 620.353C541.17 620.522 539.411 620.725 537.62 621.063C534.712 621.603 533.596 622.381 532.447 623.226C531.06 624.206 529.505 625.288 525.211 626.065C519.362 627.113 514.764 626.538 512.938 624.443C512.093 623.496 511.89 622.313 512.296 621.029C512.972 618.899 515.71 616.973 518.889 614.776C521.864 612.714 525.245 610.348 527.341 607.474C529.843 604.263 531.263 600.241 531.331 596.185C531.5 593.177 531.331 590.168 530.857 587.228C530.655 585.875 529.302 582.326 527.747 578.236C525.515 572.355 522.709 565.054 521.289 559.071C519.497 551.601 519.43 548.289 519.227 541.055C519.159 538.317 519.058 534.903 518.855 530.509C518.517 523.343 519.193 517.766 519.768 512.831C520.478 506.848 521.019 502.082 519.632 496.708C519.294 495.424 518.855 493.801 518.348 491.874C514.865 478.793 507.562 451.55 505.263 435.224C502.321 414.301 501.544 398.583 503.065 391.012C505.094 381.04 509.185 373.063 512.126 367.283C513.885 363.836 515.271 361.132 515.778 359.002C516.522 355.892 514.831 351.228 512.701 345.279C510.977 340.479 508.813 334.53 507.427 327.77C504.35 312.864 509.726 300.29 512.938 292.786L513.175 292.245C516.048 285.518 524.772 282.24 527.612 281.158C527.95 281.023 528.186 280.955 528.356 280.888C529.37 280.448 530.993 273.958 531.263 267.908C531.5 262.905 531.5 260.303 531.5 260.303C531.5 259.931 531.77 259.627 532.142 259.593L555.64 257.666C555.843 257.666 556.08 257.734 556.215 257.869C556.35 258.038 556.418 258.241 556.418 258.444C555.776 263.412 554.491 276.933 556.52 279.671C557.94 281.631 562.2 282.916 566.73 284.302C570.044 285.316 573.425 286.363 576.569 287.817C584.007 291.298 583.974 296.369 583.94 302.216V303.737C583.94 306.881 581.1 316.615 578.124 326.925C574.743 338.62 570.889 351.904 571.261 355.521C571.531 358.022 574.439 362.72 577.854 368.196C583.433 377.153 591.074 389.457 593.035 401.625C595.706 418.458 582.993 461.758 577.583 480.281C576.671 483.39 575.961 485.858 575.589 487.21C575.318 488.19 575.082 489.137 574.845 490.049C572.85 497.452 571.396 502.792 573.661 510.262C574.371 512.561 575.183 514.656 576.062 516.887C578.463 523.039 580.931 529.428 581.336 540.548C581.776 552.75 574.304 581.481 571.126 593.751C570.348 596.793 569.773 598.99 569.638 599.734C569.198 601.965 571.193 607.745 572.951 612.849C574.067 616.06 575.081 619.102 575.622 621.434C576.197 623.936 575.758 626.167 574.338 627.857C572.444 630.121 569.334 630.899 566.866 630.899L566.663 630.932ZM547.222 521.281C547.56 521.281 547.83 521.518 547.898 521.822C547.898 521.924 550.569 533.416 551.516 540.514C552.395 547.072 556.283 582.09 556.283 585.774C556.283 587.363 556.418 589.999 556.587 592.805C556.79 596.219 556.993 600.072 556.993 602.979C556.993 605.886 556.148 611.7 555.404 616.736C554.863 620.42 554.356 623.902 554.356 625.186C554.356 627.485 561.185 629.242 566.122 629.479C568.894 629.614 571.599 628.634 573.019 626.944C574.169 625.592 574.507 623.834 574 621.739C573.492 619.474 572.444 616.499 571.362 613.322C569.368 607.542 567.508 602.066 568.015 599.464C568.15 598.686 568.725 596.59 569.537 593.413C572.715 581.211 580.153 552.615 579.714 540.616C579.308 529.732 576.873 523.479 574.54 517.428C573.661 515.163 572.816 513.034 572.106 510.702C569.706 502.826 571.193 497.316 573.256 489.711C573.492 488.799 573.763 487.886 574 486.906C574.371 485.554 575.048 483.188 575.994 479.943C581.404 461.555 594.049 418.458 591.412 401.93C589.519 390.032 581.979 377.897 576.434 369.041C572.816 363.227 569.942 358.597 569.638 355.791C569.232 351.904 572.951 339.059 576.569 326.654C579.511 316.446 582.317 306.813 582.317 303.872V302.318C582.385 296.504 582.418 292.312 575.792 289.203C572.782 287.783 569.401 286.769 566.156 285.755C561.219 284.234 556.925 282.95 555.235 280.617C552.767 277.237 554.254 263.21 554.761 259.221L532.785 261.013C532.785 262.06 532.717 264.426 532.548 268.043C532.379 271.491 531.229 281.259 528.761 282.274C528.592 282.341 528.322 282.442 527.95 282.578C525.211 283.592 516.928 286.735 514.324 292.887L514.088 293.428C510.943 300.797 505.669 313.134 508.678 327.567C510.064 334.226 512.093 339.904 513.918 344.907C516.15 351.059 517.908 355.892 517.063 359.442C516.522 361.74 515.102 364.512 513.31 368.027C510.368 373.773 506.379 381.615 504.384 391.417C502.862 398.854 503.64 414.368 506.582 435.156C508.881 451.381 516.15 478.591 519.632 491.638C520.14 493.565 520.579 495.187 520.917 496.471C522.405 502.116 521.796 507.22 521.12 513.102C520.545 517.969 519.903 523.479 520.241 530.543C520.444 534.971 520.545 538.385 520.613 541.123C520.782 548.255 520.883 551.5 522.642 558.835C524.062 564.716 526.8 571.983 529.032 577.831C530.688 582.191 532.007 585.605 532.21 587.126C532.683 590.168 532.852 593.278 532.683 596.354C532.616 600.68 531.094 604.973 528.423 608.421C526.225 611.497 522.709 613.897 519.632 616.026C516.792 617.987 514.121 619.846 513.614 621.536C513.344 622.347 513.479 623.023 513.986 623.598C515.44 625.254 519.768 625.693 524.941 624.747C528.93 624.003 530.317 623.057 531.635 622.144C532.886 621.265 534.171 620.353 537.383 619.744C539.242 619.406 541.102 619.203 542.759 619.034C546.715 618.629 549.859 618.291 550.738 616.128C551.076 615.283 550.569 611.902 550.028 607.948C549.453 604.027 548.777 599.159 548.405 593.92C548.033 588.512 548.202 582.833 548.304 577.831C548.405 574.011 548.473 570.699 548.304 568.671C547.357 558.733 546.613 522.397 546.613 522.025C546.613 521.653 546.884 521.349 547.222 521.315C547.222 521.315 547.289 521.315 547.323 521.315L547.222 521.281Z" fill="#263238"/>
<path d="M574.709 621.637C573.289 615.418 568.015 603.486 568.725 599.667C569.029 598.044 571.295 589.797 573.763 579.758C567.609 581.583 561.05 581.313 555.066 579.048C555.404 582.496 555.607 585.031 555.607 585.842C555.607 589.425 556.317 597.808 556.317 603.047C556.317 608.286 553.679 622.144 553.679 625.254C553.679 628.364 561.557 630.02 566.088 630.257C570.618 630.493 576.13 627.823 574.709 621.603V621.637ZM512.87 621.299C514.054 617.48 523.487 613.931 527.781 607.982C530.384 604.635 531.838 600.545 531.906 596.286C532.075 593.244 531.906 590.202 531.432 587.194C530.79 584.659 529.945 582.158 528.93 579.758C535.219 582.496 542.387 582.293 548.473 579.183C547.154 597.132 552.395 613.593 551.313 616.364C549.893 619.947 543.908 619.204 537.45 620.42C530.993 621.637 532.92 624.003 525.042 625.423C517.164 626.843 511.687 625.119 512.87 621.299Z" fill="white"/>
<path d="M566.663 631C566.46 631 566.257 631 566.088 631C562.673 630.831 553.003 629.378 553.003 625.288C553.003 623.868 553.511 620.522 554.085 616.635C554.829 611.666 555.641 605.987 555.641 603.08C555.641 600.173 555.438 596.354 555.235 592.974C555.066 590.168 554.931 587.498 554.931 585.876C554.931 584.929 554.626 581.583 554.39 579.149C554.39 578.913 554.457 578.676 554.66 578.507C554.863 578.372 555.134 578.304 555.336 578.406C561.152 580.636 567.61 580.873 573.594 579.115C573.831 579.048 574.101 579.115 574.27 579.284C574.439 579.453 574.541 579.724 574.473 579.96C573.154 585.335 571.87 590.236 570.957 593.819C570.179 596.895 569.604 599.092 569.435 599.835C569.03 602.066 570.991 607.813 572.715 612.883C573.831 616.128 574.879 619.204 575.42 621.536C575.995 624.071 575.555 626.302 574.101 627.992C572.208 630.256 569.097 631.034 566.663 631.034V631ZM555.877 580.062C556.182 583.341 556.317 585.132 556.317 585.808C556.317 587.397 556.452 590.033 556.621 592.839C556.824 596.253 557.027 600.14 557.027 603.013C557.027 605.886 556.182 611.733 555.438 616.77C554.897 620.454 554.39 623.936 554.39 625.22C554.39 627.519 561.219 629.276 566.156 629.513C568.894 629.648 571.599 628.668 573.019 626.978C574.169 625.592 574.507 623.834 574.034 621.739C573.526 619.474 572.478 616.432 571.396 613.221C569.435 607.475 567.576 602.033 568.049 599.464C568.184 598.686 568.759 596.557 569.571 593.379C570.416 590.067 571.565 585.639 572.783 580.704C567.238 582.09 561.287 581.853 555.877 580.028V580.062ZM519.903 626.674C516.59 626.674 514.088 625.93 512.837 624.544C511.991 623.598 511.789 622.415 512.194 621.13C512.871 619.001 515.609 617.074 518.787 614.877C521.763 612.815 525.144 610.449 527.24 607.576C529.742 604.365 531.162 600.342 531.23 596.286C531.399 593.278 531.23 590.27 530.756 587.329C530.114 584.895 529.302 582.428 528.288 580.062C528.187 579.791 528.22 579.487 528.457 579.284C528.66 579.082 528.964 579.014 529.235 579.149C535.321 581.819 542.252 581.617 548.169 578.608C548.405 578.507 548.676 578.507 548.879 578.642C549.081 578.777 549.217 579.014 549.183 579.284C548.371 590.405 550.096 601.019 551.245 608.049C552.057 613.052 552.429 615.485 551.989 616.668C550.806 619.643 547.12 620.015 542.86 620.488C541.17 620.657 539.412 620.86 537.62 621.198C534.712 621.739 533.596 622.516 532.447 623.361C531.06 624.341 529.505 625.423 525.211 626.2C523.318 626.538 521.526 626.707 519.937 626.707L519.903 626.674ZM513.581 621.536C513.31 622.347 513.445 623.023 513.952 623.598C515.44 625.254 519.734 625.727 524.975 624.781C528.964 624.037 530.35 623.091 531.669 622.178C532.92 621.299 534.205 620.387 537.417 619.778C539.276 619.44 541.136 619.237 542.793 619.068C546.749 618.663 549.893 618.325 550.772 616.161C551.11 615.316 550.569 612.071 549.961 608.32C548.845 601.492 547.188 591.284 547.797 580.434C542.252 582.901 536.031 583.138 530.317 581.11C531.061 583.07 531.703 585.098 532.244 587.126C532.751 590.236 532.886 593.346 532.717 596.422C532.65 600.748 531.128 605.075 528.457 608.489C526.259 611.564 522.743 613.964 519.666 616.094C516.826 618.054 514.155 619.913 513.648 621.603L513.581 621.536Z" fill="#263238"/>
<path d="M512.87 621.299C514.053 617.48 523.487 613.931 527.781 607.982C530.384 604.635 531.838 600.545 531.905 596.286C531.905 596.286 537.078 598.044 537.788 600.545C538.296 602.235 538.87 603.892 539.58 605.514C542.928 606.089 546.376 605.717 549.521 604.432C550.231 604.094 549.521 603.013 550.028 602.742C550.332 609.232 551.786 615.08 551.279 616.364C549.859 619.947 543.874 619.204 537.416 620.42C530.959 621.637 532.886 624.003 525.008 625.423C517.13 626.843 511.687 625.085 512.87 621.265V621.299Z" fill="white"/>
<path d="M519.902 626.674C516.623 626.674 514.121 625.93 512.87 624.544C512.025 623.598 511.822 622.415 512.228 621.096C512.904 618.967 515.642 617.04 518.821 614.843C521.796 612.781 525.177 610.415 527.273 607.542C529.775 604.331 531.195 600.309 531.263 596.253C531.263 596.016 531.364 595.813 531.567 595.678C531.77 595.543 531.973 595.509 532.209 595.577C532.784 595.779 537.754 597.537 538.566 600.309C539.005 601.83 539.546 603.351 540.155 604.838C543.232 605.311 546.342 604.939 549.25 603.79C549.25 603.723 549.25 603.587 549.25 603.52C549.25 603.148 549.148 602.438 549.791 602.1C549.994 601.965 550.264 601.999 550.467 602.1C550.67 602.235 550.805 602.438 550.839 602.675C550.974 605.784 551.38 608.725 551.718 611.125C552.158 614.269 552.36 615.79 552.022 616.601C550.839 619.542 547.154 619.947 542.894 620.387C541.203 620.556 539.445 620.758 537.653 621.096C534.745 621.637 533.63 622.415 532.48 623.26C531.094 624.24 529.538 625.322 525.245 626.133C523.351 626.471 521.593 626.64 520.004 626.64L519.902 626.674ZM513.58 621.536C513.309 622.347 513.445 623.023 513.952 623.598C515.406 625.254 519.733 625.727 524.906 624.781C528.896 624.037 530.282 623.091 531.601 622.178C532.852 621.299 534.137 620.387 537.349 619.778C539.208 619.44 541.068 619.237 542.725 619.068C546.68 618.663 549.825 618.325 550.704 616.161C550.907 615.688 550.602 613.525 550.298 611.395C550.061 609.604 549.757 607.508 549.554 605.277C546.342 606.528 542.894 606.866 539.513 606.258C539.276 606.224 539.073 606.055 538.972 605.818C538.295 604.162 537.687 602.472 537.18 600.782C536.774 599.328 534.272 598.01 532.649 597.334C532.378 601.357 530.891 605.244 528.423 608.421C526.225 611.497 522.709 613.897 519.632 616.026C516.792 617.987 514.121 619.846 513.614 621.536H513.58Z" fill="#263238"/>
<path d="M512.87 621.333C524.231 623.26 529.573 620.319 535.794 617.75C540.899 615.891 546.207 614.708 551.617 614.167C551.617 614.911 551.516 615.654 551.279 616.364C549.859 619.947 543.874 619.203 537.417 620.42C530.959 621.637 532.886 624.003 525.008 625.423C517.13 626.842 511.721 625.119 512.87 621.299V621.333Z" fill="#FDD91E"/>
<path d="M519.903 626.673C516.623 626.673 514.121 625.93 512.87 624.544C512.025 623.598 511.822 622.414 512.194 621.13C512.295 620.792 512.633 620.555 513.005 620.623C523.115 622.347 528.321 620.15 533.833 617.818C534.407 617.581 534.982 617.344 535.557 617.108C540.73 615.249 546.106 613.998 551.549 613.491C551.752 613.491 551.955 613.525 552.09 613.66C552.225 613.795 552.327 613.998 552.327 614.201C552.327 615.012 552.192 615.823 551.955 616.601C550.772 619.609 547.052 620.015 542.792 620.454C541.102 620.623 539.344 620.826 537.552 621.164C534.644 621.705 533.528 622.482 532.379 623.327C530.992 624.307 529.437 625.389 525.143 626.166C523.25 626.504 521.492 626.673 519.903 626.673ZM513.445 622.144C513.411 622.685 513.546 623.192 513.918 623.598C515.372 625.254 519.7 625.693 524.873 624.747C528.862 624.003 530.249 623.057 531.567 622.144C532.818 621.265 534.103 620.353 537.315 619.744C539.175 619.406 541.034 619.203 542.691 619.034C546.647 618.629 549.791 618.291 550.67 616.127C550.772 615.789 550.839 615.384 550.907 615.012C545.869 615.587 540.865 616.736 536.098 618.46C535.557 618.696 534.982 618.933 534.407 619.17C528.829 621.502 523.554 623.733 513.479 622.178L513.445 622.144Z" fill="#263238"/>
<path d="M556.316 602.235C560.171 600.275 564.701 600.004 568.759 601.559C569.367 606.528 573.492 616.229 574.743 621.637C576.163 627.856 570.686 630.493 566.121 630.222C561.557 629.952 553.713 628.33 553.713 625.22C553.713 622.11 556.35 608.252 556.35 603.012V602.235H556.316Z" fill="white"/>
<path d="M566.662 630.932C566.46 630.932 566.257 630.932 566.054 630.932C562.639 630.763 552.969 629.31 552.969 625.22C552.969 623.8 553.476 620.454 554.051 616.533C554.795 611.564 555.606 605.919 555.606 602.979V602.201C555.606 601.931 555.742 601.694 555.978 601.559C560.002 599.497 564.769 599.261 568.995 600.849C569.232 600.951 569.435 601.153 569.435 601.424C569.773 604.196 571.261 608.624 572.715 612.849C573.796 616.06 574.845 619.102 575.386 621.434C575.96 623.969 575.521 626.2 574.101 627.89C572.207 630.155 569.131 630.932 566.662 630.932ZM557.026 602.675V603.013C557.026 606.021 556.181 611.733 555.437 616.77C554.896 620.454 554.389 623.935 554.389 625.22C554.389 627.518 561.219 629.276 566.155 629.513C568.928 629.648 571.633 628.668 573.053 626.978C574.202 625.626 574.54 623.868 574.067 621.772C573.56 619.508 572.512 616.533 571.43 613.356C570.01 609.232 568.59 605.007 568.15 602.066C564.532 600.815 560.543 601.018 557.06 602.675H557.026Z" fill="#263238"/>
<path d="M553.679 625.22C553.747 623.902 553.882 622.584 554.085 621.299C555.437 623.699 558.345 626.707 564.194 626.978C574.135 627.417 574.135 619.88 574.135 619.88C574.304 620.522 574.507 621.13 574.608 621.671C576.028 627.891 570.551 630.527 565.986 630.257C561.422 629.986 553.646 628.33 553.646 625.22H553.679Z" fill="#FDD91E"/>
<path d="M566.561 630.966C566.358 630.966 566.155 630.966 565.952 630.966C562.571 630.797 552.969 629.344 552.969 625.22C553.037 623.868 553.172 622.55 553.375 621.198C553.409 620.894 553.645 620.657 553.95 620.623C554.254 620.589 554.558 620.725 554.694 620.961C555.978 623.26 558.649 626.031 564.228 626.268C567.44 626.403 569.874 625.693 571.497 624.172C573.425 622.313 573.458 619.913 573.458 619.88C573.458 619.542 573.729 619.237 574.067 619.17C574.405 619.136 574.743 619.339 574.845 619.677C575.047 620.319 575.216 620.927 575.352 621.502C575.926 624.037 575.487 626.268 574.067 627.958C572.174 630.223 569.097 631 566.595 631L566.561 630.966ZM554.389 625.22C554.389 627.519 561.185 629.276 566.054 629.513C568.826 629.648 571.531 628.668 572.951 626.978C573.898 625.862 574.304 624.476 574.135 622.82C573.796 623.598 573.256 624.375 572.478 625.119C570.584 626.944 567.812 627.755 564.16 627.62C559.089 627.383 556.147 625.153 554.558 623.158C554.491 623.834 554.423 624.51 554.423 625.152L554.389 625.22Z" fill="#263238"/>
<path d="M438.454 356.67C438.454 356.67 429.663 360.456 428.615 363.498C427.567 366.54 428.006 369.379 426.349 370.461C423.915 372.185 422.157 374.686 421.345 377.559C420.737 380.601 419.384 383.17 418.607 381.953C417.829 380.736 416.206 378.168 417.085 375.734C417.964 373.3 419.351 371.475 419.215 369.988C419.08 368.5 417.39 368.027 415.124 368.771C412.859 369.514 404.812 372.692 402.074 373.334C399.335 373.976 394.331 374.754 393.756 373.638C393.283 372.759 393.587 371.678 394.466 371.205C394.568 371.137 394.703 371.103 394.804 371.069C397.746 370.427 400.62 369.616 403.46 368.636C405.116 367.892 407.72 366.675 407.72 366.236C407.72 365.796 406.807 365.458 406.198 365.627C405.59 365.796 400.755 367.047 398.929 367.588C397.103 368.129 390.612 369.413 390.308 366.844C390.003 364.275 392.438 365.019 395.142 364.444C397.847 363.87 404.068 362.011 404.981 361.842C405.624 361.74 406.232 361.537 406.807 361.233C406.807 361.233 393.756 362.653 393.148 362.653C392.539 362.653 391.018 362.788 390.747 362.044C390.477 361.301 390.138 360.523 390.882 359.915C391.897 359.476 392.979 359.273 394.06 359.307C394.06 359.307 395.717 359.137 396.495 359.002C397.949 358.732 399.369 358.394 400.755 357.921C401.6 357.616 402.445 357.346 403.325 357.177C403.933 357.008 404.745 356.569 405.15 356.433C405.928 355.994 406.706 355.521 407.416 355.014C407.416 355.014 407.416 354.405 405.286 353.932C403.392 353.459 401.465 353.155 399.538 353.019C398.118 353.019 395.447 352.85 395.142 351.498C394.838 350.146 396.968 349.977 399.233 350.079C401.499 350.18 407.754 351.16 408.937 351.16C410.12 351.16 416.342 348.896 418.505 348.592C421.345 348.456 424.152 347.949 426.823 347.07C430.745 345.651 439.096 341.459 439.096 341.459" fill="white"/>
<path d="M419.046 382.967C418.776 382.967 418.336 382.866 417.998 382.325L417.93 382.19C417.119 380.872 415.428 378.167 416.443 375.463C416.781 374.585 417.153 373.739 417.525 373.03C418.1 371.813 418.607 370.799 418.539 370.021C418.539 369.717 418.37 369.481 418.133 369.345C417.592 369.007 416.544 369.041 415.361 369.413C414.651 369.65 413.434 370.123 411.98 370.664C408.7 371.88 404.203 373.57 402.242 374.01C398.523 374.821 393.959 375.497 393.114 373.942C392.809 373.368 392.708 372.692 392.911 372.049C393.114 371.407 393.519 370.866 394.094 370.562C394.229 370.495 394.398 370.427 394.567 370.359C397.509 369.717 400.383 368.906 403.189 367.926C405.083 367.047 406.063 366.54 406.57 366.236C406.503 366.236 406.401 366.236 406.333 366.236C405.759 366.371 400.89 367.655 399.098 368.196C399.03 368.196 392.911 369.92 390.51 368.365C389.969 367.993 389.631 367.486 389.564 366.844C389.462 365.999 389.597 365.357 390.003 364.917C390.645 364.14 391.727 364.039 392.978 363.937C393.587 363.87 394.297 363.836 394.973 363.667C395.852 363.464 397.137 363.16 398.456 362.788C395.751 363.058 393.418 363.295 393.147 363.295H392.911C392.065 363.295 390.51 363.363 390.071 362.247C389.766 361.47 389.259 360.219 390.443 359.306C390.476 359.273 390.544 359.239 390.612 359.205C391.694 358.732 392.911 358.495 394.094 358.529C394.094 358.529 395.649 358.36 396.393 358.259C397.813 357.988 399.2 357.65 400.586 357.211C401.431 356.906 402.31 356.636 403.223 356.433C403.527 356.366 403.967 356.163 404.305 355.994C404.542 355.892 404.778 355.791 404.947 355.723C405.353 355.487 405.826 355.216 406.266 354.912C406.029 354.811 405.691 354.709 405.184 354.608C403.324 354.135 401.431 353.831 399.538 353.729C396.528 353.729 394.804 353.019 394.5 351.634C394.365 350.957 394.601 350.518 394.804 350.248C395.413 349.504 396.731 349.234 399.301 349.335C400.552 349.369 402.986 349.707 405.116 349.977C406.773 350.18 408.497 350.417 408.971 350.417C409.444 350.417 411.506 349.774 413.197 349.267C415.226 348.659 417.322 348.017 418.438 347.848C421.278 347.713 424.016 347.206 426.654 346.361C430.474 344.975 438.724 340.851 438.825 340.817C439.163 340.648 439.603 340.783 439.772 341.121C439.941 341.459 439.772 341.899 439.468 342.068C439.13 342.237 431.049 346.293 427.127 347.713C424.354 348.591 421.481 349.132 418.607 349.267C417.66 349.403 415.53 350.045 413.637 350.619C411.202 351.363 409.647 351.836 409.005 351.836C408.464 351.836 407.111 351.667 404.947 351.397C402.851 351.126 400.484 350.822 399.267 350.788C396.63 350.687 396.021 351.025 395.92 351.194C395.92 351.194 395.886 351.228 395.92 351.363C396.021 351.836 397.205 352.31 399.605 352.31C401.634 352.445 403.595 352.749 405.522 353.256C407.72 353.729 408.193 354.473 408.193 355.014C408.193 355.25 408.092 355.453 407.889 355.588C407.145 356.129 406.333 356.602 405.556 357.042C405.319 357.143 405.15 357.211 404.947 357.312C404.542 357.515 404.034 357.752 403.561 357.853C402.682 358.056 401.871 358.292 401.059 358.597C399.605 359.07 398.151 359.408 396.664 359.712C395.886 359.847 394.229 360.016 394.162 360.016C393.147 360.016 392.167 360.151 391.288 360.523C391.085 360.726 391.085 360.929 391.423 361.74C391.491 361.841 391.829 361.943 392.911 361.909H393.181C393.688 361.909 401.566 361.064 406.739 360.489C407.077 360.456 407.415 360.658 407.517 360.996C407.618 361.334 407.449 361.672 407.145 361.841C406.503 362.146 405.826 362.382 405.15 362.484C404.778 362.551 403.291 362.957 401.701 363.396C399.538 364.005 396.867 364.715 395.311 365.053C394.534 365.222 393.79 365.289 393.114 365.357C392.235 365.424 391.389 365.492 391.119 365.83C390.984 365.999 390.95 366.269 391.017 366.709C391.017 366.844 391.085 367.047 391.355 367.216C392.708 368.095 396.9 367.419 398.76 366.878C400.586 366.337 405.488 365.053 406.063 364.917C406.705 364.748 407.483 364.917 407.99 365.289C408.294 365.526 408.464 365.864 408.464 366.202C408.464 366.844 408.024 367.351 403.764 369.278C400.856 370.292 397.915 371.137 394.973 371.745C394.973 371.745 394.872 371.779 394.838 371.813C394.567 371.948 394.398 372.185 394.331 372.455C394.263 372.725 394.297 373.03 394.432 373.266C394.872 373.638 397.881 373.537 401.972 372.624C403.832 372.218 408.261 370.562 411.506 369.345C412.994 368.804 414.245 368.331 414.921 368.095C416.578 367.52 417.998 367.554 418.911 368.162C419.52 368.568 419.858 369.143 419.959 369.886C420.061 371.035 419.486 372.252 418.81 373.638C418.471 374.382 418.1 375.125 417.795 375.937C417.051 377.931 418.404 380.162 419.148 381.379C419.553 380.905 420.23 379.486 420.669 377.356C421.514 374.28 423.408 371.61 425.944 369.819C426.721 369.312 426.924 368.128 427.195 366.607C427.364 365.56 427.566 364.41 427.972 363.193C429.088 359.949 437.27 356.366 438.217 355.96C438.589 355.791 438.994 355.96 439.163 356.332C439.332 356.704 439.163 357.109 438.791 357.278C436.425 358.292 430.102 361.436 429.325 363.667C428.953 364.748 428.75 365.864 428.615 366.844C428.31 368.635 428.074 370.157 426.755 371.002C424.49 372.624 422.799 374.99 422.055 377.694C421.954 378.134 421.007 382.595 419.283 382.9C419.249 382.9 419.181 382.9 419.08 382.9L419.046 382.967Z" fill="#263238"/>
<path d="M524.061 284.64C524.061 284.64 518.787 285.248 509.421 290.487C500.056 295.726 493.023 305.698 493.023 305.698L467.124 324.964C467.124 324.964 457.184 330.035 451.267 333.482C445.35 336.93 427.837 344.028 426.078 346.361C424.32 348.693 424.929 357.481 430.17 359.239C435.41 360.996 457.759 354.777 467.699 350.721C477.639 346.665 476.016 346.09 479.533 344.333C483.049 342.575 512.329 323.849 512.329 323.849L524.027 284.64H524.061Z" fill="#F0FF00"/>
<path d="M432.705 360.253C431.59 360.253 430.643 360.151 429.967 359.915C427.735 359.171 426.011 357.177 425.132 354.304C424.151 351.194 424.354 347.51 425.538 345.921C426.62 344.501 431.657 342.068 439.873 338.282C444.336 336.22 448.562 334.26 450.929 332.874C456.778 329.46 466.719 324.39 466.82 324.322L492.516 305.191C493.294 304.109 500.056 294.915 509.083 289.845C518.482 284.572 523.757 283.93 523.994 283.896C524.23 283.896 524.467 283.964 524.636 284.133C524.805 284.302 524.839 284.572 524.771 284.809L513.073 324.018C513.073 324.018 512.904 324.322 512.768 324.424C511.585 325.201 483.421 343.217 479.905 344.941C478.789 345.516 478.214 345.921 477.572 346.428C476.219 347.476 474.698 348.659 468.003 351.363C459.179 354.946 440.82 360.219 432.705 360.219V360.253ZM523.047 285.552C521.052 285.992 516.488 287.344 509.793 291.096C500.664 296.2 493.699 306.002 493.632 306.103C493.598 306.171 493.53 306.205 493.463 306.272L467.564 325.539C467.361 325.64 457.455 330.711 451.639 334.125C449.205 335.544 444.979 337.505 440.482 339.6C434.734 342.271 427.634 345.583 426.687 346.8C425.876 347.882 425.605 350.991 426.484 353.898C426.924 355.284 428.006 357.785 430.44 358.563C435.174 360.151 456.88 354.371 467.496 350.045C473.988 347.408 475.442 346.293 476.727 345.313C477.403 344.806 478.045 344.299 479.296 343.69C482.576 342.068 509.083 325.1 511.788 323.376L523.081 285.552H523.047Z" fill="#263238"/>
<path d="M516.421 359.272C517.841 353.29 510.74 347.307 507.63 332.265C504.519 317.224 504.519 313.472 507.63 306.306C510.74 299.14 519.802 285.789 528.626 281.631C530.283 280.854 531.737 273.113 531.973 268.009C532.21 262.905 532.21 260.37 532.21 260.37L555.641 258.444C555.641 258.444 553.24 276.595 555.877 280.178C558.515 283.761 568.556 284.944 576.164 288.527C583.771 292.11 583.095 297.146 583.095 303.805C583.095 310.464 569.706 348.727 570.416 355.656C571.126 362.585 589.045 382.19 592.156 401.761C592.257 402.301 592.291 402.876 592.359 403.451C576.468 408.791 559.901 411.732 543.131 412.171C522.304 412.814 509.659 406.594 502.896 401.558C502.829 398.076 503.065 394.628 503.674 391.181C506.886 375.531 514.933 365.154 516.387 359.171L516.421 359.272Z" fill="#F0FF00"/>
<path d="M540.189 413.016C521.12 413.016 509.219 407.236 502.524 402.234C502.355 402.099 502.254 401.896 502.254 401.693C502.186 398.178 502.423 394.662 503.031 391.181C505.094 381.176 509.151 373.199 512.093 367.385C513.851 363.937 515.237 361.233 515.744 359.103C516.42 356.332 515 353.391 513.039 349.369C511.011 345.177 508.509 339.938 506.954 332.434C503.809 317.291 503.809 313.337 506.987 306.069C510.301 298.464 519.362 285.282 528.322 281.023C529.336 280.55 530.993 274.026 531.263 268.009C531.5 263.007 531.5 260.404 531.5 260.404C531.5 260.032 531.77 259.728 532.142 259.694L555.573 257.768C555.776 257.768 556.012 257.835 556.148 257.97C556.283 258.139 556.351 258.342 556.351 258.545C555.708 263.514 554.423 277.034 556.452 279.772C557.872 281.733 562.132 283.017 566.663 284.403C569.976 285.417 573.357 286.465 576.468 287.918C583.906 291.4 583.872 296.47 583.838 302.318V303.872C583.838 307.016 580.998 316.751 578.023 327.06C574.642 338.755 570.788 352.039 571.159 355.656C571.43 358.157 574.338 362.855 577.753 368.331C583.331 377.288 590.972 389.592 592.933 401.76C593.035 402.301 593.069 402.91 593.136 403.484C593.136 403.822 592.967 404.127 592.663 404.228C576.704 409.602 560.07 412.543 543.232 412.982C542.218 412.982 541.237 413.016 540.257 413.016H540.189ZM503.64 401.287C510.571 406.357 523.013 412.171 543.131 411.529C559.63 411.09 575.961 408.217 591.615 403.011C591.581 402.639 591.547 402.268 591.48 401.93C589.586 390.032 582.013 377.897 576.502 369.041C572.884 363.227 570.01 358.596 569.706 355.791C569.3 351.904 573.019 339.059 576.637 326.654C579.578 316.446 582.385 306.813 582.385 303.872V302.318C582.452 296.504 582.486 292.312 575.859 289.203C572.85 287.783 569.469 286.769 566.223 285.755C561.287 284.234 556.993 282.949 555.269 280.617C552.8 277.237 554.288 263.21 554.795 259.221L532.886 261.012C532.886 262.06 532.818 264.426 532.649 268.043C532.514 271.423 531.331 281.124 528.896 282.273C520.647 286.161 511.586 298.904 508.272 306.576C505.229 313.607 505.229 317.19 508.306 332.096C509.827 339.465 512.296 344.603 514.29 348.726C516.387 353.053 517.874 356.163 517.097 359.408C516.556 361.706 515.136 364.478 513.344 367.993C510.402 373.739 506.413 381.581 504.418 391.384C503.843 394.628 503.606 397.941 503.674 401.253L503.64 401.287Z" fill="#263238"/>
<path d="M552.191 382.156C552.191 382.156 551.988 382.156 551.887 382.088C538.532 376.173 520.849 355.521 520.105 354.642C519.835 354.338 519.902 353.898 520.173 353.628C520.477 353.391 520.917 353.425 521.187 353.695C521.356 353.898 539.411 374.956 552.496 380.736C552.868 380.905 553.003 381.311 552.868 381.683C552.766 381.953 552.496 382.088 552.225 382.088L552.191 382.156Z" fill="#263238"/>
<path d="M559.664 383.745C559.664 383.745 559.427 383.745 559.326 383.643C551.854 379.384 538.904 367.013 538.329 366.472C538.059 366.202 538.025 365.762 538.329 365.458C538.6 365.188 539.04 365.154 539.344 365.458C539.479 365.593 552.733 378.235 560.036 382.392C560.374 382.595 560.509 383.035 560.306 383.373C560.171 383.609 559.934 383.745 559.698 383.745H559.664Z" fill="#263238"/>
<path d="M528.592 281.631C530.283 280.921 531.703 273.113 531.939 268.009C532.176 262.905 532.176 260.37 532.176 260.37L555.607 258.444C555.607 258.444 553.206 276.595 555.843 280.178C557.432 282.375 561.794 283.659 566.696 285.147C565.547 286.566 554.66 297.214 537.011 294.104C528.694 292.684 524.569 289.27 522.27 284.369C524.332 283.321 526.428 282.375 528.592 281.597V281.631Z" fill="white"/>
<path d="M543.435 295.422C541.372 295.422 539.175 295.253 536.876 294.847C528.964 293.495 524.264 290.386 521.627 284.741C521.458 284.403 521.627 283.997 521.931 283.794C523.994 282.713 526.124 281.766 528.321 280.989C529.336 280.482 530.959 274.026 531.229 268.009C531.466 263.007 531.466 260.404 531.466 260.404C531.466 260.032 531.736 259.728 532.108 259.694L555.539 257.768C555.742 257.768 555.978 257.835 556.114 257.97C556.249 258.139 556.317 258.342 556.317 258.545C555.674 263.514 554.389 277.034 556.418 279.772C557.838 281.733 562.098 283.017 566.595 284.403L566.899 284.504C567.136 284.572 567.305 284.741 567.373 284.977C567.44 285.214 567.373 285.451 567.237 285.62C567.136 285.721 558.616 295.422 543.401 295.422H543.435ZM523.216 284.741C525.684 289.541 530.012 292.245 537.112 293.462C551.786 296.03 562.166 288.763 565.412 285.552C560.813 284.132 556.891 282.848 555.268 280.651C552.8 277.305 554.288 263.243 554.795 259.255L532.886 261.046C532.886 262.094 532.818 264.46 532.649 268.077C532.48 271.525 531.331 281.259 528.896 282.307C528.896 282.307 528.896 282.307 528.862 282.307C526.935 283.017 525.076 283.828 523.25 284.741H523.216Z" fill="#263238"/>
<path d="M519.193 269.53C519.193 269.53 522.675 276.493 516.691 283.997C510.706 291.501 503.538 300.661 507.63 306.306C511.721 311.951 523.689 303.467 523.689 303.467C523.689 303.467 519.7 301.472 523.182 291.974C526.665 282.476 530.654 286.498 530.654 273.485L519.193 269.53Z" fill="#263238"/>
<path d="M511.822 308.943C509.928 308.943 508.204 308.334 507.021 306.712C502.524 300.526 510.368 290.724 516.116 283.558C521.762 276.493 518.584 269.902 518.55 269.868C518.415 269.598 518.449 269.294 518.651 269.091C518.854 268.888 519.159 268.787 519.429 268.888L530.891 272.843C531.161 272.944 531.364 273.215 531.364 273.519C531.364 281.631 529.809 283.423 527.814 285.654C526.597 287.039 525.177 288.628 523.858 292.245C520.68 300.898 523.994 302.825 524.027 302.858C524.23 302.96 524.399 303.196 524.399 303.433C524.399 303.67 524.298 303.906 524.095 304.041C523.723 304.312 517.096 308.943 511.822 308.943ZM520.376 270.713C521.12 273.248 521.863 278.691 517.231 284.471C511.788 291.265 504.316 300.594 508.17 305.9C511.247 310.159 519.869 305.089 522.472 303.399C521.356 302.149 519.835 298.937 522.472 291.738C523.892 287.851 525.447 286.127 526.698 284.707C528.524 282.645 529.843 281.158 529.91 274.026L520.342 270.713H520.376Z" fill="#263238"/>
<path d="M530.655 273.519L548.101 272.065L550.332 256.584L530.655 273.519Z" fill="#263238"/>
<path d="M530.655 274.229C530.384 274.229 530.114 274.06 530.012 273.789C529.877 273.519 529.978 273.181 530.215 272.978L549.893 256.044C550.129 255.841 550.434 255.807 550.704 255.942C550.975 256.077 551.11 256.382 551.076 256.652L548.878 272.167C548.845 272.505 548.574 272.741 548.236 272.775L530.79 274.195C530.79 274.195 530.756 274.195 530.722 274.195L530.655 274.229ZM549.352 258.342L532.785 272.606L547.492 271.389L549.352 258.308V258.342Z" fill="#263238"/>
<path d="M508.779 217.003C508.779 217.003 503.336 223.527 504.587 237.859C504.891 241.442 508.948 246.546 508.171 249.892C506.379 258.038 514.696 266.049 516.691 268.516C519.294 271.795 520.951 274.601 524.771 274.364C529.978 273.756 534.982 272.167 539.58 269.666C543.232 267.367 549.791 262.838 549.791 262.838C549.791 262.838 566.291 217.206 508.745 217.003H508.779Z" fill="white"/>
<path d="M524.399 275.074C520.951 275.074 519.125 272.742 517.062 270.071C516.792 269.7 516.488 269.328 516.183 268.956C515.947 268.685 515.642 268.314 515.271 267.908C512.228 264.46 505.837 257.295 507.528 249.757C507.9 248.067 506.818 245.701 505.77 243.402C504.925 241.543 504.045 239.617 503.91 237.96C502.659 223.493 508.035 216.868 508.238 216.564C508.373 216.395 508.576 216.294 508.779 216.294C527.713 216.361 540.73 221.296 547.526 230.997C557.026 244.585 550.772 262.331 550.501 263.075C550.433 263.21 550.366 263.345 550.231 263.413C550.163 263.446 543.604 267.976 539.986 270.24C535.253 272.809 530.181 274.432 524.873 275.04C524.704 275.04 524.535 275.04 524.399 275.04V275.074ZM509.151 217.713C508.204 219.032 504.248 225.521 505.33 237.791C505.466 239.211 506.277 241.036 507.055 242.794C508.204 245.329 509.388 247.932 508.88 250.061C507.359 256.889 513.411 263.683 516.285 266.962C516.691 267.401 516.995 267.773 517.265 268.077C517.57 268.483 517.874 268.855 518.178 269.226C520.274 271.897 521.762 273.857 524.771 273.654C529.877 273.046 534.745 271.491 539.276 269.023C542.488 266.995 548.134 263.142 549.25 262.365C549.926 260.337 554.896 244.011 546.342 231.775C539.885 222.547 527.375 217.815 509.117 217.68L509.151 217.713Z" fill="#263238"/>
<path d="M518.686 256.247C518.686 256.247 518.584 256.247 518.517 256.247C517.502 256.01 512.397 254.861 511.112 253.745C510.03 252.833 511.011 251.481 512.025 250.061C513.039 248.641 514.324 246.85 514.324 245.058C514.324 241.611 511.484 238.028 511.45 237.994C511.214 237.69 511.247 237.25 511.552 236.98C511.856 236.743 512.296 236.777 512.566 237.081C512.701 237.25 515.778 241.104 515.778 245.025C515.778 247.256 514.29 249.317 513.242 250.838C512.769 251.514 512.126 252.427 512.126 252.731C512.87 253.306 516.691 254.354 518.889 254.827C519.26 254.928 519.497 255.3 519.43 255.672C519.362 256.01 519.058 256.213 518.72 256.213L518.686 256.247Z" fill="#263238"/>
<path d="M519.328 260.708C518.009 260.708 517.232 260.506 517.164 260.506C516.792 260.404 516.555 260.032 516.657 259.627C516.758 259.255 517.13 259.018 517.536 259.12C517.604 259.12 522.709 260.37 529.268 255.706C529.572 255.469 530.046 255.537 530.249 255.875C530.485 256.179 530.418 256.652 530.08 256.855C525.549 260.1 521.661 260.708 519.362 260.708H519.328Z" fill="#263238"/>
<path d="M524.061 243.233C524.129 244.45 524.771 245.396 525.481 245.363C526.191 245.329 526.698 244.281 526.631 243.064C526.563 241.847 525.921 240.901 525.211 240.935C524.501 240.969 523.994 242.016 524.061 243.233Z" fill="#263238"/>
<path d="M509.861 244.653C510.233 245.802 511.044 246.613 511.72 246.411C512.397 246.208 512.667 245.092 512.329 243.943C511.991 242.794 511.146 241.983 510.469 242.185C509.793 242.388 509.523 243.504 509.861 244.687V244.653Z" fill="#263238"/>
<path d="M528.051 236.507C528.051 236.507 527.814 236.507 527.713 236.405C527.679 236.405 522.979 233.735 519.463 234.715C519.091 234.817 518.686 234.614 518.584 234.242C518.483 233.87 518.686 233.465 519.057 233.363C523.115 232.214 528.186 235.053 528.423 235.189C528.761 235.391 528.896 235.831 528.693 236.169C528.558 236.405 528.322 236.541 528.085 236.541L528.051 236.507Z" fill="#263238"/>
<path d="M506.378 239.245C506.378 239.245 506.277 239.245 506.209 239.245C505.837 239.143 505.601 238.771 505.702 238.4C506.548 234.918 509.996 234.681 511.721 235.019C512.092 235.087 512.363 235.459 512.261 235.865C512.194 236.236 511.822 236.507 511.416 236.405C511.281 236.405 507.798 235.696 507.088 238.704C507.021 239.042 506.717 239.245 506.412 239.245H506.378Z" fill="#263238"/>
<path d="M596.044 269.53C590.533 248.574 582.08 250.061 580.052 237.081C578.057 224.102 564.566 194.188 544.652 191.686C524.738 189.185 500.732 203.652 496.236 212.643C491.739 221.634 505.229 225.623 505.229 225.623L508.238 219.64C508.238 219.64 519.159 218.153 526.192 226.704C530.452 231.944 535.625 243.267 547.729 245.836C553.747 247.12 546.309 260.032 546.681 265.643C546.917 271.018 546.174 276.426 544.551 281.564H544.179C544.179 281.564 539.682 295.524 541.203 302.013C542.725 308.503 546.207 314.959 543.198 320.976C540.189 326.992 535.219 327.466 535.219 327.466C540.358 330.846 546.647 332.096 552.699 330.947C562.639 328.953 566.663 316.48 566.663 306.509C566.663 297.45 573.222 289.27 579.308 288.899C580.356 289.473 581.269 290.217 582.08 291.096C587.524 297.078 601.589 290.487 596.112 269.564L596.044 269.53Z" fill="#263238"/>
<path d="M548.202 332.029C543.469 332.029 538.803 330.643 534.779 328.006C534.543 327.837 534.407 327.533 534.475 327.229C534.543 326.925 534.779 326.722 535.084 326.688C535.287 326.688 539.75 326.147 542.522 320.604C544.686 316.277 543.266 311.68 541.778 306.813C541.305 305.292 540.831 303.703 540.46 302.149C538.938 295.524 543.266 281.868 543.469 281.293C543.536 281.057 543.739 280.888 543.976 280.82C545.497 275.885 546.14 270.781 545.937 265.643C545.802 263.514 546.681 260.539 547.627 257.396C548.777 253.576 550.028 249.25 548.946 247.424C548.675 246.951 548.202 246.647 547.56 246.512C537.653 244.416 532.277 236.608 528.355 230.896C527.409 229.51 526.496 228.158 525.651 227.144C519.666 219.877 510.639 220.147 508.712 220.316L505.905 225.961C505.736 226.265 505.398 226.434 505.06 226.333C504.756 226.231 497.419 224 495.255 219.032C494.342 216.936 494.477 214.705 495.661 212.339C500.09 203.483 523.892 188.408 544.787 191.01C565.513 193.613 578.936 224.947 580.795 237.014C581.708 242.828 583.872 245.599 586.645 249.081C589.823 253.069 593.745 258.004 596.754 269.395C600.203 282.578 596.145 290.149 591.175 292.819C587.76 294.679 583.872 294.171 581.505 291.603C580.795 290.825 579.984 290.183 579.105 289.642C573.729 290.115 567.339 297.653 567.339 306.509C567.339 317.562 562.842 329.629 552.8 331.657C551.279 331.927 549.757 332.096 548.236 332.096L548.202 332.029ZM536.977 327.702C541.677 330.339 547.154 331.251 552.496 330.237C561.692 328.378 565.885 316.615 565.885 306.475C565.885 297.45 572.343 288.561 579.206 288.155C579.342 288.155 579.477 288.155 579.612 288.256C580.728 288.865 581.708 289.676 582.554 290.589C584.481 292.684 587.659 293.056 590.465 291.535C594.962 289.101 598.58 282.104 595.334 269.699C592.426 258.579 588.741 253.982 585.495 249.892C582.723 246.377 580.288 243.368 579.342 237.183C577.516 225.454 564.533 194.864 544.551 192.396C524.602 189.895 501.037 204.632 496.878 212.947C495.897 214.908 495.762 216.733 496.506 218.423C498.095 222.074 503.167 224.135 504.857 224.744L507.596 219.302C507.697 219.099 507.9 218.964 508.137 218.93C508.61 218.863 519.531 217.51 526.732 226.231C527.612 227.313 528.558 228.665 529.539 230.085C533.326 235.594 538.499 243.132 547.864 245.126C548.912 245.363 549.69 245.87 550.163 246.715C551.583 249.081 550.332 253.34 548.98 257.835C548.134 260.708 547.222 263.717 547.357 265.576C547.594 271.085 546.85 276.527 545.193 281.733C545.125 281.969 544.923 282.138 544.686 282.206C543.942 284.673 540.561 296.233 541.88 301.811C542.218 303.332 542.691 304.886 543.164 306.408C544.652 311.342 546.207 316.446 543.807 321.246C541.744 325.336 538.837 326.992 536.977 327.668V327.702Z" fill="#263238"/>
<path d="M595.469 428.666C594.962 430.154 594.319 431.573 593.542 432.925C590.769 437.86 591.006 438.097 590.533 440.868C590.161 443.573 589.248 446.175 587.862 448.541C586.678 450.231 587.388 451.313 588.47 451.178C590.093 450.637 591.412 449.42 592.088 447.832C592.663 446.615 593.339 445.432 594.117 444.35C593.981 447.933 594.117 451.482 594.488 455.065C595.097 458.547 595.807 465.002 597.734 465.645C599.661 466.287 599.29 463.853 599.29 463.853C599.425 465.002 600.236 465.949 601.352 466.253C602.366 466.456 603.381 465.848 603.651 464.834C604.327 465.577 605.342 465.881 606.288 465.679C607.708 465.205 607.235 460.406 607.235 460.406C607.235 460.406 608.655 463.414 610.007 463.414C611.36 463.414 609.162 459.696 608.925 457.025C608.689 454.355 609.297 446.919 608.452 444.147C607.607 441.375 607.607 429.849 607.607 429.849L595.435 428.7L595.469 428.666Z" fill="white"/>
<path d="M601.724 466.963C601.555 466.963 601.386 466.963 601.217 466.895C600.541 466.693 599.966 466.355 599.526 465.881C599.492 465.949 599.425 465.983 599.357 466.05C599.019 466.321 598.444 466.591 597.498 466.287C595.57 465.679 594.827 461.758 594.049 456.755C593.948 456.18 593.88 455.64 593.778 455.166C593.474 452.428 593.339 449.657 593.339 446.919C593.136 447.324 592.899 447.73 592.697 448.136C591.953 449.893 590.499 451.245 588.673 451.854C588.639 451.854 588.572 451.854 588.538 451.854C587.794 451.955 587.118 451.651 586.78 451.043C586.577 450.671 586.171 449.657 587.287 448.102C588.572 445.837 589.451 443.336 589.823 440.733L589.958 439.821C590.262 437.759 590.397 437.015 592.899 432.553C593.643 431.235 594.252 429.849 594.759 428.396C594.86 428.092 595.165 427.889 595.503 427.923L607.675 429.072C608.046 429.106 608.317 429.41 608.317 429.782C608.317 429.883 608.317 441.24 609.128 443.877C609.703 445.77 609.636 449.42 609.602 452.665C609.602 454.355 609.568 455.978 609.636 456.89C609.737 457.904 610.143 459.121 610.515 460.203C611.056 461.825 611.428 462.907 610.954 463.583C610.751 463.853 610.413 464.022 610.041 464.022C609.297 464.022 608.621 463.481 608.046 462.839C607.979 464.36 607.607 465.915 606.525 466.253C605.578 466.456 604.665 466.321 603.888 465.848C603.381 466.524 602.603 466.895 601.758 466.895L601.724 466.963ZM600.033 463.786C600.169 464.631 600.743 465.307 601.555 465.543C602.163 465.679 602.806 465.273 602.975 464.631C603.043 464.394 603.245 464.191 603.482 464.124C603.753 464.056 603.989 464.124 604.192 464.326C604.665 464.867 605.409 465.104 606.153 464.935C606.491 464.833 606.762 462.704 606.559 460.406C606.559 460.068 606.762 459.73 607.066 459.662C607.404 459.561 607.742 459.73 607.911 460.034C608.385 461.048 609.196 462.197 609.737 462.535C609.636 462.062 609.399 461.284 609.196 460.676C608.824 459.527 608.351 458.208 608.249 457.025C608.148 456.045 608.182 454.457 608.216 452.665C608.249 449.691 608.317 445.972 607.81 444.316C607.066 441.849 606.965 432.959 606.931 430.458L595.976 429.41C595.469 430.728 594.894 432.046 594.184 433.263C591.817 437.488 591.716 438.131 591.412 440.057L591.277 440.97C590.871 443.775 589.958 446.446 588.538 448.913C587.963 449.724 587.963 450.198 588.064 450.367C588.132 450.468 588.267 450.502 588.369 450.502C589.755 449.995 590.905 448.947 591.479 447.561C592.088 446.277 592.798 445.06 593.576 443.944C593.745 443.674 594.083 443.573 594.387 443.674C594.691 443.775 594.894 444.046 594.86 444.384C594.725 447.899 594.86 451.482 595.232 454.997C595.3 455.437 595.401 455.978 595.503 456.552C595.909 459.155 596.754 464.563 598.005 464.969C598.275 465.07 598.444 465.036 598.478 465.003C598.613 464.867 598.681 464.36 598.647 463.988C598.647 463.988 598.647 463.955 598.647 463.921C598.613 463.549 598.884 463.177 599.256 463.143C599.628 463.11 600 463.346 600.067 463.752C600.067 463.752 600.067 463.786 600.067 463.819L600.033 463.786Z" fill="#263238"/>
<path d="M599.29 464.462C598.918 464.462 598.613 464.191 598.579 463.819C598.072 459.324 597.903 454.761 598.106 450.231C598.106 449.826 598.478 449.521 598.85 449.555C599.256 449.555 599.56 449.893 599.526 450.299C599.323 454.761 599.526 459.256 600 463.65C600.033 464.056 599.763 464.394 599.391 464.428H599.323L599.29 464.462Z" fill="#263238"/>
<path d="M603.651 465.442C603.245 465.442 602.941 465.138 602.941 464.732C602.941 464.631 602.941 455.876 603.313 450.164C603.313 449.758 603.685 449.454 604.057 449.488C604.462 449.488 604.733 449.86 604.733 450.232C604.395 455.91 604.395 464.631 604.395 464.732C604.395 465.138 604.09 465.442 603.685 465.442H603.651Z" fill="#263238"/>
<path d="M607.235 460.98C606.897 460.98 606.593 460.71 606.525 460.372C606.052 456.958 605.916 453.443 606.153 449.995C606.153 449.589 606.559 449.319 606.897 449.319C607.303 449.319 607.573 449.691 607.573 450.062C607.336 453.409 607.472 456.789 607.911 460.135C607.979 460.507 607.708 460.879 607.303 460.946C607.303 460.946 607.235 460.946 607.201 460.946L607.235 460.98Z" fill="#263238"/>
<path d="M568.488 291.062C568.488 291.062 572.748 286.093 581.979 291.062C591.209 296.031 613.963 377.052 613.963 379.891C613.963 387.598 612.543 395.541 611.833 403.214C610.886 413.05 609.703 422.853 608.993 432.689C608.655 437.049 604.902 438.604 600.98 438.266C599.053 438.097 597.193 437.624 595.435 436.846C592.933 435.697 591.953 433.703 591.276 431.168C589.856 425.489 591.276 380.703 591.276 380.703L567.812 332.367" fill="#F0FF00"/>
<path d="M602.062 439.009C601.69 439.009 601.352 439.009 600.98 438.976C598.985 438.807 597.024 438.3 595.198 437.488C592.223 436.136 591.276 433.736 590.634 431.337C589.248 425.726 590.499 384.353 590.634 380.871L567.237 332.705C567.068 332.367 567.237 331.927 567.575 331.758C567.947 331.589 568.353 331.758 568.522 332.096L591.986 380.432C591.986 380.432 592.054 380.635 592.054 380.77C592.054 381.209 590.668 425.489 592.054 431.032C592.663 433.398 593.542 435.224 595.807 436.238C597.498 436.981 599.289 437.455 601.149 437.59C603.448 437.793 605.409 437.286 606.728 436.204C607.742 435.359 608.283 434.176 608.418 432.655C608.892 426.03 609.602 419.303 610.278 412.78C610.616 409.569 610.954 406.358 611.258 403.18C611.495 400.611 611.799 397.975 612.104 395.44C612.712 390.336 613.355 385.063 613.355 379.959C613.219 375.362 590.093 296.233 581.742 291.772C573.154 287.141 569.266 291.434 569.097 291.603C568.826 291.907 568.387 291.941 568.082 291.67C567.778 291.4 567.744 290.96 568.015 290.656C568.218 290.42 572.748 285.316 582.384 290.487C586.475 292.684 593.136 308.03 602.197 336.119C608.959 357.042 614.775 378.37 614.775 379.959C614.775 385.164 614.132 390.471 613.524 395.643C613.219 398.178 612.915 400.814 612.678 403.349C612.374 406.56 612.036 409.771 611.698 412.983C611.022 419.472 610.312 426.199 609.838 432.824C609.703 434.717 608.959 436.238 607.641 437.353C606.288 438.502 604.361 439.111 602.13 439.111L602.062 439.009Z" fill="#263238"/>
</g>
<defs>
<clipPath id="clip0_1024_1447">
<rect width="652" height="631" fill="white"/>
</clipPath>
</defs>
</svg>
