<svg width="184" height="165" viewBox="0 0 184 165" fill="none" xmlns="http://www.w3.org/2000/svg">
<path d="M24.5374 34.9646C50.3405 -4.51024 79.9724 -0.0111829 89.6434 30.931C99.3145 61.8731 140.37 38.1276 163.38 71.0282C167.43 76.8294 170.068 83.4382 171.092 90.3499C175.833 121.078 150.517 148.085 117.011 148.774L68.6768 149.768C36.9285 150.418 9.83067 127.11 8.62004 97.8019C7.74321 76.9896 11.9279 54.2501 24.5374 34.9646Z" fill="#E3EBFF"/>
<path d="M72.7025 65.3889V43.8216H61.3103" stroke="#263238" stroke-linecap="round" stroke-linejoin="round"/>
<path d="M72.7025 68.4793V70.3897H71.9515" stroke="#263238" stroke-linecap="round" stroke-linejoin="round"/>
<path d="M54.8198 67.65V70.3897H70.3794" stroke="#263238" stroke-linecap="round" stroke-linejoin="round"/>
<path d="M59.7052 43.8216H54.8199V65.1207" stroke="#263238" stroke-linecap="round" stroke-linejoin="round"/>
<path d="M33.9954 52.9899V58.7293H52.2205V38.5155" stroke="#263238" stroke-linecap="round" stroke-linejoin="round"/>
<path d="M33.9953 49.07V51.3559" stroke="#263238" stroke-linecap="round" stroke-linejoin="round"/>
<path d="M52.2205 36.506V33.5105H33.9954V46.1199" stroke="#263238" stroke-linecap="round" stroke-linejoin="round"/>
<path d="M67.7676 89.5515L69.612 97.779L74.1218 96.7681" stroke="#263238" stroke-linecap="round" stroke-linejoin="round"/>
<path d="M75.1617 96.5328L77.8395 95.9345L75.9952 87.707L68.6135 89.3615" stroke="#263238" stroke-linecap="round" stroke-linejoin="round"/>
<path d="M71.9598 89.634C71.9667 89.6844 71.984 89.7328 72.0106 89.7762C72.0372 89.8196 72.0725 89.857 72.1143 89.886C72.1561 89.915 72.2035 89.935 72.2534 89.9448C72.3034 89.9545 72.3548 89.9537 72.4044 89.9426C72.4541 89.9314 72.5008 89.91 72.5418 89.8798C72.5827 89.8495 72.6169 89.8111 72.6422 89.767C72.6675 89.7228 72.6834 89.6739 72.6888 89.6233C72.6942 89.5727 72.689 89.5216 72.6736 89.4731C72.6667 89.4226 72.6495 89.3742 72.6229 89.3308C72.5963 89.2875 72.561 89.2501 72.5192 89.221C72.4774 89.192 72.43 89.172 72.38 89.1623C72.3301 89.1526 72.2787 89.1533 72.229 89.1645C72.1794 89.1757 72.1326 89.1971 72.0917 89.2273C72.0507 89.2575 72.0165 89.2959 71.9912 89.3401C71.9659 89.3842 71.95 89.4331 71.9446 89.4837C71.9392 89.5343 71.9444 89.5855 71.9598 89.634Z" fill="#263238"/>
<path d="M64.3966 93.9912L65.4941 86.3744L59.6185 85.5285" stroke="#263238" stroke-linecap="round" stroke-linejoin="round"/>
<path d="M57.2171 89.8651L56.7798 92.8937L62.6306 93.7354" stroke="#263238" stroke-linecap="round" stroke-linejoin="round"/>
<path d="M57.8773 85.2768L57.4193 88.4457" stroke="#263238" stroke-linecap="round" stroke-linejoin="round"/>
<path d="M61.3144 86.9768C61.3044 87.0488 61.3161 87.1221 61.3478 87.1875C61.3796 87.2529 61.43 87.3074 61.4927 87.3441C61.5555 87.3808 61.6277 87.3981 61.7003 87.3937C61.7728 87.3893 61.8425 87.3635 61.9004 87.3195C61.9582 87.2755 62.0018 87.2154 62.0254 87.1466C62.0491 87.0779 62.0518 87.0037 62.0332 86.9334C62.0146 86.8631 61.9756 86.7999 61.9211 86.7518C61.8666 86.7037 61.7991 86.6729 61.727 86.6632C61.6309 86.6514 61.534 86.6775 61.457 86.7361C61.3799 86.7947 61.3287 86.881 61.3144 86.9768Z" fill="#263238"/>
<path d="M140.743 69.4152C140.616 67.8173 140.089 66.277 139.21 64.9363C138.331 63.5957 137.129 62.4979 135.714 61.744" stroke="#263238" stroke-linecap="round" stroke-linejoin="round"/>
<path d="M133.443 79.4697C135.847 78.8943 137.934 77.4073 139.263 75.3226" stroke="#263238" stroke-linecap="round" stroke-linejoin="round"/>
<path d="M121.684 70.9376C121.784 72.1888 122.129 73.4081 122.7 74.5259C123.271 75.6437 124.057 76.638 125.012 77.452C125.968 78.2661 127.074 78.884 128.269 79.2704C129.463 79.6569 130.722 79.8043 131.973 79.7042" stroke="#263238" stroke-linecap="round" stroke-linejoin="round"/>
<path d="M130.45 60.652C128.278 60.8255 126.231 61.7358 124.646 63.2321C123.062 64.7284 122.037 66.721 121.74 68.8797" stroke="#263238" stroke-linecap="round" stroke-linejoin="round"/>
<path d="M127.094 77.5344C128.428 78.2797 129.938 78.6492 131.465 78.6033C132.992 78.5574 134.478 78.0978 135.764 77.2737C137.05 76.4496 138.088 75.2917 138.768 73.9238C139.448 72.5558 139.743 71.029 139.623 69.5062" stroke="#263238" stroke-linecap="round" stroke-linejoin="round"/>
<path d="M139.081 67.144C138.635 65.9928 137.943 64.9534 137.051 64.0992C136.16 63.2451 135.092 62.5971 133.923 62.2009C132.754 61.8048 131.512 61.6702 130.286 61.8067C129.059 61.9431 127.877 62.3473 126.824 62.9907C125.77 63.634 124.871 64.5009 124.189 65.53C123.507 66.5591 123.06 67.7253 122.879 68.9462C122.697 70.1672 122.786 71.4131 123.139 72.596C123.492 73.7788 124.1 74.8697 124.921 75.7917" stroke="#263238" stroke-linecap="round" stroke-linejoin="round"/>
<path d="M126.097 74.0592L131.21 70.1781L128.379 67.1439" stroke="#263238" stroke-linecap="round" stroke-linejoin="round"/>
<path d="M154.142 137.951L156.896 114.472C156.983 113.73 156.913 112.978 156.689 112.266C156.465 111.553 156.093 110.896 155.598 110.337C155.102 109.778 154.494 109.33 153.813 109.023C153.132 108.716 152.394 108.556 151.646 108.554H135.587C133.833 108.554 132.138 109.188 130.815 110.338C129.491 111.489 128.628 113.079 128.384 114.815L124.535 142.259" stroke="#263238" stroke-linecap="round" stroke-linejoin="round"/>
<path d="M153.634 142.259L153.851 140.422" stroke="#263238" stroke-linecap="round" stroke-linejoin="round"/>
<path d="M155.745 144.254L159.006 116.467C159.78 111.823 156.952 108.554 154.726 108.554" stroke="#263238" stroke-linecap="round" stroke-linejoin="round"/>
<path d="M97.7552 133.034C98.4167 136.59 101.871 138.406 105.105 137.955C106.896 137.703 108.314 137.353 109.416 135.628C110.302 134.245 110.991 131.977 111.516 128.159C111.866 125.535 111.334 122.507 110.407 119.571C108.307 112.922 104.202 106.703 104.202 106.703C104.202 106.703 101.237 110.885 101.01 115.69C100.782 120.495 99.4526 127.939 99.4526 127.939C99.4526 127.939 97.0973 129.482 97.7552 133.034Z" fill="#421CDD"/>
<mask id="mask0_21_838" style="mask-type:luminance" maskUnits="userSpaceOnUse" x="97" y="106" width="15" height="33">
<path d="M97.7552 133.034C98.4167 136.59 101.871 138.406 105.105 137.955C106.896 137.703 108.314 137.353 109.416 135.628C110.302 134.245 110.991 131.977 111.516 128.159C111.866 125.535 111.334 122.507 110.407 119.571C108.307 112.922 104.202 106.703 104.202 106.703C104.202 106.703 101.237 110.885 101.01 115.69C100.782 120.495 99.4526 127.939 99.4526 127.939C99.4526 127.939 97.0973 129.482 97.7552 133.034Z" fill="white"/>
</mask>
<g mask="url(#mask0_21_838)">
<path opacity="0.2" d="M105.101 134.753C106.441 135.405 107.924 135.706 109.413 135.628C110.298 134.245 110.987 131.977 111.512 128.159C111.862 125.535 111.33 122.507 110.403 119.571C108.084 118.156 105.62 116.995 103.054 116.106C103.054 116.106 102.144 120.306 103.054 122.84C103.054 122.84 101.636 121.146 101.783 122.378C101.93 123.61 98.2452 131.568 105.101 134.753Z" fill="black"/>
</g>
<path d="M97.7552 133.034C98.4167 136.59 101.871 138.406 105.105 137.955C106.896 137.703 108.314 137.353 109.416 135.628C110.302 134.245 110.991 131.977 111.516 128.159C111.866 125.535 111.334 122.507 110.407 119.571C108.307 112.922 104.202 106.703 104.202 106.703C104.202 106.703 101.237 110.885 101.01 115.69C100.782 120.495 99.4526 127.939 99.4526 127.939C99.4526 127.939 97.0973 129.482 97.7552 133.034Z" stroke="#263238" stroke-linecap="round" stroke-linejoin="round"/>
<path d="M90.007 126.763C90.007 126.763 97.0063 128.989 98.4062 129.083C99.806 129.178 102.742 131.743 101.783 134.2C100.824 136.656 96.5933 136.111 94.7525 135.155C92.9117 134.2 89.853 131.246 88.6106 131.155" fill="white"/>
<path d="M90.007 126.763C90.007 126.763 97.0063 128.989 98.4062 129.083C99.806 129.178 102.742 131.743 101.783 134.2C100.824 136.656 96.5933 136.111 94.7525 135.155C92.9117 134.2 89.853 131.246 88.6106 131.155" stroke="#263238" stroke-linecap="round" stroke-linejoin="round"/>
<path d="M90.5774 127.095C90.1295 126.56 88.3201 126.473 86.8433 126.046C84.4425 125.346 83.9421 124.978 83.0882 125.174C81.6428 125.524 77.9681 128.859 77.9681 129.451C77.9681 130.042 79.648 131.757 79.648 131.757C79.648 131.757 88.3341 133.178 90.007 130.858" fill="white"/>
<path d="M90.5774 127.095C90.1295 126.56 88.3201 126.473 86.8433 126.046C84.4425 125.346 83.9421 124.978 83.0882 125.174C81.6428 125.524 77.9681 128.859 77.9681 129.451C77.9681 130.042 79.648 131.757 79.648 131.757C79.648 131.757 88.3341 133.178 90.007 130.858" stroke="#263238" stroke-linecap="round" stroke-linejoin="round"/>
<path d="M86.3463 128.299C86.4863 128.537 86.6963 129.741 85.7374 129.857C84.7785 129.972 81.7408 129.507 81.2123 130.858C80.6839 132.208 85.4119 131.974 86.8328 132.131C88.2536 132.289 89.5345 131.327 89.5345 131.327" fill="white"/>
<path d="M86.3463 128.299C86.4863 128.537 86.6963 129.741 85.7374 129.857C84.7785 129.972 81.7408 129.507 81.2123 130.858C80.6839 132.208 85.4119 131.974 86.8328 132.131C88.2536 132.289 89.5345 131.327 89.5345 131.327" stroke="#263238" stroke-linecap="round" stroke-linejoin="round"/>
<path d="M85.3629 127.946C85.0876 128.222 84.7602 128.44 84.3997 128.589C84.0393 128.737 83.6529 128.812 83.2631 128.81" fill="white"/>
<path d="M85.3629 127.946C85.0876 128.222 84.7602 128.44 84.3997 128.589C84.0393 128.737 83.6529 128.812 83.2631 128.81" stroke="#263238" stroke-linecap="round" stroke-linejoin="round"/>
<path d="M83.7671 126.609C83.7671 126.609 83.4521 128.1 82.5387 127.855Z" fill="white"/>
<path d="M83.7671 126.609C83.7671 126.609 83.4521 128.1 82.5387 127.855" stroke="#263238" stroke-linecap="round" stroke-linejoin="round"/>
<path d="M148.36 148.968C148.36 148.968 142.719 101.467 117.143 100.005L105.731 104.106C105.127 104.915 104.61 105.786 104.188 106.703C102.626 109.917 102.123 113.544 102.749 117.062C103.049 118.653 103.564 120.195 104.282 121.646C107.761 128.74 113.066 139.054 114.781 148.965" fill="#421CDD"/>
<mask id="mask1_21_838" style="mask-type:luminance" maskUnits="userSpaceOnUse" x="102" y="100" width="47" height="49">
<path d="M148.36 148.968C148.36 148.968 142.719 101.467 117.143 100.005L105.731 104.106C105.127 104.915 104.61 105.786 104.188 106.703C102.626 109.917 102.123 113.544 102.749 117.062C103.049 118.653 103.564 120.195 104.282 121.646C107.761 128.74 113.066 139.054 114.781 148.965" fill="white"/>
</mask>
<g mask="url(#mask1_21_838)">
<path opacity="0.2" d="M107.761 128.782C109.066 131.582 110.4 134.574 111.572 137.682L114.473 137.955C114.473 137.955 134.803 144.303 141.025 141.85C143.475 140.881 144.903 138.375 145.722 135.698C143.538 127.298 139.772 116.624 133.557 109.142C134.257 115.015 135.391 129.675 130.243 132.751C125.095 135.827 112.664 130.927 107.761 128.782Z" fill="black"/>
<path opacity="0.2" d="M107.981 112.166L110.781 109.506L113.042 110.881C117.924 108.243 119.81 102.965 120.447 100.47C119.361 100.224 118.256 100.068 117.143 100.005L106.795 103.721C105.605 104.771 104.657 105.772 104.216 106.65L104.195 106.689C104.163 106.755 104.132 106.818 104.104 106.881C102.595 110.51 107.981 112.166 107.981 112.166Z" fill="black"/>
</g>
<path d="M148.36 148.968C148.36 148.968 142.719 101.467 117.143 100.005L105.731 104.106C105.127 104.915 104.61 105.786 104.188 106.703C102.626 109.917 102.123 113.544 102.749 117.062C103.049 118.653 103.564 120.195 104.282 121.646C107.761 128.74 113.066 139.054 114.781 148.965" stroke="#263238" stroke-linecap="round" stroke-linejoin="round"/>
<path d="M117.143 103.707C118.62 103.894 120.077 104.219 121.493 104.677" stroke="#263238" stroke-linecap="round" stroke-linejoin="round"/>
<path d="M116.041 100.494C116.041 100.494 113.591 110.182 108.877 115.095L108.177 118.644C108.177 118.644 109.413 125.857 108.331 128.425C107.25 130.994 108.478 132.072 111.208 133.752C113.938 135.432 114.358 141.773 114.358 141.773L111.495 144.3L108.902 141.706C108.902 141.706 109.175 135.565 108.902 134.473C108.629 133.381 106.452 133.178 105.556 132.086C104.66 130.994 105.808 127.568 106.536 125.22C107.264 122.871 107.264 118.644 107.264 118.644L106.011 115.022C106.011 115.022 103.708 109.772 104.289 107.585L105.654 107.826C105.654 107.826 104.758 110.657 106.511 114.406L108.167 114.339C108.167 114.339 112.972 107.525 113.924 103.7C114.876 99.875 116.041 100.494 116.041 100.494Z" fill="#263238"/>
<path d="M107.785 112.638L109.287 109.023L111.894 112.299C111.894 112.299 118.697 104.677 117.525 99.3151C117.525 99.3151 114.375 97.5653 113.21 97.5268C110.351 97.4708 105.51 102.71 104.111 105.646C102.711 108.582 102.417 110.43 102.417 110.43C102.417 110.43 104.111 107.371 104.111 108.138C104.111 108.533 105.101 109.734 106.053 110.794" fill="#421CDD"/>
<path d="M107.785 112.638L109.287 109.023L111.894 112.299C111.894 112.299 118.697 104.677 117.525 99.3151C117.525 99.3151 114.375 97.5653 113.21 97.5268C110.351 97.4708 105.51 102.71 104.111 105.646C102.711 108.582 102.417 110.43 102.417 110.43C102.417 110.43 104.111 107.371 104.111 108.138C104.111 108.533 105.101 109.734 106.053 110.794" stroke="#263238" stroke-linecap="round" stroke-linejoin="round"/>
<path d="M99.449 96.8898C99.771 98.1273 100.188 99.3383 100.695 100.512C101.139 101.516 101.692 102.465 102.305 102.934C102.403 103.007 102.504 103.091 102.606 103.175C103.545 103.984 104.418 104.866 105.216 105.814C105.566 106.209 107.579 111.823 107.579 111.823C107.579 111.823 108.979 107.567 109.35 107.315C114.249 104.005 113.304 99.826 113.304 99.826C106.784 97.5233 106.602 94.0236 106.602 94.0236L102.42 87.8152L99.449 96.8898Z" fill="white" stroke="#263238" stroke-linecap="round" stroke-linejoin="round"/>
<path d="M113.294 99.826C113.294 99.826 113.094 98.1987 112.139 98.3807" stroke="#263238" stroke-linecap="round" stroke-linejoin="round"/>
<path d="M100.695 100.512C101.139 101.516 101.692 102.465 102.305 102.934C102.403 103.007 102.504 103.091 102.606 103.175C104.524 101.268 104.139 100.316 104.205 99.0981L100.695 100.512Z" fill="#263238"/>
<path d="M107.516 96.3439C109.938 87.8678 105.804 76.9208 97.2268 76.9768C84.3236 77.0573 88.2537 88.9456 89.3736 93.9117C90.3325 98.1813 89.4436 101.341 94.0701 104.939C96.2399 106.629 101.944 103.189 104.121 100.663C104.741 99.9346 104.615 98.7027 104.615 98.7027" fill="white"/>
<path d="M107.516 96.3439C109.938 87.8678 105.804 76.9208 97.2268 76.9768C84.3236 77.0573 88.2537 88.9456 89.3736 93.9117C90.3325 98.1813 89.4436 101.341 94.0701 104.939C96.2399 106.629 101.944 103.189 104.121 100.663C104.741 99.9346 104.615 98.7027 104.615 98.7027" stroke="#263238" stroke-linecap="round" stroke-linejoin="round"/>
<path d="M90.196 88.4242C90.196 88.4242 88.7961 88.3822 88.3341 89.2326" stroke="#263238" stroke-linecap="round" stroke-linejoin="round"/>
<path d="M94.0701 87.7242C94.0701 87.7242 96.7333 86.3733 98.5706 87.9902" stroke="#263238" stroke-linecap="round" stroke-linejoin="round"/>
<path d="M96.2574 91.5739C96.3484 91.9833 96.6073 92.2738 96.8348 92.2213C97.0623 92.1688 97.1848 91.8014 97.0938 91.3919C96.8397 91.2295 96.548 91.1354 96.2469 91.1189C96.2191 91.2697 96.2227 91.4246 96.2574 91.5739Z" fill="#263238"/>
<path d="M95.9214 91.098C96.0297 91.089 96.1386 91.089 96.2469 91.098C96.548 91.1145 96.8397 91.2085 97.0938 91.3709" stroke="#263238" stroke-linecap="round" stroke-linejoin="round"/>
<path d="M96.3134 92.4243C96.3853 92.6351 96.5248 92.8162 96.7102 92.9396C96.8956 93.063 97.1166 93.1217 97.3388 93.1067" fill="white"/>
<path d="M96.3134 92.4243C96.3853 92.6351 96.5248 92.8162 96.7102 92.9396C96.8956 93.063 97.1166 93.1217 97.3388 93.1067" stroke="#263238" stroke-linecap="round" stroke-linejoin="round"/>
<path d="M96.8943 90.4785C96.6072 90.4056 96.3065 90.4056 96.0194 90.4785Z" fill="white"/>
<path d="M96.8943 90.4785C96.6072 90.4056 96.3065 90.4056 96.0194 90.4785" stroke="#263238" stroke-linecap="round" stroke-linejoin="round"/>
<path d="M96.3694 88.6937C95.9144 88.7777 95.8444 89.6841 95.8444 89.6841Z" fill="white"/>
<path d="M96.3694 88.6937C95.9144 88.7777 95.8444 89.6841 95.8444 89.6841" stroke="#263238" stroke-linecap="round" stroke-linejoin="round"/>
<path d="M90.7419 92.7743C90.8329 93.1838 91.0919 93.4742 91.3194 93.4182C91.5469 93.3623 91.6694 92.9983 91.5749 92.5888C91.3215 92.4249 91.0294 92.3307 90.7279 92.3159C90.6998 92.4679 90.7046 92.6243 90.7419 92.7743Z" fill="#263238"/>
<path d="M90.4059 92.3088C90.5132 92.3033 90.6206 92.3033 90.7279 92.3088C91.0293 92.3237 91.3214 92.4179 91.5748 92.5818" stroke="#263238" stroke-linecap="round" stroke-linejoin="round"/>
<path d="M90.7944 93.6353C90.8668 93.8457 91.0064 94.0265 91.1917 94.1498C91.377 94.2731 91.5977 94.3321 91.8198 94.3177" fill="white"/>
<path d="M90.7944 93.6353C90.8668 93.8457 91.0064 94.0265 91.1917 94.1498C91.377 94.2731 91.5977 94.3321 91.8198 94.3177" stroke="#263238" stroke-linecap="round" stroke-linejoin="round"/>
<path d="M91.3788 91.6928C91.0907 91.6191 90.7886 91.6191 90.5004 91.6928Z" fill="white"/>
<path d="M91.3788 91.6928C91.0907 91.6191 90.7886 91.6191 90.5004 91.6928" stroke="#263238" stroke-linecap="round" stroke-linejoin="round"/>
<path d="M90.8504 89.9045C90.3989 89.9885 90.329 90.8949 90.329 90.8949Z" fill="white"/>
<path d="M90.8504 89.9045C90.3989 89.9885 90.329 90.8949 90.329 90.8949" stroke="#263238" stroke-linecap="round" stroke-linejoin="round"/>
<path d="M91.8758 89.6806C93.4787 91.4654 92.7437 94.1461 91.8478 95.28C90.9519 96.4139 93.1882 97.1419 93.1882 97.1419" fill="white"/>
<path d="M91.8758 89.6806C93.4787 91.4654 92.7437 94.1461 91.8478 95.28C90.9519 96.4139 93.1882 97.1419 93.1882 97.1419" stroke="#263238" stroke-linecap="round" stroke-linejoin="round"/>
<path d="M97.0763 100.431C97.2968 100.697 96.7613 100.827 96.5128 100.918C96.1809 101.005 95.8408 101.058 95.4979 101.075C94.9555 101.152 93.5906 101.18 92.8242 100.239L92.6002 99.8015C92.6002 99.8015 96.4393 99.679 97.0763 100.431Z" fill="white" stroke="#263238" stroke-linecap="round" stroke-linejoin="round"/>
<path d="M104.895 91.2554C104.492 91.5804 104.008 91.7875 103.495 91.8538C103.098 91.1157 102.663 90.3985 102.193 89.7051C101.58 88.8406 98.0212 85.9674 98.3117 83.4057C97.3873 83.2435 96.4504 83.1639 95.5119 83.1677C95.5119 83.1677 96.0894 84.6865 93.7061 84.6621C91.3228 84.6376 91.6763 85.9604 91.6763 85.9604C91.6763 85.9604 90.7139 85.7435 91.3263 84.6341C91.3263 84.6341 87.6412 84.5676 88.0891 87.5983C88.0891 87.5983 87.1617 88.4172 86.2903 86.9613C86.4255 87.0326 86.5814 87.0537 86.7306 87.021C86.8799 86.9884 87.0127 86.904 87.1057 86.7828C87.4347 86.3454 85.6219 83.8151 86.9763 82.1178C86.9763 82.1178 85.5379 78.7756 88.1276 77.5367C90.7174 76.2979 90.7979 74.45 90.7979 74.45C90.7979 74.45 91.4978 74.7195 91.4068 75.7204C91.4068 75.7204 95.0395 74.0686 96.5653 74.3416C98.0912 74.6145 99.526 75.8849 99.526 75.8849C99.526 75.8849 103.603 74.7475 105.577 77.3618C107.551 79.976 108.79 79.2166 108.79 79.2166C108.79 79.2166 108.576 80.1895 107.768 80.116C107.768 80.116 110.259 83.1292 109.686 86.3489C109.112 89.5686 110.49 90.0025 110.49 90.0025C110.356 90.1551 110.176 90.2609 109.977 90.3049C109.779 90.349 109.571 90.3288 109.385 90.2475C109.385 90.2475 109.896 94.6046 107.687 96.6064C106.865 97.3448 106.266 96.9389 105.972 95.875C105.643 94.7446 105.808 92.2353 104.895 91.2554Z" fill="#757575" stroke="#263238" stroke-linecap="round" stroke-linejoin="round"/>
<path d="M104.034 92.0393C104.034 92.0393 104.384 89.0681 105.818 88.5187C107.253 87.9692 109.15 91.5914 108.013 93.9956C106.875 96.3999 105.745 97.3833 104.965 96.2774C104.184 95.1715 105.395 95.1715 105.395 95.1715" fill="white"/>
<path d="M104.034 92.0393C104.034 92.0393 104.384 89.0681 105.818 88.5187C107.253 87.9692 109.15 91.5914 108.013 93.9956C106.875 96.3999 105.745 97.3833 104.965 96.2774C104.184 95.1715 105.395 95.1715 105.395 95.1715" stroke="#263238" stroke-linecap="round" stroke-linejoin="round"/>
<path d="M99.2565 81.4669C99.2565 81.4669 96.9958 79.829 94.868 80.5779C92.7402 81.3269 93.6921 83.1047 92.6002 83.5807" stroke="#263238" stroke-linecap="round" stroke-linejoin="round"/>
<path d="M99.4106 77.7608C97.6292 76.2699 92.4987 75.9584 91.8198 78.9437" stroke="#263238" stroke-linecap="round" stroke-linejoin="round"/>
<path d="M100.279 79.9304C100.367 79.4747 100.299 79.0026 100.086 78.5901" stroke="#263238" stroke-linecap="round" stroke-linejoin="round"/>
<path d="M89.2546 78.0757C89.4337 77.7641 89.6448 77.472 89.8845 77.2043" stroke="#263238" stroke-linecap="round" stroke-linejoin="round"/>
<path d="M91.6378 81.2254C90.217 81.4774 88.4181 80.9104 88.8381 79.1256" stroke="#263238" stroke-linecap="round" stroke-linejoin="round"/>
<path d="M87.6342 84.0251C87.5187 84.8721 87.7042 86.0969 87.0918 86.7794" stroke="#263238" stroke-linecap="round" stroke-linejoin="round"/>
<path d="M90.5915 82.6602C89.79 82.0162 88.4917 81.6103 87.9807 82.8211" stroke="#263238" stroke-linecap="round" stroke-linejoin="round"/>
<path d="M103.166 86.9404C103.743 87.2903 104.289 87.7243 104.195 88.4627" stroke="#263238" stroke-linecap="round" stroke-linejoin="round"/>
<path d="M100.321 82.3873C98.6722 83.9831 100.929 85.6 102.231 86.3874" stroke="#263238" stroke-linecap="round" stroke-linejoin="round"/>
<path d="M102.154 80.9874C102.154 80.9874 103.519 79.283 105.328 80.9874C107.138 82.6917 105.43 86.2369 106.865 87.4022" stroke="#263238" stroke-linecap="round" stroke-linejoin="round"/>
<path d="M101.472 79.6926C101.472 79.6926 101.916 77.5928 103.519 77.5753C105.122 77.5578 106.196 79.3846 106.196 79.3846" stroke="#263238" stroke-linecap="round" stroke-linejoin="round"/>
<path d="M134.075 135.208C134.075 135.208 131.229 146.015 121.5 147.491" stroke="#263238" stroke-linecap="round" stroke-linejoin="round"/>
<path d="M105.101 120.289C105.101 120.289 111.652 129.853 122.743 131.757" stroke="#263238" stroke-linecap="round" stroke-linejoin="round"/>
<path d="M123.247 113.069C122.932 120.768 126.344 125.346 126.344 125.346C126.344 125.346 128.391 130.777 127.709 133.745C127.026 136.712 133.984 140.674 136.85 140.394C139.716 140.114 141.354 138.77 141.641 135.635C141.928 132.499 140.276 129.857 140.276 129.857C140.276 129.857 140.672 121.205 136.447 113.758C132.223 106.311 128.951 105.891 128.951 105.891" fill="#421CDD"/>
<mask id="mask2_21_838" style="mask-type:luminance" maskUnits="userSpaceOnUse" x="123" y="105" width="19" height="36">
<path d="M123.247 113.069C122.932 120.768 126.344 125.346 126.344 125.346C126.344 125.346 128.391 130.777 127.709 133.745C127.026 136.712 133.984 140.674 136.85 140.394C139.716 140.114 141.354 138.77 141.641 135.635C141.928 132.499 140.276 129.857 140.276 129.857C140.276 129.857 140.672 121.205 136.447 113.758C132.223 106.311 128.951 105.891 128.951 105.891" fill="white"/>
</mask>
<g mask="url(#mask2_21_838)">
<path opacity="0.2" d="M136.85 140.412C139.195 140.188 140.7 139.232 141.344 137.174C142.281 132.975 138.173 130.07 133.917 129.451C130.743 128.989 128.762 129.867 127.712 130.613C127.897 131.654 127.897 132.72 127.712 133.762C127.026 136.719 133.987 140.681 136.85 140.412Z" fill="black"/>
</g>
<path d="M123.247 113.069C122.932 120.768 126.344 125.346 126.344 125.346C126.344 125.346 128.391 130.777 127.709 133.745C127.026 136.712 133.984 140.674 136.85 140.394C139.716 140.114 141.354 138.77 141.641 135.635C141.928 132.499 140.276 129.857 140.276 129.857C140.276 129.857 140.672 121.205 136.447 113.758C132.223 106.311 128.951 105.891 128.951 105.891" stroke="#263238" stroke-linecap="round" stroke-linejoin="round"/>
<path d="M140.262 129.857C140.262 129.857 137.942 126.679 134.6 127.13" stroke="#263238" stroke-linecap="round" stroke-linejoin="round"/>
<path d="M135.758 127.946C135.758 127.946 137.858 130.585 137.431 132.46" stroke="#263238" stroke-linecap="round" stroke-linejoin="round"/>
<path d="M141.326 132.46C141.326 132.46 141.627 137.885 139.034 137.951" stroke="#263238" stroke-linecap="round" stroke-linejoin="round"/>
<path d="M132.44 127.4C132.44 127.4 128.941 127.564 128.048 129.451" stroke="#263238" stroke-linecap="round" stroke-linejoin="round"/>
<path d="M129.371 128.187C129.371 128.187 131.247 127.956 132.44 128.81" stroke="#263238" stroke-linecap="round" stroke-linejoin="round"/>
<path d="M133.242 115.687C133.242 115.687 131.306 121.926 128.052 123.837" stroke="#263238" stroke-linecap="round" stroke-linejoin="round"/>
<path d="M109.427 126.126C113.063 127.218 122.249 129.584 126.526 129.584C130.803 129.584 133.074 128.884 135.531 130.504C137.987 132.124 139.625 136.135 137.896 138.224C136.168 140.314 127.702 138.224 124.02 136.408C120.339 134.592 113.462 132.74 111.897 132.754C110.333 132.768 108.877 131.757 108.877 131.757" fill="white"/>
<path d="M109.427 126.126C113.063 127.218 122.249 129.584 126.526 129.584C130.803 129.584 133.074 128.884 135.531 130.504C137.987 132.124 139.625 136.135 137.896 138.224C136.168 140.314 127.702 138.224 124.02 136.408C120.339 134.592 113.462 132.74 111.897 132.754C110.333 132.768 108.877 131.757 108.877 131.757" stroke="#263238" stroke-linecap="round" stroke-linejoin="round"/>
<path d="M99.1341 127.4C99.1341 127.4 96.6179 129.5 95.505 129.584C94.3921 129.668 92.5758 129.958 93.2652 130.858C93.9546 131.757 97.8148 131.949 100.349 129.857" fill="white"/>
<path d="M99.1341 127.4C99.1341 127.4 96.6179 129.5 95.505 129.584C94.3921 129.668 92.5758 129.958 93.2652 130.858C93.9546 131.757 97.8148 131.949 100.349 129.857" stroke="#263238" stroke-linecap="round" stroke-linejoin="round"/>
<path d="M110.004 126.689C109.826 126.487 109.633 126.299 109.427 126.126C109.427 126.126 102.735 124.124 101.279 123.309C99.8235 122.493 98.6302 124.852 96.6809 126.126C94.7315 127.4 95.5925 127.855 94.3886 129.675C94.3886 129.675 95.5435 130.585 95.9564 129.675C96.3694 128.765 98.9066 126.609 98.9066 126.609C98.9066 126.609 97.1743 129.573 96.6809 130.081C96.1874 130.588 95.8934 131.221 97.0868 131.221C98.2802 131.221 98.6407 130.585 99.3686 129.675C100.097 128.765 101.006 127.855 101.006 127.855C101.006 127.855 99.6626 129.584 99.925 130.039C100.188 130.494 100.551 131.039 100.915 131.221C101.279 131.403 101.909 130.871 101.909 130.871C102.264 131.273 102.731 131.558 103.25 131.69C103.985 131.806 105.101 131.169 105.101 131.169C105.101 131.169 107.659 133.402 109.427 132.59C110.033 132.289 110.517 131.787 110.795 131.169" fill="white"/>
<path d="M110.004 126.689C109.826 126.487 109.633 126.299 109.427 126.126C109.427 126.126 102.735 124.124 101.279 123.309C99.8235 122.493 98.6302 124.852 96.6809 126.126C94.7315 127.4 95.5925 127.855 94.3886 129.675C94.3886 129.675 95.5435 130.585 95.9564 129.675C96.3694 128.765 98.9066 126.609 98.9066 126.609C98.9066 126.609 97.1743 129.573 96.6809 130.081C96.1874 130.588 95.8934 131.221 97.0868 131.221C98.2802 131.221 98.6407 130.585 99.3686 129.675C100.097 128.765 101.006 127.855 101.006 127.855C101.006 127.855 99.6626 129.584 99.925 130.039C100.188 130.494 100.551 131.039 100.915 131.221C101.279 131.403 101.909 130.871 101.909 130.871C102.264 131.273 102.731 131.558 103.25 131.69C103.985 131.806 105.101 131.169 105.101 131.169C105.101 131.169 107.659 133.402 109.427 132.59C110.033 132.289 110.517 131.787 110.795 131.169" stroke="#263238" stroke-linecap="round" stroke-linejoin="round"/>
<path d="M105.101 131.155C105.101 131.155 104.964 129.857 104.51 129.857C104.055 129.857 103.46 130.504 103.46 130.504" stroke="#263238" stroke-linecap="round" stroke-linejoin="round"/>
<path d="M101.909 130.858C101.82 130.706 101.772 130.533 101.772 130.357C101.772 130.181 101.82 130.008 101.909 129.857C102.412 128.979 102.961 128.128 103.554 127.309" stroke="#263238" stroke-linecap="round" stroke-linejoin="round"/>
<path d="M101.006 127.855C101.006 127.855 101.745 126.592 101.881 126.406" stroke="#263238" stroke-linecap="round" stroke-linejoin="round"/>
<path d="M98.9066 126.609C98.9066 126.609 99.8865 125.433 100.111 125.346" stroke="#263238" stroke-linecap="round" stroke-linejoin="round"/>
<path d="M54.3454 133.752H61.2852C62.7866 133.752 92.2257 133.682 93.7236 133.549L104.118 132.621C104.225 132.611 104.324 132.561 104.396 132.482C104.469 132.402 104.509 132.298 104.51 132.191C104.51 132.076 104.464 131.967 104.384 131.885C104.303 131.804 104.194 131.758 104.079 131.757H53.2185C53.1037 131.758 52.9939 131.804 52.9127 131.885C52.8315 131.966 52.7855 132.076 52.7846 132.191C52.7846 132.396 52.8249 132.599 52.9034 132.788C52.9818 132.978 53.0968 133.15 53.2417 133.295C53.3867 133.44 53.5587 133.555 53.7481 133.633C53.9375 133.711 54.1404 133.752 54.3454 133.752Z" fill="#757575" stroke="#263238" stroke-linecap="round" stroke-linejoin="round"/>
<path d="M53.5615 132.558H83.3331C83.4736 132.567 83.6141 132.539 83.7404 132.477C83.8668 132.415 83.9748 132.321 84.0537 132.204C84.1325 132.087 84.1795 131.952 84.19 131.812C84.2005 131.671 84.1741 131.531 84.1135 131.403L75.5393 105.265C75.4244 104.942 75.2177 104.661 74.9447 104.455C74.6716 104.249 74.3442 104.128 74.003 104.106H44.2314C43.5909 104.106 43.241 104.624 43.4509 105.265L52.0251 131.403C52.1405 131.725 52.3475 132.006 52.6205 132.211C52.8935 132.416 53.2206 132.537 53.5615 132.558Z" fill="#999999" stroke="#263238" stroke-linecap="round" stroke-linejoin="round"/>
<path d="M52.3191 132.558H82.0908C82.2313 132.567 82.3718 132.539 82.4981 132.477C82.6245 132.415 82.7325 132.321 82.8114 132.204C82.8902 132.087 82.9372 131.952 82.9477 131.812C82.9582 131.671 82.9318 131.531 82.8712 131.403L74.297 105.265C74.1821 104.942 73.9754 104.661 73.7024 104.455C73.4293 104.249 73.1019 104.128 72.7607 104.106H42.9891C42.3486 104.106 41.9987 104.624 42.2086 105.265L50.7828 131.403C50.8982 131.725 51.1052 132.006 51.3782 132.211C51.6512 132.416 51.9783 132.537 52.3191 132.558Z" fill="#757575" stroke="#263238" stroke-linecap="round" stroke-linejoin="round"/>
<path d="M85.9963 133.752H92.9432C94.448 133.752 95.9494 133.684 97.4472 133.549L107.841 132.621C107.949 132.612 108.049 132.562 108.122 132.483C108.195 132.403 108.236 132.299 108.237 132.191C108.236 132.076 108.19 131.966 108.109 131.885C108.027 131.804 107.918 131.758 107.803 131.757H84.8765C84.7616 131.758 84.6518 131.804 84.5706 131.885C84.4894 131.966 84.4434 132.076 84.4425 132.191C84.4425 132.604 84.606 133 84.8972 133.292C85.1884 133.585 85.5836 133.75 85.9963 133.752Z" fill="#999999" stroke="#263238" stroke-linecap="round" stroke-linejoin="round"/>
<path d="M60.3859 116.071C60.3509 115.956 60.3124 115.84 60.2704 115.721C60.3685 115.695 60.4696 115.68 60.5713 115.68C61.7577 115.68 63.2136 117.282 63.826 119.256C64.4385 121.23 63.966 122.833 62.7761 122.833C61.6597 122.833 60.3054 121.433 59.6264 119.599C60.6028 119.354 60.9423 117.87 60.3859 116.071Z" fill="#421CDD" stroke="#263238" stroke-linecap="round" stroke-linejoin="round"/>
<path d="M34.7333 148.965L34.1279 140.422H37.9495L37.9215 148.965" fill="#BFBFBF"/>
<path d="M34.7333 148.965L34.1279 140.422H37.9495L37.9215 148.965" stroke="#263238" stroke-linecap="round" stroke-linejoin="round"/>
<path d="M55.8888 148.965L54.7689 140.422H50.9473L52.3541 148.965" fill="#BFBFBF"/>
<path d="M55.8888 148.965L54.7689 140.422H50.9473L52.3541 148.965" stroke="#263238" stroke-linecap="round" stroke-linejoin="round"/>
<path d="M90.6159 148.965L90.007 140.422H93.8321L93.8041 148.965" fill="#BFBFBF"/>
<path d="M90.6159 148.965L90.007 140.422H93.8321L93.8041 148.965" stroke="#263238" stroke-linecap="round" stroke-linejoin="round"/>
<path d="M111.768 148.965L110.651 140.422H106.826L108.237 148.965" fill="#BFBFBF"/>
<path d="M111.768 148.965L110.651 140.422H106.826L108.237 148.965" stroke="#263238" stroke-linecap="round" stroke-linejoin="round"/>
<path d="M46.7757 138.021H112.517V141.259H46.7757V138.021Z" fill="#999999" stroke="#263238" stroke-linecap="round" stroke-linejoin="round"/>
<path d="M31.5976 141.259H92.1663V138.021H31.5976" fill="white"/>
<path d="M31.5976 141.259H92.1663V138.021H31.5976" stroke="#263238" stroke-linecap="round" stroke-linejoin="round"/>
<path d="M34.9188 133.262H115.915C116.249 133.262 116.52 133.533 116.52 133.867V138.494C116.52 138.828 116.249 139.099 115.915 139.099H34.9188C34.5845 139.099 34.3134 138.828 34.3134 138.494V133.867C34.3134 133.533 34.5845 133.262 34.9188 133.262Z" fill="#BFBFBF" stroke="#263238" stroke-linecap="round" stroke-linejoin="round"/>
<path d="M24.4933 133.262H92.7367C92.8154 133.261 92.8934 133.276 92.9663 133.306C93.0391 133.336 93.1052 133.38 93.1609 133.436C93.2166 133.492 93.2606 133.558 93.2905 133.631C93.3204 133.703 93.3356 133.782 93.3351 133.86V138.501C93.3356 138.58 93.3204 138.658 93.2905 138.73C93.2606 138.803 93.2166 138.869 93.1609 138.925C93.1052 138.981 93.0391 139.025 92.9663 139.055C92.8934 139.085 92.8154 139.1 92.7367 139.099H27.944" fill="white"/>
<path d="M24.4933 133.262H92.7367C92.8154 133.261 92.8934 133.276 92.9663 133.306C93.0391 133.336 93.1052 133.38 93.1609 133.436C93.2166 133.492 93.2606 133.558 93.2905 133.631C93.3204 133.703 93.3356 133.782 93.3351 133.86V138.501C93.3356 138.58 93.3204 138.658 93.2905 138.73C93.2606 138.803 93.2166 138.869 93.1609 138.925C93.1052 138.981 93.0391 139.025 92.9663 139.055C92.8934 139.085 92.8154 139.1 92.7367 139.099H27.944" stroke="#263238" stroke-linecap="round" stroke-linejoin="round"/>
</svg>
