<svg width="130" height="130" viewBox="0 0 130 130" fill="none" xmlns="http://www.w3.org/2000/svg">
<path d="M123.087 75.7666L123.049 75.7854C118.593 79.2028 116.705 85.018 118.291 90.3993L118.31 90.4371C120.84 98.9902 114.572 107.618 105.66 107.845H105.622C99.9954 107.996 95.0486 111.583 93.1793 116.889V116.908C90.1959 125.329 80.0384 128.633 72.6936 123.554C68.133 120.439 62.104 120.277 57.3056 123.554H57.2869C49.9424 128.614 39.7843 125.328 36.82 116.889C34.934 111.57 29.9945 107.996 24.3776 107.845H24.3397C15.4281 107.618 9.15943 98.9899 11.6896 90.4368L11.7084 90.399C13.294 85.0177 11.406 79.2025 6.95045 75.7852L6.91262 75.7664C-0.167813 70.3285 -0.167813 59.6799 6.91262 54.2422L6.95045 54.2235C11.406 50.8061 13.294 44.9907 11.6896 39.6096V39.5718C9.14039 31.019 15.4279 22.3902 24.3397 22.1637H24.3776C29.9851 22.0127 34.9507 18.4252 36.82 13.1198V13.1011C39.7841 4.68025 49.9424 1.37617 57.2869 6.45531H57.3056C61.9313 9.64615 68.0487 9.64615 72.6936 6.45531C80.1123 1.33225 90.2134 4.73078 93.1793 13.1011V13.1198C95.0486 18.4064 99.9952 22.0129 105.622 22.1637H105.66C114.571 22.3902 120.84 31.019 118.31 39.5718L118.291 39.6096C116.705 44.9907 118.593 50.8061 123.049 54.2235L123.087 54.2422C130.167 59.6799 130.167 70.3287 123.087 75.7666Z" fill="#3EB655"/>
<path d="M65 100.17C84.4241 100.17 100.17 84.424 100.17 64.9999C100.17 45.5759 84.4241 29.8296 65 29.8296C45.576 29.8296 29.8297 45.5759 29.8297 64.9999C29.8297 84.424 45.576 100.17 65 100.17Z" fill="#8BD399"/>
<path opacity="0.1" d="M92.0042 42.4871C85.9209 37.4826 78.1379 34.4746 69.6534 34.4746C50.2296 34.4746 34.4747 50.2295 34.4747 69.6533C34.4747 78.1378 37.4827 85.9208 42.4869 92.0042C34.7578 85.5567 29.8345 75.8583 29.8345 64.9997C29.8345 45.5756 45.576 29.8345 64.9998 29.8345C75.8583 29.8345 85.5568 34.7577 92.0042 42.4871Z" fill="black"/>
<path d="M56.6326 78.7682L48.8552 70.4939C46.8183 68.3266 46.9234 64.9189 49.09 62.8821C51.2566 60.8427 54.6658 60.9521 56.7009 63.118L60.4135 67.0662L76.1945 49.0292C78.1506 46.7908 81.553 46.5638 83.7932 48.5227C86.0316 50.4816 86.2576 53.8829 84.2997 56.1213L64.608 78.6263C62.5102 81.0214 58.808 81.0841 56.6326 78.7682Z" fill="white"/>
</svg>
