<svg width="40" height="48" viewBox="0 0 40 48" fill="none" xmlns="http://www.w3.org/2000/svg">
<path d="M39.2269 9.19679C38.7843 10.4864 37.8695 10.9523 36.5248 10.9481C25.1617 10.9226 13.7986 10.9332 2.43547 10.9332C1.28349 10.9332 0.474565 10.4271 0.137865 9.50173C-0.391538 8.04693 0.663033 6.58577 2.28724 6.57095C4.34556 6.55189 6.40388 6.56672 8.4622 6.56672C9.25842 6.56672 10.0525 6.56672 10.9102 6.56672C10.9102 5.85308 10.9102 5.1945 10.9102 4.53381C10.9102 3.81805 10.9059 3.10442 10.9102 2.38867C10.9186 1.14139 11.4523 0.436228 12.6508 0.0804693C12.6953 0.0677636 12.7334 0.027529 12.7737 0C17.335 0 21.8985 0 26.4598 0C28.0332 0.639519 28.3233 1.08422 28.3233 2.85031C28.3233 3.63382 28.3233 4.41734 28.3233 5.20086V6.56672H28.9395C31.4425 6.56672 33.9434 6.60483 36.4443 6.55189C37.7932 6.52436 38.7525 6.96906 39.2269 8.27775V9.19679ZM15.2788 6.53072H23.9504V4.4364H15.2788V6.53072Z" fill="#D92651"/>
<path d="M2.179 27.558C2.179 23.5387 2.17689 19.5216 2.179 15.5024C2.179 14.2255 2.86723 13.353 4.00439 13.1518C5.26013 12.9295 6.44176 13.8506 6.53493 15.1318C6.54976 15.3182 6.54129 15.5066 6.54129 15.693C6.54129 23.5599 6.54129 31.4268 6.54129 39.2916C6.54129 41.8307 8.33914 43.6285 10.8803 43.6285C16.7016 43.6285 22.5208 43.6285 28.3421 43.6285C30.8854 43.6285 32.6853 41.8328 32.6853 39.2959C32.6853 31.3612 32.6853 23.4265 32.6853 15.4918C32.6853 14.2657 33.3397 13.389 34.4112 13.1667C35.6436 12.9125 36.7893 13.6918 37.001 14.9391C37.0413 15.172 37.0497 15.4134 37.0497 15.6506C37.0518 23.5345 37.054 31.4184 37.0497 39.3022C37.0497 43.6243 34.1634 47.095 29.9176 47.868C29.4179 47.959 28.9033 47.9908 28.3951 47.9929C22.5399 48.0014 16.6868 48.0014 10.8316 47.9971C5.94412 47.9929 2.17689 44.2087 2.17477 39.3065C2.17265 35.391 2.17477 31.4734 2.17477 27.558H2.179Z" fill="#D92651"/>
<path d="M13.0831 27.2802C13.0831 24.7285 13.0746 22.1746 13.0873 19.6229C13.0937 18.5577 13.8391 17.7044 14.8788 17.5032C15.8212 17.3211 16.8397 17.8314 17.223 18.7377C17.3649 19.0723 17.4369 19.462 17.4369 19.8262C17.4496 24.7962 17.4496 29.7642 17.4433 34.7342C17.4433 36.1233 16.5073 37.1017 15.2325 37.089C13.9789 37.0763 13.0831 36.1 13.081 34.7342C13.0767 32.2502 13.081 29.7642 13.081 27.2802H13.0831Z" fill="#D92651"/>
<path d="M26.1541 27.2864C26.1541 29.8211 26.1604 32.358 26.1498 34.8928C26.1456 35.9453 25.4955 36.7584 24.5002 37.0189C23.5896 37.2582 22.588 36.8813 22.1348 36.0427C21.9337 35.67 21.8045 35.2062 21.8024 34.7848C21.7791 29.7809 21.7812 24.7791 21.7918 19.7752C21.7939 18.4263 22.7447 17.4628 24.0026 17.4755C25.2371 17.4903 26.1477 18.458 26.152 19.7815C26.1583 22.2824 26.152 24.7855 26.152 27.2864H26.1541Z" fill="#D92651"/>
</svg>
