<svg width="30" height="21" viewBox="0 0 30 21" fill="none" xmlns="http://www.w3.org/2000/svg">
<g id="w9JTsc.tif">
<g id="Group">
<path id="Vector" d="M29.9883 5.95072C29.9883 10.6393 29.9825 15.3279 30 20.0164C30.001 20.3892 29.8946 20.4282 29.5677 20.4282C19.9496 20.4184 10.3315 20.4204 0.713302 20.4204C0.177606 20.1657 -0.00193583 19.7305 1.57112e-05 19.1558C0.0107492 16.2431 0.00489455 13.3295 0.00489455 10.4168C0.00489455 9.10636 0.00879763 7.79493 0.00489455 6.48447C0.00294302 5.98683 0.161993 5.56627 0.649877 5.39551C1.01969 5.26671 1.09678 5.04228 1.09385 4.69881C1.08312 3.56595 1.08605 2.43308 1.09288 1.30021C1.09678 0.349813 1.44025 0.00146365 2.37894 0.00146365C10.8076 -0.000487884 19.2353 -0.000487884 27.664 0.00146365C28.5734 0.00146365 28.9237 0.354692 28.9296 1.27289C28.9374 2.42235 28.9374 3.57082 28.9296 4.72028C28.9276 5.04228 28.9842 5.28427 29.3492 5.3799C29.6468 5.45796 29.8166 5.71459 29.9883 5.9517V5.95072ZM14.9829 19.509C19.4705 19.509 23.959 19.5041 28.4466 19.5159C28.8935 19.5168 29.0857 19.3997 29.0847 18.9158C29.0701 14.8878 29.0721 10.8598 29.0847 6.83184C29.0857 6.37811 28.912 6.25126 28.4798 6.25126C19.5203 6.26004 10.5608 6.25809 1.60125 6.25907C0.974808 6.25907 0.946511 6.28834 0.946511 6.92161C0.945535 10.8852 0.945535 14.8488 0.946511 18.8123C0.946511 19.4934 0.963099 19.509 1.66663 19.509C6.1054 19.509 10.5451 19.509 14.9839 19.509H14.9829ZM15.0239 0.937226C12.3503 0.937226 9.67671 0.937226 7.0031 0.937226C5.54433 0.937226 4.08653 0.940153 2.62776 0.935274C2.31844 0.934298 2.07547 0.980159 2.07645 1.36852C2.08035 2.51699 2.07645 3.66547 2.07938 4.81493C2.07938 4.99935 2.11743 5.16328 2.3243 5.24329C2.97221 5.49309 3.38983 5.21987 3.39374 4.53391C3.39374 4.45292 3.40057 4.37193 3.39374 4.29094C3.35666 3.84892 3.53425 3.58058 3.99188 3.5113C4.30998 3.46349 4.55978 3.26931 4.60174 2.96097C4.68761 2.33745 5.07889 2.24671 5.6058 2.24963C7.80909 2.26134 10.0134 2.25159 12.2166 2.25646C12.5777 2.25646 12.9182 2.20377 13.2617 2.07985C14.1643 1.75492 15.1205 1.58904 16.029 1.89543C17.2496 2.3072 18.483 2.24671 19.7252 2.25061C20.697 2.25354 21.6699 2.25061 22.6417 2.25061C23.3219 2.25061 24.0029 2.25061 24.6831 2.25744C25.0177 2.26134 25.2929 2.36185 25.3544 2.74825C25.4266 3.20198 25.6861 3.46642 26.1467 3.54155C26.4921 3.59815 26.6326 3.82843 26.6258 4.16604C26.6219 4.34363 26.6414 4.52317 26.6258 4.69979C26.5829 5.16035 26.8132 5.29013 27.2366 5.2794C27.8494 5.26378 27.9411 5.21499 27.945 4.69296C27.9538 3.67328 27.9509 2.65458 27.948 1.6349C27.946 0.960644 27.9187 0.935274 27.2259 0.935274C23.1589 0.935274 19.0919 0.935274 15.0249 0.935274L15.0239 0.937226ZM15.0639 5.27549C16.1958 5.27549 17.3277 5.27159 18.4586 5.27744C18.8128 5.2794 18.9592 5.19353 18.7318 4.83542C17.8907 3.50838 16.7013 2.79021 15.1176 2.75703C13.4988 2.72386 12.241 3.38836 11.357 4.74077C11.0906 5.14864 11.1648 5.26866 11.6673 5.27159C12.7992 5.27939 13.9311 5.27354 15.062 5.27452L15.0639 5.27549ZM7.18557 5.27452C7.97887 5.27452 8.77217 5.26866 9.5645 5.27744C9.87479 5.28135 10.0826 5.17499 10.2066 4.87445C10.3861 4.43828 10.6593 4.05578 10.9481 3.68401C11.0321 3.5757 11.2126 3.47813 11.1355 3.32396C11.0613 3.17661 10.872 3.24004 10.7335 3.24004C9.27665 3.23614 7.81982 3.24882 6.36398 3.23126C5.88292 3.2254 5.477 3.25565 5.24867 3.77476C5.13158 4.04017 4.85739 4.2002 4.59296 4.33192C4.2934 4.48122 4.31389 4.74663 4.3578 5.00325C4.40561 5.28135 4.64662 5.27159 4.85641 5.27256C5.63313 5.27647 6.40984 5.27452 7.18655 5.27452H7.18557ZM21.6513 3.23614C20.858 3.23614 20.0647 3.23321 19.2724 3.23906C19.1358 3.24004 18.9494 3.17271 18.8782 3.33566C18.8206 3.46739 18.9729 3.56204 19.0509 3.65767C19.3515 4.02163 19.6178 4.40901 19.7984 4.8442C19.9291 5.1584 20.135 5.28135 20.4697 5.2794C22.0231 5.27061 23.5775 5.27744 25.1309 5.27452C25.3544 5.27452 25.6149 5.29989 25.6676 4.99057C25.7164 4.70759 25.6949 4.44706 25.3749 4.29875C25.0597 4.15238 24.807 3.91429 24.6509 3.604C24.5055 3.31517 24.2859 3.23028 23.9825 3.23418C23.2057 3.24492 22.429 3.23809 21.6513 3.23711V3.23614Z" fill="#343A40"/>
<path id="Vector_2" d="M8.46289 7.76253C8.96541 7.76253 9.46695 7.76253 9.96947 7.76253C11.275 7.75765 12.5699 7.81717 13.8511 7.36734C14.8688 7.01021 15.9382 7.19268 16.9472 7.5703C17.3199 7.70984 17.6898 7.76643 18.084 7.76546C20.4814 7.75863 22.8799 7.77131 25.2773 7.75472C25.8023 7.75082 26.1506 7.86303 26.2355 8.4524C26.2882 8.82026 26.5673 9.05737 26.9322 9.10811C27.3938 9.17251 27.5704 9.42426 27.5694 9.86336C27.5665 11.8695 27.5655 13.8747 27.5714 15.8809C27.5723 16.3259 27.3801 16.5737 26.9342 16.643C26.5419 16.7045 26.2755 16.9396 26.218 17.3338C26.1399 17.8637 25.8267 18.011 25.3349 18.0091C22.9052 17.9983 20.4746 18.0071 18.0449 18.0022C17.6517 18.0022 17.2809 18.0579 16.9062 18.1925C15.6416 18.6453 14.3634 18.6423 13.0988 18.1857C12.7397 18.0559 12.3845 18.0022 12.0079 18.0032C9.61039 18.0081 7.21293 18.0061 4.81449 18.0052C4.04753 18.0052 4.02802 17.9905 3.79676 17.2655C3.68162 16.9026 3.43768 16.6928 3.06884 16.6381C2.61218 16.5698 2.4502 16.2956 2.45118 15.8604C2.45703 13.8708 2.45508 11.8812 2.45313 9.89166C2.45313 9.46622 2.59071 9.18227 3.06493 9.11494C3.49622 9.05347 3.75285 8.76562 3.82506 8.34018C3.89922 7.90694 4.15389 7.75667 4.57542 7.7596C5.87124 7.77034 7.16706 7.76351 8.46386 7.76351L8.46289 7.76253ZM15.0318 8.18699C12.4147 8.17918 10.312 10.242 10.2895 12.8395C10.2671 15.4077 12.3933 17.5602 14.9674 17.5749C17.5873 17.5905 19.7057 15.5033 19.733 12.8804C19.7603 10.3103 17.64 8.19382 15.0318 8.18601V8.18699ZM18.9104 8.69829C19.008 8.83978 19.0392 8.89442 19.0792 8.94126C21.1674 11.3173 21.224 14.1841 19.2324 16.6498C19.1651 16.7337 19.0246 16.8069 19.0783 16.9269C19.1417 17.0714 19.3056 17.0196 19.4276 17.0196C21.225 17.0226 23.0223 17.0196 24.8187 17.0235C25.1056 17.0235 25.3125 16.9367 25.4432 16.6635C25.5925 16.3503 25.8218 16.0839 26.136 15.9385C26.5048 15.7677 26.5966 15.4994 26.5936 15.1228C26.581 13.6357 26.581 12.1476 26.5936 10.6606C26.5966 10.2712 26.5292 9.96581 26.1262 9.80091C25.9165 9.71504 25.7037 9.55892 25.6296 9.35303C25.3817 8.65731 24.8363 8.6817 24.2508 8.69244C23.0858 8.7139 21.9197 8.69829 20.7537 8.69829L18.9104 8.69829ZM11.0282 8.74025C10.9745 8.72756 10.916 8.70219 10.8574 8.70219C8.94687 8.70024 7.03729 8.70219 5.12673 8.69732C4.86132 8.69732 4.71203 8.81733 4.60372 9.04469C4.43979 9.39011 4.18804 9.67211 3.84165 9.83311C3.50598 9.98923 3.42987 10.24 3.43182 10.5766C3.44061 12.1125 3.44158 13.6474 3.43085 15.1832C3.42792 15.5287 3.53038 15.7638 3.85726 15.917C4.15487 16.0566 4.39686 16.2917 4.53542 16.5903C4.69739 16.9396 4.95305 17.0294 5.3131 17.0275C7.04509 17.0167 8.77708 17.0245 10.5091 17.0187C10.6593 17.0187 10.875 17.0997 10.9423 16.9133C10.9931 16.7738 10.8057 16.6752 10.7159 16.5669C8.83173 14.3021 8.88637 11.2158 10.8486 9.03688C10.9208 8.95687 11.0321 8.8993 11.0272 8.74025H11.0282Z" fill="#343A40"/>
<path id="Vector_3" d="M13.1035 14.4777C13.1181 14.1674 13.1796 13.9118 13.5085 13.8727C13.8266 13.8347 13.9768 14.0337 14.0451 14.3157C14.0754 14.4406 14.0959 14.5714 14.1466 14.6875C14.3349 15.1159 14.8121 15.3383 15.2765 15.2261C15.6883 15.1266 15.9615 14.7392 15.9479 14.2748C15.9332 13.7908 15.6395 13.4493 15.1653 13.3663C14.9262 13.3253 14.6774 13.3165 14.4501 13.2424C13.7104 12.9994 13.243 12.492 13.1318 11.7153C13.0186 10.924 13.3026 10.2741 13.9778 9.83988C14.2735 9.64961 14.5418 9.49154 14.5896 9.09928C14.616 8.88851 14.7935 8.77142 15.0141 8.77435C15.2336 8.77727 15.4024 8.89827 15.4317 9.11001C15.4824 9.47495 15.7147 9.64668 16.0035 9.82622C16.4885 10.1268 16.8144 10.5688 16.8963 11.1503C16.9422 11.4772 16.9041 11.8041 16.508 11.8666C16.1333 11.9251 16.025 11.6392 15.9567 11.3289C15.8161 10.6908 15.418 10.4234 14.7984 10.5288C14.3057 10.6127 13.9983 11.042 14.0715 11.5611C14.129 11.9719 14.373 12.2325 14.7701 12.3398C14.9253 12.3818 15.0882 12.3993 15.2473 12.4218C16.0601 12.5389 16.6982 13.1136 16.87 13.8874C17.0466 14.6826 16.707 15.513 15.9918 15.9306C15.7108 16.0946 15.4912 16.2536 15.4434 16.6029C15.4122 16.8332 15.2473 16.9688 14.9975 16.964C14.7457 16.9591 14.5974 16.8088 14.5672 16.5815C14.5233 16.2507 14.3164 16.0955 14.052 15.9375C13.4928 15.6037 13.163 15.1032 13.1016 14.4758L13.1035 14.4777Z" fill="#343A40"/>
</g>
</g>
</svg>
