<svg width="30" height="29" viewBox="0 0 30 29" fill="none" xmlns="http://www.w3.org/2000/svg">
<g id="Group 58">
<path id="Vector" d="M5.37675 2.44567C5.55198 0.679092 6.08433 -0.00849193 7.22618 7.90547e-05C8.33469 0.00865004 8.85657 0.701947 9.01942 2.41138H13.2163C13.2163 2.22853 13.2097 2.03045 13.2173 1.83237C13.2602 0.732422 13.9715 0.0105547 15.0058 0.0124594C16.0391 0.014364 16.7457 0.738136 16.7866 1.83998C16.7933 2.02569 16.7876 2.21235 16.7876 2.42091H21.0045C21.0045 1.6638 20.9817 0.867653 21.6921 0.403868C22.0302 0.183879 22.4797 0.0391247 22.8816 0.0334107C23.9815 0.0181734 24.4053 0.62957 24.6338 2.44376C25.4614 2.44376 26.2966 2.439 27.1328 2.44471C28.527 2.45519 29.5631 3.20753 29.8993 4.46842C29.9717 4.74079 29.9955 5.0322 29.9964 5.31599C30.0012 12.1242 30.0012 18.9334 29.9964 25.7416C29.9964 27.1691 29.1831 28.2443 27.8918 28.5424C27.6632 28.5948 27.4204 28.6053 27.1832 28.6053C19.057 28.6081 10.9317 28.6091 2.80545 28.6062C1.1703 28.6062 0.00940953 27.4682 0.00655253 25.8254C-0.00201845 18.9715 -0.00201845 12.1156 0.0056002 5.25885C0.00750487 3.59513 1.15983 2.46567 2.83212 2.44662C3.67112 2.4371 4.50918 2.44471 5.37675 2.44471V2.44567ZM1.08078 9.17008C1.08078 9.36531 1.08078 9.51959 1.08078 9.67482C1.08078 15.006 1.08078 20.3381 1.08173 25.6692C1.08173 26.912 1.71408 27.5463 2.95116 27.5463C10.9803 27.5463 19.0084 27.5463 27.0375 27.5463C28.2832 27.5463 28.9193 26.9177 28.9203 25.6835C28.9222 20.3362 28.9222 14.9888 28.9212 9.64148C28.9212 9.48911 28.906 9.33674 28.8965 9.17008H1.08078ZM1.09697 8.053H28.9051C28.9051 6.98924 28.9431 5.95787 28.8927 4.9303C28.8546 4.16177 28.1651 3.56751 27.3918 3.53323C27.0118 3.51609 26.6299 3.52752 26.249 3.52752C25.7014 3.52752 25.1548 3.52752 24.6167 3.52752C24.4777 5.31504 24.0244 6.00167 22.9197 6.00072C22.5035 6.00072 22.0321 5.85597 21.6835 5.62741C20.9588 5.15029 21.0093 4.32938 21.0026 3.56656H16.8114C16.6952 5.29219 16.2267 6.00167 15.1229 6.00167C14.7067 6.00167 14.2344 5.85882 13.8868 5.62931C13.163 5.15219 13.2068 4.33319 13.2021 3.56561H9.01466C8.87657 5.29885 8.3785 6.035 7.27856 6.01501C6.87858 6.00739 6.43193 5.85025 6.09576 5.62741C5.37199 5.14743 5.40246 4.33605 5.40151 3.54656C4.38442 3.54656 3.40257 3.50752 2.42547 3.5599C1.74932 3.59608 1.13983 4.2351 1.10935 4.92649C1.06364 5.95406 1.09792 6.98543 1.09792 8.053H1.09697ZM23.4996 3.06754C23.4996 2.63994 23.512 2.21235 23.4958 1.7857C23.4806 1.35334 23.2158 1.08764 22.8254 1.07717C22.4302 1.06574 22.1168 1.3143 22.1045 1.73618C22.0787 2.58947 22.0787 3.44466 22.1054 4.29795C22.1187 4.71603 22.4435 4.97887 22.8225 4.96649C23.2034 4.95411 23.4768 4.67888 23.4949 4.25319C23.511 3.85797 23.4987 3.4618 23.4996 3.06659V3.06754ZM6.49955 3.00754C6.49955 3.21325 6.49955 3.41895 6.49955 3.62465C6.5005 3.84655 6.49479 4.06844 6.50622 4.28938C6.52812 4.70269 6.7643 4.92554 7.16618 4.95792C7.55664 4.98934 7.88043 4.72745 7.89376 4.31033C7.92138 3.45704 7.92138 2.60185 7.89757 1.74761C7.88614 1.32763 7.57092 1.06383 7.18713 1.06955C6.79096 1.07526 6.51479 1.36763 6.50145 1.82094C6.49003 2.21615 6.4986 2.61232 6.49764 3.00754H6.49955ZM15.7 3.01707C15.7 2.60566 15.7134 2.1933 15.6962 1.78284C15.6781 1.35715 15.4029 1.08098 15.0229 1.06955C14.6258 1.05717 14.3144 1.34287 14.3049 1.78665C14.2877 2.60947 14.2887 3.43228 14.3049 4.25414C14.3134 4.68079 14.5972 4.95601 14.9782 4.96839C15.3772 4.98173 15.6762 4.69793 15.6953 4.25129C15.7134 3.84083 15.6991 3.42847 15.7 3.01707Z" fill="#343A40"/>
<path id="Vector_2" d="M5.21679 15.0135C4.75681 15.0135 4.29683 15.0183 3.83591 15.0125C3.31784 15.0059 3.13404 14.8392 3.12737 14.3354C3.11689 13.5107 3.11689 12.685 3.12832 11.8603C3.13499 11.3632 3.32546 11.187 3.83781 11.1832C4.77395 11.1766 5.71009 11.1766 6.64624 11.1832C7.17383 11.187 7.35001 11.3689 7.35382 11.9099C7.36048 12.7031 7.36144 13.4964 7.35477 14.2897C7.35001 14.8354 7.18335 15.0002 6.64338 15.0087C6.16721 15.0164 5.69105 15.0106 5.21488 15.0106C5.21488 15.0116 5.21488 15.0135 5.21488 15.0145L5.21679 15.0135ZM4.23207 13.8974H6.24054V12.2927H4.23207V13.8974Z" fill="#343A40"/>
<path id="Vector_3" d="M24.7148 15.0097C24.2386 15.0097 23.7625 15.0078 23.2863 15.0097C22.8482 15.0125 22.6463 14.7811 22.6444 14.3621C22.6406 13.5212 22.6368 12.6803 22.6482 11.8394C22.6549 11.3708 22.8482 11.187 23.3292 11.1832C24.2815 11.1756 25.2329 11.1756 26.1852 11.1832C26.6842 11.187 26.8671 11.3737 26.8728 11.8822C26.8823 12.6917 26.8833 13.5012 26.8737 14.3097C26.868 14.8421 26.688 15.0068 26.1414 15.0116C25.6652 15.0163 25.1891 15.0116 24.7139 15.0116C24.7139 15.0106 24.7139 15.0087 24.7139 15.0078L24.7148 15.0097ZM25.7557 13.9154V12.3041H23.7587V13.9154H25.7557Z" fill="#343A40"/>
<path id="Vector_4" d="M5.1969 26.0005C4.73692 26.0005 4.27694 26.0062 3.81697 25.9985C3.33604 25.9909 3.137 25.8138 3.12938 25.3462C3.11605 24.5053 3.11605 23.6644 3.12938 22.8235C3.137 22.3483 3.31985 22.1778 3.81316 22.173C4.76454 22.1635 5.71687 22.1626 6.66825 22.173C7.1806 22.1787 7.35012 22.3549 7.35583 22.8663C7.36345 23.6749 7.36345 24.4843 7.35583 25.2938C7.35012 25.8157 7.16441 25.9919 6.62539 26.0005C6.14923 26.0071 5.67401 26.0024 5.19785 26.0005H5.1969ZM6.23018 24.9072V23.2796H4.25314V24.9072H6.23018Z" fill="#343A40"/>
<path id="Vector_5" d="M24.7226 25.9996C24.2465 25.9996 23.7712 25.9996 23.2951 25.9996C22.8646 25.9996 22.6494 25.7758 22.6475 25.353C22.6427 24.4968 22.6418 23.6397 22.6494 22.7836C22.6523 22.4112 22.8342 22.1789 23.2275 22.176C24.2427 22.1703 25.2578 22.1703 26.273 22.1731C26.6587 22.1741 26.8673 22.3893 26.872 22.7645C26.8835 23.6369 26.8835 24.5092 26.873 25.3815C26.8682 25.7787 26.653 25.9977 26.2454 25.9996C25.7378 26.0025 25.2302 25.9996 24.7226 25.9996ZM25.7531 24.8949V23.2845H23.7617V24.8949H25.7531Z" fill="#343A40"/>
<path id="Vector_6" d="M24.7548 16.6791C25.231 16.6791 25.7071 16.6743 26.1833 16.681C26.6766 16.6876 26.8652 16.8505 26.8728 17.3238C26.8861 18.1809 26.8833 19.038 26.8728 19.8941C26.868 20.2941 26.6528 20.5036 26.2423 20.5027C25.2586 20.5008 24.2748 20.4969 23.2911 20.5027C22.8482 20.5055 22.652 20.2732 22.6492 19.857C22.6435 19.0161 22.6387 18.1752 22.6511 17.3343C22.6578 16.8524 22.8387 16.6876 23.3272 16.68C23.8034 16.6733 24.2796 16.6781 24.7557 16.6791H24.7548ZM25.7624 17.779H23.7701V19.4094H25.7624V17.779Z" fill="#343A40"/>
<path id="Vector_7" d="M5.25203 16.6792C5.74439 16.6792 6.23579 16.6821 6.72814 16.6783C7.14336 16.6754 7.34906 16.8935 7.35383 17.2906C7.36335 18.1477 7.36144 19.0048 7.35573 19.8619C7.35287 20.2809 7.15098 20.5066 6.71005 20.5038C5.72629 20.4971 4.74253 20.5009 3.75782 20.5038C3.34546 20.5047 3.135 20.2895 3.13024 19.8924C3.12071 19.0353 3.12357 18.1782 3.12928 17.3211C3.13214 16.9011 3.33784 16.6744 3.77592 16.6792C4.26827 16.6849 4.75968 16.6802 5.25203 16.6802V16.6792ZM4.24161 19.401H6.23293V17.7715H4.24161V19.401Z" fill="#343A40"/>
<path id="Vector_8" d="M11.7479 15.0069C11.2565 15.0069 10.7641 15.0031 10.2727 15.0078C9.86227 15.0116 9.64895 14.8174 9.64799 14.406C9.64514 13.5336 9.64704 12.6613 9.64799 11.789C9.64799 11.3737 9.8756 11.1833 10.2756 11.1823C11.2593 11.1795 12.2421 11.1785 13.2259 11.1823C13.6554 11.1842 13.8592 11.4118 13.8583 11.8394C13.8554 12.6803 13.8535 13.5212 13.8583 14.3612C13.8611 14.7955 13.6516 15.0078 13.223 15.0088C12.7316 15.0107 12.2393 15.0088 11.7479 15.0088V15.0059V15.0069ZM12.7516 13.9231V12.2965H10.7489V13.9231H12.7516Z" fill="#343A40"/>
<path id="Vector_9" d="M18.2618 11.1813C18.7532 11.1813 19.2456 11.1785 19.737 11.1823C20.1398 11.1851 20.355 11.3851 20.3541 11.7984C20.3541 12.6708 20.3569 13.5431 20.3541 14.4154C20.3522 14.7983 20.1589 15.0049 19.7675 15.0059C18.7685 15.0078 17.7685 15.0097 16.7695 15.0087C16.3352 15.0087 16.141 14.7811 16.1438 14.3516C16.1495 13.5107 16.1467 12.6698 16.1448 11.8289C16.1448 11.3985 16.3591 11.1832 16.7867 11.1813C17.2781 11.1785 17.7704 11.1813 18.2618 11.1813ZM17.2409 12.2898V13.9126H19.2608V12.2898H17.2409Z" fill="#343A40"/>
<path id="Vector_10" d="M11.7328 25.9996C11.2566 25.9996 10.7814 25.9986 10.3052 25.9996C9.88619 25.9996 9.6462 25.8167 9.6462 25.3739C9.64716 24.5178 9.64811 23.6607 9.6443 22.8045C9.64239 22.3664 9.86143 22.1684 10.29 22.1703C11.2575 22.1731 12.2251 22.1645 13.1927 22.1741C13.6831 22.1788 13.8488 22.3483 13.8536 22.8369C13.8622 23.6616 13.8612 24.4863 13.8546 25.3111C13.8507 25.812 13.6679 25.9901 13.1594 25.9986C12.6841 26.0063 12.208 26.0005 11.7318 25.9996H11.7328ZM10.7319 24.8825H12.7546V23.274H10.7319V24.8825Z" fill="#343A40"/>
<path id="Vector_11" d="M18.2914 22.1712C18.7828 22.1712 19.2752 22.1683 19.7666 22.1731C20.1523 22.1769 20.3542 22.3769 20.3551 22.7645C20.357 23.653 20.3589 24.5406 20.3523 25.4291C20.3494 25.7957 20.137 25.991 19.7847 25.9938C18.7695 26.0043 17.7543 26.0052 16.7391 25.9938C16.3648 25.99 16.1487 25.7843 16.1477 25.3967C16.1439 24.5244 16.1458 23.652 16.1477 22.7797C16.1477 22.3673 16.3648 22.1702 16.7696 22.1692C17.2772 22.1683 17.7848 22.1692 18.2924 22.1692L18.2914 22.1712ZM19.2618 24.891V23.2692H17.2429V24.891H19.2618Z" fill="#343A40"/>
<path id="Vector_12" d="M11.7624 20.5008C11.2548 20.5008 10.7472 20.5008 10.2396 20.4999C9.85104 20.498 9.65105 20.298 9.64914 19.9123C9.64438 19.0399 9.64533 18.1666 9.64629 17.2943C9.64629 16.8886 9.84913 16.6791 10.2615 16.6801C11.2614 16.682 12.2604 16.6801 13.2604 16.681C13.6508 16.681 13.8499 16.8896 13.8537 17.2686C13.8613 18.1409 13.8584 19.0142 13.8556 19.8866C13.8537 20.2913 13.6499 20.5027 13.2385 20.5018C12.7471 20.5018 12.2547 20.5018 11.7633 20.5018L11.7624 20.5008ZM12.7547 19.4113V17.7762H10.7415V19.4113H12.7547Z" fill="#343A40"/>
<path id="Vector_13" d="M18.2761 16.68C18.7522 16.68 19.2284 16.6858 19.7036 16.6781C20.135 16.6715 20.356 16.8715 20.356 17.3048C20.356 18.1619 20.355 19.018 20.3541 19.8751C20.3541 20.278 20.1693 20.5008 19.7512 20.5008C18.7513 20.5008 17.7523 20.5018 16.7524 20.5008C16.3371 20.5008 16.1467 20.276 16.1457 19.8751C16.1438 19.018 16.1438 18.1619 16.1457 17.3048C16.1457 16.8724 16.3676 16.6715 16.8 16.6781C17.2914 16.6858 17.7837 16.68 18.2751 16.68H18.2761ZM19.2703 17.7752H17.2399V19.3961H19.2703V17.7752Z" fill="#343A40"/>
</g>
</svg>
