<svg width="25" height="26" viewBox="0 0 25 26" fill="none" xmlns="http://www.w3.org/2000/svg">
<path d="M12.4551 2.84478C11.7265 2.84719 10.9959 2.92802 10.2762 3.08892C9.96148 3.15954 9.76302 3.47121 9.83216 3.78625C9.90268 4.1039 10.2185 4.30326 10.5356 4.23028C13.8319 3.49331 17.3922 4.65725 19.5856 7.4743L17.9865 7.21795C17.6682 7.16851 17.3697 7.38523 17.3181 7.70318C17.2649 8.02312 17.4817 8.32542 17.8018 8.37762L20.7269 8.83843C21.0447 8.8879 21.343 8.67204 21.3953 8.35473L21.8622 5.43572C21.9154 5.11579 21.6986 4.81348 21.3785 4.76129C21.0565 4.70827 20.7532 4.92851 20.704 5.25109L20.4706 6.70983C18.4742 4.17583 15.4836 2.83477 12.4551 2.84478ZM4.85322 3.62908C4.56043 3.62232 4.30762 3.83279 4.26118 4.12194C4.20816 4.44392 4.4284 4.74718 4.75098 4.79638L6.2082 5.02831C3.06241 7.507 1.7547 11.5155 2.58881 15.2288C2.65943 15.5435 2.97111 15.742 3.28614 15.6728C3.60085 15.6022 3.79931 15.2906 3.73017 14.9755C2.98922 11.6769 4.15476 8.11031 6.97419 5.91485L6.71784 7.51245C6.6684 7.83072 6.88513 8.12924 7.20307 8.18078C7.52301 8.234 7.82532 8.01718 7.87751 7.69708L8.33833 4.77349C8.38872 4.45519 8.17262 4.15593 7.85462 4.10363C6.85737 3.94373 5.84648 3.78023 4.85322 3.62908ZM12.4963 10.0668C12.1733 10.0693 11.9133 10.3327 11.915 10.6558V12.4151H10.1556C9.83263 12.4134 9.56918 12.6734 9.56666 12.9965C9.56496 13.3224 9.82965 13.5871 10.1556 13.5854H11.915V15.3448C11.9175 15.6648 12.1763 15.9237 12.4963 15.9261C12.8194 15.9278 13.0828 15.6678 13.0853 15.3448V13.5854H14.8447C15.1677 13.5829 15.4277 13.3195 15.426 12.9965C15.4235 12.6764 15.1647 12.4176 14.8447 12.4151H13.0853V10.6558C13.087 10.3298 12.8223 10.0651 12.4963 10.0668ZM21.7127 10.3445C21.3979 10.4151 21.1995 10.7268 21.2686 11.0418C22.001 14.3354 20.8389 17.8944 18.0246 20.0857L18.281 18.4866C18.3305 18.1688 18.1146 17.8705 17.7972 17.8182C17.4768 17.7641 17.1735 17.9811 17.1213 18.3019L16.6544 21.227C16.6052 21.5474 16.8253 21.8468 17.1457 21.8954L20.0632 22.3623C20.3831 22.4155 20.6854 22.1987 20.7376 21.8786C20.7906 21.5566 20.5704 21.2534 20.2478 21.2042L18.7891 20.9707C21.93 18.4966 23.2406 14.4964 22.4161 10.7885C22.3657 10.5282 22.1517 10.2508 21.7127 10.3445ZM3.60352 17.6458L3.1366 20.5633C3.08344 20.8837 3.30111 21.1863 3.62183 21.2377C3.94382 21.2907 4.24707 21.0705 4.29627 20.7479L4.52821 19.2907C7.0065 22.4358 11.0161 23.7431 14.7287 22.9101C15.0434 22.8395 15.2419 22.5278 15.1727 22.2128C15.1022 21.8951 14.7864 21.6958 14.4693 21.7687C11.1706 22.5088 7.60788 21.3448 5.41322 18.5247L7.01234 18.7811C7.33011 18.8306 7.62839 18.6147 7.68067 18.2974C7.73482 17.9769 7.51778 17.6736 7.19697 17.6214L4.27338 17.1545C3.88072 17.1211 3.64735 17.3536 3.60352 17.6458Z" fill="white"/>
</svg>
