<svg width="20" height="20" viewBox="0 0 20 20" fill="none" xmlns="http://www.w3.org/2000/svg">
<g clip-path="url(#clip0_816_2884)">
<path fill-rule="evenodd" clip-rule="evenodd" d="M11.4418 19.0852L8.97093 13.3226C8.86212 13.0688 8.97965 12.7749 9.23341 12.6661C9.48718 12.5572 9.78112 12.6748 9.88993 12.9286L12.361 18.6915C12.5449 19.1215 13.1631 19.0959 13.3109 18.6521L18.9715 1.67319C19.1042 1.27508 18.7251 0.895988 18.327 1.0287L1.3492 6.68725C0.904161 6.83576 0.878527 7.45448 1.30983 7.63931L8.54895 10.7411L16.8709 2.42214C17.0662 2.22693 17.3827 2.22697 17.5779 2.42227C17.7731 2.61755 17.7731 2.93411 17.5778 3.12935L9.01633 11.6878C8.86226 11.8418 8.6327 11.8743 8.44682 11.7853L0.915995 8.55844C-0.360357 8.01141 -0.28437 6.17826 1.03284 5.73868L18.0108 0.0800336C19.1906 -0.313228 20.3134 0.809557 19.9201 1.98941L14.2595 18.9682C13.8213 20.2846 11.9875 20.3606 11.4418 19.0852Z" fill="white"/>
</g>
<defs>
<clipPath id="clip0_816_2884">
<rect width="20" height="20" fill="white"/>
</clipPath>
</defs>
</svg>
