<svg width="25" height="26" viewBox="0 0 25 26" fill="none" xmlns="http://www.w3.org/2000/svg">
<path d="M8.92651 11.6146C9.23198 11.3092 9.72573 11.3092 10.0312 11.6146L12.5 14.0826L14.9687 11.6139C15.2742 11.3084 15.7679 11.3084 16.0734 11.6139C16.3789 11.9193 16.3789 12.4131 16.0734 12.7186L13.6046 15.1873L16.0734 17.6561C16.3789 17.9615 16.3789 18.4553 16.0734 18.7607C15.921 18.9131 15.721 18.9896 15.521 18.9896C15.321 18.9896 15.121 18.9131 14.9687 18.7607L12.5 16.292L10.0312 18.7607C9.87886 18.9131 9.67886 18.9896 9.47886 18.9896C9.27886 18.9896 9.07886 18.9131 8.92651 18.7607C8.62105 18.4553 8.62105 17.9615 8.92651 17.6561L11.3953 15.1873L8.92651 12.7186C8.62183 12.4139 8.62183 11.9193 8.92651 11.6146Z" fill="white"/>
<path d="M18.7446 24.7184H6.25552C4.83364 24.7184 3.67661 23.5621 3.67661 22.1395V8.45117C3.67661 8.01914 4.02661 7.66992 4.45786 7.66992C4.88911 7.66992 5.23911 8.01914 5.23911 8.45117V22.1395C5.23911 22.6996 5.69458 23.1559 6.25552 23.1559H18.7446C19.3047 23.1559 19.761 22.6996 19.761 22.1395V8.45117C19.761 8.01914 20.111 7.66992 20.5422 7.66992C20.9735 7.66992 21.3235 8.01914 21.3235 8.45117V22.1395C21.3235 23.5621 20.1665 24.7184 18.7446 24.7184Z" fill="white"/>
<path d="M22.3149 5.93984H16.1407H8.85869H2.68447C2.25322 5.93984 1.90322 5.59062 1.90322 5.15859C1.90322 4.72656 2.25322 4.37734 2.68447 4.37734H8.07744V2.0625C8.07744 1.63047 8.42744 1.28125 8.85869 1.28125H16.1407C16.572 1.28125 16.922 1.63047 16.922 2.0625V4.37734H22.3149C22.7462 4.37734 23.0962 4.72656 23.0962 5.15859C23.0962 5.59062 22.747 5.93984 22.3149 5.93984ZM15.3603 2.84375H9.64072V4.37734H15.3603V2.84375Z" fill="white"/>
</svg>
