<svg width="49" height="48" viewBox="0 0 49 48" fill="none" xmlns="http://www.w3.org/2000/svg">
<path d="M0.226562 7.87474C0.299839 7.60796 0.369358 7.34118 0.45015 7.07627C1.07582 5.01154 2.93216 3.56115 5.08912 3.4503C5.30708 3.43903 5.52691 3.4334 5.74486 3.4334C12.3379 3.4334 18.9328 3.4334 25.5258 3.4334C25.8057 3.4334 26.0932 3.42964 26.3657 3.48976C27.1435 3.65884 27.6903 4.42161 27.6452 5.22759C27.5982 6.06363 26.9669 6.74937 26.1515 6.8358C25.9354 6.85834 25.7137 6.85083 25.4957 6.85083C18.8708 6.85083 12.2458 6.85083 5.62085 6.85083C4.63443 6.85083 3.9524 7.28481 3.74196 8.0814C3.66305 8.37824 3.66305 8.69951 3.66305 9.0095C3.65929 16.0548 3.65929 23.1019 3.65929 30.1472C3.65929 34.241 3.65929 38.3348 3.65929 42.4267C3.65929 42.6615 3.65929 42.8963 3.69123 43.1274C3.78518 43.8526 4.39018 44.4463 5.11731 44.5346C5.33338 44.5609 5.55321 44.5628 5.77304 44.5628C15.7894 44.5628 25.8039 44.5628 35.8202 44.5628C36.0382 44.5628 36.258 44.5609 36.4759 44.5346C37.2388 44.4444 37.8532 43.8113 37.9227 43.0429C37.9415 42.825 37.9396 42.6051 37.9396 42.3872C37.9396 36.9501 37.9396 31.5131 37.9452 26.076C37.9452 25.7528 37.9753 25.4128 38.0749 25.1084C38.3022 24.4095 39.0181 23.9624 39.7508 24C40.493 24.0394 41.1243 24.5504 41.3047 25.2756C41.3573 25.4861 41.3798 25.7077 41.3798 25.9238C41.3836 31.5318 41.3911 37.1418 41.3798 42.7498C41.3742 45.2561 39.7997 47.2719 37.4191 47.8412C36.9682 47.9483 36.4929 47.9877 36.0288 47.9896C25.8734 47.9971 15.7161 47.9971 5.56073 47.9953C2.83258 47.9953 0.827807 46.3363 0.305476 43.6648C0.294202 43.6065 0.256625 43.552 0.232199 43.4957C0.232199 31.6201 0.232199 19.7446 0.232199 7.8691L0.226562 7.87474Z" fill="#47C17A"/>
<path d="M42.4197 0C43.3197 0.32878 44.2929 0.531684 45.1046 1.00888C48.5805 3.04544 49.2757 7.91138 46.5776 10.9042C46.3691 11.1353 46.1511 11.3607 45.9313 11.5824C38.6412 18.872 31.3493 26.1596 24.0629 33.4547C23.6439 33.8737 23.1799 34.1668 22.6143 34.3528C19.4146 35.403 16.2223 36.4739 13.0282 37.5429C12.4044 37.7514 11.8013 37.789 11.2395 37.3907C10.5706 36.9173 10.3696 36.1601 10.6702 35.2546C11.5157 32.7108 12.457 30.1932 13.1898 27.6156C13.7553 25.6242 14.8094 24.0742 16.2768 22.6294C23.0671 15.9449 29.7841 9.18704 36.5068 2.43485C37.7337 1.20239 39.0846 0.276175 40.8452 0.0544835C40.8715 0.050726 40.8959 0.0206662 40.9203 0.00187874C41.4201 0.00187874 41.9199 0.00187874 42.4197 0.00187874V0ZM14.9484 33.2669C15.0988 33.2274 15.172 33.2124 15.2434 33.188C17.2839 32.506 19.3263 31.8296 21.363 31.1326C21.5715 31.0612 21.7632 30.8978 21.9229 30.7381C29.1528 23.5162 36.3772 16.2906 43.6015 9.06305C43.7894 8.87517 43.9735 8.68166 44.1332 8.47124C44.896 7.45484 45.0182 6.34263 44.4695 5.21163C43.4831 3.18071 40.9635 2.84817 39.2876 4.52025C31.99 11.806 24.698 19.0993 17.4079 26.3926C17.2895 26.5109 17.1618 26.6481 17.111 26.8002C16.3914 28.927 15.685 31.0575 14.9484 33.2669Z" fill="#47C17A"/>
</svg>
