<svg width="30" height="30" viewBox="0 0 30 30" fill="none" xmlns="http://www.w3.org/2000/svg">
<g id="T4SFhb.tif">
<g id="Group">
<path id="Vector" d="M0.0054378 13.0805C0.163768 12.8108 0.394226 12.7023 0.710886 12.7046C1.9787 12.7146 3.2471 12.707 4.51491 12.7105C4.88024 12.7117 5.12184 12.9034 5.16875 13.2107C5.23032 13.613 4.95882 13.9161 4.51843 13.9185C3.53326 13.9238 2.5481 13.9326 1.56293 13.9132C1.25859 13.9073 1.18939 14.0059 1.19057 14.2961C1.20112 16.7637 1.20171 19.2313 1.19057 21.6995C1.18939 21.9927 1.26328 22.0854 1.56528 22.0801C2.64779 22.0625 3.73088 22.0654 4.81339 22.0789C5.07669 22.0824 5.14471 21.9933 5.14119 21.7417C5.1277 20.8932 5.13357 20.0447 5.13709 19.1961C5.14119 18.157 5.90117 17.39 6.91976 17.3918C7.91842 17.3935 8.68309 18.1647 8.68778 19.1827C8.69189 20.0412 8.69599 20.8997 8.68426 21.7576C8.68133 21.9957 8.75053 22.0807 8.99799 22.0778C10.1098 22.0666 11.2216 22.0672 12.3335 22.0778C12.5704 22.0801 12.6314 21.9968 12.6308 21.7716C12.6243 19.2554 12.6237 16.7385 12.632 14.2222C12.6325 13.9648 12.5317 13.915 12.3036 13.9173C11.2991 13.9261 10.2945 13.9255 9.28943 13.9185C8.79685 13.915 8.50541 13.4781 8.70303 13.0582C8.80799 12.8354 8.98861 12.7134 9.23607 12.7128C10.5725 12.7105 11.9089 12.7064 13.2448 12.7146C13.6283 12.7169 13.8358 12.9691 13.837 13.3966C13.84 14.8403 13.8382 16.2835 13.8382 17.7272C13.8382 18.1107 13.8382 18.1084 14.2035 18.0269C14.9823 17.8527 15.7622 17.6809 16.5363 17.5091C16.5591 17.4029 16.4811 17.3765 16.433 17.3378C15.4854 16.5644 14.9817 15.5557 14.9383 14.346C14.9049 13.4118 14.8802 12.4742 14.9682 11.54C15.1482 9.62657 16.8512 8.0937 18.7669 8.01689C20.9443 7.92951 22.9527 9.70398 22.904 12.1112C22.8865 12.9879 22.9656 13.8681 22.8607 14.7412C22.7311 15.8196 22.2121 16.6881 21.3688 17.3671C21.3331 17.3959 21.302 17.4299 21.234 17.4944C21.8778 17.6381 22.4789 17.7946 23.0888 17.9025C24.1285 18.0867 25.0597 18.4526 25.7229 19.3246C25.8214 19.4536 25.9598 19.4401 26.0964 19.4401C27.1403 19.4401 28.1841 19.4395 29.2273 19.4401C29.7908 19.4407 29.9914 19.636 29.9914 20.1895C29.9925 23.213 29.989 26.2371 29.9961 29.2607C29.9966 29.5849 29.9028 29.8306 29.6202 29.9954C19.8366 29.9954 10.0529 29.9948 0.269321 30.0007C0.0500047 30.0007 -0.00335831 29.952 0.000160136 29.7315C0.0142339 28.7663 0.00602421 27.8005 0.00602421 26.8347C0.169632 26.5503 0.415336 26.4524 0.739619 26.4588C1.47028 26.4729 2.20153 26.4535 2.9322 26.4682C3.18435 26.4735 3.26879 26.4013 3.26997 26.1404C3.27348 25.3458 3.79949 24.6703 4.53836 24.4251C4.73305 24.3606 5.02098 24.4679 5.11128 24.2428C5.18576 24.0575 5.11832 23.8188 5.13884 23.6065C5.16523 23.3409 5.05323 23.2781 4.80342 23.2799C3.44882 23.2904 2.09422 23.2787 0.739619 23.2893C0.415923 23.2916 0.169632 23.1966 0.0054378 22.9134V13.0811V13.0805ZM23.8652 19.4395C23.8687 19.4237 23.8728 19.4084 23.8763 19.3926C23.7766 19.3562 23.6793 19.3093 23.5767 19.2859C22.7498 19.0982 21.9218 18.9164 21.095 18.7288C20.9173 18.6883 20.8528 18.7833 20.7994 18.9282C20.5707 19.5503 20.335 20.1702 20.1028 20.7912C19.9186 21.2843 19.7339 21.7775 19.5516 22.2713C19.4407 22.5715 19.2865 22.8207 18.9188 22.8248C18.6074 22.8284 18.4169 22.6624 18.2638 22.259C18.2497 22.2226 18.2386 22.1851 18.2251 22.1487C17.8293 21.0891 17.4335 20.03 17.037 18.971C16.9854 18.8332 16.9485 18.6801 16.7415 18.7276C15.8865 18.9217 15.0309 19.1152 14.1754 19.3076C13.9138 19.3662 13.8265 19.5181 13.8312 19.7902C13.847 20.7361 13.8405 21.6825 13.8353 22.6284C13.8329 23.0541 13.6077 23.2729 13.1838 23.284C13.1157 23.2858 13.046 23.2922 12.9791 23.284C12.7234 23.2512 12.6372 23.3585 12.6413 23.6147C12.6537 24.4439 12.6554 25.2731 12.6408 26.1017C12.6355 26.3808 12.7228 26.4694 13.0061 26.4682C15.6496 26.4588 18.2931 26.4582 20.9361 26.4682C21.2246 26.4694 21.2949 26.3767 21.2932 26.1011C21.2826 24.1501 21.2873 22.1991 21.2879 20.2487C21.2879 19.6125 21.4638 19.4395 22.1095 19.4395C22.6947 19.4395 23.2793 19.4395 23.8646 19.4395H23.8652ZM15.0175 27.6744H1.90774C1.43314 27.6744 1.19604 27.909 1.19643 28.3781C1.19643 28.6619 1.34069 28.8038 1.6292 28.8038C10.4376 28.8038 19.2455 28.8038 28.0539 28.8038C28.5382 28.8038 28.7802 28.5644 28.7798 28.0855C28.7798 27.8118 28.6405 27.6748 28.3617 27.6744C23.9138 27.6744 19.4659 27.6744 15.018 27.6744H15.0175ZM21.6538 14.0117C21.6538 13.8047 21.6415 13.6376 21.6568 13.4734C21.679 13.2388 21.5882 13.0934 21.38 12.982C21.0281 12.7932 20.6863 12.585 20.345 12.3774C20.2124 12.2971 20.1128 12.2859 19.982 12.3973C19.1276 13.1251 18.1219 13.4306 17.0124 13.4347C16.1592 13.4382 16.1416 13.4382 16.1797 14.3114C16.226 15.3704 16.7298 16.1744 17.6686 16.6623C18.6215 17.1578 19.5774 17.0951 20.4652 16.4905C21.3454 15.8906 21.709 15.0227 21.6532 14.0111L21.6538 14.0117ZM21.6016 11.6849C21.6661 11.5312 21.6034 11.4309 21.5782 11.3324C21.2381 10.0048 20.0911 9.1938 18.8215 9.25303C17.4053 9.31871 16.321 10.3737 16.1815 11.7265C16.1369 12.1616 16.1592 12.1862 16.6031 12.1868C16.7685 12.1868 16.9344 12.1857 17.0998 12.1868C18.0363 12.1944 18.8279 11.8637 19.4742 11.1823C19.8354 10.8011 20.0482 10.7736 20.501 11.0375C20.8616 11.2474 21.2199 11.4609 21.6011 11.6854L21.6016 11.6849ZM25.6396 21.781C26.5855 21.781 27.532 21.7752 28.4778 21.7851C28.7036 21.7875 28.8045 21.7242 28.7822 21.4867C28.7664 21.3225 28.764 21.1536 28.7822 20.99C28.8139 20.7126 28.6972 20.6446 28.4333 20.6463C26.7262 20.6569 25.0192 20.6516 23.3122 20.6516C22.4824 20.6516 22.4906 20.6516 22.4936 21.4872C22.4941 21.7236 22.5745 21.7875 22.8003 21.7851C23.7461 21.7752 24.6926 21.781 25.6385 21.781H25.6396ZM25.632 24.122H28.0023C28.7845 24.122 28.7711 24.122 28.7869 23.3385C28.7927 23.0412 28.6813 22.9855 28.4133 22.9873C26.7163 22.9972 25.0192 22.9925 23.3222 22.9925C22.4865 22.9925 22.4965 22.9925 22.4947 23.8206C22.4941 24.0774 22.595 24.1284 22.8237 24.1261C23.7602 24.1167 24.6961 24.122 25.6326 24.122H25.632ZM25.6308 26.4629H28.0011C28.7845 26.4629 28.7711 26.4629 28.7869 25.6801C28.7927 25.3839 28.6825 25.3265 28.4139 25.3282C26.7069 25.3388 25.0005 25.3335 23.2934 25.3335C22.4936 25.3335 22.5065 25.3335 22.4936 26.1304C22.4889 26.416 22.5962 26.4711 22.8513 26.4676C23.7778 26.4553 24.7043 26.4629 25.6308 26.4629ZM7.47568 21.6995C7.47568 20.9096 7.47568 20.1192 7.47568 19.3293C7.47568 19.0859 7.42876 18.8596 7.20769 18.7147C7.03059 18.598 6.84236 18.5869 6.65412 18.6907C6.42073 18.8191 6.34919 19.0378 6.34919 19.2835C6.34626 20.8832 6.34919 22.483 6.3445 24.0827C6.34391 24.2803 6.40197 24.3724 6.61131 24.3589C6.80541 24.3466 7.00186 24.3454 7.19596 24.3589C7.41704 24.3747 7.48213 24.2832 7.47978 24.0698C7.4704 23.2799 7.47626 22.4894 7.47568 21.6995ZM11.3993 24.8861C11.3993 24.448 11.3911 24.0094 11.4028 23.5713C11.4087 23.3585 11.3401 23.277 11.1196 23.2811C10.5549 23.2928 9.99019 23.2846 9.42548 23.2846C8.67781 23.2846 8.68426 23.2846 8.68368 24.0475C8.68368 24.2627 8.73528 24.3454 8.97102 24.3706C9.83303 24.4627 10.5232 25.2109 10.5584 26.053C10.5698 26.3259 10.7099 26.4623 10.9789 26.4623C11.0082 26.4623 11.0375 26.4588 11.0662 26.4623C11.3149 26.4975 11.4169 26.4066 11.4046 26.141C11.3847 25.7229 11.3993 25.3036 11.3993 24.8849V24.8861ZM6.91038 26.4629C7.63166 26.4629 8.35294 26.4553 9.07364 26.467C9.32697 26.4711 9.37564 26.3626 9.33517 26.1457C9.2695 25.7932 9.04784 25.5774 8.66491 25.5739C7.49562 25.5628 6.32573 25.5628 5.15644 25.5739C4.77469 25.5774 4.55009 25.7944 4.48559 26.1451C4.44571 26.3603 4.49145 26.4717 4.74654 26.467C5.46723 26.4547 6.1891 26.4629 6.90979 26.4629H6.91038ZM18.869 20.3402C18.8971 20.3402 18.9253 20.3414 18.9534 20.342C19.2079 19.6588 19.4624 18.9757 19.7169 18.2919C19.7633 18.1676 19.7169 18.1336 19.5932 18.1541C19.1381 18.2286 18.6819 18.2292 18.2263 18.1523C18.102 18.1312 18.0574 18.1699 18.1031 18.2925C18.3582 18.9751 18.6139 19.6582 18.869 20.3408V20.3402Z" fill="#343A40"/>
<path id="Vector_2" d="M0.00537109 4.71127C0.164287 3.83811 0.463941 3.02535 0.979393 2.29293C2.24603 0.492074 4.52129 -0.365839 6.70449 0.146681C8.81027 0.641022 10.471 2.44246 10.7988 4.58813C11.2691 7.66911 9.107 10.5208 6.04009 10.8639C3.1749 11.1834 0.567149 9.22778 0.0516973 6.37256C0.0393827 6.30571 0.0212041 6.24062 0.0059575 6.17436V4.71127H0.00537109ZM9.6418 5.44663C9.64356 3.14674 7.74008 1.21042 5.43022 1.22919C3.07287 1.24854 1.22392 3.05409 1.21044 5.42962C1.19636 7.8075 3.07521 9.64413 5.42729 9.66114C7.73246 9.67814 9.64004 7.75121 9.6418 5.44663Z" fill="#343A40"/>
<path id="Vector_3" d="M6.92375 12.711C7.2709 12.7169 7.52423 12.9837 7.51485 13.3332C7.50547 13.6786 7.23455 13.9301 6.88505 13.9172C6.55197 13.9049 6.30626 13.6463 6.30861 13.3091C6.31096 12.9614 6.57484 12.7051 6.92375 12.7104V12.711Z" fill="#343A40"/>
<path id="Vector_4" d="M4.79758 4.00811C4.79758 3.57945 4.79112 3.15078 4.79933 2.72271C4.80813 2.26707 5.04914 1.99849 5.42855 2.00025C5.81265 2.00201 6.04369 2.26765 6.04604 2.7274C6.05073 3.44809 6.05483 4.16879 6.0431 4.88889C6.03959 5.1129 6.1035 5.27944 6.2718 5.42546C6.43306 5.56561 6.58201 5.72101 6.72568 5.87992C6.97666 6.15671 6.97608 6.49917 6.73448 6.74546C6.49405 6.99116 6.14807 7.00406 5.87011 6.74898C5.5687 6.47278 5.28547 6.17723 4.9993 5.88461C4.84859 5.73039 4.79582 5.53511 4.7964 5.32225C4.79758 4.8842 4.7964 4.44557 4.7964 4.00752L4.79758 4.00811Z" fill="#343A40"/>
</g>
</g>
</svg>
