<svg width="28" height="39" viewBox="0 0 28 39" fill="none" xmlns="http://www.w3.org/2000/svg">
<g id="Outline">
<path id="Vector" fill-rule="evenodd" clip-rule="evenodd" d="M21.6901 27.0234C22.0007 26.7148 22.247 26.3475 22.4146 25.9429C22.5822 25.5384 22.6679 25.1046 22.6667 24.6667V23.9326C23.3303 23.7985 23.9369 23.4641 24.4045 22.9745C24.8721 22.4849 25.1783 21.8636 25.2818 21.1945C25.5105 21.2849 25.7541 21.332 26 21.3333C26.3956 21.3333 26.7822 21.216 27.1111 20.9963C27.44 20.7765 27.6964 20.4641 27.8478 20.0987C27.9991 19.7332 28.0387 19.3311 27.9616 18.9431C27.8844 18.5552 27.6939 18.1988 27.4142 17.9191C27.1345 17.6394 26.7781 17.4489 26.3902 17.3718C26.0022 17.2946 25.6001 17.3342 25.2346 17.4856C24.8692 17.6369 24.5568 17.8933 24.3371 18.2222C24.1173 18.5511 24 18.9378 24 19.3333V20.6667C23.9999 21.1971 23.7891 21.7057 23.4141 22.0807C23.039 22.4558 22.5304 22.6665 22 22.6667H16V21.3333H22C22.0876 21.3334 22.1743 21.3162 22.2552 21.2827C22.3361 21.2492 22.4096 21.2001 22.4715 21.1382C22.5334 21.0763 22.5825 21.0028 22.616 20.9218C22.6495 20.8409 22.6667 20.7542 22.6667 20.6667V3.33333C22.6658 2.44953 22.3144 1.60216 21.6895 0.977211C21.0645 0.352267 20.2171 0.000815506 19.3333 0H8.66667C7.78286 0.000815506 6.93549 0.352267 6.31055 0.977211C5.6856 1.60216 5.33415 2.44953 5.33333 3.33333V20.6667C5.33328 20.7542 5.35049 20.8409 5.38398 20.9218C5.41746 21.0028 5.46657 21.0763 5.52848 21.1382C5.5904 21.2001 5.66391 21.2492 5.74482 21.2827C5.82572 21.3162 5.91244 21.3334 6 21.3333H12V22.6667H6C5.46947 22.6653 4.96089 22.4548 4.58464 22.0807C4.39845 21.8955 4.25089 21.6751 4.15053 21.4323C4.05017 21.1896 3.999 20.9293 4 20.6667V19.3333C4 18.9378 3.8827 18.5511 3.66294 18.2222C3.44318 17.8933 3.13082 17.6369 2.76537 17.4856C2.39992 17.3342 1.99778 17.2946 1.60982 17.3718C1.22186 17.4489 0.865492 17.6394 0.585787 17.9191C0.306082 18.1988 0.115601 18.5552 0.0384303 18.9431C-0.0387401 19.3311 0.000866572 19.7332 0.152242 20.0987C0.303617 20.4641 0.559962 20.7765 0.88886 20.9963C1.21776 21.216 1.60444 21.3333 2 21.3333C2.24594 21.332 2.48948 21.2849 2.71819 21.1945C2.82412 21.8867 3.14766 22.5273 3.64193 23.0234C4.10549 23.4838 4.69331 23.7989 5.33333 23.9301V24.6667C5.33201 25.1045 5.41753 25.5382 5.58493 25.9427C5.75234 26.3473 5.9983 26.7146 6.3086 27.0234C6.93542 27.6467 7.78274 27.9976 8.66667 28H12V34.6667H4.66667C4.2711 34.6667 3.88443 34.784 3.55553 35.0037C3.22663 35.2235 2.97028 35.5358 2.81891 35.9013C2.66753 36.2667 2.62793 36.6689 2.7051 37.0568C2.78227 37.4448 2.97275 37.8012 3.25245 38.0809C3.53216 38.3606 3.88852 38.5511 4.27649 38.6282C4.66445 38.7054 5.06658 38.6658 5.43203 38.5144C5.79749 38.363 6.10984 38.1067 6.32961 37.7778C6.54937 37.4489 6.66667 37.0622 6.66667 36.6667C6.66443 36.439 6.62288 36.2135 6.54387 36H12.1228C12.0438 36.2135 12.0022 36.439 12 36.6667C12 37.1971 12.2107 37.7058 12.5858 38.0809C12.9609 38.4559 13.4696 38.6667 14 38.6667C14.5304 38.6667 15.0391 38.4559 15.4142 38.0809C15.7893 37.7058 16 37.1971 16 36.6667C15.9978 36.439 15.9562 36.2135 15.8772 36H21.4561C21.3771 36.2135 21.3356 36.439 21.3333 36.6667C21.3333 37.0622 21.4506 37.4489 21.6704 37.7778C21.8902 38.1067 22.2025 38.363 22.568 38.5144C22.9334 38.6658 23.3356 38.7054 23.7235 38.6282C24.1115 38.5511 24.4678 38.3606 24.7475 38.0809C25.0273 37.8012 25.2177 37.4448 25.2949 37.0568C25.3721 36.6689 25.3325 36.2667 25.1811 35.9013C25.0297 35.5358 24.7734 35.2235 24.4445 35.0037C24.1156 34.784 23.7289 34.6667 23.3333 34.6667H16V34C16 33.8232 15.9298 33.6536 15.8047 33.5286C15.6797 33.4036 15.5101 33.3333 15.3333 33.3333C15.1565 33.3333 14.987 33.4036 14.8619 33.5286C14.7369 33.6536 14.6667 33.8232 14.6667 34V34.6667H13.3333V28H14.6667V28.6667C14.6667 28.8435 14.7369 29.013 14.8619 29.1381C14.987 29.2631 15.1565 29.3333 15.3333 29.3333C15.5101 29.3333 15.6797 29.2631 15.8047 29.1381C15.9298 29.013 16 28.8435 16 28.6667V28H19.3333C19.7712 28.0013 20.205 27.9156 20.6096 27.7479C21.0142 27.5803 21.3814 27.3341 21.6901 27.0234ZM26 18.6667C26.1319 18.6667 26.2607 18.7058 26.3704 18.779C26.48 18.8523 26.5655 18.9564 26.6159 19.0782C26.6664 19.2 26.6796 19.3341 26.6539 19.4634C26.6281 19.5927 26.5646 19.7115 26.4714 19.8047C26.3782 19.898 26.2594 19.9615 26.1301 19.9872C26.0007 20.0129 25.8667 19.9997 25.7449 19.9492C25.6231 19.8988 25.5189 19.8133 25.4457 19.7037C25.3724 19.5941 25.3333 19.4652 25.3333 19.3333C25.3337 19.1566 25.404 18.9873 25.529 18.8623C25.6539 18.7374 25.8233 18.667 26 18.6667ZM2 20C1.86815 20 1.73925 19.9609 1.62962 19.8876C1.51999 19.8144 1.43454 19.7103 1.38408 19.5885C1.33362 19.4666 1.32042 19.3326 1.34614 19.2033C1.37187 19.0739 1.43536 18.9552 1.5286 18.8619C1.62183 18.7687 1.74062 18.7052 1.86994 18.6795C1.99926 18.6537 2.13331 18.667 2.25512 18.7174C2.37694 18.7679 2.48106 18.8533 2.55431 18.9629C2.62757 19.0726 2.66667 19.2015 2.66667 19.3333C2.66632 19.51 2.59596 19.6794 2.47102 19.8043C2.34607 19.9293 2.1767 19.9996 2 20ZM5.33333 36.6667C5.33333 36.7985 5.29424 36.9274 5.22098 37.037C5.14773 37.1467 5.04361 37.2321 4.92179 37.2826C4.79997 37.333 4.66593 37.3462 4.53661 37.3205C4.40729 37.2948 4.2885 37.2313 4.19526 37.1381C4.10203 37.0448 4.03853 36.926 4.01281 36.7967C3.98709 36.6674 4.00029 36.5334 4.05075 36.4115C4.10121 36.2897 4.18665 36.1856 4.29629 36.1123C4.40592 36.0391 4.53481 36 4.66667 36C4.84337 36.0003 5.01274 36.0707 5.13768 36.1956C5.26263 36.3206 5.33298 36.49 5.33333 36.6667ZM14 37.3333C13.8681 37.3333 13.7393 37.2942 13.6296 37.221C13.52 37.1477 13.4345 37.0436 13.3841 36.9218C13.3336 36.8 13.3204 36.6659 13.3461 36.5366C13.3719 36.4073 13.4354 36.2885 13.5286 36.1953C13.6218 36.102 13.7406 36.0385 13.8699 36.0128C13.9993 35.9871 14.1333 36.0003 14.2551 36.0507C14.3769 36.1012 14.4811 36.1866 14.5543 36.2963C14.6276 36.4059 14.6667 36.5348 14.6667 36.6667C14.6663 36.8434 14.596 37.0127 14.471 37.1377C14.3461 37.2626 14.1767 37.333 14 37.3333ZM23.3333 37.3333C23.2015 37.3333 23.0726 37.2942 22.963 37.221C22.8533 37.1477 22.7679 37.0436 22.7174 36.9218C22.667 36.8 22.6538 36.6659 22.6795 36.5366C22.7052 36.4073 22.7687 36.2885 22.8619 36.1953C22.9552 36.102 23.0739 36.0385 23.2033 36.0128C23.3326 35.9871 23.4666 36.0003 23.5885 36.0507C23.7103 36.1012 23.8144 36.1866 23.8876 36.2963C23.9609 36.4059 24 36.5348 24 36.6667C23.9996 36.8434 23.9293 37.0127 23.8043 37.1377C23.6794 37.2626 23.51 37.333 23.3333 37.3333ZM6.66667 3.33333C6.66725 2.80308 6.87815 2.29471 7.25309 1.91976C7.62804 1.54481 8.13641 1.33391 8.66667 1.33333H19.3333C19.8636 1.33391 20.372 1.54481 20.7469 1.91976C21.1219 2.29471 21.3328 2.80308 21.3333 3.33333V20H6.66667V3.33333ZM13.3333 21.3333H14.6667V22.6667H13.3333V21.3333ZM12.6667 26.6667H8.66667C8.13614 26.6653 7.62756 26.4548 7.25131 26.0807C7.06511 25.8955 6.91755 25.6751 6.81719 25.4323C6.71683 25.1896 6.66567 24.9293 6.66667 24.6667V24H21.3333V24.6667C21.3332 25.1971 21.1224 25.7057 20.7474 26.0807C20.3724 26.4558 19.8637 26.6665 19.3333 26.6667H12.6667Z" fill="#343A40"/>
<path id="Vector_2" d="M13.9999 16.0001C14.3681 16.0001 14.6666 15.7016 14.6666 15.3334C14.6666 14.9652 14.3681 14.6667 13.9999 14.6667C13.6317 14.6667 13.3333 14.9652 13.3333 15.3334C13.3333 15.7016 13.6317 16.0001 13.9999 16.0001Z" fill="#343A40"/>
<path id="Vector_3" fill-rule="evenodd" clip-rule="evenodd" d="M16.0001 8.66683C15.9995 9.19709 15.7886 9.70546 15.4137 10.0804C15.0387 10.4554 14.5303 10.6663 14.0001 10.6668C13.9125 10.6668 13.8258 10.684 13.7449 10.7175C13.664 10.751 13.5905 10.8001 13.5286 10.862C13.4666 10.9239 13.4175 10.9974 13.3841 11.0783C13.3506 11.1592 13.3334 11.2459 13.3334 11.3335V12.6668C13.3334 12.8436 13.4037 13.0132 13.5287 13.1382C13.6537 13.2633 13.8233 13.3335 14.0001 13.3335C14.1769 13.3335 14.3465 13.2633 14.4715 13.1382C14.5965 13.0132 14.6667 12.8436 14.6667 12.6668V11.9338C15.2848 11.8077 15.8544 11.5089 16.3095 11.072C16.7645 10.6351 17.0862 10.0781 17.2373 9.46563C17.3883 8.85318 17.3625 8.21045 17.1629 7.61208C16.9632 7.01371 16.5979 6.48426 16.1093 6.08524C15.6208 5.68622 15.029 5.43399 14.4028 5.35786C13.7766 5.28174 13.1417 5.38483 12.5718 5.65517C12.0018 5.92551 11.5203 6.352 11.1831 6.8851C10.8459 7.4182 10.6668 8.03603 10.6667 8.66683C10.6667 8.84364 10.737 9.01321 10.862 9.13824C10.987 9.26326 11.1566 9.3335 11.3334 9.3335C11.5102 9.3335 11.6798 9.26326 11.8048 9.13824C11.9298 9.01321 12.0001 8.84364 12.0001 8.66683C12.0001 8.1364 12.2108 7.62769 12.5859 7.25262C12.9609 6.87755 13.4696 6.66683 14.0001 6.66683C14.5305 6.66683 15.0392 6.87755 15.4143 7.25262C15.7894 7.62769 16.0001 8.1364 16.0001 8.66683Z" fill="#343A40"/>
<path id="Vector_4" d="M15.3334 31.9998C15.7016 31.9998 16.0001 31.7014 16.0001 31.3332C16.0001 30.965 15.7016 30.6665 15.3334 30.6665C14.9652 30.6665 14.6667 30.965 14.6667 31.3332C14.6667 31.7014 14.9652 31.9998 15.3334 31.9998Z" fill="#343A40"/>
</g>
</svg>
