<svg width="20" height="20" viewBox="0 0 20 20" fill="none" xmlns="http://www.w3.org/2000/svg">
<g clip-path="url(#clip0_816_2872)">
<path d="M16.4286 20H3.57143C1.60214 20 0 18.3979 0 16.4286V3.57143C0 1.60214 1.60214 0 3.57143 0H15C15.1894 0 15.3711 0.0752679 15.5051 0.209196L19.7908 4.49491C19.9247 4.62884 20 4.81058 20 5V16.4286C20 18.3979 18.3979 20 16.4286 20ZM3.57143 1.42857C2.38987 1.42857 1.42857 2.38987 1.42857 3.57143V16.4286C1.42857 17.6102 2.38987 18.5714 3.57143 18.5714H16.4286C17.6102 18.5714 18.5714 17.6102 18.5714 16.4286V5.29589L14.7041 1.42857H3.57143Z" fill="white"/>
<path d="M15.7143 20.0004C15.3198 20.0004 15 19.6806 15 19.2861V12.8576C15 11.676 14.0387 10.7147 12.8571 10.7147H7.14284C5.96128 10.7147 4.99998 11.676 4.99998 12.8576V19.2861C4.99998 19.6806 4.68016 20.0004 4.2857 20.0004C3.89123 20.0004 3.57141 19.6806 3.57141 19.2861V12.8576C3.57141 10.8883 5.17355 9.28613 7.14284 9.28613H12.8571C14.8264 9.28613 16.4286 10.8883 16.4286 12.8576V19.2861C16.4286 19.6806 16.1088 20.0004 15.7143 20.0004Z" fill="white"/>
<path d="M9.2857 5.71429H4.2857C3.89123 5.71429 3.57141 5.39446 3.57141 5V0.714286C3.57141 0.319821 3.89123 0 4.2857 0C4.68016 0 4.99998 0.319821 4.99998 0.714286V4.28571H8.57141V0.714286C8.57141 0.319821 8.89123 0 9.2857 0C9.68016 0 9.99998 0.319821 9.99998 0.714286V5C9.99998 5.39446 9.68016 5.71429 9.2857 5.71429Z" fill="white"/>
</g>
<defs>
<clipPath id="clip0_816_2872">
<rect width="20" height="20" fill="white"/>
</clipPath>
</defs>
</svg>
