<svg width="25" height="25" viewBox="0 0 25 25" fill="none" xmlns="http://www.w3.org/2000/svg">
<g id="Capa_1" clip-path="url(#clip0_486_2130)">
<g id="Group">
<g id="layer1_00000072963618680574873660000015406673454742146451_">
<g id="g18115">
<path id="path17034" d="M10.195 0C4.57886 0 0.000152588 4.57871 0.000152588 10.1948C0.000152588 15.8109 4.57886 20.3896 10.195 20.3896C12.5543 20.3896 14.7292 19.5808 16.4603 18.2272L22.8671 24.6341C23.3551 25.122 24.1462 25.122 24.6342 24.6341C25.1221 24.1461 25.1221 23.355 24.6342 22.867L18.2274 16.4602C19.5815 14.7295 20.3922 12.5542 20.3922 10.1949C20.3922 4.57876 15.8111 0 10.195 0ZM10.195 2.49932C14.4604 2.49932 17.893 5.92944 17.893 10.1949C17.893 14.4603 14.4604 17.8904 10.195 17.8904C5.92955 17.8904 2.49937 14.4603 2.49942 10.1949C2.49942 5.92944 5.92955 2.49932 10.195 2.49932Z" fill="#D9D9D9"/>
</g>
</g>
</g>
</g>
<defs>
<clipPath id="clip0_486_2130">
<rect width="25" height="25" fill="white"/>
</clipPath>
</defs>
</svg>
