<svg width="24" height="24" viewBox="0 0 24 24" fill="none" xmlns="http://www.w3.org/2000/svg">
<g id="fluent:location-28-regular">
<path id="Vector" d="M12 1.92871C14.2165 1.92871 16.3422 2.80919 17.9094 4.37646C19.4767 5.94373 20.3572 8.0694 20.3572 10.2859C20.3572 13.8173 17.8757 17.6659 12.9772 21.8727C12.7048 22.1067 12.3575 22.2352 11.9984 22.2349C11.6393 22.2346 11.2923 22.1055 11.0203 21.871L10.6963 21.5899C6.0146 17.4927 3.64288 13.7384 3.64288 10.2859C3.64288 8.0694 4.52337 5.94373 6.09063 4.37646C7.6579 2.80919 9.78357 1.92871 12 1.92871ZM12 3.21443C10.1246 3.21443 8.32592 3.95945 6.99977 5.2856C5.67362 6.61175 4.9286 8.41039 4.9286 10.2859C4.9286 13.2876 7.1126 16.7461 11.5406 20.6204L11.8603 20.8973C11.8992 20.9307 11.9488 20.9491 12 20.9491C12.0513 20.9491 12.1009 20.9307 12.1397 20.8973C16.782 16.9099 19.0715 13.3587 19.0715 10.2859C19.0715 9.35722 18.8885 8.43768 18.5332 7.57974C18.1778 6.72179 17.6569 5.94224 17.0003 5.2856C16.3436 4.62896 15.5641 4.10808 14.7061 3.75271C13.8482 3.39733 12.9287 3.21443 12 3.21443ZM12 7.07157C12.8525 7.07157 13.6701 7.41021 14.2729 8.01301C14.8757 8.61581 15.2143 9.43337 15.2143 10.2859C15.2143 11.1383 14.8757 11.9559 14.2729 12.5587C13.6701 13.1615 12.8525 13.5001 12 13.5001C11.1475 13.5001 10.33 13.1615 9.72718 12.5587C9.12439 11.9559 8.78574 11.1383 8.78574 10.2859C8.78574 9.43337 9.12439 8.61581 9.72718 8.01301C10.33 7.41021 11.1475 7.07157 12 7.07157ZM12 8.35728C11.4885 8.35728 10.998 8.56047 10.6363 8.92215C10.2746 9.28383 10.0715 9.77436 10.0715 10.2859C10.0715 10.7973 10.2746 11.2879 10.6363 11.6496C10.998 12.0112 11.4885 12.2144 12 12.2144C12.5115 12.2144 13.0021 12.0112 13.3637 11.6496C13.7254 11.2879 13.9286 10.7973 13.9286 10.2859C13.9286 9.77436 13.7254 9.28383 13.3637 8.92215C13.0021 8.56047 12.5115 8.35728 12 8.35728Z" fill="#2C2C2C"/>
</g>
</svg>
