<svg width="39" height="39" viewBox="0 0 39 39" fill="none" xmlns="http://www.w3.org/2000/svg">
<g id="material-symbols-light:download">
<path id="Vector" d="M19.5 25.3126L13.7507 19.5618L14.8996 18.3934L18.6875 22.1812V8.125H20.3125V22.1812L24.0988 18.395L25.2493 19.5618L19.5 25.3126ZM10.7494 30.875C10.0019 30.875 9.37787 30.6248 8.87737 30.1243C8.37579 29.6227 8.125 28.9981 8.125 28.2506V24.3132H9.75V28.2506C9.75 28.4998 9.854 28.7289 10.062 28.938C10.2711 29.146 10.5002 29.25 10.7494 29.25H28.2506C28.4998 29.25 28.7289 29.146 28.938 28.938C29.146 28.7289 29.25 28.4998 29.25 28.2506V24.3132H30.875V28.2506C30.875 28.9981 30.6248 29.6221 30.1243 30.1226C29.6227 30.6242 28.9981 30.875 28.2506 30.875H10.7494Z" fill="#3331B0"/>
</g>
</svg>
