<svg width="15" height="15" viewBox="0 0 15 15" fill="none" xmlns="http://www.w3.org/2000/svg">
<g id="layer2_00000078045294136100318890000011658959773326352039_">
<g id="g21888">
<path id="rect19082" d="M2.67858 0C1.20393 0 0 1.20393 0 2.67858V12.3214C0 13.7961 1.20393 15 2.67858 15H12.3214C13.7961 15 15 13.7961 15 12.3214V6.96428C15 6.66841 14.7601 6.42855 14.4643 6.42855C14.1684 6.42855 13.9286 6.66841 13.9286 6.96428V12.3214C13.9286 13.221 13.221 13.9286 12.3214 13.9286H2.67858C1.77896 13.9286 1.07145 13.221 1.07145 12.3214V2.67858C1.07145 1.77896 1.77896 1.07145 2.67858 1.07145H7.5C7.79587 1.07145 8.03572 0.831592 8.03572 0.535723C8.03572 0.239854 7.79587 0 7.5 0H2.67858Z" fill="white"/>
<path id="path19635" d="M12.7148 1.04177e-07C12.1279 -0.000175677 11.5401 0.2221 11.0951 0.666504L5.83109 5.92529C5.74534 6.01087 5.69111 6.12302 5.67728 6.24337L5.36026 9.03914C5.321 9.38174 5.61093 9.67166 5.95352 9.6324L8.74929 9.31538C8.86953 9.30184 8.98165 9.248 9.06737 9.16263L14.3282 3.9007C15.2179 3.01371 15.2205 1.55722 14.3335 0.667588C13.8912 0.233408 13.2496 0.00791026 12.7148 1.04177e-07ZM13.5749 1.42509C14.0523 1.90471 14.0511 2.66417 13.5717 3.14209C13.3907 3.32558 13.207 3.50856 13.0245 3.69141L11.3044 1.97127L11.8527 1.42403C12.0929 1.18415 12.4032 1.06506 12.7137 1.06515C13.0244 1.06523 13.3348 1.18503 13.5749 1.42509ZM10.5458 2.7288L12.2659 4.44894L8.44267 8.27218L6.5007 8.4919L6.72043 6.55099L10.5458 2.7288Z" fill="white"/>
</g>
</g>
</svg>
