<svg width="15" height="16" viewBox="0 0 15 16" fill="none" xmlns="http://www.w3.org/2000/svg">
<g id="layer2_00000078045294136100318890000011658959773326352039_">
<g id="g21888">
<path id="rect19082" d="M2.67858 0.5C1.20393 0.5 0 1.70393 0 3.17858V12.8214C0 14.2961 1.20393 15.5 2.67858 15.5H12.3214C13.7961 15.5 15 14.2961 15 12.8214V7.46428C15 7.16841 14.7601 6.92855 14.4643 6.92855C14.1684 6.92855 13.9286 7.16841 13.9286 7.46428V12.8214C13.9286 13.721 13.221 14.4286 12.3214 14.4286H2.67858C1.77896 14.4286 1.07145 13.721 1.07145 12.8214V3.17858C1.07145 2.27896 1.77896 1.57145 2.67858 1.57145H7.5C7.79587 1.57145 8.03572 1.33159 8.03572 1.03572C8.03572 0.739854 7.79587 0.5 7.5 0.5H2.67858Z" fill="#129B4B"/>
<path id="path19635" d="M12.7148 0.5C12.1279 0.499824 11.5401 0.7221 11.0951 1.1665L5.83109 6.42529C5.74534 6.51087 5.69111 6.62302 5.67728 6.74337L5.36026 9.53914C5.321 9.88174 5.61093 10.1717 5.95352 10.1324L8.74929 9.81538C8.86953 9.80184 8.98165 9.748 9.06737 9.66263L14.3282 4.4007C15.2179 3.51371 15.2205 2.05722 14.3335 1.16759C13.8912 0.733408 13.2496 0.50791 12.7148 0.5ZM13.5749 1.92509C14.0523 2.40471 14.0511 3.16417 13.5717 3.64209C13.3907 3.82558 13.207 4.00856 13.0245 4.19141L11.3044 2.47127L11.8527 1.92403C12.0929 1.68415 12.4032 1.56506 12.7137 1.56515C13.0244 1.56523 13.3348 1.68503 13.5749 1.92509ZM10.5458 3.2288L12.2659 4.94894L8.44267 8.77218L6.5007 8.9919L6.72043 7.05099L10.5458 3.2288Z" fill="#129B4B"/>
</g>
</g>
</svg>
