<svg width="70" height="70" viewBox="0 0 70 70" fill="none" xmlns="http://www.w3.org/2000/svg">
<g id="Group 72">
<circle id="Ellipse 4" cx="35" cy="35" r="35" fill="#DFEAFF"/>
<g id="_x31_650_x2C__Employee_x2C__group_x2C__management_x2C__organization_x2C__team">
<path id="Vector" d="M47.4028 29.2651C49.2722 28.2082 50.5374 26.202 50.5374 23.9054C50.5374 20.5135 47.7781 17.7539 44.3859 17.7539C40.7694 17.7539 37.8806 20.8898 38.2691 24.5651C36.5313 23.6854 34.4696 23.6851 32.731 24.5651C33.1197 20.8978 30.2381 17.7539 26.6142 17.7539C23.2227 17.7539 20.4627 20.5135 20.4627 23.9054C20.4627 26.2021 21.7279 28.2082 23.5979 29.2651C20.5634 30.4695 18.4124 33.4341 18.4124 36.8925V44.4109C18.4124 44.7884 18.7181 45.0946 19.0959 45.0946H27.2978V50.5624C27.2978 50.9399 27.6042 51.2461 27.9814 51.2461H43.0185C43.3963 51.2461 43.7021 50.9399 43.7021 50.5624V45.0946H51.9046C52.2819 45.0946 52.5875 44.7885 52.5875 44.4109V36.8925C52.5876 33.4341 50.4365 30.4695 47.4028 29.2651ZM44.3858 19.1208C47.0243 19.1208 49.1699 21.2672 49.1699 23.9054C49.1699 26.5438 47.0242 28.6902 44.3858 28.6902C43.0912 28.6902 41.8848 28.1821 40.9781 27.2602C40.727 26.7701 40.412 26.3188 40.0448 25.9155C39.7518 25.284 39.6009 24.6084 39.6009 23.9054C39.6009 21.2672 41.7473 19.1208 44.3858 19.1208ZM40.2818 30.1724C40.1971 32.8459 38.0339 34.8418 35.5003 34.8418C32.8525 34.8418 30.7154 32.683 30.7154 30.057C30.7154 27.4191 32.8617 25.2727 35.5003 25.2727C38.1621 25.2727 40.3472 27.4665 40.2818 30.1724ZM21.8298 23.9054C21.8298 21.2672 23.9763 19.1208 26.614 19.1208C29.2526 19.1208 31.3989 21.2672 31.3989 23.9054C31.3989 24.6084 31.2487 25.284 30.955 25.9156C30.5878 26.3189 30.2727 26.7702 30.0217 27.2602C29.115 28.1822 27.9093 28.6903 26.614 28.6903C23.9763 28.6903 21.8298 26.5438 21.8298 23.9054ZM19.7789 43.7273V36.8925C19.7789 33.1233 22.8453 30.057 26.614 30.057C27.5802 30.057 28.5068 30.2525 29.376 30.6378C29.5689 32.6887 30.7728 34.45 32.4832 35.4167C29.4488 36.621 27.2978 39.586 27.2978 43.044V43.7273H19.7789ZM42.3355 49.8793H28.6651V43.0441C28.6651 39.2749 31.7315 36.209 35.5003 36.209C39.2691 36.209 42.3355 39.2751 42.3355 43.0441V49.8793ZM51.221 43.7273H43.7021V43.044C43.7021 39.586 41.551 36.621 38.5167 35.4167C40.2271 34.4499 41.4309 32.6887 41.6238 30.6378C42.4932 30.2525 43.4204 30.057 44.3858 30.057C48.1546 30.057 51.2209 33.1233 51.2209 36.8925V43.7273H51.221Z" fill="#3C58A0"/>
</g>
</g>
</svg>
