<svg width="24" height="24" viewBox="0 0 24 24" fill="none" xmlns="http://www.w3.org/2000/svg">
<g id="fluent:call-20-regular">
<path id="Vector" d="M8.38441 2.4796L7.52401 2.7388C6.7579 2.96984 6.07373 3.41491 5.55204 4.02165C5.03034 4.62838 4.69282 5.37152 4.57921 6.1636C4.22281 8.6452 5.01961 11.5468 6.94081 14.8744C8.85721 18.1936 10.9668 20.332 13.2888 21.268C14.0349 21.5687 14.8516 21.6488 15.6419 21.4988C16.4322 21.3489 17.1628 20.9751 17.7468 20.422L18.3972 19.8052C18.8195 19.4055 19.0824 18.866 19.1369 18.2871C19.1914 17.7082 19.0339 17.1291 18.6936 16.6576L17.0664 14.4016C16.8464 14.097 16.5366 13.8689 16.1805 13.7493C15.8243 13.6296 15.4397 13.6244 15.0804 13.7344L12.6192 14.4868L12.5556 14.4988C12.2844 14.5384 11.658 13.9516 10.878 12.6004C10.062 11.1868 9.89401 10.36 10.1184 10.1464L11.37 8.9788C11.8277 8.55216 12.1404 7.99293 12.2641 7.37958C12.3878 6.76623 12.3165 6.12953 12.06 5.5588L11.2656 3.7936C11.0267 3.26241 10.6028 2.83621 10.073 2.59446C9.54308 2.3527 8.94216 2.31188 8.38441 2.4796ZM10.1736 4.2856L10.9656 6.0508C11.1199 6.39308 11.163 6.77508 11.0889 7.14313C11.0149 7.51119 10.8274 7.84679 10.5528 8.1028L9.29761 9.2716C8.49361 10.0324 8.76001 11.3308 9.84001 13.2004C10.8552 14.9596 11.7816 15.8284 12.7776 15.6772L12.9264 15.646L15.432 14.8816C15.5518 14.8448 15.6801 14.8464 15.7989 14.8863C15.9176 14.9261 16.021 15.0021 16.0944 15.1036L17.7216 17.3596C17.892 17.5953 17.971 17.885 17.9438 18.1746C17.9167 18.4642 17.7852 18.734 17.574 18.934L16.9224 19.5508C16.5052 19.9456 15.9835 20.2124 15.4191 20.3194C14.8548 20.4264 14.2716 20.3691 13.7388 20.1544C11.7012 19.3336 9.77521 17.3812 7.98121 14.2744C6.18241 11.1604 5.45401 8.512 5.76721 6.334C5.84828 5.76812 6.08935 5.23718 6.46203 4.8037C6.83471 4.37021 7.32349 4.05224 7.87081 3.8872L8.73121 3.628C9.01016 3.54418 9.31007 3.56468 9.57502 3.68567C9.83997 3.80667 10.0519 4.0199 10.1712 4.2856" fill="#2C2C2C"/>
</g>
</svg>
