<svg width="13" height="17" viewBox="0 0 13 17" fill="none" xmlns="http://www.w3.org/2000/svg">
<path id="Vector" d="M1.06667 5.26335V14.4953C1.06667 15.041 1.26676 15.5534 1.61629 15.9211C1.96421 16.2898 2.4484 16.4991 2.95513 16.5H10.0447C10.5516 16.4991 11.0358 16.2898 11.3835 15.9211C11.7331 15.5534 11.9331 15.041 11.9331 14.4953V5.26335C12.628 5.07893 13.0782 4.40768 12.9853 3.69471C12.8922 2.98189 12.2849 2.44867 11.5659 2.44852H9.64744V1.98014C9.64963 1.58626 9.4939 1.20804 9.21506 0.92979C8.93623 0.651688 8.55742 0.496829 8.16354 0.500049H4.83627C4.44239 0.496829 4.06359 0.651688 3.78475 0.92979C3.50592 1.20804 3.35018 1.58626 3.35238 1.98014V2.44852H1.43391C0.714942 2.44867 0.107654 2.98189 0.0145634 3.69471C-0.0783813 4.40768 0.371852 5.07893 1.06667 5.26335ZM10.0447 15.7506H2.95513C2.31447 15.7506 1.81608 15.2002 1.81608 14.4953V5.29629H11.1837V14.4953C11.1837 15.2002 10.6853 15.7506 10.0447 15.7506ZM4.10179 1.98014C4.0993 1.78503 4.176 1.59724 4.31446 1.4595C4.45278 1.32177 4.64101 1.2461 4.83627 1.24946H8.16354C8.3588 1.2461 8.54703 1.32177 8.68535 1.4595C8.82382 1.59709 8.90051 1.78503 8.89803 1.98014V2.44852H4.10179V1.98014ZM1.43391 3.19793H11.5659C11.9384 3.19793 12.2404 3.49989 12.2404 3.8724C12.2404 4.24492 11.9384 4.54688 11.5659 4.54688H1.43391C1.0614 4.54688 0.759438 4.24492 0.759438 3.8724C0.759438 3.49989 1.0614 3.19793 1.43391 3.19793Z" fill="white"/>
</svg>
