<svg width="13" height="16" viewBox="0 0 13 16" fill="none" xmlns="http://www.w3.org/2000/svg">
<path id="Vector" d="M1.06667 4.76335V13.9953C1.06667 14.541 1.26676 15.0534 1.61629 15.4211C1.96421 15.7898 2.4484 15.9991 2.95513 16H10.0447C10.5516 15.9991 11.0358 15.7898 11.3835 15.4211C11.7331 15.0534 11.9331 14.541 11.9331 13.9953V4.76335C12.628 4.57893 13.0782 3.90768 12.9853 3.19471C12.8922 2.48189 12.2849 1.94867 11.5659 1.94852H9.64744V1.48014C9.64963 1.08626 9.4939 0.708039 9.21506 0.42979C8.93623 0.151688 8.55742 -0.0031709 8.16354 4.92333e-05H4.83627C4.44239 -0.0031709 4.06359 0.151688 3.78475 0.42979C3.50592 0.708039 3.35018 1.08626 3.35238 1.48014V1.94852H1.43391C0.714942 1.94867 0.107654 2.48189 0.0145634 3.19471C-0.0783813 3.90768 0.371852 4.57893 1.06667 4.76335ZM10.0447 15.2506H2.95513C2.31447 15.2506 1.81608 14.7002 1.81608 13.9953V4.79629H11.1837V13.9953C11.1837 14.7002 10.6853 15.2506 10.0447 15.2506ZM4.10179 1.48014C4.0993 1.28503 4.176 1.09724 4.31446 0.959502C4.45278 0.821768 4.64101 0.746095 4.83627 0.749461H8.16354C8.3588 0.746095 8.54703 0.821768 8.68535 0.959502C8.82382 1.09709 8.90051 1.28503 8.89803 1.48014V1.94852H4.10179V1.48014ZM1.43391 2.69793H11.5659C11.9384 2.69793 12.2404 2.99989 12.2404 3.3724C12.2404 3.74492 11.9384 4.04688 11.5659 4.04688H1.43391C1.0614 4.04688 0.759438 3.74492 0.759438 3.3724C0.759438 2.99989 1.0614 2.69793 1.43391 2.69793Z" fill="#D92651"/>
</svg>
