<svg width="18" height="22" viewBox="0 0 18 22" fill="none" xmlns="http://www.w3.org/2000/svg">
<path d="M11.8495 4.84898C11.9611 4.73754 12.0496 4.60519 12.11 4.45951C12.1704 4.31383 12.2014 4.15768 12.2014 3.99998C12.2014 3.84229 12.1704 3.68613 12.11 3.54046C12.0496 3.39478 11.9611 3.26243 11.8495 3.15098L9.3495 0.650984C9.12434 0.425815 8.81894 0.299316 8.5005 0.299316C8.18207 0.299316 7.87667 0.425815 7.6515 0.650984C7.42634 0.876153 7.29984 1.18155 7.29984 1.49998C7.29984 1.81842 7.42634 2.12381 7.6515 2.34898L8.14751 2.84298C6.67673 2.99682 5.27493 3.54553 4.09054 4.431C2.90616 5.31648 1.98326 6.50576 1.41959 7.87291C0.855923 9.24007 0.672455 10.7342 0.888618 12.1971C1.10478 13.66 1.71253 15.0373 2.64751 16.183C2.8488 16.4296 3.13984 16.5862 3.45659 16.6183C3.77334 16.6504 4.08985 16.5553 4.33651 16.354C4.58316 16.1527 4.73974 15.8616 4.77181 15.5449C4.80388 15.2282 4.7088 14.9116 4.50751 14.665C3.86647 13.8794 3.44255 12.9396 3.27804 11.9391C3.11353 10.9386 3.21416 9.91246 3.5699 8.96299C3.92565 8.01353 4.52407 7.17392 5.30551 6.52786C6.08695 5.88181 7.0241 5.4519 8.02351 5.28098L7.6515 5.65098C7.42634 5.87615 7.29984 6.18155 7.29984 6.49998C7.29984 6.81842 7.42634 7.12382 7.6515 7.34898C7.87667 7.57415 8.18207 7.70065 8.5005 7.70065C8.81894 7.70065 9.12434 7.57415 9.3495 7.34898L11.8495 4.84898ZM13.2515 5.30898C13.1367 5.41754 13.0445 5.54771 12.9801 5.69201C12.9157 5.8363 12.8805 5.99189 12.8764 6.14984C12.8723 6.3078 12.8994 6.465 12.9563 6.61243C13.0131 6.75987 13.0985 6.89463 13.2075 7.00898C13.9309 7.77103 14.4337 8.71526 14.6622 9.74082C14.8907 10.7664 14.8363 11.8348 14.5048 12.8318C14.1734 13.8289 13.5773 14.7172 12.7802 15.4018C11.9832 16.0865 11.0152 16.5417 9.9795 16.719L10.3495 16.349C10.5747 16.1238 10.7012 15.8184 10.7012 15.5C10.7012 15.1815 10.5747 14.8762 10.3495 14.651C10.1243 14.4258 9.81894 14.2993 9.5005 14.2993C9.18207 14.2993 8.87667 14.4258 8.6515 14.651L6.1515 17.151C6.03993 17.2624 5.95142 17.3948 5.89103 17.5405C5.83064 17.6861 5.79956 17.8423 5.79956 18C5.79956 18.1577 5.83064 18.3138 5.89103 18.4595C5.95142 18.6052 6.03993 18.7375 6.1515 18.849L8.6515 21.349C8.87667 21.5742 9.18207 21.7007 9.5005 21.7007C9.81894 21.7007 10.1243 21.5742 10.3495 21.349C10.5747 21.1238 10.7012 20.8184 10.7012 20.5C10.7012 20.1815 10.5747 19.8762 10.3495 19.651L9.85351 19.155C11.376 18.9956 12.8234 18.4132 14.032 17.4737C15.2406 16.5342 16.1621 15.2752 16.6922 13.8392C17.2222 12.4031 17.3398 10.8473 17.0315 9.34792C16.7231 7.84852 16.0012 6.46536 14.9475 5.35498C14.7284 5.12433 14.4266 4.99012 14.1086 4.98187C13.7906 4.97362 13.4823 5.09 13.2515 5.30898Z" fill="#8C8B37"/>
</svg>
