<svg width="208" height="211" viewBox="0 0 208 211" fill="none" xmlns="http://www.w3.org/2000/svg">
<g id="Group 12">
<g id="freepik--background-simple--inject-1">
<path id="Vector" opacity="0.7" d="M30.9612 119.652C30.9612 119.652 36.9284 146.491 63.7671 159.065C90.6058 171.639 123.368 165.389 150.015 160.994C176.662 156.599 194.201 137.57 193.193 115.19C192.185 92.8105 170.881 91.1152 155.35 68.98C139.818 46.8448 139.276 38.5082 113.333 28.7034C87.3891 18.8985 53.0158 36.5875 38.9374 66.9761C24.8589 97.3648 30.9612 119.652 30.9612 119.652Z" fill="#E3EBFF"/>
</g>
<g id="freepik--Door--inject-1">
<path id="Vector_2" d="M44.1782 103.969H62.32V164.682" stroke="#263238" stroke-width="0.5" stroke-linecap="round" stroke-linejoin="round"/>
<path id="Vector_3" d="M87.5461 131.152H67.2404V133.793H69.8905V164.719H87.5461V131.152Z" fill="#999999"/>
<path id="Vector_4" d="M64.656 112.958C64.656 112.958 65.1678 110.51 64.656 109.051C64.8403 109.011 65.031 109.011 65.2153 109.051C65.4931 109.117 65.6795 110.787 65.6795 110.787C65.6795 110.787 66.9845 109.448 67.2623 109.561C67.5467 109.721 67.7616 109.98 67.8655 110.288C67.913 110.492 68.231 110.787 68.3333 110.939C68.4357 111.092 68.5636 111.667 68.6989 111.973C68.8341 112.278 68.0482 113.792 66.1401 114.243L64.656 112.958Z" fill="white" stroke="#263238" stroke-width="0.5" stroke-linecap="round" stroke-linejoin="round"/>
<path id="Vector_5" d="M54.1795 110.303C53.852 110.352 53.5425 110.483 53.2803 110.685C52.9696 110.874 52.6187 111.11 52.275 111.354C51.4818 111.918 50.7507 112.496 50.7507 112.496L48.5575 109.95L49.6285 107.676C49.6285 107.676 54.7059 110.412 54.1795 110.303Z" fill="white" stroke="#263238" stroke-width="0.5" stroke-linecap="round" stroke-linejoin="round"/>
<path id="Vector_6" d="M53.2803 110.685C52.9696 110.874 52.6187 111.11 52.2751 111.354C51.7631 111.061 51.3259 110.655 50.9975 110.167C50.6691 109.678 50.4583 109.121 50.3816 108.538C50.3816 108.538 52.1472 109.724 53.2803 110.685Z" fill="#263238"/>
<path id="Vector_7" d="M47.9434 110.339L48.5209 109.051C48.5209 109.051 51.6244 109.961 52.3043 111.994L49.5883 112.958L47.9434 110.339Z" fill="#421CDD" stroke="#263238" stroke-width="0.5" stroke-linecap="round" stroke-linejoin="round"/>
<path id="Vector_8" d="M50.2171 101.728C51.4855 99.9746 55.5613 101.568 56.1791 103.609C56.7968 105.65 56.296 110.295 54.8485 110.787C51.1346 112.045 47.1502 105.948 50.2171 101.728Z" fill="white" stroke="#263238" stroke-width="0.5" stroke-linecap="round" stroke-linejoin="round"/>
<path id="Vector_9" d="M52.4103 103.991C52.4103 103.991 53.2181 103.263 55.3346 103.438L54.7059 104.14C54.7059 104.14 56.4568 104.446 56.8662 103.496C57.2756 102.547 54.7753 98.5085 50.0087 100.902C46.7188 102.547 49.1423 108.542 49.1423 108.542L49.994 108.113L50.5826 107.483C50.5826 107.483 49.4092 106.352 50.2499 105.442C51.0907 104.533 51.8254 105.897 51.8254 105.897C51.8254 105.897 52.7137 104.853 52.4103 103.991Z" fill="#263238"/>
<path id="Vector_10" d="M52.8671 105.224C53.243 105.144 53.6316 105.144 54.0076 105.224" stroke="#263238" stroke-width="0.5" stroke-linecap="round" stroke-linejoin="round"/>
<path id="Vector_11" d="M55.5502 105.191C55.7499 105.109 55.9628 105.062 56.1789 105.053" stroke="#263238" stroke-width="0.5" stroke-linecap="round" stroke-linejoin="round"/>
<path id="Vector_12" d="M53.6606 106.287C53.6606 106.516 53.5619 106.698 53.4376 106.698C53.3133 106.698 53.2109 106.516 53.2109 106.287C53.2109 106.057 53.3133 105.875 53.4376 105.875C53.5619 105.875 53.6606 106.061 53.6606 106.287Z" fill="#263238"/>
<path id="Vector_13" d="M55.7769 106.287C55.7769 106.516 55.6745 106.698 55.5502 106.698C55.426 106.698 55.3236 106.516 55.3236 106.287C55.3236 106.057 55.426 105.875 55.5502 105.875C55.6745 105.875 55.7769 106.061 55.7769 106.287Z" fill="#263238"/>
<g id="Vector_14">
<path d="M55.1481 106.287C55.2517 106.79 55.386 107.287 55.5502 107.774L55.1481 108.138" fill="white"/>
<path d="M55.1481 106.287C55.2517 106.79 55.386 107.287 55.5502 107.774L55.1481 108.138" stroke="#263238" stroke-width="0.5" stroke-linecap="round" stroke-linejoin="round"/>
</g>
<g id="Vector_15">
<path d="M55.1483 108.538C54.505 108.619 53.8542 108.619 53.2109 108.538C53.2313 108.79 53.3391 109.028 53.5158 109.21C53.6924 109.391 53.9271 109.506 54.1796 109.535C55.1117 109.673 54.7974 108.771 54.7974 108.771" fill="white"/>
<path d="M55.1483 108.538C54.505 108.619 53.8542 108.619 53.2109 108.538C53.2313 108.79 53.3391 109.028 53.5158 109.21C53.6924 109.391 53.9271 109.506 54.1796 109.535C55.1117 109.673 54.7974 108.771 54.7974 108.771" stroke="#263238" stroke-width="0.5" stroke-linecap="round" stroke-linejoin="round"/>
</g>
<path id="Vector_16" d="M44.1782 113.748C44.1782 113.748 46.7809 110.197 48.2796 110.306C49.7783 110.416 54.1794 113.053 54.1794 113.053L58.8437 120.249L63.742 114.286L64.7545 112.533L66.6736 114.286L65.9754 114.97C65.7472 116.497 65.3374 117.992 64.7545 119.423C63.8809 121.384 62.0312 125.517 59.9586 126.019C57.886 126.521 53.452 121.882 53.452 121.882C53.452 121.882 51.1856 128.412 51.1856 130.868L44.1782 131.363V113.748Z" fill="#421CDD" stroke="#263238" stroke-width="0.5" stroke-linecap="round" stroke-linejoin="round"/>
<path id="Vector_17" d="M51.3793 116.644C51.4999 116.071 51.65 115.505 51.8289 114.948" stroke="#263238" stroke-width="0.5" stroke-linecap="round" stroke-linejoin="round"/>
<path id="Vector_18" d="M53.4374 121.882C52.1946 120.62 50.9846 119.463 51.2186 117.597" stroke="#263238" stroke-width="0.5" stroke-linecap="round" stroke-linejoin="round"/>
<path id="Vector_19" d="M51.171 130.868L51.3794 132.861C51.3794 132.861 55.4698 141.12 56.8442 144.667C59.5785 151.71 56.8442 164.675 56.8442 164.675H53.4447C53.4447 164.675 52.6917 150.782 52.3225 150.411C51.9533 150.04 46.3788 141.407 46.3788 141.407L44.1855 148.137V131.363L51.171 130.868Z" fill="#263238"/>
<path id="Vector_20" d="M78.7841 138.74C78.7841 138.74 76.9271 143.244 77.3219 145.569C77.7167 147.893 81.7925 164.682 81.7925 164.682H83.7664C83.7664 164.682 83.7189 153.856 83.1121 151.222C82.5053 148.588 81.522 145.867 81.6061 145.161C81.6901 144.456 84.3111 138.737 84.3111 138.737L78.7841 138.74Z" fill="white" stroke="#263238" stroke-width="0.5" stroke-linecap="round" stroke-linejoin="round"/>
<g id="Vector_21">
<path d="M72.1495 92.6406C72.1495 92.6406 71.5207 93.2555 71.1442 98.6469L69.1082 97.9629C69.1082 97.9629 70.3437 93.6593 70.2779 91.8439" fill="white"/>
<path d="M72.1495 92.6406C72.1495 92.6406 71.5207 93.2555 71.1442 98.6469L69.1082 97.9629C69.1082 97.9629 70.3437 93.6593 70.2779 91.8439" stroke="#263238" stroke-width="0.5" stroke-linecap="round" stroke-linejoin="round"/>
</g>
<g id="Vector_22">
<path d="M71.7583 92.6697C71.9211 92.6815 72.0846 92.6611 72.2396 92.61C72.3945 92.5588 72.5377 92.4777 72.6612 92.3714C72.8246 92.2509 72.9709 92.1089 73.0962 91.9494C73.2055 91.8052 73.3278 91.6712 73.4617 91.5493C73.5531 91.4656 73.6445 91.3892 73.7359 91.3164C73.9224 91.1678 74.1177 91.0306 74.3207 90.9053C74.3207 90.9053 74.3025 90.5197 73.9552 90.607C73.8581 90.6344 73.7657 90.6761 73.681 90.7307C73.5348 90.818 73.3923 90.9308 73.2753 91.0145C73.2098 91.068 73.1319 91.1043 73.0487 91.12C73.0159 91.1238 72.9828 91.1238 72.95 91.12H72.9134C72.8455 91.0991 72.7839 91.0616 72.7343 91.0108C72.7115 90.9875 72.693 90.9604 72.6795 90.9308V90.909C72.6778 90.8872 72.6778 90.8653 72.6795 90.8435C72.6615 90.7229 72.6615 90.6003 72.6795 90.4797C72.7012 90.2964 72.7379 90.1151 72.7891 89.9377C72.7891 89.8722 72.8257 89.803 72.8476 89.7412C72.8952 89.5803 72.9526 89.4223 73.0194 89.2683C73.0669 89.1591 73.1181 89.0391 73.162 88.9045C73.2058 88.7699 73.2424 88.6717 73.2753 88.5625C73.363 88.2424 73.3667 87.9805 73.1474 87.9768C72.928 87.9732 72.9024 88.0896 72.8001 88.3624C72.7599 88.457 72.716 88.5698 72.6575 88.7044C72.5528 88.9364 72.4306 89.1602 72.292 89.3738L72.2372 89.4574L72.1092 89.4247C72.1092 89.4429 72.1092 89.3956 72.1092 89.2974C72.1316 89.0393 72.1706 88.7829 72.2262 88.5298C72.2518 88.4134 72.281 88.2933 72.3103 88.166C72.3395 88.0387 72.3724 87.9477 72.4053 87.8422C72.5735 87.3111 72.1567 87.3656 72.0178 87.5002C71.911 87.6644 71.84 87.8491 71.8095 88.0423C71.7766 88.1587 71.7437 88.286 71.7108 88.4061C71.7108 88.4643 71.6779 88.5225 71.6596 88.5734C71.5902 88.7953 71.517 89.0282 71.4695 89.1882L71.4476 89.2501L71.2758 89.2719V89.1882C71.2434 88.9471 71.2336 88.7036 71.2465 88.4607C71.2465 88.297 71.2721 88.1696 71.2794 88.0678C71.2794 87.8786 71.2794 87.784 71.1588 87.7222C71.0382 87.6603 70.8883 87.824 70.7933 88.0568C70.7327 88.2413 70.7006 88.4339 70.6982 88.628C70.6962 88.6619 70.6962 88.6959 70.6982 88.7299C70.7085 88.9064 70.6974 89.0835 70.6653 89.2574C70.6572 89.2921 70.6511 89.3274 70.6471 89.3629L70.5301 89.4429C70.5138 89.3952 70.5003 89.3466 70.4899 89.2974C70.4484 89.1443 70.4167 88.9888 70.3948 88.8317C70.3819 88.7095 70.3624 88.5881 70.3363 88.4679C70.3108 88.3733 70.2705 88.3188 70.1865 88.3006C70.1024 88.2824 69.9891 88.4243 69.9635 88.6207C69.9482 88.7415 69.9482 88.8637 69.9635 88.9845C69.9681 89.0738 69.9854 89.162 70.0147 89.2464C70.0546 89.4085 70.0767 89.5744 70.0805 89.7412C70.0805 89.8103 70.0805 89.8794 70.0805 89.9449C70.0805 90.1923 70.0805 90.4215 70.0805 90.5015V90.5306C70.0439 90.7089 70.0183 90.8617 70 90.9963C69.9457 91.3181 69.967 91.6481 70.0622 91.9603C70.167 92.1639 70.3483 92.3181 70.5666 92.3896" fill="white"/>
<path d="M71.7583 92.6697C71.9211 92.6815 72.0846 92.6611 72.2396 92.61C72.3945 92.5588 72.5377 92.4777 72.6612 92.3714C72.8246 92.2509 72.9709 92.1089 73.0962 91.9494C73.2055 91.8052 73.3278 91.6712 73.4617 91.5493C73.5531 91.4656 73.6445 91.3892 73.7359 91.3164C73.9224 91.1678 74.1177 91.0306 74.3207 90.9053C74.3207 90.9053 74.3025 90.5197 73.9552 90.607C73.8581 90.6344 73.7657 90.6761 73.681 90.7307C73.5348 90.818 73.3923 90.9308 73.2753 91.0145C73.2098 91.068 73.1319 91.1043 73.0487 91.12C73.0159 91.1238 72.9828 91.1238 72.95 91.12H72.9134C72.8455 91.0991 72.7839 91.0616 72.7343 91.0108C72.7115 90.9875 72.693 90.9604 72.6795 90.9308V90.909C72.6778 90.8872 72.6778 90.8653 72.6795 90.8435C72.6615 90.7229 72.6615 90.6003 72.6795 90.4797C72.7012 90.2964 72.7379 90.1151 72.7891 89.9377C72.7891 89.8722 72.8257 89.803 72.8476 89.7412C72.8952 89.5803 72.9526 89.4223 73.0194 89.2683C73.0669 89.1591 73.1181 89.0391 73.162 88.9045C73.2058 88.7699 73.2424 88.6717 73.2753 88.5625C73.363 88.2424 73.3667 87.9805 73.1474 87.9768C72.928 87.9732 72.9024 88.0896 72.8001 88.3624C72.7599 88.457 72.716 88.5698 72.6575 88.7044C72.5528 88.9364 72.4306 89.1602 72.292 89.3738L72.2372 89.4574L72.1092 89.4247C72.1092 89.4429 72.1092 89.3956 72.1092 89.2974C72.1316 89.0393 72.1706 88.7829 72.2262 88.5298C72.2518 88.4134 72.281 88.2933 72.3103 88.166C72.3395 88.0387 72.3724 87.9477 72.4053 87.8422C72.5735 87.3111 72.1567 87.3656 72.0178 87.5002C71.911 87.6644 71.84 87.8491 71.8095 88.0423C71.7766 88.1587 71.7437 88.286 71.7108 88.4061C71.7108 88.4643 71.6779 88.5225 71.6596 88.5734C71.5902 88.7953 71.517 89.0282 71.4695 89.1882L71.4476 89.2501L71.2758 89.2719V89.1882C71.2434 88.9471 71.2336 88.7036 71.2465 88.4607C71.2465 88.297 71.2721 88.1696 71.2794 88.0678C71.2794 87.8786 71.2794 87.784 71.1588 87.7222C71.0382 87.6603 70.8883 87.824 70.7933 88.0568C70.7327 88.2413 70.7006 88.4339 70.6982 88.628C70.6962 88.6619 70.6962 88.6959 70.6982 88.7299C70.7085 88.9064 70.6974 89.0835 70.6653 89.2574C70.6572 89.2921 70.6511 89.3274 70.6471 89.3629L70.5301 89.4429C70.5138 89.3952 70.5003 89.3466 70.4899 89.2974C70.4484 89.1443 70.4167 88.9888 70.3948 88.8317C70.3819 88.7095 70.3624 88.5881 70.3363 88.4679C70.3108 88.3733 70.2705 88.3188 70.1865 88.3006C70.1024 88.2824 69.9891 88.4243 69.9635 88.6207C69.9482 88.7415 69.9482 88.8637 69.9635 88.9845C69.9681 89.0738 69.9854 89.162 70.0147 89.2464C70.0546 89.4085 70.0767 89.5744 70.0805 89.7412C70.0805 89.8103 70.0805 89.8794 70.0805 89.9449C70.0805 90.1923 70.0805 90.4215 70.0805 90.5015V90.5306C70.0439 90.7089 70.0183 90.8617 70 90.9963C69.9457 91.3181 69.967 91.6481 70.0622 91.9603C70.167 92.1639 70.3483 92.3181 70.5666 92.3896" stroke="#263238" stroke-width="0.5" stroke-linecap="round" stroke-linejoin="round"/>
</g>
<path id="Vector_23" d="M72.6577 90.8798C72.4509 90.8147 72.229 90.8147 72.0223 90.8798C71.8155 90.9449 71.634 91.072 71.5026 91.2436" stroke="#263238" stroke-width="0.5" stroke-linecap="round" stroke-linejoin="round"/>
<path id="Vector_24" d="M79.504 93.4228C79.504 93.4228 80.2351 96.6533 79.504 98.625C78.773 100.597 78.4367 105.788 82.7939 107.189C87.1511 108.589 87.4436 107.949 87.4436 107.949L87.3449 93.7357L81.8143 90.4215L79.504 93.4228Z" fill="#263238"/>
<path id="Vector_25" d="M83.1158 101.102L78.7768 101.27L71.1699 103.627L71.8315 94.3031L72.1349 93.4228L70.0038 92.8625L69.7955 93.8557C69.7955 93.8557 66.5495 105.344 67.361 107.163C68.1725 108.982 78.1773 106.508 78.1773 106.508C78.1773 106.508 78.5429 111.511 79.9538 113.279C81.3648 115.047 82.6442 118.735 82.6442 118.735H87.4292V100.237L83.1158 101.102Z" fill="#421CDD" stroke="#263238" stroke-width="0.5" stroke-linecap="round" stroke-linejoin="round"/>
<path id="Vector_26" d="M86.9319 100.648C86.9319 100.648 84.0624 103.078 84.0844 102.267C84.1127 101.356 84.0105 100.446 83.781 99.5636C83.6646 99.0893 83.5081 98.6256 83.3131 98.1775C83.218 97.9738 83.1632 97.8647 83.1632 97.8647L86.475 93.2045L86.9319 100.648Z" fill="white" stroke="#263238" stroke-width="0.5" stroke-linecap="round" stroke-linejoin="round"/>
<path id="Vector_27" d="M87.0818 98.8579L84.1501 102.034L83.6567 99.7419L81.6169 102.641L83.1632 101.961L83.9016 104.46L84.8154 102.263L87.0818 103.325L87.546 99.3344L87.0818 98.8579Z" fill="#421CDD" stroke="#263238" stroke-width="0.5" stroke-linecap="round" stroke-linejoin="round"/>
<path id="Vector_28" d="M82.6515 118.739C82.6515 118.739 81.8071 124.312 81.8035 125.542C81.8035 125.542 78.5538 136.063 77.9434 140.283C77.9434 140.283 81.617 142.124 87.4474 141.407V118.739H82.6515Z" fill="#263238"/>
<path id="Vector_29" d="M78.1845 106.508C78.1845 106.508 77.4936 103.212 78.1845 102.612" stroke="#263238" stroke-width="0.5" stroke-linecap="round" stroke-linejoin="round"/>
<path id="Vector_30" d="M83.9017 105.803C83.9017 105.803 83.8797 110.492 84.322 112.114" stroke="#263238" stroke-width="0.5" stroke-linecap="round" stroke-linejoin="round"/>
<path id="Vector_31" d="M85.8316 96.606C85.8316 96.606 85.4404 98.8469 83.7809 99.5636C83.6645 99.0893 83.508 98.6256 83.313 98.1775C84.4169 97.3881 85.8316 96.606 85.8316 96.606Z" fill="#263238"/>
<path id="Vector_32" d="M84.0733 87.7658C79.0874 87.5184 79.6028 92.7716 80.3156 96.6532C80.82 99.3817 83.1229 100.182 85.901 97.148C87.2864 95.6382 88.2332 87.9731 84.0733 87.7658Z" fill="white" stroke="#263238" stroke-width="0.5" stroke-linecap="round" stroke-linejoin="round"/>
<path id="Vector_33" d="M84.2126 89.632C84.2126 89.632 84.41 93.219 86.2413 94.7833C88.0727 96.3476 87.4147 99.3816 87.4147 99.3816L87.5317 87.4747C87.5317 87.4747 84.5672 86.6998 82.5384 87.2055C82.5384 87.2055 79.1864 87.4565 78.8318 89.883C78.4773 92.3095 79.764 94.7833 79.764 94.7833C79.764 94.7833 80.0125 89.6793 84.2126 89.632Z" fill="#263238"/>
<path id="Vector_34" d="M83.9016 93.8557C83.9016 94.103 83.7919 94.3031 83.6566 94.3031C83.5214 94.3031 83.4081 94.103 83.4081 93.8557C83.4081 93.6083 83.5177 93.4046 83.6566 93.4046C83.7956 93.4046 83.9016 93.6047 83.9016 93.8557Z" fill="#263238"/>
<path id="Vector_35" d="M81.31 93.8557C81.31 94.103 81.2004 94.3031 81.0651 94.3031C80.9299 94.3031 80.8202 94.103 80.8202 93.8557C80.8202 93.6083 80.9299 93.4046 81.0651 93.4046C81.2004 93.4046 81.31 93.6047 81.31 93.8557Z" fill="#263238"/>
<path id="Vector_36" d="M83.1522 92.455C83.3255 92.4125 83.5062 92.4094 83.6809 92.446C83.8555 92.4825 84.0197 92.5577 84.1611 92.666" stroke="#263238" stroke-width="0.5" stroke-linecap="round" stroke-linejoin="round"/>
<path id="Vector_37" d="M80.9738 92.7061C80.7535 92.6543 80.5239 92.656 80.3044 92.7111C80.0849 92.7662 79.8819 92.873 79.7126 93.0226" stroke="#263238" stroke-width="0.5" stroke-linecap="round" stroke-linejoin="round"/>
<path id="Vector_38" d="M81.6172 94.5542L81.0067 95.2818C81.0067 95.2818 81.3101 95.813 81.6172 95.9294" stroke="#263238" stroke-width="0.5" stroke-linecap="round" stroke-linejoin="round"/>
<path id="Vector_39" d="M81.3101 96.6132C81.9406 96.65 82.57 96.5248 83.1378 96.2495C83.1378 96.2495 83.1378 97.5045 82.2312 97.5009C81.7048 97.5009 81.6683 96.8934 81.6683 96.8934" stroke="#263238" stroke-width="0.5" stroke-linecap="round" stroke-linejoin="round"/>
<path id="Vector_40" d="M74.6754 62.8315V71.2642" stroke="#263238" stroke-width="0.5" stroke-linecap="round" stroke-linejoin="round"/>
<path id="Vector_41" d="M85.2909 72.9049H63.9652L64.7365 71.2642H84.5232L85.2909 72.9049Z" stroke="#263238" stroke-width="0.5" stroke-linecap="round" stroke-linejoin="round"/>
<path id="Vector_42" d="M56.6943 62.8315V84.1752" stroke="#263238" stroke-width="0.5" stroke-linecap="round" stroke-linejoin="round"/>
<path id="Vector_43" d="M64.751 85.423H48.5648L49.1497 84.1752H64.1661L64.751 85.423Z" stroke="#263238" stroke-width="0.5" stroke-linecap="round" stroke-linejoin="round"/>
<path id="Vector_44" d="M104.028 164.682V60.0957H44.1782V164.682" stroke="#263238" stroke-width="0.5" stroke-linecap="round" stroke-linejoin="round"/>
<g id="Vector_45">
<path d="M101.228 62.8315L87.5461 73.7453V164.682H101.228" fill="white"/>
<path d="M101.228 62.8315L87.5461 73.7453V164.682H101.228" stroke="#263238" stroke-width="0.5" stroke-linecap="round" stroke-linejoin="round"/>
</g>
<path id="Vector_46" d="M88.8765 129.078H84.5448V110.219H88.8765V111.58H86.1203V127.681H88.8765V129.078Z" fill="#BFBFBF" stroke="#263238" stroke-width="0.5" stroke-miterlimit="10"/>
<path id="Vector_47" d="M101.228 164.682V62.8315H44.1782V164.682" stroke="#263238" stroke-width="0.5" stroke-linecap="round" stroke-linejoin="round"/>
<path id="Vector_48" d="M80.5607 49.7786H67.7814V57.029H80.5607V49.7786Z" fill="#421CDD" stroke="#263238" stroke-width="0.5" stroke-linecap="round" stroke-linejoin="round"/>
<path id="Vector_49" d="M90.8068 82.6946V98.9161L96.5933 96.6242V79.2604L90.8068 82.6946Z" fill="white" stroke="#263238" stroke-width="0.5" stroke-linecap="round" stroke-linejoin="round"/>
<g id="Vector_50">
<path d="M91.4865 98.6468V83.2948L95.8839 80.8647" fill="white"/>
<path d="M91.4865 98.6468V83.2948L95.8839 80.8647" stroke="#263238" stroke-width="0.5" stroke-linecap="round" stroke-linejoin="round"/>
</g>
<path id="Vector_51" d="M71.1772 53.0055H72.0435V53.5766H71.1772V54.748H72.2738V55.3301H70.5558V51.3284H72.2738V51.8995H71.1772V53.0055Z" fill="#263238"/>
<path id="Vector_52" d="M74.7631 51.3284L74.1015 53.2674L74.807 55.3228H74.1417L73.6336 53.7403L73.1035 55.3301H72.515L73.2205 53.2747L72.5589 51.3284H73.2132L73.6847 52.7835L74.1673 51.3284H74.7631Z" fill="#263238"/>
<path id="Vector_53" d="M75.1213 51.3284H75.7537V55.3301H75.1213V51.3284Z" fill="#263238"/>
<path id="Vector_54" d="M76.0278 51.3284H77.9762V51.8995H77.3182V55.3301H76.6895V51.9068H76.0278V51.3284Z" fill="#263238"/>
</g>
<g id="freepik--Window--inject-1">
<path id="Vector_55" d="M113.796 35.9873V164.719" stroke="#263238" stroke-linecap="round" stroke-linejoin="round"/>
<path id="Vector_56" d="M113.796 29.4172V34.4703" stroke="#263238" stroke-linecap="round" stroke-linejoin="round"/>
<path id="Vector_57" d="M113.796 25.6446V26.8924" stroke="#263238" stroke-linecap="round" stroke-linejoin="round"/>
<path id="Vector_58" d="M169.416 61.329H122.276V131.919H169.416V61.329Z" stroke="#263238" stroke-linecap="round" stroke-linejoin="round"/>
<path id="Vector_59" d="M145.846 61.329V131.923" stroke="#263238" stroke-linecap="round" stroke-linejoin="round"/>
<path id="Vector_60" d="M168.144 63.0097H147.118V129.98" stroke="#263238" stroke-linecap="round" stroke-linejoin="round"/>
<path id="Vector_61" d="M144.384 63.0097H123.658V129.98" stroke="#263238" stroke-linecap="round" stroke-linejoin="round"/>
</g>
<g id="freepik--Floor--inject-1">
<path id="Vector_62" d="M39.4191 164.682H180.182" stroke="#263238" stroke-width="0.979097" stroke-linecap="round" stroke-linejoin="round"/>
</g>
<g id="freepik--Character--inject-1">
<path id="Vector_63" d="M154.893 80.3298C159.422 82.7272 177.005 94.5941 180.481 98.3011C183.958 102.008 178.807 131.024 178.807 131.024H170.082L172.125 103.03L152.331 95.2817L154.893 80.3298Z" fill="#421CDD"/>
<g id="Clip path group">
<mask id="mask0_17_537" style="mask-type:luminance" maskUnits="userSpaceOnUse" x="152" y="80" width="30" height="52">
<g id="freepik--clip-path--inject-1">
<path id="Vector_64" d="M154.893 80.3298C159.422 82.7272 177.005 94.5941 180.481 98.3011C183.958 102.008 178.807 131.024 178.807 131.024H170.082L172.125 103.03L152.331 95.2817L154.893 80.3298Z" fill="white"/>
</g>
</mask>
<g mask="url(#mask0_17_537)">
<g id="Group">
<path id="Vector_65" opacity="0.3" d="M179.194 128.747C175.269 128.7 172.103 128.645 172.103 128.645L170.257 128.598L172.121 103.03L153.066 95.569L152.934 93.9647C152.934 93.9647 155.803 93.9428 157.887 92.1202C158.069 92.4719 158.164 92.8616 158.164 93.2571C158.164 93.6526 158.069 94.0423 157.887 94.3939C157.887 94.3939 174.241 101.739 177.601 99.1232C178.304 98.5858 178.839 97.8603 179.143 97.0314C179.611 97.4269 180.059 97.8458 180.485 98.2865C183.373 101.371 180.324 121.835 179.194 128.747Z" fill="black" fill-opacity="0.7"/>
</g>
</g>
</g>
<path id="Vector_66" d="M154.893 80.3298C159.422 82.7272 177.005 94.5941 180.481 98.3011C183.958 102.008 178.807 131.024 178.807 131.024H170.082L172.125 103.03L152.331 95.2817L154.893 80.3298Z" stroke="#263238" stroke-width="0.5" stroke-linecap="round" stroke-linejoin="round"/>
<path id="Vector_67" d="M149.125 118.786L146.778 107.622L153.936 105.693L157.884 115.592L149.125 118.786Z" fill="#757575" stroke="#263238" stroke-width="0.5" stroke-linecap="round" stroke-linejoin="round"/>
<path id="Vector_68" d="M151.837 119.583V102.023L155.785 100.637L166.028 106.392L166.675 122.344L151.837 119.583Z" fill="#757575"/>
<g id="Clip path group_2">
<mask id="mask1_17_537" style="mask-type:luminance" maskUnits="userSpaceOnUse" x="151" y="100" width="16" height="23">
<g id="freepik--clip-path-2--inject-1">
<path id="Vector_69" d="M151.837 119.583V102.023L155.785 100.637L166.028 106.392L166.675 122.344L151.837 119.583Z" fill="white"/>
</g>
</mask>
<g mask="url(#mask1_17_537)">
<g id="Group_2">
<path id="Vector_70" opacity="0.3" d="M151.837 102.023L155.785 100.637L155.756 116.822H151.837V102.023Z" fill="black" fill-opacity="0.7"/>
</g>
</g>
</g>
<path id="Vector_71" d="M151.837 119.583V102.023L155.785 100.637L166.028 106.392L166.675 122.344L151.837 119.583Z" stroke="#263238" stroke-width="0.5" stroke-linecap="round" stroke-linejoin="round"/>
<path id="Vector_72" d="M159.828 118.019L157.884 102.728L161.309 99.8254L173.708 104.02L175.466 119.583L159.828 118.019Z" fill="#421CDD"/>
<g id="Clip path group_3">
<mask id="mask2_17_537" style="mask-type:luminance" maskUnits="userSpaceOnUse" x="157" y="99" width="19" height="21">
<g id="freepik--clip-path-3--inject-1">
<path id="Vector_73" d="M159.828 118.019L157.884 102.728L161.309 99.8254L173.708 104.02L175.466 119.583L159.828 118.019Z" fill="white"/>
</g>
</mask>
<g mask="url(#mask2_17_537)">
<g id="Group_3">
<path id="Vector_74" opacity="0.3" d="M157.884 102.728L159.258 113.817L162.793 112.238L161.309 99.8254L157.884 102.728Z" fill="black" fill-opacity="0.7"/>
</g>
</g>
</g>
<path id="Vector_75" d="M159.828 118.019L157.884 102.728L161.309 99.8254L173.708 104.02L175.466 119.583L159.828 118.019Z" stroke="#263238" stroke-width="0.5" stroke-linecap="round" stroke-linejoin="round"/>
<path id="Vector_76" d="M162.226 108.44L162.324 109.368" stroke="#263238" stroke-width="0.5" stroke-linecap="round" stroke-linejoin="round"/>
<path id="Vector_77" d="M161.309 99.8254L161.992 106.235" stroke="#263238" stroke-width="0.5" stroke-linecap="round" stroke-linejoin="round"/>
<path id="Vector_78" d="M155.756 105.693V111.882" stroke="#263238" stroke-width="0.5" stroke-linecap="round" stroke-linejoin="round"/>
<path id="Vector_79" d="M155.756 102.023V103.03" stroke="#263238" stroke-width="0.5" stroke-linecap="round" stroke-linejoin="round"/>
<path id="Vector_80" d="M173.339 107.058L165.472 104.904L165.94 108.906L173.708 110.743L173.339 107.058Z" fill="white" stroke="#263238" stroke-width="0.5" stroke-linecap="round" stroke-linejoin="round"/>
<path id="Vector_81" d="M171.705 116.942C171.705 116.942 170.974 100.411 174.048 96.3367C177.122 92.2622 175.28 105.646 175.28 105.646C175.28 105.646 179.845 90.5414 183.424 91.0326C187.002 91.5237 178.12 107.119 178.12 107.119C178.12 107.119 184.042 100.746 185.767 101.539C187.492 102.332 178.697 110.743 178.697 110.743C178.697 110.743 180.832 108.717 182.313 110.314C183.793 111.911 175.897 116.083 175.528 118.786L171.705 116.942Z" fill="#263238"/>
<path id="Vector_82" opacity="0.2" d="M179.648 111.285C179.62 111.268 179.59 111.258 179.558 111.253C179.526 111.248 179.493 111.25 179.462 111.257C179.431 111.265 179.402 111.279 179.376 111.298C179.35 111.317 179.328 111.341 179.312 111.369C178.198 113.122 176.672 114.579 174.867 115.614C175.009 114.934 175.305 113.602 175.711 111.976C176.862 110.121 179.651 108.04 179.681 108.018C179.732 107.979 179.765 107.922 179.774 107.859C179.783 107.795 179.766 107.731 179.728 107.68C179.709 107.654 179.686 107.632 179.658 107.616C179.631 107.599 179.601 107.588 179.569 107.583C179.537 107.579 179.505 107.58 179.474 107.588C179.443 107.596 179.414 107.61 179.388 107.629C178.171 108.546 177.048 109.582 176.036 110.721C176.946 107.265 178.266 102.994 179.743 100.608C179.772 100.553 179.78 100.489 179.764 100.429C179.747 100.369 179.709 100.317 179.655 100.285C179.602 100.252 179.538 100.241 179.477 100.254C179.416 100.266 179.362 100.302 179.326 100.353C177.169 103.834 175.389 110.99 174.647 114.264C173.503 109.259 173.945 102.601 173.949 102.528C173.952 102.497 173.948 102.465 173.938 102.435C173.928 102.405 173.912 102.377 173.892 102.353C173.871 102.329 173.846 102.309 173.817 102.295C173.789 102.281 173.758 102.272 173.726 102.27C173.694 102.268 173.662 102.272 173.631 102.282C173.601 102.292 173.573 102.308 173.549 102.329C173.525 102.35 173.505 102.375 173.491 102.404C173.477 102.433 173.468 102.464 173.467 102.496C173.467 102.572 172.955 110.175 174.413 115.323C174.337 115.687 174.285 115.931 174.274 115.992C174.266 116.036 174.27 116.081 174.286 116.123C174.301 116.164 174.328 116.201 174.362 116.229C174.405 116.261 174.458 116.279 174.512 116.28C174.548 116.28 174.585 116.273 174.618 116.258C177.827 114.77 179.655 111.729 179.736 111.601C179.764 111.547 179.771 111.485 179.755 111.426C179.738 111.367 179.7 111.317 179.648 111.285Z" fill="white"/>
<path id="Vector_83" d="M144.666 113.322L164.547 110.743L182.313 114.635L181.574 134.502L165.472 137.034L143.273 135.055L144.666 113.322Z" fill="#999999"/>
<g id="Clip path group_4">
<mask id="mask3_17_537" style="mask-type:luminance" maskUnits="userSpaceOnUse" x="143" y="110" width="40" height="28">
<g id="freepik--clip-path-4--inject-1">
<path id="Vector_84" d="M144.666 113.322L164.547 110.743L182.313 114.635L181.574 134.502L165.472 137.034L143.273 135.055L144.666 113.322Z" fill="white"/>
</g>
</mask>
<g mask="url(#mask3_17_537)">
<g id="Group_4">
<path id="Vector_85" opacity="0.3" d="M182.314 114.634L182.043 121.888L168.284 122.343L165.477 118.582V137.033L143.278 135.05L144.67 113.325L164.549 110.738L182.314 114.634Z" fill="black" fill-opacity="0.7"/>
</g>
</g>
</g>
<path id="Vector_86" d="M144.666 113.322L164.547 110.743L182.313 114.635L181.574 134.502L165.472 137.034L143.273 135.055L144.666 113.322Z" stroke="#263238" stroke-width="0.5" stroke-linecap="round" stroke-linejoin="round"/>
<path id="Vector_87" d="M164.547 110.743L170.714 120.674L185.994 121.362L182.313 114.635L164.547 110.743Z" fill="#BFBFBF" stroke="#263238" stroke-width="0.5" stroke-linecap="round" stroke-linejoin="round"/>
<path id="Vector_88" d="M164.547 110.743L161.707 120.674L142.337 121.362L144.666 113.322L164.547 110.743Z" fill="#999999" stroke="#263238" stroke-width="0.5" stroke-linecap="round" stroke-linejoin="round"/>
<path id="Vector_89" d="M165.472 116.054V114.61" stroke="#263238" stroke-width="0.5" stroke-linecap="round" stroke-linejoin="round"/>
<path id="Vector_90" d="M165.472 123.359V118.786" stroke="#263238" stroke-width="0.5" stroke-linecap="round" stroke-linejoin="round"/>
<path id="Vector_91" d="M165.472 137.034V125.018" stroke="#263238" stroke-width="0.5" stroke-linecap="round" stroke-linejoin="round"/>
<path id="Vector_92" d="M110.828 164.715H138.707C141.862 154.132 143.892 143.248 144.764 132.243L111.895 127.75L110.934 132.396C110.934 132.396 107.812 138.093 108.777 152.859C109.082 156.867 109.769 160.836 110.828 164.715Z" fill="#263238"/>
<path id="Vector_93" d="M112.359 131.865C118.208 136.277 137.581 138.235 143.88 134.473L144.066 130.388L112.937 128.205L112.359 131.865Z" fill="#757575" stroke="#263238" stroke-width="0.5" stroke-linecap="round" stroke-linejoin="round"/>
<path id="Vector_94" d="M129.492 132.33V136.456C129.492 136.456 133.034 136.936 134.569 136.43L134.825 132.323L129.492 132.33Z" fill="#BFBFBF" stroke="#263238" stroke-width="0.5" stroke-miterlimit="10"/>
<path id="Vector_95" d="M121.721 131.395C121.721 131.395 121.392 134.335 121.172 135.612H119.794C119.794 135.612 120.182 132.29 120.503 131.395H121.721Z" fill="#263238"/>
<path id="Vector_96" d="M139.559 136.699C139.559 136.699 139.559 133.742 139.661 132.447L141.028 132.301C141.028 132.301 140.996 135.648 140.773 136.572L139.559 136.699Z" fill="#263238"/>
<path id="Vector_97" d="M128.49 73.5197C131.049 72.0172 140.089 73.1559 141.284 74.2873C142.479 75.4187 137.914 90.5888 137.914 90.5888L130.398 91.5747L128.49 73.5197Z" fill="#421CDD" stroke="#263238" stroke-width="0.5" stroke-linecap="round" stroke-linejoin="round"/>
<path id="Vector_98" d="M154.308 92.7788C153.564 97.636 152.276 102.395 150.467 106.967C144.687 121.544 150.339 130.249 145.883 132.585C142.918 134.135 113.653 133.152 111.332 129.031C108.214 123.494 111.591 80.1733 115.104 78.4635C122.974 74.5928 142.176 75.324 154.893 80.3589C154.893 80.3589 154.959 80.9701 154.999 82.0869" fill="#421CDD"/>
<g id="Clip path group_5">
<mask id="mask4_17_537" style="mask-type:luminance" maskUnits="userSpaceOnUse" x="110" y="75" width="45" height="59">
<g id="freepik--clip-path-5--inject-1">
<path id="Vector_99" d="M154.308 92.7788C153.564 97.636 152.276 102.395 150.467 106.967C144.687 121.544 150.339 130.249 145.883 132.585C142.918 134.135 113.653 133.152 111.332 129.031C108.214 123.494 111.591 80.1733 115.104 78.4635C122.974 74.5928 142.176 75.324 154.893 80.3589C154.893 80.3589 154.959 80.9701 154.999 82.0869" fill="white"/>
</g>
</mask>
<g mask="url(#mask4_17_537)">
<g id="Group_5">
<path id="Vector_100" opacity="0.3" d="M132.858 93.9647C132.858 93.9647 131.831 102.088 126.103 104.442C120.375 106.796 119.304 108.444 119.33 110.867C119.33 110.867 116.405 115.061 116.007 118.786C115.74 121.384 113.909 125.007 110.601 126.4C109.69 120.663 110.104 108.182 111.156 97.388L112.359 96.5476C112.359 96.5476 117.129 91.149 117.729 87.3219C117.76 87.1219 117.78 86.9202 117.787 86.718C117.919 82.88 121.958 91.8111 119.615 97.057C117.272 102.303 132.858 93.9647 132.858 93.9647Z" fill="black" fill-opacity="0.7"/>
<path id="Vector_101" opacity="0.3" d="M143.207 85.7903L139.38 81.9305L136.455 84.9245L132.705 83.393L128.476 87.3437C125.811 84.6917 125.493 79.0784 125.551 76.1135C131.586 75.743 137.643 76.1096 143.587 77.2048C144.954 82.589 143.207 85.7903 143.207 85.7903Z" fill="black" fill-opacity="0.7"/>
</g>
</g>
</g>
<path id="Vector_102" d="M154.308 92.7788C153.564 97.636 152.276 102.395 150.467 106.967C144.687 121.544 150.339 130.249 145.883 132.585C142.918 134.135 113.653 133.152 111.332 129.031C108.214 123.494 111.591 80.1733 115.104 78.4635C122.974 74.5928 142.176 75.324 154.893 80.3589C154.893 80.3589 154.959 80.9701 154.999 82.0869" stroke="#263238" stroke-width="0.5" stroke-linecap="round" stroke-linejoin="round"/>
<path id="Vector_103" d="M141.602 77.1939C141.602 77.1939 137.238 84.0696 136.463 84.0696C135.41 84.0696 128.49 77.4559 128.49 77.4559C129.243 76.7488 129.754 75.8253 129.953 74.8147C130.175 73.644 130.175 72.4422 129.953 71.2714C129.894 70.9403 129.843 70.7475 129.843 70.7475L128.483 55.9812L143.291 58.5896C139.252 69.4488 139.38 75.917 141.602 77.1939Z" fill="white" stroke="#263238" stroke-width="0.5" stroke-linecap="round" stroke-linejoin="round"/>
<path id="Vector_104" d="M127.324 76.5937C127.324 76.5937 128.443 82.6145 132.328 86.4634L135.191 87.4202C135.191 87.4202 140.308 81.9305 141.613 77.1976L143.302 78.409C143.302 78.409 139.087 86.8708 135.896 88.1987L132.464 92.2368C132.464 92.2368 133.118 97.4463 128.487 99.1488C123.855 100.851 111.134 109.855 113.635 117.902L109.007 119.998L106.876 115.188C106.876 115.188 108.619 108.677 113.624 103.514C118.628 98.3521 129.408 100.313 131.148 92.2368V87.3438C131.148 87.3438 124.535 79.7041 127.324 76.5937Z" fill="#263238"/>
<path id="Vector_105" d="M140.871 80.0388L144.731 83.7786C145.243 76.7792 141.292 74.2873 141.292 74.2873C141.774 76.7792 139.394 78.3108 139.394 78.3108C138.746 80.2661 137.57 82.0065 135.995 83.342C134.651 82.0318 133.428 80.6049 132.339 79.0784C130.146 78.1216 128.501 73.5197 128.501 73.5197C127.54 74.3111 126.731 75.2702 126.114 76.35C126.114 76.35 126.454 82.7236 129.039 85.4084C130.029 84.0436 131.129 82.7613 132.328 81.574L136.463 84.9282L140.871 80.0388Z" fill="#421CDD" stroke="#263238" stroke-width="0.5" stroke-linecap="round" stroke-linejoin="round"/>
<path id="Vector_106" d="M117.842 89.8139C117.655 91.1507 117.343 92.4673 116.91 93.7465L93.4422 108.233C93.4422 108.233 89.7649 106.596 92.3456 97.1989C94.9263 87.8022 115.097 78.4345 115.097 78.4345C115.464 78.867 115.788 79.3336 116.066 79.8278" fill="#421CDD"/>
<g id="Clip path group_6">
<mask id="mask5_17_537" style="mask-type:luminance" maskUnits="userSpaceOnUse" x="91" y="78" width="27" height="31">
<g id="freepik--clip-path-6--inject-1">
<path id="Vector_107" d="M117.842 89.8139C117.655 91.1507 117.343 92.4673 116.91 93.7465L93.4422 108.233C93.4422 108.233 89.7649 106.596 92.3456 97.1989C94.9263 87.8022 115.097 78.4345 115.097 78.4345C115.464 78.867 115.788 79.3336 116.066 79.8278" fill="white"/>
</g>
</mask>
<g mask="url(#mask5_17_537)">
<g id="Group_6">
<path id="Vector_108" opacity="0.3" d="M117.842 89.8103C117.657 91.149 117.343 92.467 116.906 93.7466L108.079 99.2034C103.86 99.2034 99.3752 98.8906 98.2822 97.7701C96.0889 95.5255 99.1741 94.0521 99.1741 94.0521C101.221 92.4369 108.174 91.833 111.259 91.029C114.344 90.225 117.422 88.1187 117.422 88.1187L117.575 88.3079L117.842 89.8103Z" fill="black" fill-opacity="0.7"/>
</g>
</g>
</g>
<path id="Vector_109" d="M117.842 89.8139C117.655 91.1507 117.343 92.4673 116.91 93.7465L93.4422 108.233C93.4422 108.233 89.7649 106.596 92.3456 97.1989C94.9263 87.8022 115.097 78.4345 115.097 78.4345C115.464 78.867 115.788 79.3336 116.066 79.8278" stroke="#263238" stroke-width="0.5" stroke-linecap="round" stroke-linejoin="round"/>
<path id="Vector_110" d="M122.96 91.2545C122.96 91.2545 126.648 87.9003 127.31 87.1327C127.971 86.3651 133.027 85.121 133.725 85.4084C134.423 85.6958 134.039 86.6525 134.039 86.6525C134.039 86.6525 135.443 86.6525 135.176 87.4201C134.909 88.1877 132.435 89.2391 132.435 89.2391C132.435 89.2391 134.372 90.6761 134.686 91.2509C135.001 91.8257 133.725 92.7861 133.725 92.7861C133.725 92.7861 134.09 93.7429 133.725 94.0339C133.359 94.3249 131.477 95.7583 131.477 95.7583C131.477 95.7583 130.782 95.4709 131.543 94.2231L130.468 94.1721C130.468 94.1721 127.295 96.1402 125.08 95.7583L122.96 91.2545Z" fill="white" stroke="#263238" stroke-width="0.5" stroke-linecap="round" stroke-linejoin="round"/>
<g id="Vector_111">
<path d="M97.2366 96.4386C104.182 93.339 118.193 90.2286 119.699 92.1021L122.989 90.5742C122.989 90.5742 125.782 93.7319 125.109 96.8023L122.463 97.3771C122.463 97.3771 119.619 103.322 104.975 109.073C96.7394 112.311 93.53 109.801 92.6454 106.337" fill="#421CDD"/>
<path d="M97.2366 96.4386C104.182 93.339 118.193 90.2286 119.699 92.1021L122.989 90.5742C122.989 90.5742 125.782 93.7319 125.109 96.8023L122.463 97.3771C122.463 97.3771 119.619 103.322 104.975 109.073C96.7394 112.311 93.53 109.801 92.6454 106.337" stroke="#263238" stroke-width="0.5" stroke-linecap="round" stroke-linejoin="round"/>
</g>
<path id="Vector_112" d="M143.32 104.347C145.005 104.497 146.7 104.458 148.376 104.231L149.571 98.956" stroke="#263238" stroke-width="0.5" stroke-linecap="round" stroke-linejoin="round"/>
<path id="Vector_113" d="M140.283 102.525L140.093 103.718" stroke="#263238" stroke-width="0.5" stroke-linecap="round" stroke-linejoin="round"/>
<path id="Vector_114" d="M149.955 97.2571L150.43 95.1544C150.43 95.1544 144.264 95.0634 141.566 94.3868L140.506 101.146" stroke="#263238" stroke-width="0.5" stroke-linecap="round" stroke-linejoin="round"/>
<path id="Vector_115" d="M131.481 125.655C131.481 126.353 131.506 127.052 131.557 127.75" stroke="#263238" stroke-width="0.5" stroke-linecap="round" stroke-linejoin="round"/>
<path id="Vector_116" d="M132.098 116.338C131.7 118.988 131.489 121.662 131.466 124.341" stroke="#263238" stroke-width="0.5" stroke-linecap="round" stroke-linejoin="round"/>
<path id="Vector_117" d="M134.993 99.1342C134.357 104.486 133.122 109.739 132.292 115.061" stroke="#263238" stroke-width="0.5" stroke-linecap="round" stroke-linejoin="round"/>
<path id="Vector_118" d="M135.897 91.0217C135.659 93.1827 135.429 95.3472 135.184 97.5081" stroke="#263238" stroke-width="0.5" stroke-linecap="round" stroke-linejoin="round"/>
<path id="Vector_119" d="M121.695 146.613C121.091 146.304 120.453 146.066 119.794 145.903" stroke="white" stroke-width="0.5" stroke-linecap="round" stroke-linejoin="round"/>
<path id="Vector_120" d="M133.926 163.62C133.561 160.83 133.195 157.919 132.098 155.009C130.271 151.371 125.884 150.28 123.161 147.417" stroke="white" stroke-width="0.5" stroke-linecap="round" stroke-linejoin="round"/>
<path id="Vector_121" d="M132.712 141.778C132.486 144.823 133.257 148.726 131.469 151.4" stroke="white" stroke-width="0.5" stroke-linecap="round" stroke-linejoin="round"/>
<path id="Vector_122" d="M133.089 137.849C133.001 138.577 132.928 139.326 132.859 140.068" stroke="white" stroke-width="0.5" stroke-linecap="round" stroke-linejoin="round"/>
<path id="Vector_123" d="M134.109 154.02C134.682 154.418 135.279 154.783 135.896 155.111" stroke="white" stroke-width="0.5" stroke-linecap="round" stroke-linejoin="round"/>
<path id="Vector_124" d="M124.1 143.219C126.413 146.849 129.274 150.104 132.581 152.87" stroke="white" stroke-width="0.5" stroke-linecap="round" stroke-linejoin="round"/>
<path id="Vector_125" d="M114.081 134.502C114.081 134.502 114.212 139.512 110.1 141.414" stroke="white" stroke-width="0.5" stroke-linecap="round" stroke-linejoin="round"/>
<path id="Vector_126" d="M143.273 136.67C143.273 136.67 142.889 139.355 143.302 140.534" stroke="white" stroke-width="0.5" stroke-linecap="round" stroke-linejoin="round"/>
<path id="Vector_127" d="M111.262 161.114C111.855 161.95 112.475 162.766 113.123 163.562" stroke="white" stroke-width="0.5" stroke-linecap="round" stroke-linejoin="round"/>
<path id="Vector_128" d="M141.237 96.4385C141.237 96.4385 145.737 97.439 148.822 96.8642" stroke="#263238" stroke-width="0.5" stroke-linecap="round" stroke-linejoin="round"/>
<path id="Vector_129" d="M101.758 94.7433C101.758 94.7433 100.062 93.4482 96.5751 94.3795" stroke="#263238" stroke-width="0.5" stroke-linecap="round" stroke-linejoin="round"/>
<path id="Vector_130" d="M119.699 92.1167C120.691 93.12 121.332 94.4149 121.527 95.8092" stroke="#263238" stroke-width="0.5" stroke-linecap="round" stroke-linejoin="round"/>
<path id="Vector_131" d="M157.269 93.3354C156.91 93.9871 156.409 94.5504 155.802 94.9841C155.195 95.4179 154.499 95.711 153.764 95.8419" stroke="#263238" stroke-width="0.5" stroke-linecap="round" stroke-linejoin="round"/>
<path id="Vector_132" d="M137.154 120.551C136.613 120.886 136.035 121.158 135.432 121.362" stroke="#263238" stroke-width="0.5" stroke-linecap="round" stroke-linejoin="round"/>
<path id="Vector_133" d="M145.466 111.492C143.587 114.479 141.295 117.415 138.521 119.609" stroke="#263238" stroke-width="0.5" stroke-linecap="round" stroke-linejoin="round"/>
<path id="Vector_134" d="M120.127 113.406C122.346 120.016 126.169 127.776 133.188 130.373" stroke="#263238" stroke-width="0.5" stroke-linecap="round" stroke-linejoin="round"/>
<path id="Vector_135" d="M119.03 109.815C119.22 110.499 119.42 111.182 119.63 111.863" stroke="#263238" stroke-width="0.5" stroke-linecap="round" stroke-linejoin="round"/>
<path id="Vector_136" d="M117.798 104.442C118.003 105.653 118.274 106.854 118.566 108.047" stroke="#263238" stroke-width="0.5" stroke-linecap="round" stroke-linejoin="round"/>
<path id="Vector_137" d="M136.437 71.075C136.437 71.075 133.743 75.7279 129.942 74.8075C130.164 73.6367 130.164 72.4349 129.942 71.2641C130.172 71.1404 130.325 71.075 130.325 71.075H136.437Z" fill="#263238"/>
<g id="Vector_138">
<path d="M141.686 64.6067C141.686 64.6067 143.353 62.6605 143.313 59.0225C143.244 53.1509 140.688 47.6504 131.934 49.1201C128.26 49.7386 125.756 52.256 124.967 56.1631C124.601 57.9821 124.915 60.1321 125.127 62.1184C125.358 64.3012 125.361 66.1601 125.899 68.1283C126.831 71.5588 128.717 73.8216 131.126 73.4869C133.718 73.1231 137.976 70.5366 138.071 69.0632" fill="white"/>
<path d="M141.686 64.6067C141.686 64.6067 143.353 62.6605 143.313 59.0225C143.244 53.1509 140.688 47.6504 131.934 49.1201C128.26 49.7386 125.756 52.256 124.967 56.1631C124.601 57.9821 124.915 60.1321 125.127 62.1184C125.358 64.3012 125.361 66.1601 125.899 68.1283C126.831 71.5588 128.717 73.8216 131.126 73.4869C133.718 73.1231 137.976 70.5366 138.071 69.0632" stroke="#263238" stroke-width="0.5" stroke-linecap="round" stroke-linejoin="round"/>
</g>
<path id="Vector_139" d="M131.159 58.8843C131.159 58.8843 132.84 58.2622 133.74 60.2267" stroke="#263238" stroke-width="0.5" stroke-linecap="round" stroke-linejoin="round"/>
<path id="Vector_140" d="M125.614 57.9566C125.614 57.9566 127.299 57.3345 128.198 59.299" stroke="#263238" stroke-width="0.5" stroke-linecap="round" stroke-linejoin="round"/>
<path id="Vector_141" d="M131.491 61.6782C131.491 62.0929 131.678 62.4276 131.908 62.4276C132.138 62.4276 132.329 62.0929 132.329 61.6782C132.329 61.2635 132.142 60.9251 131.908 60.9251C131.674 60.9251 131.491 61.2598 131.491 61.6782Z" fill="#263238"/>
<path id="Vector_142" d="M126.487 61.198C126.487 61.6127 126.677 61.951 126.908 61.951C127.138 61.951 127.324 61.6127 127.324 61.198C127.324 60.7833 127.138 60.4486 126.908 60.4486C126.677 60.4486 126.487 60.7869 126.487 61.198Z" fill="#263238"/>
<path id="Vector_143" d="M131.557 67.266C131.557 67.266 129.73 68.2773 128.008 67.8335" stroke="#263238" stroke-width="0.5" stroke-linecap="round" stroke-linejoin="round"/>
<path id="Vector_144" d="M131.225 67.6044C131.225 67.6044 131.027 68.925 129.784 69.0596C129.625 69.0821 129.462 69.071 129.307 69.027C129.152 68.9831 129.008 68.9072 128.884 68.8043C128.761 68.7014 128.66 68.5738 128.589 68.4298C128.518 68.2858 128.478 68.1285 128.472 67.9682" stroke="#263238" stroke-width="0.5" stroke-linecap="round" stroke-linejoin="round"/>
<g id="Vector_145">
<path d="M128.49 60.9179C128.49 61.5545 125.932 64.7522 126.173 65.1342C126.414 65.5162 128.49 65.6472 128.49 65.6472" fill="white"/>
<path d="M128.49 60.9179C128.49 61.5545 125.932 64.7522 126.173 65.1342C126.414 65.5162 128.49 65.6472 128.49 65.6472" stroke="#263238" stroke-width="0.5" stroke-linecap="round" stroke-linejoin="round"/>
</g>
<path id="Vector_146" d="M137.581 63.2825H136.521C136.909 61.198 136.156 58.1458 134.917 56.8361L136.744 54.1513C136.744 54.1513 132.314 51.8194 126.144 52.9872C126.144 52.9872 124.199 51.2774 124.784 47.7304C125.722 48.4123 126.837 48.8114 127.997 48.88C127.997 48.88 127.134 47.825 127.313 46.6754C129.114 47.5036 131.105 47.834 133.078 47.6322C136.547 47.3448 140.52 47.825 143.313 51.8522C145.748 55.3737 145.068 63.5481 140.886 66.4402L140.191 65.6472C140.191 65.6472 141.555 60.5359 139.511 61.198C138.038 61.6782 137.581 63.2825 137.581 63.2825Z" fill="#263238"/>
<g id="Vector_147">
<path d="M137.907 62.4276C137.907 62.4276 138.678 60.7687 140.217 61.198C141.756 61.6273 140.316 68.3429 137.907 66.8077" fill="white"/>
<path d="M137.907 62.4276C137.907 62.4276 138.678 60.7687 140.217 61.198C141.756 61.6273 140.316 68.3429 137.907 66.8077" stroke="#263238" stroke-width="0.5" stroke-linecap="round" stroke-linejoin="round"/>
</g>
</g>
</g>
</svg>
