<svg width="607" height="493" viewBox="0 0 607 493" fill="none" xmlns="http://www.w3.org/2000/svg">
<path d="M647.076 451.987L645.116 290.999C600.937 291.537 565.561 328.012 566.102 372.467C566.643 416.923 602.897 452.525 647.076 451.987Z" fill="#7919EF"/>
<path d="M646.735 423.989L645.457 318.997C616.739 319.347 593.747 343.134 594.1 372.125C594.453 401.117 618.019 424.337 646.735 423.987L646.735 423.989Z" fill="#F9F5F1"/>
<path d="M44.2994 430.7L30.5399 430.98L23.565 431.09C21.2334 431.14 18.8918 431.13 16.5502 431.15H16.1099V430.7L16.0598 418.98V418.48H16.5602L30.4398 418.54C35.063 418.54 39.6862 418.65 44.3194 418.7H44.5996V418.97C44.5796 420.96 44.5096 422.93 44.4695 424.89L44.3294 430.69L44.2994 430.7ZM44.2994 430.7L44.1593 424.78C44.1093 422.83 44.0492 420.9 44.0292 418.98L44.2994 419.25C39.6762 419.3 35.053 419.41 30.4198 419.41L16.5401 419.47L17.0405 418.97L16.9905 430.69L16.5401 430.24C18.8317 430.26 21.1133 430.24 23.4049 430.29L30.2997 430.4L44.2894 430.68L44.2994 430.7Z" fill="#EBEBEB"/>
<path d="M28.8187 445.47L15.0591 445.75L8.08431 445.86C5.75269 445.91 3.41106 445.9 1.06944 445.92H0.629136V445.47L0.579102 433.75V433.25H1.07945L14.9591 433.31C19.5823 433.31 24.2055 433.42 28.8387 433.47H29.1189V433.74C29.0989 435.73 29.0288 437.7 28.9888 439.66L28.8487 445.46L28.8187 445.47ZM28.8187 445.47L28.6786 439.55C28.6286 437.6 28.5685 435.67 28.5485 433.75L28.8187 434.02C24.1955 434.07 19.5723 434.18 14.9391 434.18L1.05943 434.24L1.55978 433.74L1.50975 445.46L1.05943 445.01C3.35102 445.03 5.63261 445.01 7.9242 445.06L14.819 445.17L28.8087 445.45L28.8187 445.47Z" fill="#EBEBEB"/>
<path d="M223.684 284.62L209.924 284.9L202.95 285.01C200.618 285.06 198.276 285.05 195.935 285.07H195.494V284.62L195.444 272.9V272.4H195.945L209.824 272.46C214.448 272.46 219.071 272.57 223.704 272.62H223.984V272.89C223.964 274.88 223.894 276.85 223.854 278.81L223.714 284.61L223.684 284.62ZM223.684 284.62L223.544 278.7C223.494 276.75 223.434 274.82 223.414 272.9L223.684 273.17C219.061 273.22 214.438 273.33 209.804 273.33L195.925 273.39L196.425 272.89L196.375 284.61L195.925 284.16C198.216 284.18 200.498 284.16 202.789 284.22L209.684 284.33L223.674 284.61L223.684 284.62Z" fill="#EBEBEB"/>
<path d="M207.953 299.4L194.193 299.68L187.219 299.79C184.887 299.84 182.545 299.83 180.204 299.84H179.763V299.39L179.713 287.67V287.17H180.214L194.093 287.23C198.717 287.23 203.34 287.34 207.973 287.39H208.253V287.66C208.233 289.65 208.163 291.62 208.123 293.58L207.983 299.38L207.953 299.4ZM207.953 299.4L207.813 293.48C207.763 291.53 207.703 289.6 207.683 287.68L207.953 287.95C203.33 288 198.707 288.11 194.073 288.11L180.194 288.17L180.694 287.67L180.644 299.39L180.194 298.94C182.485 298.96 184.767 298.94 187.058 299L193.953 299.11L207.943 299.39L207.953 299.4Z" fill="#EBEBEB"/>
<path d="M427.946 445.47L414.186 445.75L407.211 445.86C404.88 445.91 402.538 445.9 400.196 445.92H399.756V445.47L399.706 433.75V433.25H400.206L414.086 433.31C418.709 433.31 423.332 433.42 427.966 433.47H428.246V433.74C428.226 435.73 428.156 437.7 428.116 439.66L427.976 445.46L427.946 445.47ZM427.946 445.47L427.806 439.55C427.756 437.6 427.695 435.67 427.675 433.75L427.946 434.02C423.322 434.07 418.699 434.18 414.066 434.18L400.186 434.24L400.687 433.74L400.637 445.46L400.186 445.01C402.478 445.03 404.76 445.01 407.051 445.06L413.946 445.17L427.936 445.45L427.946 445.47Z" fill="#EBEBEB"/>
<path d="M412.465 168.22L398.705 168.5L391.731 168.61C389.399 168.66 387.057 168.65 384.716 168.67H384.275V168.22L384.225 156.5V156H384.726L398.605 156.06C403.229 156.06 407.852 156.17 412.485 156.22H412.765V156.49C412.745 158.48 412.675 160.45 412.635 162.41L412.495 168.21L412.465 168.22ZM412.465 168.22L412.325 162.3C412.275 160.35 412.215 158.42 412.195 156.5L412.465 156.77C407.842 156.82 403.219 156.93 398.585 156.93L384.706 156.99L385.206 156.49L385.156 168.21L384.706 167.76C386.997 167.78 389.279 167.76 391.57 167.81L398.465 167.92L412.455 168.2L412.465 168.22Z" fill="#EBEBEB"/>
<path d="M427.946 183L414.186 183.28L407.211 183.39C404.88 183.44 402.538 183.43 400.196 183.45H399.756V183L399.706 171.28V170.78H400.206L414.086 170.84C418.709 170.84 423.332 170.95 427.966 171H428.246V171.27C428.226 173.26 428.156 175.23 428.116 177.19L427.976 182.99L427.946 183ZM427.946 183L427.806 177.08C427.756 175.13 427.695 173.2 427.675 171.28L427.946 171.55C423.322 171.6 418.699 171.71 414.066 171.71L400.186 171.77L400.687 171.27L400.637 182.99L400.186 182.54C402.478 182.56 404.76 182.54 407.051 182.59L413.946 182.7L427.936 182.98L427.946 183Z" fill="#EBEBEB"/>
<path d="M28.8187 168.22L15.0591 168.5L8.08431 168.61C5.75269 168.66 3.41106 168.65 1.06944 168.67H0.629136V168.22L0.579102 156.5V156H1.07945L14.9591 156.06C19.5823 156.06 24.2055 156.17 28.8387 156.22H29.1189V156.49C29.0989 158.48 29.0288 160.45 28.9888 162.41L28.8487 168.21L28.8187 168.22ZM28.8187 168.22L28.6786 162.3C28.6286 160.35 28.5685 158.42 28.5485 156.5L28.8187 156.77C24.1955 156.82 19.5723 156.93 14.9391 156.93L1.05943 156.99L1.55978 156.49L1.50975 168.21L1.05943 167.76C3.35102 167.78 5.63261 167.76 7.9242 167.81L14.819 167.92L28.8087 168.2L28.8187 168.22Z" fill="#EBEBEB"/>
<path d="M192.212 284.62L178.452 284.9L171.478 285.01C169.146 285.06 166.804 285.05 164.463 285.07H164.022V284.62L163.972 272.9V272.4H164.473L178.352 272.46C182.976 272.46 187.599 272.57 192.232 272.62H192.512V272.89C192.492 274.88 192.422 276.85 192.382 278.81L192.242 284.61L192.212 284.62ZM192.212 284.62L192.072 278.7C192.022 276.75 191.962 274.82 191.942 272.9L192.212 273.17C187.589 273.22 182.966 273.33 178.332 273.33L164.453 273.39L164.953 272.89L164.903 284.61L164.453 284.16C166.744 284.18 169.026 284.16 171.318 284.22L178.212 284.33L192.202 284.61L192.212 284.62Z" fill="#EBEBEB"/>
<path d="M79.3037 324.86V277.12H31.5305V324.86H79.3037Z" fill="#DBDBDB"/>
<path d="M71.8987 317.45V284.52H38.9458V317.45H71.8987Z" fill="white"/>
<path d="M71.8987 284.52H38.9458V317.45L71.8987 284.52Z" fill="#EBEBEB"/>
<path d="M26.8575 324.85H31.5308L31.5308 277.11H26.8575L26.8575 324.85Z" fill="#C7C7C7"/>
<path d="M138.435 324.86V277.12H90.6617V324.86H138.435Z" fill="#DBDBDB"/>
<path d="M131.03 317.45V284.52H98.0769V317.45H131.03Z" fill="white"/>
<path d="M121.353 284.52H98.0769V307.78L121.353 284.52Z" fill="#EBEBEB"/>
<path d="M85.9986 324.85H90.6719V277.11H85.9986V324.85Z" fill="#C7C7C7"/>
<path d="M138.445 398.67V336.28H31.5407V398.67H138.445Z" fill="#DBDBDB"/>
<path d="M130.639 390.95V343.99H39.3461V390.95H130.639Z" fill="white"/>
<path d="M99.1877 344H39.3362V374.78L99.1877 344Z" fill="#EBEBEB"/>
<path d="M26.8575 398.67H31.5308L31.5308 336.28H26.8575L26.8575 398.67Z" fill="#C7C7C7"/>
<path d="M138.435 265.99V159.16H31.5306V265.99H138.435Z" fill="#DBDBDB"/>
<path d="M130.64 166.95H39.3362V258.18H130.64V166.95Z" fill="white"/>
<path d="M39.3362 232.64C53.2158 218.85 92.5431 179.75 105.182 166.96H39.3362V232.64Z" fill="#EBEBEB"/>
<path d="M26.8575 265.99H31.5308L31.5308 159.16H26.8575L26.8575 265.99Z" fill="#C7C7C7"/>
<path d="M417.869 31.911C420.199 43.1708 425.508 53.3969 435.867 58.5741C447.131 64.27 460.857 62.846 470.438 54.4323C476.523 49.125 480.019 42.007 480.796 34.2403C481.702 23.7558 477.3 13.6615 468.236 7.31874C458.525 0.587462 446.483 0.200727 436.642 6.41339C429.261 11.0738 424.471 18.4502 423.565 26.9922C422.529 36.5696 426.284 46.0187 434.312 51.9729C445.448 60.3866 461.113 58.7042 470.049 48.0896C476.911 40.0644 477.947 28.8047 473.026 19.614C466.811 8.22409 452.18 3.56369 440.657 9.64804C429.133 15.6023 424.342 30.6154 431.593 42.0052C435.478 48.2179 441.951 51.9712 448.944 52.3597C455.936 52.7482 462.668 49.7702 467.072 44.0761C472.898 36.4395 472.77 25.955 466.553 18.7068C463.187 14.8235 458.525 12.3641 453.346 11.8472C442.599 10.6817 432.759 19.8724 433.018 30.4852C433.148 40.3229 442.21 48.8648 452.31 47.4409C456.583 46.7939 460.338 44.7231 463.057 41.3583C467.589 35.6625 467.719 27.509 462.927 21.9433C459.3 17.5431 453.734 15.6005 448.166 17.0245C441.693 18.7068 437.289 24.7912 437.938 31.3906C438.585 37.0864 442.987 42.0035 448.815 42.6504C453.736 43.169 458.527 40.5795 460.598 36.1793C462.023 32.9429 461.893 29.3197 460.079 26.2134C456.972 21.1662 449.851 19.7423 445.448 23.8841C441.821 27.3789 441.693 33.3332 445.966 36.4395C448.038 37.8635 450.628 38.252 452.829 37.3448C455.159 36.3094 456.842 33.85 456.583 31.1322C456.195 28.5427 453.864 26.3435 451.146 26.4718C450.11 26.6019 449.204 27.1187 448.427 27.8957C447.521 29.0613 447.391 30.872 448.427 32.0375C449.332 32.9429 450.11 31.2605 450.757 30.872C450.757 30.872 450.627 31.0021 450.612 30.9949" stroke="#FD7A8C" stroke-width="3" stroke-miterlimit="10"/>
<path d="M329.611 490.899C464.353 490.899 573.583 479.057 573.583 464.449C573.583 449.842 464.353 438 329.611 438C194.868 438 85.6382 449.842 85.6382 464.449C85.6382 479.057 194.868 490.899 329.611 490.899Z" fill="white"/>
<path d="M413.809 26H222.374C211.678 26 203.008 34.8204 203.008 45.7134V439.525C203.008 450.393 211.678 459.238 222.374 459.238H413.809C424.505 459.238 433.198 450.406 433.198 439.525V45.7134C433.198 34.8204 424.517 26 413.809 26ZM421.092 427.354C421.092 437.717 413.327 446.104 403.74 446.104H232.478C222.88 446.104 215.103 437.717 215.103 427.354V60.6431C215.103 39.5319 222.868 38.4956 232.478 38.4956H266.784C268.773 38.4956 270.413 40.761 270.413 43.5686V44.7736C270.413 51.3527 274.019 51.3648 278.444 51.3648H357.775C362.236 51.3648 365.805 51.3407 365.805 44.7736V43.5686C365.805 40.761 367.409 38.4956 369.435 38.4956H403.74C413.315 38.4956 421.092 41.3032 421.092 60.6431V427.354Z" fill="#263238"/>
<path d="M328.92 43.1589H307.275C306.54 43.1589 305.937 42.5564 305.937 41.8214C305.937 41.0864 306.54 40.4839 307.275 40.4839H328.92C329.655 40.4839 330.258 41.0864 330.258 41.8214C330.258 42.5564 329.655 43.1589 328.92 43.1589Z" fill="white"/>
<g opacity="0.2">
<path opacity="0.4" d="M417.945 430.62C417.451 434.428 416.498 438.043 415.147 441.465C412.097 444.357 408.105 446.104 403.728 446.104H232.31C222.699 446.104 214.934 437.717 214.934 427.342V328.534C222.157 321.136 230.573 315.942 239.303 312.664C259.863 304.989 282.122 308.11 294.349 318.858C312.424 334.752 339.784 377.697 355.315 378.553C356.376 378.613 357.606 378.697 358.993 378.806C370.243 379.71 391.067 382.806 404.838 394.266C414.086 401.965 420.164 413.449 417.945 430.62Z" fill="#FFC727"/>
<path d="M403.74 446.706H232.321C222.41 446.706 214.343 438.018 214.343 427.342V334.728L214.475 334.559C217.586 330.582 221.144 326.618 225.05 322.75C229.235 318.605 233.925 315.038 239.026 312.146C265.011 297.337 295.434 302.856 308.722 316.46C314.848 322.75 321.805 332.51 329.161 342.837C339.615 357.526 350.431 372.709 359.342 378.3C361.247 379.493 363.02 380.216 364.624 380.432C375.994 381.927 392.261 385.445 405.187 393.772C412.977 398.772 418.524 404.93 421.671 412.087L421.719 412.328V427.342C421.719 432.933 419.488 438.247 415.593 441.91C412.326 445.007 408.117 446.706 403.764 446.706H403.74ZM215.549 335.137V427.33C215.549 437.344 223.073 445.489 232.321 445.489H403.74C407.78 445.489 411.687 443.899 414.737 441.019C418.391 437.573 420.489 432.584 420.489 427.33V412.437C417.438 405.556 412.06 399.616 404.512 394.772C391.766 386.566 375.681 383.083 364.431 381.613C362.658 381.372 360.717 380.601 358.667 379.312C349.563 373.588 338.674 358.309 328.148 343.524C320.816 333.233 313.895 323.509 307.83 317.292C294.855 304.001 265.084 298.651 239.605 313.183C234.6 316.026 229.994 319.533 225.882 323.606C222.072 327.389 218.587 331.269 215.537 335.149L215.549 335.137Z" fill="#263238"/>
<path opacity="0.4" d="M281.844 74.2112C287.078 82.6702 284.208 92.7317 278.757 95.8285C273.307 98.9253 263.733 105.095 262.322 108.903C260.911 112.71 251.976 122.326 240.726 116.783C229.476 111.252 230.73 91.8882 235.698 80.0192C242.257 64.3786 267.471 50.9672 281.844 74.2112Z" fill="#FFC727"/>
<path d="M246.285 120.205C243.524 120.205 240.787 119.446 238.218 117.94C226.751 111.216 229.982 91.4785 235.77 80.2481C240.642 70.8011 252.025 63.6676 262.25 63.6435H262.298C268.557 63.6435 277.287 66.1378 283.46 77.9587C285.8 82.4532 286.246 87.6949 284.678 92.3341C283.46 95.9249 281.193 98.7325 278.444 100.022C271.197 103.42 262.949 108.155 261.527 111.228C260.441 113.566 256.342 117.795 250.976 119.47C249.408 119.964 247.841 120.205 246.273 120.205H246.285ZM262.31 64.8485H262.262C252.447 64.8726 241.522 71.7289 236.844 80.8024C231.044 92.0569 228.499 110.855 238.833 116.904C242.607 119.121 246.574 119.591 250.626 118.325C255.642 116.759 259.453 112.867 260.441 110.734C262.359 106.613 273.319 101.118 277.938 98.9494C280.398 97.7926 282.435 95.2501 283.545 91.9605C285.004 87.6347 284.594 82.7304 282.399 78.525C276.515 67.2344 268.231 64.8485 262.298 64.8485H262.31Z" fill="#263238"/>
<path d="M360.452 132.52C337.843 136.726 327.762 154.728 334.997 164.38C342.232 174.044 367.433 173.875 372.088 187.805C376.742 201.734 394.094 222.46 412.205 208.458C430.305 194.468 408.853 123.519 360.464 132.52H360.452Z" fill="#DBDBDB"/>
<path d="M392.37 219.001C389.813 219.001 387.281 218.459 384.797 217.363C374.765 212.977 367.361 200.276 365.227 189.998C363.587 182.105 354.953 177.779 346.609 173.586C340.085 170.308 333.924 167.223 331.223 162.56C328.932 158.608 329.088 153.595 331.633 148.811C335.347 141.859 344.933 134.05 360.729 133.002C393.961 130.809 406.297 161.801 409.287 171.357C415.316 190.612 412.796 210.048 403.523 215.615C399.773 217.869 396.035 218.989 392.37 218.989V219.001ZM360.801 134.219C345.5 135.231 336.251 142.726 332.694 149.39C330.306 153.86 330.149 158.331 332.26 161.97C334.78 166.32 340.785 169.332 347.139 172.513C355.749 176.827 364.648 181.298 366.396 189.757C368.47 199.722 375.609 212.037 385.279 216.254C390.971 218.748 396.903 218.182 402.908 214.579C411.711 209.289 414.014 190.468 408.142 171.718C405.211 162.379 393.177 132.062 360.813 134.207L360.801 134.219Z" fill="#263238"/>
</g>
<path d="M260.863 46.7377C260.755 46.8461 260.646 46.9546 260.537 47.063C260.477 47.1233 260.417 47.1835 260.345 47.2558C259.452 46.3883 258.391 45.9304 257.149 45.9304C255.907 45.9304 254.846 46.3883 253.954 47.2558C253.893 47.1956 253.833 47.1353 253.773 47.0751C253.664 46.9666 253.556 46.8582 253.447 46.7497C253.447 46.7497 253.459 46.7256 253.471 46.7256C253.616 46.6051 253.749 46.4726 253.893 46.3521C254.195 46.1111 254.52 45.9063 254.858 45.7376C255.268 45.5327 255.69 45.3881 256.148 45.3038C256.365 45.2676 256.57 45.2435 256.787 45.2194C256.86 45.2194 257.33 45.2194 257.354 45.2194C257.499 45.2194 257.644 45.2315 257.788 45.2556C258.198 45.3038 258.584 45.4002 258.97 45.5327C259.247 45.6291 259.513 45.7617 259.766 45.9063C260.031 46.0629 260.284 46.2316 260.525 46.4365C260.646 46.5329 260.755 46.6413 260.875 46.7497L260.863 46.7377Z" fill="#C7C7C7"/>
<path d="M255.003 48.2921C254.822 48.1234 254.653 47.9427 254.485 47.774C255.075 47.1835 255.787 46.822 256.619 46.7015C257.861 46.5329 258.922 46.9064 259.826 47.7619C259.646 47.9427 259.477 48.1114 259.296 48.2801C258.705 47.7017 257.994 47.4004 257.149 47.4004C256.317 47.4004 255.606 47.7137 255.003 48.2921Z" fill="#C7C7C7"/>
<path d="M258.777 48.8103C258.608 48.979 258.427 49.1597 258.258 49.3284C257.957 49.0393 257.595 48.8706 257.161 48.8706C256.727 48.8706 256.365 49.0272 256.064 49.3284C255.895 49.1597 255.714 48.979 255.545 48.8103C256.377 47.9427 257.861 47.8704 258.777 48.8103Z" fill="#C7C7C7"/>
<path d="M257.619 49.8104C257.619 50.0755 257.414 50.2803 257.149 50.2803C256.884 50.2803 256.679 50.0755 256.679 49.8104C256.679 49.5453 256.884 49.3404 257.149 49.3404C257.414 49.3404 257.619 49.5453 257.619 49.8104Z" fill="#C7C7C7"/>
<path d="M228.547 47.7378C228.547 46.9787 229.162 46.3762 229.91 46.3762C230.658 46.3762 231.273 46.9908 231.273 47.7378C231.273 48.4849 230.658 49.0995 229.91 49.0995C229.162 49.0995 228.547 48.4849 228.547 47.7378Z" fill="#C7C7C7"/>
<path d="M232.84 47.7378C232.84 46.9787 233.455 46.3762 234.203 46.3762C234.95 46.3762 235.565 46.9908 235.565 47.7378C235.565 48.4849 234.95 49.0995 234.203 49.0995C233.455 49.0995 232.84 48.4849 232.84 47.7378Z" fill="#C7C7C7"/>
<path d="M237.145 47.7378C237.145 46.9787 237.76 46.3762 238.507 46.3762C239.255 46.3762 239.87 46.9908 239.87 47.7378C239.87 48.4849 239.255 49.0995 238.507 49.0995C237.76 49.0995 237.145 48.4849 237.145 47.7378Z" fill="#C7C7C7"/>
<path d="M241.449 47.7378C241.449 46.9787 242.064 46.3762 242.812 46.3762C243.56 46.3762 244.175 46.9908 244.175 47.7378C244.175 48.4849 243.56 49.0995 242.812 49.0995C242.064 49.0995 241.449 48.4849 241.449 47.7378Z" fill="#C7C7C7"/>
<path d="M245.742 47.7378C245.742 46.9787 246.357 46.3762 247.105 46.3762C247.852 46.3762 248.467 46.9908 248.467 47.7378C248.467 48.4849 247.852 49.0995 247.105 49.0995C246.357 49.0995 245.742 48.4849 245.742 47.7378Z" fill="#C7C7C7"/>
<path d="M405.512 50.5816H394.66V45.7014H405.512V50.5816ZM394.962 50.2804H405.211V46.0027H394.962V50.2804Z" fill="#C7C7C7"/>
<path d="M402.619 46.4485H395.456V49.8465H402.619V46.4485Z" fill="#C7C7C7"/>
<path d="M406.633 46.7618H405.645V49.5091H406.633V46.7618Z" fill="#C7C7C7"/>
<path d="M238.109 216.832L258.102 216.664L278.106 216.604L318.103 216.483L358.1 216.604L378.105 216.664L398.109 216.832L378.105 217.013L358.1 217.073L318.103 217.194L278.106 217.073L258.102 217.013L238.109 216.832Z" fill="#EBEBEB"/>
<path d="M341.653 170.091C337.758 172.513 333.441 174.357 328.738 175.49C316.584 178.454 304.405 176.176 294.553 170.067C284.919 164.115 277.503 154.511 274.597 142.642C268.737 118.615 283.448 94.3946 307.492 88.5384C331.512 82.6702 355.749 97.3829 361.633 121.41C366.348 140.738 357.726 160.186 341.665 170.091H341.653Z" fill="#7919EF"/>
<path d="M319.21 140.494C326.71 139.875 332.288 133.298 331.668 125.803C331.049 118.309 324.467 112.735 316.968 113.353C309.468 113.972 303.89 120.549 304.509 128.044C305.129 135.539 311.71 141.112 319.21 140.494Z" fill="white"/>
<path d="M341.652 164.464V170.079C337.757 172.501 333.441 174.345 328.738 175.478C316.583 178.442 304.404 176.165 294.553 170.055V164.452C294.553 151.487 305.092 140.919 318.103 140.919C331.113 140.919 341.652 151.487 341.652 164.452V164.464Z" fill="white"/>
<path d="M381.844 281H253.755V307H381.844V281Z" fill="#FD7A8C"/>
<path d="M62.6221 459.602L126.916 459.313L191.222 459.205L319.81 459L448.399 459.205L512.705 459.313L576.999 459.602L512.705 459.904L448.399 460L319.81 460.205L191.222 460L126.916 459.904L62.6221 459.602Z" fill="#263238"/>
<path d="M377.747 387.474C395.038 404.392 397.932 430.552 394.29 453.471C394.194 453.989 393.386 453.844 393.386 453.362C393.386 448.145 393.543 442.975 393.531 437.818C393.434 437.577 393.362 437.36 393.266 437.119C388.756 433.841 384.608 430.142 382.039 425.057C379.157 419.382 378.012 412.983 375.805 407.055C375.6 406.488 376.203 406.657 376.601 406.946C387.116 414.694 390.468 423.033 393.483 434.179C393.338 428.395 392.904 422.611 391.65 416.827C389.383 406.247 384.885 395.764 377.276 387.92C376.987 387.618 377.433 387.161 377.735 387.462L377.747 387.474Z" fill="#263238"/>
<path d="M374.503 389.45C371.524 389.546 369.667 394.306 367.352 395.692C366.122 396.427 364.929 396.379 364.072 395.174C361.781 391.968 364.929 388.016 367.895 385.811C365.773 386.679 364.024 388.209 361.733 388.643C360.346 388.896 359.273 388.39 358.948 386.98C357.947 382.618 363.421 380.666 367.183 380.581C365.363 379.316 360.129 375.87 362.915 374.183C365.724 372.484 371.862 377.412 373.864 379.027C376.806 381.413 380.315 384.968 380.447 388.703C380.616 393.053 376.818 390.378 374.527 389.462L374.503 389.45Z" fill="#B980FF"/>
<path d="M375.359 390.185C371.561 388.462 364.254 390.944 363.627 389.51C362.373 386.582 368.209 384.57 371.356 384.184C368.45 383.401 362.891 382.148 363.06 379.352C363.265 375.942 371.585 378.87 375.793 382.1C381.099 386.16 381.063 390.089 380.182 390.872C378.977 391.944 375.974 390.474 375.335 390.185H375.359Z" fill="#7919EF"/>
<path d="M417.117 385.799C399.198 402.042 395.303 428.082 398.077 451.121C398.149 451.639 398.957 451.53 398.981 451.048C399.174 445.831 399.222 440.662 399.427 435.516C399.536 435.287 399.62 435.07 399.717 434.829C404.347 431.721 408.64 428.178 411.401 423.201C414.5 417.646 415.875 411.284 418.31 405.452C418.54 404.898 417.925 405.03 417.515 405.32C406.71 412.658 403.045 420.876 399.608 431.889C399.97 426.117 400.633 420.346 402.092 414.622C404.769 404.139 409.653 393.836 417.551 386.281C417.84 385.992 417.418 385.522 417.117 385.811V385.799Z" fill="#263238"/>
<path d="M420.288 387.896C423.254 388.112 424.942 392.92 427.197 394.402C428.391 395.186 429.585 395.186 430.501 394.017C432.913 390.908 429.922 386.835 427.04 384.51C429.126 385.462 430.827 387.052 433.093 387.57C434.468 387.871 435.565 387.402 435.939 386.016C437.109 381.69 431.707 379.545 427.957 379.304C429.826 378.111 435.18 374.87 432.466 373.062C429.717 371.255 423.399 375.942 421.349 377.485C418.322 379.75 414.681 383.184 414.403 386.895C414.066 391.233 417.973 388.703 420.288 387.884V387.896Z" fill="#B980FF"/>
<path d="M419.396 388.594C423.266 387.016 430.465 389.775 431.14 388.366C432.515 385.486 426.751 383.256 423.616 382.75C426.546 382.076 432.153 381.039 432.081 378.232C431.997 374.81 423.58 377.424 419.251 380.497C413.801 384.353 413.68 388.281 414.524 389.101C415.682 390.221 418.745 388.86 419.384 388.607L419.396 388.594Z" fill="#7919EF"/>
<path d="M398.788 428.696C397.461 437.251 395.822 446.108 393.229 454.374C392.976 455.133 391.866 454.941 391.975 454.121C393.157 446.204 395.303 438.432 396.473 430.528C397.666 422.515 398.306 414.405 397.847 406.296C397.088 392.956 393.47 378.774 384.764 368.339C384.571 368.086 384.981 367.736 385.174 367.977C402.61 388.293 399.837 413.2 399.825 415.429C402.297 407.019 404.841 397.379 414.174 388.811C414.572 388.438 414.886 388.619 414.825 389.245C413.161 404.85 408.82 412.995 399.765 421.334C399.511 423.804 399.186 426.262 398.8 428.696H398.788Z" fill="#263238"/>
<path d="M384.607 370.689C381.472 369.291 377.143 373.291 374.045 373.556C372.405 373.701 371.187 373.062 370.897 371.375C370.126 366.893 375.383 364.386 379.579 363.579C376.938 363.41 374.346 364.121 371.753 363.422C370.186 362.989 369.33 361.916 369.704 360.302C370.861 355.265 377.529 356 381.472 357.807C380.218 355.578 376.529 349.372 380.267 349.011C384.041 348.661 387.923 356.855 389.178 359.542C391.022 363.495 392.867 368.953 391.131 372.894C389.117 377.497 386.513 372.797 384.607 370.701V370.689Z" fill="#B980FF"/>
<path d="M385.138 371.881C382.063 368.182 373.237 367.086 373.309 365.278C373.478 361.603 380.544 362.458 384.005 363.639C381.388 361.362 376.251 357.265 377.843 354.457C379.784 351.023 386.935 358.253 389.672 363.712C393.133 370.592 391.119 374.653 389.817 375.026C388.02 375.545 385.645 372.496 385.138 371.881Z" fill="#7919EF"/>
<path d="M410.267 433.396L417.961 492.102H371.163C372.127 486.897 380.833 433.323 380.833 433.323L410.267 433.396Z" fill="#FD7A8C"/>
<path d="M240.641 80.694V114.409H231.103V80.694C231.103 67.873 221.36 57.4499 209.374 57.4499C197.389 57.4499 187.646 67.873 187.646 80.694V114.409H178.108V80.694C178.108 62.3301 192.131 47.4004 209.374 47.4004C226.618 47.4004 240.641 62.3301 240.641 80.694Z" fill="#C7C7C7"/>
<path d="M178.108 89.4542L187.646 89.8398V114.409H178.108V89.4542Z" fill="#A6A6A6"/>
<path d="M240.641 91.9967V114.409H231.103V91.6111L240.641 91.9967Z" fill="#A6A6A6"/>
<path d="M252.856 95.214H165.893V174.056H252.856V95.214Z" fill="#C7C7C7"/>
<path opacity="0.1" d="M252.856 95.214H209.375V174.056H252.856V95.214Z" fill="#3F3F3F"/>
<path d="M213.052 137.521L216.694 154.776H201.248L204.889 137.521C202.719 136.147 201.248 133.749 201.248 131.002C201.248 126.7 204.708 123.278 208.977 123.278C213.245 123.278 216.706 126.7 216.706 131.002C216.706 133.749 215.235 136.147 213.065 137.521H213.052Z" fill="#263238"/>
<path d="M269.776 196.21C269.776 195.63 269.893 195.123 270.126 194.69C270.366 194.257 270.696 193.923 271.116 193.69C271.543 193.457 272.03 193.34 272.576 193.34C273.276 193.34 273.86 193.523 274.326 193.89C274.8 194.257 275.11 194.773 275.256 195.44H273.436C273.283 195.013 272.986 194.8 272.546 194.8C272.233 194.8 271.983 194.923 271.796 195.17C271.61 195.41 271.516 195.757 271.516 196.21C271.516 196.663 271.61 197.013 271.796 197.26C271.983 197.5 272.233 197.62 272.546 197.62C272.986 197.62 273.283 197.407 273.436 196.98H275.256C275.11 197.633 274.8 198.147 274.326 198.52C273.853 198.893 273.27 199.08 272.576 199.08C272.03 199.08 271.543 198.963 271.116 198.73C270.696 198.497 270.366 198.163 270.126 197.73C269.893 197.297 269.776 196.79 269.776 196.21ZM279.801 193.36C280.441 193.36 280.955 193.573 281.341 194C281.728 194.42 281.921 195 281.921 195.74V199H280.221V195.97C280.221 195.597 280.125 195.307 279.931 195.1C279.738 194.893 279.478 194.79 279.151 194.79C278.825 194.79 278.565 194.893 278.371 195.1C278.178 195.307 278.081 195.597 278.081 195.97V199H276.371V191.6H278.081V194.17C278.255 193.923 278.491 193.727 278.791 193.58C279.091 193.433 279.428 193.36 279.801 193.36ZM282.969 196.2C282.969 195.627 283.076 195.123 283.289 194.69C283.509 194.257 283.806 193.923 284.179 193.69C284.553 193.457 284.969 193.34 285.429 193.34C285.823 193.34 286.166 193.42 286.459 193.58C286.759 193.74 286.989 193.95 287.149 194.21V193.42H288.859V199H287.149V198.21C286.983 198.47 286.749 198.68 286.449 198.84C286.156 199 285.813 199.08 285.419 199.08C284.966 199.08 284.553 198.963 284.179 198.73C283.806 198.49 283.509 198.153 283.289 197.72C283.076 197.28 282.969 196.773 282.969 196.2ZM287.149 196.21C287.149 195.783 287.029 195.447 286.789 195.2C286.556 194.953 286.269 194.83 285.929 194.83C285.589 194.83 285.299 194.953 285.059 195.2C284.826 195.44 284.709 195.773 284.709 196.2C284.709 196.627 284.826 196.967 285.059 197.22C285.299 197.467 285.589 197.59 285.929 197.59C286.269 197.59 286.556 197.467 286.789 197.22C287.029 196.973 287.149 196.637 287.149 196.21ZM293.697 193.36C294.35 193.36 294.87 193.573 295.257 194C295.65 194.42 295.847 195 295.847 195.74V199H294.147V195.97C294.147 195.597 294.05 195.307 293.857 195.1C293.663 194.893 293.403 194.79 293.077 194.79C292.75 194.79 292.49 194.893 292.297 195.1C292.103 195.307 292.007 195.597 292.007 195.97V199H290.297V193.42H292.007V194.16C292.18 193.913 292.413 193.72 292.707 193.58C293 193.433 293.33 193.36 293.697 193.36ZM299.355 193.34C299.748 193.34 300.092 193.42 300.385 193.58C300.685 193.74 300.915 193.95 301.075 194.21V193.42H302.785V198.99C302.785 199.503 302.682 199.967 302.475 200.38C302.275 200.8 301.965 201.133 301.545 201.38C301.132 201.627 300.615 201.75 299.995 201.75C299.168 201.75 298.498 201.553 297.985 201.16C297.472 200.773 297.178 200.247 297.105 199.58H298.795C298.848 199.793 298.975 199.96 299.175 200.08C299.375 200.207 299.622 200.27 299.915 200.27C300.268 200.27 300.548 200.167 300.755 199.96C300.968 199.76 301.075 199.437 301.075 198.99V198.2C300.908 198.46 300.678 198.673 300.385 198.84C300.092 199 299.748 199.08 299.355 199.08C298.895 199.08 298.478 198.963 298.105 198.73C297.732 198.49 297.435 198.153 297.215 197.72C297.002 197.28 296.895 196.773 296.895 196.2C296.895 195.627 297.002 195.123 297.215 194.69C297.435 194.257 297.732 193.923 298.105 193.69C298.478 193.457 298.895 193.34 299.355 193.34ZM301.075 196.21C301.075 195.783 300.955 195.447 300.715 195.2C300.482 194.953 300.195 194.83 299.855 194.83C299.515 194.83 299.225 194.953 298.985 195.2C298.752 195.44 298.635 195.773 298.635 196.2C298.635 196.627 298.752 196.967 298.985 197.22C299.225 197.467 299.515 197.59 299.855 197.59C300.195 197.59 300.482 197.467 300.715 197.22C300.955 196.973 301.075 196.637 301.075 196.21ZM309.482 196.12C309.482 196.28 309.472 196.447 309.452 196.62H305.582C305.609 196.967 305.719 197.233 305.912 197.42C306.112 197.6 306.355 197.69 306.642 197.69C307.069 197.69 307.365 197.51 307.532 197.15H309.352C309.259 197.517 309.089 197.847 308.842 198.14C308.602 198.433 308.299 198.663 307.932 198.83C307.565 198.997 307.155 199.08 306.702 199.08C306.155 199.08 305.669 198.963 305.242 198.73C304.815 198.497 304.482 198.163 304.242 197.73C304.002 197.297 303.882 196.79 303.882 196.21C303.882 195.63 303.999 195.123 304.232 194.69C304.472 194.257 304.805 193.923 305.232 193.69C305.659 193.457 306.149 193.34 306.702 193.34C307.242 193.34 307.722 193.453 308.142 193.68C308.562 193.907 308.889 194.23 309.122 194.65C309.362 195.07 309.482 195.56 309.482 196.12ZM307.732 195.67C307.732 195.377 307.632 195.143 307.432 194.97C307.232 194.797 306.982 194.71 306.682 194.71C306.395 194.71 306.152 194.793 305.952 194.96C305.759 195.127 305.639 195.363 305.592 195.67H307.732ZM314.613 194.21C314.78 193.95 315.01 193.74 315.303 193.58C315.597 193.42 315.94 193.34 316.333 193.34C316.793 193.34 317.21 193.457 317.583 193.69C317.957 193.923 318.25 194.257 318.463 194.69C318.683 195.123 318.793 195.627 318.793 196.2C318.793 196.773 318.683 197.28 318.463 197.72C318.25 198.153 317.957 198.49 317.583 198.73C317.21 198.963 316.793 199.08 316.333 199.08C315.947 199.08 315.603 199 315.303 198.84C315.01 198.68 314.78 198.473 314.613 198.22V201.66H312.903V193.42H314.613V194.21ZM317.053 196.2C317.053 195.773 316.933 195.44 316.693 195.2C316.46 194.953 316.17 194.83 315.823 194.83C315.483 194.83 315.193 194.953 314.953 195.2C314.72 195.447 314.603 195.783 314.603 196.21C314.603 196.637 314.72 196.973 314.953 197.22C315.193 197.467 315.483 197.59 315.823 197.59C316.163 197.59 316.453 197.467 316.693 197.22C316.933 196.967 317.053 196.627 317.053 196.2ZM319.55 196.2C319.55 195.627 319.657 195.123 319.87 194.69C320.09 194.257 320.387 193.923 320.76 193.69C321.134 193.457 321.55 193.34 322.01 193.34C322.404 193.34 322.747 193.42 323.04 193.58C323.34 193.74 323.57 193.95 323.73 194.21V193.42H325.44V199H323.73V198.21C323.564 198.47 323.33 198.68 323.03 198.84C322.737 199 322.394 199.08 322 199.08C321.547 199.08 321.134 198.963 320.76 198.73C320.387 198.49 320.09 198.153 319.87 197.72C319.657 197.28 319.55 196.773 319.55 196.2ZM323.73 196.21C323.73 195.783 323.61 195.447 323.37 195.2C323.137 194.953 322.85 194.83 322.51 194.83C322.17 194.83 321.88 194.953 321.64 195.2C321.407 195.44 321.29 195.773 321.29 196.2C321.29 196.627 321.407 196.967 321.64 197.22C321.88 197.467 322.17 197.59 322.51 197.59C322.85 197.59 323.137 197.467 323.37 197.22C323.61 196.973 323.73 196.637 323.73 196.21ZM329.147 199.08C328.661 199.08 328.227 198.997 327.847 198.83C327.467 198.663 327.167 198.437 326.947 198.15C326.727 197.857 326.604 197.53 326.577 197.17H328.267C328.287 197.363 328.377 197.52 328.537 197.64C328.697 197.76 328.894 197.82 329.127 197.82C329.341 197.82 329.504 197.78 329.617 197.7C329.737 197.613 329.797 197.503 329.797 197.37C329.797 197.21 329.714 197.093 329.547 197.02C329.381 196.94 329.111 196.853 328.737 196.76C328.337 196.667 328.004 196.57 327.737 196.47C327.471 196.363 327.241 196.2 327.047 195.98C326.854 195.753 326.757 195.45 326.757 195.07C326.757 194.75 326.844 194.46 327.017 194.2C327.197 193.933 327.457 193.723 327.797 193.57C328.144 193.417 328.554 193.34 329.027 193.34C329.727 193.34 330.277 193.513 330.677 193.86C331.084 194.207 331.317 194.667 331.377 195.24H329.797C329.771 195.047 329.684 194.893 329.537 194.78C329.397 194.667 329.211 194.61 328.977 194.61C328.777 194.61 328.624 194.65 328.517 194.73C328.411 194.803 328.357 194.907 328.357 195.04C328.357 195.2 328.441 195.32 328.607 195.4C328.781 195.48 329.047 195.56 329.407 195.64C329.821 195.747 330.157 195.853 330.417 195.96C330.677 196.06 330.904 196.227 331.097 196.46C331.297 196.687 331.401 196.993 331.407 197.38C331.407 197.707 331.314 198 331.127 198.26C330.947 198.513 330.684 198.713 330.337 198.86C329.997 199.007 329.601 199.08 329.147 199.08ZM334.924 199.08C334.437 199.08 334.004 198.997 333.624 198.83C333.244 198.663 332.944 198.437 332.724 198.15C332.504 197.857 332.38 197.53 332.354 197.17H334.044C334.064 197.363 334.154 197.52 334.314 197.64C334.474 197.76 334.67 197.82 334.904 197.82C335.117 197.82 335.28 197.78 335.394 197.7C335.514 197.613 335.574 197.503 335.574 197.37C335.574 197.21 335.49 197.093 335.324 197.02C335.157 196.94 334.887 196.853 334.514 196.76C334.114 196.667 333.78 196.57 333.514 196.47C333.247 196.363 333.017 196.2 332.824 195.98C332.63 195.753 332.534 195.45 332.534 195.07C332.534 194.75 332.62 194.46 332.794 194.2C332.974 193.933 333.234 193.723 333.574 193.57C333.92 193.417 334.33 193.34 334.804 193.34C335.504 193.34 336.054 193.513 336.454 193.86C336.86 194.207 337.094 194.667 337.154 195.24H335.574C335.547 195.047 335.46 194.893 335.314 194.78C335.174 194.667 334.987 194.61 334.754 194.61C334.554 194.61 334.4 194.65 334.294 194.73C334.187 194.803 334.134 194.907 334.134 195.04C334.134 195.2 334.217 195.32 334.384 195.4C334.557 195.48 334.824 195.56 335.184 195.64C335.597 195.747 335.934 195.853 336.194 195.96C336.454 196.06 336.68 196.227 336.874 196.46C337.074 196.687 337.177 196.993 337.184 197.38C337.184 197.707 337.09 198 336.904 198.26C336.724 198.513 336.46 198.713 336.114 198.86C335.774 199.007 335.377 199.08 334.924 199.08ZM346.44 193.42L344.93 199H343.04L342.16 195.38L341.25 199H339.37L337.85 193.42H339.56L340.35 197.41L341.29 193.42H343.1L344.05 197.39L344.83 193.42H346.44ZM349.832 199.08C349.285 199.08 348.792 198.963 348.352 198.73C347.919 198.497 347.575 198.163 347.322 197.73C347.075 197.297 346.952 196.79 346.952 196.21C346.952 195.637 347.079 195.133 347.332 194.7C347.585 194.26 347.932 193.923 348.372 193.69C348.812 193.457 349.305 193.34 349.852 193.34C350.399 193.34 350.892 193.457 351.332 193.69C351.772 193.923 352.119 194.26 352.372 194.7C352.625 195.133 352.752 195.637 352.752 196.21C352.752 196.783 352.622 197.29 352.362 197.73C352.109 198.163 351.759 198.497 351.312 198.73C350.872 198.963 350.379 199.08 349.832 199.08ZM349.832 197.6C350.159 197.6 350.435 197.48 350.662 197.24C350.895 197 351.012 196.657 351.012 196.21C351.012 195.763 350.899 195.42 350.672 195.18C350.452 194.94 350.179 194.82 349.852 194.82C349.519 194.82 349.242 194.94 349.022 195.18C348.802 195.413 348.692 195.757 348.692 196.21C348.692 196.657 348.799 197 349.012 197.24C349.232 197.48 349.505 197.6 349.832 197.6ZM355.569 194.35C355.769 194.043 356.019 193.803 356.319 193.63C356.619 193.45 356.952 193.36 357.319 193.36V195.17H356.849C356.422 195.17 356.102 195.263 355.889 195.45C355.676 195.63 355.569 195.95 355.569 196.41V199H353.859V193.42H355.569V194.35ZM357.996 196.2C357.996 195.627 358.103 195.123 358.316 194.69C358.536 194.257 358.833 193.923 359.206 193.69C359.58 193.457 359.996 193.34 360.456 193.34C360.823 193.34 361.156 193.417 361.456 193.57C361.763 193.723 362.003 193.93 362.176 194.19V191.6H363.886V199H362.176V198.2C362.016 198.467 361.786 198.68 361.486 198.84C361.193 199 360.85 199.08 360.456 199.08C359.996 199.08 359.58 198.963 359.206 198.73C358.833 198.49 358.536 198.153 358.316 197.72C358.103 197.28 357.996 196.773 357.996 196.2ZM362.176 196.21C362.176 195.783 362.056 195.447 361.816 195.2C361.583 194.953 361.296 194.83 360.956 194.83C360.616 194.83 360.326 194.953 360.086 195.2C359.853 195.44 359.736 195.773 359.736 196.2C359.736 196.627 359.853 196.967 360.086 197.22C360.326 197.467 360.616 197.59 360.956 197.59C361.296 197.59 361.583 197.467 361.816 197.22C362.056 196.973 362.176 196.637 362.176 196.21Z" fill="#2E2E2F"/>
<rect x="260" y="220" width="116" height="18" fill="#D9D9D9"/>
<rect x="259" y="248" width="116" height="18" fill="#D9D9D9"/>
</svg>
