<svg width="35" height="34" viewBox="0 0 35 34" fill="none" xmlns="http://www.w3.org/2000/svg">
<g id="&#240;&#159;&#166;&#134; icon &#34;profile circle&#34;">
<g id="Group">
<path id="Vector" d="M0.499999 17C0.499999 7.633 8.133 0 17.5 0C26.867 0 34.5 7.633 34.5 17C34.5 21.93 32.375 26.367 29.009 29.478C29.009 29.495 29.009 29.495 29.026 29.512C28.856 29.682 28.652 29.818 28.482 29.971C28.38 30.056 28.295 30.141 28.193 30.209C27.887 30.464 27.547 30.702 27.224 30.94C27.105 31.025 27.003 31.093 26.884 31.178C26.561 31.399 26.221 31.603 25.864 31.79C25.745 31.858 25.609 31.943 25.49 32.011C25.15 32.198 24.793 32.368 24.419 32.521C24.283 32.589 24.147 32.657 24.011 32.708C23.637 32.861 23.263 32.997 22.889 33.116C22.753 33.167 22.617 33.218 22.481 33.252C22.073 33.371 21.665 33.473 21.257 33.575C21.138 33.609 21.019 33.643 20.883 33.66C20.407 33.762 19.931 33.83 19.438 33.881C19.37 33.881 19.302 33.898 19.234 33.915C18.656 33.966 18.078 34 17.5 34C16.922 34 16.344 33.966 15.783 33.915C15.715 33.915 15.647 33.898 15.579 33.881C15.086 33.83 14.61 33.762 14.134 33.66C14.015 33.643 13.896 33.592 13.76 33.575C13.352 33.473 12.927 33.388 12.536 33.252C12.4 33.201 12.264 33.15 12.128 33.116C11.754 32.98 11.363 32.861 11.006 32.708C10.87 32.657 10.734 32.589 10.598 32.521C10.241 32.368 9.884 32.198 9.527 32.011C9.391 31.943 9.272 31.858 9.153 31.79C8.813 31.586 8.473 31.399 8.133 31.178C8.014 31.11 7.912 31.025 7.793 30.94C7.453 30.702 7.13 30.464 6.824 30.209C6.722 30.124 6.637 30.039 6.535 29.971C6.348 29.818 6.161 29.665 5.991 29.512C5.991 29.495 5.991 29.495 6.008 29.478C2.625 26.367 0.499999 21.93 0.499999 17ZM9.102 25.449C13.709 22.355 21.257 22.355 25.898 25.449C26.646 25.942 27.258 26.52 27.768 27.149C30.352 24.531 31.95 20.944 31.95 17C31.95 9.027 25.473 2.55 17.5 2.55C9.527 2.55 3.05 9.027 3.05 17C3.05 20.944 4.648 24.531 7.232 27.149C7.725 26.52 8.354 25.942 9.102 25.449Z" fill="white"/>
<path id="Vector_2" d="M17.5 8.38046C21.019 8.38046 23.875 11.2365 23.875 14.7555C23.875 18.2065 21.172 21.0115 17.585 21.1135H17.432H17.313H17.279C13.845 20.9945 11.142 18.2065 11.125 14.7555C11.125 11.2365 13.981 8.38046 17.5 8.38046Z" fill="white"/>
</g>
</g>
</svg>
