<svg width="194" height="129" viewBox="0 0 194 129" fill="none" xmlns="http://www.w3.org/2000/svg">
<rect width="194" height="129" fill="#818181"/>
<g id="Desktop - 1" clip-path="url(#clip0_0_1)">
<rect width="1440" height="812" transform="translate(-679 -256)" fill="white"/>
<rect id="Rectangle 7" x="-591" y="-168" width="1352" height="724" fill="#F5F5F5"/>
<rect id="Rectangle 12" x="-93.5" y="-43.5" width="358" height="486" rx="20.5" fill="white" stroke="#ABABAB"/>
<g id="Group 13">
<path id="Vector" d="M30.8246 13.6546C58.4559 -24.708 90.2517 -19.5032 100.667 11.3313C111.082 42.1658 155.097 19.742 179.825 52.8533C184.178 58.6916 187.017 65.292 188.125 72.1506C193.25 102.647 166.126 128.698 130.18 128.523L78.3268 128.269C44.2672 128.101 15.1657 104.368 13.829 75.3645C12.8615 54.7685 17.3216 32.3967 30.8246 13.6546Z" fill="#E3EBFF"/>
<g id="Confirmed attendance-bro 1" clip-path="url(#clip1_0_1)">
<g id="freepik--Plant--inject-20">
<path id="Vector_2" d="M48.5061 94.4896C48.5087 94.4846 48.5101 94.4792 48.5104 94.4736C48.5107 94.468 48.5097 94.4624 48.5075 94.4572C48.5054 94.452 48.5022 94.4474 48.4981 94.4436C48.4939 94.4398 48.489 94.437 48.4837 94.4353C48.4787 94.4332 48.4733 94.4321 48.4678 94.4321C48.4623 94.4321 48.4569 94.4331 48.4519 94.4352C48.4469 94.4373 48.4423 94.4403 48.4384 94.4442C48.4345 94.448 48.4315 94.4526 48.4294 94.4576C47.2138 97.365 46.2514 100.372 45.553 103.445C44.8523 106.518 44.3252 109.628 43.9742 112.761L43.7473 115.116C43.7153 115.506 43.6706 115.899 43.6418 116.292L43.5779 117.475C43.546 118.264 43.498 119.05 43.4756 119.84L43.4948 122.205L43.5204 123.387C43.5396 123.784 43.5683 124.177 43.5939 124.57C43.6546 125.356 43.7026 126.142 43.7729 126.928C43.9263 128.498 44.1596 130.057 44.4121 131.611C44.4142 131.62 44.4194 131.629 44.4269 131.635C44.4344 131.641 44.4438 131.645 44.4536 131.646C44.4646 131.646 44.4752 131.641 44.483 131.633C44.4908 131.626 44.4952 131.615 44.4952 131.604C44.4952 130.815 44.4568 130.032 44.4408 129.246C44.4248 128.459 44.3481 127.683 44.3609 126.896C44.3737 126.11 44.3609 125.33 44.3354 124.547L44.313 123.375L44.3354 122.202V119.856L44.3993 117.513L44.4216 116.34C44.4216 115.95 44.4664 115.56 44.4888 115.171L44.6326 112.828C44.9005 109.708 45.3433 106.605 45.9589 103.534C46.546 100.452 47.3982 97.4255 48.5061 94.4896Z" fill="#ABABAB"/>
<path id="Vector_3" d="M48.8416 106.752C48.8447 106.742 48.8438 106.731 48.839 106.722C48.8342 106.712 48.826 106.705 48.816 106.701C48.811 106.699 48.8056 106.698 48.8002 106.699C48.7948 106.699 48.7896 106.7 48.7847 106.703C48.7799 106.705 48.7756 106.708 48.7722 106.713C48.7688 106.717 48.7663 106.722 48.7649 106.727C48.0989 108.682 47.5409 110.671 47.0934 112.687C46.6517 114.709 46.3231 116.753 46.1091 118.811C45.9013 120.863 45.6712 122.914 45.6424 124.979C45.5914 127.044 45.665 129.11 45.863 131.166C45.8641 131.176 45.8681 131.184 45.8744 131.191C45.8807 131.198 45.889 131.203 45.8981 131.205C45.9095 131.206 45.9208 131.202 45.9297 131.195C45.9386 131.188 45.9445 131.178 45.9461 131.166C46.1826 129.111 46.3296 127.063 46.4702 125.014C46.6108 122.965 46.6364 120.914 46.7706 118.865C46.8998 116.82 47.1442 114.784 47.5025 112.767C47.837 110.739 48.284 108.731 48.8416 106.752Z" fill="#ABABAB"/>
<path id="Vector_4" d="M55.6393 111.067C55.6316 111.06 55.6213 111.055 55.6106 111.055C55.5999 111.055 55.5896 111.06 55.5818 111.067C53.8819 112.159 52.3508 113.495 51.0372 115.03C50.377 115.802 49.7826 116.629 49.2602 117.5L48.8959 118.191L48.6083 118.907C48.5123 119.144 48.4291 119.386 48.359 119.632C48.2855 119.875 48.2056 120.118 48.1385 120.364C47.6166 122.325 47.3017 124.336 47.1989 126.363C47.0975 128.378 47.1723 130.398 47.4226 132.4C47.424 132.409 47.4286 132.418 47.4356 132.424C47.4425 132.431 47.4515 132.434 47.4609 132.435C47.4665 132.436 47.4722 132.436 47.4776 132.434C47.483 132.433 47.488 132.43 47.4923 132.426C47.4966 132.423 47.5 132.418 47.5023 132.413C47.5046 132.408 47.5057 132.402 47.5057 132.397L48.0234 126.42C48.2311 124.442 48.359 122.454 48.7809 120.524C48.8352 120.284 48.9055 120.051 48.9662 119.811C49.0224 119.573 49.0917 119.338 49.174 119.108L49.4168 118.414L49.7364 117.775C50.2092 116.907 50.7545 116.081 51.3664 115.305C52.5783 113.719 54.0157 112.319 55.633 111.15C55.6384 111.151 55.6439 111.15 55.6491 111.148C55.6543 111.146 55.6591 111.144 55.6633 111.14C55.6674 111.137 55.6708 111.132 55.6733 111.127C55.6758 111.123 55.6773 111.117 55.6777 111.112C55.6781 111.106 55.6775 111.101 55.6758 111.096C55.6741 111.09 55.6714 111.086 55.6678 111.081C55.6642 111.077 55.6599 111.074 55.655 111.071C55.6501 111.069 55.6448 111.067 55.6393 111.067Z" fill="#ABABAB"/>
<path id="Vector_5" d="M52.3507 118.76C51.4239 119.357 50.8039 120.297 50.283 121.243C49.7857 122.212 49.3976 123.234 49.126 124.289C49.0429 124.547 48.979 124.813 48.9215 125.078L48.7361 125.874C48.6363 126.402 48.5691 126.936 48.5348 127.472C48.5348 128.015 48.5124 128.555 48.5348 129.095C48.5764 129.632 48.6479 130.165 48.7489 130.693C48.7504 130.702 48.7542 130.709 48.7598 130.715C48.7655 130.722 48.7728 130.726 48.7809 130.728C48.7866 130.73 48.7925 130.73 48.7983 130.729C48.804 130.728 48.8095 130.726 48.8143 130.722C48.8192 130.719 48.8232 130.715 48.8263 130.71C48.8293 130.705 48.8313 130.699 48.832 130.693C48.9573 130.166 49.0533 129.633 49.1196 129.095C49.2027 128.568 49.2826 128.047 49.3466 127.523C49.4105 126.999 49.4936 126.481 49.5319 125.957C49.5703 125.433 49.6438 124.909 49.7588 124.397C49.9409 123.362 50.2379 122.35 50.6441 121.38C51.011 120.392 51.6055 119.504 52.3795 118.788C52.3855 118.781 52.3887 118.771 52.3887 118.761C52.3887 118.751 52.3855 118.742 52.3795 118.734C52.373 118.736 52.367 118.739 52.362 118.743C52.357 118.748 52.3531 118.753 52.3507 118.76Z" fill="#ABABAB"/>
<path id="Vector_6" d="M42.8173 124.736C42.5935 122.08 42.1557 119.453 41.7402 116.829C41.3248 114.205 40.8677 111.581 40.3883 108.97C39.909 106.359 39.3816 103.739 38.8095 101.156C38.8066 101.146 38.8002 101.137 38.7914 101.132C38.7826 101.126 38.7721 101.123 38.7616 101.124C38.7561 101.125 38.7509 101.127 38.7461 101.13C38.7413 101.133 38.7372 101.136 38.7339 101.141C38.7307 101.145 38.7283 101.15 38.727 101.156C38.7257 101.161 38.7255 101.167 38.7265 101.172C39.1803 103.79 39.5926 106.414 39.9793 109.038C40.366 111.661 40.7527 114.288 41.0851 116.922C41.4174 119.555 41.6635 122.195 41.9927 124.822L42.9515 132.723C42.9523 132.732 42.9567 132.741 42.9638 132.748C42.9709 132.754 42.9802 132.758 42.9898 132.758C42.9953 132.758 43.0008 132.758 43.006 132.756C43.0112 132.754 43.016 132.752 43.0202 132.748C43.0244 132.744 43.0278 132.74 43.0302 132.735C43.0327 132.73 43.0342 132.725 43.0346 132.719C43.0634 132.055 43.0634 131.387 43.0793 130.722C43.0953 130.057 43.0538 129.389 43.041 128.725C43.0314 127.389 42.9163 126.062 42.8173 124.736Z" fill="#ABABAB"/>
<path id="Vector_7" d="M41.2257 124.698C41.0819 123.646 40.9061 122.601 40.6888 121.559L40.3181 120.009C40.1934 119.491 40.0784 118.974 39.9282 118.466C39.3982 116.408 38.7199 114.391 37.8987 112.432L37.5792 111.7L37.2244 110.987C37.0007 110.504 36.729 110.047 36.4702 109.581C35.9478 108.653 35.3028 107.799 34.5526 107.043C34.549 107.04 34.5448 107.037 34.5401 107.035C34.5355 107.033 34.5305 107.032 34.5254 107.032C34.5204 107.032 34.5154 107.033 34.5107 107.035C34.5061 107.037 34.5018 107.04 34.4983 107.043C34.4908 107.051 34.4867 107.061 34.4867 107.072C34.4867 107.083 34.4908 107.093 34.4983 107.101C35.1959 107.883 35.785 108.756 36.2496 109.696C36.4797 110.169 36.7226 110.632 36.9208 111.121L37.2404 111.844L37.5152 112.579C38.2506 114.545 38.8413 116.563 39.2826 118.616C39.5255 119.638 39.6853 120.677 39.8834 121.706L40.1327 123.263C40.2222 123.78 40.3341 124.295 40.4044 124.816C40.5706 125.851 40.7623 126.887 40.9445 127.926C41.1267 128.964 41.296 130.006 41.5134 131.045C41.5155 131.054 41.5207 131.063 41.5282 131.069C41.5357 131.076 41.5451 131.079 41.5549 131.08C41.5659 131.08 41.5765 131.076 41.5843 131.068C41.5921 131.06 41.5965 131.049 41.5965 131.038C41.5965 129.977 41.5773 128.916 41.5229 127.858C41.4686 126.801 41.3344 125.752 41.2257 124.698Z" fill="#ABABAB"/>
<path id="Vector_8" d="M39.03 124.832C38.5378 123.438 37.969 122.077 37.349 120.741C36.7208 119.407 36.0121 118.112 35.2268 116.864C35.219 116.858 35.2095 116.855 35.1997 116.855C35.1899 116.855 35.1803 116.858 35.1725 116.864C35.1658 116.872 35.162 116.883 35.162 116.893C35.162 116.904 35.1658 116.914 35.1725 116.922C35.854 118.216 36.457 119.55 36.9782 120.917C37.5151 122.275 38.0009 123.653 38.41 125.052C38.8191 126.452 39.1195 127.874 39.4934 129.277C39.8674 130.68 40.1997 132.099 40.6312 133.518C40.6339 133.528 40.6393 133.535 40.6468 133.541C40.6543 133.547 40.6633 133.55 40.6727 133.55C40.6838 133.55 40.6943 133.546 40.7021 133.538C40.7099 133.53 40.7143 133.52 40.7143 133.509C40.7308 132.027 40.5926 130.548 40.302 129.095C39.9928 127.642 39.5675 126.217 39.03 124.832Z" fill="#ABABAB"/>
<path id="Vector_9" d="M38.9374 129.469C38.67 128.603 38.2816 127.779 37.7836 127.021C37.3132 126.245 36.7414 125.534 36.0834 124.909C35.7466 124.606 35.3841 124.333 35 124.094C34.617 123.851 34.1987 123.668 33.76 123.554C33.7506 123.55 33.7404 123.551 33.7315 123.555C33.7226 123.559 33.7156 123.567 33.712 123.576C33.7094 123.581 33.7079 123.586 33.7077 123.592C33.7074 123.598 33.7084 123.603 33.7105 123.608C33.7127 123.614 33.7159 123.618 33.72 123.622C33.7241 123.626 33.729 123.629 33.7344 123.63C34.5177 124.007 35.2117 124.546 35.7702 125.212C36.3365 125.861 36.8137 126.582 37.1892 127.357C37.5919 128.121 37.7996 128.955 38.148 129.747C38.3046 130.15 38.4676 130.556 38.637 130.959C38.7872 131.378 38.9655 131.787 39.1707 132.183C39.1738 132.189 39.1787 132.195 39.185 132.199C39.1912 132.203 39.1984 132.205 39.2058 132.205C39.2114 132.206 39.2171 132.206 39.2225 132.204C39.2279 132.203 39.2329 132.2 39.2372 132.196C39.2415 132.193 39.2449 132.188 39.2472 132.183C39.2495 132.178 39.2507 132.172 39.2506 132.167C39.2656 131.713 39.2485 131.259 39.1995 130.808C39.1387 130.355 39.0428 129.91 38.9374 129.469Z" fill="#ABABAB"/>
<path id="Vector_10" d="M39.1004 104.956C39.1004 104.956 34.7539 103.953 33.7504 99.2676C32.7468 94.5823 35.9875 96.5926 33.0792 89.2323C30.1709 81.872 30.842 80.2006 31.8552 78.0817C32.8683 75.9627 33.4148 76.6339 34.3065 79.4208C35.1981 82.2076 38.4324 86.5573 39.6597 94.6974C40.8869 102.837 39.1004 104.956 39.1004 104.956Z" fill="#421CDD"/>
<path id="Vector_11" d="M47.691 97.0272C47.691 97.0272 44.7923 96.0237 44.6805 90.5586C44.5686 85.0935 46.7994 86.2089 47.1349 79.4079C47.4705 72.607 47.9148 67.8099 49.142 67.698C50.3692 67.5861 53.6003 71.0442 54.7157 78.6281C55.8311 86.2121 53.268 91.2265 51.0372 93.4573C48.8064 95.6881 47.691 97.0272 47.691 97.0272Z" fill="#421CDD"/>
<path id="Vector_12" d="M37.5408 111.534C37.5408 111.534 36.8728 107.519 35.5465 105.624C34.2202 103.729 31.2959 102.058 29.4007 98.3758C27.5055 94.6941 25.3866 92.914 25.4984 98.1521C25.6103 103.39 27.9497 106.072 30.8517 107.855C33.7536 109.638 37.5408 111.534 37.5408 111.534Z" fill="#421CDD"/>
<path id="Vector_13" d="M36.3135 118.44C36.3135 118.44 33.6289 113.327 29.7362 109.527C25.8436 105.727 22.7052 103.841 23.8269 105.736C24.9487 107.631 26.2782 107.519 28.1734 110.866C30.0686 114.212 29.5125 116.663 32.1875 118.558C34.8625 120.453 36.3135 118.44 36.3135 118.44Z" fill="#421CDD"/>
<path id="Vector_14" d="M35.9811 125.027C35.8692 124.691 35.7573 122.24 31.967 120.233C28.1766 118.226 24.6163 119.006 25.0509 120.009C25.4856 121.013 27.841 122.684 30.1644 123.688C32.4879 124.691 35.9811 125.027 35.9811 125.027Z" fill="#421CDD"/>
<path id="Vector_15" d="M47.4642 111.757C47.4642 111.757 45.7927 109.638 46.6844 105.18C47.576 100.722 49.5831 101.834 51.8138 99.4913C54.0446 97.1487 53.5972 96.8163 55.828 94.3778C58.0587 91.9393 60.0658 90.5874 60.9415 91.5909C61.8172 92.5944 60.494 95.7169 59.1581 97.5002C57.8222 99.2835 55.7001 100.178 54.6838 102.406C53.6675 104.634 54.1277 108.207 51.5614 109.878C48.995 111.55 47.4642 111.757 47.4642 111.757Z" fill="#421CDD"/>
<path id="Vector_16" d="M53.0411 112.985C53.0411 112.985 57.0552 108.411 59.954 105.068C62.8527 101.725 63.9681 99.1589 64.0799 101.386C64.1918 103.614 65.0835 105.401 62.7408 108.302C60.3982 111.204 53.0411 112.985 53.0411 112.985Z" fill="#421CDD"/>
<path id="Vector_17" d="M50.9222 120.358C50.9222 120.358 50.8103 118.571 57.1671 114.445C63.5238 110.319 66.1988 109.539 65.5277 111.214C64.8565 112.889 62.0728 114.544 59.0623 117.555C56.0517 120.565 50.9222 120.358 50.9222 120.358Z" fill="#421CDD"/>
<path id="Vector_18" d="M39.3816 104.48C39.3816 104.48 37.8923 96.4903 36.3295 90.7951C34.7666 85.1 33.7727 81.6516 33.7727 81.6516" stroke="#ABABAB" stroke-linecap="round" stroke-linejoin="round"/>
<path id="Vector_19" d="M47.4323 97.1231C47.4323 97.1231 50.1424 88.4525 51.0341 83.2111C51.9258 77.9698 50.9222 74.0675 50.4748 71.7281" stroke="#ABABAB" stroke-linecap="round" stroke-linejoin="round"/>
<path id="Vector_20" d="M37.1892 111.367C35.9885 109.302 34.6135 107.343 33.0792 105.512C30.628 102.614 28.7328 101.054 27.6174 98.264" stroke="#ABABAB" stroke-linecap="round" stroke-linejoin="round"/>
<path id="Vector_21" d="M47.4642 111.757C47.4642 111.757 48.3558 106.404 50.4748 103.617C52.5937 100.83 56.8315 96.4807 58.503 93.6938" stroke="#ABABAB" stroke-linecap="round" stroke-linejoin="round"/>
<path id="Vector_22" d="M35.7191 124.905C35.7191 124.905 31.967 122.464 29.2888 121.125" stroke="#ABABAB" stroke-linecap="round" stroke-linejoin="round"/>
<path id="Vector_23" d="M46.63 148.555H41.721C41.2961 148.556 40.8807 148.43 40.527 148.195C40.1733 147.959 39.8971 147.624 39.7332 147.232C38.1352 143.397 33.8462 132.298 36.4254 129.153C38.883 126.155 49.468 126.155 51.9257 129.153C54.5048 132.298 50.2222 143.391 48.6179 147.232C48.454 147.624 48.1778 147.959 47.8241 148.195C47.4704 148.43 47.0549 148.556 46.63 148.555Z" fill="#ABABAB"/>
</g>
<g id="freepik--Device--inject-20">
<path id="Vector_24" d="M120.093 17.7707V113.319C120.095 113.944 119.973 114.563 119.734 115.141C119.496 115.718 119.146 116.243 118.705 116.685C118.264 117.127 117.739 117.478 117.162 117.718C116.585 117.957 115.967 118.08 115.342 118.08H74.0554C73.43 118.081 72.8105 117.959 72.2325 117.72C71.6545 117.481 71.1294 117.131 70.6873 116.688C70.2452 116.246 69.8949 115.721 69.6564 115.142C69.4179 114.564 69.2959 113.945 69.2976 113.319V17.7707C69.2968 17.1462 69.4192 16.5277 69.6579 15.9506C69.8966 15.3736 70.2469 14.8493 70.6886 14.4079C71.1303 13.9664 71.6548 13.6165 72.232 13.3782C72.8092 13.1399 73.4278 13.0178 74.0523 13.019H91.7736V13.0712C92.2154 14.6632 93.2338 15.697 94.3596 15.697H95.0069C96.1357 15.697 97.1542 14.6632 97.5928 13.0712L97.6112 13.019H115.342C115.966 13.019 116.584 13.1419 117.16 13.3807C117.737 13.6195 118.26 13.9695 118.702 14.4108C119.143 14.852 119.493 15.3758 119.732 15.9523C119.971 16.5288 120.093 17.1467 120.093 17.7707Z" fill="white" stroke="#263238" stroke-width="0.5" stroke-linecap="round" stroke-linejoin="round"/>
<path id="Vector_25" d="M120.09 22.2125V17.7707C120.091 17.1468 119.968 16.529 119.73 15.9525C119.491 15.3761 119.142 14.8522 118.701 14.4109C118.26 13.9697 117.736 13.6196 117.16 13.3808C116.583 13.1419 115.966 13.019 115.342 13.019H97.6266L97.6081 13.0712C97.1664 14.6632 96.1511 15.697 95.0222 15.697H94.3749C93.2491 15.697 92.2276 14.6632 91.789 13.0712V13.019H74.0523C73.4278 13.0178 72.8092 13.1399 72.232 13.3782C71.6548 13.6165 71.1303 13.9664 70.6886 14.4079C70.2468 14.8493 69.8966 15.3736 69.6579 15.9506C69.4192 16.5277 69.2967 17.1462 69.2976 17.7707V22.2187L120.09 22.2125Z" fill="#DBDBDB" stroke="#263238" stroke-width="0.5" stroke-linecap="round" stroke-linejoin="round"/>
<path id="Vector_26" d="M69.2976 112.574V113.319C69.2959 113.945 69.4179 114.564 69.6564 115.142C69.8949 115.721 70.2452 116.246 70.6873 116.688C71.1294 117.131 71.6545 117.481 72.2325 117.72C72.8105 117.959 73.43 118.081 74.0554 118.08H115.342C116.601 118.08 117.809 117.58 118.7 116.689C119.59 115.799 120.09 114.591 120.09 113.332V112.586L69.2976 112.574Z" fill="#DBDBDB" stroke="#263238" stroke-width="0.5" stroke-linecap="round" stroke-linejoin="round"/>
<path id="Vector_27" d="M123.321 40.5903V31.0441H122.459V18.8259C122.459 16.8286 121.665 14.9131 120.253 13.5008C118.84 12.0885 116.925 11.295 114.928 11.295H74.4725C72.4752 11.295 70.5597 12.0885 69.1474 13.5008C67.7351 14.9131 66.9417 16.8286 66.9417 18.8259V115.933C66.9417 116.922 67.1364 117.901 67.5149 118.815C67.8934 119.729 68.4481 120.559 69.1474 121.258C69.8467 121.957 70.6769 122.512 71.5906 122.891C72.5043 123.269 73.4836 123.464 74.4725 123.464H114.928C115.917 123.464 116.896 123.269 117.81 122.891C118.723 122.512 119.553 121.957 120.253 121.258C120.952 120.559 121.507 119.729 121.885 118.815C122.264 117.901 122.459 116.922 122.459 115.933V48.7531H123.321V43.0843H122.459V40.5903H123.321ZM120.093 110.531C120.095 111.522 119.902 112.504 119.523 113.421C119.145 114.337 118.59 115.17 117.889 115.871C117.188 116.573 116.356 117.129 115.44 117.508C114.524 117.887 113.542 118.081 112.55 118.08H76.8376C75.8469 118.081 74.8656 117.887 73.95 117.508C73.0345 117.13 72.2026 116.574 71.5022 115.873C70.8017 115.173 70.2465 114.341 69.8681 113.425C69.4898 112.509 69.2959 111.528 69.2975 110.537V20.5468C69.2984 18.5501 70.0921 16.6353 71.5044 15.2237C72.9166 13.812 74.8316 13.019 76.8284 13.019H91.7644V13.0712C92.2062 14.6632 93.2246 15.697 94.3504 15.697H94.9976C96.1265 15.697 97.1449 14.6632 97.5836 13.0712L97.602 13.019H112.55C113.539 13.0186 114.519 13.213 115.432 13.5911C116.346 13.9692 117.177 14.5236 117.876 15.2226C118.576 15.9216 119.131 16.7516 119.51 17.6651C119.889 18.5787 120.084 19.5579 120.084 20.5468L120.093 110.531Z" fill="#421CDD" stroke="#263238" stroke-width="0.5" stroke-linecap="round" stroke-linejoin="round"/>
<path id="Vector_28" d="M114.323 12.3319H75.0768C74.1216 12.3319 73.1758 12.5203 72.2935 12.8863C71.4112 13.2523 70.6097 13.7887 69.935 14.4649C69.2602 15.141 68.7255 15.9436 68.3614 16.8267C67.9972 17.7098 67.8108 18.656 67.8128 19.6112V115.148C67.8128 117.074 68.5781 118.922 69.9404 120.284C71.3027 121.646 73.1503 122.412 75.0768 122.412H114.323C116.25 122.411 118.097 121.645 119.459 120.283C120.821 118.921 121.586 117.074 121.587 115.148V19.6112C121.589 18.6561 121.402 17.7101 121.038 16.8272C120.674 15.9443 120.139 15.1418 119.464 14.4658C118.79 13.7897 117.988 13.2533 117.106 12.8871C116.224 12.521 115.278 12.3323 114.323 12.3319ZM120.093 110.801C120.095 111.756 119.908 112.703 119.544 113.586C119.179 114.469 118.644 115.271 117.969 115.947C117.294 116.623 116.493 117.16 115.61 117.526C114.728 117.892 113.782 118.08 112.826 118.08H76.5707C75.615 118.081 74.6684 117.894 73.7853 117.529C72.9021 117.163 72.0997 116.628 71.424 115.952C70.7483 115.276 70.2127 114.473 69.8478 113.59C69.4829 112.706 69.2959 111.76 69.2975 110.804V20.28C69.2975 19.3257 69.4856 18.3807 69.8511 17.4992C70.2166 16.6176 70.7522 15.8168 71.4275 15.1424C72.1027 14.4681 72.9042 13.9334 73.7862 13.5691C74.6682 13.2047 75.6134 13.0178 76.5677 13.019H91.7736V13.0712C92.2153 14.6632 93.2338 15.697 94.3596 15.697H95.0068C96.1357 15.697 97.1541 14.6632 97.5928 13.0712L97.6112 13.019H112.826C114.753 13.019 116.601 13.7842 117.964 15.1464C119.327 16.5086 120.093 18.3562 120.093 20.283V110.801Z" fill="#263238" stroke="#263238" stroke-width="0.5" stroke-linecap="round" stroke-linejoin="round"/>
<path id="Vector_29" d="M95.2522 13.3779C95.2516 13.2379 95.2096 13.1012 95.1313 12.9851C95.0531 12.869 94.9422 12.7786 94.8127 12.7255C94.6831 12.6723 94.5408 12.6587 94.4035 12.6864C94.2663 12.7141 94.1403 12.7818 94.0415 12.881C93.9427 12.9802 93.8755 13.1065 93.8484 13.2439C93.8213 13.3813 93.8355 13.5236 93.8893 13.6529C93.943 13.7822 94.0338 13.8927 94.1503 13.9704C94.2667 14.0481 94.4036 14.0896 94.5436 14.0896C94.6371 14.09 94.7296 14.0719 94.816 14.0362C94.9024 14.0006 94.9808 13.9481 95.0467 13.8819C95.1126 13.8157 95.1647 13.737 95.2 13.6505C95.2353 13.564 95.253 13.4714 95.2522 13.3779Z" fill="white"/>
<path id="Vector_30" d="M73.8222 16.0866C73.8222 16.8044 73.0185 17.0621 73.0154 17.6204V17.6603H73.7946V17.8995H72.7547V17.6971C72.7547 16.9302 73.5553 16.7768 73.5553 16.1142C73.5553 15.8688 73.4756 15.74 73.2793 15.74C73.0829 15.74 73.0001 15.878 73.0001 16.0897V16.2983H72.7547V16.105C72.7547 15.743 72.9203 15.4915 73.2854 15.4915C73.6504 15.4915 73.8222 15.7246 73.8222 16.0866Z" fill="#263238"/>
<path id="Vector_31" d="M75.1259 16.0835V16.1449C75.1375 16.2465 75.1157 16.3491 75.0636 16.4372C75.0116 16.5252 74.9322 16.5938 74.8375 16.6326C74.9327 16.6725 75.0123 16.7423 75.0643 16.8313C75.1163 16.9204 75.1379 17.024 75.1259 17.1265V17.3075C75.1259 17.6694 74.9572 17.921 74.5891 17.921C74.221 17.921 74.0584 17.6817 74.0584 17.3075V17.1572H74.3069V17.3381C74.3069 17.5498 74.3927 17.6786 74.5829 17.6786C74.7731 17.6786 74.8621 17.5529 74.8621 17.3136V17.1296C74.8621 16.8964 74.7639 16.786 74.5553 16.7768H74.4142V16.5436H74.5707C74.6117 16.5441 74.6524 16.5356 74.6899 16.5188C74.7274 16.5021 74.7608 16.4774 74.7879 16.4465C74.815 16.4157 74.8351 16.3793 74.8468 16.3399C74.8586 16.3006 74.8617 16.2592 74.8559 16.2185V16.1111C74.8559 15.8657 74.7701 15.7399 74.5768 15.7399C74.3835 15.7399 74.3007 15.8718 74.3007 16.0866V16.2093H74.0522V16.0835C74.0522 15.7215 74.221 15.4884 74.5829 15.4884C74.9449 15.4884 75.1259 15.7215 75.1259 16.0835Z" fill="#263238"/>
<path id="Vector_32" d="M75.632 16.2645V16.5927H75.3774V16.2645H75.632ZM75.632 17.5559V17.8842H75.3774V17.5559H75.632Z" fill="#263238"/>
<path id="Vector_33" d="M76.1689 16.4762C76.2034 16.4136 76.2547 16.3621 76.3171 16.3273C76.3795 16.2926 76.4504 16.2762 76.5217 16.2798C76.8284 16.2798 76.9603 16.5038 76.9603 16.8443V17.3075C76.9603 17.6695 76.7886 17.921 76.4266 17.921C76.0646 17.921 75.8928 17.6817 75.8928 17.3075V17.1572H76.1413V17.3351C76.1413 17.5468 76.2303 17.6756 76.4174 17.6756C76.6045 17.6756 76.6965 17.5468 76.6965 17.3351V16.8504C76.6965 16.6388 76.6076 16.5099 76.4174 16.5099C76.3829 16.5083 76.3485 16.5136 76.3162 16.5257C76.2839 16.5377 76.2543 16.5562 76.2294 16.58C76.2044 16.6038 76.1845 16.6325 76.171 16.6642C76.1574 16.6959 76.1505 16.73 76.1505 16.7645V16.8167H75.902L75.9664 15.4976H76.8867V15.7369H76.1904L76.1689 16.4762Z" fill="#263238"/>
<path id="Vector_34" d="M78.2794 16.0805V16.1234H78.034V16.0651C78.034 15.8504 77.945 15.7246 77.7517 15.7246C77.5585 15.7246 77.4634 15.8535 77.4634 16.1081V16.6388C77.4912 16.5608 77.5438 16.4941 77.613 16.4487C77.6821 16.4033 77.7643 16.3817 77.8468 16.3872C78.1536 16.3872 78.2855 16.605 78.2855 16.9486V17.3075C78.2855 17.6695 78.1076 17.921 77.7456 17.921C77.3836 17.921 77.1996 17.6817 77.1996 17.3075V16.0989C77.1996 15.7216 77.3683 15.4854 77.7456 15.4854C78.1229 15.4854 78.2794 15.7185 78.2794 16.0805ZM77.4634 16.9701V17.3259C77.4634 17.5376 77.5524 17.6664 77.7456 17.6664C77.9389 17.6664 78.0248 17.5376 78.0248 17.3259V16.9701C78.0248 16.7553 77.9327 16.6265 77.7456 16.6265C77.5585 16.6265 77.4634 16.7553 77.4634 16.9701Z" fill="#263238"/>
<path id="Vector_35" d="M104.185 16.1848H103.516V17.8596H104.185V16.1848Z" fill="#263238"/>
<path id="Vector_36" d="M105.078 15.8504H104.409V17.8596H105.078V15.8504Z" fill="#263238"/>
<path id="Vector_37" d="M105.973 15.6111H105.305V17.8596H105.973V15.6111Z" fill="#263238"/>
<path id="Vector_38" d="M106.866 15.197H106.197V17.8596H106.866V15.197Z" fill="#263238"/>
<path id="Vector_39" d="M115.158 17.8136H111.139V15.3596H115.158V17.8136ZM111.363 17.5897H114.934V15.5804H111.363V17.5897Z" fill="#263238"/>
<path id="Vector_40" d="M113.82 15.8228H111.698V17.3474H113.82V15.8228Z" fill="#263238"/>
<path id="Vector_41" d="M115.526 16.2952H115.02V16.875H115.526V16.2952Z" fill="#263238"/>
<path id="Vector_42" d="M109.664 17.2799C109.637 17.2801 109.61 17.2726 109.587 17.2584C108.768 16.7737 108.228 17.2247 108.207 17.2584C108.192 17.2715 108.174 17.2815 108.156 17.2879C108.137 17.2943 108.117 17.2969 108.097 17.2957C108.077 17.2944 108.058 17.2892 108.04 17.2805C108.022 17.2717 108.006 17.2595 107.993 17.2446C107.98 17.2297 107.97 17.2124 107.964 17.1936C107.957 17.1748 107.955 17.1549 107.956 17.1352C107.957 17.1154 107.963 17.096 107.971 17.0782C107.98 17.0604 107.992 17.0445 108.007 17.0314C108.038 17.0069 108.728 16.4179 109.74 17.0314C109.768 17.0483 109.79 17.0739 109.802 17.1044C109.815 17.1348 109.817 17.1684 109.808 17.2001C109.799 17.2317 109.78 17.2596 109.754 17.2796C109.728 17.2995 109.696 17.3104 109.664 17.3106V17.2799Z" fill="#263238"/>
<path id="Vector_43" d="M109.967 16.7737C109.941 16.7739 109.914 16.7675 109.891 16.7553C108.707 16.0498 107.912 16.7308 107.903 16.7369C107.875 16.7648 107.837 16.7805 107.797 16.7805C107.757 16.7805 107.719 16.7648 107.691 16.7369C107.677 16.7232 107.666 16.7067 107.658 16.6886C107.65 16.6704 107.646 16.6508 107.646 16.6311C107.646 16.6113 107.65 16.5918 107.658 16.5736C107.666 16.5554 107.677 16.539 107.691 16.5253C107.691 16.5253 108.658 15.6939 110.029 16.5068C110.063 16.5278 110.088 16.5615 110.097 16.6005C110.107 16.6395 110.101 16.6808 110.081 16.7154C110.067 16.7329 110.05 16.7472 110.031 16.7572C110.011 16.7673 109.989 16.7729 109.967 16.7737Z" fill="#263238"/>
<path id="Vector_44" d="M110.24 16.1909C110.213 16.1911 110.187 16.1836 110.164 16.1694C108.667 15.2798 107.67 16.1173 107.63 16.1541C107.615 16.1672 107.598 16.1772 107.579 16.1836C107.56 16.19 107.54 16.1926 107.52 16.1913C107.501 16.1901 107.481 16.1849 107.463 16.1761C107.446 16.1674 107.43 16.1552 107.417 16.1403C107.404 16.1254 107.394 16.108 107.387 16.0893C107.381 16.0705 107.378 16.0506 107.379 16.0308C107.381 16.011 107.386 15.9917 107.395 15.9739C107.403 15.9561 107.416 15.9402 107.43 15.9271C107.43 15.9271 108.627 14.9056 110.317 15.9117C110.334 15.9216 110.349 15.9347 110.361 15.9505C110.373 15.9662 110.382 15.9842 110.387 16.0034C110.392 16.0226 110.393 16.0426 110.39 16.0621C110.387 16.0817 110.38 16.1005 110.369 16.1173C110.356 16.1396 110.337 16.1582 110.314 16.1711C110.292 16.184 110.266 16.1908 110.24 16.1909Z" fill="#263238"/>
<path id="Vector_45" d="M109.213 17.5314C109.213 17.6062 109.192 17.6794 109.151 17.7419C109.11 17.8043 109.051 17.8531 108.982 17.8822C108.913 17.9112 108.837 17.9191 108.764 17.9049C108.69 17.8907 108.623 17.855 108.57 17.8024C108.517 17.7497 108.48 17.6825 108.466 17.6092C108.451 17.5359 108.458 17.4599 108.487 17.3908C108.515 17.3217 108.563 17.2626 108.625 17.221C108.688 17.1794 108.761 17.1572 108.835 17.1572C108.935 17.1572 109.03 17.1965 109.101 17.2666C109.172 17.3367 109.212 17.4319 109.213 17.5314Z" fill="#263238"/>
<path id="Vector_46" d="M111.474 74.9532H78.1751C77.2721 74.9532 76.5401 75.6853 76.5401 76.5883V88.1683C76.5401 89.0713 77.2721 89.8034 78.1751 89.8034H111.474C112.377 89.8034 113.109 89.0713 113.109 88.1683V76.5883C113.109 75.6853 112.377 74.9532 111.474 74.9532Z" fill="#421CDD" stroke="#263238" stroke-width="0.5" stroke-linecap="round" stroke-linejoin="round"/>
<path id="Vector_47" d="M75.9664 36.9031H113.682V66.6769C113.682 67.3977 113.396 68.0891 112.886 68.5987C112.376 69.1084 111.685 69.3948 110.964 69.3948H78.6843C77.9635 69.3948 77.2722 69.1084 76.7625 68.5987C76.2528 68.0891 75.9664 67.3977 75.9664 66.6769V36.9031Z" fill="white" stroke="#263238" stroke-width="0.5" stroke-linecap="round" stroke-linejoin="round"/>
<path id="Vector_48" d="M113.682 36.9031H75.9664V39.7007H113.682V36.9031Z" fill="#421CDD" stroke="#263238" stroke-width="0.5" stroke-linecap="round" stroke-linejoin="round"/>
<path id="Vector_49" d="M82.3255 41.9124H78.0861V46.1518H82.3255V41.9124Z" fill="white" stroke="#263238" stroke-width="0.5" stroke-linecap="round" stroke-linejoin="round"/>
<path id="Vector_50" d="M89.6355 41.9124H85.3961V46.1518H89.6355V41.9124Z" fill="white" stroke="#263238" stroke-width="0.5" stroke-linecap="round" stroke-linejoin="round"/>
<path id="Vector_51" d="M96.9456 41.9124H92.7062V46.1518H96.9456V41.9124Z" fill="white" stroke="#263238" stroke-width="0.5" stroke-linecap="round" stroke-linejoin="round"/>
<path id="Vector_52" d="M104.253 41.9124H100.013V46.1518H104.253V41.9124Z" fill="white" stroke="#263238" stroke-width="0.5" stroke-linecap="round" stroke-linejoin="round"/>
<path id="Vector_53" d="M111.563 41.9124H107.323V46.1518H111.563V41.9124Z" fill="white" stroke="#263238" stroke-width="0.5" stroke-linecap="round" stroke-linejoin="round"/>
<path id="Vector_54" d="M82.3255 48.3452H78.0861V52.5845H82.3255V48.3452Z" fill="white" stroke="#263238" stroke-width="0.5" stroke-linecap="round" stroke-linejoin="round"/>
<path id="Vector_55" d="M89.6355 48.3452H85.3961V52.5845H89.6355V48.3452Z" fill="#421CDD" stroke="#263238" stroke-width="0.5" stroke-linecap="round" stroke-linejoin="round"/>
<path id="Vector_56" d="M96.9456 48.3452H92.7062V52.5845H96.9456V48.3452Z" fill="white" stroke="#263238" stroke-width="0.5" stroke-linecap="round" stroke-linejoin="round"/>
<path id="Vector_57" d="M104.253 48.3452H100.013V52.5845H104.253V48.3452Z" fill="white" stroke="#263238" stroke-width="0.5" stroke-linecap="round" stroke-linejoin="round"/>
<path id="Vector_58" d="M111.563 48.3452H107.323V52.5845H111.563V48.3452Z" fill="#421CDD" stroke="#263238" stroke-width="0.5" stroke-linecap="round" stroke-linejoin="round"/>
<path id="Vector_59" d="M82.3255 54.7778H78.0861V59.0172H82.3255V54.7778Z" fill="white" stroke="#263238" stroke-width="0.5" stroke-linecap="round" stroke-linejoin="round"/>
<path id="Vector_60" d="M89.6355 54.7778H85.3961V59.0172H89.6355V54.7778Z" fill="white" stroke="#263238" stroke-width="0.5" stroke-linecap="round" stroke-linejoin="round"/>
<path id="Vector_61" d="M96.9456 54.7778H92.7062V59.0172H96.9456V54.7778Z" fill="#421CDD" stroke="#263238" stroke-width="0.5" stroke-linecap="round" stroke-linejoin="round"/>
<path id="Vector_62" d="M104.253 54.7778H100.013V59.0172H104.253V54.7778Z" fill="white" stroke="#263238" stroke-width="0.5" stroke-linecap="round" stroke-linejoin="round"/>
<path id="Vector_63" d="M111.563 54.7778H107.323V59.0172H111.563V54.7778Z" fill="white" stroke="#263238" stroke-width="0.5" stroke-linecap="round" stroke-linejoin="round"/>
<path id="Vector_64" d="M82.3255 61.2075H78.0861V65.4468H82.3255V61.2075Z" fill="white" stroke="#263238" stroke-width="0.5" stroke-linecap="round" stroke-linejoin="round"/>
<path id="Vector_65" d="M89.6355 61.2075H85.3961V65.4468H89.6355V61.2075Z" fill="white" stroke="#263238" stroke-width="0.5" stroke-linecap="round" stroke-linejoin="round"/>
<path id="Vector_66" d="M96.9456 61.2075H92.7062V65.4468H96.9456V61.2075Z" fill="white" stroke="#263238" stroke-width="0.5" stroke-linecap="round" stroke-linejoin="round"/>
<path id="Vector_67" d="M104.253 61.2075H100.013V65.4468H104.253V61.2075Z" fill="white" stroke="#263238" stroke-width="0.5" stroke-linecap="round" stroke-linejoin="round"/>
<path id="Vector_68" d="M111.563 61.2075H107.323V65.4468H111.563V61.2075Z" fill="white" stroke="#263238" stroke-width="0.5" stroke-linecap="round" stroke-linejoin="round"/>
<path id="Vector_69" d="M75.3529 99.5337H114.909" stroke="#263238" stroke-width="0.5" stroke-linecap="round" stroke-linejoin="round"/>
<path id="Vector_70" d="M75.8713 102.031H84.4084" stroke="#263238" stroke-width="0.5" stroke-linecap="round" stroke-linejoin="round"/>
<path id="Vector_71" d="M75.8713 103.282H84.4084" stroke="#263238" stroke-width="0.5" stroke-linecap="round" stroke-linejoin="round"/>
<path id="Vector_72" d="M75.8713 104.531H84.4084" stroke="#263238" stroke-width="0.5" stroke-linecap="round" stroke-linejoin="round"/>
<path id="Vector_73" d="M75.8713 105.779H84.4084" stroke="#263238" stroke-width="0.5" stroke-linecap="round" stroke-linejoin="round"/>
<path id="Vector_74" d="M85.8655 102.031H94.4025" stroke="#263238" stroke-width="0.5" stroke-linecap="round" stroke-linejoin="round"/>
<path id="Vector_75" d="M85.8655 103.282H94.4025" stroke="#263238" stroke-width="0.5" stroke-linecap="round" stroke-linejoin="round"/>
<path id="Vector_76" d="M85.8655 104.531H94.4025" stroke="#263238" stroke-width="0.5" stroke-linecap="round" stroke-linejoin="round"/>
<path id="Vector_77" d="M85.8655 105.779H94.4025" stroke="#263238" stroke-width="0.5" stroke-linecap="round" stroke-linejoin="round"/>
<path id="Vector_78" d="M95.8596 102.031H104.397" stroke="#263238" stroke-width="0.5" stroke-linecap="round" stroke-linejoin="round"/>
<path id="Vector_79" d="M95.8596 103.282H104.397" stroke="#263238" stroke-width="0.5" stroke-linecap="round" stroke-linejoin="round"/>
<path id="Vector_80" d="M95.8596 104.531H104.397" stroke="#263238" stroke-width="0.5" stroke-linecap="round" stroke-linejoin="round"/>
<path id="Vector_81" d="M95.8596 105.779H104.397" stroke="#263238" stroke-width="0.5" stroke-linecap="round" stroke-linejoin="round"/>
<path id="Vector_82" d="M105.854 102.031H114.391" stroke="#263238" stroke-width="0.5" stroke-linecap="round" stroke-linejoin="round"/>
<path id="Vector_83" d="M105.854 103.282H114.391" stroke="#263238" stroke-width="0.5" stroke-linecap="round" stroke-linejoin="round"/>
<path id="Vector_84" d="M105.854 104.531H114.391" stroke="#263238" stroke-width="0.5" stroke-linecap="round" stroke-linejoin="round"/>
<path id="Vector_85" d="M105.854 105.779H114.391" stroke="#263238" stroke-width="0.5" stroke-linecap="round" stroke-linejoin="round"/>
<path id="Vector_86" d="M78.6874 31.7741V26.2157H79.215L80.7948 29.8968V26.2157H81.439V31.7741H80.9543L79.3561 27.9796V31.7741H78.6874Z" fill="#263238"/>
<path id="Vector_87" d="M82.3102 31.7741V26.2157H84.4575V26.7924H83.1016V28.6329H84.2182V29.182H83.1016V31.2189H84.4943V31.7741H82.3102Z" fill="#263238"/>
<path id="Vector_88" d="M84.7581 31.7741L85.9177 28.8661L84.7796 26.2157H85.5005L86.3441 28.1789L87.114 26.2157H87.8318L86.6661 28.9274L87.8932 31.7741H87.1723L86.2674 29.6821L85.4851 31.7741H84.7581Z" fill="#263238"/>
<path id="Vector_89" d="M89.0189 31.7741V26.7924H88.0803V26.2157H90.7092V26.7924H89.7889V31.7741H89.0189Z" fill="#263238"/>
<path id="Vector_90" d="M92.8135 31.7741V26.2157H94.9608V26.7924H93.5835V28.6329H94.7001V29.182H93.5835V31.2189H94.9762V31.7741H92.8135Z" fill="#263238"/>
<path id="Vector_91" d="M96.5744 31.7741L95.3474 26.2157H96.0744L96.9517 30.314L97.7891 26.2157H98.4977L97.2707 31.7741H96.5744Z" fill="#263238"/>
<path id="Vector_92" d="M99.0714 31.7741V26.2157H101.219V26.7924H99.8413V28.6329H100.958V29.182H99.8413V31.2189H101.234V31.7741H99.0714Z" fill="#263238"/>
<path id="Vector_93" d="M101.863 31.7741V26.2157H102.394L103.97 29.8968V26.2157H104.614V31.7741H104.121L102.522 27.9796V31.7741H101.863Z" fill="#263238"/>
<path id="Vector_94" d="M106.108 31.7741V26.7924H105.157V26.2157H107.786V26.7924H106.866V31.7741H106.108Z" fill="#263238"/>
<path id="Vector_95" d="M109.63 31.8355C109.35 31.8465 109.072 31.7751 108.832 31.63C108.618 31.4915 108.45 31.2931 108.348 31.0594C108.231 30.7927 108.166 30.5066 108.154 30.2158L108.842 30.0318C108.855 30.2244 108.886 30.4153 108.934 30.6023C108.975 30.7685 109.056 30.9221 109.17 31.0502C109.23 31.1095 109.302 31.1557 109.382 31.1858C109.461 31.2159 109.545 31.2292 109.63 31.225C109.714 31.2314 109.798 31.2196 109.877 31.1904C109.956 31.1613 110.027 31.1156 110.087 31.0563C110.197 30.9208 110.252 30.7488 110.24 30.5747C110.253 30.3568 110.193 30.1408 110.069 29.9612C109.941 29.7919 109.796 29.6366 109.636 29.498L108.716 28.6728C108.546 28.5279 108.408 28.3493 108.311 28.1483C108.219 27.9259 108.175 27.6864 108.182 27.4458C108.171 27.2722 108.197 27.0982 108.257 26.935C108.317 26.7718 108.411 26.6229 108.532 26.4979C108.793 26.2669 109.135 26.1488 109.483 26.1697C109.679 26.166 109.875 26.195 110.062 26.2556C110.222 26.3065 110.365 26.3974 110.48 26.5194C110.6 26.6478 110.691 26.8006 110.747 26.9673C110.82 27.1719 110.865 27.3855 110.881 27.6022L110.222 27.7802C110.212 27.6101 110.184 27.4415 110.139 27.2771C110.106 27.1348 110.031 27.0056 109.924 26.9059C109.8 26.8059 109.642 26.7557 109.483 26.7648C109.401 26.7594 109.319 26.7705 109.241 26.7974C109.164 26.8242 109.093 26.8664 109.032 26.9212C108.976 26.9823 108.933 27.0539 108.906 27.1319C108.878 27.21 108.867 27.2927 108.872 27.3752C108.867 27.5202 108.896 27.6644 108.958 27.7955C109.028 27.9235 109.122 28.037 109.234 28.1299L110.176 28.955C110.384 29.1463 110.564 29.3663 110.71 29.6084C110.874 29.8801 110.957 30.193 110.949 30.5103C110.955 30.7585 110.896 31.0039 110.777 31.222C110.668 31.4163 110.505 31.575 110.308 31.679C110.098 31.7848 109.865 31.8385 109.63 31.8355Z" fill="#263238"/>
<path id="Vector_96" d="M87.3471 81.3828C87.1027 81.3985 86.86 81.3327 86.6569 81.1957C86.4928 81.0698 86.3735 80.8945 86.3164 80.6957C86.2502 80.4675 86.2181 80.2308 86.2213 79.9932V78.5085C86.2164 78.2588 86.2484 78.0096 86.3164 77.7692C86.3704 77.5723 86.4906 77.4 86.6569 77.2815C86.8633 77.153 87.1045 77.0919 87.3471 77.1066C87.5614 77.0974 87.7739 77.1484 87.9606 77.2539C88.1142 77.3497 88.2309 77.4945 88.2919 77.6649C88.3641 77.8729 88.3984 78.0921 88.3932 78.3122V78.6435H87.8379V78.3367C87.8395 78.1994 87.8323 78.0621 87.8165 77.9257C87.8075 77.8204 87.7619 77.7216 87.6876 77.6465C87.5889 77.5732 87.4664 77.5393 87.3441 77.5514C87.2146 77.5393 87.0853 77.5765 86.9821 77.6557C86.8993 77.7381 86.8473 77.8464 86.8348 77.9625C86.8097 78.1114 86.7984 78.2624 86.8011 78.4134V80.073C86.7952 80.2403 86.8128 80.4075 86.8532 80.5699C86.8741 80.6752 86.9345 80.7685 87.022 80.8307C87.1193 80.8879 87.2312 80.9156 87.3441 80.9104C87.4051 80.9158 87.4666 80.909 87.525 80.8906C87.5834 80.8722 87.6376 80.8425 87.6846 80.8031C87.7567 80.7216 87.8017 80.6198 87.8134 80.5116C87.8305 80.3681 87.8387 80.2237 87.8379 80.0791V79.7724H88.3932V80.0791C88.3961 80.3066 88.364 80.5332 88.2981 80.7509C88.2479 80.9324 88.1403 81.0928 87.9913 81.208C87.7998 81.3315 87.5748 81.3926 87.3471 81.3828Z" fill="white"/>
<path id="Vector_97" d="M90.0282 81.3829C89.7909 81.3945 89.5554 81.3369 89.3502 81.2172C89.1807 81.1047 89.0543 80.9383 88.9913 80.7448C88.9137 80.5126 88.8763 80.2688 88.8809 80.024V78.438C88.8755 78.1961 88.9128 77.9552 88.9913 77.7263C89.0582 77.539 89.1856 77.3793 89.3533 77.2723C89.5622 77.1674 89.7928 77.1127 90.0266 77.1127C90.2604 77.1127 90.491 77.1674 90.7 77.2723C90.8658 77.3819 90.9917 77.5423 91.0589 77.7294C91.1376 77.9571 91.175 78.1971 91.1693 78.438V80.0424C91.1742 80.2852 91.1368 80.5271 91.0589 80.7571C90.9947 80.9499 90.8685 81.116 90.7 81.2295C90.4959 81.3454 90.2623 81.3988 90.0282 81.3829ZM90.0282 80.9228C90.153 80.9306 90.2769 80.8972 90.3809 80.8277C90.4633 80.7585 90.5196 80.6632 90.5404 80.5577C90.5692 80.4247 90.5826 80.2888 90.5803 80.1528V78.3123C90.5829 78.1772 90.5695 78.0423 90.5404 77.9104C90.5188 77.8086 90.4624 77.7175 90.3809 77.6527C90.2762 77.5854 90.1523 77.5541 90.0282 77.5638C89.9041 77.5546 89.7803 77.5858 89.6754 77.6527C89.5921 77.7164 89.5345 77.8078 89.5128 77.9104C89.4825 78.0422 89.4681 78.1771 89.4699 78.3123V80.1528C89.4685 80.289 89.4829 80.4248 89.5128 80.5577C89.5335 80.664 89.5911 80.7596 89.6754 80.8277C89.7796 80.8967 89.9034 80.9301 90.0282 80.9228Z" fill="white"/>
<path id="Vector_98" d="M91.7429 81.3368V77.1496H92.1417L93.3319 79.9288V77.1496H93.8166V81.3368H93.4454L92.2399 78.4779V81.3368H91.7429Z" fill="white"/>
<path id="Vector_99" d="M94.4731 81.3368V77.1496H96.0897V77.5699H95.0651V78.9625H95.8658V79.3766H95.0651V81.3368H94.4731Z" fill="white"/>
<path id="Vector_100" d="M96.5253 81.3368V77.1496H97.0989V81.3368H96.5253Z" fill="white"/>
<path id="Vector_101" d="M97.7738 81.3369V77.1497H98.6174C98.8534 77.1425 99.0886 77.18 99.3107 77.2601C99.4843 77.3273 99.628 77.4547 99.7156 77.619C99.8105 77.819 99.8558 78.0389 99.8475 78.2601C99.8486 78.409 99.8311 78.5574 99.7953 78.7018C99.766 78.8253 99.7094 78.9406 99.6297 79.0393C99.5486 79.1337 99.4422 79.2029 99.3229 79.2387L99.918 81.3369H99.3597L98.8106 79.3706H98.3566V81.3369H97.7738ZM98.3597 78.9534H98.5806C98.7181 78.9574 98.8553 78.9366 98.9855 78.892C99.0846 78.8517 99.1654 78.7764 99.2125 78.6804C99.2651 78.5468 99.2892 78.4036 99.283 78.2601C99.3001 78.074 99.2524 77.8876 99.1481 77.7325C99.0765 77.6688 98.9921 77.6213 98.9005 77.5932C98.8089 77.5652 98.7123 77.5572 98.6174 77.5699H98.3597V78.9534Z" fill="white"/>
<path id="Vector_102" d="M100.446 81.3368L100.525 77.1496H101.099L101.835 80.5454L102.581 77.1496H103.148L103.228 81.3368H102.755L102.709 78.2969L102.001 81.3368H101.673L100.967 78.2969L100.921 81.3368H100.446Z" fill="white"/>
<path id="Vector_103" d="M82.7366 87.5364L83.6262 83.3522H84.1906L85.0833 87.5364H84.5311L84.3286 86.4842H83.4759L83.2765 87.5395L82.7366 87.5364ZM83.5648 86.064H84.2612L83.9115 84.1774L83.5648 86.064Z" fill="white"/>
<path id="Vector_104" d="M85.8011 87.5364V83.7848H85.0925V83.3522H87.0895V83.7848H86.3839V87.5364H85.8011Z" fill="white"/>
<path id="Vector_105" d="M87.9361 87.5364V83.7848H87.2275V83.3522H89.2061V83.7848H88.5189V87.5364H87.9361Z" fill="white"/>
<path id="Vector_106" d="M89.611 87.5364V83.3522H91.2337V83.7848H90.1938V85.1713H91.0374V85.5824H90.1938V87.1161H91.2429V87.5333L89.611 87.5364Z" fill="white"/>
<path id="Vector_107" d="M91.7123 87.5364V83.3522H92.1111L93.2982 86.1315V83.3522H93.786V87.5364H93.4148L92.2092 84.6774V87.5364H91.7123Z" fill="white"/>
<path id="Vector_108" d="M94.4516 87.5364V83.3522H95.3719C95.625 83.3401 95.8774 83.3885 96.1081 83.4933C96.2851 83.5839 96.4234 83.7353 96.4977 83.9197C96.5779 84.1522 96.6123 84.3981 96.5989 84.6437V86.1775C96.6047 86.4319 96.5652 86.6853 96.4823 86.9259C96.4116 87.118 96.2788 87.281 96.105 87.3891C95.8891 87.5033 95.6465 87.5574 95.4025 87.5456L94.4516 87.5364ZM95.0344 87.1192H95.3719C95.5335 87.1346 95.6952 87.0898 95.8259 86.9934C95.9223 86.8966 95.9801 86.7679 95.9884 86.6315C96.0085 86.4409 96.0177 86.2494 96.0161 86.0578V84.6989C96.0197 84.5221 96.0063 84.3455 95.9762 84.1713C95.9681 84.1106 95.9479 84.0522 95.9168 83.9995C95.8857 83.9468 95.8444 83.9009 95.7952 83.8645C95.6605 83.7933 95.5085 83.7614 95.3565 83.7725H95.0498L95.0344 87.1192Z" fill="white"/>
<path id="Vector_109" d="M96.9363 87.5364L97.8259 83.3522H98.3904L99.283 87.5364H98.7462L98.556 86.4811H97.7032L97.5008 87.5364H96.9363ZM97.7646 86.064H98.4609L98.1112 84.1774L97.7646 86.064Z" fill="white"/>
<path id="Vector_110" d="M99.7064 87.5364V83.3522H100.105L101.295 86.1315V83.3522H101.78V87.5364H101.409L100.203 84.6774V87.5364H99.7064Z" fill="white"/>
<path id="Vector_111" d="M103.486 87.5824C103.242 87.5976 102.999 87.533 102.795 87.3983C102.631 87.2712 102.512 87.0949 102.455 86.8953C102.388 86.6671 102.356 86.4304 102.36 86.1928V84.7142C102.355 84.4645 102.387 84.2154 102.455 83.9749C102.511 83.7791 102.631 83.6076 102.795 83.4872C103.003 83.3611 103.243 83.3012 103.486 83.3154C103.699 83.3069 103.912 83.3567 104.099 83.4596C104.254 83.5558 104.37 83.7019 104.43 83.8737C104.5 84.0812 104.533 84.2991 104.529 84.5179V84.8492H103.976V84.5424C103.978 84.4051 103.971 84.2678 103.955 84.1314C103.947 84.0268 103.901 83.9287 103.826 83.8553C103.727 83.7804 103.603 83.7453 103.479 83.7571C103.351 83.7463 103.222 83.7847 103.121 83.8645C103.037 83.9464 102.985 84.0549 102.973 84.1713C102.948 84.3212 102.937 84.4732 102.94 84.6253V86.2817C102.934 86.45 102.951 86.6183 102.992 86.7818C103.013 86.8867 103.074 86.9797 103.16 87.0425C103.254 87.0961 103.36 87.1227 103.467 87.1192C103.591 87.1313 103.715 87.0938 103.811 87.0149C103.883 86.9335 103.928 86.8316 103.94 86.7235C103.957 86.5789 103.965 86.4334 103.964 86.2879V85.9811H104.516V86.2879C104.52 86.5162 104.489 86.7438 104.424 86.9627C104.374 87.1434 104.266 87.3028 104.118 87.4167C103.929 87.5361 103.708 87.5939 103.486 87.5824Z" fill="white"/>
<path id="Vector_112" d="M105.096 87.5364V83.3522H106.722V83.7848H105.685V85.1713H106.526V85.5824H105.685V87.1161H106.722V87.5333L105.096 87.5364Z" fill="white"/>
</g>
<g id="freepik--Character--inject-20">
<path id="Vector_113" d="M133.62 123.929C133.62 123.929 132.356 125.667 131.805 125.904C131.253 126.14 130.223 126.299 129.907 127.01C129.733 127.355 129.626 127.729 129.591 128.114H137.412C137.412 128.114 137.727 127.087 137.412 126.455C137.215 126.057 137.082 125.631 137.016 125.192L133.62 123.929Z" fill="white" stroke="#263238" stroke-width="0.5" stroke-linecap="round" stroke-linejoin="round"/>
<path id="Vector_114" d="M137.557 127.326H129.793C129.689 127.577 129.625 127.843 129.603 128.114H137.423C137.494 127.857 137.539 127.592 137.557 127.326Z" fill="white" stroke="#263238" stroke-width="0.5" stroke-linecap="round" stroke-linejoin="round"/>
<path id="Vector_115" d="M142.003 125.667L142.16 128.194H145.952C146.04 127.72 146.012 127.232 145.872 126.771C145.636 126.06 145.397 125.428 145.397 125.428L142.003 125.667Z" fill="white" stroke="#263238" stroke-width="0.5" stroke-linecap="round" stroke-linejoin="round"/>
<path id="Vector_116" d="M142.154 128.194H145.946C146.004 127.881 146.012 127.561 145.972 127.246H142.1L142.154 128.194Z" fill="white" stroke="#263238" stroke-width="0.5" stroke-linecap="round" stroke-linejoin="round"/>
<path id="Vector_117" d="M130.55 87.1266C130.55 87.1266 131.184 95.3395 131.344 98.2582C131.503 101.177 133.62 123.929 133.62 123.929C133.62 123.929 136.7 125.824 137.093 125.824C137.486 125.824 137.963 98.4175 137.963 98.4175L141.992 125.667C142.425 125.807 142.876 125.886 143.332 125.904C143.966 125.904 145.385 125.428 145.385 125.428L144.054 92.5687V87.1266C144.054 87.1266 136.089 88.2304 133.947 87.9147C132.792 87.7602 131.655 87.4963 130.55 87.1266Z" fill="#263238" stroke="#263238" stroke-width="0.5" stroke-linecap="round" stroke-linejoin="round"/>
<path id="Vector_118" d="M140.185 92.1021L138.447 93.442L137.975 98.4175" stroke="#808080" stroke-width="0.5" stroke-linecap="round" stroke-linejoin="round"/>
<path id="Vector_119" d="M140.902 53.7576C140.902 53.7576 137.679 53.3537 136.749 54.4489C135.819 55.5441 135.611 57.6863 134.951 58.1955C134.291 58.7047 133.93 58.0731 133.637 58.7388C133.344 59.4045 133.822 60.2266 133.822 60.2266C133.822 60.2266 133.742 63.4298 134.106 63.5863C134.47 63.7427 136.097 63.7427 136.097 63.7427L135.833 65.057L139.906 65.2277L140.262 63.8508C140.262 63.8508 143.36 62.0558 144.196 60.6932C145.033 59.3305 144.834 56.3094 143.997 55.2568C143.161 54.2043 140.902 53.7576 140.902 53.7576Z" fill="#B2B2B2" stroke="#263238" stroke-width="0.5" stroke-linecap="round" stroke-linejoin="round"/>
<path id="Vector_120" d="M135.912 58.0447C135.813 58.2837 135.651 58.4487 135.554 58.4088C135.457 58.369 135.463 58.1386 135.554 57.8968C135.645 57.655 135.813 57.4928 135.91 57.5327C136.006 57.5725 136.012 57.8029 135.912 58.0447Z" fill="#263238"/>
<path id="Vector_121" d="M134.132 60.7444C134.301 60.8311 134.497 60.8499 134.68 60.7971C134.863 60.7442 135.019 60.6236 135.116 60.4599" stroke="#263238" stroke-width="0.5" stroke-linecap="round" stroke-linejoin="round"/>
<path id="Vector_122" d="M135.947 56.921C135.947 56.921 136.359 56.6963 136.407 57.3819" stroke="#263238" stroke-width="0.5" stroke-linecap="round" stroke-linejoin="round"/>
<path id="Vector_123" d="M143.983 55.2597C143.147 54.2071 140.902 53.7576 140.902 53.7576C140.902 53.7576 137.679 53.3537 136.749 54.4489C136.749 54.4489 138.53 53.9994 138.299 54.759C138.069 55.5185 136.223 56.6792 136.857 57.1287C137.491 57.5782 138.205 57.2368 137.909 57.9025C137.614 58.5681 137.244 59.2196 137.554 59.2822C137.864 59.3447 138.732 58.6307 139.101 58.7872C139.471 58.9436 139.892 60.073 139.537 60.6448C139.298 60.9968 138.93 61.241 138.513 61.3247C138.513 61.3247 139.147 62.9832 139.704 63.4184C139.946 63.6088 140.251 63.7012 140.558 63.6773C141.346 63.1966 143.525 61.8026 144.205 60.6932C145.019 59.3334 144.819 56.3122 143.983 55.2597Z" fill="#263238" stroke="#263238" stroke-width="0.5" stroke-linecap="round" stroke-linejoin="round"/>
<path id="Vector_124" d="M130.18 87.2916L130.408 89.1038C130.408 89.1038 131.546 90.3128 134.789 90.3896C138.032 90.4664 142.043 90.088 143.024 89.7865C144.006 89.485 144.233 89.1806 144.233 89.1806L144.054 87.1266C144.054 87.1266 138.114 89.1806 130.18 87.2916Z" fill="white" stroke="#263238" stroke-width="0.5" stroke-linecap="round" stroke-linejoin="round"/>
<path id="Vector_125" d="M144.74 91.7637C144.74 91.7637 144.495 92.6882 144.438 92.9642C144.381 93.2401 144.549 95.24 144.549 95.5244C144.549 95.8089 144.834 96.0934 145.05 95.8573C145.05 95.8573 145.334 96.8615 145.664 96.8046C145.994 96.7477 147.055 95.5813 147.277 94.5771C147.499 93.5729 147.223 91.96 147.223 91.96L144.74 91.7637Z" fill="#B2B2B2" stroke="#263238" stroke-width="0.5" stroke-linecap="round" stroke-linejoin="round"/>
<g id="Vector_126">
<path d="M145.161 93.1888C145.222 93.4614 145.358 93.7116 145.553 93.9114L145.838 94.1362L146.006 95.1375C146.006 95.1375 145.895 95.7491 145.838 96.0848" fill="#B2B2B2"/>
<path d="M145.161 93.1888C145.222 93.4614 145.358 93.7116 145.553 93.9114L145.838 94.1362L146.006 95.1375C146.006 95.1375 145.895 95.7491 145.838 96.0848" stroke="#263238" stroke-width="0.5" stroke-linecap="round" stroke-linejoin="round"/>
</g>
<path id="Vector_127" d="M145.05 95.8601L145.107 94.4121" stroke="#263238" stroke-width="0.5" stroke-linecap="round" stroke-linejoin="round"/>
<path id="Vector_128" d="M144.737 90.5233C144.737 90.5233 144.751 91.3454 144.737 91.7636C144.723 92.1818 145.559 92.8673 146.617 92.5999C147.675 92.3325 147.695 90.2559 147.695 90.2559C147.695 90.2559 146.236 91.334 144.737 90.5233Z" fill="white" stroke="#263238" stroke-width="0.5" stroke-linecap="round" stroke-linejoin="round"/>
<path id="Vector_129" d="M144.185 67.3868C144.185 67.3868 146.481 68.886 147.098 70.0325C147.715 71.1789 149.217 81.9492 149.394 83.0956C149.57 84.242 147.971 90.2445 147.715 91.0382C147.459 91.8318 146.028 91.6896 145.511 91.4791C145.214 91.35 144.958 91.142 144.771 90.8777C144.584 90.6134 144.473 90.3029 144.449 89.9799L144.185 84.6858V67.3868Z" fill="#421CDD" stroke="#263238" stroke-width="0.5" stroke-linecap="round" stroke-linejoin="round"/>
<path id="Vector_130" d="M145.218 80.268C145.326 76.3621 145.533 72.7037 145.599 72.0637C145.673 71.3098 145.599 69.3128 145.092 68.1038C144.376 67.3944 143.553 66.8004 142.655 66.3429C142.362 66.2527 142.065 66.1786 141.764 66.121L142.014 66.0413C141.575 65.851 141.122 65.6923 140.66 65.5662C139.474 65.2505 136.316 65.094 135.369 65.9617C135.369 65.9617 132.632 66.8151 131.287 67.7965C130.609 68.6425 130.185 69.6634 130.064 70.7408C129.887 72.681 129.367 84.1254 129.367 84.1254C129.367 84.1254 128.735 86.0201 129.526 86.9702C130.317 87.9203 131.972 89.3399 136.789 89.1806C141.605 89.0213 143.901 88.3869 144.549 87.7895C144.734 87.5551 144.866 87.2833 144.936 86.993C145.168 86.2455 145.276 85.4653 145.257 84.683C145.232 83.181 145.189 80.285 145.218 80.268Z" fill="#421CDD" stroke="#263238" stroke-width="0.5" stroke-linecap="round" stroke-linejoin="round"/>
<path id="Vector_131" d="M134.499 66.2774C134.835 65.8043 135.205 65.3556 135.605 64.9347C135.841 64.7783 139.238 63.9874 140.265 64.3032C141.292 64.6189 141.764 66.121 141.764 66.121C139.346 65.8418 136.902 65.8945 134.499 66.2774Z" fill="white" stroke="#263238" stroke-width="0.5" stroke-linecap="round" stroke-linejoin="round"/>
<path id="Vector_132" d="M115.57 69.8817C115.57 69.8817 115.086 68.8007 114.799 68.2261C114.511 67.6514 112.358 66.0242 111.925 65.498C111.493 64.9717 110.967 65.2135 110.921 65.6886C110.876 66.1636 111.351 66.6956 111.49 66.8862C111.63 67.0768 111.968 67.5576 111.968 67.5576C111.968 67.5576 110.722 68.3712 110.628 68.6101C110.534 68.8491 110.819 69.8078 110.913 70.1435C111.007 70.4791 111.152 70.812 111.391 70.812H111.63C111.63 70.812 112.062 71.1477 112.349 71.3411C112.637 71.5345 113.621 71.5203 113.621 71.5203L114.312 71.9157C114.312 71.9157 114.662 70.5303 115.57 69.8817Z" fill="#B2B2B2" stroke="#263238" stroke-width="0.5" stroke-linecap="round" stroke-linejoin="round"/>
<g id="Vector_133">
<path d="M111.638 70.812C111.515 70.5252 111.45 70.2167 111.447 69.9045L111.638 70.812Z" fill="white"/>
<path d="M111.638 70.812C111.515 70.5252 111.45 70.2167 111.447 69.9045" stroke="#263238" stroke-width="0.5" stroke-linecap="round" stroke-linejoin="round"/>
</g>
<path id="Vector_134" d="M116.946 70.5446C116.946 70.5446 116.028 70.1179 115.57 69.8818C115.112 69.6456 113.903 70.2004 113.629 71.5203C113.356 72.8403 115.649 73.9782 115.649 73.9782C115.649 73.9782 115.24 71.7735 116.946 70.5446Z" fill="white" stroke="#263238" stroke-width="0.5" stroke-linecap="round" stroke-linejoin="round"/>
<g id="Vector_135">
<path d="M134.499 66.2774C134.499 66.2774 130.231 67.8278 129.711 68.1806C129.19 68.5333 124.152 74.439 124.152 74.439C124.152 74.439 118.178 71.0538 117.385 70.6129C116.591 70.1719 115.237 70.2885 114.884 71.6142C114.531 72.9399 114.796 73.9981 115.854 74.7918C116.912 75.5855 123.62 80.1741 124.593 80.5268C125.566 80.8796 128.035 79.1045 128.035 79.1045L132.624 75.045" fill="#421CDD"/>
<path d="M134.499 66.2774C134.499 66.2774 130.231 67.8278 129.711 68.1806C129.19 68.5333 124.152 74.439 124.152 74.439C124.152 74.439 118.178 71.0538 117.385 70.6129C116.591 70.1719 115.237 70.2885 114.884 71.6142C114.531 72.9399 114.796 73.9981 115.854 74.7918C116.912 75.5855 123.62 80.1741 124.593 80.5268C125.566 80.8796 128.035 79.1045 128.035 79.1045L132.624 75.045" stroke="#263238" stroke-width="0.5" stroke-linecap="round" stroke-linejoin="round"/>
</g>
</g>
<g id="freepik--Airplane--inject-20">
<path id="Vector_136" d="M148.468 27.8109L132.032 31.9429L137.95 35.1331L148.468 27.8109Z" fill="white" stroke="#263238" stroke-width="0.5" stroke-linecap="round" stroke-linejoin="round"/>
<path id="Vector_137" d="M137.95 35.1331L138.453 39.713L148.468 27.8109L137.95 35.1331Z" fill="#B2B2B2" stroke="#263238" stroke-width="0.5" stroke-linecap="round" stroke-linejoin="round"/>
<path id="Vector_138" d="M139.75 36.0289L138.453 39.713L148.468 27.8109L139.75 36.0289Z" fill="white" stroke="#263238" stroke-width="0.5" stroke-linecap="round" stroke-linejoin="round"/>
<path id="Vector_139" d="M148.468 27.8109L139.75 36.0289L144.738 39.3848L148.468 27.8109Z" fill="white" stroke="#263238" stroke-width="0.5" stroke-linecap="round" stroke-linejoin="round"/>
<path id="Vector_140" d="M66.3987 52.4925L65.8619 52.7992" stroke="#263238" stroke-width="0.5" stroke-linecap="round" stroke-linejoin="round"/>
<path id="Vector_141" d="M64.7882 53.3974C59.2359 56.5754 52.2112 61.0848 45.6221 66.7138C28.3486 81.4872 46.165 92.0887 71.9019 81.2142C97.2124 70.5329 119.354 58.9559 135.769 41.5168" stroke="#263238" stroke-width="0.5" stroke-linecap="round" stroke-linejoin="round" stroke-dasharray="4.03 4.03"/>
<path id="Vector_142" d="M136.192 41.0627L136.606 40.6149" stroke="#263238" stroke-width="0.5" stroke-linecap="round" stroke-linejoin="round"/>
<path id="Vector_143" d="M113.526 36.5166C123.548 32.495 139.238 20.8567 141.692 17.2983C153.349 0.331559 123.621 16.7216 123.621 16.7216" stroke="#263238" stroke-width="0.5" stroke-linecap="round" stroke-linejoin="round" stroke-dasharray="4 4"/>
</g>
</g>
</g>
<g id="freepik--Floor--inject-1">
<path id="Vector (Stroke)" fill-rule="evenodd" clip-rule="evenodd" d="M9 128C9 127.729 9.21918 127.51 9.48955 127.51H181.49C181.76 127.51 181.979 127.729 181.979 128C181.979 128.27 181.76 128.489 181.49 128.489H9.48955C9.21918 128.489 9 128.27 9 128Z" fill="#263238"/>
</g>
</g>
<defs>
<clipPath id="clip0_0_1">
<rect width="1440" height="812" fill="white" transform="translate(-679 -256)"/>
</clipPath>
<clipPath id="clip1_0_1">
<rect width="193.198" height="127.57" fill="white" transform="translate(0 0.592316)"/>
</clipPath>
</defs>
</svg>
